<?xml version="1.0" encoding="utf-8"?>
<svg xmlns="http://www.w3.org/2000/svg" xmlns:xlink="http://www.w3.org/1999/xlink" width="600" height="400" viewBox="0 0 2400 1600">
<defs>
  <clipPath id="clip580">
    <rect x="0" y="0" width="2400" height="1600"/>
  </clipPath>
</defs>
<path clip-path="url(#clip580)" d="M0 1600 L2400 1600 L2400 0 L0 0  Z" fill="#ffffff" fill-rule="evenodd" fill-opacity="1"/>
<defs>
  <clipPath id="clip581">
    <rect x="480" y="0" width="1681" height="1600"/>
  </clipPath>
</defs>
<path clip-path="url(#clip580)" d="M149.191 1423.18 L2352.76 1423.18 L2352.76 106.192 L149.191 106.192  Z" fill="#ffffff" fill-rule="evenodd" fill-opacity="1"/>
<defs>
  <clipPath id="clip582">
    <rect x="149" y="106" width="2205" height="1318"/>
  </clipPath>
</defs>
<polyline clip-path="url(#clip582)" style="stroke:#000000; stroke-linecap:round; stroke-linejoin:round; stroke-width:2; stroke-opacity:0.05; fill:none" points="150.668,1423.18 150.668,106.192 "/>
<polyline clip-path="url(#clip582)" style="stroke:#000000; stroke-linecap:round; stroke-linejoin:round; stroke-width:2; stroke-opacity:0.05; fill:none" points="272.444,1423.18 272.444,106.192 "/>
<polyline clip-path="url(#clip582)" style="stroke:#000000; stroke-linecap:round; stroke-linejoin:round; stroke-width:2; stroke-opacity:0.05; fill:none" points="333.331,1423.18 333.331,106.192 "/>
<polyline clip-path="url(#clip582)" style="stroke:#000000; stroke-linecap:round; stroke-linejoin:round; stroke-width:2; stroke-opacity:0.05; fill:none" points="394.219,1423.18 394.219,106.192 "/>
<polyline clip-path="url(#clip582)" style="stroke:#000000; stroke-linecap:round; stroke-linejoin:round; stroke-width:2; stroke-opacity:0.05; fill:none" points="455.107,1423.18 455.107,106.192 "/>
<polyline clip-path="url(#clip582)" style="stroke:#000000; stroke-linecap:round; stroke-linejoin:round; stroke-width:2; stroke-opacity:0.05; fill:none" points="515.994,1423.18 515.994,106.192 "/>
<polyline clip-path="url(#clip582)" style="stroke:#000000; stroke-linecap:round; stroke-linejoin:round; stroke-width:2; stroke-opacity:0.05; fill:none" points="576.882,1423.18 576.882,106.192 "/>
<polyline clip-path="url(#clip582)" style="stroke:#000000; stroke-linecap:round; stroke-linejoin:round; stroke-width:2; stroke-opacity:0.05; fill:none" points="637.77,1423.18 637.77,106.192 "/>
<polyline clip-path="url(#clip582)" style="stroke:#000000; stroke-linecap:round; stroke-linejoin:round; stroke-width:2; stroke-opacity:0.05; fill:none" points="698.657,1423.18 698.657,106.192 "/>
<polyline clip-path="url(#clip582)" style="stroke:#000000; stroke-linecap:round; stroke-linejoin:round; stroke-width:2; stroke-opacity:0.05; fill:none" points="759.545,1423.18 759.545,106.192 "/>
<polyline clip-path="url(#clip582)" style="stroke:#000000; stroke-linecap:round; stroke-linejoin:round; stroke-width:2; stroke-opacity:0.05; fill:none" points="881.32,1423.18 881.32,106.192 "/>
<polyline clip-path="url(#clip582)" style="stroke:#000000; stroke-linecap:round; stroke-linejoin:round; stroke-width:2; stroke-opacity:0.05; fill:none" points="942.208,1423.18 942.208,106.192 "/>
<polyline clip-path="url(#clip582)" style="stroke:#000000; stroke-linecap:round; stroke-linejoin:round; stroke-width:2; stroke-opacity:0.05; fill:none" points="1003.1,1423.18 1003.1,106.192 "/>
<polyline clip-path="url(#clip582)" style="stroke:#000000; stroke-linecap:round; stroke-linejoin:round; stroke-width:2; stroke-opacity:0.05; fill:none" points="1063.98,1423.18 1063.98,106.192 "/>
<polyline clip-path="url(#clip582)" style="stroke:#000000; stroke-linecap:round; stroke-linejoin:round; stroke-width:2; stroke-opacity:0.05; fill:none" points="1124.87,1423.18 1124.87,106.192 "/>
<polyline clip-path="url(#clip582)" style="stroke:#000000; stroke-linecap:round; stroke-linejoin:round; stroke-width:2; stroke-opacity:0.05; fill:none" points="1185.76,1423.18 1185.76,106.192 "/>
<polyline clip-path="url(#clip582)" style="stroke:#000000; stroke-linecap:round; stroke-linejoin:round; stroke-width:2; stroke-opacity:0.05; fill:none" points="1246.65,1423.18 1246.65,106.192 "/>
<polyline clip-path="url(#clip582)" style="stroke:#000000; stroke-linecap:round; stroke-linejoin:round; stroke-width:2; stroke-opacity:0.05; fill:none" points="1307.53,1423.18 1307.53,106.192 "/>
<polyline clip-path="url(#clip582)" style="stroke:#000000; stroke-linecap:round; stroke-linejoin:round; stroke-width:2; stroke-opacity:0.05; fill:none" points="1368.42,1423.18 1368.42,106.192 "/>
<polyline clip-path="url(#clip582)" style="stroke:#000000; stroke-linecap:round; stroke-linejoin:round; stroke-width:2; stroke-opacity:0.05; fill:none" points="1515.42,1423.18 1515.42,106.192 "/>
<polyline clip-path="url(#clip582)" style="stroke:#000000; stroke-linecap:round; stroke-linejoin:round; stroke-width:2; stroke-opacity:0.05; fill:none" points="1601.53,1423.18 1601.53,106.192 "/>
<polyline clip-path="url(#clip582)" style="stroke:#000000; stroke-linecap:round; stroke-linejoin:round; stroke-width:2; stroke-opacity:0.05; fill:none" points="1687.63,1423.18 1687.63,106.192 "/>
<polyline clip-path="url(#clip582)" style="stroke:#000000; stroke-linecap:round; stroke-linejoin:round; stroke-width:2; stroke-opacity:0.05; fill:none" points="1773.74,1423.18 1773.74,106.192 "/>
<polyline clip-path="url(#clip582)" style="stroke:#000000; stroke-linecap:round; stroke-linejoin:round; stroke-width:2; stroke-opacity:0.05; fill:none" points="1859.85,1423.18 1859.85,106.192 "/>
<polyline clip-path="url(#clip582)" style="stroke:#000000; stroke-linecap:round; stroke-linejoin:round; stroke-width:2; stroke-opacity:0.05; fill:none" points="1945.96,1423.18 1945.96,106.192 "/>
<polyline clip-path="url(#clip582)" style="stroke:#000000; stroke-linecap:round; stroke-linejoin:round; stroke-width:2; stroke-opacity:0.05; fill:none" points="2032.07,1423.18 2032.07,106.192 "/>
<polyline clip-path="url(#clip582)" style="stroke:#000000; stroke-linecap:round; stroke-linejoin:round; stroke-width:2; stroke-opacity:0.05; fill:none" points="2118.17,1423.18 2118.17,106.192 "/>
<polyline clip-path="url(#clip582)" style="stroke:#000000; stroke-linecap:round; stroke-linejoin:round; stroke-width:2; stroke-opacity:0.05; fill:none" points="2204.28,1423.18 2204.28,106.192 "/>
<polyline clip-path="url(#clip582)" style="stroke:#000000; stroke-linecap:round; stroke-linejoin:round; stroke-width:2; stroke-opacity:0.05; fill:none" points="149.191,1410.76 2352.76,1410.76 "/>
<polyline clip-path="url(#clip582)" style="stroke:#000000; stroke-linecap:round; stroke-linejoin:round; stroke-width:2; stroke-opacity:0.05; fill:none" points="149.191,1394.19 2352.76,1394.19 "/>
<polyline clip-path="url(#clip582)" style="stroke:#000000; stroke-linecap:round; stroke-linejoin:round; stroke-width:2; stroke-opacity:0.05; fill:none" points="149.191,1377.62 2352.76,1377.62 "/>
<polyline clip-path="url(#clip582)" style="stroke:#000000; stroke-linecap:round; stroke-linejoin:round; stroke-width:2; stroke-opacity:0.05; fill:none" points="149.191,1361.06 2352.76,1361.06 "/>
<polyline clip-path="url(#clip582)" style="stroke:#000000; stroke-linecap:round; stroke-linejoin:round; stroke-width:2; stroke-opacity:0.05; fill:none" points="149.191,1344.49 2352.76,1344.49 "/>
<polyline clip-path="url(#clip582)" style="stroke:#000000; stroke-linecap:round; stroke-linejoin:round; stroke-width:2; stroke-opacity:0.05; fill:none" points="149.191,1327.93 2352.76,1327.93 "/>
<polyline clip-path="url(#clip582)" style="stroke:#000000; stroke-linecap:round; stroke-linejoin:round; stroke-width:2; stroke-opacity:0.05; fill:none" points="149.191,1311.36 2352.76,1311.36 "/>
<polyline clip-path="url(#clip582)" style="stroke:#000000; stroke-linecap:round; stroke-linejoin:round; stroke-width:2; stroke-opacity:0.05; fill:none" points="149.191,1294.79 2352.76,1294.79 "/>
<polyline clip-path="url(#clip582)" style="stroke:#000000; stroke-linecap:round; stroke-linejoin:round; stroke-width:2; stroke-opacity:0.05; fill:none" points="149.191,1278.23 2352.76,1278.23 "/>
<polyline clip-path="url(#clip582)" style="stroke:#000000; stroke-linecap:round; stroke-linejoin:round; stroke-width:2; stroke-opacity:0.05; fill:none" points="149.191,1245.1 2352.76,1245.1 "/>
<polyline clip-path="url(#clip582)" style="stroke:#000000; stroke-linecap:round; stroke-linejoin:round; stroke-width:2; stroke-opacity:0.05; fill:none" points="149.191,1228.53 2352.76,1228.53 "/>
<polyline clip-path="url(#clip582)" style="stroke:#000000; stroke-linecap:round; stroke-linejoin:round; stroke-width:2; stroke-opacity:0.05; fill:none" points="149.191,1211.96 2352.76,1211.96 "/>
<polyline clip-path="url(#clip582)" style="stroke:#000000; stroke-linecap:round; stroke-linejoin:round; stroke-width:2; stroke-opacity:0.05; fill:none" points="149.191,1195.4 2352.76,1195.4 "/>
<polyline clip-path="url(#clip582)" style="stroke:#000000; stroke-linecap:round; stroke-linejoin:round; stroke-width:2; stroke-opacity:0.05; fill:none" points="149.191,1178.83 2352.76,1178.83 "/>
<polyline clip-path="url(#clip582)" style="stroke:#000000; stroke-linecap:round; stroke-linejoin:round; stroke-width:2; stroke-opacity:0.05; fill:none" points="149.191,1162.27 2352.76,1162.27 "/>
<polyline clip-path="url(#clip582)" style="stroke:#000000; stroke-linecap:round; stroke-linejoin:round; stroke-width:2; stroke-opacity:0.05; fill:none" points="149.191,1145.7 2352.76,1145.7 "/>
<polyline clip-path="url(#clip582)" style="stroke:#000000; stroke-linecap:round; stroke-linejoin:round; stroke-width:2; stroke-opacity:0.05; fill:none" points="149.191,1129.14 2352.76,1129.14 "/>
<polyline clip-path="url(#clip582)" style="stroke:#000000; stroke-linecap:round; stroke-linejoin:round; stroke-width:2; stroke-opacity:0.05; fill:none" points="149.191,1112.57 2352.76,1112.57 "/>
<polyline clip-path="url(#clip582)" style="stroke:#000000; stroke-linecap:round; stroke-linejoin:round; stroke-width:2; stroke-opacity:0.05; fill:none" points="149.191,1079.44 2352.76,1079.44 "/>
<polyline clip-path="url(#clip582)" style="stroke:#000000; stroke-linecap:round; stroke-linejoin:round; stroke-width:2; stroke-opacity:0.05; fill:none" points="149.191,1062.87 2352.76,1062.87 "/>
<polyline clip-path="url(#clip582)" style="stroke:#000000; stroke-linecap:round; stroke-linejoin:round; stroke-width:2; stroke-opacity:0.05; fill:none" points="149.191,1046.31 2352.76,1046.31 "/>
<polyline clip-path="url(#clip582)" style="stroke:#000000; stroke-linecap:round; stroke-linejoin:round; stroke-width:2; stroke-opacity:0.05; fill:none" points="149.191,1029.74 2352.76,1029.74 "/>
<polyline clip-path="url(#clip582)" style="stroke:#000000; stroke-linecap:round; stroke-linejoin:round; stroke-width:2; stroke-opacity:0.05; fill:none" points="149.191,1013.17 2352.76,1013.17 "/>
<polyline clip-path="url(#clip582)" style="stroke:#000000; stroke-linecap:round; stroke-linejoin:round; stroke-width:2; stroke-opacity:0.05; fill:none" points="149.191,996.608 2352.76,996.608 "/>
<polyline clip-path="url(#clip582)" style="stroke:#000000; stroke-linecap:round; stroke-linejoin:round; stroke-width:2; stroke-opacity:0.05; fill:none" points="149.191,980.042 2352.76,980.042 "/>
<polyline clip-path="url(#clip582)" style="stroke:#000000; stroke-linecap:round; stroke-linejoin:round; stroke-width:2; stroke-opacity:0.05; fill:none" points="149.191,963.477 2352.76,963.477 "/>
<polyline clip-path="url(#clip582)" style="stroke:#000000; stroke-linecap:round; stroke-linejoin:round; stroke-width:2; stroke-opacity:0.05; fill:none" points="149.191,946.911 2352.76,946.911 "/>
<polyline clip-path="url(#clip582)" style="stroke:#000000; stroke-linecap:round; stroke-linejoin:round; stroke-width:2; stroke-opacity:0.05; fill:none" points="149.191,913.779 2352.76,913.779 "/>
<polyline clip-path="url(#clip582)" style="stroke:#000000; stroke-linecap:round; stroke-linejoin:round; stroke-width:2; stroke-opacity:0.05; fill:none" points="149.191,897.213 2352.76,897.213 "/>
<polyline clip-path="url(#clip582)" style="stroke:#000000; stroke-linecap:round; stroke-linejoin:round; stroke-width:2; stroke-opacity:0.05; fill:none" points="149.191,880.647 2352.76,880.647 "/>
<polyline clip-path="url(#clip582)" style="stroke:#000000; stroke-linecap:round; stroke-linejoin:round; stroke-width:2; stroke-opacity:0.05; fill:none" points="149.191,864.081 2352.76,864.081 "/>
<polyline clip-path="url(#clip582)" style="stroke:#000000; stroke-linecap:round; stroke-linejoin:round; stroke-width:2; stroke-opacity:0.05; fill:none" points="149.191,847.515 2352.76,847.515 "/>
<polyline clip-path="url(#clip582)" style="stroke:#000000; stroke-linecap:round; stroke-linejoin:round; stroke-width:2; stroke-opacity:0.05; fill:none" points="149.191,830.95 2352.76,830.95 "/>
<polyline clip-path="url(#clip582)" style="stroke:#000000; stroke-linecap:round; stroke-linejoin:round; stroke-width:2; stroke-opacity:0.05; fill:none" points="149.191,814.384 2352.76,814.384 "/>
<polyline clip-path="url(#clip582)" style="stroke:#000000; stroke-linecap:round; stroke-linejoin:round; stroke-width:2; stroke-opacity:0.05; fill:none" points="149.191,797.818 2352.76,797.818 "/>
<polyline clip-path="url(#clip582)" style="stroke:#000000; stroke-linecap:round; stroke-linejoin:round; stroke-width:2; stroke-opacity:0.05; fill:none" points="149.191,781.252 2352.76,781.252 "/>
<polyline clip-path="url(#clip582)" style="stroke:#000000; stroke-linecap:round; stroke-linejoin:round; stroke-width:2; stroke-opacity:0.05; fill:none" points="149.191,748.12 2352.76,748.12 "/>
<polyline clip-path="url(#clip582)" style="stroke:#000000; stroke-linecap:round; stroke-linejoin:round; stroke-width:2; stroke-opacity:0.05; fill:none" points="149.191,731.554 2352.76,731.554 "/>
<polyline clip-path="url(#clip582)" style="stroke:#000000; stroke-linecap:round; stroke-linejoin:round; stroke-width:2; stroke-opacity:0.05; fill:none" points="149.191,714.988 2352.76,714.988 "/>
<polyline clip-path="url(#clip582)" style="stroke:#000000; stroke-linecap:round; stroke-linejoin:round; stroke-width:2; stroke-opacity:0.05; fill:none" points="149.191,698.422 2352.76,698.422 "/>
<polyline clip-path="url(#clip582)" style="stroke:#000000; stroke-linecap:round; stroke-linejoin:round; stroke-width:2; stroke-opacity:0.05; fill:none" points="149.191,681.857 2352.76,681.857 "/>
<polyline clip-path="url(#clip582)" style="stroke:#000000; stroke-linecap:round; stroke-linejoin:round; stroke-width:2; stroke-opacity:0.05; fill:none" points="149.191,665.291 2352.76,665.291 "/>
<polyline clip-path="url(#clip582)" style="stroke:#000000; stroke-linecap:round; stroke-linejoin:round; stroke-width:2; stroke-opacity:0.05; fill:none" points="149.191,648.725 2352.76,648.725 "/>
<polyline clip-path="url(#clip582)" style="stroke:#000000; stroke-linecap:round; stroke-linejoin:round; stroke-width:2; stroke-opacity:0.05; fill:none" points="149.191,632.159 2352.76,632.159 "/>
<polyline clip-path="url(#clip582)" style="stroke:#000000; stroke-linecap:round; stroke-linejoin:round; stroke-width:2; stroke-opacity:0.05; fill:none" points="149.191,615.593 2352.76,615.593 "/>
<polyline clip-path="url(#clip582)" style="stroke:#000000; stroke-linecap:round; stroke-linejoin:round; stroke-width:2; stroke-opacity:0.05; fill:none" points="149.191,582.461 2352.76,582.461 "/>
<polyline clip-path="url(#clip582)" style="stroke:#000000; stroke-linecap:round; stroke-linejoin:round; stroke-width:2; stroke-opacity:0.05; fill:none" points="149.191,565.895 2352.76,565.895 "/>
<polyline clip-path="url(#clip582)" style="stroke:#000000; stroke-linecap:round; stroke-linejoin:round; stroke-width:2; stroke-opacity:0.05; fill:none" points="149.191,549.33 2352.76,549.33 "/>
<polyline clip-path="url(#clip582)" style="stroke:#000000; stroke-linecap:round; stroke-linejoin:round; stroke-width:2; stroke-opacity:0.05; fill:none" points="149.191,532.764 2352.76,532.764 "/>
<polyline clip-path="url(#clip582)" style="stroke:#000000; stroke-linecap:round; stroke-linejoin:round; stroke-width:2; stroke-opacity:0.05; fill:none" points="149.191,516.198 2352.76,516.198 "/>
<polyline clip-path="url(#clip582)" style="stroke:#000000; stroke-linecap:round; stroke-linejoin:round; stroke-width:2; stroke-opacity:0.05; fill:none" points="149.191,499.632 2352.76,499.632 "/>
<polyline clip-path="url(#clip582)" style="stroke:#000000; stroke-linecap:round; stroke-linejoin:round; stroke-width:2; stroke-opacity:0.05; fill:none" points="149.191,483.066 2352.76,483.066 "/>
<polyline clip-path="url(#clip582)" style="stroke:#000000; stroke-linecap:round; stroke-linejoin:round; stroke-width:2; stroke-opacity:0.05; fill:none" points="149.191,466.5 2352.76,466.5 "/>
<polyline clip-path="url(#clip582)" style="stroke:#000000; stroke-linecap:round; stroke-linejoin:round; stroke-width:2; stroke-opacity:0.05; fill:none" points="149.191,449.934 2352.76,449.934 "/>
<polyline clip-path="url(#clip582)" style="stroke:#000000; stroke-linecap:round; stroke-linejoin:round; stroke-width:2; stroke-opacity:0.05; fill:none" points="149.191,416.802 2352.76,416.802 "/>
<polyline clip-path="url(#clip582)" style="stroke:#000000; stroke-linecap:round; stroke-linejoin:round; stroke-width:2; stroke-opacity:0.05; fill:none" points="149.191,400.237 2352.76,400.237 "/>
<polyline clip-path="url(#clip582)" style="stroke:#000000; stroke-linecap:round; stroke-linejoin:round; stroke-width:2; stroke-opacity:0.05; fill:none" points="149.191,383.671 2352.76,383.671 "/>
<polyline clip-path="url(#clip582)" style="stroke:#000000; stroke-linecap:round; stroke-linejoin:round; stroke-width:2; stroke-opacity:0.05; fill:none" points="149.191,367.105 2352.76,367.105 "/>
<polyline clip-path="url(#clip582)" style="stroke:#000000; stroke-linecap:round; stroke-linejoin:round; stroke-width:2; stroke-opacity:0.05; fill:none" points="149.191,350.539 2352.76,350.539 "/>
<polyline clip-path="url(#clip582)" style="stroke:#000000; stroke-linecap:round; stroke-linejoin:round; stroke-width:2; stroke-opacity:0.05; fill:none" points="149.191,333.973 2352.76,333.973 "/>
<polyline clip-path="url(#clip582)" style="stroke:#000000; stroke-linecap:round; stroke-linejoin:round; stroke-width:2; stroke-opacity:0.05; fill:none" points="149.191,317.407 2352.76,317.407 "/>
<polyline clip-path="url(#clip582)" style="stroke:#000000; stroke-linecap:round; stroke-linejoin:round; stroke-width:2; stroke-opacity:0.05; fill:none" points="149.191,300.841 2352.76,300.841 "/>
<polyline clip-path="url(#clip582)" style="stroke:#000000; stroke-linecap:round; stroke-linejoin:round; stroke-width:2; stroke-opacity:0.05; fill:none" points="149.191,284.275 2352.76,284.275 "/>
<polyline clip-path="url(#clip582)" style="stroke:#000000; stroke-linecap:round; stroke-linejoin:round; stroke-width:2; stroke-opacity:0.05; fill:none" points="149.191,251.144 2352.76,251.144 "/>
<polyline clip-path="url(#clip582)" style="stroke:#000000; stroke-linecap:round; stroke-linejoin:round; stroke-width:2; stroke-opacity:0.05; fill:none" points="149.191,234.578 2352.76,234.578 "/>
<polyline clip-path="url(#clip582)" style="stroke:#000000; stroke-linecap:round; stroke-linejoin:round; stroke-width:2; stroke-opacity:0.05; fill:none" points="149.191,218.012 2352.76,218.012 "/>
<polyline clip-path="url(#clip582)" style="stroke:#000000; stroke-linecap:round; stroke-linejoin:round; stroke-width:2; stroke-opacity:0.05; fill:none" points="149.191,201.446 2352.76,201.446 "/>
<polyline clip-path="url(#clip582)" style="stroke:#000000; stroke-linecap:round; stroke-linejoin:round; stroke-width:2; stroke-opacity:0.05; fill:none" points="149.191,184.88 2352.76,184.88 "/>
<polyline clip-path="url(#clip582)" style="stroke:#000000; stroke-linecap:round; stroke-linejoin:round; stroke-width:2; stroke-opacity:0.05; fill:none" points="149.191,168.314 2352.76,168.314 "/>
<polyline clip-path="url(#clip582)" style="stroke:#000000; stroke-linecap:round; stroke-linejoin:round; stroke-width:2; stroke-opacity:0.05; fill:none" points="149.191,151.748 2352.76,151.748 "/>
<polyline clip-path="url(#clip582)" style="stroke:#000000; stroke-linecap:round; stroke-linejoin:round; stroke-width:2; stroke-opacity:0.05; fill:none" points="149.191,135.182 2352.76,135.182 "/>
<polyline clip-path="url(#clip582)" style="stroke:#000000; stroke-linecap:round; stroke-linejoin:round; stroke-width:2; stroke-opacity:0.05; fill:none" points="149.191,118.617 2352.76,118.617 "/>
<polyline clip-path="url(#clip582)" style="stroke:#000000; stroke-linecap:round; stroke-linejoin:round; stroke-width:2; stroke-opacity:0.1; fill:none" points="211.556,1423.18 211.556,106.192 "/>
<polyline clip-path="url(#clip582)" style="stroke:#000000; stroke-linecap:round; stroke-linejoin:round; stroke-width:2; stroke-opacity:0.1; fill:none" points="820.433,1423.18 820.433,106.192 "/>
<polyline clip-path="url(#clip582)" style="stroke:#000000; stroke-linecap:round; stroke-linejoin:round; stroke-width:2; stroke-opacity:0.1; fill:none" points="1429.31,1423.18 1429.31,106.192 "/>
<polyline clip-path="url(#clip582)" style="stroke:#000000; stroke-linecap:round; stroke-linejoin:round; stroke-width:2; stroke-opacity:0.1; fill:none" points="2290.39,1423.18 2290.39,106.192 "/>
<polyline clip-path="url(#clip582)" style="stroke:#000000; stroke-linecap:round; stroke-linejoin:round; stroke-width:2; stroke-opacity:0.1; fill:none" points="149.191,1261.66 2352.76,1261.66 "/>
<polyline clip-path="url(#clip582)" style="stroke:#000000; stroke-linecap:round; stroke-linejoin:round; stroke-width:2; stroke-opacity:0.1; fill:none" points="149.191,1096 2352.76,1096 "/>
<polyline clip-path="url(#clip582)" style="stroke:#000000; stroke-linecap:round; stroke-linejoin:round; stroke-width:2; stroke-opacity:0.1; fill:none" points="149.191,930.345 2352.76,930.345 "/>
<polyline clip-path="url(#clip582)" style="stroke:#000000; stroke-linecap:round; stroke-linejoin:round; stroke-width:2; stroke-opacity:0.1; fill:none" points="149.191,764.686 2352.76,764.686 "/>
<polyline clip-path="url(#clip582)" style="stroke:#000000; stroke-linecap:round; stroke-linejoin:round; stroke-width:2; stroke-opacity:0.1; fill:none" points="149.191,599.027 2352.76,599.027 "/>
<polyline clip-path="url(#clip582)" style="stroke:#000000; stroke-linecap:round; stroke-linejoin:round; stroke-width:2; stroke-opacity:0.1; fill:none" points="149.191,433.368 2352.76,433.368 "/>
<polyline clip-path="url(#clip582)" style="stroke:#000000; stroke-linecap:round; stroke-linejoin:round; stroke-width:2; stroke-opacity:0.1; fill:none" points="149.191,267.709 2352.76,267.709 "/>
<polyline clip-path="url(#clip580)" style="stroke:#000000; stroke-linecap:round; stroke-linejoin:round; stroke-width:4; stroke-opacity:1; fill:none" points="149.191,1423.18 2352.76,1423.18 "/>
<polyline clip-path="url(#clip580)" style="stroke:#000000; stroke-linecap:round; stroke-linejoin:round; stroke-width:4; stroke-opacity:1; fill:none" points="211.556,1423.18 211.556,1404.28 "/>
<polyline clip-path="url(#clip580)" style="stroke:#000000; stroke-linecap:round; stroke-linejoin:round; stroke-width:4; stroke-opacity:1; fill:none" points="820.433,1423.18 820.433,1404.28 "/>
<polyline clip-path="url(#clip580)" style="stroke:#000000; stroke-linecap:round; stroke-linejoin:round; stroke-width:4; stroke-opacity:1; fill:none" points="1429.31,1423.18 1429.31,1404.28 "/>
<polyline clip-path="url(#clip580)" style="stroke:#000000; stroke-linecap:round; stroke-linejoin:round; stroke-width:4; stroke-opacity:1; fill:none" points="2290.39,1423.18 2290.39,1404.28 "/>
<polyline clip-path="url(#clip580)" style="stroke:#000000; stroke-linecap:round; stroke-linejoin:round; stroke-width:4; stroke-opacity:1; fill:none" points="150.668,1423.18 150.668,1413.73 "/>
<polyline clip-path="url(#clip580)" style="stroke:#000000; stroke-linecap:round; stroke-linejoin:round; stroke-width:4; stroke-opacity:1; fill:none" points="272.444,1423.18 272.444,1413.73 "/>
<polyline clip-path="url(#clip580)" style="stroke:#000000; stroke-linecap:round; stroke-linejoin:round; stroke-width:4; stroke-opacity:1; fill:none" points="333.331,1423.18 333.331,1413.73 "/>
<polyline clip-path="url(#clip580)" style="stroke:#000000; stroke-linecap:round; stroke-linejoin:round; stroke-width:4; stroke-opacity:1; fill:none" points="394.219,1423.18 394.219,1413.73 "/>
<polyline clip-path="url(#clip580)" style="stroke:#000000; stroke-linecap:round; stroke-linejoin:round; stroke-width:4; stroke-opacity:1; fill:none" points="455.107,1423.18 455.107,1413.73 "/>
<polyline clip-path="url(#clip580)" style="stroke:#000000; stroke-linecap:round; stroke-linejoin:round; stroke-width:4; stroke-opacity:1; fill:none" points="515.994,1423.18 515.994,1413.73 "/>
<polyline clip-path="url(#clip580)" style="stroke:#000000; stroke-linecap:round; stroke-linejoin:round; stroke-width:4; stroke-opacity:1; fill:none" points="576.882,1423.18 576.882,1413.73 "/>
<polyline clip-path="url(#clip580)" style="stroke:#000000; stroke-linecap:round; stroke-linejoin:round; stroke-width:4; stroke-opacity:1; fill:none" points="637.77,1423.18 637.77,1413.73 "/>
<polyline clip-path="url(#clip580)" style="stroke:#000000; stroke-linecap:round; stroke-linejoin:round; stroke-width:4; stroke-opacity:1; fill:none" points="698.657,1423.18 698.657,1413.73 "/>
<polyline clip-path="url(#clip580)" style="stroke:#000000; stroke-linecap:round; stroke-linejoin:round; stroke-width:4; stroke-opacity:1; fill:none" points="759.545,1423.18 759.545,1413.73 "/>
<polyline clip-path="url(#clip580)" style="stroke:#000000; stroke-linecap:round; stroke-linejoin:round; stroke-width:4; stroke-opacity:1; fill:none" points="881.32,1423.18 881.32,1413.73 "/>
<polyline clip-path="url(#clip580)" style="stroke:#000000; stroke-linecap:round; stroke-linejoin:round; stroke-width:4; stroke-opacity:1; fill:none" points="942.208,1423.18 942.208,1413.73 "/>
<polyline clip-path="url(#clip580)" style="stroke:#000000; stroke-linecap:round; stroke-linejoin:round; stroke-width:4; stroke-opacity:1; fill:none" points="1003.1,1423.18 1003.1,1413.73 "/>
<polyline clip-path="url(#clip580)" style="stroke:#000000; stroke-linecap:round; stroke-linejoin:round; stroke-width:4; stroke-opacity:1; fill:none" points="1063.98,1423.18 1063.98,1413.73 "/>
<polyline clip-path="url(#clip580)" style="stroke:#000000; stroke-linecap:round; stroke-linejoin:round; stroke-width:4; stroke-opacity:1; fill:none" points="1124.87,1423.18 1124.87,1413.73 "/>
<polyline clip-path="url(#clip580)" style="stroke:#000000; stroke-linecap:round; stroke-linejoin:round; stroke-width:4; stroke-opacity:1; fill:none" points="1185.76,1423.18 1185.76,1413.73 "/>
<polyline clip-path="url(#clip580)" style="stroke:#000000; stroke-linecap:round; stroke-linejoin:round; stroke-width:4; stroke-opacity:1; fill:none" points="1246.65,1423.18 1246.65,1413.73 "/>
<polyline clip-path="url(#clip580)" style="stroke:#000000; stroke-linecap:round; stroke-linejoin:round; stroke-width:4; stroke-opacity:1; fill:none" points="1307.53,1423.18 1307.53,1413.73 "/>
<polyline clip-path="url(#clip580)" style="stroke:#000000; stroke-linecap:round; stroke-linejoin:round; stroke-width:4; stroke-opacity:1; fill:none" points="1368.42,1423.18 1368.42,1413.73 "/>
<polyline clip-path="url(#clip580)" style="stroke:#000000; stroke-linecap:round; stroke-linejoin:round; stroke-width:4; stroke-opacity:1; fill:none" points="1515.42,1423.18 1515.42,1413.73 "/>
<polyline clip-path="url(#clip580)" style="stroke:#000000; stroke-linecap:round; stroke-linejoin:round; stroke-width:4; stroke-opacity:1; fill:none" points="1601.53,1423.18 1601.53,1413.73 "/>
<polyline clip-path="url(#clip580)" style="stroke:#000000; stroke-linecap:round; stroke-linejoin:round; stroke-width:4; stroke-opacity:1; fill:none" points="1687.63,1423.18 1687.63,1413.73 "/>
<polyline clip-path="url(#clip580)" style="stroke:#000000; stroke-linecap:round; stroke-linejoin:round; stroke-width:4; stroke-opacity:1; fill:none" points="1773.74,1423.18 1773.74,1413.73 "/>
<polyline clip-path="url(#clip580)" style="stroke:#000000; stroke-linecap:round; stroke-linejoin:round; stroke-width:4; stroke-opacity:1; fill:none" points="1859.85,1423.18 1859.85,1413.73 "/>
<polyline clip-path="url(#clip580)" style="stroke:#000000; stroke-linecap:round; stroke-linejoin:round; stroke-width:4; stroke-opacity:1; fill:none" points="1945.96,1423.18 1945.96,1413.73 "/>
<polyline clip-path="url(#clip580)" style="stroke:#000000; stroke-linecap:round; stroke-linejoin:round; stroke-width:4; stroke-opacity:1; fill:none" points="2032.07,1423.18 2032.07,1413.73 "/>
<polyline clip-path="url(#clip580)" style="stroke:#000000; stroke-linecap:round; stroke-linejoin:round; stroke-width:4; stroke-opacity:1; fill:none" points="2118.17,1423.18 2118.17,1413.73 "/>
<polyline clip-path="url(#clip580)" style="stroke:#000000; stroke-linecap:round; stroke-linejoin:round; stroke-width:4; stroke-opacity:1; fill:none" points="2204.28,1423.18 2204.28,1413.73 "/>
<path clip-path="url(#clip580)" d="M200.804 1485.58 L200.804 1451.02 L222.308 1451.02 L222.308 1454.96 L205.48 1454.96 L205.48 1485.58 L200.804 1485.58 Z" fill="#000000" fill-rule="nonzero" fill-opacity="1" /><path clip-path="url(#clip580)" d="M807.215 1451.02 L812.238 1451.02 L820.826 1463.87 L829.46 1451.02 L834.483 1451.02 L823.372 1467.62 L835.224 1485.58 L830.201 1485.58 L820.479 1470.88 L810.687 1485.58 L805.641 1485.58 L817.979 1467.13 L807.215 1451.02 Z" fill="#000000" fill-rule="nonzero" fill-opacity="1" /><path clip-path="url(#clip580)" d="M1413.5 1451.02 L1420.47 1451.02 L1429.29 1474.54 L1438.15 1451.02 L1445.12 1451.02 L1445.12 1485.58 L1440.56 1485.58 L1440.56 1455.23 L1431.65 1478.94 L1426.95 1478.94 L1418.04 1455.23 L1418.04 1485.58 L1413.5 1485.58 L1413.5 1451.02 Z" fill="#000000" fill-rule="nonzero" fill-opacity="1" /><path clip-path="url(#clip580)" d="M2279.64 1485.58 L2279.64 1451.02 L2301.14 1451.02 L2301.14 1454.96 L2284.31 1454.96 L2284.31 1485.58 L2279.64 1485.58 Z" fill="#000000" fill-rule="nonzero" fill-opacity="1" /><path clip-path="url(#clip580)" d="M1235.15 1518.52 L1241.04 1518.52 L1241.04 1547.77 L1258.52 1532.4 L1266 1532.4 L1247.09 1549.07 L1266.79 1568.04 L1259.15 1568.04 L1241.04 1550.63 L1241.04 1568.04 L1235.15 1568.04 L1235.15 1518.52 Z" fill="#000000" fill-rule="nonzero" fill-opacity="1" /><polyline clip-path="url(#clip580)" style="stroke:#000000; stroke-linecap:round; stroke-linejoin:round; stroke-width:4; stroke-opacity:1; fill:none" points="149.191,1423.18 149.191,106.192 "/>
<polyline clip-path="url(#clip580)" style="stroke:#000000; stroke-linecap:round; stroke-linejoin:round; stroke-width:4; stroke-opacity:1; fill:none" points="149.191,1261.66 168.089,1261.66 "/>
<polyline clip-path="url(#clip580)" style="stroke:#000000; stroke-linecap:round; stroke-linejoin:round; stroke-width:4; stroke-opacity:1; fill:none" points="149.191,1096 168.089,1096 "/>
<polyline clip-path="url(#clip580)" style="stroke:#000000; stroke-linecap:round; stroke-linejoin:round; stroke-width:4; stroke-opacity:1; fill:none" points="149.191,930.345 168.089,930.345 "/>
<polyline clip-path="url(#clip580)" style="stroke:#000000; stroke-linecap:round; stroke-linejoin:round; stroke-width:4; stroke-opacity:1; fill:none" points="149.191,764.686 168.089,764.686 "/>
<polyline clip-path="url(#clip580)" style="stroke:#000000; stroke-linecap:round; stroke-linejoin:round; stroke-width:4; stroke-opacity:1; fill:none" points="149.191,599.027 168.089,599.027 "/>
<polyline clip-path="url(#clip580)" style="stroke:#000000; stroke-linecap:round; stroke-linejoin:round; stroke-width:4; stroke-opacity:1; fill:none" points="149.191,433.368 168.089,433.368 "/>
<polyline clip-path="url(#clip580)" style="stroke:#000000; stroke-linecap:round; stroke-linejoin:round; stroke-width:4; stroke-opacity:1; fill:none" points="149.191,267.709 168.089,267.709 "/>
<polyline clip-path="url(#clip580)" style="stroke:#000000; stroke-linecap:round; stroke-linejoin:round; stroke-width:4; stroke-opacity:1; fill:none" points="149.191,1410.76 158.64,1410.76 "/>
<polyline clip-path="url(#clip580)" style="stroke:#000000; stroke-linecap:round; stroke-linejoin:round; stroke-width:4; stroke-opacity:1; fill:none" points="149.191,1394.19 158.64,1394.19 "/>
<polyline clip-path="url(#clip580)" style="stroke:#000000; stroke-linecap:round; stroke-linejoin:round; stroke-width:4; stroke-opacity:1; fill:none" points="149.191,1377.62 158.64,1377.62 "/>
<polyline clip-path="url(#clip580)" style="stroke:#000000; stroke-linecap:round; stroke-linejoin:round; stroke-width:4; stroke-opacity:1; fill:none" points="149.191,1361.06 158.64,1361.06 "/>
<polyline clip-path="url(#clip580)" style="stroke:#000000; stroke-linecap:round; stroke-linejoin:round; stroke-width:4; stroke-opacity:1; fill:none" points="149.191,1344.49 158.64,1344.49 "/>
<polyline clip-path="url(#clip580)" style="stroke:#000000; stroke-linecap:round; stroke-linejoin:round; stroke-width:4; stroke-opacity:1; fill:none" points="149.191,1327.93 158.64,1327.93 "/>
<polyline clip-path="url(#clip580)" style="stroke:#000000; stroke-linecap:round; stroke-linejoin:round; stroke-width:4; stroke-opacity:1; fill:none" points="149.191,1311.36 158.64,1311.36 "/>
<polyline clip-path="url(#clip580)" style="stroke:#000000; stroke-linecap:round; stroke-linejoin:round; stroke-width:4; stroke-opacity:1; fill:none" points="149.191,1294.79 158.64,1294.79 "/>
<polyline clip-path="url(#clip580)" style="stroke:#000000; stroke-linecap:round; stroke-linejoin:round; stroke-width:4; stroke-opacity:1; fill:none" points="149.191,1278.23 158.64,1278.23 "/>
<polyline clip-path="url(#clip580)" style="stroke:#000000; stroke-linecap:round; stroke-linejoin:round; stroke-width:4; stroke-opacity:1; fill:none" points="149.191,1245.1 158.64,1245.1 "/>
<polyline clip-path="url(#clip580)" style="stroke:#000000; stroke-linecap:round; stroke-linejoin:round; stroke-width:4; stroke-opacity:1; fill:none" points="149.191,1228.53 158.64,1228.53 "/>
<polyline clip-path="url(#clip580)" style="stroke:#000000; stroke-linecap:round; stroke-linejoin:round; stroke-width:4; stroke-opacity:1; fill:none" points="149.191,1211.96 158.64,1211.96 "/>
<polyline clip-path="url(#clip580)" style="stroke:#000000; stroke-linecap:round; stroke-linejoin:round; stroke-width:4; stroke-opacity:1; fill:none" points="149.191,1195.4 158.64,1195.4 "/>
<polyline clip-path="url(#clip580)" style="stroke:#000000; stroke-linecap:round; stroke-linejoin:round; stroke-width:4; stroke-opacity:1; fill:none" points="149.191,1178.83 158.64,1178.83 "/>
<polyline clip-path="url(#clip580)" style="stroke:#000000; stroke-linecap:round; stroke-linejoin:round; stroke-width:4; stroke-opacity:1; fill:none" points="149.191,1162.27 158.64,1162.27 "/>
<polyline clip-path="url(#clip580)" style="stroke:#000000; stroke-linecap:round; stroke-linejoin:round; stroke-width:4; stroke-opacity:1; fill:none" points="149.191,1145.7 158.64,1145.7 "/>
<polyline clip-path="url(#clip580)" style="stroke:#000000; stroke-linecap:round; stroke-linejoin:round; stroke-width:4; stroke-opacity:1; fill:none" points="149.191,1129.14 158.64,1129.14 "/>
<polyline clip-path="url(#clip580)" style="stroke:#000000; stroke-linecap:round; stroke-linejoin:round; stroke-width:4; stroke-opacity:1; fill:none" points="149.191,1112.57 158.64,1112.57 "/>
<polyline clip-path="url(#clip580)" style="stroke:#000000; stroke-linecap:round; stroke-linejoin:round; stroke-width:4; stroke-opacity:1; fill:none" points="149.191,1079.44 158.64,1079.44 "/>
<polyline clip-path="url(#clip580)" style="stroke:#000000; stroke-linecap:round; stroke-linejoin:round; stroke-width:4; stroke-opacity:1; fill:none" points="149.191,1062.87 158.64,1062.87 "/>
<polyline clip-path="url(#clip580)" style="stroke:#000000; stroke-linecap:round; stroke-linejoin:round; stroke-width:4; stroke-opacity:1; fill:none" points="149.191,1046.31 158.64,1046.31 "/>
<polyline clip-path="url(#clip580)" style="stroke:#000000; stroke-linecap:round; stroke-linejoin:round; stroke-width:4; stroke-opacity:1; fill:none" points="149.191,1029.74 158.64,1029.74 "/>
<polyline clip-path="url(#clip580)" style="stroke:#000000; stroke-linecap:round; stroke-linejoin:round; stroke-width:4; stroke-opacity:1; fill:none" points="149.191,1013.17 158.64,1013.17 "/>
<polyline clip-path="url(#clip580)" style="stroke:#000000; stroke-linecap:round; stroke-linejoin:round; stroke-width:4; stroke-opacity:1; fill:none" points="149.191,996.608 158.64,996.608 "/>
<polyline clip-path="url(#clip580)" style="stroke:#000000; stroke-linecap:round; stroke-linejoin:round; stroke-width:4; stroke-opacity:1; fill:none" points="149.191,980.042 158.64,980.042 "/>
<polyline clip-path="url(#clip580)" style="stroke:#000000; stroke-linecap:round; stroke-linejoin:round; stroke-width:4; stroke-opacity:1; fill:none" points="149.191,963.477 158.64,963.477 "/>
<polyline clip-path="url(#clip580)" style="stroke:#000000; stroke-linecap:round; stroke-linejoin:round; stroke-width:4; stroke-opacity:1; fill:none" points="149.191,946.911 158.64,946.911 "/>
<polyline clip-path="url(#clip580)" style="stroke:#000000; stroke-linecap:round; stroke-linejoin:round; stroke-width:4; stroke-opacity:1; fill:none" points="149.191,913.779 158.64,913.779 "/>
<polyline clip-path="url(#clip580)" style="stroke:#000000; stroke-linecap:round; stroke-linejoin:round; stroke-width:4; stroke-opacity:1; fill:none" points="149.191,897.213 158.64,897.213 "/>
<polyline clip-path="url(#clip580)" style="stroke:#000000; stroke-linecap:round; stroke-linejoin:round; stroke-width:4; stroke-opacity:1; fill:none" points="149.191,880.647 158.64,880.647 "/>
<polyline clip-path="url(#clip580)" style="stroke:#000000; stroke-linecap:round; stroke-linejoin:round; stroke-width:4; stroke-opacity:1; fill:none" points="149.191,864.081 158.64,864.081 "/>
<polyline clip-path="url(#clip580)" style="stroke:#000000; stroke-linecap:round; stroke-linejoin:round; stroke-width:4; stroke-opacity:1; fill:none" points="149.191,847.515 158.64,847.515 "/>
<polyline clip-path="url(#clip580)" style="stroke:#000000; stroke-linecap:round; stroke-linejoin:round; stroke-width:4; stroke-opacity:1; fill:none" points="149.191,830.95 158.64,830.95 "/>
<polyline clip-path="url(#clip580)" style="stroke:#000000; stroke-linecap:round; stroke-linejoin:round; stroke-width:4; stroke-opacity:1; fill:none" points="149.191,814.384 158.64,814.384 "/>
<polyline clip-path="url(#clip580)" style="stroke:#000000; stroke-linecap:round; stroke-linejoin:round; stroke-width:4; stroke-opacity:1; fill:none" points="149.191,797.818 158.64,797.818 "/>
<polyline clip-path="url(#clip580)" style="stroke:#000000; stroke-linecap:round; stroke-linejoin:round; stroke-width:4; stroke-opacity:1; fill:none" points="149.191,781.252 158.64,781.252 "/>
<polyline clip-path="url(#clip580)" style="stroke:#000000; stroke-linecap:round; stroke-linejoin:round; stroke-width:4; stroke-opacity:1; fill:none" points="149.191,748.12 158.64,748.12 "/>
<polyline clip-path="url(#clip580)" style="stroke:#000000; stroke-linecap:round; stroke-linejoin:round; stroke-width:4; stroke-opacity:1; fill:none" points="149.191,731.554 158.64,731.554 "/>
<polyline clip-path="url(#clip580)" style="stroke:#000000; stroke-linecap:round; stroke-linejoin:round; stroke-width:4; stroke-opacity:1; fill:none" points="149.191,714.988 158.64,714.988 "/>
<polyline clip-path="url(#clip580)" style="stroke:#000000; stroke-linecap:round; stroke-linejoin:round; stroke-width:4; stroke-opacity:1; fill:none" points="149.191,698.422 158.64,698.422 "/>
<polyline clip-path="url(#clip580)" style="stroke:#000000; stroke-linecap:round; stroke-linejoin:round; stroke-width:4; stroke-opacity:1; fill:none" points="149.191,681.857 158.64,681.857 "/>
<polyline clip-path="url(#clip580)" style="stroke:#000000; stroke-linecap:round; stroke-linejoin:round; stroke-width:4; stroke-opacity:1; fill:none" points="149.191,665.291 158.64,665.291 "/>
<polyline clip-path="url(#clip580)" style="stroke:#000000; stroke-linecap:round; stroke-linejoin:round; stroke-width:4; stroke-opacity:1; fill:none" points="149.191,648.725 158.64,648.725 "/>
<polyline clip-path="url(#clip580)" style="stroke:#000000; stroke-linecap:round; stroke-linejoin:round; stroke-width:4; stroke-opacity:1; fill:none" points="149.191,632.159 158.64,632.159 "/>
<polyline clip-path="url(#clip580)" style="stroke:#000000; stroke-linecap:round; stroke-linejoin:round; stroke-width:4; stroke-opacity:1; fill:none" points="149.191,615.593 158.64,615.593 "/>
<polyline clip-path="url(#clip580)" style="stroke:#000000; stroke-linecap:round; stroke-linejoin:round; stroke-width:4; stroke-opacity:1; fill:none" points="149.191,582.461 158.64,582.461 "/>
<polyline clip-path="url(#clip580)" style="stroke:#000000; stroke-linecap:round; stroke-linejoin:round; stroke-width:4; stroke-opacity:1; fill:none" points="149.191,565.895 158.64,565.895 "/>
<polyline clip-path="url(#clip580)" style="stroke:#000000; stroke-linecap:round; stroke-linejoin:round; stroke-width:4; stroke-opacity:1; fill:none" points="149.191,549.33 158.64,549.33 "/>
<polyline clip-path="url(#clip580)" style="stroke:#000000; stroke-linecap:round; stroke-linejoin:round; stroke-width:4; stroke-opacity:1; fill:none" points="149.191,532.764 158.64,532.764 "/>
<polyline clip-path="url(#clip580)" style="stroke:#000000; stroke-linecap:round; stroke-linejoin:round; stroke-width:4; stroke-opacity:1; fill:none" points="149.191,516.198 158.64,516.198 "/>
<polyline clip-path="url(#clip580)" style="stroke:#000000; stroke-linecap:round; stroke-linejoin:round; stroke-width:4; stroke-opacity:1; fill:none" points="149.191,499.632 158.64,499.632 "/>
<polyline clip-path="url(#clip580)" style="stroke:#000000; stroke-linecap:round; stroke-linejoin:round; stroke-width:4; stroke-opacity:1; fill:none" points="149.191,483.066 158.64,483.066 "/>
<polyline clip-path="url(#clip580)" style="stroke:#000000; stroke-linecap:round; stroke-linejoin:round; stroke-width:4; stroke-opacity:1; fill:none" points="149.191,466.5 158.64,466.5 "/>
<polyline clip-path="url(#clip580)" style="stroke:#000000; stroke-linecap:round; stroke-linejoin:round; stroke-width:4; stroke-opacity:1; fill:none" points="149.191,449.934 158.64,449.934 "/>
<polyline clip-path="url(#clip580)" style="stroke:#000000; stroke-linecap:round; stroke-linejoin:round; stroke-width:4; stroke-opacity:1; fill:none" points="149.191,416.802 158.64,416.802 "/>
<polyline clip-path="url(#clip580)" style="stroke:#000000; stroke-linecap:round; stroke-linejoin:round; stroke-width:4; stroke-opacity:1; fill:none" points="149.191,400.237 158.64,400.237 "/>
<polyline clip-path="url(#clip580)" style="stroke:#000000; stroke-linecap:round; stroke-linejoin:round; stroke-width:4; stroke-opacity:1; fill:none" points="149.191,383.671 158.64,383.671 "/>
<polyline clip-path="url(#clip580)" style="stroke:#000000; stroke-linecap:round; stroke-linejoin:round; stroke-width:4; stroke-opacity:1; fill:none" points="149.191,367.105 158.64,367.105 "/>
<polyline clip-path="url(#clip580)" style="stroke:#000000; stroke-linecap:round; stroke-linejoin:round; stroke-width:4; stroke-opacity:1; fill:none" points="149.191,350.539 158.64,350.539 "/>
<polyline clip-path="url(#clip580)" style="stroke:#000000; stroke-linecap:round; stroke-linejoin:round; stroke-width:4; stroke-opacity:1; fill:none" points="149.191,333.973 158.64,333.973 "/>
<polyline clip-path="url(#clip580)" style="stroke:#000000; stroke-linecap:round; stroke-linejoin:round; stroke-width:4; stroke-opacity:1; fill:none" points="149.191,317.407 158.64,317.407 "/>
<polyline clip-path="url(#clip580)" style="stroke:#000000; stroke-linecap:round; stroke-linejoin:round; stroke-width:4; stroke-opacity:1; fill:none" points="149.191,300.841 158.64,300.841 "/>
<polyline clip-path="url(#clip580)" style="stroke:#000000; stroke-linecap:round; stroke-linejoin:round; stroke-width:4; stroke-opacity:1; fill:none" points="149.191,284.275 158.64,284.275 "/>
<polyline clip-path="url(#clip580)" style="stroke:#000000; stroke-linecap:round; stroke-linejoin:round; stroke-width:4; stroke-opacity:1; fill:none" points="149.191,251.144 158.64,251.144 "/>
<polyline clip-path="url(#clip580)" style="stroke:#000000; stroke-linecap:round; stroke-linejoin:round; stroke-width:4; stroke-opacity:1; fill:none" points="149.191,234.578 158.64,234.578 "/>
<polyline clip-path="url(#clip580)" style="stroke:#000000; stroke-linecap:round; stroke-linejoin:round; stroke-width:4; stroke-opacity:1; fill:none" points="149.191,218.012 158.64,218.012 "/>
<polyline clip-path="url(#clip580)" style="stroke:#000000; stroke-linecap:round; stroke-linejoin:round; stroke-width:4; stroke-opacity:1; fill:none" points="149.191,201.446 158.64,201.446 "/>
<polyline clip-path="url(#clip580)" style="stroke:#000000; stroke-linecap:round; stroke-linejoin:round; stroke-width:4; stroke-opacity:1; fill:none" points="149.191,184.88 158.64,184.88 "/>
<polyline clip-path="url(#clip580)" style="stroke:#000000; stroke-linecap:round; stroke-linejoin:round; stroke-width:4; stroke-opacity:1; fill:none" points="149.191,168.314 158.64,168.314 "/>
<polyline clip-path="url(#clip580)" style="stroke:#000000; stroke-linecap:round; stroke-linejoin:round; stroke-width:4; stroke-opacity:1; fill:none" points="149.191,151.748 158.64,151.748 "/>
<polyline clip-path="url(#clip580)" style="stroke:#000000; stroke-linecap:round; stroke-linejoin:round; stroke-width:4; stroke-opacity:1; fill:none" points="149.191,135.182 158.64,135.182 "/>
<polyline clip-path="url(#clip580)" style="stroke:#000000; stroke-linecap:round; stroke-linejoin:round; stroke-width:4; stroke-opacity:1; fill:none" points="149.191,118.617 158.64,118.617 "/>
<path clip-path="url(#clip580)" d="M51.3162 1262.11 L80.992 1262.11 L80.992 1266.05 L51.3162 1266.05 L51.3162 1262.11 Z" fill="#000000" fill-rule="nonzero" fill-opacity="1" /><path clip-path="url(#clip580)" d="M101.663 1259.8 Q98.515 1259.8 96.6632 1261.95 Q94.8345 1264.1 94.8345 1267.85 Q94.8345 1271.58 96.6632 1273.76 Q98.515 1275.91 101.663 1275.91 Q104.811 1275.91 106.64 1273.76 Q108.492 1271.58 108.492 1267.85 Q108.492 1264.1 106.64 1261.95 Q104.811 1259.8 101.663 1259.8 M110.946 1245.15 L110.946 1249.41 Q109.186 1248.57 107.381 1248.13 Q105.598 1247.69 103.839 1247.69 Q99.2095 1247.69 96.7558 1250.82 Q94.3252 1253.94 93.978 1260.26 Q95.3437 1258.25 97.4039 1257.18 Q99.4641 1256.1 101.941 1256.1 Q107.149 1256.1 110.158 1259.27 Q113.191 1262.41 113.191 1267.85 Q113.191 1273.18 110.043 1276.4 Q106.895 1279.61 101.663 1279.61 Q95.6678 1279.61 92.4965 1275.03 Q89.3253 1270.42 89.3253 1261.7 Q89.3253 1253.5 93.2141 1248.64 Q97.103 1243.76 103.654 1243.76 Q105.413 1243.76 107.196 1244.1 Q109.001 1244.45 110.946 1245.15 Z" fill="#000000" fill-rule="nonzero" fill-opacity="1" /><path clip-path="url(#clip580)" d="M50.9921 1096.46 L80.6679 1096.46 L80.6679 1100.39 L50.9921 1100.39 L50.9921 1096.46 Z" fill="#000000" fill-rule="nonzero" fill-opacity="1" /><path clip-path="url(#clip580)" d="M103.608 1082.8 L91.8021 1101.25 L103.608 1101.25 L103.608 1082.8 M102.381 1078.72 L108.26 1078.72 L108.26 1101.25 L113.191 1101.25 L113.191 1105.14 L108.26 1105.14 L108.26 1113.28 L103.608 1113.28 L103.608 1105.14 L88.0058 1105.14 L88.0058 1100.62 L102.381 1078.72 Z" fill="#000000" fill-rule="nonzero" fill-opacity="1" /><path clip-path="url(#clip580)" d="M53.0754 930.796 L82.7512 930.796 L82.7512 934.731 L53.0754 934.731 L53.0754 930.796 Z" fill="#000000" fill-rule="nonzero" fill-opacity="1" /><path clip-path="url(#clip580)" d="M96.8715 943.69 L113.191 943.69 L113.191 947.625 L91.2465 947.625 L91.2465 943.69 Q93.9086 940.935 98.4919 936.305 Q103.098 931.653 104.279 930.31 Q106.524 927.787 107.404 926.051 Q108.307 924.292 108.307 922.602 Q108.307 919.847 106.362 918.111 Q104.441 916.375 101.339 916.375 Q99.14 916.375 96.6863 917.139 Q94.2558 917.903 91.478 919.454 L91.478 914.731 Q94.3021 913.597 96.7558 913.019 Q99.2095 912.44 101.246 912.44 Q106.617 912.44 109.811 915.125 Q113.006 917.81 113.006 922.301 Q113.006 924.43 112.196 926.352 Q111.408 928.25 109.302 930.842 Q108.723 931.514 105.621 934.731 Q102.52 937.926 96.8715 943.69 Z" fill="#000000" fill-rule="nonzero" fill-opacity="1" /><path clip-path="url(#clip580)" d="M101.246 750.485 Q97.6354 750.485 95.8067 754.049 Q94.0012 757.591 94.0012 764.721 Q94.0012 771.827 95.8067 775.392 Q97.6354 778.934 101.246 778.934 Q104.881 778.934 106.686 775.392 Q108.515 771.827 108.515 764.721 Q108.515 757.591 106.686 754.049 Q104.881 750.485 101.246 750.485 M101.246 746.781 Q107.057 746.781 110.112 751.387 Q113.191 755.971 113.191 764.721 Q113.191 773.448 110.112 778.054 Q107.057 782.637 101.246 782.637 Q95.4363 782.637 92.3576 778.054 Q89.3021 773.448 89.3021 764.721 Q89.3021 755.971 92.3576 751.387 Q95.4363 746.781 101.246 746.781 Z" fill="#000000" fill-rule="nonzero" fill-opacity="1" /><path clip-path="url(#clip580)" d="M96.8715 612.372 L113.191 612.372 L113.191 616.307 L91.2465 616.307 L91.2465 612.372 Q93.9086 609.617 98.4919 604.988 Q103.098 600.335 104.279 598.992 Q106.524 596.469 107.404 594.733 Q108.307 592.974 108.307 591.284 Q108.307 588.53 106.362 586.793 Q104.441 585.057 101.339 585.057 Q99.14 585.057 96.6863 585.821 Q94.2558 586.585 91.478 588.136 L91.478 583.414 Q94.3021 582.28 96.7558 581.701 Q99.2095 581.122 101.246 581.122 Q106.617 581.122 109.811 583.807 Q113.006 586.492 113.006 590.983 Q113.006 593.113 112.196 595.034 Q111.408 596.932 109.302 599.525 Q108.723 600.196 105.621 603.414 Q102.52 606.608 96.8715 612.372 Z" fill="#000000" fill-rule="nonzero" fill-opacity="1" /><path clip-path="url(#clip580)" d="M103.608 420.162 L91.8021 438.611 L103.608 438.611 L103.608 420.162 M102.381 416.088 L108.26 416.088 L108.26 438.611 L113.191 438.611 L113.191 442.5 L108.26 442.5 L108.26 450.648 L103.608 450.648 L103.608 442.5 L88.0058 442.5 L88.0058 437.986 L102.381 416.088 Z" fill="#000000" fill-rule="nonzero" fill-opacity="1" /><path clip-path="url(#clip580)" d="M101.663 265.846 Q98.515 265.846 96.6632 267.999 Q94.8345 270.152 94.8345 273.902 Q94.8345 277.628 96.6632 279.804 Q98.515 281.957 101.663 281.957 Q104.811 281.957 106.64 279.804 Q108.492 277.628 108.492 273.902 Q108.492 270.152 106.64 267.999 Q104.811 265.846 101.663 265.846 M110.946 251.193 L110.946 255.453 Q109.186 254.619 107.381 254.179 Q105.598 253.74 103.839 253.74 Q99.2095 253.74 96.7558 256.865 Q94.3252 259.99 93.978 266.309 Q95.3437 264.295 97.4039 263.23 Q99.4641 262.142 101.941 262.142 Q107.149 262.142 110.158 265.314 Q113.191 268.462 113.191 273.902 Q113.191 279.226 110.043 282.443 Q106.895 285.661 101.663 285.661 Q95.6678 285.661 92.4965 281.077 Q89.3253 276.471 89.3253 267.744 Q89.3253 259.55 93.2141 254.689 Q97.103 249.804 103.654 249.804 Q105.413 249.804 107.196 250.152 Q109.001 250.499 110.946 251.193 Z" fill="#000000" fill-rule="nonzero" fill-opacity="1" /><path clip-path="url(#clip580)" d="M624.487 46.9789 L624.487 64.1663 L619.134 64.1663 L619.134 19.4328 L624.487 19.4328 L624.487 24.3517 Q626.165 21.4582 628.711 20.0693 Q631.286 18.6515 634.845 18.6515 Q640.748 18.6515 644.423 23.339 Q648.127 28.0265 648.127 35.6653 Q648.127 43.3042 644.423 47.9916 Q640.748 52.6791 634.845 52.6791 Q631.286 52.6791 628.711 51.2902 Q626.165 49.8724 624.487 46.9789 M642.6 35.6653 Q642.6 29.7915 640.169 26.464 Q637.768 23.1075 633.543 23.1075 Q629.319 23.1075 626.888 26.464 Q624.487 29.7915 624.487 35.6653 Q624.487 41.5391 626.888 44.8956 Q629.319 48.2231 633.543 48.2231 Q637.768 48.2231 640.169 44.8956 Q642.6 41.5391 642.6 35.6653 Z" fill="#000000" fill-rule="nonzero" fill-opacity="1" /><path clip-path="url(#clip580)" d="M678.624 14.6874 L678.624 30.8042 L694.741 30.8042 L694.741 35.7232 L678.624 35.7232 L678.624 51.84 L673.763 51.84 L673.763 35.7232 L657.646 35.7232 L657.646 30.8042 L673.763 30.8042 L673.763 14.6874 L678.624 14.6874 Z" fill="#000000" fill-rule="nonzero" fill-opacity="1" /><path clip-path="url(#clip580)" d="M706.604 19.4328 L711.928 19.4328 L711.928 51.84 L706.604 51.84 L706.604 19.4328 M706.604 6.81709 L711.928 6.81709 L711.928 13.559 L706.604 13.559 L706.604 6.81709 Z" fill="#000000" fill-rule="nonzero" fill-opacity="1" /><path clip-path="url(#clip580)" d="M728.219 46.9789 L728.219 64.1663 L722.866 64.1663 L722.866 19.4328 L728.219 19.4328 L728.219 24.3517 Q729.897 21.4582 732.443 20.0693 Q735.018 18.6515 738.577 18.6515 Q744.48 18.6515 748.155 23.339 Q751.859 28.0265 751.859 35.6653 Q751.859 43.3042 748.155 47.9916 Q744.48 52.6791 738.577 52.6791 Q735.018 52.6791 732.443 51.2902 Q729.897 49.8724 728.219 46.9789 M746.332 35.6653 Q746.332 29.7915 743.901 26.464 Q741.5 23.1075 737.275 23.1075 Q733.051 23.1075 730.62 26.464 Q728.219 29.7915 728.219 35.6653 Q728.219 41.5391 730.62 44.8956 Q733.051 48.2231 737.275 48.2231 Q741.5 48.2231 743.901 44.8956 Q746.332 41.5391 746.332 35.6653 Z" fill="#000000" fill-rule="nonzero" fill-opacity="1" /><path clip-path="url(#clip580)" d="M773.473 6.87496 Q769.596 13.53 767.715 20.0404 Q765.834 26.5508 765.834 33.2348 Q765.834 39.9188 767.715 46.487 Q769.625 53.0263 773.473 59.6525 L768.843 59.6525 Q764.503 52.8527 762.333 46.2845 Q760.192 39.7162 760.192 33.2348 Q760.192 26.7823 762.333 20.2429 Q764.474 13.7036 768.843 6.87496 L773.473 6.87496 Z" fill="#000000" fill-rule="nonzero" fill-opacity="1" /><path clip-path="url(#clip580)" d="M816.384 11.9675 L816.384 18.1307 Q813.432 15.3819 810.076 14.0219 Q806.748 12.662 802.987 12.662 Q795.579 12.662 791.644 17.2048 Q787.709 21.7186 787.709 30.2834 Q787.709 38.8192 791.644 43.362 Q795.579 47.8759 802.987 47.8759 Q806.748 47.8759 810.076 46.516 Q813.432 45.156 816.384 42.4072 L816.384 48.5125 Q813.317 50.5958 809.873 51.6375 Q806.459 52.6791 802.64 52.6791 Q792.831 52.6791 787.188 46.6896 Q781.546 40.6711 781.546 30.2834 Q781.546 19.8668 787.188 13.8772 Q792.831 7.85875 802.64 7.85875 Q806.517 7.85875 809.931 8.90042 Q813.374 9.91314 816.384 11.9675 Z" fill="#000000" fill-rule="nonzero" fill-opacity="1" /><path clip-path="url(#clip580)" d="M837.738 23.1654 Q833.455 23.1654 830.967 26.5218 Q828.479 29.8494 828.479 35.6653 Q828.479 41.4813 830.938 44.8377 Q833.426 48.1653 837.738 48.1653 Q841.991 48.1653 844.48 44.8088 Q846.968 41.4523 846.968 35.6653 Q846.968 29.9072 844.48 26.5508 Q841.991 23.1654 837.738 23.1654 M837.738 18.6515 Q844.682 18.6515 848.646 23.1654 Q852.61 27.6792 852.61 35.6653 Q852.61 43.6225 848.646 48.1653 Q844.682 52.6791 837.738 52.6791 Q830.764 52.6791 826.8 48.1653 Q822.865 43.6225 822.865 35.6653 Q822.865 27.6792 826.8 23.1654 Q830.764 18.6515 837.738 18.6515 Z" fill="#000000" fill-rule="nonzero" fill-opacity="1" /><path clip-path="url(#clip580)" d="M886.667 25.6538 Q888.663 22.0659 891.441 20.3587 Q894.219 18.6515 897.98 18.6515 Q903.044 18.6515 905.793 22.2105 Q908.542 25.7406 908.542 32.2799 L908.542 51.84 L903.189 51.84 L903.189 32.4535 Q903.189 27.795 901.539 25.5381 Q899.89 23.2811 896.505 23.2811 Q892.367 23.2811 889.965 26.03 Q887.564 28.7788 887.564 33.5241 L887.564 51.84 L882.211 51.84 L882.211 32.4535 Q882.211 27.7661 880.562 25.5381 Q878.912 23.2811 875.469 23.2811 Q871.389 23.2811 868.988 26.0589 Q866.586 28.8077 866.586 33.5241 L866.586 51.84 L861.233 51.84 L861.233 19.4328 L866.586 19.4328 L866.586 24.4675 Q868.409 21.4872 870.955 20.0693 Q873.501 18.6515 877.003 18.6515 Q880.533 18.6515 882.992 20.4455 Q885.481 22.2395 886.667 25.6538 Z" fill="#000000" fill-rule="nonzero" fill-opacity="1" /><path clip-path="url(#clip580)" d="M924.311 46.9789 L924.311 64.1663 L918.958 64.1663 L918.958 19.4328 L924.311 19.4328 L924.311 24.3517 Q925.99 21.4582 928.536 20.0693 Q931.111 18.6515 934.67 18.6515 Q940.573 18.6515 944.248 23.339 Q947.951 28.0265 947.951 35.6653 Q947.951 43.3042 944.248 47.9916 Q940.573 52.6791 934.67 52.6791 Q931.111 52.6791 928.536 51.2902 Q925.99 49.8724 924.311 46.9789 M942.425 35.6653 Q942.425 29.7915 939.994 26.464 Q937.593 23.1075 933.368 23.1075 Q929.144 23.1075 926.713 26.464 Q924.311 29.7915 924.311 35.6653 Q924.311 41.5391 926.713 44.8956 Q929.144 48.2231 933.368 48.2231 Q937.593 48.2231 939.994 44.8956 Q942.425 41.5391 942.425 35.6653 Z" fill="#000000" fill-rule="nonzero" fill-opacity="1" /><path clip-path="url(#clip580)" d="M969.334 23.1654 Q965.052 23.1654 962.563 26.5218 Q960.075 29.8494 960.075 35.6653 Q960.075 41.4813 962.535 44.8377 Q965.023 48.1653 969.334 48.1653 Q973.588 48.1653 976.076 44.8088 Q978.565 41.4523 978.565 35.6653 Q978.565 29.9072 976.076 26.5508 Q973.588 23.1654 969.334 23.1654 M969.334 18.6515 Q976.279 18.6515 980.243 23.1654 Q984.207 27.6792 984.207 35.6653 Q984.207 43.6225 980.243 48.1653 Q976.279 52.6791 969.334 52.6791 Q962.361 52.6791 958.397 48.1653 Q954.462 43.6225 954.462 35.6653 Q954.462 27.6792 958.397 23.1654 Q962.361 18.6515 969.334 18.6515 Z" fill="#000000" fill-rule="nonzero" fill-opacity="1" /><path clip-path="url(#clip580)" d="M1013.69 20.3876 L1013.69 25.4223 Q1011.43 24.2649 1009 23.6862 Q1006.57 23.1075 1003.97 23.1075 Q1000.01 23.1075 998.009 24.3228 Q996.041 25.5381 996.041 27.9686 Q996.041 29.8204 997.459 30.891 Q998.877 31.9327 1003.16 32.8876 L1004.98 33.2926 Q1010.65 34.5079 1013.03 36.7359 Q1015.43 38.935 1015.43 42.8991 Q1015.43 47.4129 1011.84 50.046 Q1008.28 52.6791 1002.03 52.6791 Q999.427 52.6791 996.591 52.1583 Q993.784 51.6664 990.659 50.6537 L990.659 45.156 Q993.611 46.6896 996.475 47.4708 Q999.34 48.2231 1002.15 48.2231 Q1005.91 48.2231 1007.93 46.95 Q1009.96 45.6479 1009.96 43.3042 Q1009.96 41.134 1008.48 39.9766 Q1007.04 38.8192 1002.09 37.7486 L1000.24 37.3146 Q995.289 36.273 993.09 34.1318 Q990.891 31.9616 990.891 28.2001 Q990.891 23.6283 994.132 21.1399 Q997.372 18.6515 1003.33 18.6515 Q1006.28 18.6515 1008.89 19.0855 Q1011.49 19.5196 1013.69 20.3876 Z" fill="#000000" fill-rule="nonzero" fill-opacity="1" /><path clip-path="url(#clip580)" d="M1023.91 19.4328 L1029.23 19.4328 L1029.23 51.84 L1023.91 51.84 L1023.91 19.4328 M1023.91 6.81709 L1029.23 6.81709 L1029.23 13.559 L1023.91 13.559 L1023.91 6.81709 Z" fill="#000000" fill-rule="nonzero" fill-opacity="1" /><path clip-path="url(#clip580)" d="M1045.64 10.2314 L1045.64 19.4328 L1056.6 19.4328 L1056.6 23.5705 L1045.64 23.5705 L1045.64 41.163 Q1045.64 45.1271 1046.71 46.2555 Q1047.81 47.384 1051.13 47.384 L1056.6 47.384 L1056.6 51.84 L1051.13 51.84 Q1044.97 51.84 1042.63 49.5541 Q1040.28 47.2393 1040.28 41.163 L1040.28 23.5705 L1036.38 23.5705 L1036.38 19.4328 L1040.28 19.4328 L1040.28 10.2314 L1045.64 10.2314 Z" fill="#000000" fill-rule="nonzero" fill-opacity="1" /><path clip-path="url(#clip580)" d="M1091.32 34.3054 L1091.32 36.9095 L1066.85 36.9095 Q1067.19 42.4072 1070.14 45.3007 Q1073.12 48.1653 1078.42 48.1653 Q1081.49 48.1653 1084.35 47.4129 Q1087.24 46.6606 1090.08 45.156 L1090.08 50.1907 Q1087.22 51.406 1084.21 52.0425 Q1081.2 52.6791 1078.1 52.6791 Q1070.35 52.6791 1065.8 48.1653 Q1061.29 43.6514 1061.29 35.9547 Q1061.29 27.9975 1065.57 23.339 Q1069.88 18.6515 1077.18 18.6515 Q1083.71 18.6515 1087.5 22.876 Q1091.32 27.0716 1091.32 34.3054 M1086 32.7429 Q1085.94 28.3737 1083.54 25.7695 Q1081.17 23.1654 1077.23 23.1654 Q1072.78 23.1654 1070.09 25.6827 Q1067.42 28.2001 1067.02 32.7718 L1086 32.7429 Z" fill="#000000" fill-rule="nonzero" fill-opacity="1" /><path clip-path="url(#clip580)" d="M1094.3 8.64 L1130.85 8.64 L1130.85 13.559 L1115.51 13.559 L1115.51 51.84 L1109.64 51.84 L1109.64 13.559 L1094.3 13.559 L1094.3 8.64 Z" fill="#000000" fill-rule="nonzero" fill-opacity="1" /><path clip-path="url(#clip580)" d="M1142.34 31.2093 L1142.34 47.0368 L1151.71 47.0368 Q1156.43 47.0368 1158.69 45.0981 Q1160.97 43.1306 1160.97 39.1086 Q1160.97 35.0577 1158.69 33.148 Q1156.43 31.2093 1151.71 31.2093 L1142.34 31.2093 M1142.34 13.4432 L1142.34 26.464 L1150.99 26.464 Q1155.27 26.464 1157.35 24.8726 Q1159.47 23.2522 1159.47 19.9536 Q1159.47 16.6839 1157.35 15.0636 Q1155.27 13.4432 1150.99 13.4432 L1142.34 13.4432 M1136.49 8.64 L1151.42 8.64 Q1158.11 8.64 1161.72 11.4178 Q1165.34 14.1955 1165.34 19.317 Q1165.34 23.2811 1163.49 25.6249 Q1161.64 27.9686 1158.05 28.5473 Q1162.36 29.4732 1164.73 32.4246 Q1167.13 35.347 1167.13 39.7452 Q1167.13 45.5322 1163.2 48.6861 Q1159.26 51.84 1152 51.84 L1136.49 51.84 L1136.49 8.64 Z" fill="#000000" fill-rule="nonzero" fill-opacity="1" /><path clip-path="url(#clip580)" d="M1191.58 14.3981 L1183.66 35.8968 L1199.54 35.8968 L1191.58 14.3981 M1188.29 8.64 L1194.91 8.64 L1211.38 51.84 L1205.3 51.84 L1201.36 40.7579 L1181.89 40.7579 L1177.96 51.84 L1171.79 51.84 L1188.29 8.64 Z" fill="#000000" fill-rule="nonzero" fill-opacity="1" /><path clip-path="url(#clip580)" d="M1216.61 6.87496 L1221.24 6.87496 Q1225.58 13.7036 1227.72 20.2429 Q1229.89 26.7823 1229.89 33.2348 Q1229.89 39.7162 1227.72 46.2845 Q1225.58 52.8527 1221.24 59.6525 L1216.61 59.6525 Q1220.46 53.0263 1222.34 46.487 Q1224.25 39.9188 1224.25 33.2348 Q1224.25 26.5508 1222.34 20.0404 Q1220.46 13.53 1216.61 6.87496 Z" fill="#000000" fill-rule="nonzero" fill-opacity="1" /><path clip-path="url(#clip580)" d="M1237.88 33.2348 L1253.48 33.2348 L1253.48 37.9801 L1237.88 37.9801 L1237.88 33.2348 Z" fill="#000000" fill-rule="nonzero" fill-opacity="1" /><path clip-path="url(#clip580)" d="M1267.22 10.2314 L1267.22 19.4328 L1278.19 19.4328 L1278.19 23.5705 L1267.22 23.5705 L1267.22 41.163 Q1267.22 45.1271 1268.29 46.2555 Q1269.39 47.384 1272.72 47.384 L1278.19 47.384 L1278.19 51.84 L1272.72 51.84 Q1266.55 51.84 1264.21 49.5541 Q1261.87 47.2393 1261.87 41.163 L1261.87 23.5705 L1257.96 23.5705 L1257.96 19.4328 L1261.87 19.4328 L1261.87 10.2314 L1267.22 10.2314 Z" fill="#000000" fill-rule="nonzero" fill-opacity="1" /><path clip-path="url(#clip580)" d="M1297.98 6.87496 Q1294.1 13.53 1292.22 20.0404 Q1290.34 26.5508 1290.34 33.2348 Q1290.34 39.9188 1292.22 46.487 Q1294.13 53.0263 1297.98 59.6525 L1293.35 59.6525 Q1289.01 52.8527 1286.84 46.2845 Q1284.7 39.7162 1284.7 33.2348 Q1284.7 26.7823 1286.84 20.2429 Q1288.98 13.7036 1293.35 6.87496 L1297.98 6.87496 Z" fill="#000000" fill-rule="nonzero" fill-opacity="1" /><path clip-path="url(#clip580)" d="M1310.07 46.921 L1319.62 46.921 L1319.62 13.964 L1309.23 16.0474 L1309.23 10.7233 L1319.56 8.64 L1325.41 8.64 L1325.41 46.921 L1334.96 46.921 L1334.96 51.84 L1310.07 51.84 L1310.07 46.921 Z" fill="#000000" fill-rule="nonzero" fill-opacity="1" /><path clip-path="url(#clip580)" d="M1346.76 44.4905 L1352.87 44.4905 L1352.87 51.84 L1346.76 51.84 L1346.76 44.4905 Z" fill="#000000" fill-rule="nonzero" fill-opacity="1" /><path clip-path="url(#clip580)" d="M1378.1 12.4884 Q1373.59 12.4884 1371.3 16.9444 Q1369.04 21.3714 1369.04 30.2834 Q1369.04 39.1665 1371.3 43.6225 Q1373.59 48.0495 1378.1 48.0495 Q1382.64 48.0495 1384.9 43.6225 Q1387.19 39.1665 1387.19 30.2834 Q1387.19 21.3714 1384.9 16.9444 Q1382.64 12.4884 1378.1 12.4884 M1378.1 7.85875 Q1385.36 7.85875 1389.18 13.6168 Q1393.03 19.346 1393.03 30.2834 Q1393.03 41.1919 1389.18 46.95 Q1385.36 52.6791 1378.1 52.6791 Q1370.84 52.6791 1366.99 46.95 Q1363.17 41.1919 1363.17 30.2834 Q1363.17 19.346 1366.99 13.6168 Q1370.84 7.85875 1378.1 7.85875 Z" fill="#000000" fill-rule="nonzero" fill-opacity="1" /><path clip-path="url(#clip580)" d="M1401.71 6.87496 L1406.34 6.87496 Q1410.68 13.7036 1412.82 20.2429 Q1414.99 26.7823 1414.99 33.2348 Q1414.99 39.7162 1412.82 46.2845 Q1410.68 52.8527 1406.34 59.6525 L1401.71 59.6525 Q1405.56 53.0263 1407.44 46.487 Q1409.35 39.9188 1409.35 33.2348 Q1409.35 26.5508 1407.44 20.0404 Q1405.56 13.53 1401.71 6.87496 Z" fill="#000000" fill-rule="nonzero" fill-opacity="1" /><path clip-path="url(#clip580)" d="M1425.12 64.1663 L1425.12 19.4328 L1430.44 19.4328 L1430.44 39.5715 Q1430.44 43.7671 1432.44 45.9083 Q1434.44 48.0495 1438.34 48.0495 Q1442.62 48.0495 1444.77 45.619 Q1446.94 43.1884 1446.94 38.3273 L1446.94 19.4328 L1452.26 19.4328 L1452.26 44.3748 Q1452.26 46.1109 1452.75 46.95 Q1453.27 47.7602 1454.34 47.7602 Q1454.6 47.7602 1455.07 47.6155 Q1455.53 47.4419 1456.34 47.0947 L1456.34 51.377 Q1455.15 52.0425 1454.08 52.3608 Q1453.04 52.6791 1452.03 52.6791 Q1450.03 52.6791 1448.85 51.5506 Q1447.66 50.4222 1447.23 48.1074 Q1445.78 50.3932 1443.67 51.5506 Q1441.58 52.6791 1438.75 52.6791 Q1435.8 52.6791 1433.71 51.5506 Q1431.66 50.4222 1430.44 48.1653 L1430.44 64.1663 L1425.12 64.1663 Z" fill="#000000" fill-rule="nonzero" fill-opacity="1" /><path clip-path="url(#clip580)" d="M1476.16 6.87496 Q1472.28 13.53 1470.4 20.0404 Q1468.52 26.5508 1468.52 33.2348 Q1468.52 39.9188 1470.4 46.487 Q1472.31 53.0263 1476.16 59.6525 L1471.53 59.6525 Q1467.19 52.8527 1465.02 46.2845 Q1462.88 39.7162 1462.88 33.2348 Q1462.88 26.7823 1465.02 20.2429 Q1467.16 13.7036 1471.53 6.87496 L1476.16 6.87496 Z" fill="#000000" fill-rule="nonzero" fill-opacity="1" /><path clip-path="url(#clip580)" d="M1504.95 28.5473 Q1509.15 29.4443 1511.49 32.2799 Q1513.86 35.1156 1513.86 39.2822 Q1513.86 45.6768 1509.46 49.178 Q1505.07 52.6791 1496.96 52.6791 Q1494.24 52.6791 1491.35 52.1294 Q1488.49 51.6085 1485.42 50.5379 L1485.42 44.8956 Q1487.85 46.3134 1490.74 47.0368 Q1493.64 47.7602 1496.79 47.7602 Q1502.29 47.7602 1505.15 45.59 Q1508.05 43.4199 1508.05 39.2822 Q1508.05 35.4628 1505.36 33.3216 Q1502.69 31.1515 1497.92 31.1515 L1492.88 31.1515 L1492.88 26.3482 L1498.15 26.3482 Q1502.46 26.3482 1504.75 24.6411 Q1507.03 22.905 1507.03 19.6642 Q1507.03 16.3367 1504.66 14.5717 Q1502.32 12.7777 1497.92 12.7777 Q1495.52 12.7777 1492.77 13.2985 Q1490.02 13.8194 1486.72 14.9189 L1486.72 9.7106 Q1490.05 8.78468 1492.94 8.32171 Q1495.87 7.85875 1498.44 7.85875 Q1505.1 7.85875 1508.97 10.8969 Q1512.85 13.9062 1512.85 19.0566 Q1512.85 22.6446 1510.8 25.133 Q1508.74 27.5924 1504.95 28.5473 Z" fill="#000000" fill-rule="nonzero" fill-opacity="1" /><path clip-path="url(#clip580)" d="M1524.94 44.4905 L1531.05 44.4905 L1531.05 51.84 L1524.94 51.84 L1524.94 44.4905 Z" fill="#000000" fill-rule="nonzero" fill-opacity="1" /><path clip-path="url(#clip580)" d="M1543.84 8.64 L1566.78 8.64 L1566.78 13.559 L1549.19 13.559 L1549.19 24.1492 Q1550.47 23.7152 1551.74 23.5126 Q1553.01 23.2811 1554.28 23.2811 Q1561.52 23.2811 1565.74 27.2452 Q1569.97 31.2093 1569.97 37.9801 Q1569.97 44.9535 1565.63 48.8308 Q1561.29 52.6791 1553.39 52.6791 Q1550.67 52.6791 1547.83 52.2162 Q1545.03 51.7532 1542.02 50.8273 L1542.02 44.9535 Q1544.62 46.3713 1547.4 47.0657 Q1550.18 47.7602 1553.27 47.7602 Q1558.28 47.7602 1561.2 45.1271 Q1564.12 42.494 1564.12 37.9801 Q1564.12 33.4663 1561.2 30.8332 Q1558.28 28.2001 1553.27 28.2001 Q1550.93 28.2001 1548.58 28.7209 Q1546.27 29.2417 1543.84 30.3413 L1543.84 8.64 Z" fill="#000000" fill-rule="nonzero" fill-opacity="1" /><path clip-path="url(#clip580)" d="M1579.89 6.87496 L1584.52 6.87496 Q1588.86 13.7036 1591 20.2429 Q1593.17 26.7823 1593.17 33.2348 Q1593.17 39.7162 1591 46.2845 Q1588.86 52.8527 1584.52 59.6525 L1579.89 59.6525 Q1583.74 53.0263 1585.62 46.487 Q1587.53 39.9188 1587.53 33.2348 Q1587.53 26.5508 1585.62 20.0404 Q1583.74 13.53 1579.89 6.87496 Z" fill="#000000" fill-rule="nonzero" fill-opacity="1" /><path clip-path="url(#clip580)" d="M1618.52 14.3981 L1606.66 46.9789 L1630.41 46.9789 L1618.52 14.3981 M1598.73 51.84 L1615.22 8.64 L1621.85 8.64 L1638.31 51.84 L1598.73 51.84 Z" fill="#000000" fill-rule="nonzero" fill-opacity="1" /><path clip-path="url(#clip580)" d="M1657.18 6.87496 Q1653.3 13.53 1651.42 20.0404 Q1649.54 26.5508 1649.54 33.2348 Q1649.54 39.9188 1651.42 46.487 Q1653.33 53.0263 1657.18 59.6525 L1652.55 59.6525 Q1648.21 52.8527 1646.04 46.2845 Q1643.9 39.7162 1643.9 33.2348 Q1643.9 26.7823 1646.04 20.2429 Q1648.18 13.7036 1652.55 6.87496 L1657.18 6.87496 Z" fill="#000000" fill-rule="nonzero" fill-opacity="1" /><path clip-path="url(#clip580)" d="M1680.76 12.4884 Q1676.25 12.4884 1673.96 16.9444 Q1671.7 21.3714 1671.7 30.2834 Q1671.7 39.1665 1673.96 43.6225 Q1676.25 48.0495 1680.76 48.0495 Q1685.3 48.0495 1687.56 43.6225 Q1689.85 39.1665 1689.85 30.2834 Q1689.85 21.3714 1687.56 16.9444 Q1685.3 12.4884 1680.76 12.4884 M1680.76 7.85875 Q1688.02 7.85875 1691.84 13.6168 Q1695.69 19.346 1695.69 30.2834 Q1695.69 41.1919 1691.84 46.95 Q1688.02 52.6791 1680.76 52.6791 Q1673.5 52.6791 1669.65 46.95 Q1665.83 41.1919 1665.83 30.2834 Q1665.83 19.346 1669.65 13.6168 Q1673.5 7.85875 1680.76 7.85875 Z" fill="#000000" fill-rule="nonzero" fill-opacity="1" /><path clip-path="url(#clip580)" d="M1705.96 44.4905 L1712.07 44.4905 L1712.07 51.84 L1705.96 51.84 L1705.96 44.4905 Z" fill="#000000" fill-rule="nonzero" fill-opacity="1" /><path clip-path="url(#clip580)" d="M1724.86 8.64 L1747.8 8.64 L1747.8 13.559 L1730.21 13.559 L1730.21 24.1492 Q1731.48 23.7152 1732.76 23.5126 Q1734.03 23.2811 1735.3 23.2811 Q1742.54 23.2811 1746.76 27.2452 Q1750.99 31.2093 1750.99 37.9801 Q1750.99 44.9535 1746.64 48.8308 Q1742.3 52.6791 1734.41 52.6791 Q1731.69 52.6791 1728.85 52.2162 Q1726.04 51.7532 1723.03 50.8273 L1723.03 44.9535 Q1725.64 46.3713 1728.42 47.0657 Q1731.19 47.7602 1734.29 47.7602 Q1739.3 47.7602 1742.22 45.1271 Q1745.14 42.494 1745.14 37.9801 Q1745.14 33.4663 1742.22 30.8332 Q1739.3 28.2001 1734.29 28.2001 Q1731.95 28.2001 1729.6 28.7209 Q1727.29 29.2417 1724.86 30.3413 L1724.86 8.64 Z" fill="#000000" fill-rule="nonzero" fill-opacity="1" /><path clip-path="url(#clip580)" d="M1760.91 6.87496 L1765.54 6.87496 Q1769.88 13.7036 1772.02 20.2429 Q1774.19 26.7823 1774.19 33.2348 Q1774.19 39.7162 1772.02 46.2845 Q1769.88 52.8527 1765.54 59.6525 L1760.91 59.6525 Q1764.76 53.0263 1766.64 46.487 Q1768.55 39.9188 1768.55 33.2348 Q1768.55 26.5508 1766.64 20.0404 Q1764.76 13.53 1760.91 6.87496 Z" fill="#000000" fill-rule="nonzero" fill-opacity="1" /><path clip-path="url(#clip580)" d="M1809.49 61.6779 L1809.49 65.8156 L1778.7 65.8156 L1778.7 61.6779 L1809.49 61.6779 Z" fill="#000000" fill-rule="nonzero" fill-opacity="1" /><path clip-path="url(#clip580)" d="M1814.73 8.64 L1842.04 8.64 L1842.04 13.559 L1820.57 13.559 L1820.57 26.3482 L1841.15 26.3482 L1841.15 31.2672 L1820.57 31.2672 L1820.57 46.921 L1842.56 46.921 L1842.56 51.84 L1814.73 51.84 L1814.73 8.64 Z" fill="#000000" fill-rule="nonzero" fill-opacity="1" /><path clip-path="url(#clip580)" d="M1858.02 31.2093 L1858.02 47.0368 L1867.39 47.0368 Q1872.11 47.0368 1874.36 45.0981 Q1876.65 43.1306 1876.65 39.1086 Q1876.65 35.0577 1874.36 33.148 Q1872.11 31.2093 1867.39 31.2093 L1858.02 31.2093 M1858.02 13.4432 L1858.02 26.464 L1866.67 26.464 Q1870.95 26.464 1873.03 24.8726 Q1875.15 23.2522 1875.15 19.9536 Q1875.15 16.6839 1873.03 15.0636 Q1870.95 13.4432 1866.67 13.4432 L1858.02 13.4432 M1852.17 8.64 L1867.1 8.64 Q1873.79 8.64 1877.4 11.4178 Q1881.02 14.1955 1881.02 19.317 Q1881.02 23.2811 1879.17 25.6249 Q1877.32 27.9686 1873.73 28.5473 Q1878.04 29.4732 1880.41 32.4246 Q1882.81 35.347 1882.81 39.7452 Q1882.81 45.5322 1878.88 48.6861 Q1874.94 51.84 1867.68 51.84 L1852.17 51.84 L1852.17 8.64 Z" fill="#000000" fill-rule="nonzero" fill-opacity="1" /><polyline clip-path="url(#clip582)" style="stroke:#009af9; stroke-linecap:round; stroke-linejoin:round; stroke-width:4; stroke-opacity:1; fill:none" points="211.556,1385.91 217.645,1385.83 223.733,1385.6 229.822,1385.22 235.911,1384.69 242,1384 248.089,1383.17 254.177,1382.18 260.266,1381.05 266.355,1379.76 272.444,1378.33 278.532,1376.76 284.621,1375.04 290.71,1373.17 296.799,1371.17 302.887,1369.02 308.976,1366.74 315.065,1364.32 321.154,1361.77 327.242,1359.09 333.331,1356.28 339.42,1353.34 345.509,1350.28 351.598,1347.09 357.686,1343.79 363.775,1340.37 369.864,1336.84 375.953,1333.21 382.041,1329.46 388.13,1325.61 394.219,1321.67 400.308,1317.62 406.396,1313.49 412.485,1309.26 418.574,1304.95 424.663,1300.56 430.752,1296.09 436.84,1291.55 442.929,1286.94 449.018,1282.26 455.107,1277.53 461.195,1272.73 467.284,1267.88 473.373,1262.99 479.462,1258.04 485.55,1253.06 491.639,1248.05 497.728,1243 503.817,1237.93 509.905,1232.83 515.994,1227.72 522.083,1222.59 528.172,1217.46 534.261,1212.32 540.349,1207.18 546.438,1202.05 552.527,1196.93 558.616,1191.83 564.704,1186.75 570.793,1181.69 576.882,1176.66 582.971,1171.66 589.059,1166.71 595.148,1161.8 601.237,1156.94 607.326,1152.13 613.415,1147.39 619.503,1142.7 625.592,1138.09 631.681,1133.55 637.77,1129.09 643.858,1124.71 649.947,1120.42 656.036,1116.23 662.125,1112.13 668.213,1108.14 674.302,1104.26 680.391,1100.48 686.48,1096.83 692.568,1093.3 698.657,1089.89 704.746,1086.62 710.835,1083.48 716.924,1080.49 723.012,1077.63 729.101,1074.93 735.19,1072.38 741.279,1069.99 747.367,1067.76 753.456,1065.69 759.545,1063.79 765.634,1062.07 771.722,1060.51 777.811,1059.13 783.9,1057.93 789.989,1056.92 796.078,1056.08 802.166,1055.43 808.255,1054.96 814.344,1054.68 820.433,1054.59 826.521,1054.52 832.61,1054.31 838.699,1053.96 844.788,1053.47 850.876,1052.84 856.965,1052.07 863.054,1051.17 869.143,1050.13 875.231,1048.95 881.32,1047.64 887.409,1046.2 893.498,1044.62 899.587,1042.92 905.675,1041.08 911.764,1039.12 917.853,1037.04 923.942,1034.83 930.03,1032.5 936.119,1030.06 942.208,1027.5 948.297,1024.83 954.385,1022.05 960.474,1019.16 966.563,1016.17 972.652,1013.07 978.741,1009.88 984.829,1006.6 990.918,1003.22 997.007,999.758 1003.1,996.211 1009.18,992.585 1015.27,988.881 1021.36,985.106 1027.45,981.262 1033.54,977.354 1039.63,973.386 1045.72,969.361 1051.81,965.285 1057.89,961.162 1063.98,956.996 1070.07,952.792 1076.16,948.554 1082.25,944.287 1088.34,939.995 1094.43,935.685 1100.52,931.359 1106.6,927.024 1112.69,922.683 1118.78,918.343 1124.87,914.009 1130.96,909.685 1137.05,905.376 1143.14,901.089 1149.23,896.827 1155.31,892.598 1161.4,888.406 1167.49,884.256 1173.58,880.155 1179.67,876.108 1185.76,872.121 1191.85,868.2 1197.94,864.35 1204.02,860.578 1210.11,856.891 1216.2,853.293 1222.29,849.792 1228.38,846.395 1234.47,843.106 1240.56,839.934 1246.65,836.884 1252.73,833.962 1258.82,831.176 1264.91,828.531 1271,826.032 1277.09,823.685 1283.18,821.494 1289.27,819.462 1295.36,817.593 1301.45,815.887 1307.53,814.344 1313.62,812.962 1319.71,811.739 1325.8,810.668 1331.89,809.742 1337.98,808.954 1344.07,808.293 1350.16,807.749 1356.24,807.308 1362.33,806.96 1368.42,806.692 1374.51,806.491 1380.6,806.345 1386.69,806.245 1392.78,806.179 1398.87,806.138 1404.95,806.116 1411.04,806.106 1417.13,806.102 1423.22,806.101 1429.31,806.101 1437.92,806.101 1446.53,806.105 1455.14,806.124 1463.75,806.173 1472.36,806.276 1480.97,806.463 1489.58,806.768 1498.2,807.23 1506.81,807.89 1515.42,808.791 1524.03,809.973 1532.64,811.471 1541.25,813.316 1549.86,815.531 1558.47,818.13 1567.08,821.12 1575.69,824.501 1584.3,828.269 1592.91,832.415 1601.53,836.926 1610.14,841.788 1618.75,846.988 1627.36,852.509 1635.97,858.339 1644.58,864.461 1653.19,870.861 1661.8,877.527 1670.41,884.444 1679.02,891.601 1687.63,898.984 1696.24,906.583 1704.86,914.385 1713.47,922.379 1722.08,930.554 1730.69,938.899 1739.3,947.403 1747.91,956.057 1756.52,964.848 1765.13,973.767 1773.74,982.803 1782.35,991.946 1790.96,1001.19 1799.57,1010.51 1808.19,1019.91 1816.8,1029.38 1825.41,1038.91 1834.02,1048.48 1842.63,1058.08 1851.24,1067.71 1859.85,1077.36 1868.46,1087.01 1877.07,1096.66 1885.68,1106.29 1894.29,1115.9 1902.9,1125.47 1911.51,1135 1920.13,1144.48 1928.74,1153.89 1937.35,1163.23 1945.96,1172.48 1954.57,1181.65 1963.18,1190.71 1971.79,1199.67 1980.4,1208.5 1989.01,1217.2 1997.62,1225.77 2006.23,1234.2 2014.84,1242.47 2023.46,1250.57 2032.07,1258.51 2040.68,1266.27 2049.29,1273.84 2057.9,1281.22 2066.51,1288.4 2075.12,1295.37 2083.73,1302.12 2092.34,1308.66 2100.95,1314.96 2109.56,1321.03 2118.17,1326.86 2126.79,1332.45 2135.4,1337.78 2144.01,1342.85 2152.62,1347.66 2161.23,1352.21 2169.84,1356.48 2178.45,1360.48 2187.06,1364.19 2195.67,1367.63 2204.28,1370.77 2212.89,1373.63 2221.5,1376.19 2230.12,1378.46 2238.73,1380.43 2247.34,1382.1 2255.95,1383.47 2264.56,1384.53 2273.17,1385.3 2281.78,1385.75 2290.39,1385.91 "/>
<polyline clip-path="url(#clip582)" style="stroke:#e26f46; stroke-linecap:round; stroke-linejoin:round; stroke-width:4; stroke-opacity:1; fill:none" points="211.556,143.465 217.645,143.542 223.733,143.77 229.822,144.152 235.911,144.685 242,145.369 248.089,146.205 254.177,147.191 260.266,148.326 266.355,149.609 272.444,151.039 278.532,152.616 284.621,154.336 290.71,156.2 296.799,158.205 302.887,160.35 308.976,162.632 315.065,165.05 321.154,167.602 327.242,170.285 333.331,173.097 339.42,176.035 345.509,179.097 351.598,182.28 357.686,185.582 363.775,188.999 369.864,192.528 375.953,196.167 382.041,199.912 388.13,203.759 394.219,207.707 400.308,211.75 406.396,215.885 412.485,220.11 418.574,224.419 424.663,228.81 430.752,233.279 436.84,237.82 442.929,242.432 449.018,247.108 455.107,251.846 461.195,256.642 467.284,261.49 473.373,266.387 479.462,271.328 485.55,276.309 491.639,281.325 497.728,286.372 503.817,291.446 509.905,296.542 515.994,301.655 522.083,306.781 528.172,311.916 534.261,317.053 540.349,322.189 546.438,327.32 552.527,332.439 558.616,337.543 564.704,342.627 570.793,347.685 576.882,352.714 582.971,357.708 589.059,362.662 595.148,367.572 601.237,372.432 607.326,377.238 613.415,381.985 619.503,386.667 625.592,391.281 631.681,395.821 637.77,400.282 643.858,404.659 649.947,408.947 656.036,413.142 662.125,417.239 668.213,421.232 674.302,425.117 680.391,428.889 686.48,432.543 692.568,436.075 698.657,439.48 704.746,442.753 710.835,445.89 716.924,448.886 723.012,451.738 729.101,454.44 735.19,456.989 741.279,459.381 747.367,461.612 753.456,463.679 759.545,465.578 765.634,467.306 771.722,468.861 777.811,470.239 783.9,471.438 789.989,472.456 796.078,473.292 802.166,473.943 808.255,474.41 814.344,474.69 820.433,474.783 826.521,474.853 832.61,475.063 838.699,475.413 844.788,475.903 850.876,476.531 856.965,477.298 863.054,478.202 869.143,479.243 875.231,480.42 881.32,481.731 887.409,483.175 893.498,484.751 899.587,486.456 905.675,488.29 911.764,490.25 917.853,492.335 923.942,494.542 930.03,496.868 936.119,499.313 942.208,501.872 948.297,504.544 954.385,507.326 960.474,510.214 966.563,513.206 972.652,516.299 978.741,519.49 984.829,522.775 990.918,526.151 997.007,529.614 1003.1,533.161 1009.18,536.787 1015.27,540.491 1021.36,544.266 1027.45,548.11 1033.54,552.018 1039.63,555.986 1045.72,560.011 1051.81,564.087 1057.89,568.21 1063.98,572.376 1070.07,576.58 1076.16,580.818 1082.25,585.085 1088.34,589.377 1094.43,593.687 1100.52,598.013 1106.6,602.348 1112.69,606.689 1118.78,611.028 1124.87,615.363 1130.96,619.687 1137.05,623.996 1143.14,628.283 1149.23,632.544 1155.31,636.774 1161.4,640.966 1167.49,645.116 1173.58,649.217 1179.67,653.264 1185.76,657.251 1191.85,661.172 1197.94,665.022 1204.02,668.794 1210.11,672.481 1216.2,676.079 1222.29,679.58 1228.38,682.977 1234.47,686.266 1240.56,689.438 1246.65,692.488 1252.73,695.41 1258.82,698.196 1264.91,700.841 1271,703.34 1277.09,705.687 1283.18,707.878 1289.27,709.91 1295.36,711.779 1301.45,713.485 1307.53,715.028 1313.62,716.41 1319.71,717.633 1325.8,718.704 1331.89,719.63 1337.98,720.418 1344.07,721.079 1350.16,721.623 1356.24,722.064 1362.33,722.412 1368.42,722.68 1374.51,722.881 1380.6,723.027 1386.69,723.127 1392.78,723.193 1398.87,723.234 1404.95,723.256 1411.04,723.266 1417.13,723.27 1423.22,723.271 1429.31,723.271 1437.92,723.271 1446.53,723.267 1455.14,723.248 1463.75,723.199 1472.36,723.096 1480.97,722.909 1489.58,722.604 1498.2,722.142 1506.81,721.482 1515.42,720.581 1524.03,719.399 1532.64,717.901 1541.25,716.056 1549.86,713.841 1558.47,711.242 1567.08,708.252 1575.69,704.871 1584.3,701.103 1592.91,696.957 1601.53,692.446 1610.14,687.584 1618.75,682.384 1627.36,676.862 1635.97,671.033 1644.58,664.911 1653.19,658.511 1661.8,651.845 1670.41,644.928 1679.02,637.771 1687.63,630.387 1696.24,622.789 1704.86,614.987 1713.47,606.993 1722.08,598.818 1730.69,590.473 1739.3,581.968 1747.91,573.315 1756.52,564.524 1765.13,555.605 1773.74,546.569 1782.35,537.426 1790.96,528.186 1799.57,518.86 1808.19,509.457 1816.8,499.989 1825.41,490.464 1834.02,480.895 1842.63,471.289 1851.24,461.658 1859.85,452.012 1868.46,442.36 1877.07,432.713 1885.68,423.081 1894.29,413.473 1902.9,403.9 1911.51,394.37 1920.13,384.895 1928.74,375.483 1937.35,366.144 1945.96,356.888 1954.57,347.723 1963.18,338.66 1971.79,329.707 1980.4,320.873 1989.01,312.167 1997.62,303.598 2006.23,295.175 2014.84,286.905 2023.46,278.798 2032.07,270.861 2040.68,263.102 2049.29,255.53 2057.9,248.15 2066.51,240.972 2075.12,234.002 2083.73,227.247 2092.34,220.714 2100.95,214.409 2109.56,208.339 2118.17,202.509 2126.79,196.926 2135.4,191.595 2144.01,186.521 2152.62,181.709 2161.23,177.165 2169.84,172.892 2178.45,168.896 2187.06,165.179 2195.67,161.746 2204.28,158.599 2212.89,155.743 2221.5,153.18 2230.12,150.912 2238.73,148.943 2247.34,147.272 2255.95,145.904 2264.56,144.838 2273.17,144.076 2281.78,143.618 2290.39,143.465 "/>
</svg>
