<?xml version="1.0" encoding="utf-8"?>
<svg xmlns="http://www.w3.org/2000/svg" xmlns:xlink="http://www.w3.org/1999/xlink" width="600" height="400" viewBox="0 0 2400 1600">
<defs>
  <clipPath id="clip070">
    <rect x="0" y="0" width="2400" height="1600"/>
  </clipPath>
</defs>
<path clip-path="url(#clip070)" d="M0 1600 L2400 1600 L2400 0 L0 0  Z" fill="#ffffff" fill-rule="evenodd" fill-opacity="1"/>
<defs>
  <clipPath id="clip071">
    <rect x="480" y="0" width="1681" height="1600"/>
  </clipPath>
</defs>
<path clip-path="url(#clip070)" d="M148.057 1423.18 L2352.76 1423.18 L2352.76 106.192 L148.057 106.192  Z" fill="#ffffff" fill-rule="evenodd" fill-opacity="1"/>
<defs>
  <clipPath id="clip072">
    <rect x="148" y="106" width="2206" height="1318"/>
  </clipPath>
</defs>
<polyline clip-path="url(#clip072)" style="stroke:#000000; stroke-linecap:round; stroke-linejoin:round; stroke-width:2; stroke-opacity:0.05; fill:none" points="298.361,1423.18 298.361,106.192 "/>
<polyline clip-path="url(#clip072)" style="stroke:#000000; stroke-linecap:round; stroke-linejoin:round; stroke-width:2; stroke-opacity:0.05; fill:none" points="386.268,1423.18 386.268,106.192 "/>
<polyline clip-path="url(#clip072)" style="stroke:#000000; stroke-linecap:round; stroke-linejoin:round; stroke-width:2; stroke-opacity:0.05; fill:none" points="474.175,1423.18 474.175,106.192 "/>
<polyline clip-path="url(#clip072)" style="stroke:#000000; stroke-linecap:round; stroke-linejoin:round; stroke-width:2; stroke-opacity:0.05; fill:none" points="562.082,1423.18 562.082,106.192 "/>
<polyline clip-path="url(#clip072)" style="stroke:#000000; stroke-linecap:round; stroke-linejoin:round; stroke-width:2; stroke-opacity:0.05; fill:none" points="649.989,1423.18 649.989,106.192 "/>
<polyline clip-path="url(#clip072)" style="stroke:#000000; stroke-linecap:round; stroke-linejoin:round; stroke-width:2; stroke-opacity:0.05; fill:none" points="737.897,1423.18 737.897,106.192 "/>
<polyline clip-path="url(#clip072)" style="stroke:#000000; stroke-linecap:round; stroke-linejoin:round; stroke-width:2; stroke-opacity:0.05; fill:none" points="825.804,1423.18 825.804,106.192 "/>
<polyline clip-path="url(#clip072)" style="stroke:#000000; stroke-linecap:round; stroke-linejoin:round; stroke-width:2; stroke-opacity:0.05; fill:none" points="913.711,1423.18 913.711,106.192 "/>
<polyline clip-path="url(#clip072)" style="stroke:#000000; stroke-linecap:round; stroke-linejoin:round; stroke-width:2; stroke-opacity:0.05; fill:none" points="1001.62,1423.18 1001.62,106.192 "/>
<polyline clip-path="url(#clip072)" style="stroke:#000000; stroke-linecap:round; stroke-linejoin:round; stroke-width:2; stroke-opacity:0.05; fill:none" points="1133.48,1423.18 1133.48,106.192 "/>
<polyline clip-path="url(#clip072)" style="stroke:#000000; stroke-linecap:round; stroke-linejoin:round; stroke-width:2; stroke-opacity:0.05; fill:none" points="1177.43,1423.18 1177.43,106.192 "/>
<polyline clip-path="url(#clip072)" style="stroke:#000000; stroke-linecap:round; stroke-linejoin:round; stroke-width:2; stroke-opacity:0.05; fill:none" points="1221.39,1423.18 1221.39,106.192 "/>
<polyline clip-path="url(#clip072)" style="stroke:#000000; stroke-linecap:round; stroke-linejoin:round; stroke-width:2; stroke-opacity:0.05; fill:none" points="1265.34,1423.18 1265.34,106.192 "/>
<polyline clip-path="url(#clip072)" style="stroke:#000000; stroke-linecap:round; stroke-linejoin:round; stroke-width:2; stroke-opacity:0.05; fill:none" points="1309.29,1423.18 1309.29,106.192 "/>
<polyline clip-path="url(#clip072)" style="stroke:#000000; stroke-linecap:round; stroke-linejoin:round; stroke-width:2; stroke-opacity:0.05; fill:none" points="1353.25,1423.18 1353.25,106.192 "/>
<polyline clip-path="url(#clip072)" style="stroke:#000000; stroke-linecap:round; stroke-linejoin:round; stroke-width:2; stroke-opacity:0.05; fill:none" points="1397.2,1423.18 1397.2,106.192 "/>
<polyline clip-path="url(#clip072)" style="stroke:#000000; stroke-linecap:round; stroke-linejoin:round; stroke-width:2; stroke-opacity:0.05; fill:none" points="1441.15,1423.18 1441.15,106.192 "/>
<polyline clip-path="url(#clip072)" style="stroke:#000000; stroke-linecap:round; stroke-linejoin:round; stroke-width:2; stroke-opacity:0.05; fill:none" points="1485.11,1423.18 1485.11,106.192 "/>
<polyline clip-path="url(#clip072)" style="stroke:#000000; stroke-linecap:round; stroke-linejoin:round; stroke-width:2; stroke-opacity:0.05; fill:none" points="1605.19,1423.18 1605.19,106.192 "/>
<polyline clip-path="url(#clip072)" style="stroke:#000000; stroke-linecap:round; stroke-linejoin:round; stroke-width:2; stroke-opacity:0.05; fill:none" points="1681.32,1423.18 1681.32,106.192 "/>
<polyline clip-path="url(#clip072)" style="stroke:#000000; stroke-linecap:round; stroke-linejoin:round; stroke-width:2; stroke-opacity:0.05; fill:none" points="1757.45,1423.18 1757.45,106.192 "/>
<polyline clip-path="url(#clip072)" style="stroke:#000000; stroke-linecap:round; stroke-linejoin:round; stroke-width:2; stroke-opacity:0.05; fill:none" points="1833.58,1423.18 1833.58,106.192 "/>
<polyline clip-path="url(#clip072)" style="stroke:#000000; stroke-linecap:round; stroke-linejoin:round; stroke-width:2; stroke-opacity:0.05; fill:none" points="1909.71,1423.18 1909.71,106.192 "/>
<polyline clip-path="url(#clip072)" style="stroke:#000000; stroke-linecap:round; stroke-linejoin:round; stroke-width:2; stroke-opacity:0.05; fill:none" points="1985.84,1423.18 1985.84,106.192 "/>
<polyline clip-path="url(#clip072)" style="stroke:#000000; stroke-linecap:round; stroke-linejoin:round; stroke-width:2; stroke-opacity:0.05; fill:none" points="2061.97,1423.18 2061.97,106.192 "/>
<polyline clip-path="url(#clip072)" style="stroke:#000000; stroke-linecap:round; stroke-linejoin:round; stroke-width:2; stroke-opacity:0.05; fill:none" points="2138.1,1423.18 2138.1,106.192 "/>
<polyline clip-path="url(#clip072)" style="stroke:#000000; stroke-linecap:round; stroke-linejoin:round; stroke-width:2; stroke-opacity:0.05; fill:none" points="2214.23,1423.18 2214.23,106.192 "/>
<polyline clip-path="url(#clip072)" style="stroke:#000000; stroke-linecap:round; stroke-linejoin:round; stroke-width:2; stroke-opacity:0.05; fill:none" points="2328.42,1423.18 2328.42,106.192 "/>
<polyline clip-path="url(#clip072)" style="stroke:#000000; stroke-linecap:round; stroke-linejoin:round; stroke-width:2; stroke-opacity:0.05; fill:none" points="148.057,1406.61 2352.76,1406.61 "/>
<polyline clip-path="url(#clip072)" style="stroke:#000000; stroke-linecap:round; stroke-linejoin:round; stroke-width:2; stroke-opacity:0.05; fill:none" points="148.057,1365.2 2352.76,1365.2 "/>
<polyline clip-path="url(#clip072)" style="stroke:#000000; stroke-linecap:round; stroke-linejoin:round; stroke-width:2; stroke-opacity:0.05; fill:none" points="148.057,1344.49 2352.76,1344.49 "/>
<polyline clip-path="url(#clip072)" style="stroke:#000000; stroke-linecap:round; stroke-linejoin:round; stroke-width:2; stroke-opacity:0.05; fill:none" points="148.057,1323.78 2352.76,1323.78 "/>
<polyline clip-path="url(#clip072)" style="stroke:#000000; stroke-linecap:round; stroke-linejoin:round; stroke-width:2; stroke-opacity:0.05; fill:none" points="148.057,1303.08 2352.76,1303.08 "/>
<polyline clip-path="url(#clip072)" style="stroke:#000000; stroke-linecap:round; stroke-linejoin:round; stroke-width:2; stroke-opacity:0.05; fill:none" points="148.057,1282.37 2352.76,1282.37 "/>
<polyline clip-path="url(#clip072)" style="stroke:#000000; stroke-linecap:round; stroke-linejoin:round; stroke-width:2; stroke-opacity:0.05; fill:none" points="148.057,1261.66 2352.76,1261.66 "/>
<polyline clip-path="url(#clip072)" style="stroke:#000000; stroke-linecap:round; stroke-linejoin:round; stroke-width:2; stroke-opacity:0.05; fill:none" points="148.057,1240.96 2352.76,1240.96 "/>
<polyline clip-path="url(#clip072)" style="stroke:#000000; stroke-linecap:round; stroke-linejoin:round; stroke-width:2; stroke-opacity:0.05; fill:none" points="148.057,1220.25 2352.76,1220.25 "/>
<polyline clip-path="url(#clip072)" style="stroke:#000000; stroke-linecap:round; stroke-linejoin:round; stroke-width:2; stroke-opacity:0.05; fill:none" points="148.057,1199.54 2352.76,1199.54 "/>
<polyline clip-path="url(#clip072)" style="stroke:#000000; stroke-linecap:round; stroke-linejoin:round; stroke-width:2; stroke-opacity:0.05; fill:none" points="148.057,1158.13 2352.76,1158.13 "/>
<polyline clip-path="url(#clip072)" style="stroke:#000000; stroke-linecap:round; stroke-linejoin:round; stroke-width:2; stroke-opacity:0.05; fill:none" points="148.057,1137.42 2352.76,1137.42 "/>
<polyline clip-path="url(#clip072)" style="stroke:#000000; stroke-linecap:round; stroke-linejoin:round; stroke-width:2; stroke-opacity:0.05; fill:none" points="148.057,1116.71 2352.76,1116.71 "/>
<polyline clip-path="url(#clip072)" style="stroke:#000000; stroke-linecap:round; stroke-linejoin:round; stroke-width:2; stroke-opacity:0.05; fill:none" points="148.057,1096 2352.76,1096 "/>
<polyline clip-path="url(#clip072)" style="stroke:#000000; stroke-linecap:round; stroke-linejoin:round; stroke-width:2; stroke-opacity:0.05; fill:none" points="148.057,1075.3 2352.76,1075.3 "/>
<polyline clip-path="url(#clip072)" style="stroke:#000000; stroke-linecap:round; stroke-linejoin:round; stroke-width:2; stroke-opacity:0.05; fill:none" points="148.057,1054.59 2352.76,1054.59 "/>
<polyline clip-path="url(#clip072)" style="stroke:#000000; stroke-linecap:round; stroke-linejoin:round; stroke-width:2; stroke-opacity:0.05; fill:none" points="148.057,1033.88 2352.76,1033.88 "/>
<polyline clip-path="url(#clip072)" style="stroke:#000000; stroke-linecap:round; stroke-linejoin:round; stroke-width:2; stroke-opacity:0.05; fill:none" points="148.057,1013.17 2352.76,1013.17 "/>
<polyline clip-path="url(#clip072)" style="stroke:#000000; stroke-linecap:round; stroke-linejoin:round; stroke-width:2; stroke-opacity:0.05; fill:none" points="148.057,992.467 2352.76,992.467 "/>
<polyline clip-path="url(#clip072)" style="stroke:#000000; stroke-linecap:round; stroke-linejoin:round; stroke-width:2; stroke-opacity:0.05; fill:none" points="148.057,951.052 2352.76,951.052 "/>
<polyline clip-path="url(#clip072)" style="stroke:#000000; stroke-linecap:round; stroke-linejoin:round; stroke-width:2; stroke-opacity:0.05; fill:none" points="148.057,930.345 2352.76,930.345 "/>
<polyline clip-path="url(#clip072)" style="stroke:#000000; stroke-linecap:round; stroke-linejoin:round; stroke-width:2; stroke-opacity:0.05; fill:none" points="148.057,909.637 2352.76,909.637 "/>
<polyline clip-path="url(#clip072)" style="stroke:#000000; stroke-linecap:round; stroke-linejoin:round; stroke-width:2; stroke-opacity:0.05; fill:none" points="148.057,888.93 2352.76,888.93 "/>
<polyline clip-path="url(#clip072)" style="stroke:#000000; stroke-linecap:round; stroke-linejoin:round; stroke-width:2; stroke-opacity:0.05; fill:none" points="148.057,868.223 2352.76,868.223 "/>
<polyline clip-path="url(#clip072)" style="stroke:#000000; stroke-linecap:round; stroke-linejoin:round; stroke-width:2; stroke-opacity:0.05; fill:none" points="148.057,847.515 2352.76,847.515 "/>
<polyline clip-path="url(#clip072)" style="stroke:#000000; stroke-linecap:round; stroke-linejoin:round; stroke-width:2; stroke-opacity:0.05; fill:none" points="148.057,826.808 2352.76,826.808 "/>
<polyline clip-path="url(#clip072)" style="stroke:#000000; stroke-linecap:round; stroke-linejoin:round; stroke-width:2; stroke-opacity:0.05; fill:none" points="148.057,806.101 2352.76,806.101 "/>
<polyline clip-path="url(#clip072)" style="stroke:#000000; stroke-linecap:round; stroke-linejoin:round; stroke-width:2; stroke-opacity:0.05; fill:none" points="148.057,785.393 2352.76,785.393 "/>
<polyline clip-path="url(#clip072)" style="stroke:#000000; stroke-linecap:round; stroke-linejoin:round; stroke-width:2; stroke-opacity:0.05; fill:none" points="148.057,743.979 2352.76,743.979 "/>
<polyline clip-path="url(#clip072)" style="stroke:#000000; stroke-linecap:round; stroke-linejoin:round; stroke-width:2; stroke-opacity:0.05; fill:none" points="148.057,723.271 2352.76,723.271 "/>
<polyline clip-path="url(#clip072)" style="stroke:#000000; stroke-linecap:round; stroke-linejoin:round; stroke-width:2; stroke-opacity:0.05; fill:none" points="148.057,702.564 2352.76,702.564 "/>
<polyline clip-path="url(#clip072)" style="stroke:#000000; stroke-linecap:round; stroke-linejoin:round; stroke-width:2; stroke-opacity:0.05; fill:none" points="148.057,681.857 2352.76,681.857 "/>
<polyline clip-path="url(#clip072)" style="stroke:#000000; stroke-linecap:round; stroke-linejoin:round; stroke-width:2; stroke-opacity:0.05; fill:none" points="148.057,661.149 2352.76,661.149 "/>
<polyline clip-path="url(#clip072)" style="stroke:#000000; stroke-linecap:round; stroke-linejoin:round; stroke-width:2; stroke-opacity:0.05; fill:none" points="148.057,640.442 2352.76,640.442 "/>
<polyline clip-path="url(#clip072)" style="stroke:#000000; stroke-linecap:round; stroke-linejoin:round; stroke-width:2; stroke-opacity:0.05; fill:none" points="148.057,619.735 2352.76,619.735 "/>
<polyline clip-path="url(#clip072)" style="stroke:#000000; stroke-linecap:round; stroke-linejoin:round; stroke-width:2; stroke-opacity:0.05; fill:none" points="148.057,599.027 2352.76,599.027 "/>
<polyline clip-path="url(#clip072)" style="stroke:#000000; stroke-linecap:round; stroke-linejoin:round; stroke-width:2; stroke-opacity:0.05; fill:none" points="148.057,578.32 2352.76,578.32 "/>
<polyline clip-path="url(#clip072)" style="stroke:#000000; stroke-linecap:round; stroke-linejoin:round; stroke-width:2; stroke-opacity:0.05; fill:none" points="148.057,536.905 2352.76,536.905 "/>
<polyline clip-path="url(#clip072)" style="stroke:#000000; stroke-linecap:round; stroke-linejoin:round; stroke-width:2; stroke-opacity:0.05; fill:none" points="148.057,516.198 2352.76,516.198 "/>
<polyline clip-path="url(#clip072)" style="stroke:#000000; stroke-linecap:round; stroke-linejoin:round; stroke-width:2; stroke-opacity:0.05; fill:none" points="148.057,495.49 2352.76,495.49 "/>
<polyline clip-path="url(#clip072)" style="stroke:#000000; stroke-linecap:round; stroke-linejoin:round; stroke-width:2; stroke-opacity:0.05; fill:none" points="148.057,474.783 2352.76,474.783 "/>
<polyline clip-path="url(#clip072)" style="stroke:#000000; stroke-linecap:round; stroke-linejoin:round; stroke-width:2; stroke-opacity:0.05; fill:none" points="148.057,454.076 2352.76,454.076 "/>
<polyline clip-path="url(#clip072)" style="stroke:#000000; stroke-linecap:round; stroke-linejoin:round; stroke-width:2; stroke-opacity:0.05; fill:none" points="148.057,433.368 2352.76,433.368 "/>
<polyline clip-path="url(#clip072)" style="stroke:#000000; stroke-linecap:round; stroke-linejoin:round; stroke-width:2; stroke-opacity:0.05; fill:none" points="148.057,412.661 2352.76,412.661 "/>
<polyline clip-path="url(#clip072)" style="stroke:#000000; stroke-linecap:round; stroke-linejoin:round; stroke-width:2; stroke-opacity:0.05; fill:none" points="148.057,391.954 2352.76,391.954 "/>
<polyline clip-path="url(#clip072)" style="stroke:#000000; stroke-linecap:round; stroke-linejoin:round; stroke-width:2; stroke-opacity:0.05; fill:none" points="148.057,371.246 2352.76,371.246 "/>
<polyline clip-path="url(#clip072)" style="stroke:#000000; stroke-linecap:round; stroke-linejoin:round; stroke-width:2; stroke-opacity:0.05; fill:none" points="148.057,329.832 2352.76,329.832 "/>
<polyline clip-path="url(#clip072)" style="stroke:#000000; stroke-linecap:round; stroke-linejoin:round; stroke-width:2; stroke-opacity:0.05; fill:none" points="148.057,309.124 2352.76,309.124 "/>
<polyline clip-path="url(#clip072)" style="stroke:#000000; stroke-linecap:round; stroke-linejoin:round; stroke-width:2; stroke-opacity:0.05; fill:none" points="148.057,288.417 2352.76,288.417 "/>
<polyline clip-path="url(#clip072)" style="stroke:#000000; stroke-linecap:round; stroke-linejoin:round; stroke-width:2; stroke-opacity:0.05; fill:none" points="148.057,267.709 2352.76,267.709 "/>
<polyline clip-path="url(#clip072)" style="stroke:#000000; stroke-linecap:round; stroke-linejoin:round; stroke-width:2; stroke-opacity:0.05; fill:none" points="148.057,247.002 2352.76,247.002 "/>
<polyline clip-path="url(#clip072)" style="stroke:#000000; stroke-linecap:round; stroke-linejoin:round; stroke-width:2; stroke-opacity:0.05; fill:none" points="148.057,226.295 2352.76,226.295 "/>
<polyline clip-path="url(#clip072)" style="stroke:#000000; stroke-linecap:round; stroke-linejoin:round; stroke-width:2; stroke-opacity:0.05; fill:none" points="148.057,205.587 2352.76,205.587 "/>
<polyline clip-path="url(#clip072)" style="stroke:#000000; stroke-linecap:round; stroke-linejoin:round; stroke-width:2; stroke-opacity:0.05; fill:none" points="148.057,184.88 2352.76,184.88 "/>
<polyline clip-path="url(#clip072)" style="stroke:#000000; stroke-linecap:round; stroke-linejoin:round; stroke-width:2; stroke-opacity:0.05; fill:none" points="148.057,164.173 2352.76,164.173 "/>
<polyline clip-path="url(#clip072)" style="stroke:#000000; stroke-linecap:round; stroke-linejoin:round; stroke-width:2; stroke-opacity:0.05; fill:none" points="148.057,122.758 2352.76,122.758 "/>
<polyline clip-path="url(#clip072)" style="stroke:#000000; stroke-linecap:round; stroke-linejoin:round; stroke-width:2; stroke-opacity:0.1; fill:none" points="210.454,1423.18 210.454,106.192 "/>
<polyline clip-path="url(#clip072)" style="stroke:#000000; stroke-linecap:round; stroke-linejoin:round; stroke-width:2; stroke-opacity:0.1; fill:none" points="1089.53,1423.18 1089.53,106.192 "/>
<polyline clip-path="url(#clip072)" style="stroke:#000000; stroke-linecap:round; stroke-linejoin:round; stroke-width:2; stroke-opacity:0.1; fill:none" points="1529.06,1423.18 1529.06,106.192 "/>
<polyline clip-path="url(#clip072)" style="stroke:#000000; stroke-linecap:round; stroke-linejoin:round; stroke-width:2; stroke-opacity:0.1; fill:none" points="2290.36,1423.18 2290.36,106.192 "/>
<polyline clip-path="url(#clip072)" style="stroke:#000000; stroke-linecap:round; stroke-linejoin:round; stroke-width:2; stroke-opacity:0.1; fill:none" points="148.057,1385.91 2352.76,1385.91 "/>
<polyline clip-path="url(#clip072)" style="stroke:#000000; stroke-linecap:round; stroke-linejoin:round; stroke-width:2; stroke-opacity:0.1; fill:none" points="148.057,1178.83 2352.76,1178.83 "/>
<polyline clip-path="url(#clip072)" style="stroke:#000000; stroke-linecap:round; stroke-linejoin:round; stroke-width:2; stroke-opacity:0.1; fill:none" points="148.057,971.76 2352.76,971.76 "/>
<polyline clip-path="url(#clip072)" style="stroke:#000000; stroke-linecap:round; stroke-linejoin:round; stroke-width:2; stroke-opacity:0.1; fill:none" points="148.057,764.686 2352.76,764.686 "/>
<polyline clip-path="url(#clip072)" style="stroke:#000000; stroke-linecap:round; stroke-linejoin:round; stroke-width:2; stroke-opacity:0.1; fill:none" points="148.057,557.612 2352.76,557.612 "/>
<polyline clip-path="url(#clip072)" style="stroke:#000000; stroke-linecap:round; stroke-linejoin:round; stroke-width:2; stroke-opacity:0.1; fill:none" points="148.057,350.539 2352.76,350.539 "/>
<polyline clip-path="url(#clip072)" style="stroke:#000000; stroke-linecap:round; stroke-linejoin:round; stroke-width:2; stroke-opacity:0.1; fill:none" points="148.057,143.465 2352.76,143.465 "/>
<polyline clip-path="url(#clip070)" style="stroke:#000000; stroke-linecap:round; stroke-linejoin:round; stroke-width:4; stroke-opacity:1; fill:none" points="148.057,1423.18 2352.76,1423.18 "/>
<polyline clip-path="url(#clip070)" style="stroke:#000000; stroke-linecap:round; stroke-linejoin:round; stroke-width:4; stroke-opacity:1; fill:none" points="210.454,1423.18 210.454,1404.28 "/>
<polyline clip-path="url(#clip070)" style="stroke:#000000; stroke-linecap:round; stroke-linejoin:round; stroke-width:4; stroke-opacity:1; fill:none" points="1089.53,1423.18 1089.53,1404.28 "/>
<polyline clip-path="url(#clip070)" style="stroke:#000000; stroke-linecap:round; stroke-linejoin:round; stroke-width:4; stroke-opacity:1; fill:none" points="1529.06,1423.18 1529.06,1404.28 "/>
<polyline clip-path="url(#clip070)" style="stroke:#000000; stroke-linecap:round; stroke-linejoin:round; stroke-width:4; stroke-opacity:1; fill:none" points="2290.36,1423.18 2290.36,1404.28 "/>
<polyline clip-path="url(#clip070)" style="stroke:#000000; stroke-linecap:round; stroke-linejoin:round; stroke-width:4; stroke-opacity:1; fill:none" points="298.361,1423.18 298.361,1413.73 "/>
<polyline clip-path="url(#clip070)" style="stroke:#000000; stroke-linecap:round; stroke-linejoin:round; stroke-width:4; stroke-opacity:1; fill:none" points="386.268,1423.18 386.268,1413.73 "/>
<polyline clip-path="url(#clip070)" style="stroke:#000000; stroke-linecap:round; stroke-linejoin:round; stroke-width:4; stroke-opacity:1; fill:none" points="474.175,1423.18 474.175,1413.73 "/>
<polyline clip-path="url(#clip070)" style="stroke:#000000; stroke-linecap:round; stroke-linejoin:round; stroke-width:4; stroke-opacity:1; fill:none" points="562.082,1423.18 562.082,1413.73 "/>
<polyline clip-path="url(#clip070)" style="stroke:#000000; stroke-linecap:round; stroke-linejoin:round; stroke-width:4; stroke-opacity:1; fill:none" points="649.989,1423.18 649.989,1413.73 "/>
<polyline clip-path="url(#clip070)" style="stroke:#000000; stroke-linecap:round; stroke-linejoin:round; stroke-width:4; stroke-opacity:1; fill:none" points="737.897,1423.18 737.897,1413.73 "/>
<polyline clip-path="url(#clip070)" style="stroke:#000000; stroke-linecap:round; stroke-linejoin:round; stroke-width:4; stroke-opacity:1; fill:none" points="825.804,1423.18 825.804,1413.73 "/>
<polyline clip-path="url(#clip070)" style="stroke:#000000; stroke-linecap:round; stroke-linejoin:round; stroke-width:4; stroke-opacity:1; fill:none" points="913.711,1423.18 913.711,1413.73 "/>
<polyline clip-path="url(#clip070)" style="stroke:#000000; stroke-linecap:round; stroke-linejoin:round; stroke-width:4; stroke-opacity:1; fill:none" points="1001.62,1423.18 1001.62,1413.73 "/>
<polyline clip-path="url(#clip070)" style="stroke:#000000; stroke-linecap:round; stroke-linejoin:round; stroke-width:4; stroke-opacity:1; fill:none" points="1133.48,1423.18 1133.48,1413.73 "/>
<polyline clip-path="url(#clip070)" style="stroke:#000000; stroke-linecap:round; stroke-linejoin:round; stroke-width:4; stroke-opacity:1; fill:none" points="1177.43,1423.18 1177.43,1413.73 "/>
<polyline clip-path="url(#clip070)" style="stroke:#000000; stroke-linecap:round; stroke-linejoin:round; stroke-width:4; stroke-opacity:1; fill:none" points="1221.39,1423.18 1221.39,1413.73 "/>
<polyline clip-path="url(#clip070)" style="stroke:#000000; stroke-linecap:round; stroke-linejoin:round; stroke-width:4; stroke-opacity:1; fill:none" points="1265.34,1423.18 1265.34,1413.73 "/>
<polyline clip-path="url(#clip070)" style="stroke:#000000; stroke-linecap:round; stroke-linejoin:round; stroke-width:4; stroke-opacity:1; fill:none" points="1309.29,1423.18 1309.29,1413.73 "/>
<polyline clip-path="url(#clip070)" style="stroke:#000000; stroke-linecap:round; stroke-linejoin:round; stroke-width:4; stroke-opacity:1; fill:none" points="1353.25,1423.18 1353.25,1413.73 "/>
<polyline clip-path="url(#clip070)" style="stroke:#000000; stroke-linecap:round; stroke-linejoin:round; stroke-width:4; stroke-opacity:1; fill:none" points="1397.2,1423.18 1397.2,1413.73 "/>
<polyline clip-path="url(#clip070)" style="stroke:#000000; stroke-linecap:round; stroke-linejoin:round; stroke-width:4; stroke-opacity:1; fill:none" points="1441.15,1423.18 1441.15,1413.73 "/>
<polyline clip-path="url(#clip070)" style="stroke:#000000; stroke-linecap:round; stroke-linejoin:round; stroke-width:4; stroke-opacity:1; fill:none" points="1485.11,1423.18 1485.11,1413.73 "/>
<polyline clip-path="url(#clip070)" style="stroke:#000000; stroke-linecap:round; stroke-linejoin:round; stroke-width:4; stroke-opacity:1; fill:none" points="1605.19,1423.18 1605.19,1413.73 "/>
<polyline clip-path="url(#clip070)" style="stroke:#000000; stroke-linecap:round; stroke-linejoin:round; stroke-width:4; stroke-opacity:1; fill:none" points="1681.32,1423.18 1681.32,1413.73 "/>
<polyline clip-path="url(#clip070)" style="stroke:#000000; stroke-linecap:round; stroke-linejoin:round; stroke-width:4; stroke-opacity:1; fill:none" points="1757.45,1423.18 1757.45,1413.73 "/>
<polyline clip-path="url(#clip070)" style="stroke:#000000; stroke-linecap:round; stroke-linejoin:round; stroke-width:4; stroke-opacity:1; fill:none" points="1833.58,1423.18 1833.58,1413.73 "/>
<polyline clip-path="url(#clip070)" style="stroke:#000000; stroke-linecap:round; stroke-linejoin:round; stroke-width:4; stroke-opacity:1; fill:none" points="1909.71,1423.18 1909.71,1413.73 "/>
<polyline clip-path="url(#clip070)" style="stroke:#000000; stroke-linecap:round; stroke-linejoin:round; stroke-width:4; stroke-opacity:1; fill:none" points="1985.84,1423.18 1985.84,1413.73 "/>
<polyline clip-path="url(#clip070)" style="stroke:#000000; stroke-linecap:round; stroke-linejoin:round; stroke-width:4; stroke-opacity:1; fill:none" points="2061.97,1423.18 2061.97,1413.73 "/>
<polyline clip-path="url(#clip070)" style="stroke:#000000; stroke-linecap:round; stroke-linejoin:round; stroke-width:4; stroke-opacity:1; fill:none" points="2138.1,1423.18 2138.1,1413.73 "/>
<polyline clip-path="url(#clip070)" style="stroke:#000000; stroke-linecap:round; stroke-linejoin:round; stroke-width:4; stroke-opacity:1; fill:none" points="2214.23,1423.18 2214.23,1413.73 "/>
<polyline clip-path="url(#clip070)" style="stroke:#000000; stroke-linecap:round; stroke-linejoin:round; stroke-width:4; stroke-opacity:1; fill:none" points="2328.42,1423.18 2328.42,1413.73 "/>
<path clip-path="url(#clip070)" d="M199.702 1485.58 L199.702 1451.02 L221.206 1451.02 L221.206 1454.96 L204.377 1454.96 L204.377 1485.58 L199.702 1485.58 Z" fill="#000000" fill-rule="nonzero" fill-opacity="1" /><path clip-path="url(#clip070)" d="M1075.81 1451.02 L1080.49 1451.02 L1080.49 1465.63 L1095.99 1451.02 L1102.01 1451.02 L1084.86 1467.13 L1103.24 1485.58 L1097.08 1485.58 L1080.49 1468.94 L1080.49 1485.58 L1075.81 1485.58 L1075.81 1451.02 Z" fill="#000000" fill-rule="nonzero" fill-opacity="1" /><path clip-path="url(#clip070)" d="M1513.25 1451.02 L1520.22 1451.02 L1529.04 1474.54 L1537.9 1451.02 L1544.87 1451.02 L1544.87 1485.58 L1540.31 1485.58 L1540.31 1455.23 L1531.4 1478.94 L1526.7 1478.94 L1517.79 1455.23 L1517.79 1485.58 L1513.25 1485.58 L1513.25 1451.02 Z" fill="#000000" fill-rule="nonzero" fill-opacity="1" /><path clip-path="url(#clip070)" d="M2279.61 1485.58 L2279.61 1451.02 L2301.11 1451.02 L2301.11 1454.96 L2284.28 1454.96 L2284.28 1485.58 L2279.61 1485.58 Z" fill="#000000" fill-rule="nonzero" fill-opacity="1" /><path clip-path="url(#clip070)" d="M1234.59 1518.52 L1240.48 1518.52 L1240.48 1547.77 L1257.95 1532.4 L1265.43 1532.4 L1246.52 1549.07 L1266.23 1568.04 L1258.59 1568.04 L1240.48 1550.63 L1240.48 1568.04 L1234.59 1568.04 L1234.59 1518.52 Z" fill="#000000" fill-rule="nonzero" fill-opacity="1" /><polyline clip-path="url(#clip070)" style="stroke:#000000; stroke-linecap:round; stroke-linejoin:round; stroke-width:4; stroke-opacity:1; fill:none" points="148.057,1423.18 148.057,106.192 "/>
<polyline clip-path="url(#clip070)" style="stroke:#000000; stroke-linecap:round; stroke-linejoin:round; stroke-width:4; stroke-opacity:1; fill:none" points="148.057,1385.91 166.954,1385.91 "/>
<polyline clip-path="url(#clip070)" style="stroke:#000000; stroke-linecap:round; stroke-linejoin:round; stroke-width:4; stroke-opacity:1; fill:none" points="148.057,1178.83 166.954,1178.83 "/>
<polyline clip-path="url(#clip070)" style="stroke:#000000; stroke-linecap:round; stroke-linejoin:round; stroke-width:4; stroke-opacity:1; fill:none" points="148.057,971.76 166.954,971.76 "/>
<polyline clip-path="url(#clip070)" style="stroke:#000000; stroke-linecap:round; stroke-linejoin:round; stroke-width:4; stroke-opacity:1; fill:none" points="148.057,764.686 166.954,764.686 "/>
<polyline clip-path="url(#clip070)" style="stroke:#000000; stroke-linecap:round; stroke-linejoin:round; stroke-width:4; stroke-opacity:1; fill:none" points="148.057,557.612 166.954,557.612 "/>
<polyline clip-path="url(#clip070)" style="stroke:#000000; stroke-linecap:round; stroke-linejoin:round; stroke-width:4; stroke-opacity:1; fill:none" points="148.057,350.539 166.954,350.539 "/>
<polyline clip-path="url(#clip070)" style="stroke:#000000; stroke-linecap:round; stroke-linejoin:round; stroke-width:4; stroke-opacity:1; fill:none" points="148.057,143.465 166.954,143.465 "/>
<polyline clip-path="url(#clip070)" style="stroke:#000000; stroke-linecap:round; stroke-linejoin:round; stroke-width:4; stroke-opacity:1; fill:none" points="148.057,1406.61 157.505,1406.61 "/>
<polyline clip-path="url(#clip070)" style="stroke:#000000; stroke-linecap:round; stroke-linejoin:round; stroke-width:4; stroke-opacity:1; fill:none" points="148.057,1365.2 157.505,1365.2 "/>
<polyline clip-path="url(#clip070)" style="stroke:#000000; stroke-linecap:round; stroke-linejoin:round; stroke-width:4; stroke-opacity:1; fill:none" points="148.057,1344.49 157.505,1344.49 "/>
<polyline clip-path="url(#clip070)" style="stroke:#000000; stroke-linecap:round; stroke-linejoin:round; stroke-width:4; stroke-opacity:1; fill:none" points="148.057,1323.78 157.505,1323.78 "/>
<polyline clip-path="url(#clip070)" style="stroke:#000000; stroke-linecap:round; stroke-linejoin:round; stroke-width:4; stroke-opacity:1; fill:none" points="148.057,1303.08 157.505,1303.08 "/>
<polyline clip-path="url(#clip070)" style="stroke:#000000; stroke-linecap:round; stroke-linejoin:round; stroke-width:4; stroke-opacity:1; fill:none" points="148.057,1282.37 157.505,1282.37 "/>
<polyline clip-path="url(#clip070)" style="stroke:#000000; stroke-linecap:round; stroke-linejoin:round; stroke-width:4; stroke-opacity:1; fill:none" points="148.057,1261.66 157.505,1261.66 "/>
<polyline clip-path="url(#clip070)" style="stroke:#000000; stroke-linecap:round; stroke-linejoin:round; stroke-width:4; stroke-opacity:1; fill:none" points="148.057,1240.96 157.505,1240.96 "/>
<polyline clip-path="url(#clip070)" style="stroke:#000000; stroke-linecap:round; stroke-linejoin:round; stroke-width:4; stroke-opacity:1; fill:none" points="148.057,1220.25 157.505,1220.25 "/>
<polyline clip-path="url(#clip070)" style="stroke:#000000; stroke-linecap:round; stroke-linejoin:round; stroke-width:4; stroke-opacity:1; fill:none" points="148.057,1199.54 157.505,1199.54 "/>
<polyline clip-path="url(#clip070)" style="stroke:#000000; stroke-linecap:round; stroke-linejoin:round; stroke-width:4; stroke-opacity:1; fill:none" points="148.057,1158.13 157.505,1158.13 "/>
<polyline clip-path="url(#clip070)" style="stroke:#000000; stroke-linecap:round; stroke-linejoin:round; stroke-width:4; stroke-opacity:1; fill:none" points="148.057,1137.42 157.505,1137.42 "/>
<polyline clip-path="url(#clip070)" style="stroke:#000000; stroke-linecap:round; stroke-linejoin:round; stroke-width:4; stroke-opacity:1; fill:none" points="148.057,1116.71 157.505,1116.71 "/>
<polyline clip-path="url(#clip070)" style="stroke:#000000; stroke-linecap:round; stroke-linejoin:round; stroke-width:4; stroke-opacity:1; fill:none" points="148.057,1096 157.505,1096 "/>
<polyline clip-path="url(#clip070)" style="stroke:#000000; stroke-linecap:round; stroke-linejoin:round; stroke-width:4; stroke-opacity:1; fill:none" points="148.057,1075.3 157.505,1075.3 "/>
<polyline clip-path="url(#clip070)" style="stroke:#000000; stroke-linecap:round; stroke-linejoin:round; stroke-width:4; stroke-opacity:1; fill:none" points="148.057,1054.59 157.505,1054.59 "/>
<polyline clip-path="url(#clip070)" style="stroke:#000000; stroke-linecap:round; stroke-linejoin:round; stroke-width:4; stroke-opacity:1; fill:none" points="148.057,1033.88 157.505,1033.88 "/>
<polyline clip-path="url(#clip070)" style="stroke:#000000; stroke-linecap:round; stroke-linejoin:round; stroke-width:4; stroke-opacity:1; fill:none" points="148.057,1013.17 157.505,1013.17 "/>
<polyline clip-path="url(#clip070)" style="stroke:#000000; stroke-linecap:round; stroke-linejoin:round; stroke-width:4; stroke-opacity:1; fill:none" points="148.057,992.467 157.505,992.467 "/>
<polyline clip-path="url(#clip070)" style="stroke:#000000; stroke-linecap:round; stroke-linejoin:round; stroke-width:4; stroke-opacity:1; fill:none" points="148.057,951.052 157.505,951.052 "/>
<polyline clip-path="url(#clip070)" style="stroke:#000000; stroke-linecap:round; stroke-linejoin:round; stroke-width:4; stroke-opacity:1; fill:none" points="148.057,930.345 157.505,930.345 "/>
<polyline clip-path="url(#clip070)" style="stroke:#000000; stroke-linecap:round; stroke-linejoin:round; stroke-width:4; stroke-opacity:1; fill:none" points="148.057,909.637 157.505,909.637 "/>
<polyline clip-path="url(#clip070)" style="stroke:#000000; stroke-linecap:round; stroke-linejoin:round; stroke-width:4; stroke-opacity:1; fill:none" points="148.057,888.93 157.505,888.93 "/>
<polyline clip-path="url(#clip070)" style="stroke:#000000; stroke-linecap:round; stroke-linejoin:round; stroke-width:4; stroke-opacity:1; fill:none" points="148.057,868.223 157.505,868.223 "/>
<polyline clip-path="url(#clip070)" style="stroke:#000000; stroke-linecap:round; stroke-linejoin:round; stroke-width:4; stroke-opacity:1; fill:none" points="148.057,847.515 157.505,847.515 "/>
<polyline clip-path="url(#clip070)" style="stroke:#000000; stroke-linecap:round; stroke-linejoin:round; stroke-width:4; stroke-opacity:1; fill:none" points="148.057,826.808 157.505,826.808 "/>
<polyline clip-path="url(#clip070)" style="stroke:#000000; stroke-linecap:round; stroke-linejoin:round; stroke-width:4; stroke-opacity:1; fill:none" points="148.057,806.101 157.505,806.101 "/>
<polyline clip-path="url(#clip070)" style="stroke:#000000; stroke-linecap:round; stroke-linejoin:round; stroke-width:4; stroke-opacity:1; fill:none" points="148.057,785.393 157.505,785.393 "/>
<polyline clip-path="url(#clip070)" style="stroke:#000000; stroke-linecap:round; stroke-linejoin:round; stroke-width:4; stroke-opacity:1; fill:none" points="148.057,743.979 157.505,743.979 "/>
<polyline clip-path="url(#clip070)" style="stroke:#000000; stroke-linecap:round; stroke-linejoin:round; stroke-width:4; stroke-opacity:1; fill:none" points="148.057,723.271 157.505,723.271 "/>
<polyline clip-path="url(#clip070)" style="stroke:#000000; stroke-linecap:round; stroke-linejoin:round; stroke-width:4; stroke-opacity:1; fill:none" points="148.057,702.564 157.505,702.564 "/>
<polyline clip-path="url(#clip070)" style="stroke:#000000; stroke-linecap:round; stroke-linejoin:round; stroke-width:4; stroke-opacity:1; fill:none" points="148.057,681.857 157.505,681.857 "/>
<polyline clip-path="url(#clip070)" style="stroke:#000000; stroke-linecap:round; stroke-linejoin:round; stroke-width:4; stroke-opacity:1; fill:none" points="148.057,661.149 157.505,661.149 "/>
<polyline clip-path="url(#clip070)" style="stroke:#000000; stroke-linecap:round; stroke-linejoin:round; stroke-width:4; stroke-opacity:1; fill:none" points="148.057,640.442 157.505,640.442 "/>
<polyline clip-path="url(#clip070)" style="stroke:#000000; stroke-linecap:round; stroke-linejoin:round; stroke-width:4; stroke-opacity:1; fill:none" points="148.057,619.735 157.505,619.735 "/>
<polyline clip-path="url(#clip070)" style="stroke:#000000; stroke-linecap:round; stroke-linejoin:round; stroke-width:4; stroke-opacity:1; fill:none" points="148.057,599.027 157.505,599.027 "/>
<polyline clip-path="url(#clip070)" style="stroke:#000000; stroke-linecap:round; stroke-linejoin:round; stroke-width:4; stroke-opacity:1; fill:none" points="148.057,578.32 157.505,578.32 "/>
<polyline clip-path="url(#clip070)" style="stroke:#000000; stroke-linecap:round; stroke-linejoin:round; stroke-width:4; stroke-opacity:1; fill:none" points="148.057,536.905 157.505,536.905 "/>
<polyline clip-path="url(#clip070)" style="stroke:#000000; stroke-linecap:round; stroke-linejoin:round; stroke-width:4; stroke-opacity:1; fill:none" points="148.057,516.198 157.505,516.198 "/>
<polyline clip-path="url(#clip070)" style="stroke:#000000; stroke-linecap:round; stroke-linejoin:round; stroke-width:4; stroke-opacity:1; fill:none" points="148.057,495.49 157.505,495.49 "/>
<polyline clip-path="url(#clip070)" style="stroke:#000000; stroke-linecap:round; stroke-linejoin:round; stroke-width:4; stroke-opacity:1; fill:none" points="148.057,474.783 157.505,474.783 "/>
<polyline clip-path="url(#clip070)" style="stroke:#000000; stroke-linecap:round; stroke-linejoin:round; stroke-width:4; stroke-opacity:1; fill:none" points="148.057,454.076 157.505,454.076 "/>
<polyline clip-path="url(#clip070)" style="stroke:#000000; stroke-linecap:round; stroke-linejoin:round; stroke-width:4; stroke-opacity:1; fill:none" points="148.057,433.368 157.505,433.368 "/>
<polyline clip-path="url(#clip070)" style="stroke:#000000; stroke-linecap:round; stroke-linejoin:round; stroke-width:4; stroke-opacity:1; fill:none" points="148.057,412.661 157.505,412.661 "/>
<polyline clip-path="url(#clip070)" style="stroke:#000000; stroke-linecap:round; stroke-linejoin:round; stroke-width:4; stroke-opacity:1; fill:none" points="148.057,391.954 157.505,391.954 "/>
<polyline clip-path="url(#clip070)" style="stroke:#000000; stroke-linecap:round; stroke-linejoin:round; stroke-width:4; stroke-opacity:1; fill:none" points="148.057,371.246 157.505,371.246 "/>
<polyline clip-path="url(#clip070)" style="stroke:#000000; stroke-linecap:round; stroke-linejoin:round; stroke-width:4; stroke-opacity:1; fill:none" points="148.057,329.832 157.505,329.832 "/>
<polyline clip-path="url(#clip070)" style="stroke:#000000; stroke-linecap:round; stroke-linejoin:round; stroke-width:4; stroke-opacity:1; fill:none" points="148.057,309.124 157.505,309.124 "/>
<polyline clip-path="url(#clip070)" style="stroke:#000000; stroke-linecap:round; stroke-linejoin:round; stroke-width:4; stroke-opacity:1; fill:none" points="148.057,288.417 157.505,288.417 "/>
<polyline clip-path="url(#clip070)" style="stroke:#000000; stroke-linecap:round; stroke-linejoin:round; stroke-width:4; stroke-opacity:1; fill:none" points="148.057,267.709 157.505,267.709 "/>
<polyline clip-path="url(#clip070)" style="stroke:#000000; stroke-linecap:round; stroke-linejoin:round; stroke-width:4; stroke-opacity:1; fill:none" points="148.057,247.002 157.505,247.002 "/>
<polyline clip-path="url(#clip070)" style="stroke:#000000; stroke-linecap:round; stroke-linejoin:round; stroke-width:4; stroke-opacity:1; fill:none" points="148.057,226.295 157.505,226.295 "/>
<polyline clip-path="url(#clip070)" style="stroke:#000000; stroke-linecap:round; stroke-linejoin:round; stroke-width:4; stroke-opacity:1; fill:none" points="148.057,205.587 157.505,205.587 "/>
<polyline clip-path="url(#clip070)" style="stroke:#000000; stroke-linecap:round; stroke-linejoin:round; stroke-width:4; stroke-opacity:1; fill:none" points="148.057,184.88 157.505,184.88 "/>
<polyline clip-path="url(#clip070)" style="stroke:#000000; stroke-linecap:round; stroke-linejoin:round; stroke-width:4; stroke-opacity:1; fill:none" points="148.057,164.173 157.505,164.173 "/>
<polyline clip-path="url(#clip070)" style="stroke:#000000; stroke-linecap:round; stroke-linejoin:round; stroke-width:4; stroke-opacity:1; fill:none" points="148.057,122.758 157.505,122.758 "/>
<path clip-path="url(#clip070)" d="M50.9921 1386.36 L80.6679 1386.36 L80.6679 1390.29 L50.9921 1390.29 L50.9921 1386.36 Z" fill="#000000" fill-rule="nonzero" fill-opacity="1" /><path clip-path="url(#clip070)" d="M104.927 1384.55 Q108.283 1385.27 110.158 1387.54 Q112.057 1389.81 112.057 1393.14 Q112.057 1398.26 108.538 1401.06 Q105.02 1403.86 98.5382 1403.86 Q96.3623 1403.86 94.0475 1403.42 Q91.7558 1403 89.3021 1402.14 L89.3021 1397.63 Q91.2465 1398.77 93.5613 1399.34 Q95.8761 1399.92 98.3993 1399.92 Q102.797 1399.92 105.089 1398.19 Q107.404 1396.45 107.404 1393.14 Q107.404 1390.08 105.251 1388.37 Q103.121 1386.64 99.3021 1386.64 L95.2743 1386.64 L95.2743 1382.79 L99.4872 1382.79 Q102.936 1382.79 104.765 1381.43 Q106.594 1380.04 106.594 1377.45 Q106.594 1374.78 104.696 1373.37 Q102.821 1371.94 99.3021 1371.94 Q97.3808 1371.94 95.1817 1372.35 Q92.9826 1372.77 90.3438 1373.65 L90.3438 1369.48 Q93.0058 1368.74 95.3206 1368.37 Q97.6585 1368 99.7187 1368 Q105.043 1368 108.145 1370.43 Q111.246 1372.84 111.246 1376.96 Q111.246 1379.83 109.603 1381.82 Q107.959 1383.79 104.927 1384.55 Z" fill="#000000" fill-rule="nonzero" fill-opacity="1" /><path clip-path="url(#clip070)" d="M51.9412 1179.28 L81.617 1179.28 L81.617 1183.22 L51.9412 1183.22 L51.9412 1179.28 Z" fill="#000000" fill-rule="nonzero" fill-opacity="1" /><path clip-path="url(#clip070)" d="M95.7373 1192.18 L112.057 1192.18 L112.057 1196.11 L90.1123 1196.11 L90.1123 1192.18 Q92.7743 1189.42 97.3576 1184.79 Q101.964 1180.14 103.145 1178.8 Q105.39 1176.28 106.27 1174.54 Q107.172 1172.78 107.172 1171.09 Q107.172 1168.34 105.228 1166.6 Q103.307 1164.86 100.205 1164.86 Q98.0058 1164.86 95.5521 1165.63 Q93.1215 1166.39 90.3438 1167.94 L90.3438 1163.22 Q93.1678 1162.09 95.6215 1161.51 Q98.0752 1160.93 100.112 1160.93 Q105.483 1160.93 108.677 1163.61 Q111.871 1166.3 111.871 1170.79 Q111.871 1172.92 111.061 1174.84 Q110.274 1176.74 108.168 1179.33 Q107.589 1180 104.487 1183.22 Q101.385 1186.41 95.7373 1192.18 Z" fill="#000000" fill-rule="nonzero" fill-opacity="1" /><path clip-path="url(#clip070)" d="M51.5708 972.211 L81.2466 972.211 L81.2466 976.146 L51.5708 976.146 L51.5708 972.211 Z" fill="#000000" fill-rule="nonzero" fill-opacity="1" /><path clip-path="url(#clip070)" d="M92.1493 985.104 L99.7882 985.104 L99.7882 958.739 L91.478 960.405 L91.478 956.146 L99.7419 954.48 L104.418 954.48 L104.418 985.104 L112.057 985.104 L112.057 989.04 L92.1493 989.04 L92.1493 985.104 Z" fill="#000000" fill-rule="nonzero" fill-opacity="1" /><path clip-path="url(#clip070)" d="M100.112 750.485 Q96.5011 750.485 94.6724 754.049 Q92.8669 757.591 92.8669 764.721 Q92.8669 771.827 94.6724 775.392 Q96.5011 778.934 100.112 778.934 Q103.746 778.934 105.552 775.392 Q107.381 771.827 107.381 764.721 Q107.381 757.591 105.552 754.049 Q103.746 750.485 100.112 750.485 M100.112 746.781 Q105.922 746.781 108.978 751.387 Q112.057 755.971 112.057 764.721 Q112.057 773.448 108.978 778.054 Q105.922 782.637 100.112 782.637 Q94.3021 782.637 91.2234 778.054 Q88.1679 773.448 88.1679 764.721 Q88.1679 755.971 91.2234 751.387 Q94.3021 746.781 100.112 746.781 Z" fill="#000000" fill-rule="nonzero" fill-opacity="1" /><path clip-path="url(#clip070)" d="M92.1493 570.957 L99.7882 570.957 L99.7882 544.592 L91.478 546.258 L91.478 541.999 L99.7419 540.332 L104.418 540.332 L104.418 570.957 L112.057 570.957 L112.057 574.892 L92.1493 574.892 L92.1493 570.957 Z" fill="#000000" fill-rule="nonzero" fill-opacity="1" /><path clip-path="url(#clip070)" d="M95.7373 363.884 L112.057 363.884 L112.057 367.819 L90.1123 367.819 L90.1123 363.884 Q92.7743 361.129 97.3576 356.5 Q101.964 351.847 103.145 350.504 Q105.39 347.981 106.27 346.245 Q107.172 344.486 107.172 342.796 Q107.172 340.041 105.228 338.305 Q103.307 336.569 100.205 336.569 Q98.0058 336.569 95.5521 337.333 Q93.1215 338.097 90.3438 339.648 L90.3438 334.926 Q93.1678 333.791 95.6215 333.213 Q98.0752 332.634 100.112 332.634 Q105.483 332.634 108.677 335.319 Q111.871 338.004 111.871 342.495 Q111.871 344.625 111.061 346.546 Q110.274 348.444 108.168 351.037 Q107.589 351.708 104.487 354.925 Q101.385 358.12 95.7373 363.884 Z" fill="#000000" fill-rule="nonzero" fill-opacity="1" /><path clip-path="url(#clip070)" d="M104.927 142.111 Q108.283 142.829 110.158 145.097 Q112.057 147.366 112.057 150.699 Q112.057 155.815 108.538 158.616 Q105.02 161.417 98.5382 161.417 Q96.3623 161.417 94.0475 160.977 Q91.7558 160.56 89.3021 159.704 L89.3021 155.19 Q91.2465 156.324 93.5613 156.903 Q95.8761 157.481 98.3993 157.481 Q102.797 157.481 105.089 155.745 Q107.404 154.009 107.404 150.699 Q107.404 147.644 105.251 145.931 Q103.121 144.195 99.3021 144.195 L95.2743 144.195 L95.2743 140.352 L99.4872 140.352 Q102.936 140.352 104.765 138.986 Q106.594 137.597 106.594 135.005 Q106.594 132.343 104.696 130.931 Q102.821 129.496 99.3021 129.496 Q97.3808 129.496 95.1817 129.912 Q92.9826 130.329 90.3438 131.208 L90.3438 127.042 Q93.0058 126.301 95.3206 125.931 Q97.6585 125.56 99.7187 125.56 Q105.043 125.56 108.145 127.991 Q111.246 130.398 111.246 134.519 Q111.246 137.389 109.603 139.38 Q107.959 141.347 104.927 142.111 Z" fill="#000000" fill-rule="nonzero" fill-opacity="1" /><path clip-path="url(#clip070)" d="M742.944 45.6768 L742.944 34.0739 L733.395 34.0739 L733.395 29.2707 L748.731 29.2707 L748.731 47.818 Q745.345 50.2196 741.265 51.4638 Q737.186 52.6791 732.556 52.6791 Q722.429 52.6791 716.7 46.7764 Q710.999 40.8447 710.999 30.2834 Q710.999 19.6932 716.7 13.7904 Q722.429 7.85875 732.556 7.85875 Q736.781 7.85875 740.571 8.90042 Q744.39 9.94208 747.602 11.9675 L747.602 18.1886 Q744.362 15.4397 740.716 14.0509 Q737.07 12.662 733.048 12.662 Q725.12 12.662 721.127 17.089 Q717.163 21.5161 717.163 30.2834 Q717.163 39.0218 721.127 43.4488 Q725.12 47.8759 733.048 47.8759 Q736.144 47.8759 738.575 47.3551 Q741.005 46.8053 742.944 45.6768 Z" fill="#000000" fill-rule="nonzero" fill-opacity="1" /><path clip-path="url(#clip070)" d="M777.955 24.4096 Q777.058 23.8888 775.988 23.6573 Q774.946 23.3969 773.673 23.3969 Q769.159 23.3969 766.728 26.3482 Q764.327 29.2707 764.327 34.7683 L764.327 51.84 L758.974 51.84 L758.974 19.4328 L764.327 19.4328 L764.327 24.4675 Q766.005 21.5161 768.696 20.0983 Q771.387 18.6515 775.235 18.6515 Q775.785 18.6515 776.45 18.7383 Q777.116 18.7962 777.926 18.9409 L777.955 24.4096 Z" fill="#000000" fill-rule="nonzero" fill-opacity="1" /><path clip-path="url(#clip070)" d="M798.267 35.5496 Q791.815 35.5496 789.327 37.0253 Q786.838 38.501 786.838 42.06 Q786.838 44.8956 788.69 46.5738 Q790.571 48.2231 793.783 48.2231 Q798.21 48.2231 800.872 45.0981 Q803.563 41.9442 803.563 36.7359 L803.563 35.5496 L798.267 35.5496 M808.887 33.3505 L808.887 51.84 L803.563 51.84 L803.563 46.921 Q801.74 49.8724 799.02 51.2902 Q796.3 52.6791 792.365 52.6791 Q787.388 52.6791 784.437 49.9014 Q781.514 47.0947 781.514 42.4072 Q781.514 36.9385 785.16 34.1607 Q788.835 31.3829 796.097 31.3829 L803.563 31.3829 L803.563 30.8621 Q803.563 27.1874 801.132 25.1908 Q798.73 23.1654 794.361 23.1654 Q791.583 23.1654 788.95 23.8309 Q786.317 24.4964 783.887 25.8274 L783.887 20.9085 Q786.809 19.78 789.558 19.2302 Q792.307 18.6515 794.911 18.6515 Q801.942 18.6515 805.414 22.2973 Q808.887 25.9431 808.887 33.3505 Z" fill="#000000" fill-rule="nonzero" fill-opacity="1" /><path clip-path="url(#clip070)" d="M825.003 46.9789 L825.003 64.1663 L819.65 64.1663 L819.65 19.4328 L825.003 19.4328 L825.003 24.3517 Q826.682 21.4582 829.228 20.0693 Q831.803 18.6515 835.362 18.6515 Q841.265 18.6515 844.94 23.339 Q848.643 28.0265 848.643 35.6653 Q848.643 43.3042 844.94 47.9916 Q841.265 52.6791 835.362 52.6791 Q831.803 52.6791 829.228 51.2902 Q826.682 49.8724 825.003 46.9789 M843.117 35.6653 Q843.117 29.7915 840.686 26.464 Q838.285 23.1075 834.06 23.1075 Q829.836 23.1075 827.405 26.464 Q825.003 29.7915 825.003 35.6653 Q825.003 41.5391 827.405 44.8956 Q829.836 48.2231 834.06 48.2231 Q838.285 48.2231 840.686 44.8956 Q843.117 41.5391 843.117 35.6653 Z" fill="#000000" fill-rule="nonzero" fill-opacity="1" /><path clip-path="url(#clip070)" d="M884.407 32.2799 L884.407 51.84 L879.083 51.84 L879.083 32.4535 Q879.083 27.8529 877.289 25.567 Q875.495 23.2811 871.907 23.2811 Q867.596 23.2811 865.107 26.03 Q862.619 28.7788 862.619 33.5241 L862.619 51.84 L857.266 51.84 L857.266 6.81709 L862.619 6.81709 L862.619 24.4675 Q864.529 21.545 867.104 20.0983 Q869.708 18.6515 873.093 18.6515 Q878.678 18.6515 881.542 22.1237 Q884.407 25.567 884.407 32.2799 Z" fill="#000000" fill-rule="nonzero" fill-opacity="1" /><path clip-path="url(#clip070)" d="M922.746 34.3054 L922.746 36.9095 L898.267 36.9095 Q898.614 42.4072 901.566 45.3007 Q904.546 48.1653 909.841 48.1653 Q912.908 48.1653 915.773 47.4129 Q918.666 46.6606 921.502 45.156 L921.502 50.1907 Q918.637 51.406 915.628 52.0425 Q912.619 52.6791 909.523 52.6791 Q901.768 52.6791 897.225 48.1653 Q892.711 43.6514 892.711 35.9547 Q892.711 27.9975 896.994 23.339 Q901.305 18.6515 908.597 18.6515 Q915.136 18.6515 918.927 22.876 Q922.746 27.0716 922.746 34.3054 M917.422 32.7429 Q917.364 28.3737 914.962 25.7695 Q912.59 23.1654 908.655 23.1654 Q904.199 23.1654 901.508 25.6827 Q898.846 28.2001 898.441 32.7718 L917.422 32.7429 Z" fill="#000000" fill-rule="nonzero" fill-opacity="1" /><path clip-path="url(#clip070)" d="M958.423 32.2799 L958.423 51.84 L953.099 51.84 L953.099 32.4535 Q953.099 27.8529 951.305 25.567 Q949.511 23.2811 945.923 23.2811 Q941.612 23.2811 939.123 26.03 Q936.635 28.7788 936.635 33.5241 L936.635 51.84 L931.282 51.84 L931.282 19.4328 L936.635 19.4328 L936.635 24.4675 Q938.545 21.545 941.12 20.0983 Q943.724 18.6515 947.109 18.6515 Q952.694 18.6515 955.558 22.1237 Q958.423 25.567 958.423 32.2799 Z" fill="#000000" fill-rule="nonzero" fill-opacity="1" /><path clip-path="url(#clip070)" d="M996.762 34.3054 L996.762 36.9095 L972.283 36.9095 Q972.63 42.4072 975.581 45.3007 Q978.562 48.1653 983.857 48.1653 Q986.924 48.1653 989.788 47.4129 Q992.682 46.6606 995.518 45.156 L995.518 50.1907 Q992.653 51.406 989.644 52.0425 Q986.635 52.6791 983.538 52.6791 Q975.784 52.6791 971.241 48.1653 Q966.727 43.6514 966.727 35.9547 Q966.727 27.9975 971.01 23.339 Q975.321 18.6515 982.613 18.6515 Q989.152 18.6515 992.942 22.876 Q996.762 27.0716 996.762 34.3054 M991.438 32.7429 Q991.38 28.3737 988.978 25.7695 Q986.606 23.1654 982.67 23.1654 Q978.214 23.1654 975.523 25.6827 Q972.861 28.2001 972.456 32.7718 L991.438 32.7429 Z" fill="#000000" fill-rule="nonzero" fill-opacity="1" /><path clip-path="url(#clip070)" d="M1018.29 6.87496 Q1014.41 13.53 1012.53 20.0404 Q1010.65 26.5508 1010.65 33.2348 Q1010.65 39.9188 1012.53 46.487 Q1014.44 53.0263 1018.29 59.6525 L1013.66 59.6525 Q1009.32 52.8527 1007.15 46.2845 Q1005.01 39.7162 1005.01 33.2348 Q1005.01 26.7823 1007.15 20.2429 Q1009.29 13.7036 1013.66 6.87496 L1018.29 6.87496 Z" fill="#000000" fill-rule="nonzero" fill-opacity="1" /><path clip-path="url(#clip070)" d="M1061.2 11.9675 L1061.2 18.1307 Q1058.25 15.3819 1054.89 14.0219 Q1051.56 12.662 1047.8 12.662 Q1040.4 12.662 1036.46 17.2048 Q1032.53 21.7186 1032.53 30.2834 Q1032.53 38.8192 1036.46 43.362 Q1040.4 47.8759 1047.8 47.8759 Q1051.56 47.8759 1054.89 46.516 Q1058.25 45.156 1061.2 42.4072 L1061.2 48.5125 Q1058.13 50.5958 1054.69 51.6375 Q1051.28 52.6791 1047.46 52.6791 Q1037.65 52.6791 1032 46.6896 Q1026.36 40.6711 1026.36 30.2834 Q1026.36 19.8668 1032 13.8772 Q1037.65 7.85875 1047.46 7.85875 Q1051.33 7.85875 1054.75 8.90042 Q1058.19 9.91314 1061.2 11.9675 Z" fill="#000000" fill-rule="nonzero" fill-opacity="1" /><path clip-path="url(#clip070)" d="M1082.55 23.1654 Q1078.27 23.1654 1075.78 26.5218 Q1073.29 29.8494 1073.29 35.6653 Q1073.29 41.4813 1075.75 44.8377 Q1078.24 48.1653 1082.55 48.1653 Q1086.81 48.1653 1089.3 44.8088 Q1091.78 41.4523 1091.78 35.6653 Q1091.78 29.9072 1089.3 26.5508 Q1086.81 23.1654 1082.55 23.1654 M1082.55 18.6515 Q1089.5 18.6515 1093.46 23.1654 Q1097.43 27.6792 1097.43 35.6653 Q1097.43 43.6225 1093.46 48.1653 Q1089.5 52.6791 1082.55 52.6791 Q1075.58 52.6791 1071.62 48.1653 Q1067.68 43.6225 1067.68 35.6653 Q1067.68 27.6792 1071.62 23.1654 Q1075.58 18.6515 1082.55 18.6515 Z" fill="#000000" fill-rule="nonzero" fill-opacity="1" /><path clip-path="url(#clip070)" d="M1131.48 25.6538 Q1133.48 22.0659 1136.26 20.3587 Q1139.04 18.6515 1142.8 18.6515 Q1147.86 18.6515 1150.61 22.2105 Q1153.36 25.7406 1153.36 32.2799 L1153.36 51.84 L1148.01 51.84 L1148.01 32.4535 Q1148.01 27.795 1146.36 25.5381 Q1144.71 23.2811 1141.32 23.2811 Q1137.18 23.2811 1134.78 26.03 Q1132.38 28.7788 1132.38 33.5241 L1132.38 51.84 L1127.03 51.84 L1127.03 32.4535 Q1127.03 27.7661 1125.38 25.5381 Q1123.73 23.2811 1120.29 23.2811 Q1116.21 23.2811 1113.8 26.0589 Q1111.4 28.8077 1111.4 33.5241 L1111.4 51.84 L1106.05 51.84 L1106.05 19.4328 L1111.4 19.4328 L1111.4 24.4675 Q1113.23 21.4872 1115.77 20.0693 Q1118.32 18.6515 1121.82 18.6515 Q1125.35 18.6515 1127.81 20.4455 Q1130.3 22.2395 1131.48 25.6538 Z" fill="#000000" fill-rule="nonzero" fill-opacity="1" /><path clip-path="url(#clip070)" d="M1169.13 46.9789 L1169.13 64.1663 L1163.77 64.1663 L1163.77 19.4328 L1169.13 19.4328 L1169.13 24.3517 Q1170.81 21.4582 1173.35 20.0693 Q1175.93 18.6515 1179.49 18.6515 Q1185.39 18.6515 1189.06 23.339 Q1192.77 28.0265 1192.77 35.6653 Q1192.77 43.3042 1189.06 47.9916 Q1185.39 52.6791 1179.49 52.6791 Q1175.93 52.6791 1173.35 51.2902 Q1170.81 49.8724 1169.13 46.9789 M1187.24 35.6653 Q1187.24 29.7915 1184.81 26.464 Q1182.41 23.1075 1178.18 23.1075 Q1173.96 23.1075 1171.53 26.464 Q1169.13 29.7915 1169.13 35.6653 Q1169.13 41.5391 1171.53 44.8956 Q1173.96 48.2231 1178.18 48.2231 Q1182.41 48.2231 1184.81 44.8956 Q1187.24 41.5391 1187.24 35.6653 Z" fill="#000000" fill-rule="nonzero" fill-opacity="1" /><path clip-path="url(#clip070)" d="M1214.15 23.1654 Q1209.87 23.1654 1207.38 26.5218 Q1204.89 29.8494 1204.89 35.6653 Q1204.89 41.4813 1207.35 44.8377 Q1209.84 48.1653 1214.15 48.1653 Q1218.4 48.1653 1220.89 44.8088 Q1223.38 41.4523 1223.38 35.6653 Q1223.38 29.9072 1220.89 26.5508 Q1218.4 23.1654 1214.15 23.1654 M1214.15 18.6515 Q1221.1 18.6515 1225.06 23.1654 Q1229.02 27.6792 1229.02 35.6653 Q1229.02 43.6225 1225.06 48.1653 Q1221.1 52.6791 1214.15 52.6791 Q1207.18 52.6791 1203.21 48.1653 Q1199.28 43.6225 1199.28 35.6653 Q1199.28 27.6792 1203.21 23.1654 Q1207.18 18.6515 1214.15 18.6515 Z" fill="#000000" fill-rule="nonzero" fill-opacity="1" /><path clip-path="url(#clip070)" d="M1258.51 20.3876 L1258.51 25.4223 Q1256.25 24.2649 1253.82 23.6862 Q1251.39 23.1075 1248.79 23.1075 Q1244.82 23.1075 1242.83 24.3228 Q1240.86 25.5381 1240.86 27.9686 Q1240.86 29.8204 1242.28 30.891 Q1243.69 31.9327 1247.98 32.8876 L1249.8 33.2926 Q1255.47 34.5079 1257.84 36.7359 Q1260.24 38.935 1260.24 42.8991 Q1260.24 47.4129 1256.66 50.046 Q1253.1 52.6791 1246.85 52.6791 Q1244.24 52.6791 1241.41 52.1583 Q1238.6 51.6664 1235.48 50.6537 L1235.48 45.156 Q1238.43 46.6896 1241.29 47.4708 Q1244.16 48.2231 1246.96 48.2231 Q1250.72 48.2231 1252.75 46.95 Q1254.78 45.6479 1254.78 43.3042 Q1254.78 41.134 1253.3 39.9766 Q1251.85 38.8192 1246.91 37.7486 L1245.05 37.3146 Q1240.11 36.273 1237.91 34.1318 Q1235.71 31.9616 1235.71 28.2001 Q1235.71 23.6283 1238.95 21.1399 Q1242.19 18.6515 1248.15 18.6515 Q1251.1 18.6515 1253.7 19.0855 Q1256.31 19.5196 1258.51 20.3876 Z" fill="#000000" fill-rule="nonzero" fill-opacity="1" /><path clip-path="url(#clip070)" d="M1268.72 19.4328 L1274.05 19.4328 L1274.05 51.84 L1268.72 51.84 L1268.72 19.4328 M1268.72 6.81709 L1274.05 6.81709 L1274.05 13.559 L1268.72 13.559 L1268.72 6.81709 Z" fill="#000000" fill-rule="nonzero" fill-opacity="1" /><path clip-path="url(#clip070)" d="M1290.45 10.2314 L1290.45 19.4328 L1301.42 19.4328 L1301.42 23.5705 L1290.45 23.5705 L1290.45 41.163 Q1290.45 45.1271 1291.52 46.2555 Q1292.62 47.384 1295.95 47.384 L1301.42 47.384 L1301.42 51.84 L1295.95 51.84 Q1289.79 51.84 1287.44 49.5541 Q1285.1 47.2393 1285.1 41.163 L1285.1 23.5705 L1281.19 23.5705 L1281.19 19.4328 L1285.1 19.4328 L1285.1 10.2314 L1290.45 10.2314 Z" fill="#000000" fill-rule="nonzero" fill-opacity="1" /><path clip-path="url(#clip070)" d="M1336.14 34.3054 L1336.14 36.9095 L1311.66 36.9095 Q1312.01 42.4072 1314.96 45.3007 Q1317.94 48.1653 1323.24 48.1653 Q1326.3 48.1653 1329.17 47.4129 Q1332.06 46.6606 1334.9 45.156 L1334.9 50.1907 Q1332.03 51.406 1329.02 52.0425 Q1326.01 52.6791 1322.92 52.6791 Q1315.16 52.6791 1310.62 48.1653 Q1306.11 43.6514 1306.11 35.9547 Q1306.11 27.9975 1310.39 23.339 Q1314.7 18.6515 1321.99 18.6515 Q1328.53 18.6515 1332.32 22.876 Q1336.14 27.0716 1336.14 34.3054 M1330.82 32.7429 Q1330.76 28.3737 1328.36 25.7695 Q1325.98 23.1654 1322.05 23.1654 Q1317.59 23.1654 1314.9 25.6827 Q1312.24 28.2001 1311.84 32.7718 L1330.82 32.7429 Z" fill="#000000" fill-rule="nonzero" fill-opacity="1" /><path clip-path="url(#clip070)" d="M1339.12 8.64 L1375.67 8.64 L1375.67 13.559 L1360.33 13.559 L1360.33 51.84 L1354.46 51.84 L1354.46 13.559 L1339.12 13.559 L1339.12 8.64 Z" fill="#000000" fill-rule="nonzero" fill-opacity="1" /><path clip-path="url(#clip070)" d="M1387.15 31.2093 L1387.15 47.0368 L1396.53 47.0368 Q1401.24 47.0368 1403.5 45.0981 Q1405.79 43.1306 1405.79 39.1086 Q1405.79 35.0577 1403.5 33.148 Q1401.24 31.2093 1396.53 31.2093 L1387.15 31.2093 M1387.15 13.4432 L1387.15 26.464 L1395.8 26.464 Q1400.09 26.464 1402.17 24.8726 Q1404.28 23.2522 1404.28 19.9536 Q1404.28 16.6839 1402.17 15.0636 Q1400.09 13.4432 1395.8 13.4432 L1387.15 13.4432 M1381.31 8.64 L1396.24 8.64 Q1402.92 8.64 1406.54 11.4178 Q1410.16 14.1955 1410.16 19.317 Q1410.16 23.2811 1408.3 25.6249 Q1406.45 27.9686 1402.86 28.5473 Q1407.18 29.4732 1409.55 32.4246 Q1411.95 35.347 1411.95 39.7452 Q1411.95 45.5322 1408.02 48.6861 Q1404.08 51.84 1396.82 51.84 L1381.31 51.84 L1381.31 8.64 Z" fill="#000000" fill-rule="nonzero" fill-opacity="1" /><path clip-path="url(#clip070)" d="M1436.4 14.3981 L1428.47 35.8968 L1444.36 35.8968 L1436.4 14.3981 M1433.1 8.64 L1439.73 8.64 L1456.19 51.84 L1450.12 51.84 L1446.18 40.7579 L1426.71 40.7579 L1422.77 51.84 L1416.61 51.84 L1433.1 8.64 Z" fill="#000000" fill-rule="nonzero" fill-opacity="1" /><path clip-path="url(#clip070)" d="M1461.43 6.87496 L1466.06 6.87496 Q1470.4 13.7036 1472.54 20.2429 Q1474.71 26.7823 1474.71 33.2348 Q1474.71 39.7162 1472.54 46.2845 Q1470.4 52.8527 1466.06 59.6525 L1461.43 59.6525 Q1465.28 53.0263 1467.16 46.487 Q1469.07 39.9188 1469.07 33.2348 Q1469.07 26.5508 1467.16 20.0404 Q1465.28 13.53 1461.43 6.87496 Z" fill="#000000" fill-rule="nonzero" fill-opacity="1" /><path clip-path="url(#clip070)" d="M1482.7 33.2348 L1498.29 33.2348 L1498.29 37.9801 L1482.7 37.9801 L1482.7 33.2348 Z" fill="#000000" fill-rule="nonzero" fill-opacity="1" /><path clip-path="url(#clip070)" d="M1512.04 10.2314 L1512.04 19.4328 L1523 19.4328 L1523 23.5705 L1512.04 23.5705 L1512.04 41.163 Q1512.04 45.1271 1513.11 46.2555 Q1514.21 47.384 1517.53 47.384 L1523 47.384 L1523 51.84 L1517.53 51.84 Q1511.37 51.84 1509.03 49.5541 Q1506.68 47.2393 1506.68 41.163 L1506.68 23.5705 L1502.78 23.5705 L1502.78 19.4328 L1506.68 19.4328 L1506.68 10.2314 L1512.04 10.2314 Z" fill="#000000" fill-rule="nonzero" fill-opacity="1" /><path clip-path="url(#clip070)" d="M1542.79 6.87496 Q1538.92 13.53 1537.04 20.0404 Q1535.16 26.5508 1535.16 33.2348 Q1535.16 39.9188 1537.04 46.487 Q1538.95 53.0263 1542.79 59.6525 L1538.17 59.6525 Q1533.82 52.8527 1531.65 46.2845 Q1529.51 39.7162 1529.51 33.2348 Q1529.51 26.7823 1531.65 20.2429 Q1533.8 13.7036 1538.17 6.87496 L1542.79 6.87496 Z" fill="#000000" fill-rule="nonzero" fill-opacity="1" /><path clip-path="url(#clip070)" d="M1550.43 33.2348 L1566.03 33.2348 L1566.03 37.9801 L1550.43 37.9801 L1550.43 33.2348 Z" fill="#000000" fill-rule="nonzero" fill-opacity="1" /><path clip-path="url(#clip070)" d="M1576.27 46.921 L1585.82 46.921 L1585.82 13.964 L1575.43 16.0474 L1575.43 10.7233 L1585.76 8.64 L1591.61 8.64 L1591.61 46.921 L1601.16 46.921 L1601.16 51.84 L1576.27 51.84 L1576.27 46.921 Z" fill="#000000" fill-rule="nonzero" fill-opacity="1" /><path clip-path="url(#clip070)" d="M1612.96 44.4905 L1619.07 44.4905 L1619.07 51.84 L1612.96 51.84 L1612.96 44.4905 Z" fill="#000000" fill-rule="nonzero" fill-opacity="1" /><path clip-path="url(#clip070)" d="M1644.3 12.4884 Q1639.78 12.4884 1637.5 16.9444 Q1635.24 21.3714 1635.24 30.2834 Q1635.24 39.1665 1637.5 43.6225 Q1639.78 48.0495 1644.3 48.0495 Q1648.84 48.0495 1651.1 43.6225 Q1653.38 39.1665 1653.38 30.2834 Q1653.38 21.3714 1651.1 16.9444 Q1648.84 12.4884 1644.3 12.4884 M1644.3 7.85875 Q1651.56 7.85875 1655.38 13.6168 Q1659.23 19.346 1659.23 30.2834 Q1659.23 41.1919 1655.38 46.95 Q1651.56 52.6791 1644.3 52.6791 Q1637.04 52.6791 1633.19 46.95 Q1629.37 41.1919 1629.37 30.2834 Q1629.37 19.346 1633.19 13.6168 Q1637.04 7.85875 1644.3 7.85875 Z" fill="#000000" fill-rule="nonzero" fill-opacity="1" /><path clip-path="url(#clip070)" d="M1667.91 6.87496 L1672.54 6.87496 Q1676.88 13.7036 1679.02 20.2429 Q1681.19 26.7823 1681.19 33.2348 Q1681.19 39.7162 1679.02 46.2845 Q1676.88 52.8527 1672.54 59.6525 L1667.91 59.6525 Q1671.76 53.0263 1673.64 46.487 Q1675.55 39.9188 1675.55 33.2348 Q1675.55 26.5508 1673.64 20.0404 Q1671.76 13.53 1667.91 6.87496 Z" fill="#000000" fill-rule="nonzero" fill-opacity="1" /><path clip-path="url(#clip070)" d="M1716.49 61.6779 L1716.49 65.8156 L1685.7 65.8156 L1685.7 61.6779 L1716.49 61.6779 Z" fill="#000000" fill-rule="nonzero" fill-opacity="1" /><path clip-path="url(#clip070)" d="M1721.73 8.64 L1749.04 8.64 L1749.04 13.559 L1727.57 13.559 L1727.57 26.3482 L1748.15 26.3482 L1748.15 31.2672 L1727.57 31.2672 L1727.57 46.921 L1749.56 46.921 L1749.56 51.84 L1721.73 51.84 L1721.73 8.64 Z" fill="#000000" fill-rule="nonzero" fill-opacity="1" /><path clip-path="url(#clip070)" d="M1765.02 31.2093 L1765.02 47.0368 L1774.39 47.0368 Q1779.11 47.0368 1781.36 45.0981 Q1783.65 43.1306 1783.65 39.1086 Q1783.65 35.0577 1781.36 33.148 Q1779.11 31.2093 1774.39 31.2093 L1765.02 31.2093 M1765.02 13.4432 L1765.02 26.464 L1773.67 26.464 Q1777.95 26.464 1780.03 24.8726 Q1782.15 23.2522 1782.15 19.9536 Q1782.15 16.6839 1780.03 15.0636 Q1777.95 13.4432 1773.67 13.4432 L1765.02 13.4432 M1759.17 8.64 L1774.1 8.64 Q1780.79 8.64 1784.4 11.4178 Q1788.02 14.1955 1788.02 19.317 Q1788.02 23.2811 1786.17 25.6249 Q1784.32 27.9686 1780.73 28.5473 Q1785.04 29.4732 1787.41 32.4246 Q1789.81 35.347 1789.81 39.7452 Q1789.81 45.5322 1785.88 48.6861 Q1781.94 51.84 1774.68 51.84 L1759.17 51.84 L1759.17 8.64 Z" fill="#000000" fill-rule="nonzero" fill-opacity="1" /><polyline clip-path="url(#clip072)" style="stroke:#009af9; stroke-linecap:round; stroke-linejoin:round; stroke-width:4; stroke-opacity:1; fill:none" points="210.454,1385.91 219.244,1385.82 228.035,1385.54 236.826,1385.09 245.617,1384.45 254.407,1383.64 263.198,1382.64 271.989,1381.46 280.779,1380.11 289.57,1378.57 298.361,1376.86 307.152,1374.96 315.942,1372.9 324.733,1370.65 333.524,1368.23 342.314,1365.64 351.105,1362.87 359.896,1359.93 368.687,1356.82 377.477,1353.55 386.268,1350.1 395.059,1346.49 403.849,1342.72 412.64,1338.78 421.431,1334.68 430.222,1330.42 439.012,1326.01 447.803,1321.44 456.594,1316.71 465.384,1311.84 474.175,1306.81 482.966,1301.64 491.757,1296.32 500.547,1290.87 509.338,1285.27 518.129,1279.53 526.919,1273.66 535.71,1267.66 544.501,1261.52 553.292,1255.26 562.082,1248.88 570.873,1242.37 579.664,1235.75 588.454,1229.01 597.245,1222.15 606.036,1215.19 614.827,1208.12 623.617,1200.95 632.408,1193.67 641.199,1186.3 649.989,1178.83 658.78,1171.28 667.571,1163.63 676.362,1155.9 685.152,1148.09 693.943,1140.21 702.734,1132.25 711.524,1124.22 720.315,1116.12 729.106,1107.96 737.897,1099.74 746.687,1091.46 755.478,1083.13 764.269,1074.75 773.059,1066.33 781.85,1057.87 790.641,1049.36 799.432,1040.83 808.222,1032.26 817.013,1023.67 825.804,1015.05 834.594,1006.41 843.385,997.764 852.176,989.102 860.967,980.433 869.757,971.76 878.548,963.086 887.339,954.417 896.129,945.755 904.92,937.105 913.711,928.469 922.502,919.853 931.292,911.26 940.083,902.693 948.874,894.156 957.664,885.654 966.455,877.189 975.246,868.765 984.036,860.387 992.827,852.058 1001.62,843.781 1010.41,835.56 1019.2,827.399 1027.99,819.302 1036.78,811.271 1045.57,803.311 1054.36,795.424 1063.15,787.615 1071.94,779.887 1080.73,772.243 1089.53,764.686 1093.92,768.43 1098.32,772.152 1102.71,775.85 1107.11,779.524 1111.5,783.173 1115.9,786.798 1120.29,790.398 1124.69,793.972 1129.08,797.52 1133.48,801.042 1137.87,804.537 1142.27,808.005 1146.66,811.446 1151.06,814.859 1155.46,818.244 1159.85,821.6 1164.25,824.927 1168.64,828.225 1173.04,831.493 1177.43,834.731 1181.83,837.939 1186.22,841.116 1190.62,844.262 1195.01,847.376 1199.41,850.459 1203.8,853.509 1208.2,856.527 1212.6,859.513 1216.99,862.465 1221.39,865.384 1225.78,868.269 1230.18,871.12 1234.57,873.936 1238.97,876.718 1243.36,879.465 1247.76,882.177 1252.15,884.853 1256.55,887.493 1260.94,890.097 1265.34,892.664 1269.73,895.195 1274.13,897.689 1278.53,900.145 1282.92,902.564 1287.32,904.945 1291.71,907.288 1296.11,909.593 1300.5,911.859 1304.9,914.086 1309.29,916.274 1313.69,918.423 1318.08,920.532 1322.48,922.602 1326.87,924.631 1331.27,926.62 1335.67,928.569 1340.06,930.477 1344.46,932.344 1348.85,934.17 1353.25,935.955 1357.64,937.698 1362.04,939.399 1366.43,941.059 1370.83,942.677 1375.22,944.252 1379.62,945.785 1384.01,947.275 1388.41,948.723 1392.8,950.128 1397.2,951.49 1401.6,952.808 1405.99,954.084 1410.39,955.315 1414.78,956.503 1419.18,957.648 1423.57,958.748 1427.97,959.805 1432.36,960.817 1436.76,961.786 1441.15,962.709 1445.55,963.589 1449.94,964.424 1454.34,965.214 1458.73,965.96 1463.13,966.661 1467.53,967.317 1471.92,967.928 1476.32,968.494 1480.71,969.015 1485.11,969.491 1489.5,969.922 1493.9,970.307 1498.29,970.647 1502.69,970.942 1507.08,971.192 1511.48,971.396 1515.87,971.555 1520.27,971.669 1524.67,971.737 1529.06,971.76 1536.67,971.964 1544.29,972.575 1551.9,973.589 1559.51,975 1567.13,976.797 1574.74,978.97 1582.35,981.504 1589.96,984.386 1597.58,987.598 1605.19,991.124 1612.8,994.946 1620.42,999.045 1628.03,1003.4 1635.64,1008 1643.26,1012.83 1650.87,1017.86 1658.48,1023.07 1666.09,1028.47 1673.71,1034.02 1681.32,1039.71 1688.93,1045.53 1696.55,1051.46 1704.16,1057.5 1711.77,1063.63 1719.39,1069.83 1727,1076.11 1734.61,1082.44 1742.22,1088.83 1749.84,1095.25 1757.45,1101.7 1765.06,1108.18 1772.68,1114.68 1780.29,1121.18 1787.9,1127.68 1795.52,1134.19 1803.13,1140.68 1810.74,1147.15 1818.35,1153.6 1825.97,1160.03 1833.58,1166.43 1841.19,1172.79 1848.81,1179.1 1856.42,1185.38 1864.03,1191.6 1871.64,1197.77 1879.26,1203.89 1886.87,1209.95 1894.48,1215.94 1902.1,1221.86 1909.71,1227.72 1917.32,1233.5 1924.94,1239.2 1932.55,1244.83 1940.16,1250.38 1947.77,1255.84 1955.39,1261.21 1963,1266.5 1970.61,1271.69 1978.23,1276.79 1985.84,1281.79 1993.45,1286.7 2001.07,1291.5 2008.68,1296.21 2016.29,1300.81 2023.9,1305.3 2031.52,1309.69 2039.13,1313.96 2046.74,1318.13 2054.36,1322.18 2061.97,1326.12 2069.58,1329.95 2077.2,1333.66 2084.81,1337.25 2092.42,1340.71 2100.03,1344.06 2107.65,1347.29 2115.26,1350.39 2122.87,1353.37 2130.49,1356.23 2138.1,1358.96 2145.71,1361.56 2153.33,1364.03 2160.94,1366.38 2168.55,1368.59 2176.16,1370.67 2183.78,1372.63 2191.39,1374.45 2199,1376.14 2206.62,1377.69 2214.23,1379.11 2221.84,1380.4 2229.45,1381.55 2237.07,1382.57 2244.68,1383.46 2252.29,1384.2 2259.91,1384.82 2267.52,1385.29 2275.13,1385.63 2282.75,1385.84 2290.36,1385.91 "/>
<polyline clip-path="url(#clip072)" style="stroke:#e26f46; stroke-linecap:round; stroke-linejoin:round; stroke-width:4; stroke-opacity:1; fill:none" points="210.454,143.465 219.244,143.556 228.035,143.829 236.826,144.283 245.617,144.918 254.407,145.734 263.198,146.731 271.989,147.908 280.779,149.265 289.57,150.801 298.361,152.515 307.152,154.408 315.942,156.477 324.733,158.721 333.524,161.141 342.314,163.735 351.105,166.502 359.896,169.44 368.687,172.548 377.477,175.826 386.268,179.27 395.059,182.881 403.849,186.656 412.64,190.594 421.431,194.693 430.222,198.951 439.012,203.366 447.803,207.936 456.594,212.661 465.384,217.536 474.175,222.56 482.966,227.732 491.757,233.048 500.547,238.507 509.338,244.105 518.129,249.841 526.919,255.712 535.71,261.716 544.501,267.849 553.292,274.109 562.082,280.494 570.873,287 579.664,293.625 588.454,300.366 597.245,307.219 606.036,314.183 614.827,321.253 623.617,328.427 632.408,335.701 641.199,343.073 649.989,350.539 658.78,358.096 667.571,365.74 676.362,373.468 685.152,381.277 693.943,389.164 702.734,397.124 711.524,405.155 720.315,413.252 729.106,421.413 737.897,429.634 746.687,437.911 755.478,446.24 764.269,454.618 773.059,463.042 781.85,471.506 790.641,480.009 799.432,488.546 808.222,497.113 817.013,505.706 825.804,514.322 834.594,522.958 843.385,531.608 852.176,540.27 860.967,548.939 869.757,557.612 878.548,566.286 887.339,574.955 896.129,583.617 904.92,592.267 913.711,600.903 922.502,609.519 931.292,618.112 940.083,626.679 948.874,635.216 957.664,643.718 966.455,652.183 975.246,660.607 984.036,668.985 992.827,677.314 1001.62,685.591 1010.41,693.812 1019.2,701.973 1027.99,710.07 1036.78,718.101 1045.57,726.061 1054.36,733.948 1063.15,741.757 1071.94,749.485 1080.73,757.129 1089.53,764.686 1093.92,760.942 1098.32,757.22 1102.71,753.522 1107.11,749.848 1111.5,746.199 1115.9,742.574 1120.29,738.974 1124.69,735.4 1129.08,731.852 1133.48,728.33 1137.87,724.835 1142.27,721.367 1146.66,717.926 1151.06,714.513 1155.46,711.128 1159.85,707.772 1164.25,704.445 1168.64,701.147 1173.04,697.879 1177.43,694.641 1181.83,691.433 1186.22,688.256 1190.62,685.11 1195.01,681.996 1199.41,678.913 1203.8,675.863 1208.2,672.845 1212.6,669.859 1216.99,666.907 1221.39,663.988 1225.78,661.103 1230.18,658.252 1234.57,655.436 1238.97,652.654 1243.36,649.907 1247.76,647.195 1252.15,644.519 1256.55,641.879 1260.94,639.275 1265.34,636.707 1269.73,634.177 1274.13,631.683 1278.53,629.227 1282.92,626.808 1287.32,624.427 1291.71,622.084 1296.11,619.779 1300.5,617.513 1304.9,615.286 1309.29,613.098 1313.69,610.949 1318.08,608.84 1322.48,606.77 1326.87,604.741 1331.27,602.752 1335.67,600.803 1340.06,598.895 1344.46,597.028 1348.85,595.202 1353.25,593.417 1357.64,591.674 1362.04,589.973 1366.43,588.313 1370.83,586.695 1375.22,585.12 1379.62,583.587 1384.01,582.097 1388.41,580.649 1392.8,579.244 1397.2,577.882 1401.6,576.564 1405.99,575.288 1410.39,574.057 1414.78,572.869 1419.18,571.724 1423.57,570.624 1427.97,569.567 1432.36,568.555 1436.76,567.586 1441.15,566.663 1445.55,565.783 1449.94,564.948 1454.34,564.158 1458.73,563.412 1463.13,562.711 1467.53,562.055 1471.92,561.444 1476.32,560.878 1480.71,560.357 1485.11,559.881 1489.5,559.45 1493.9,559.065 1498.29,558.725 1502.69,558.43 1507.08,558.18 1511.48,557.976 1515.87,557.817 1520.27,557.703 1524.67,557.635 1529.06,557.612 1536.67,557.408 1544.29,556.797 1551.9,555.783 1559.51,554.372 1567.13,552.575 1574.74,550.402 1582.35,547.868 1589.96,544.986 1597.58,541.774 1605.19,538.248 1612.8,534.426 1620.42,530.327 1628.03,525.969 1635.64,521.369 1643.26,516.545 1650.87,511.516 1658.48,506.297 1666.09,500.906 1673.71,495.357 1681.32,489.665 1688.93,483.845 1696.55,477.91 1704.16,471.872 1711.77,465.744 1719.39,459.537 1727,453.261 1734.61,446.927 1742.22,440.545 1749.84,434.122 1757.45,427.667 1765.06,421.189 1772.68,414.695 1780.29,408.193 1787.9,401.687 1795.52,395.187 1803.13,388.696 1810.74,382.221 1818.35,375.768 1825.97,369.341 1833.58,362.946 1841.19,356.586 1848.81,350.268 1856.42,343.994 1864.03,337.769 1871.64,331.597 1879.26,325.482 1886.87,319.427 1894.48,313.435 1902.1,307.51 1909.71,301.655 1917.32,295.874 1924.94,290.168 1932.55,284.542 1940.16,278.997 1947.77,273.536 1955.39,268.162 1963,262.877 1970.61,257.683 1978.23,252.583 1985.84,247.579 1993.45,242.674 2001.07,237.868 2008.68,233.164 2016.29,228.565 2023.9,224.071 2031.52,219.685 2039.13,215.407 2046.74,211.241 2054.36,207.187 2061.97,203.248 2069.58,199.423 2077.2,195.716 2084.81,192.127 2092.42,188.657 2100.03,185.308 2107.65,182.081 2115.26,178.977 2122.87,175.998 2130.49,173.143 2138.1,170.415 2145.71,167.814 2153.33,165.341 2160.94,162.997 2168.55,160.782 2176.16,158.699 2183.78,156.746 2191.39,154.925 2199,153.236 2206.62,151.681 2214.23,150.259 2221.84,148.971 2229.45,147.818 2237.07,146.799 2244.68,145.915 2252.29,145.167 2259.91,144.555 2267.52,144.078 2275.13,143.738 2282.75,143.533 2290.36,143.465 "/>
</svg>
