<?xml version="1.0" encoding="utf-8"?>
<svg xmlns="http://www.w3.org/2000/svg" xmlns:xlink="http://www.w3.org/1999/xlink" width="600" height="400" viewBox="0 0 2400 1600">
<defs>
  <clipPath id="clip670">
    <rect x="0" y="0" width="2400" height="1600"/>
  </clipPath>
</defs>
<path clip-path="url(#clip670)" d="M0 1600 L2400 1600 L2400 0 L0 0  Z" fill="#ffffff" fill-rule="evenodd" fill-opacity="1"/>
<defs>
  <clipPath id="clip671">
    <rect x="480" y="0" width="1681" height="1600"/>
  </clipPath>
</defs>
<path clip-path="url(#clip670)" d="M186.76 1486.45 L2352.76 1486.45 L2352.76 106.192 L186.76 106.192  Z" fill="#ffffff" fill-rule="evenodd" fill-opacity="1"/>
<defs>
  <clipPath id="clip672">
    <rect x="186" y="106" width="2167" height="1381"/>
  </clipPath>
</defs>
<polyline clip-path="url(#clip672)" style="stroke:#000000; stroke-linecap:round; stroke-linejoin:round; stroke-width:2; stroke-opacity:0.05; fill:none" points="207.194,1486.45 207.194,106.192 "/>
<polyline clip-path="url(#clip672)" style="stroke:#000000; stroke-linecap:round; stroke-linejoin:round; stroke-width:2; stroke-opacity:0.05; fill:none" points="248.062,1486.45 248.062,106.192 "/>
<polyline clip-path="url(#clip672)" style="stroke:#000000; stroke-linecap:round; stroke-linejoin:round; stroke-width:2; stroke-opacity:0.05; fill:none" points="288.93,1486.45 288.93,106.192 "/>
<polyline clip-path="url(#clip672)" style="stroke:#000000; stroke-linecap:round; stroke-linejoin:round; stroke-width:2; stroke-opacity:0.05; fill:none" points="329.798,1486.45 329.798,106.192 "/>
<polyline clip-path="url(#clip672)" style="stroke:#000000; stroke-linecap:round; stroke-linejoin:round; stroke-width:2; stroke-opacity:0.05; fill:none" points="370.665,1486.45 370.665,106.192 "/>
<polyline clip-path="url(#clip672)" style="stroke:#000000; stroke-linecap:round; stroke-linejoin:round; stroke-width:2; stroke-opacity:0.05; fill:none" points="411.533,1486.45 411.533,106.192 "/>
<polyline clip-path="url(#clip672)" style="stroke:#000000; stroke-linecap:round; stroke-linejoin:round; stroke-width:2; stroke-opacity:0.05; fill:none" points="493.269,1486.45 493.269,106.192 "/>
<polyline clip-path="url(#clip672)" style="stroke:#000000; stroke-linecap:round; stroke-linejoin:round; stroke-width:2; stroke-opacity:0.05; fill:none" points="534.137,1486.45 534.137,106.192 "/>
<polyline clip-path="url(#clip672)" style="stroke:#000000; stroke-linecap:round; stroke-linejoin:round; stroke-width:2; stroke-opacity:0.05; fill:none" points="575.005,1486.45 575.005,106.192 "/>
<polyline clip-path="url(#clip672)" style="stroke:#000000; stroke-linecap:round; stroke-linejoin:round; stroke-width:2; stroke-opacity:0.05; fill:none" points="615.872,1486.45 615.872,106.192 "/>
<polyline clip-path="url(#clip672)" style="stroke:#000000; stroke-linecap:round; stroke-linejoin:round; stroke-width:2; stroke-opacity:0.05; fill:none" points="656.74,1486.45 656.74,106.192 "/>
<polyline clip-path="url(#clip672)" style="stroke:#000000; stroke-linecap:round; stroke-linejoin:round; stroke-width:2; stroke-opacity:0.05; fill:none" points="697.608,1486.45 697.608,106.192 "/>
<polyline clip-path="url(#clip672)" style="stroke:#000000; stroke-linecap:round; stroke-linejoin:round; stroke-width:2; stroke-opacity:0.05; fill:none" points="738.476,1486.45 738.476,106.192 "/>
<polyline clip-path="url(#clip672)" style="stroke:#000000; stroke-linecap:round; stroke-linejoin:round; stroke-width:2; stroke-opacity:0.05; fill:none" points="779.344,1486.45 779.344,106.192 "/>
<polyline clip-path="url(#clip672)" style="stroke:#000000; stroke-linecap:round; stroke-linejoin:round; stroke-width:2; stroke-opacity:0.05; fill:none" points="820.212,1486.45 820.212,106.192 "/>
<polyline clip-path="url(#clip672)" style="stroke:#000000; stroke-linecap:round; stroke-linejoin:round; stroke-width:2; stroke-opacity:0.05; fill:none" points="901.947,1486.45 901.947,106.192 "/>
<polyline clip-path="url(#clip672)" style="stroke:#000000; stroke-linecap:round; stroke-linejoin:round; stroke-width:2; stroke-opacity:0.05; fill:none" points="942.815,1486.45 942.815,106.192 "/>
<polyline clip-path="url(#clip672)" style="stroke:#000000; stroke-linecap:round; stroke-linejoin:round; stroke-width:2; stroke-opacity:0.05; fill:none" points="983.683,1486.45 983.683,106.192 "/>
<polyline clip-path="url(#clip672)" style="stroke:#000000; stroke-linecap:round; stroke-linejoin:round; stroke-width:2; stroke-opacity:0.05; fill:none" points="1024.55,1486.45 1024.55,106.192 "/>
<polyline clip-path="url(#clip672)" style="stroke:#000000; stroke-linecap:round; stroke-linejoin:round; stroke-width:2; stroke-opacity:0.05; fill:none" points="1065.42,1486.45 1065.42,106.192 "/>
<polyline clip-path="url(#clip672)" style="stroke:#000000; stroke-linecap:round; stroke-linejoin:round; stroke-width:2; stroke-opacity:0.05; fill:none" points="1106.29,1486.45 1106.29,106.192 "/>
<polyline clip-path="url(#clip672)" style="stroke:#000000; stroke-linecap:round; stroke-linejoin:round; stroke-width:2; stroke-opacity:0.05; fill:none" points="1147.15,1486.45 1147.15,106.192 "/>
<polyline clip-path="url(#clip672)" style="stroke:#000000; stroke-linecap:round; stroke-linejoin:round; stroke-width:2; stroke-opacity:0.05; fill:none" points="1188.02,1486.45 1188.02,106.192 "/>
<polyline clip-path="url(#clip672)" style="stroke:#000000; stroke-linecap:round; stroke-linejoin:round; stroke-width:2; stroke-opacity:0.05; fill:none" points="1228.89,1486.45 1228.89,106.192 "/>
<polyline clip-path="url(#clip672)" style="stroke:#000000; stroke-linecap:round; stroke-linejoin:round; stroke-width:2; stroke-opacity:0.05; fill:none" points="1310.63,1486.45 1310.63,106.192 "/>
<polyline clip-path="url(#clip672)" style="stroke:#000000; stroke-linecap:round; stroke-linejoin:round; stroke-width:2; stroke-opacity:0.05; fill:none" points="1351.49,1486.45 1351.49,106.192 "/>
<polyline clip-path="url(#clip672)" style="stroke:#000000; stroke-linecap:round; stroke-linejoin:round; stroke-width:2; stroke-opacity:0.05; fill:none" points="1392.36,1486.45 1392.36,106.192 "/>
<polyline clip-path="url(#clip672)" style="stroke:#000000; stroke-linecap:round; stroke-linejoin:round; stroke-width:2; stroke-opacity:0.05; fill:none" points="1433.23,1486.45 1433.23,106.192 "/>
<polyline clip-path="url(#clip672)" style="stroke:#000000; stroke-linecap:round; stroke-linejoin:round; stroke-width:2; stroke-opacity:0.05; fill:none" points="1474.1,1486.45 1474.1,106.192 "/>
<polyline clip-path="url(#clip672)" style="stroke:#000000; stroke-linecap:round; stroke-linejoin:round; stroke-width:2; stroke-opacity:0.05; fill:none" points="1514.97,1486.45 1514.97,106.192 "/>
<polyline clip-path="url(#clip672)" style="stroke:#000000; stroke-linecap:round; stroke-linejoin:round; stroke-width:2; stroke-opacity:0.05; fill:none" points="1555.83,1486.45 1555.83,106.192 "/>
<polyline clip-path="url(#clip672)" style="stroke:#000000; stroke-linecap:round; stroke-linejoin:round; stroke-width:2; stroke-opacity:0.05; fill:none" points="1596.7,1486.45 1596.7,106.192 "/>
<polyline clip-path="url(#clip672)" style="stroke:#000000; stroke-linecap:round; stroke-linejoin:round; stroke-width:2; stroke-opacity:0.05; fill:none" points="1637.57,1486.45 1637.57,106.192 "/>
<polyline clip-path="url(#clip672)" style="stroke:#000000; stroke-linecap:round; stroke-linejoin:round; stroke-width:2; stroke-opacity:0.05; fill:none" points="1719.3,1486.45 1719.3,106.192 "/>
<polyline clip-path="url(#clip672)" style="stroke:#000000; stroke-linecap:round; stroke-linejoin:round; stroke-width:2; stroke-opacity:0.05; fill:none" points="1760.17,1486.45 1760.17,106.192 "/>
<polyline clip-path="url(#clip672)" style="stroke:#000000; stroke-linecap:round; stroke-linejoin:round; stroke-width:2; stroke-opacity:0.05; fill:none" points="1801.04,1486.45 1801.04,106.192 "/>
<polyline clip-path="url(#clip672)" style="stroke:#000000; stroke-linecap:round; stroke-linejoin:round; stroke-width:2; stroke-opacity:0.05; fill:none" points="1841.91,1486.45 1841.91,106.192 "/>
<polyline clip-path="url(#clip672)" style="stroke:#000000; stroke-linecap:round; stroke-linejoin:round; stroke-width:2; stroke-opacity:0.05; fill:none" points="1882.78,1486.45 1882.78,106.192 "/>
<polyline clip-path="url(#clip672)" style="stroke:#000000; stroke-linecap:round; stroke-linejoin:round; stroke-width:2; stroke-opacity:0.05; fill:none" points="1923.64,1486.45 1923.64,106.192 "/>
<polyline clip-path="url(#clip672)" style="stroke:#000000; stroke-linecap:round; stroke-linejoin:round; stroke-width:2; stroke-opacity:0.05; fill:none" points="1964.51,1486.45 1964.51,106.192 "/>
<polyline clip-path="url(#clip672)" style="stroke:#000000; stroke-linecap:round; stroke-linejoin:round; stroke-width:2; stroke-opacity:0.05; fill:none" points="2005.38,1486.45 2005.38,106.192 "/>
<polyline clip-path="url(#clip672)" style="stroke:#000000; stroke-linecap:round; stroke-linejoin:round; stroke-width:2; stroke-opacity:0.05; fill:none" points="2046.25,1486.45 2046.25,106.192 "/>
<polyline clip-path="url(#clip672)" style="stroke:#000000; stroke-linecap:round; stroke-linejoin:round; stroke-width:2; stroke-opacity:0.05; fill:none" points="2127.98,1486.45 2127.98,106.192 "/>
<polyline clip-path="url(#clip672)" style="stroke:#000000; stroke-linecap:round; stroke-linejoin:round; stroke-width:2; stroke-opacity:0.05; fill:none" points="2168.85,1486.45 2168.85,106.192 "/>
<polyline clip-path="url(#clip672)" style="stroke:#000000; stroke-linecap:round; stroke-linejoin:round; stroke-width:2; stroke-opacity:0.05; fill:none" points="2209.72,1486.45 2209.72,106.192 "/>
<polyline clip-path="url(#clip672)" style="stroke:#000000; stroke-linecap:round; stroke-linejoin:round; stroke-width:2; stroke-opacity:0.05; fill:none" points="2250.59,1486.45 2250.59,106.192 "/>
<polyline clip-path="url(#clip672)" style="stroke:#000000; stroke-linecap:round; stroke-linejoin:round; stroke-width:2; stroke-opacity:0.05; fill:none" points="2291.45,1486.45 2291.45,106.192 "/>
<polyline clip-path="url(#clip672)" style="stroke:#000000; stroke-linecap:round; stroke-linejoin:round; stroke-width:2; stroke-opacity:0.05; fill:none" points="2332.32,1486.45 2332.32,106.192 "/>
<polyline clip-path="url(#clip672)" style="stroke:#000000; stroke-linecap:round; stroke-linejoin:round; stroke-width:2; stroke-opacity:0.05; fill:none" points="186.76,1480.47 2352.76,1480.47 "/>
<polyline clip-path="url(#clip672)" style="stroke:#000000; stroke-linecap:round; stroke-linejoin:round; stroke-width:2; stroke-opacity:0.05; fill:none" points="186.76,1414.3 2352.76,1414.3 "/>
<polyline clip-path="url(#clip672)" style="stroke:#000000; stroke-linecap:round; stroke-linejoin:round; stroke-width:2; stroke-opacity:0.05; fill:none" points="186.76,1381.22 2352.76,1381.22 "/>
<polyline clip-path="url(#clip672)" style="stroke:#000000; stroke-linecap:round; stroke-linejoin:round; stroke-width:2; stroke-opacity:0.05; fill:none" points="186.76,1348.14 2352.76,1348.14 "/>
<polyline clip-path="url(#clip672)" style="stroke:#000000; stroke-linecap:round; stroke-linejoin:round; stroke-width:2; stroke-opacity:0.05; fill:none" points="186.76,1315.05 2352.76,1315.05 "/>
<polyline clip-path="url(#clip672)" style="stroke:#000000; stroke-linecap:round; stroke-linejoin:round; stroke-width:2; stroke-opacity:0.05; fill:none" points="186.76,1281.97 2352.76,1281.97 "/>
<polyline clip-path="url(#clip672)" style="stroke:#000000; stroke-linecap:round; stroke-linejoin:round; stroke-width:2; stroke-opacity:0.05; fill:none" points="186.76,1248.89 2352.76,1248.89 "/>
<polyline clip-path="url(#clip672)" style="stroke:#000000; stroke-linecap:round; stroke-linejoin:round; stroke-width:2; stroke-opacity:0.05; fill:none" points="186.76,1215.8 2352.76,1215.8 "/>
<polyline clip-path="url(#clip672)" style="stroke:#000000; stroke-linecap:round; stroke-linejoin:round; stroke-width:2; stroke-opacity:0.05; fill:none" points="186.76,1182.72 2352.76,1182.72 "/>
<polyline clip-path="url(#clip672)" style="stroke:#000000; stroke-linecap:round; stroke-linejoin:round; stroke-width:2; stroke-opacity:0.05; fill:none" points="186.76,1149.64 2352.76,1149.64 "/>
<polyline clip-path="url(#clip672)" style="stroke:#000000; stroke-linecap:round; stroke-linejoin:round; stroke-width:2; stroke-opacity:0.05; fill:none" points="186.76,1083.47 2352.76,1083.47 "/>
<polyline clip-path="url(#clip672)" style="stroke:#000000; stroke-linecap:round; stroke-linejoin:round; stroke-width:2; stroke-opacity:0.05; fill:none" points="186.76,1050.39 2352.76,1050.39 "/>
<polyline clip-path="url(#clip672)" style="stroke:#000000; stroke-linecap:round; stroke-linejoin:round; stroke-width:2; stroke-opacity:0.05; fill:none" points="186.76,1017.31 2352.76,1017.31 "/>
<polyline clip-path="url(#clip672)" style="stroke:#000000; stroke-linecap:round; stroke-linejoin:round; stroke-width:2; stroke-opacity:0.05; fill:none" points="186.76,984.225 2352.76,984.225 "/>
<polyline clip-path="url(#clip672)" style="stroke:#000000; stroke-linecap:round; stroke-linejoin:round; stroke-width:2; stroke-opacity:0.05; fill:none" points="186.76,951.142 2352.76,951.142 "/>
<polyline clip-path="url(#clip672)" style="stroke:#000000; stroke-linecap:round; stroke-linejoin:round; stroke-width:2; stroke-opacity:0.05; fill:none" points="186.76,918.059 2352.76,918.059 "/>
<polyline clip-path="url(#clip672)" style="stroke:#000000; stroke-linecap:round; stroke-linejoin:round; stroke-width:2; stroke-opacity:0.05; fill:none" points="186.76,884.977 2352.76,884.977 "/>
<polyline clip-path="url(#clip672)" style="stroke:#000000; stroke-linecap:round; stroke-linejoin:round; stroke-width:2; stroke-opacity:0.05; fill:none" points="186.76,851.894 2352.76,851.894 "/>
<polyline clip-path="url(#clip672)" style="stroke:#000000; stroke-linecap:round; stroke-linejoin:round; stroke-width:2; stroke-opacity:0.05; fill:none" points="186.76,818.811 2352.76,818.811 "/>
<polyline clip-path="url(#clip672)" style="stroke:#000000; stroke-linecap:round; stroke-linejoin:round; stroke-width:2; stroke-opacity:0.05; fill:none" points="186.76,752.646 2352.76,752.646 "/>
<polyline clip-path="url(#clip672)" style="stroke:#000000; stroke-linecap:round; stroke-linejoin:round; stroke-width:2; stroke-opacity:0.05; fill:none" points="186.76,719.563 2352.76,719.563 "/>
<polyline clip-path="url(#clip672)" style="stroke:#000000; stroke-linecap:round; stroke-linejoin:round; stroke-width:2; stroke-opacity:0.05; fill:none" points="186.76,686.48 2352.76,686.48 "/>
<polyline clip-path="url(#clip672)" style="stroke:#000000; stroke-linecap:round; stroke-linejoin:round; stroke-width:2; stroke-opacity:0.05; fill:none" points="186.76,653.397 2352.76,653.397 "/>
<polyline clip-path="url(#clip672)" style="stroke:#000000; stroke-linecap:round; stroke-linejoin:round; stroke-width:2; stroke-opacity:0.05; fill:none" points="186.76,620.314 2352.76,620.314 "/>
<polyline clip-path="url(#clip672)" style="stroke:#000000; stroke-linecap:round; stroke-linejoin:round; stroke-width:2; stroke-opacity:0.05; fill:none" points="186.76,587.232 2352.76,587.232 "/>
<polyline clip-path="url(#clip672)" style="stroke:#000000; stroke-linecap:round; stroke-linejoin:round; stroke-width:2; stroke-opacity:0.05; fill:none" points="186.76,554.149 2352.76,554.149 "/>
<polyline clip-path="url(#clip672)" style="stroke:#000000; stroke-linecap:round; stroke-linejoin:round; stroke-width:2; stroke-opacity:0.05; fill:none" points="186.76,521.066 2352.76,521.066 "/>
<polyline clip-path="url(#clip672)" style="stroke:#000000; stroke-linecap:round; stroke-linejoin:round; stroke-width:2; stroke-opacity:0.05; fill:none" points="186.76,487.983 2352.76,487.983 "/>
<polyline clip-path="url(#clip672)" style="stroke:#000000; stroke-linecap:round; stroke-linejoin:round; stroke-width:2; stroke-opacity:0.05; fill:none" points="186.76,421.818 2352.76,421.818 "/>
<polyline clip-path="url(#clip672)" style="stroke:#000000; stroke-linecap:round; stroke-linejoin:round; stroke-width:2; stroke-opacity:0.05; fill:none" points="186.76,388.735 2352.76,388.735 "/>
<polyline clip-path="url(#clip672)" style="stroke:#000000; stroke-linecap:round; stroke-linejoin:round; stroke-width:2; stroke-opacity:0.05; fill:none" points="186.76,355.652 2352.76,355.652 "/>
<polyline clip-path="url(#clip672)" style="stroke:#000000; stroke-linecap:round; stroke-linejoin:round; stroke-width:2; stroke-opacity:0.05; fill:none" points="186.76,322.569 2352.76,322.569 "/>
<polyline clip-path="url(#clip672)" style="stroke:#000000; stroke-linecap:round; stroke-linejoin:round; stroke-width:2; stroke-opacity:0.05; fill:none" points="186.76,289.487 2352.76,289.487 "/>
<polyline clip-path="url(#clip672)" style="stroke:#000000; stroke-linecap:round; stroke-linejoin:round; stroke-width:2; stroke-opacity:0.05; fill:none" points="186.76,256.404 2352.76,256.404 "/>
<polyline clip-path="url(#clip672)" style="stroke:#000000; stroke-linecap:round; stroke-linejoin:round; stroke-width:2; stroke-opacity:0.05; fill:none" points="186.76,223.321 2352.76,223.321 "/>
<polyline clip-path="url(#clip672)" style="stroke:#000000; stroke-linecap:round; stroke-linejoin:round; stroke-width:2; stroke-opacity:0.05; fill:none" points="186.76,190.238 2352.76,190.238 "/>
<polyline clip-path="url(#clip672)" style="stroke:#000000; stroke-linecap:round; stroke-linejoin:round; stroke-width:2; stroke-opacity:0.05; fill:none" points="186.76,157.155 2352.76,157.155 "/>
<polyline clip-path="url(#clip672)" style="stroke:#000000; stroke-linecap:round; stroke-linejoin:round; stroke-width:2; stroke-opacity:0.1; fill:none" points="452.401,1486.45 452.401,106.192 "/>
<polyline clip-path="url(#clip672)" style="stroke:#000000; stroke-linecap:round; stroke-linejoin:round; stroke-width:2; stroke-opacity:0.1; fill:none" points="861.08,1486.45 861.08,106.192 "/>
<polyline clip-path="url(#clip672)" style="stroke:#000000; stroke-linecap:round; stroke-linejoin:round; stroke-width:2; stroke-opacity:0.1; fill:none" points="1269.76,1486.45 1269.76,106.192 "/>
<polyline clip-path="url(#clip672)" style="stroke:#000000; stroke-linecap:round; stroke-linejoin:round; stroke-width:2; stroke-opacity:0.1; fill:none" points="1678.44,1486.45 1678.44,106.192 "/>
<polyline clip-path="url(#clip672)" style="stroke:#000000; stroke-linecap:round; stroke-linejoin:round; stroke-width:2; stroke-opacity:0.1; fill:none" points="2087.11,1486.45 2087.11,106.192 "/>
<polyline clip-path="url(#clip672)" style="stroke:#000000; stroke-linecap:round; stroke-linejoin:round; stroke-width:2; stroke-opacity:0.1; fill:none" points="186.76,1447.38 2352.76,1447.38 "/>
<polyline clip-path="url(#clip672)" style="stroke:#000000; stroke-linecap:round; stroke-linejoin:round; stroke-width:2; stroke-opacity:0.1; fill:none" points="186.76,1116.56 2352.76,1116.56 "/>
<polyline clip-path="url(#clip672)" style="stroke:#000000; stroke-linecap:round; stroke-linejoin:round; stroke-width:2; stroke-opacity:0.1; fill:none" points="186.76,785.728 2352.76,785.728 "/>
<polyline clip-path="url(#clip672)" style="stroke:#000000; stroke-linecap:round; stroke-linejoin:round; stroke-width:2; stroke-opacity:0.1; fill:none" points="186.76,454.9 2352.76,454.9 "/>
<polyline clip-path="url(#clip672)" style="stroke:#000000; stroke-linecap:round; stroke-linejoin:round; stroke-width:2; stroke-opacity:0.1; fill:none" points="186.76,124.073 2352.76,124.073 "/>
<polyline clip-path="url(#clip670)" style="stroke:#000000; stroke-linecap:round; stroke-linejoin:round; stroke-width:4; stroke-opacity:1; fill:none" points="186.76,1486.45 2352.76,1486.45 "/>
<polyline clip-path="url(#clip670)" style="stroke:#000000; stroke-linecap:round; stroke-linejoin:round; stroke-width:4; stroke-opacity:1; fill:none" points="452.401,1486.45 452.401,1467.55 "/>
<polyline clip-path="url(#clip670)" style="stroke:#000000; stroke-linecap:round; stroke-linejoin:round; stroke-width:4; stroke-opacity:1; fill:none" points="861.08,1486.45 861.08,1467.55 "/>
<polyline clip-path="url(#clip670)" style="stroke:#000000; stroke-linecap:round; stroke-linejoin:round; stroke-width:4; stroke-opacity:1; fill:none" points="1269.76,1486.45 1269.76,1467.55 "/>
<polyline clip-path="url(#clip670)" style="stroke:#000000; stroke-linecap:round; stroke-linejoin:round; stroke-width:4; stroke-opacity:1; fill:none" points="1678.44,1486.45 1678.44,1467.55 "/>
<polyline clip-path="url(#clip670)" style="stroke:#000000; stroke-linecap:round; stroke-linejoin:round; stroke-width:4; stroke-opacity:1; fill:none" points="2087.11,1486.45 2087.11,1467.55 "/>
<polyline clip-path="url(#clip670)" style="stroke:#000000; stroke-linecap:round; stroke-linejoin:round; stroke-width:4; stroke-opacity:1; fill:none" points="207.194,1486.45 207.194,1477 "/>
<polyline clip-path="url(#clip670)" style="stroke:#000000; stroke-linecap:round; stroke-linejoin:round; stroke-width:4; stroke-opacity:1; fill:none" points="248.062,1486.45 248.062,1477 "/>
<polyline clip-path="url(#clip670)" style="stroke:#000000; stroke-linecap:round; stroke-linejoin:round; stroke-width:4; stroke-opacity:1; fill:none" points="288.93,1486.45 288.93,1477 "/>
<polyline clip-path="url(#clip670)" style="stroke:#000000; stroke-linecap:round; stroke-linejoin:round; stroke-width:4; stroke-opacity:1; fill:none" points="329.798,1486.45 329.798,1477 "/>
<polyline clip-path="url(#clip670)" style="stroke:#000000; stroke-linecap:round; stroke-linejoin:round; stroke-width:4; stroke-opacity:1; fill:none" points="370.665,1486.45 370.665,1477 "/>
<polyline clip-path="url(#clip670)" style="stroke:#000000; stroke-linecap:round; stroke-linejoin:round; stroke-width:4; stroke-opacity:1; fill:none" points="411.533,1486.45 411.533,1477 "/>
<polyline clip-path="url(#clip670)" style="stroke:#000000; stroke-linecap:round; stroke-linejoin:round; stroke-width:4; stroke-opacity:1; fill:none" points="493.269,1486.45 493.269,1477 "/>
<polyline clip-path="url(#clip670)" style="stroke:#000000; stroke-linecap:round; stroke-linejoin:round; stroke-width:4; stroke-opacity:1; fill:none" points="534.137,1486.45 534.137,1477 "/>
<polyline clip-path="url(#clip670)" style="stroke:#000000; stroke-linecap:round; stroke-linejoin:round; stroke-width:4; stroke-opacity:1; fill:none" points="575.005,1486.45 575.005,1477 "/>
<polyline clip-path="url(#clip670)" style="stroke:#000000; stroke-linecap:round; stroke-linejoin:round; stroke-width:4; stroke-opacity:1; fill:none" points="615.872,1486.45 615.872,1477 "/>
<polyline clip-path="url(#clip670)" style="stroke:#000000; stroke-linecap:round; stroke-linejoin:round; stroke-width:4; stroke-opacity:1; fill:none" points="656.74,1486.45 656.74,1477 "/>
<polyline clip-path="url(#clip670)" style="stroke:#000000; stroke-linecap:round; stroke-linejoin:round; stroke-width:4; stroke-opacity:1; fill:none" points="697.608,1486.45 697.608,1477 "/>
<polyline clip-path="url(#clip670)" style="stroke:#000000; stroke-linecap:round; stroke-linejoin:round; stroke-width:4; stroke-opacity:1; fill:none" points="738.476,1486.45 738.476,1477 "/>
<polyline clip-path="url(#clip670)" style="stroke:#000000; stroke-linecap:round; stroke-linejoin:round; stroke-width:4; stroke-opacity:1; fill:none" points="779.344,1486.45 779.344,1477 "/>
<polyline clip-path="url(#clip670)" style="stroke:#000000; stroke-linecap:round; stroke-linejoin:round; stroke-width:4; stroke-opacity:1; fill:none" points="820.212,1486.45 820.212,1477 "/>
<polyline clip-path="url(#clip670)" style="stroke:#000000; stroke-linecap:round; stroke-linejoin:round; stroke-width:4; stroke-opacity:1; fill:none" points="901.947,1486.45 901.947,1477 "/>
<polyline clip-path="url(#clip670)" style="stroke:#000000; stroke-linecap:round; stroke-linejoin:round; stroke-width:4; stroke-opacity:1; fill:none" points="942.815,1486.45 942.815,1477 "/>
<polyline clip-path="url(#clip670)" style="stroke:#000000; stroke-linecap:round; stroke-linejoin:round; stroke-width:4; stroke-opacity:1; fill:none" points="983.683,1486.45 983.683,1477 "/>
<polyline clip-path="url(#clip670)" style="stroke:#000000; stroke-linecap:round; stroke-linejoin:round; stroke-width:4; stroke-opacity:1; fill:none" points="1024.55,1486.45 1024.55,1477 "/>
<polyline clip-path="url(#clip670)" style="stroke:#000000; stroke-linecap:round; stroke-linejoin:round; stroke-width:4; stroke-opacity:1; fill:none" points="1065.42,1486.45 1065.42,1477 "/>
<polyline clip-path="url(#clip670)" style="stroke:#000000; stroke-linecap:round; stroke-linejoin:round; stroke-width:4; stroke-opacity:1; fill:none" points="1106.29,1486.45 1106.29,1477 "/>
<polyline clip-path="url(#clip670)" style="stroke:#000000; stroke-linecap:round; stroke-linejoin:round; stroke-width:4; stroke-opacity:1; fill:none" points="1147.15,1486.45 1147.15,1477 "/>
<polyline clip-path="url(#clip670)" style="stroke:#000000; stroke-linecap:round; stroke-linejoin:round; stroke-width:4; stroke-opacity:1; fill:none" points="1188.02,1486.45 1188.02,1477 "/>
<polyline clip-path="url(#clip670)" style="stroke:#000000; stroke-linecap:round; stroke-linejoin:round; stroke-width:4; stroke-opacity:1; fill:none" points="1228.89,1486.45 1228.89,1477 "/>
<polyline clip-path="url(#clip670)" style="stroke:#000000; stroke-linecap:round; stroke-linejoin:round; stroke-width:4; stroke-opacity:1; fill:none" points="1310.63,1486.45 1310.63,1477 "/>
<polyline clip-path="url(#clip670)" style="stroke:#000000; stroke-linecap:round; stroke-linejoin:round; stroke-width:4; stroke-opacity:1; fill:none" points="1351.49,1486.45 1351.49,1477 "/>
<polyline clip-path="url(#clip670)" style="stroke:#000000; stroke-linecap:round; stroke-linejoin:round; stroke-width:4; stroke-opacity:1; fill:none" points="1392.36,1486.45 1392.36,1477 "/>
<polyline clip-path="url(#clip670)" style="stroke:#000000; stroke-linecap:round; stroke-linejoin:round; stroke-width:4; stroke-opacity:1; fill:none" points="1433.23,1486.45 1433.23,1477 "/>
<polyline clip-path="url(#clip670)" style="stroke:#000000; stroke-linecap:round; stroke-linejoin:round; stroke-width:4; stroke-opacity:1; fill:none" points="1474.1,1486.45 1474.1,1477 "/>
<polyline clip-path="url(#clip670)" style="stroke:#000000; stroke-linecap:round; stroke-linejoin:round; stroke-width:4; stroke-opacity:1; fill:none" points="1514.97,1486.45 1514.97,1477 "/>
<polyline clip-path="url(#clip670)" style="stroke:#000000; stroke-linecap:round; stroke-linejoin:round; stroke-width:4; stroke-opacity:1; fill:none" points="1555.83,1486.45 1555.83,1477 "/>
<polyline clip-path="url(#clip670)" style="stroke:#000000; stroke-linecap:round; stroke-linejoin:round; stroke-width:4; stroke-opacity:1; fill:none" points="1596.7,1486.45 1596.7,1477 "/>
<polyline clip-path="url(#clip670)" style="stroke:#000000; stroke-linecap:round; stroke-linejoin:round; stroke-width:4; stroke-opacity:1; fill:none" points="1637.57,1486.45 1637.57,1477 "/>
<polyline clip-path="url(#clip670)" style="stroke:#000000; stroke-linecap:round; stroke-linejoin:round; stroke-width:4; stroke-opacity:1; fill:none" points="1719.3,1486.45 1719.3,1477 "/>
<polyline clip-path="url(#clip670)" style="stroke:#000000; stroke-linecap:round; stroke-linejoin:round; stroke-width:4; stroke-opacity:1; fill:none" points="1760.17,1486.45 1760.17,1477 "/>
<polyline clip-path="url(#clip670)" style="stroke:#000000; stroke-linecap:round; stroke-linejoin:round; stroke-width:4; stroke-opacity:1; fill:none" points="1801.04,1486.45 1801.04,1477 "/>
<polyline clip-path="url(#clip670)" style="stroke:#000000; stroke-linecap:round; stroke-linejoin:round; stroke-width:4; stroke-opacity:1; fill:none" points="1841.91,1486.45 1841.91,1477 "/>
<polyline clip-path="url(#clip670)" style="stroke:#000000; stroke-linecap:round; stroke-linejoin:round; stroke-width:4; stroke-opacity:1; fill:none" points="1882.78,1486.45 1882.78,1477 "/>
<polyline clip-path="url(#clip670)" style="stroke:#000000; stroke-linecap:round; stroke-linejoin:round; stroke-width:4; stroke-opacity:1; fill:none" points="1923.64,1486.45 1923.64,1477 "/>
<polyline clip-path="url(#clip670)" style="stroke:#000000; stroke-linecap:round; stroke-linejoin:round; stroke-width:4; stroke-opacity:1; fill:none" points="1964.51,1486.45 1964.51,1477 "/>
<polyline clip-path="url(#clip670)" style="stroke:#000000; stroke-linecap:round; stroke-linejoin:round; stroke-width:4; stroke-opacity:1; fill:none" points="2005.38,1486.45 2005.38,1477 "/>
<polyline clip-path="url(#clip670)" style="stroke:#000000; stroke-linecap:round; stroke-linejoin:round; stroke-width:4; stroke-opacity:1; fill:none" points="2046.25,1486.45 2046.25,1477 "/>
<polyline clip-path="url(#clip670)" style="stroke:#000000; stroke-linecap:round; stroke-linejoin:round; stroke-width:4; stroke-opacity:1; fill:none" points="2127.98,1486.45 2127.98,1477 "/>
<polyline clip-path="url(#clip670)" style="stroke:#000000; stroke-linecap:round; stroke-linejoin:round; stroke-width:4; stroke-opacity:1; fill:none" points="2168.85,1486.45 2168.85,1477 "/>
<polyline clip-path="url(#clip670)" style="stroke:#000000; stroke-linecap:round; stroke-linejoin:round; stroke-width:4; stroke-opacity:1; fill:none" points="2209.72,1486.45 2209.72,1477 "/>
<polyline clip-path="url(#clip670)" style="stroke:#000000; stroke-linecap:round; stroke-linejoin:round; stroke-width:4; stroke-opacity:1; fill:none" points="2250.59,1486.45 2250.59,1477 "/>
<polyline clip-path="url(#clip670)" style="stroke:#000000; stroke-linecap:round; stroke-linejoin:round; stroke-width:4; stroke-opacity:1; fill:none" points="2291.45,1486.45 2291.45,1477 "/>
<polyline clip-path="url(#clip670)" style="stroke:#000000; stroke-linecap:round; stroke-linejoin:round; stroke-width:4; stroke-opacity:1; fill:none" points="2332.32,1486.45 2332.32,1477 "/>
<path clip-path="url(#clip670)" d="M421.302 1532.02 L450.978 1532.02 L450.978 1535.95 L421.302 1535.95 L421.302 1532.02 Z" fill="#000000" fill-rule="nonzero" fill-opacity="1" /><path clip-path="url(#clip670)" d="M473.917 1518.36 L462.112 1536.81 L473.917 1536.81 L473.917 1518.36 M472.69 1514.29 L478.57 1514.29 L478.57 1536.81 L483.5 1536.81 L483.5 1540.7 L478.57 1540.7 L478.57 1548.85 L473.917 1548.85 L473.917 1540.7 L458.315 1540.7 L458.315 1536.19 L472.69 1514.29 Z" fill="#000000" fill-rule="nonzero" fill-opacity="1" /><path clip-path="url(#clip670)" d="M831.022 1532.02 L860.698 1532.02 L860.698 1535.95 L831.022 1535.95 L831.022 1532.02 Z" fill="#000000" fill-rule="nonzero" fill-opacity="1" /><path clip-path="url(#clip670)" d="M874.818 1544.91 L891.137 1544.91 L891.137 1548.85 L869.193 1548.85 L869.193 1544.91 Q871.855 1542.16 876.438 1537.53 Q881.045 1532.88 882.225 1531.53 Q884.471 1529.01 885.35 1527.27 Q886.253 1525.51 886.253 1523.82 Q886.253 1521.07 884.309 1519.33 Q882.387 1517.6 879.285 1517.6 Q877.086 1517.6 874.633 1518.36 Q872.202 1519.13 869.424 1520.68 L869.424 1515.95 Q872.248 1514.82 874.702 1514.24 Q877.156 1513.66 879.193 1513.66 Q884.563 1513.66 887.758 1516.35 Q890.952 1519.03 890.952 1523.52 Q890.952 1525.65 890.142 1527.57 Q889.355 1529.47 887.248 1532.07 Q886.67 1532.74 883.568 1535.95 Q880.466 1539.15 874.818 1544.91 Z" fill="#000000" fill-rule="nonzero" fill-opacity="1" /><path clip-path="url(#clip670)" d="M1269.76 1517.37 Q1266.15 1517.37 1264.32 1520.93 Q1262.51 1524.47 1262.51 1531.6 Q1262.51 1538.71 1264.32 1542.27 Q1266.15 1545.82 1269.76 1545.82 Q1273.39 1545.82 1275.2 1542.27 Q1277.03 1538.71 1277.03 1531.6 Q1277.03 1524.47 1275.2 1520.93 Q1273.39 1517.37 1269.76 1517.37 M1269.76 1513.66 Q1275.57 1513.66 1278.62 1518.27 Q1281.7 1522.85 1281.7 1531.6 Q1281.7 1540.33 1278.62 1544.94 Q1275.57 1549.52 1269.76 1549.52 Q1263.95 1549.52 1260.87 1544.94 Q1257.81 1540.33 1257.81 1531.6 Q1257.81 1522.85 1260.87 1518.27 Q1263.95 1513.66 1269.76 1513.66 Z" fill="#000000" fill-rule="nonzero" fill-opacity="1" /><path clip-path="url(#clip670)" d="M1673.09 1544.91 L1689.41 1544.91 L1689.41 1548.85 L1667.46 1548.85 L1667.46 1544.91 Q1670.13 1542.16 1674.71 1537.53 Q1679.32 1532.88 1680.5 1531.53 Q1682.74 1529.01 1683.62 1527.27 Q1684.52 1525.51 1684.52 1523.82 Q1684.52 1521.07 1682.58 1519.33 Q1680.66 1517.6 1677.56 1517.6 Q1675.36 1517.6 1672.9 1518.36 Q1670.47 1519.13 1667.7 1520.68 L1667.7 1515.95 Q1670.52 1514.82 1672.97 1514.24 Q1675.43 1513.66 1677.46 1513.66 Q1682.83 1513.66 1686.03 1516.35 Q1689.22 1519.03 1689.22 1523.52 Q1689.22 1525.65 1688.41 1527.57 Q1687.63 1529.47 1685.52 1532.07 Q1684.94 1532.74 1681.84 1535.95 Q1678.74 1539.15 1673.09 1544.91 Z" fill="#000000" fill-rule="nonzero" fill-opacity="1" /><path clip-path="url(#clip670)" d="M2090.12 1518.36 L2078.32 1536.81 L2090.12 1536.81 L2090.12 1518.36 M2088.9 1514.29 L2094.78 1514.29 L2094.78 1536.81 L2099.71 1536.81 L2099.71 1540.7 L2094.78 1540.7 L2094.78 1548.85 L2090.12 1548.85 L2090.12 1540.7 L2074.52 1540.7 L2074.52 1536.19 L2088.9 1514.29 Z" fill="#000000" fill-rule="nonzero" fill-opacity="1" /><polyline clip-path="url(#clip670)" style="stroke:#000000; stroke-linecap:round; stroke-linejoin:round; stroke-width:4; stroke-opacity:1; fill:none" points="186.76,1486.45 186.76,106.192 "/>
<polyline clip-path="url(#clip670)" style="stroke:#000000; stroke-linecap:round; stroke-linejoin:round; stroke-width:4; stroke-opacity:1; fill:none" points="186.76,1447.38 205.658,1447.38 "/>
<polyline clip-path="url(#clip670)" style="stroke:#000000; stroke-linecap:round; stroke-linejoin:round; stroke-width:4; stroke-opacity:1; fill:none" points="186.76,1116.56 205.658,1116.56 "/>
<polyline clip-path="url(#clip670)" style="stroke:#000000; stroke-linecap:round; stroke-linejoin:round; stroke-width:4; stroke-opacity:1; fill:none" points="186.76,785.728 205.658,785.728 "/>
<polyline clip-path="url(#clip670)" style="stroke:#000000; stroke-linecap:round; stroke-linejoin:round; stroke-width:4; stroke-opacity:1; fill:none" points="186.76,454.9 205.658,454.9 "/>
<polyline clip-path="url(#clip670)" style="stroke:#000000; stroke-linecap:round; stroke-linejoin:round; stroke-width:4; stroke-opacity:1; fill:none" points="186.76,124.073 205.658,124.073 "/>
<polyline clip-path="url(#clip670)" style="stroke:#000000; stroke-linecap:round; stroke-linejoin:round; stroke-width:4; stroke-opacity:1; fill:none" points="186.76,1480.47 196.209,1480.47 "/>
<polyline clip-path="url(#clip670)" style="stroke:#000000; stroke-linecap:round; stroke-linejoin:round; stroke-width:4; stroke-opacity:1; fill:none" points="186.76,1414.3 196.209,1414.3 "/>
<polyline clip-path="url(#clip670)" style="stroke:#000000; stroke-linecap:round; stroke-linejoin:round; stroke-width:4; stroke-opacity:1; fill:none" points="186.76,1381.22 196.209,1381.22 "/>
<polyline clip-path="url(#clip670)" style="stroke:#000000; stroke-linecap:round; stroke-linejoin:round; stroke-width:4; stroke-opacity:1; fill:none" points="186.76,1348.14 196.209,1348.14 "/>
<polyline clip-path="url(#clip670)" style="stroke:#000000; stroke-linecap:round; stroke-linejoin:round; stroke-width:4; stroke-opacity:1; fill:none" points="186.76,1315.05 196.209,1315.05 "/>
<polyline clip-path="url(#clip670)" style="stroke:#000000; stroke-linecap:round; stroke-linejoin:round; stroke-width:4; stroke-opacity:1; fill:none" points="186.76,1281.97 196.209,1281.97 "/>
<polyline clip-path="url(#clip670)" style="stroke:#000000; stroke-linecap:round; stroke-linejoin:round; stroke-width:4; stroke-opacity:1; fill:none" points="186.76,1248.89 196.209,1248.89 "/>
<polyline clip-path="url(#clip670)" style="stroke:#000000; stroke-linecap:round; stroke-linejoin:round; stroke-width:4; stroke-opacity:1; fill:none" points="186.76,1215.8 196.209,1215.8 "/>
<polyline clip-path="url(#clip670)" style="stroke:#000000; stroke-linecap:round; stroke-linejoin:round; stroke-width:4; stroke-opacity:1; fill:none" points="186.76,1182.72 196.209,1182.72 "/>
<polyline clip-path="url(#clip670)" style="stroke:#000000; stroke-linecap:round; stroke-linejoin:round; stroke-width:4; stroke-opacity:1; fill:none" points="186.76,1149.64 196.209,1149.64 "/>
<polyline clip-path="url(#clip670)" style="stroke:#000000; stroke-linecap:round; stroke-linejoin:round; stroke-width:4; stroke-opacity:1; fill:none" points="186.76,1083.47 196.209,1083.47 "/>
<polyline clip-path="url(#clip670)" style="stroke:#000000; stroke-linecap:round; stroke-linejoin:round; stroke-width:4; stroke-opacity:1; fill:none" points="186.76,1050.39 196.209,1050.39 "/>
<polyline clip-path="url(#clip670)" style="stroke:#000000; stroke-linecap:round; stroke-linejoin:round; stroke-width:4; stroke-opacity:1; fill:none" points="186.76,1017.31 196.209,1017.31 "/>
<polyline clip-path="url(#clip670)" style="stroke:#000000; stroke-linecap:round; stroke-linejoin:round; stroke-width:4; stroke-opacity:1; fill:none" points="186.76,984.225 196.209,984.225 "/>
<polyline clip-path="url(#clip670)" style="stroke:#000000; stroke-linecap:round; stroke-linejoin:round; stroke-width:4; stroke-opacity:1; fill:none" points="186.76,951.142 196.209,951.142 "/>
<polyline clip-path="url(#clip670)" style="stroke:#000000; stroke-linecap:round; stroke-linejoin:round; stroke-width:4; stroke-opacity:1; fill:none" points="186.76,918.059 196.209,918.059 "/>
<polyline clip-path="url(#clip670)" style="stroke:#000000; stroke-linecap:round; stroke-linejoin:round; stroke-width:4; stroke-opacity:1; fill:none" points="186.76,884.977 196.209,884.977 "/>
<polyline clip-path="url(#clip670)" style="stroke:#000000; stroke-linecap:round; stroke-linejoin:round; stroke-width:4; stroke-opacity:1; fill:none" points="186.76,851.894 196.209,851.894 "/>
<polyline clip-path="url(#clip670)" style="stroke:#000000; stroke-linecap:round; stroke-linejoin:round; stroke-width:4; stroke-opacity:1; fill:none" points="186.76,818.811 196.209,818.811 "/>
<polyline clip-path="url(#clip670)" style="stroke:#000000; stroke-linecap:round; stroke-linejoin:round; stroke-width:4; stroke-opacity:1; fill:none" points="186.76,752.646 196.209,752.646 "/>
<polyline clip-path="url(#clip670)" style="stroke:#000000; stroke-linecap:round; stroke-linejoin:round; stroke-width:4; stroke-opacity:1; fill:none" points="186.76,719.563 196.209,719.563 "/>
<polyline clip-path="url(#clip670)" style="stroke:#000000; stroke-linecap:round; stroke-linejoin:round; stroke-width:4; stroke-opacity:1; fill:none" points="186.76,686.48 196.209,686.48 "/>
<polyline clip-path="url(#clip670)" style="stroke:#000000; stroke-linecap:round; stroke-linejoin:round; stroke-width:4; stroke-opacity:1; fill:none" points="186.76,653.397 196.209,653.397 "/>
<polyline clip-path="url(#clip670)" style="stroke:#000000; stroke-linecap:round; stroke-linejoin:round; stroke-width:4; stroke-opacity:1; fill:none" points="186.76,620.314 196.209,620.314 "/>
<polyline clip-path="url(#clip670)" style="stroke:#000000; stroke-linecap:round; stroke-linejoin:round; stroke-width:4; stroke-opacity:1; fill:none" points="186.76,587.232 196.209,587.232 "/>
<polyline clip-path="url(#clip670)" style="stroke:#000000; stroke-linecap:round; stroke-linejoin:round; stroke-width:4; stroke-opacity:1; fill:none" points="186.76,554.149 196.209,554.149 "/>
<polyline clip-path="url(#clip670)" style="stroke:#000000; stroke-linecap:round; stroke-linejoin:round; stroke-width:4; stroke-opacity:1; fill:none" points="186.76,521.066 196.209,521.066 "/>
<polyline clip-path="url(#clip670)" style="stroke:#000000; stroke-linecap:round; stroke-linejoin:round; stroke-width:4; stroke-opacity:1; fill:none" points="186.76,487.983 196.209,487.983 "/>
<polyline clip-path="url(#clip670)" style="stroke:#000000; stroke-linecap:round; stroke-linejoin:round; stroke-width:4; stroke-opacity:1; fill:none" points="186.76,421.818 196.209,421.818 "/>
<polyline clip-path="url(#clip670)" style="stroke:#000000; stroke-linecap:round; stroke-linejoin:round; stroke-width:4; stroke-opacity:1; fill:none" points="186.76,388.735 196.209,388.735 "/>
<polyline clip-path="url(#clip670)" style="stroke:#000000; stroke-linecap:round; stroke-linejoin:round; stroke-width:4; stroke-opacity:1; fill:none" points="186.76,355.652 196.209,355.652 "/>
<polyline clip-path="url(#clip670)" style="stroke:#000000; stroke-linecap:round; stroke-linejoin:round; stroke-width:4; stroke-opacity:1; fill:none" points="186.76,322.569 196.209,322.569 "/>
<polyline clip-path="url(#clip670)" style="stroke:#000000; stroke-linecap:round; stroke-linejoin:round; stroke-width:4; stroke-opacity:1; fill:none" points="186.76,289.487 196.209,289.487 "/>
<polyline clip-path="url(#clip670)" style="stroke:#000000; stroke-linecap:round; stroke-linejoin:round; stroke-width:4; stroke-opacity:1; fill:none" points="186.76,256.404 196.209,256.404 "/>
<polyline clip-path="url(#clip670)" style="stroke:#000000; stroke-linecap:round; stroke-linejoin:round; stroke-width:4; stroke-opacity:1; fill:none" points="186.76,223.321 196.209,223.321 "/>
<polyline clip-path="url(#clip670)" style="stroke:#000000; stroke-linecap:round; stroke-linejoin:round; stroke-width:4; stroke-opacity:1; fill:none" points="186.76,190.238 196.209,190.238 "/>
<polyline clip-path="url(#clip670)" style="stroke:#000000; stroke-linecap:round; stroke-linejoin:round; stroke-width:4; stroke-opacity:1; fill:none" points="186.76,157.155 196.209,157.155 "/>
<path clip-path="url(#clip670)" d="M63.4226 1433.18 Q59.8115 1433.18 57.9828 1436.75 Q56.1773 1440.29 56.1773 1447.42 Q56.1773 1454.53 57.9828 1458.09 Q59.8115 1461.63 63.4226 1461.63 Q67.0569 1461.63 68.8624 1458.09 Q70.6911 1454.53 70.6911 1447.42 Q70.6911 1440.29 68.8624 1436.75 Q67.0569 1433.18 63.4226 1433.18 M63.4226 1429.48 Q69.2328 1429.48 72.2883 1434.09 Q75.367 1438.67 75.367 1447.42 Q75.367 1456.15 72.2883 1460.75 Q69.2328 1465.34 63.4226 1465.34 Q57.6125 1465.34 54.5338 1460.75 Q51.4782 1456.15 51.4782 1447.42 Q51.4782 1438.67 54.5338 1434.09 Q57.6125 1429.48 63.4226 1429.48 Z" fill="#000000" fill-rule="nonzero" fill-opacity="1" /><path clip-path="url(#clip670)" d="M83.5845 1458.78 L88.4688 1458.78 L88.4688 1464.66 L83.5845 1464.66 L83.5845 1458.78 Z" fill="#000000" fill-rule="nonzero" fill-opacity="1" /><path clip-path="url(#clip670)" d="M108.654 1433.18 Q105.043 1433.18 103.214 1436.75 Q101.409 1440.29 101.409 1447.42 Q101.409 1454.53 103.214 1458.09 Q105.043 1461.63 108.654 1461.63 Q112.288 1461.63 114.094 1458.09 Q115.922 1454.53 115.922 1447.42 Q115.922 1440.29 114.094 1436.75 Q112.288 1433.18 108.654 1433.18 M108.654 1429.48 Q114.464 1429.48 117.52 1434.09 Q120.598 1438.67 120.598 1447.42 Q120.598 1456.15 117.52 1460.75 Q114.464 1465.34 108.654 1465.34 Q102.844 1465.34 99.765 1460.75 Q96.7095 1456.15 96.7095 1447.42 Q96.7095 1438.67 99.765 1434.09 Q102.844 1429.48 108.654 1429.48 Z" fill="#000000" fill-rule="nonzero" fill-opacity="1" /><path clip-path="url(#clip670)" d="M138.816 1433.18 Q135.205 1433.18 133.376 1436.75 Q131.57 1440.29 131.57 1447.42 Q131.57 1454.53 133.376 1458.09 Q135.205 1461.63 138.816 1461.63 Q142.45 1461.63 144.256 1458.09 Q146.084 1454.53 146.084 1447.42 Q146.084 1440.29 144.256 1436.75 Q142.45 1433.18 138.816 1433.18 M138.816 1429.48 Q144.626 1429.48 147.681 1434.09 Q150.76 1438.67 150.76 1447.42 Q150.76 1456.15 147.681 1460.75 Q144.626 1465.34 138.816 1465.34 Q133.006 1465.34 129.927 1460.75 Q126.871 1456.15 126.871 1447.42 Q126.871 1438.67 129.927 1434.09 Q133.006 1429.48 138.816 1429.48 Z" fill="#000000" fill-rule="nonzero" fill-opacity="1" /><path clip-path="url(#clip670)" d="M64.6495 1102.35 Q61.0384 1102.35 59.2097 1105.92 Q57.4041 1109.46 57.4041 1116.59 Q57.4041 1123.7 59.2097 1127.26 Q61.0384 1130.8 64.6495 1130.8 Q68.2837 1130.8 70.0892 1127.26 Q71.9179 1123.7 71.9179 1116.59 Q71.9179 1109.46 70.0892 1105.92 Q68.2837 1102.35 64.6495 1102.35 M64.6495 1098.65 Q70.4596 1098.65 73.5152 1103.26 Q76.5938 1107.84 76.5938 1116.59 Q76.5938 1125.32 73.5152 1129.92 Q70.4596 1134.51 64.6495 1134.51 Q58.8393 1134.51 55.7606 1129.92 Q52.7051 1125.32 52.7051 1116.59 Q52.7051 1107.84 55.7606 1103.26 Q58.8393 1098.65 64.6495 1098.65 Z" fill="#000000" fill-rule="nonzero" fill-opacity="1" /><path clip-path="url(#clip670)" d="M84.8114 1127.96 L89.6956 1127.96 L89.6956 1133.84 L84.8114 1133.84 L84.8114 1127.96 Z" fill="#000000" fill-rule="nonzero" fill-opacity="1" /><path clip-path="url(#clip670)" d="M109.881 1102.35 Q106.27 1102.35 104.441 1105.92 Q102.635 1109.46 102.635 1116.59 Q102.635 1123.7 104.441 1127.26 Q106.27 1130.8 109.881 1130.8 Q113.515 1130.8 115.32 1127.26 Q117.149 1123.7 117.149 1116.59 Q117.149 1109.46 115.32 1105.92 Q113.515 1102.35 109.881 1102.35 M109.881 1098.65 Q115.691 1098.65 118.746 1103.26 Q121.825 1107.84 121.825 1116.59 Q121.825 1125.32 118.746 1129.92 Q115.691 1134.51 109.881 1134.51 Q104.071 1134.51 100.992 1129.92 Q97.9363 1125.32 97.9363 1116.59 Q97.9363 1107.84 100.992 1103.26 Q104.071 1098.65 109.881 1098.65 Z" fill="#000000" fill-rule="nonzero" fill-opacity="1" /><path clip-path="url(#clip670)" d="M130.853 1129.9 L138.492 1129.9 L138.492 1103.54 L130.182 1105.2 L130.182 1100.94 L138.445 1099.28 L143.121 1099.28 L143.121 1129.9 L150.76 1129.9 L150.76 1133.84 L130.853 1133.84 L130.853 1129.9 Z" fill="#000000" fill-rule="nonzero" fill-opacity="1" /><path clip-path="url(#clip670)" d="M65.0198 771.527 Q61.4087 771.527 59.58 775.092 Q57.7745 778.633 57.7745 785.763 Q57.7745 792.869 59.58 796.434 Q61.4087 799.976 65.0198 799.976 Q68.6541 799.976 70.4596 796.434 Q72.2883 792.869 72.2883 785.763 Q72.2883 778.633 70.4596 775.092 Q68.6541 771.527 65.0198 771.527 M65.0198 767.823 Q70.83 767.823 73.8855 772.43 Q76.9642 777.013 76.9642 785.763 Q76.9642 794.49 73.8855 799.096 Q70.83 803.68 65.0198 803.68 Q59.2097 803.68 56.131 799.096 Q53.0754 794.49 53.0754 785.763 Q53.0754 777.013 56.131 772.43 Q59.2097 767.823 65.0198 767.823 Z" fill="#000000" fill-rule="nonzero" fill-opacity="1" /><path clip-path="url(#clip670)" d="M85.1818 797.129 L90.066 797.129 L90.066 803.008 L85.1818 803.008 L85.1818 797.129 Z" fill="#000000" fill-rule="nonzero" fill-opacity="1" /><path clip-path="url(#clip670)" d="M110.251 771.527 Q106.64 771.527 104.811 775.092 Q103.006 778.633 103.006 785.763 Q103.006 792.869 104.811 796.434 Q106.64 799.976 110.251 799.976 Q113.885 799.976 115.691 796.434 Q117.52 792.869 117.52 785.763 Q117.52 778.633 115.691 775.092 Q113.885 771.527 110.251 771.527 M110.251 767.823 Q116.061 767.823 119.117 772.43 Q122.195 777.013 122.195 785.763 Q122.195 794.49 119.117 799.096 Q116.061 803.68 110.251 803.68 Q104.441 803.68 101.362 799.096 Q98.3067 794.49 98.3067 785.763 Q98.3067 777.013 101.362 772.43 Q104.441 767.823 110.251 767.823 Z" fill="#000000" fill-rule="nonzero" fill-opacity="1" /><path clip-path="url(#clip670)" d="M134.441 799.073 L150.76 799.073 L150.76 803.008 L128.816 803.008 L128.816 799.073 Q131.478 796.319 136.061 791.689 Q140.668 787.036 141.848 785.694 Q144.093 783.17 144.973 781.434 Q145.876 779.675 145.876 777.985 Q145.876 775.231 143.931 773.495 Q142.01 771.758 138.908 771.758 Q136.709 771.758 134.256 772.522 Q131.825 773.286 129.047 774.837 L129.047 770.115 Q131.871 768.981 134.325 768.402 Q136.779 767.823 138.816 767.823 Q144.186 767.823 147.38 770.508 Q150.575 773.194 150.575 777.684 Q150.575 779.814 149.765 781.735 Q148.978 783.633 146.871 786.226 Q146.293 786.897 143.191 790.115 Q140.089 793.309 134.441 799.073 Z" fill="#000000" fill-rule="nonzero" fill-opacity="1" /><path clip-path="url(#clip670)" d="M64.0708 440.699 Q60.4597 440.699 58.631 444.264 Q56.8254 447.806 56.8254 454.935 Q56.8254 462.042 58.631 465.606 Q60.4597 469.148 64.0708 469.148 Q67.705 469.148 69.5105 465.606 Q71.3392 462.042 71.3392 454.935 Q71.3392 447.806 69.5105 444.264 Q67.705 440.699 64.0708 440.699 M64.0708 436.995 Q69.8809 436.995 72.9365 441.602 Q76.0151 446.185 76.0151 454.935 Q76.0151 463.662 72.9365 468.268 Q69.8809 472.852 64.0708 472.852 Q58.2606 472.852 55.1819 468.268 Q52.1264 463.662 52.1264 454.935 Q52.1264 446.185 55.1819 441.602 Q58.2606 436.995 64.0708 436.995 Z" fill="#000000" fill-rule="nonzero" fill-opacity="1" /><path clip-path="url(#clip670)" d="M84.2327 466.301 L89.1169 466.301 L89.1169 472.18 L84.2327 472.18 L84.2327 466.301 Z" fill="#000000" fill-rule="nonzero" fill-opacity="1" /><path clip-path="url(#clip670)" d="M109.302 440.699 Q105.691 440.699 103.862 444.264 Q102.057 447.806 102.057 454.935 Q102.057 462.042 103.862 465.606 Q105.691 469.148 109.302 469.148 Q112.936 469.148 114.742 465.606 Q116.57 462.042 116.57 454.935 Q116.57 447.806 114.742 444.264 Q112.936 440.699 109.302 440.699 M109.302 436.995 Q115.112 436.995 118.168 441.602 Q121.246 446.185 121.246 454.935 Q121.246 463.662 118.168 468.268 Q115.112 472.852 109.302 472.852 Q103.492 472.852 100.413 468.268 Q97.3576 463.662 97.3576 454.935 Q97.3576 446.185 100.413 441.602 Q103.492 436.995 109.302 436.995 Z" fill="#000000" fill-rule="nonzero" fill-opacity="1" /><path clip-path="url(#clip670)" d="M143.631 453.546 Q146.987 454.264 148.862 456.532 Q150.76 458.801 150.76 462.134 Q150.76 467.25 147.242 470.051 Q143.723 472.852 137.242 472.852 Q135.066 472.852 132.751 472.412 Q130.459 471.995 128.006 471.139 L128.006 466.625 Q129.95 467.759 132.265 468.338 Q134.58 468.917 137.103 468.917 Q141.501 468.917 143.793 467.18 Q146.107 465.444 146.107 462.134 Q146.107 459.079 143.955 457.366 Q141.825 455.63 138.006 455.63 L133.978 455.63 L133.978 451.787 L138.191 451.787 Q141.64 451.787 143.468 450.421 Q145.297 449.032 145.297 446.44 Q145.297 443.778 143.399 442.366 Q141.524 440.931 138.006 440.931 Q136.084 440.931 133.885 441.347 Q131.686 441.764 129.047 442.644 L129.047 438.477 Q131.709 437.736 134.024 437.366 Q136.362 436.995 138.422 436.995 Q143.746 436.995 146.848 439.426 Q149.95 441.833 149.95 445.954 Q149.95 448.824 148.306 450.815 Q146.663 452.782 143.631 453.546 Z" fill="#000000" fill-rule="nonzero" fill-opacity="1" /><path clip-path="url(#clip670)" d="M62.9365 109.871 Q59.3254 109.871 57.4967 113.436 Q55.6912 116.978 55.6912 124.107 Q55.6912 131.214 57.4967 134.779 Q59.3254 138.32 62.9365 138.32 Q66.5707 138.32 68.3763 134.779 Q70.205 131.214 70.205 124.107 Q70.205 116.978 68.3763 113.436 Q66.5707 109.871 62.9365 109.871 M62.9365 106.168 Q68.7467 106.168 71.8022 110.774 Q74.8809 115.357 74.8809 124.107 Q74.8809 132.834 71.8022 137.441 Q68.7467 142.024 62.9365 142.024 Q57.1264 142.024 54.0477 137.441 Q50.9921 132.834 50.9921 124.107 Q50.9921 115.357 54.0477 110.774 Q57.1264 106.168 62.9365 106.168 Z" fill="#000000" fill-rule="nonzero" fill-opacity="1" /><path clip-path="url(#clip670)" d="M83.0984 135.473 L87.9827 135.473 L87.9827 141.353 L83.0984 141.353 L83.0984 135.473 Z" fill="#000000" fill-rule="nonzero" fill-opacity="1" /><path clip-path="url(#clip670)" d="M108.168 109.871 Q104.557 109.871 102.728 113.436 Q100.922 116.978 100.922 124.107 Q100.922 131.214 102.728 134.779 Q104.557 138.32 108.168 138.32 Q111.802 138.32 113.608 134.779 Q115.436 131.214 115.436 124.107 Q115.436 116.978 113.608 113.436 Q111.802 109.871 108.168 109.871 M108.168 106.168 Q113.978 106.168 117.033 110.774 Q120.112 115.357 120.112 124.107 Q120.112 132.834 117.033 137.441 Q113.978 142.024 108.168 142.024 Q102.358 142.024 99.2789 137.441 Q96.2234 132.834 96.2234 124.107 Q96.2234 115.357 99.2789 110.774 Q102.358 106.168 108.168 106.168 Z" fill="#000000" fill-rule="nonzero" fill-opacity="1" /><path clip-path="url(#clip670)" d="M141.177 110.867 L129.371 129.316 L141.177 129.316 L141.177 110.867 M139.95 106.793 L145.83 106.793 L145.83 129.316 L150.76 129.316 L150.76 133.204 L145.83 133.204 L145.83 141.353 L141.177 141.353 L141.177 133.204 L125.575 133.204 L125.575 128.691 L139.95 106.793 Z" fill="#000000" fill-rule="nonzero" fill-opacity="1" /><path clip-path="url(#clip670)" d="M655.974 13.4432 L655.974 47.0368 L663.034 47.0368 Q671.975 47.0368 676.112 42.9859 Q680.279 38.935 680.279 30.1966 Q680.279 21.5161 676.112 17.4941 Q671.975 13.4432 663.034 13.4432 L655.974 13.4432 M650.129 8.64 L662.137 8.64 Q674.695 8.64 680.568 13.8772 Q686.442 19.0855 686.442 30.1966 Q686.442 41.3655 680.54 46.6028 Q674.637 51.84 662.137 51.84 L650.129 51.84 L650.129 8.64 Z" fill="#000000" fill-rule="nonzero" fill-opacity="1" /><path clip-path="url(#clip670)" d="M723.248 34.3054 L723.248 36.9095 L698.769 36.9095 Q699.116 42.4072 702.067 45.3007 Q705.047 48.1653 710.343 48.1653 Q713.41 48.1653 716.274 47.4129 Q719.168 46.6606 722.003 45.156 L722.003 50.1907 Q719.139 51.406 716.13 52.0425 Q713.12 52.6791 710.024 52.6791 Q702.27 52.6791 697.727 48.1653 Q693.213 43.6514 693.213 35.9547 Q693.213 27.9975 697.495 23.339 Q701.807 18.6515 709.098 18.6515 Q715.638 18.6515 719.428 22.876 Q723.248 27.0716 723.248 34.3054 M717.924 32.7429 Q717.866 28.3737 715.464 25.7695 Q713.091 23.1654 709.156 23.1654 Q704.7 23.1654 702.009 25.6827 Q699.347 28.2001 698.942 32.7718 L717.924 32.7429 Z" fill="#000000" fill-rule="nonzero" fill-opacity="1" /><path clip-path="url(#clip670)" d="M758.925 32.2799 L758.925 51.84 L753.6 51.84 L753.6 32.4535 Q753.6 27.8529 751.807 25.567 Q750.013 23.2811 746.425 23.2811 Q742.113 23.2811 739.625 26.03 Q737.136 28.7788 737.136 33.5241 L737.136 51.84 L731.783 51.84 L731.783 19.4328 L737.136 19.4328 L737.136 24.4675 Q739.046 21.545 741.621 20.0983 Q744.226 18.6515 747.611 18.6515 Q753.195 18.6515 756.06 22.1237 Q758.925 25.567 758.925 32.2799 Z" fill="#000000" fill-rule="nonzero" fill-opacity="1" /><path clip-path="url(#clip670)" d="M790.203 20.3876 L790.203 25.4223 Q787.946 24.2649 785.516 23.6862 Q783.085 23.1075 780.481 23.1075 Q776.517 23.1075 774.52 24.3228 Q772.553 25.5381 772.553 27.9686 Q772.553 29.8204 773.971 30.891 Q775.389 31.9327 779.671 32.8876 L781.494 33.2926 Q787.165 34.5079 789.538 36.7359 Q791.939 38.935 791.939 42.8991 Q791.939 47.4129 788.351 50.046 Q784.792 52.6791 778.542 52.6791 Q775.938 52.6791 773.103 52.1583 Q770.296 51.6664 767.171 50.6537 L767.171 45.156 Q770.122 46.6896 772.987 47.4708 Q775.852 48.2231 778.658 48.2231 Q782.42 48.2231 784.445 46.95 Q786.471 45.6479 786.471 43.3042 Q786.471 41.134 784.995 39.9766 Q783.548 38.8192 778.6 37.7486 L776.748 37.3146 Q771.801 36.273 769.602 34.1318 Q767.402 31.9616 767.402 28.2001 Q767.402 23.6283 770.643 21.1399 Q773.884 18.6515 779.845 18.6515 Q782.796 18.6515 785.4 19.0855 Q788.004 19.5196 790.203 20.3876 Z" fill="#000000" fill-rule="nonzero" fill-opacity="1" /><path clip-path="url(#clip670)" d="M800.417 19.4328 L805.741 19.4328 L805.741 51.84 L800.417 51.84 L800.417 19.4328 M800.417 6.81709 L805.741 6.81709 L805.741 13.559 L800.417 13.559 L800.417 6.81709 Z" fill="#000000" fill-rule="nonzero" fill-opacity="1" /><path clip-path="url(#clip670)" d="M822.148 10.2314 L822.148 19.4328 L833.114 19.4328 L833.114 23.5705 L822.148 23.5705 L822.148 41.163 Q822.148 45.1271 823.218 46.2555 Q824.318 47.384 827.645 47.384 L833.114 47.384 L833.114 51.84 L827.645 51.84 Q821.482 51.84 819.138 49.5541 Q816.795 47.2393 816.795 41.163 L816.795 23.5705 L812.888 23.5705 L812.888 19.4328 L816.795 19.4328 L816.795 10.2314 L822.148 10.2314 Z" fill="#000000" fill-rule="nonzero" fill-opacity="1" /><path clip-path="url(#clip670)" d="M853.6 54.8492 Q851.343 60.6362 849.202 62.4013 Q847.061 64.1663 843.473 64.1663 L839.219 64.1663 L839.219 59.7103 L842.344 59.7103 Q844.543 59.7103 845.759 58.6687 Q846.974 57.627 848.45 53.7497 L849.404 51.3192 L836.297 19.4328 L841.939 19.4328 L852.066 44.7799 L862.194 19.4328 L867.836 19.4328 L853.6 54.8492 Z" fill="#000000" fill-rule="nonzero" fill-opacity="1" /><path clip-path="url(#clip670)" d="M892.952 12.6041 Q886.586 12.6041 882.824 17.3494 Q879.092 22.0948 879.092 30.2834 Q879.092 38.4431 882.824 43.1884 Q886.586 47.9338 892.952 47.9338 Q899.317 47.9338 903.021 43.1884 Q906.754 38.4431 906.754 30.2834 Q906.754 22.0948 903.021 17.3494 Q899.317 12.6041 892.952 12.6041 M892.952 7.85875 Q902.037 7.85875 907.477 13.964 Q912.917 20.0404 912.917 30.2834 Q912.917 40.4975 907.477 46.6028 Q902.037 52.6791 892.952 52.6791 Q883.837 52.6791 878.368 46.6028 Q872.929 40.5264 872.929 30.2834 Q872.929 20.0404 878.368 13.964 Q883.837 7.85875 892.952 7.85875 Z" fill="#000000" fill-rule="nonzero" fill-opacity="1" /><path clip-path="url(#clip670)" d="M938.235 6.81709 L938.235 11.2442 L933.142 11.2442 Q930.278 11.2442 929.149 12.4016 Q928.05 13.559 928.05 16.5682 L928.05 19.4328 L936.817 19.4328 L936.817 23.5705 L928.05 23.5705 L928.05 51.84 L922.697 51.84 L922.697 23.5705 L917.604 23.5705 L917.604 19.4328 L922.697 19.4328 L922.697 17.1758 Q922.697 11.765 925.214 9.30551 Q927.731 6.81709 933.2 6.81709 L938.235 6.81709 Z" fill="#000000" fill-rule="nonzero" fill-opacity="1" /><path clip-path="url(#clip670)" d="M968.819 10.0578 L968.819 15.758 Q965.492 14.1666 962.54 13.3853 Q959.589 12.6041 956.84 12.6041 Q952.066 12.6041 949.462 14.4559 Q946.886 16.3078 946.886 19.7221 Q946.886 22.5867 948.594 24.0624 Q950.33 25.5091 955.133 26.4061 L958.663 27.1295 Q965.202 28.3737 968.298 31.5276 Q971.423 34.6526 971.423 39.9188 Q971.423 46.1977 967.199 49.4384 Q963.003 52.6791 954.873 52.6791 Q951.805 52.6791 948.333 51.9847 Q944.89 51.2902 941.186 49.9303 L941.186 43.9118 Q944.745 45.9083 948.16 46.921 Q951.574 47.9338 954.873 47.9338 Q959.878 47.9338 962.598 45.9662 Q965.318 43.9986 965.318 40.3528 Q965.318 37.1699 963.351 35.376 Q961.412 33.582 956.956 32.685 L953.397 31.9906 Q946.858 30.6885 943.935 27.9107 Q941.013 25.133 941.013 20.1851 Q941.013 14.4559 945.035 11.1573 Q949.086 7.85875 956.175 7.85875 Q959.213 7.85875 962.367 8.40852 Q965.521 8.95829 968.819 10.0578 Z" fill="#000000" fill-rule="nonzero" fill-opacity="1" /><path clip-path="url(#clip670)" d="M985.573 10.2314 L985.573 19.4328 L996.539 19.4328 L996.539 23.5705 L985.573 23.5705 L985.573 41.163 Q985.573 45.1271 986.643 46.2555 Q987.743 47.384 991.07 47.384 L996.539 47.384 L996.539 51.84 L991.07 51.84 Q984.907 51.84 982.563 49.5541 Q980.22 47.2393 980.22 41.163 L980.22 23.5705 L976.313 23.5705 L976.313 19.4328 L980.22 19.4328 L980.22 10.2314 L985.573 10.2314 Z" fill="#000000" fill-rule="nonzero" fill-opacity="1" /><path clip-path="url(#clip670)" d="M1018.27 35.5496 Q1011.82 35.5496 1009.33 37.0253 Q1006.84 38.501 1006.84 42.06 Q1006.84 44.8956 1008.69 46.5738 Q1010.57 48.2231 1013.78 48.2231 Q1018.21 48.2231 1020.87 45.0981 Q1023.56 41.9442 1023.56 36.7359 L1023.56 35.5496 L1018.27 35.5496 M1028.89 33.3505 L1028.89 51.84 L1023.56 51.84 L1023.56 46.921 Q1021.74 49.8724 1019.02 51.2902 Q1016.3 52.6791 1012.37 52.6791 Q1007.39 52.6791 1004.44 49.9014 Q1001.52 47.0947 1001.52 42.4072 Q1001.52 36.9385 1005.16 34.1607 Q1008.84 31.3829 1016.1 31.3829 L1023.56 31.3829 L1023.56 30.8621 Q1023.56 27.1874 1021.13 25.1908 Q1018.73 23.1654 1014.36 23.1654 Q1011.59 23.1654 1008.95 23.8309 Q1006.32 24.4964 1003.89 25.8274 L1003.89 20.9085 Q1006.81 19.78 1009.56 19.2302 Q1012.31 18.6515 1014.91 18.6515 Q1021.94 18.6515 1025.42 22.2973 Q1028.89 25.9431 1028.89 33.3505 Z" fill="#000000" fill-rule="nonzero" fill-opacity="1" /><path clip-path="url(#clip670)" d="M1045.12 10.2314 L1045.12 19.4328 L1056.09 19.4328 L1056.09 23.5705 L1045.12 23.5705 L1045.12 41.163 Q1045.12 45.1271 1046.19 46.2555 Q1047.29 47.384 1050.62 47.384 L1056.09 47.384 L1056.09 51.84 L1050.62 51.84 Q1044.46 51.84 1042.11 49.5541 Q1039.77 47.2393 1039.77 41.163 L1039.77 23.5705 L1035.86 23.5705 L1035.86 19.4328 L1039.77 19.4328 L1039.77 10.2314 L1045.12 10.2314 Z" fill="#000000" fill-rule="nonzero" fill-opacity="1" /><path clip-path="url(#clip670)" d="M1090.81 34.3054 L1090.81 36.9095 L1066.33 36.9095 Q1066.68 42.4072 1069.63 45.3007 Q1072.61 48.1653 1077.9 48.1653 Q1080.97 48.1653 1083.84 47.4129 Q1086.73 46.6606 1089.57 45.156 L1089.57 50.1907 Q1086.7 51.406 1083.69 52.0425 Q1080.68 52.6791 1077.59 52.6791 Q1069.83 52.6791 1065.29 48.1653 Q1060.77 43.6514 1060.77 35.9547 Q1060.77 27.9975 1065.06 23.339 Q1069.37 18.6515 1076.66 18.6515 Q1083.2 18.6515 1086.99 22.876 Q1090.81 27.0716 1090.81 34.3054 M1085.49 32.7429 Q1085.43 28.3737 1083.03 25.7695 Q1080.65 23.1654 1076.72 23.1654 Q1072.26 23.1654 1069.57 25.6827 Q1066.91 28.2001 1066.5 32.7718 L1085.49 32.7429 Z" fill="#000000" fill-rule="nonzero" fill-opacity="1" /><path clip-path="url(#clip670)" d="M1120.21 20.3876 L1120.21 25.4223 Q1117.95 24.2649 1115.52 23.6862 Q1113.09 23.1075 1110.49 23.1075 Q1106.52 23.1075 1104.52 24.3228 Q1102.56 25.5381 1102.56 27.9686 Q1102.56 29.8204 1103.97 30.891 Q1105.39 31.9327 1109.67 32.8876 L1111.5 33.2926 Q1117.17 34.5079 1119.54 36.7359 Q1121.94 38.935 1121.94 42.8991 Q1121.94 47.4129 1118.36 50.046 Q1114.8 52.6791 1108.55 52.6791 Q1105.94 52.6791 1103.11 52.1583 Q1100.3 51.6664 1097.18 50.6537 L1097.18 45.156 Q1100.13 46.6896 1102.99 47.4708 Q1105.86 48.2231 1108.66 48.2231 Q1112.42 48.2231 1114.45 46.95 Q1116.47 45.6479 1116.47 43.3042 Q1116.47 41.134 1115 39.9766 Q1113.55 38.8192 1108.6 37.7486 L1106.75 37.3146 Q1101.8 36.273 1099.61 34.1318 Q1097.41 31.9616 1097.41 28.2001 Q1097.41 23.6283 1100.65 21.1399 Q1103.89 18.6515 1109.85 18.6515 Q1112.8 18.6515 1115.4 19.0855 Q1118.01 19.5196 1120.21 20.3876 Z" fill="#000000" fill-rule="nonzero" fill-opacity="1" /><path clip-path="url(#clip670)" d="M1126.8 8.64 L1132.71 8.64 L1141.79 45.156 L1150.85 8.64 L1157.42 8.64 L1166.5 45.156 L1175.56 8.64 L1181.49 8.64 L1170.64 51.84 L1163.29 51.84 L1154.18 14.3402 L1144.98 51.84 L1137.63 51.84 L1126.8 8.64 Z" fill="#000000" fill-rule="nonzero" fill-opacity="1" /><path clip-path="url(#clip670)" d="M1187.71 19.4328 L1193.04 19.4328 L1193.04 51.84 L1187.71 51.84 L1187.71 19.4328 M1187.71 6.81709 L1193.04 6.81709 L1193.04 13.559 L1187.71 13.559 L1187.71 6.81709 Z" fill="#000000" fill-rule="nonzero" fill-opacity="1" /><path clip-path="url(#clip670)" d="M1209.44 10.2314 L1209.44 19.4328 L1220.41 19.4328 L1220.41 23.5705 L1209.44 23.5705 L1209.44 41.163 Q1209.44 45.1271 1210.51 46.2555 Q1211.61 47.384 1214.94 47.384 L1220.41 47.384 L1220.41 51.84 L1214.94 51.84 Q1208.78 51.84 1206.43 49.5541 Q1204.09 47.2393 1204.09 41.163 L1204.09 23.5705 L1200.18 23.5705 L1200.18 19.4328 L1204.09 19.4328 L1204.09 10.2314 L1209.44 10.2314 Z" fill="#000000" fill-rule="nonzero" fill-opacity="1" /><path clip-path="url(#clip670)" d="M1254.35 32.2799 L1254.35 51.84 L1249.03 51.84 L1249.03 32.4535 Q1249.03 27.8529 1247.23 25.567 Q1245.44 23.2811 1241.85 23.2811 Q1237.54 23.2811 1235.05 26.03 Q1232.56 28.7788 1232.56 33.5241 L1232.56 51.84 L1227.21 51.84 L1227.21 6.81709 L1232.56 6.81709 L1232.56 24.4675 Q1234.47 21.545 1237.05 20.0983 Q1239.65 18.6515 1243.04 18.6515 Q1248.62 18.6515 1251.49 22.1237 Q1254.35 25.567 1254.35 32.2799 Z" fill="#000000" fill-rule="nonzero" fill-opacity="1" /><path clip-path="url(#clip670)" d="M1277.53 23.1654 Q1273.24 23.1654 1270.76 26.5218 Q1268.27 29.8494 1268.27 35.6653 Q1268.27 41.4813 1270.73 44.8377 Q1273.22 48.1653 1277.53 48.1653 Q1281.78 48.1653 1284.27 44.8088 Q1286.76 41.4523 1286.76 35.6653 Q1286.76 29.9072 1284.27 26.5508 Q1281.78 23.1654 1277.53 23.1654 M1277.53 18.6515 Q1284.47 18.6515 1288.44 23.1654 Q1292.4 27.6792 1292.4 35.6653 Q1292.4 43.6225 1288.44 48.1653 Q1284.47 52.6791 1277.53 52.6791 Q1270.55 52.6791 1266.59 48.1653 Q1262.65 43.6225 1262.65 35.6653 Q1262.65 27.6792 1266.59 23.1654 Q1270.55 18.6515 1277.53 18.6515 Z" fill="#000000" fill-rule="nonzero" fill-opacity="1" /><path clip-path="url(#clip670)" d="M1300.68 39.0507 L1300.68 19.4328 L1306 19.4328 L1306 38.8482 Q1306 43.4488 1307.79 45.7636 Q1309.59 48.0495 1313.18 48.0495 Q1317.49 48.0495 1319.97 45.3007 Q1322.49 42.5519 1322.49 37.8065 L1322.49 19.4328 L1327.82 19.4328 L1327.82 51.84 L1322.49 51.84 L1322.49 46.8632 Q1320.55 49.8145 1317.98 51.2613 Q1315.43 52.6791 1312.05 52.6791 Q1306.46 52.6791 1303.57 49.2069 Q1300.68 45.7347 1300.68 39.0507 M1314.07 18.6515 L1314.07 18.6515 Z" fill="#000000" fill-rule="nonzero" fill-opacity="1" /><path clip-path="url(#clip670)" d="M1344.05 10.2314 L1344.05 19.4328 L1355.02 19.4328 L1355.02 23.5705 L1344.05 23.5705 L1344.05 41.163 Q1344.05 45.1271 1345.12 46.2555 Q1346.22 47.384 1349.55 47.384 L1355.02 47.384 L1355.02 51.84 L1349.55 51.84 Q1343.38 51.84 1341.04 49.5541 Q1338.7 47.2393 1338.7 41.163 L1338.7 23.5705 L1334.79 23.5705 L1334.79 19.4328 L1338.7 19.4328 L1338.7 10.2314 L1344.05 10.2314 Z" fill="#000000" fill-rule="nonzero" fill-opacity="1" /><path clip-path="url(#clip670)" d="M1361.58 8.64 L1367.46 8.64 L1367.46 34.8841 Q1367.46 41.8285 1369.97 44.8956 Q1372.49 47.9338 1378.13 47.9338 Q1383.75 47.9338 1386.26 44.8956 Q1388.78 41.8285 1388.78 34.8841 L1388.78 8.64 L1394.66 8.64 L1394.66 35.6074 Q1394.66 44.0565 1390.46 48.3678 Q1386.29 52.6791 1378.13 52.6791 Q1369.95 52.6791 1365.75 48.3678 Q1361.58 44.0565 1361.58 35.6074 L1361.58 8.64 Z" fill="#000000" fill-rule="nonzero" fill-opacity="1" /><path clip-path="url(#clip670)" d="M1410.54 46.9789 L1410.54 64.1663 L1405.19 64.1663 L1405.19 19.4328 L1410.54 19.4328 L1410.54 24.3517 Q1412.22 21.4582 1414.77 20.0693 Q1417.34 18.6515 1420.9 18.6515 Q1426.8 18.6515 1430.48 23.339 Q1434.18 28.0265 1434.18 35.6653 Q1434.18 43.3042 1430.48 47.9916 Q1426.8 52.6791 1420.9 52.6791 Q1417.34 52.6791 1414.77 51.2902 Q1412.22 49.8724 1410.54 46.9789 M1428.65 35.6653 Q1428.65 29.7915 1426.22 26.464 Q1423.82 23.1075 1419.6 23.1075 Q1415.37 23.1075 1412.94 26.464 Q1410.54 29.7915 1410.54 35.6653 Q1410.54 41.5391 1412.94 44.8956 Q1415.37 48.2231 1419.6 48.2231 Q1423.82 48.2231 1426.22 44.8956 Q1428.65 41.5391 1428.65 35.6653 Z" fill="#000000" fill-rule="nonzero" fill-opacity="1" /><path clip-path="url(#clip670)" d="M1448.16 46.9789 L1448.16 64.1663 L1442.8 64.1663 L1442.8 19.4328 L1448.16 19.4328 L1448.16 24.3517 Q1449.84 21.4582 1452.38 20.0693 Q1454.96 18.6515 1458.52 18.6515 Q1464.42 18.6515 1468.09 23.339 Q1471.8 28.0265 1471.8 35.6653 Q1471.8 43.3042 1468.09 47.9916 Q1464.42 52.6791 1458.52 52.6791 Q1454.96 52.6791 1452.38 51.2902 Q1449.84 49.8724 1448.16 46.9789 M1466.27 35.6653 Q1466.27 29.7915 1463.84 26.464 Q1461.44 23.1075 1457.21 23.1075 Q1452.99 23.1075 1450.56 26.464 Q1448.16 29.7915 1448.16 35.6653 Q1448.16 41.5391 1450.56 44.8956 Q1452.99 48.2231 1457.21 48.2231 Q1461.44 48.2231 1463.84 44.8956 Q1466.27 41.5391 1466.27 35.6653 Z" fill="#000000" fill-rule="nonzero" fill-opacity="1" /><path clip-path="url(#clip670)" d="M1508.34 34.3054 L1508.34 36.9095 L1483.86 36.9095 Q1484.21 42.4072 1487.16 45.3007 Q1490.14 48.1653 1495.44 48.1653 Q1498.5 48.1653 1501.37 47.4129 Q1504.26 46.6606 1507.1 45.156 L1507.1 50.1907 Q1504.23 51.406 1501.22 52.0425 Q1498.21 52.6791 1495.12 52.6791 Q1487.36 52.6791 1482.82 48.1653 Q1478.31 43.6514 1478.31 35.9547 Q1478.31 27.9975 1482.59 23.339 Q1486.9 18.6515 1494.19 18.6515 Q1500.73 18.6515 1504.52 22.876 Q1508.34 27.0716 1508.34 34.3054 M1503.02 32.7429 Q1502.96 28.3737 1500.56 25.7695 Q1498.19 23.1654 1494.25 23.1654 Q1489.79 23.1654 1487.1 25.6827 Q1484.44 28.2001 1484.04 32.7718 L1503.02 32.7429 Z" fill="#000000" fill-rule="nonzero" fill-opacity="1" /><path clip-path="url(#clip670)" d="M1535.86 24.4096 Q1534.96 23.8888 1533.89 23.6573 Q1532.85 23.3969 1531.58 23.3969 Q1527.06 23.3969 1524.63 26.3482 Q1522.23 29.2707 1522.23 34.7683 L1522.23 51.84 L1516.88 51.84 L1516.88 19.4328 L1522.23 19.4328 L1522.23 24.4675 Q1523.91 21.5161 1526.6 20.0983 Q1529.29 18.6515 1533.14 18.6515 Q1533.69 18.6515 1534.35 18.7383 Q1535.02 18.7962 1535.83 18.9409 L1535.86 24.4096 Z" fill="#000000" fill-rule="nonzero" fill-opacity="1" /><path clip-path="url(#clip670)" d="M1547.52 31.2093 L1547.52 47.0368 L1556.89 47.0368 Q1561.61 47.0368 1563.87 45.0981 Q1566.15 43.1306 1566.15 39.1086 Q1566.15 35.0577 1563.87 33.148 Q1561.61 31.2093 1556.89 31.2093 L1547.52 31.2093 M1547.52 13.4432 L1547.52 26.464 L1556.17 26.464 Q1560.45 26.464 1562.54 24.8726 Q1564.65 23.2522 1564.65 19.9536 Q1564.65 16.6839 1562.54 15.0636 Q1560.45 13.4432 1556.17 13.4432 L1547.52 13.4432 M1541.67 8.64 L1556.61 8.64 Q1563.29 8.64 1566.91 11.4178 Q1570.52 14.1955 1570.52 19.317 Q1570.52 23.2811 1568.67 25.6249 Q1566.82 27.9686 1563.23 28.5473 Q1567.54 29.4732 1569.92 32.4246 Q1572.32 35.347 1572.32 39.7452 Q1572.32 45.5322 1568.38 48.6861 Q1564.45 51.84 1557.18 51.84 L1541.67 51.84 L1541.67 8.64 Z" fill="#000000" fill-rule="nonzero" fill-opacity="1" /><path clip-path="url(#clip670)" d="M1596.83 35.5496 Q1590.37 35.5496 1587.88 37.0253 Q1585.4 38.501 1585.4 42.06 Q1585.4 44.8956 1587.25 46.5738 Q1589.13 48.2231 1592.34 48.2231 Q1596.77 48.2231 1599.43 45.0981 Q1602.12 41.9442 1602.12 36.7359 L1602.12 35.5496 L1596.83 35.5496 M1607.44 33.3505 L1607.44 51.84 L1602.12 51.84 L1602.12 46.921 Q1600.3 49.8724 1597.58 51.2902 Q1594.86 52.6791 1590.92 52.6791 Q1585.95 52.6791 1582.99 49.9014 Q1580.07 47.0947 1580.07 42.4072 Q1580.07 36.9385 1583.72 34.1607 Q1587.39 31.3829 1594.65 31.3829 L1602.12 31.3829 L1602.12 30.8621 Q1602.12 27.1874 1599.69 25.1908 Q1597.29 23.1654 1592.92 23.1654 Q1590.14 23.1654 1587.51 23.8309 Q1584.87 24.4964 1582.44 25.8274 L1582.44 20.9085 Q1585.37 19.78 1588.12 19.2302 Q1590.86 18.6515 1593.47 18.6515 Q1600.5 18.6515 1603.97 22.2973 Q1607.44 25.9431 1607.44 33.3505 Z" fill="#000000" fill-rule="nonzero" fill-opacity="1" /><path clip-path="url(#clip670)" d="M1645.35 32.2799 L1645.35 51.84 L1640.03 51.84 L1640.03 32.4535 Q1640.03 27.8529 1638.23 25.567 Q1636.44 23.2811 1632.85 23.2811 Q1628.54 23.2811 1626.05 26.03 Q1623.56 28.7788 1623.56 33.5241 L1623.56 51.84 L1618.21 51.84 L1618.21 19.4328 L1623.56 19.4328 L1623.56 24.4675 Q1625.47 21.545 1628.05 20.0983 Q1630.65 18.6515 1634.04 18.6515 Q1639.62 18.6515 1642.48 22.1237 Q1645.35 25.567 1645.35 32.2799 Z" fill="#000000" fill-rule="nonzero" fill-opacity="1" /><path clip-path="url(#clip670)" d="M1677.29 24.3517 L1677.29 6.81709 L1682.62 6.81709 L1682.62 51.84 L1677.29 51.84 L1677.29 46.9789 Q1675.62 49.8724 1673.04 51.2902 Q1670.49 52.6791 1666.91 52.6791 Q1661.03 52.6791 1657.33 47.9916 Q1653.65 43.3042 1653.65 35.6653 Q1653.65 28.0265 1657.33 23.339 Q1661.03 18.6515 1666.91 18.6515 Q1670.49 18.6515 1673.04 20.0693 Q1675.62 21.4582 1677.29 24.3517 M1659.15 35.6653 Q1659.15 41.5391 1661.55 44.8956 Q1663.98 48.2231 1668.21 48.2231 Q1672.43 48.2231 1674.86 44.8956 Q1677.29 41.5391 1677.29 35.6653 Q1677.29 29.7915 1674.86 26.464 Q1672.43 23.1075 1668.21 23.1075 Q1663.98 23.1075 1661.55 26.464 Q1659.15 29.7915 1659.15 35.6653 Z" fill="#000000" fill-rule="nonzero" fill-opacity="1" /><path clip-path="url(#clip670)" d="M1690.89 33.2348 L1706.49 33.2348 L1706.49 37.9801 L1690.89 37.9801 L1690.89 33.2348 Z" fill="#000000" fill-rule="nonzero" fill-opacity="1" /><path clip-path="url(#clip670)" d="M1720.23 10.2314 L1720.23 19.4328 L1731.2 19.4328 L1731.2 23.5705 L1720.23 23.5705 L1720.23 41.163 Q1720.23 45.1271 1721.3 46.2555 Q1722.4 47.384 1725.73 47.384 L1731.2 47.384 L1731.2 51.84 L1725.73 51.84 Q1719.57 51.84 1717.22 49.5541 Q1714.88 47.2393 1714.88 41.163 L1714.88 23.5705 L1710.97 23.5705 L1710.97 19.4328 L1714.88 19.4328 L1714.88 10.2314 L1720.23 10.2314 Z" fill="#000000" fill-rule="nonzero" fill-opacity="1" /><path clip-path="url(#clip670)" d="M1750.99 6.87496 Q1747.11 13.53 1745.23 20.0404 Q1743.35 26.5508 1743.35 33.2348 Q1743.35 39.9188 1745.23 46.487 Q1747.14 53.0263 1750.99 59.6525 L1746.36 59.6525 Q1742.02 52.8527 1739.85 46.2845 Q1737.71 39.7162 1737.71 33.2348 Q1737.71 26.7823 1739.85 20.2429 Q1741.99 13.7036 1746.36 6.87496 L1750.99 6.87496 Z" fill="#000000" fill-rule="nonzero" fill-opacity="1" /><path clip-path="url(#clip670)" d="M1758.63 33.2348 L1774.23 33.2348 L1774.23 37.9801 L1758.63 37.9801 L1758.63 33.2348 Z" fill="#000000" fill-rule="nonzero" fill-opacity="1" /><path clip-path="url(#clip670)" d="M1784.47 46.921 L1794.02 46.921 L1794.02 13.964 L1783.63 16.0474 L1783.63 10.7233 L1793.96 8.64 L1799.8 8.64 L1799.8 46.921 L1809.35 46.921 L1809.35 51.84 L1784.47 51.84 L1784.47 46.921 Z" fill="#000000" fill-rule="nonzero" fill-opacity="1" /><path clip-path="url(#clip670)" d="M1821.16 44.4905 L1827.26 44.4905 L1827.26 51.84 L1821.16 51.84 L1821.16 44.4905 Z" fill="#000000" fill-rule="nonzero" fill-opacity="1" /><path clip-path="url(#clip670)" d="M1852.5 12.4884 Q1847.98 12.4884 1845.7 16.9444 Q1843.44 21.3714 1843.44 30.2834 Q1843.44 39.1665 1845.7 43.6225 Q1847.98 48.0495 1852.5 48.0495 Q1857.04 48.0495 1859.29 43.6225 Q1861.58 39.1665 1861.58 30.2834 Q1861.58 21.3714 1859.29 16.9444 Q1857.04 12.4884 1852.5 12.4884 M1852.5 7.85875 Q1859.76 7.85875 1863.58 13.6168 Q1867.43 19.346 1867.43 30.2834 Q1867.43 41.1919 1863.58 46.95 Q1859.76 52.6791 1852.5 52.6791 Q1845.23 52.6791 1841.38 46.95 Q1837.56 41.1919 1837.56 30.2834 Q1837.56 19.346 1841.38 13.6168 Q1845.23 7.85875 1852.5 7.85875 Z" fill="#000000" fill-rule="nonzero" fill-opacity="1" /><path clip-path="url(#clip670)" d="M1876.11 6.87496 L1880.74 6.87496 Q1885.08 13.7036 1887.22 20.2429 Q1889.39 26.7823 1889.39 33.2348 Q1889.39 39.7162 1887.22 46.2845 Q1885.08 52.8527 1880.74 59.6525 L1876.11 59.6525 Q1879.95 53.0263 1881.84 46.487 Q1883.74 39.9188 1883.74 33.2348 Q1883.74 26.5508 1881.84 20.0404 Q1879.95 13.53 1876.11 6.87496 Z" fill="#000000" fill-rule="nonzero" fill-opacity="1" /><polyline clip-path="url(#clip672)" style="stroke:#009af9; stroke-linecap:round; stroke-linejoin:round; stroke-width:4; stroke-opacity:1; fill:none" points="248.062,1447.38 258.279,1447.38 268.496,1447.38 278.713,1447.38 288.93,1447.38 299.147,1447.38 309.364,1447.38 319.581,1447.38 329.798,1447.38 340.015,1447.38 350.231,1447.38 360.448,1447.38 370.665,1447.38 380.882,1447.38 391.099,1447.38 401.316,1447.38 411.533,1447.38 421.75,1447.29 431.967,1443.15 442.184,1392.69 452.401,1218.09 462.618,1041.82 472.835,987.777 483.052,979.6 493.269,975.34 503.486,971.055 513.703,966.645 523.92,962.103 534.137,957.421 544.354,952.588 554.571,947.594 564.788,942.429 575.005,937.079 585.222,931.53 595.439,925.766 605.656,919.769 615.872,913.519 626.089,906.991 636.306,900.158 646.523,892.99 656.74,885.451 666.957,877.497 677.174,869.08 687.391,860.138 697.608,850.601 707.825,840.381 718.042,829.371 728.259,817.438 738.476,804.412 748.693,790.075 758.91,774.141 769.127,756.22 779.344,735.773 789.561,712.016 799.778,683.756 809.995,649.041 820.212,604.33 830.429,541.765 840.646,437.991 850.863,257.828 861.08,145.256 871.297,314.196 881.513,541.018 891.73,683.59 901.947,780.417 912.164,856.388 922.381,920.15 932.598,975.753 942.815,1025.5 953.032,1070.87 963.249,1112.84 973.466,1152.14 983.683,1189.31 993.9,1224.76 1004.12,1258.83 1014.33,1291.8 1024.55,1323.89 1034.77,1355.32 1044.98,1386.11 1055.2,1413.87 1065.42,1426.76 1075.64,1413.87 1085.85,1386.11 1096.07,1355.32 1106.29,1323.89 1116.5,1291.8 1126.72,1258.83 1136.94,1224.76 1147.15,1189.31 1157.37,1152.14 1167.59,1112.84 1177.81,1070.87 1188.02,1025.5 1198.24,975.753 1208.46,920.15 1218.67,856.388 1228.89,780.417 1239.11,683.59 1249.32,541.018 1259.54,314.196 1269.76,145.256 1279.97,257.828 1290.19,437.991 1300.41,541.765 1310.63,604.33 1320.84,649.041 1331.06,683.756 1341.28,712.016 1351.49,735.773 1361.71,756.22 1371.93,774.141 1382.14,790.075 1392.36,804.412 1402.58,817.438 1412.8,829.371 1423.01,840.381 1433.23,850.601 1443.45,860.138 1453.66,869.08 1463.88,877.497 1474.1,885.451 1484.31,892.99 1494.53,900.158 1504.75,906.991 1514.97,913.519 1525.18,919.769 1535.4,925.766 1545.62,931.53 1555.83,937.079 1566.05,942.429 1576.27,947.594 1586.48,952.588 1596.7,957.421 1606.92,962.103 1617.13,966.645 1627.35,971.055 1637.57,975.34 1647.79,979.6 1658,987.777 1668.22,1041.82 1678.44,1218.09 1688.65,1392.69 1698.87,1443.15 1709.09,1447.29 1719.3,1447.38 1729.52,1447.38 1739.74,1447.38 1749.96,1447.38 1760.17,1447.38 1770.39,1447.38 1780.61,1447.38 1790.82,1447.38 1801.04,1447.38 1811.26,1447.38 1821.47,1447.38 1831.69,1447.38 1841.91,1447.38 1852.12,1447.38 1862.34,1447.38 1872.56,1447.38 1882.78,1447.38 1892.99,1447.38 1903.21,1447.38 1913.43,1447.38 1923.64,1447.38 1933.86,1447.38 1944.08,1447.38 1954.29,1447.38 1964.51,1447.38 1974.73,1447.38 1984.95,1447.38 1995.16,1447.38 2005.38,1447.38 2015.6,1447.38 2025.81,1447.38 2036.03,1447.38 2046.25,1447.38 2056.46,1447.38 2066.68,1447.38 2076.9,1447.38 2087.11,1447.38 2097.33,1447.38 2107.55,1447.38 2117.77,1447.38 2127.98,1447.38 2138.2,1447.38 2148.42,1447.38 2158.63,1447.38 2168.85,1447.38 2179.07,1447.38 2189.28,1447.38 2199.5,1447.38 2209.72,1447.38 2219.94,1447.38 2230.15,1447.38 2240.37,1447.38 2250.59,1447.38 2260.8,1447.38 2271.02,1447.38 2281.24,1447.38 2291.45,1447.38 "/>
</svg>
