<?xml version="1.0" encoding="utf-8"?>
<svg xmlns="http://www.w3.org/2000/svg" xmlns:xlink="http://www.w3.org/1999/xlink" width="600" height="400" viewBox="0 0 2400 1600">
<defs>
  <clipPath id="clip520">
    <rect x="0" y="0" width="2400" height="1600"/>
  </clipPath>
</defs>
<path clip-path="url(#clip520)" d="M0 1600 L2400 1600 L2400 0 L0 0  Z" fill="#ffffff" fill-rule="evenodd" fill-opacity="1"/>
<defs>
  <clipPath id="clip521">
    <rect x="480" y="0" width="1681" height="1600"/>
  </clipPath>
</defs>
<path clip-path="url(#clip520)" d="M193.936 1423.18 L2352.76 1423.18 L2352.76 127.244 L193.936 127.244  Z" fill="#ffffff" fill-rule="evenodd" fill-opacity="1"/>
<defs>
  <clipPath id="clip522">
    <rect x="193" y="127" width="2160" height="1297"/>
  </clipPath>
</defs>
<polyline clip-path="url(#clip522)" style="stroke:#000000; stroke-linecap:round; stroke-linejoin:round; stroke-width:2; stroke-opacity:0.1; fill:none" points="255.035,1423.18 255.035,127.244 "/>
<polyline clip-path="url(#clip522)" style="stroke:#000000; stroke-linecap:round; stroke-linejoin:round; stroke-width:2; stroke-opacity:0.1; fill:none" points="851.548,1423.18 851.548,127.244 "/>
<polyline clip-path="url(#clip522)" style="stroke:#000000; stroke-linecap:round; stroke-linejoin:round; stroke-width:2; stroke-opacity:0.1; fill:none" points="1448.06,1423.18 1448.06,127.244 "/>
<polyline clip-path="url(#clip522)" style="stroke:#000000; stroke-linecap:round; stroke-linejoin:round; stroke-width:2; stroke-opacity:0.1; fill:none" points="2291.66,1423.18 2291.66,127.244 "/>
<polyline clip-path="url(#clip522)" style="stroke:#000000; stroke-linecap:round; stroke-linejoin:round; stroke-width:2; stroke-opacity:0.05; fill:none" points="195.383,1423.18 195.383,127.244 "/>
<polyline clip-path="url(#clip522)" style="stroke:#000000; stroke-linecap:round; stroke-linejoin:round; stroke-width:2; stroke-opacity:0.05; fill:none" points="314.686,1423.18 314.686,127.244 "/>
<polyline clip-path="url(#clip522)" style="stroke:#000000; stroke-linecap:round; stroke-linejoin:round; stroke-width:2; stroke-opacity:0.05; fill:none" points="374.337,1423.18 374.337,127.244 "/>
<polyline clip-path="url(#clip522)" style="stroke:#000000; stroke-linecap:round; stroke-linejoin:round; stroke-width:2; stroke-opacity:0.05; fill:none" points="433.989,1423.18 433.989,127.244 "/>
<polyline clip-path="url(#clip522)" style="stroke:#000000; stroke-linecap:round; stroke-linejoin:round; stroke-width:2; stroke-opacity:0.05; fill:none" points="493.64,1423.18 493.64,127.244 "/>
<polyline clip-path="url(#clip522)" style="stroke:#000000; stroke-linecap:round; stroke-linejoin:round; stroke-width:2; stroke-opacity:0.05; fill:none" points="553.291,1423.18 553.291,127.244 "/>
<polyline clip-path="url(#clip522)" style="stroke:#000000; stroke-linecap:round; stroke-linejoin:round; stroke-width:2; stroke-opacity:0.05; fill:none" points="612.942,1423.18 612.942,127.244 "/>
<polyline clip-path="url(#clip522)" style="stroke:#000000; stroke-linecap:round; stroke-linejoin:round; stroke-width:2; stroke-opacity:0.05; fill:none" points="672.594,1423.18 672.594,127.244 "/>
<polyline clip-path="url(#clip522)" style="stroke:#000000; stroke-linecap:round; stroke-linejoin:round; stroke-width:2; stroke-opacity:0.05; fill:none" points="732.245,1423.18 732.245,127.244 "/>
<polyline clip-path="url(#clip522)" style="stroke:#000000; stroke-linecap:round; stroke-linejoin:round; stroke-width:2; stroke-opacity:0.05; fill:none" points="791.896,1423.18 791.896,127.244 "/>
<polyline clip-path="url(#clip522)" style="stroke:#000000; stroke-linecap:round; stroke-linejoin:round; stroke-width:2; stroke-opacity:0.05; fill:none" points="911.199,1423.18 911.199,127.244 "/>
<polyline clip-path="url(#clip522)" style="stroke:#000000; stroke-linecap:round; stroke-linejoin:round; stroke-width:2; stroke-opacity:0.05; fill:none" points="970.85,1423.18 970.85,127.244 "/>
<polyline clip-path="url(#clip522)" style="stroke:#000000; stroke-linecap:round; stroke-linejoin:round; stroke-width:2; stroke-opacity:0.05; fill:none" points="1030.5,1423.18 1030.5,127.244 "/>
<polyline clip-path="url(#clip522)" style="stroke:#000000; stroke-linecap:round; stroke-linejoin:round; stroke-width:2; stroke-opacity:0.05; fill:none" points="1090.15,1423.18 1090.15,127.244 "/>
<polyline clip-path="url(#clip522)" style="stroke:#000000; stroke-linecap:round; stroke-linejoin:round; stroke-width:2; stroke-opacity:0.05; fill:none" points="1149.8,1423.18 1149.8,127.244 "/>
<polyline clip-path="url(#clip522)" style="stroke:#000000; stroke-linecap:round; stroke-linejoin:round; stroke-width:2; stroke-opacity:0.05; fill:none" points="1209.46,1423.18 1209.46,127.244 "/>
<polyline clip-path="url(#clip522)" style="stroke:#000000; stroke-linecap:round; stroke-linejoin:round; stroke-width:2; stroke-opacity:0.05; fill:none" points="1269.11,1423.18 1269.11,127.244 "/>
<polyline clip-path="url(#clip522)" style="stroke:#000000; stroke-linecap:round; stroke-linejoin:round; stroke-width:2; stroke-opacity:0.05; fill:none" points="1328.76,1423.18 1328.76,127.244 "/>
<polyline clip-path="url(#clip522)" style="stroke:#000000; stroke-linecap:round; stroke-linejoin:round; stroke-width:2; stroke-opacity:0.05; fill:none" points="1388.41,1423.18 1388.41,127.244 "/>
<polyline clip-path="url(#clip522)" style="stroke:#000000; stroke-linecap:round; stroke-linejoin:round; stroke-width:2; stroke-opacity:0.05; fill:none" points="1532.42,1423.18 1532.42,127.244 "/>
<polyline clip-path="url(#clip522)" style="stroke:#000000; stroke-linecap:round; stroke-linejoin:round; stroke-width:2; stroke-opacity:0.05; fill:none" points="1616.78,1423.18 1616.78,127.244 "/>
<polyline clip-path="url(#clip522)" style="stroke:#000000; stroke-linecap:round; stroke-linejoin:round; stroke-width:2; stroke-opacity:0.05; fill:none" points="1701.14,1423.18 1701.14,127.244 "/>
<polyline clip-path="url(#clip522)" style="stroke:#000000; stroke-linecap:round; stroke-linejoin:round; stroke-width:2; stroke-opacity:0.05; fill:none" points="1785.5,1423.18 1785.5,127.244 "/>
<polyline clip-path="url(#clip522)" style="stroke:#000000; stroke-linecap:round; stroke-linejoin:round; stroke-width:2; stroke-opacity:0.05; fill:none" points="1869.86,1423.18 1869.86,127.244 "/>
<polyline clip-path="url(#clip522)" style="stroke:#000000; stroke-linecap:round; stroke-linejoin:round; stroke-width:2; stroke-opacity:0.05; fill:none" points="1954.22,1423.18 1954.22,127.244 "/>
<polyline clip-path="url(#clip522)" style="stroke:#000000; stroke-linecap:round; stroke-linejoin:round; stroke-width:2; stroke-opacity:0.05; fill:none" points="2038.58,1423.18 2038.58,127.244 "/>
<polyline clip-path="url(#clip522)" style="stroke:#000000; stroke-linecap:round; stroke-linejoin:round; stroke-width:2; stroke-opacity:0.05; fill:none" points="2122.94,1423.18 2122.94,127.244 "/>
<polyline clip-path="url(#clip522)" style="stroke:#000000; stroke-linecap:round; stroke-linejoin:round; stroke-width:2; stroke-opacity:0.05; fill:none" points="2207.3,1423.18 2207.3,127.244 "/>
<polyline clip-path="url(#clip520)" style="stroke:#000000; stroke-linecap:round; stroke-linejoin:round; stroke-width:4; stroke-opacity:1; fill:none" points="193.936,1423.18 2352.76,1423.18 "/>
<polyline clip-path="url(#clip520)" style="stroke:#000000; stroke-linecap:round; stroke-linejoin:round; stroke-width:4; stroke-opacity:1; fill:none" points="255.035,1423.18 255.035,1404.28 "/>
<polyline clip-path="url(#clip520)" style="stroke:#000000; stroke-linecap:round; stroke-linejoin:round; stroke-width:4; stroke-opacity:1; fill:none" points="851.548,1423.18 851.548,1404.28 "/>
<polyline clip-path="url(#clip520)" style="stroke:#000000; stroke-linecap:round; stroke-linejoin:round; stroke-width:4; stroke-opacity:1; fill:none" points="1448.06,1423.18 1448.06,1404.28 "/>
<polyline clip-path="url(#clip520)" style="stroke:#000000; stroke-linecap:round; stroke-linejoin:round; stroke-width:4; stroke-opacity:1; fill:none" points="2291.66,1423.18 2291.66,1404.28 "/>
<polyline clip-path="url(#clip520)" style="stroke:#000000; stroke-linecap:round; stroke-linejoin:round; stroke-width:4; stroke-opacity:1; fill:none" points="195.383,1423.18 195.383,1413.73 "/>
<polyline clip-path="url(#clip520)" style="stroke:#000000; stroke-linecap:round; stroke-linejoin:round; stroke-width:4; stroke-opacity:1; fill:none" points="314.686,1423.18 314.686,1413.73 "/>
<polyline clip-path="url(#clip520)" style="stroke:#000000; stroke-linecap:round; stroke-linejoin:round; stroke-width:4; stroke-opacity:1; fill:none" points="374.337,1423.18 374.337,1413.73 "/>
<polyline clip-path="url(#clip520)" style="stroke:#000000; stroke-linecap:round; stroke-linejoin:round; stroke-width:4; stroke-opacity:1; fill:none" points="433.989,1423.18 433.989,1413.73 "/>
<polyline clip-path="url(#clip520)" style="stroke:#000000; stroke-linecap:round; stroke-linejoin:round; stroke-width:4; stroke-opacity:1; fill:none" points="493.64,1423.18 493.64,1413.73 "/>
<polyline clip-path="url(#clip520)" style="stroke:#000000; stroke-linecap:round; stroke-linejoin:round; stroke-width:4; stroke-opacity:1; fill:none" points="553.291,1423.18 553.291,1413.73 "/>
<polyline clip-path="url(#clip520)" style="stroke:#000000; stroke-linecap:round; stroke-linejoin:round; stroke-width:4; stroke-opacity:1; fill:none" points="612.942,1423.18 612.942,1413.73 "/>
<polyline clip-path="url(#clip520)" style="stroke:#000000; stroke-linecap:round; stroke-linejoin:round; stroke-width:4; stroke-opacity:1; fill:none" points="672.594,1423.18 672.594,1413.73 "/>
<polyline clip-path="url(#clip520)" style="stroke:#000000; stroke-linecap:round; stroke-linejoin:round; stroke-width:4; stroke-opacity:1; fill:none" points="732.245,1423.18 732.245,1413.73 "/>
<polyline clip-path="url(#clip520)" style="stroke:#000000; stroke-linecap:round; stroke-linejoin:round; stroke-width:4; stroke-opacity:1; fill:none" points="791.896,1423.18 791.896,1413.73 "/>
<polyline clip-path="url(#clip520)" style="stroke:#000000; stroke-linecap:round; stroke-linejoin:round; stroke-width:4; stroke-opacity:1; fill:none" points="911.199,1423.18 911.199,1413.73 "/>
<polyline clip-path="url(#clip520)" style="stroke:#000000; stroke-linecap:round; stroke-linejoin:round; stroke-width:4; stroke-opacity:1; fill:none" points="970.85,1423.18 970.85,1413.73 "/>
<polyline clip-path="url(#clip520)" style="stroke:#000000; stroke-linecap:round; stroke-linejoin:round; stroke-width:4; stroke-opacity:1; fill:none" points="1030.5,1423.18 1030.5,1413.73 "/>
<polyline clip-path="url(#clip520)" style="stroke:#000000; stroke-linecap:round; stroke-linejoin:round; stroke-width:4; stroke-opacity:1; fill:none" points="1090.15,1423.18 1090.15,1413.73 "/>
<polyline clip-path="url(#clip520)" style="stroke:#000000; stroke-linecap:round; stroke-linejoin:round; stroke-width:4; stroke-opacity:1; fill:none" points="1149.8,1423.18 1149.8,1413.73 "/>
<polyline clip-path="url(#clip520)" style="stroke:#000000; stroke-linecap:round; stroke-linejoin:round; stroke-width:4; stroke-opacity:1; fill:none" points="1209.46,1423.18 1209.46,1413.73 "/>
<polyline clip-path="url(#clip520)" style="stroke:#000000; stroke-linecap:round; stroke-linejoin:round; stroke-width:4; stroke-opacity:1; fill:none" points="1269.11,1423.18 1269.11,1413.73 "/>
<polyline clip-path="url(#clip520)" style="stroke:#000000; stroke-linecap:round; stroke-linejoin:round; stroke-width:4; stroke-opacity:1; fill:none" points="1328.76,1423.18 1328.76,1413.73 "/>
<polyline clip-path="url(#clip520)" style="stroke:#000000; stroke-linecap:round; stroke-linejoin:round; stroke-width:4; stroke-opacity:1; fill:none" points="1388.41,1423.18 1388.41,1413.73 "/>
<polyline clip-path="url(#clip520)" style="stroke:#000000; stroke-linecap:round; stroke-linejoin:round; stroke-width:4; stroke-opacity:1; fill:none" points="1532.42,1423.18 1532.42,1413.73 "/>
<polyline clip-path="url(#clip520)" style="stroke:#000000; stroke-linecap:round; stroke-linejoin:round; stroke-width:4; stroke-opacity:1; fill:none" points="1616.78,1423.18 1616.78,1413.73 "/>
<polyline clip-path="url(#clip520)" style="stroke:#000000; stroke-linecap:round; stroke-linejoin:round; stroke-width:4; stroke-opacity:1; fill:none" points="1701.14,1423.18 1701.14,1413.73 "/>
<polyline clip-path="url(#clip520)" style="stroke:#000000; stroke-linecap:round; stroke-linejoin:round; stroke-width:4; stroke-opacity:1; fill:none" points="1785.5,1423.18 1785.5,1413.73 "/>
<polyline clip-path="url(#clip520)" style="stroke:#000000; stroke-linecap:round; stroke-linejoin:round; stroke-width:4; stroke-opacity:1; fill:none" points="1869.86,1423.18 1869.86,1413.73 "/>
<polyline clip-path="url(#clip520)" style="stroke:#000000; stroke-linecap:round; stroke-linejoin:round; stroke-width:4; stroke-opacity:1; fill:none" points="1954.22,1423.18 1954.22,1413.73 "/>
<polyline clip-path="url(#clip520)" style="stroke:#000000; stroke-linecap:round; stroke-linejoin:round; stroke-width:4; stroke-opacity:1; fill:none" points="2038.58,1423.18 2038.58,1413.73 "/>
<polyline clip-path="url(#clip520)" style="stroke:#000000; stroke-linecap:round; stroke-linejoin:round; stroke-width:4; stroke-opacity:1; fill:none" points="2122.94,1423.18 2122.94,1413.73 "/>
<polyline clip-path="url(#clip520)" style="stroke:#000000; stroke-linecap:round; stroke-linejoin:round; stroke-width:4; stroke-opacity:1; fill:none" points="2207.3,1423.18 2207.3,1413.73 "/>
<path clip-path="url(#clip520)" d="M244.282 1485.58 L244.282 1451.02 L265.787 1451.02 L265.787 1454.96 L248.958 1454.96 L248.958 1485.58 L244.282 1485.58 Z" fill="#000000" fill-rule="nonzero" fill-opacity="1" /><path clip-path="url(#clip520)" d="M838.33 1451.02 L843.353 1451.02 L851.941 1463.87 L860.575 1451.02 L865.598 1451.02 L854.487 1467.62 L866.339 1485.58 L861.316 1485.58 L851.594 1470.88 L841.802 1485.58 L836.756 1485.58 L849.094 1467.13 L838.33 1451.02 Z" fill="#000000" fill-rule="nonzero" fill-opacity="1" /><path clip-path="url(#clip520)" d="M1432.25 1451.02 L1439.22 1451.02 L1448.04 1474.54 L1456.9 1451.02 L1463.87 1451.02 L1463.87 1485.58 L1459.31 1485.58 L1459.31 1455.23 L1450.4 1478.94 L1445.7 1478.94 L1436.79 1455.23 L1436.79 1485.58 L1432.25 1485.58 L1432.25 1451.02 Z" fill="#000000" fill-rule="nonzero" fill-opacity="1" /><path clip-path="url(#clip520)" d="M2280.9 1485.58 L2280.9 1451.02 L2302.41 1451.02 L2302.41 1454.96 L2285.58 1454.96 L2285.58 1485.58 L2280.9 1485.58 Z" fill="#000000" fill-rule="nonzero" fill-opacity="1" /><path clip-path="url(#clip520)" d="M1257.53 1518.52 L1263.42 1518.52 L1263.42 1547.77 L1280.89 1532.4 L1288.37 1532.4 L1269.46 1549.07 L1289.16 1568.04 L1281.53 1568.04 L1263.42 1550.63 L1263.42 1568.04 L1257.53 1568.04 L1257.53 1518.52 Z" fill="#000000" fill-rule="nonzero" fill-opacity="1" /><polyline clip-path="url(#clip522)" style="stroke:#000000; stroke-linecap:round; stroke-linejoin:round; stroke-width:2; stroke-opacity:0.1; fill:none" points="193.936,1265.2 2352.76,1265.2 "/>
<polyline clip-path="url(#clip522)" style="stroke:#000000; stroke-linecap:round; stroke-linejoin:round; stroke-width:2; stroke-opacity:0.1; fill:none" points="193.936,991.099 2352.76,991.099 "/>
<polyline clip-path="url(#clip522)" style="stroke:#000000; stroke-linecap:round; stroke-linejoin:round; stroke-width:2; stroke-opacity:0.1; fill:none" points="193.936,716.999 2352.76,716.999 "/>
<polyline clip-path="url(#clip522)" style="stroke:#000000; stroke-linecap:round; stroke-linejoin:round; stroke-width:2; stroke-opacity:0.1; fill:none" points="193.936,442.898 2352.76,442.898 "/>
<polyline clip-path="url(#clip522)" style="stroke:#000000; stroke-linecap:round; stroke-linejoin:round; stroke-width:2; stroke-opacity:0.1; fill:none" points="193.936,168.798 2352.76,168.798 "/>
<polyline clip-path="url(#clip522)" style="stroke:#000000; stroke-linecap:round; stroke-linejoin:round; stroke-width:2; stroke-opacity:0.05; fill:none" points="193.936,1402.25 2352.76,1402.25 "/>
<polyline clip-path="url(#clip522)" style="stroke:#000000; stroke-linecap:round; stroke-linejoin:round; stroke-width:2; stroke-opacity:0.05; fill:none" points="193.936,1374.84 2352.76,1374.84 "/>
<polyline clip-path="url(#clip522)" style="stroke:#000000; stroke-linecap:round; stroke-linejoin:round; stroke-width:2; stroke-opacity:0.05; fill:none" points="193.936,1347.43 2352.76,1347.43 "/>
<polyline clip-path="url(#clip522)" style="stroke:#000000; stroke-linecap:round; stroke-linejoin:round; stroke-width:2; stroke-opacity:0.05; fill:none" points="193.936,1320.02 2352.76,1320.02 "/>
<polyline clip-path="url(#clip522)" style="stroke:#000000; stroke-linecap:round; stroke-linejoin:round; stroke-width:2; stroke-opacity:0.05; fill:none" points="193.936,1292.61 2352.76,1292.61 "/>
<polyline clip-path="url(#clip522)" style="stroke:#000000; stroke-linecap:round; stroke-linejoin:round; stroke-width:2; stroke-opacity:0.05; fill:none" points="193.936,1237.79 2352.76,1237.79 "/>
<polyline clip-path="url(#clip522)" style="stroke:#000000; stroke-linecap:round; stroke-linejoin:round; stroke-width:2; stroke-opacity:0.05; fill:none" points="193.936,1210.38 2352.76,1210.38 "/>
<polyline clip-path="url(#clip522)" style="stroke:#000000; stroke-linecap:round; stroke-linejoin:round; stroke-width:2; stroke-opacity:0.05; fill:none" points="193.936,1182.97 2352.76,1182.97 "/>
<polyline clip-path="url(#clip522)" style="stroke:#000000; stroke-linecap:round; stroke-linejoin:round; stroke-width:2; stroke-opacity:0.05; fill:none" points="193.936,1155.56 2352.76,1155.56 "/>
<polyline clip-path="url(#clip522)" style="stroke:#000000; stroke-linecap:round; stroke-linejoin:round; stroke-width:2; stroke-opacity:0.05; fill:none" points="193.936,1128.15 2352.76,1128.15 "/>
<polyline clip-path="url(#clip522)" style="stroke:#000000; stroke-linecap:round; stroke-linejoin:round; stroke-width:2; stroke-opacity:0.05; fill:none" points="193.936,1100.74 2352.76,1100.74 "/>
<polyline clip-path="url(#clip522)" style="stroke:#000000; stroke-linecap:round; stroke-linejoin:round; stroke-width:2; stroke-opacity:0.05; fill:none" points="193.936,1073.33 2352.76,1073.33 "/>
<polyline clip-path="url(#clip522)" style="stroke:#000000; stroke-linecap:round; stroke-linejoin:round; stroke-width:2; stroke-opacity:0.05; fill:none" points="193.936,1045.92 2352.76,1045.92 "/>
<polyline clip-path="url(#clip522)" style="stroke:#000000; stroke-linecap:round; stroke-linejoin:round; stroke-width:2; stroke-opacity:0.05; fill:none" points="193.936,1018.51 2352.76,1018.51 "/>
<polyline clip-path="url(#clip522)" style="stroke:#000000; stroke-linecap:round; stroke-linejoin:round; stroke-width:2; stroke-opacity:0.05; fill:none" points="193.936,963.689 2352.76,963.689 "/>
<polyline clip-path="url(#clip522)" style="stroke:#000000; stroke-linecap:round; stroke-linejoin:round; stroke-width:2; stroke-opacity:0.05; fill:none" points="193.936,936.279 2352.76,936.279 "/>
<polyline clip-path="url(#clip522)" style="stroke:#000000; stroke-linecap:round; stroke-linejoin:round; stroke-width:2; stroke-opacity:0.05; fill:none" points="193.936,908.869 2352.76,908.869 "/>
<polyline clip-path="url(#clip522)" style="stroke:#000000; stroke-linecap:round; stroke-linejoin:round; stroke-width:2; stroke-opacity:0.05; fill:none" points="193.936,881.459 2352.76,881.459 "/>
<polyline clip-path="url(#clip522)" style="stroke:#000000; stroke-linecap:round; stroke-linejoin:round; stroke-width:2; stroke-opacity:0.05; fill:none" points="193.936,854.049 2352.76,854.049 "/>
<polyline clip-path="url(#clip522)" style="stroke:#000000; stroke-linecap:round; stroke-linejoin:round; stroke-width:2; stroke-opacity:0.05; fill:none" points="193.936,826.639 2352.76,826.639 "/>
<polyline clip-path="url(#clip522)" style="stroke:#000000; stroke-linecap:round; stroke-linejoin:round; stroke-width:2; stroke-opacity:0.05; fill:none" points="193.936,799.229 2352.76,799.229 "/>
<polyline clip-path="url(#clip522)" style="stroke:#000000; stroke-linecap:round; stroke-linejoin:round; stroke-width:2; stroke-opacity:0.05; fill:none" points="193.936,771.819 2352.76,771.819 "/>
<polyline clip-path="url(#clip522)" style="stroke:#000000; stroke-linecap:round; stroke-linejoin:round; stroke-width:2; stroke-opacity:0.05; fill:none" points="193.936,744.409 2352.76,744.409 "/>
<polyline clip-path="url(#clip522)" style="stroke:#000000; stroke-linecap:round; stroke-linejoin:round; stroke-width:2; stroke-opacity:0.05; fill:none" points="193.936,689.589 2352.76,689.589 "/>
<polyline clip-path="url(#clip522)" style="stroke:#000000; stroke-linecap:round; stroke-linejoin:round; stroke-width:2; stroke-opacity:0.05; fill:none" points="193.936,662.179 2352.76,662.179 "/>
<polyline clip-path="url(#clip522)" style="stroke:#000000; stroke-linecap:round; stroke-linejoin:round; stroke-width:2; stroke-opacity:0.05; fill:none" points="193.936,634.769 2352.76,634.769 "/>
<polyline clip-path="url(#clip522)" style="stroke:#000000; stroke-linecap:round; stroke-linejoin:round; stroke-width:2; stroke-opacity:0.05; fill:none" points="193.936,607.358 2352.76,607.358 "/>
<polyline clip-path="url(#clip522)" style="stroke:#000000; stroke-linecap:round; stroke-linejoin:round; stroke-width:2; stroke-opacity:0.05; fill:none" points="193.936,579.948 2352.76,579.948 "/>
<polyline clip-path="url(#clip522)" style="stroke:#000000; stroke-linecap:round; stroke-linejoin:round; stroke-width:2; stroke-opacity:0.05; fill:none" points="193.936,552.538 2352.76,552.538 "/>
<polyline clip-path="url(#clip522)" style="stroke:#000000; stroke-linecap:round; stroke-linejoin:round; stroke-width:2; stroke-opacity:0.05; fill:none" points="193.936,525.128 2352.76,525.128 "/>
<polyline clip-path="url(#clip522)" style="stroke:#000000; stroke-linecap:round; stroke-linejoin:round; stroke-width:2; stroke-opacity:0.05; fill:none" points="193.936,497.718 2352.76,497.718 "/>
<polyline clip-path="url(#clip522)" style="stroke:#000000; stroke-linecap:round; stroke-linejoin:round; stroke-width:2; stroke-opacity:0.05; fill:none" points="193.936,470.308 2352.76,470.308 "/>
<polyline clip-path="url(#clip522)" style="stroke:#000000; stroke-linecap:round; stroke-linejoin:round; stroke-width:2; stroke-opacity:0.05; fill:none" points="193.936,415.488 2352.76,415.488 "/>
<polyline clip-path="url(#clip522)" style="stroke:#000000; stroke-linecap:round; stroke-linejoin:round; stroke-width:2; stroke-opacity:0.05; fill:none" points="193.936,388.078 2352.76,388.078 "/>
<polyline clip-path="url(#clip522)" style="stroke:#000000; stroke-linecap:round; stroke-linejoin:round; stroke-width:2; stroke-opacity:0.05; fill:none" points="193.936,360.668 2352.76,360.668 "/>
<polyline clip-path="url(#clip522)" style="stroke:#000000; stroke-linecap:round; stroke-linejoin:round; stroke-width:2; stroke-opacity:0.05; fill:none" points="193.936,333.258 2352.76,333.258 "/>
<polyline clip-path="url(#clip522)" style="stroke:#000000; stroke-linecap:round; stroke-linejoin:round; stroke-width:2; stroke-opacity:0.05; fill:none" points="193.936,305.848 2352.76,305.848 "/>
<polyline clip-path="url(#clip522)" style="stroke:#000000; stroke-linecap:round; stroke-linejoin:round; stroke-width:2; stroke-opacity:0.05; fill:none" points="193.936,278.438 2352.76,278.438 "/>
<polyline clip-path="url(#clip522)" style="stroke:#000000; stroke-linecap:round; stroke-linejoin:round; stroke-width:2; stroke-opacity:0.05; fill:none" points="193.936,251.028 2352.76,251.028 "/>
<polyline clip-path="url(#clip522)" style="stroke:#000000; stroke-linecap:round; stroke-linejoin:round; stroke-width:2; stroke-opacity:0.05; fill:none" points="193.936,223.618 2352.76,223.618 "/>
<polyline clip-path="url(#clip522)" style="stroke:#000000; stroke-linecap:round; stroke-linejoin:round; stroke-width:2; stroke-opacity:0.05; fill:none" points="193.936,196.208 2352.76,196.208 "/>
<polyline clip-path="url(#clip522)" style="stroke:#000000; stroke-linecap:round; stroke-linejoin:round; stroke-width:2; stroke-opacity:0.05; fill:none" points="193.936,141.388 2352.76,141.388 "/>
<polyline clip-path="url(#clip520)" style="stroke:#000000; stroke-linecap:round; stroke-linejoin:round; stroke-width:4; stroke-opacity:1; fill:none" points="193.936,1423.18 193.936,127.244 "/>
<polyline clip-path="url(#clip520)" style="stroke:#000000; stroke-linecap:round; stroke-linejoin:round; stroke-width:4; stroke-opacity:1; fill:none" points="193.936,1265.2 212.834,1265.2 "/>
<polyline clip-path="url(#clip520)" style="stroke:#000000; stroke-linecap:round; stroke-linejoin:round; stroke-width:4; stroke-opacity:1; fill:none" points="193.936,991.099 212.834,991.099 "/>
<polyline clip-path="url(#clip520)" style="stroke:#000000; stroke-linecap:round; stroke-linejoin:round; stroke-width:4; stroke-opacity:1; fill:none" points="193.936,716.999 212.834,716.999 "/>
<polyline clip-path="url(#clip520)" style="stroke:#000000; stroke-linecap:round; stroke-linejoin:round; stroke-width:4; stroke-opacity:1; fill:none" points="193.936,442.898 212.834,442.898 "/>
<polyline clip-path="url(#clip520)" style="stroke:#000000; stroke-linecap:round; stroke-linejoin:round; stroke-width:4; stroke-opacity:1; fill:none" points="193.936,168.798 212.834,168.798 "/>
<polyline clip-path="url(#clip520)" style="stroke:#000000; stroke-linecap:round; stroke-linejoin:round; stroke-width:4; stroke-opacity:1; fill:none" points="193.936,1402.25 203.385,1402.25 "/>
<polyline clip-path="url(#clip520)" style="stroke:#000000; stroke-linecap:round; stroke-linejoin:round; stroke-width:4; stroke-opacity:1; fill:none" points="193.936,1374.84 203.385,1374.84 "/>
<polyline clip-path="url(#clip520)" style="stroke:#000000; stroke-linecap:round; stroke-linejoin:round; stroke-width:4; stroke-opacity:1; fill:none" points="193.936,1347.43 203.385,1347.43 "/>
<polyline clip-path="url(#clip520)" style="stroke:#000000; stroke-linecap:round; stroke-linejoin:round; stroke-width:4; stroke-opacity:1; fill:none" points="193.936,1320.02 203.385,1320.02 "/>
<polyline clip-path="url(#clip520)" style="stroke:#000000; stroke-linecap:round; stroke-linejoin:round; stroke-width:4; stroke-opacity:1; fill:none" points="193.936,1292.61 203.385,1292.61 "/>
<polyline clip-path="url(#clip520)" style="stroke:#000000; stroke-linecap:round; stroke-linejoin:round; stroke-width:4; stroke-opacity:1; fill:none" points="193.936,1237.79 203.385,1237.79 "/>
<polyline clip-path="url(#clip520)" style="stroke:#000000; stroke-linecap:round; stroke-linejoin:round; stroke-width:4; stroke-opacity:1; fill:none" points="193.936,1210.38 203.385,1210.38 "/>
<polyline clip-path="url(#clip520)" style="stroke:#000000; stroke-linecap:round; stroke-linejoin:round; stroke-width:4; stroke-opacity:1; fill:none" points="193.936,1182.97 203.385,1182.97 "/>
<polyline clip-path="url(#clip520)" style="stroke:#000000; stroke-linecap:round; stroke-linejoin:round; stroke-width:4; stroke-opacity:1; fill:none" points="193.936,1155.56 203.385,1155.56 "/>
<polyline clip-path="url(#clip520)" style="stroke:#000000; stroke-linecap:round; stroke-linejoin:round; stroke-width:4; stroke-opacity:1; fill:none" points="193.936,1128.15 203.385,1128.15 "/>
<polyline clip-path="url(#clip520)" style="stroke:#000000; stroke-linecap:round; stroke-linejoin:round; stroke-width:4; stroke-opacity:1; fill:none" points="193.936,1100.74 203.385,1100.74 "/>
<polyline clip-path="url(#clip520)" style="stroke:#000000; stroke-linecap:round; stroke-linejoin:round; stroke-width:4; stroke-opacity:1; fill:none" points="193.936,1073.33 203.385,1073.33 "/>
<polyline clip-path="url(#clip520)" style="stroke:#000000; stroke-linecap:round; stroke-linejoin:round; stroke-width:4; stroke-opacity:1; fill:none" points="193.936,1045.92 203.385,1045.92 "/>
<polyline clip-path="url(#clip520)" style="stroke:#000000; stroke-linecap:round; stroke-linejoin:round; stroke-width:4; stroke-opacity:1; fill:none" points="193.936,1018.51 203.385,1018.51 "/>
<polyline clip-path="url(#clip520)" style="stroke:#000000; stroke-linecap:round; stroke-linejoin:round; stroke-width:4; stroke-opacity:1; fill:none" points="193.936,963.689 203.385,963.689 "/>
<polyline clip-path="url(#clip520)" style="stroke:#000000; stroke-linecap:round; stroke-linejoin:round; stroke-width:4; stroke-opacity:1; fill:none" points="193.936,936.279 203.385,936.279 "/>
<polyline clip-path="url(#clip520)" style="stroke:#000000; stroke-linecap:round; stroke-linejoin:round; stroke-width:4; stroke-opacity:1; fill:none" points="193.936,908.869 203.385,908.869 "/>
<polyline clip-path="url(#clip520)" style="stroke:#000000; stroke-linecap:round; stroke-linejoin:round; stroke-width:4; stroke-opacity:1; fill:none" points="193.936,881.459 203.385,881.459 "/>
<polyline clip-path="url(#clip520)" style="stroke:#000000; stroke-linecap:round; stroke-linejoin:round; stroke-width:4; stroke-opacity:1; fill:none" points="193.936,854.049 203.385,854.049 "/>
<polyline clip-path="url(#clip520)" style="stroke:#000000; stroke-linecap:round; stroke-linejoin:round; stroke-width:4; stroke-opacity:1; fill:none" points="193.936,826.639 203.385,826.639 "/>
<polyline clip-path="url(#clip520)" style="stroke:#000000; stroke-linecap:round; stroke-linejoin:round; stroke-width:4; stroke-opacity:1; fill:none" points="193.936,799.229 203.385,799.229 "/>
<polyline clip-path="url(#clip520)" style="stroke:#000000; stroke-linecap:round; stroke-linejoin:round; stroke-width:4; stroke-opacity:1; fill:none" points="193.936,771.819 203.385,771.819 "/>
<polyline clip-path="url(#clip520)" style="stroke:#000000; stroke-linecap:round; stroke-linejoin:round; stroke-width:4; stroke-opacity:1; fill:none" points="193.936,744.409 203.385,744.409 "/>
<polyline clip-path="url(#clip520)" style="stroke:#000000; stroke-linecap:round; stroke-linejoin:round; stroke-width:4; stroke-opacity:1; fill:none" points="193.936,689.589 203.385,689.589 "/>
<polyline clip-path="url(#clip520)" style="stroke:#000000; stroke-linecap:round; stroke-linejoin:round; stroke-width:4; stroke-opacity:1; fill:none" points="193.936,662.179 203.385,662.179 "/>
<polyline clip-path="url(#clip520)" style="stroke:#000000; stroke-linecap:round; stroke-linejoin:round; stroke-width:4; stroke-opacity:1; fill:none" points="193.936,634.769 203.385,634.769 "/>
<polyline clip-path="url(#clip520)" style="stroke:#000000; stroke-linecap:round; stroke-linejoin:round; stroke-width:4; stroke-opacity:1; fill:none" points="193.936,607.358 203.385,607.358 "/>
<polyline clip-path="url(#clip520)" style="stroke:#000000; stroke-linecap:round; stroke-linejoin:round; stroke-width:4; stroke-opacity:1; fill:none" points="193.936,579.948 203.385,579.948 "/>
<polyline clip-path="url(#clip520)" style="stroke:#000000; stroke-linecap:round; stroke-linejoin:round; stroke-width:4; stroke-opacity:1; fill:none" points="193.936,552.538 203.385,552.538 "/>
<polyline clip-path="url(#clip520)" style="stroke:#000000; stroke-linecap:round; stroke-linejoin:round; stroke-width:4; stroke-opacity:1; fill:none" points="193.936,525.128 203.385,525.128 "/>
<polyline clip-path="url(#clip520)" style="stroke:#000000; stroke-linecap:round; stroke-linejoin:round; stroke-width:4; stroke-opacity:1; fill:none" points="193.936,497.718 203.385,497.718 "/>
<polyline clip-path="url(#clip520)" style="stroke:#000000; stroke-linecap:round; stroke-linejoin:round; stroke-width:4; stroke-opacity:1; fill:none" points="193.936,470.308 203.385,470.308 "/>
<polyline clip-path="url(#clip520)" style="stroke:#000000; stroke-linecap:round; stroke-linejoin:round; stroke-width:4; stroke-opacity:1; fill:none" points="193.936,415.488 203.385,415.488 "/>
<polyline clip-path="url(#clip520)" style="stroke:#000000; stroke-linecap:round; stroke-linejoin:round; stroke-width:4; stroke-opacity:1; fill:none" points="193.936,388.078 203.385,388.078 "/>
<polyline clip-path="url(#clip520)" style="stroke:#000000; stroke-linecap:round; stroke-linejoin:round; stroke-width:4; stroke-opacity:1; fill:none" points="193.936,360.668 203.385,360.668 "/>
<polyline clip-path="url(#clip520)" style="stroke:#000000; stroke-linecap:round; stroke-linejoin:round; stroke-width:4; stroke-opacity:1; fill:none" points="193.936,333.258 203.385,333.258 "/>
<polyline clip-path="url(#clip520)" style="stroke:#000000; stroke-linecap:round; stroke-linejoin:round; stroke-width:4; stroke-opacity:1; fill:none" points="193.936,305.848 203.385,305.848 "/>
<polyline clip-path="url(#clip520)" style="stroke:#000000; stroke-linecap:round; stroke-linejoin:round; stroke-width:4; stroke-opacity:1; fill:none" points="193.936,278.438 203.385,278.438 "/>
<polyline clip-path="url(#clip520)" style="stroke:#000000; stroke-linecap:round; stroke-linejoin:round; stroke-width:4; stroke-opacity:1; fill:none" points="193.936,251.028 203.385,251.028 "/>
<polyline clip-path="url(#clip520)" style="stroke:#000000; stroke-linecap:round; stroke-linejoin:round; stroke-width:4; stroke-opacity:1; fill:none" points="193.936,223.618 203.385,223.618 "/>
<polyline clip-path="url(#clip520)" style="stroke:#000000; stroke-linecap:round; stroke-linejoin:round; stroke-width:4; stroke-opacity:1; fill:none" points="193.936,196.208 203.385,196.208 "/>
<polyline clip-path="url(#clip520)" style="stroke:#000000; stroke-linecap:round; stroke-linejoin:round; stroke-width:4; stroke-opacity:1; fill:none" points="193.936,141.388 203.385,141.388 "/>
<path clip-path="url(#clip520)" d="M50.9921 1265.65 L80.6679 1265.65 L80.6679 1269.59 L50.9921 1269.59 L50.9921 1265.65 Z" fill="#000000" fill-rule="nonzero" fill-opacity="1" /><path clip-path="url(#clip520)" d="M94.7882 1278.54 L111.108 1278.54 L111.108 1282.48 L89.1632 1282.48 L89.1632 1278.54 Q91.8252 1275.79 96.4085 1271.16 Q101.015 1266.51 102.196 1265.16 Q104.441 1262.64 105.321 1260.91 Q106.223 1259.15 106.223 1257.46 Q106.223 1254.7 104.279 1252.97 Q102.358 1251.23 99.2558 1251.23 Q97.0567 1251.23 94.603 1251.99 Q92.1725 1252.76 89.3947 1254.31 L89.3947 1249.59 Q92.2188 1248.45 94.6724 1247.87 Q97.1261 1247.29 99.1632 1247.29 Q104.534 1247.29 107.728 1249.98 Q110.922 1252.66 110.922 1257.16 Q110.922 1259.29 110.112 1261.21 Q109.325 1263.1 107.219 1265.7 Q106.64 1266.37 103.538 1269.59 Q100.436 1272.78 94.7882 1278.54 Z" fill="#000000" fill-rule="nonzero" fill-opacity="1" /><path clip-path="url(#clip520)" d="M120.922 1276.6 L125.807 1276.6 L125.807 1282.48 L120.922 1282.48 L120.922 1276.6 Z" fill="#000000" fill-rule="nonzero" fill-opacity="1" /><path clip-path="url(#clip520)" d="M145.992 1251 Q142.381 1251 140.552 1254.56 Q138.746 1258.1 138.746 1265.23 Q138.746 1272.34 140.552 1275.91 Q142.381 1279.45 145.992 1279.45 Q149.626 1279.45 151.431 1275.91 Q153.26 1272.34 153.26 1265.23 Q153.26 1258.1 151.431 1254.56 Q149.626 1251 145.992 1251 M145.992 1247.29 Q151.802 1247.29 154.857 1251.9 Q157.936 1256.48 157.936 1265.23 Q157.936 1273.96 154.857 1278.57 Q151.802 1283.15 145.992 1283.15 Q140.181 1283.15 137.103 1278.57 Q134.047 1273.96 134.047 1265.23 Q134.047 1256.48 137.103 1251.9 Q140.181 1247.29 145.992 1247.29 Z" fill="#000000" fill-rule="nonzero" fill-opacity="1" /><path clip-path="url(#clip520)" d="M51.9875 991.55 L81.6633 991.55 L81.6633 995.486 L51.9875 995.486 L51.9875 991.55 Z" fill="#000000" fill-rule="nonzero" fill-opacity="1" /><path clip-path="url(#clip520)" d="M92.566 1004.44 L100.205 1004.44 L100.205 978.078 L91.8947 979.745 L91.8947 975.486 L100.159 973.819 L104.834 973.819 L104.834 1004.44 L112.473 1004.44 L112.473 1008.38 L92.566 1008.38 L92.566 1004.44 Z" fill="#000000" fill-rule="nonzero" fill-opacity="1" /><path clip-path="url(#clip520)" d="M121.918 1002.5 L126.802 1002.5 L126.802 1008.38 L121.918 1008.38 L121.918 1002.5 Z" fill="#000000" fill-rule="nonzero" fill-opacity="1" /><path clip-path="url(#clip520)" d="M137.033 973.819 L155.39 973.819 L155.39 977.754 L141.316 977.754 L141.316 986.226 Q142.334 985.879 143.353 985.717 Q144.371 985.532 145.39 985.532 Q151.177 985.532 154.556 988.703 Q157.936 991.874 157.936 997.291 Q157.936 1002.87 154.464 1005.97 Q150.992 1009.05 144.672 1009.05 Q142.496 1009.05 140.228 1008.68 Q137.982 1008.31 135.575 1007.57 L135.575 1002.87 Q137.658 1004 139.881 1004.56 Q142.103 1005.12 144.58 1005.12 Q148.584 1005.12 150.922 1003.01 Q153.26 1000.9 153.26 997.291 Q153.26 993.68 150.922 991.574 Q148.584 989.467 144.58 989.467 Q142.705 989.467 140.83 989.884 Q138.978 990.3 137.033 991.18 L137.033 973.819 Z" fill="#000000" fill-rule="nonzero" fill-opacity="1" /><path clip-path="url(#clip520)" d="M50.9921 717.45 L80.6679 717.45 L80.6679 721.385 L50.9921 721.385 L50.9921 717.45 Z" fill="#000000" fill-rule="nonzero" fill-opacity="1" /><path clip-path="url(#clip520)" d="M91.5706 730.343 L99.2095 730.343 L99.2095 703.978 L90.8993 705.645 L90.8993 701.385 L99.1632 699.719 L103.839 699.719 L103.839 730.343 L111.478 730.343 L111.478 734.279 L91.5706 734.279 L91.5706 730.343 Z" fill="#000000" fill-rule="nonzero" fill-opacity="1" /><path clip-path="url(#clip520)" d="M120.922 728.399 L125.807 728.399 L125.807 734.279 L120.922 734.279 L120.922 728.399 Z" fill="#000000" fill-rule="nonzero" fill-opacity="1" /><path clip-path="url(#clip520)" d="M145.992 702.797 Q142.381 702.797 140.552 706.362 Q138.746 709.904 138.746 717.033 Q138.746 724.14 140.552 727.705 Q142.381 731.246 145.992 731.246 Q149.626 731.246 151.431 727.705 Q153.26 724.14 153.26 717.033 Q153.26 709.904 151.431 706.362 Q149.626 702.797 145.992 702.797 M145.992 699.094 Q151.802 699.094 154.857 703.7 Q157.936 708.283 157.936 717.033 Q157.936 725.76 154.857 730.367 Q151.802 734.95 145.992 734.95 Q140.181 734.95 137.103 730.367 Q134.047 725.76 134.047 717.033 Q134.047 708.283 137.103 703.7 Q140.181 699.094 145.992 699.094 Z" fill="#000000" fill-rule="nonzero" fill-opacity="1" /><path clip-path="url(#clip520)" d="M51.9875 443.35 L81.6633 443.35 L81.6633 447.285 L51.9875 447.285 L51.9875 443.35 Z" fill="#000000" fill-rule="nonzero" fill-opacity="1" /><path clip-path="url(#clip520)" d="M101.756 428.697 Q98.1447 428.697 96.316 432.262 Q94.5104 435.803 94.5104 442.933 Q94.5104 450.039 96.316 453.604 Q98.1447 457.146 101.756 457.146 Q105.39 457.146 107.196 453.604 Q109.024 450.039 109.024 442.933 Q109.024 435.803 107.196 432.262 Q105.39 428.697 101.756 428.697 M101.756 424.993 Q107.566 424.993 110.621 429.6 Q113.7 434.183 113.7 442.933 Q113.7 451.66 110.621 456.266 Q107.566 460.85 101.756 460.85 Q95.9456 460.85 92.8669 456.266 Q89.8114 451.66 89.8114 442.933 Q89.8114 434.183 92.8669 429.6 Q95.9456 424.993 101.756 424.993 Z" fill="#000000" fill-rule="nonzero" fill-opacity="1" /><path clip-path="url(#clip520)" d="M121.918 454.299 L126.802 454.299 L126.802 460.178 L121.918 460.178 L121.918 454.299 Z" fill="#000000" fill-rule="nonzero" fill-opacity="1" /><path clip-path="url(#clip520)" d="M137.033 425.618 L155.39 425.618 L155.39 429.553 L141.316 429.553 L141.316 438.026 Q142.334 437.678 143.353 437.516 Q144.371 437.331 145.39 437.331 Q151.177 437.331 154.556 440.502 Q157.936 443.674 157.936 449.09 Q157.936 454.669 154.464 457.771 Q150.992 460.85 144.672 460.85 Q142.496 460.85 140.228 460.479 Q137.982 460.109 135.575 459.368 L135.575 454.669 Q137.658 455.803 139.881 456.359 Q142.103 456.914 144.58 456.914 Q148.584 456.914 150.922 454.808 Q153.26 452.701 153.26 449.09 Q153.26 445.479 150.922 443.373 Q148.584 441.266 144.58 441.266 Q142.705 441.266 140.83 441.683 Q138.978 442.1 137.033 442.979 L137.033 425.618 Z" fill="#000000" fill-rule="nonzero" fill-opacity="1" /><path clip-path="url(#clip520)" d="M100.76 154.597 Q97.1493 154.597 95.3206 158.161 Q93.515 161.703 93.515 168.833 Q93.515 175.939 95.3206 179.504 Q97.1493 183.045 100.76 183.045 Q104.395 183.045 106.2 179.504 Q108.029 175.939 108.029 168.833 Q108.029 161.703 106.2 158.161 Q104.395 154.597 100.76 154.597 M100.76 150.893 Q106.571 150.893 109.626 155.499 Q112.705 160.083 112.705 168.833 Q112.705 177.559 109.626 182.166 Q106.571 186.749 100.76 186.749 Q94.9502 186.749 91.8715 182.166 Q88.816 177.559 88.816 168.833 Q88.816 160.083 91.8715 155.499 Q94.9502 150.893 100.76 150.893 Z" fill="#000000" fill-rule="nonzero" fill-opacity="1" /><path clip-path="url(#clip520)" d="M120.922 180.198 L125.807 180.198 L125.807 186.078 L120.922 186.078 L120.922 180.198 Z" fill="#000000" fill-rule="nonzero" fill-opacity="1" /><path clip-path="url(#clip520)" d="M145.992 154.597 Q142.381 154.597 140.552 158.161 Q138.746 161.703 138.746 168.833 Q138.746 175.939 140.552 179.504 Q142.381 183.045 145.992 183.045 Q149.626 183.045 151.431 179.504 Q153.26 175.939 153.26 168.833 Q153.26 161.703 151.431 158.161 Q149.626 154.597 145.992 154.597 M145.992 150.893 Q151.802 150.893 154.857 155.499 Q157.936 160.083 157.936 168.833 Q157.936 177.559 154.857 182.166 Q151.802 186.749 145.992 186.749 Q140.181 186.749 137.103 182.166 Q134.047 177.559 134.047 168.833 Q134.047 160.083 137.103 155.499 Q140.181 150.893 145.992 150.893 Z" fill="#000000" fill-rule="nonzero" fill-opacity="1" /><polyline clip-path="url(#clip522)" style="stroke:#009af9; stroke-linecap:round; stroke-linejoin:round; stroke-width:4; stroke-opacity:1; fill:none" points="255.035,163.925 261,163.925 266.965,163.925 272.93,163.925 278.895,163.924 284.86,163.924 290.825,163.924 296.791,163.924 302.756,163.924 308.721,163.924 314.686,163.924 320.651,163.924 326.616,163.924 332.581,163.925 338.546,163.926 344.512,163.928 350.477,163.93 356.442,163.933 362.407,163.936 368.372,163.941 374.337,163.946 380.302,163.952 386.268,163.959 392.233,163.968 398.198,163.978 404.163,163.99 410.128,164.004 416.093,164.019 422.058,164.037 428.023,164.058 433.989,164.081 439.954,164.107 445.919,164.136 451.884,164.169 457.849,164.205 463.814,164.246 469.779,164.291 475.744,164.341 481.71,164.397 487.675,164.458 493.64,164.525 499.605,164.599 505.57,164.681 511.535,164.77 517.5,164.867 523.465,164.973 529.431,165.089 535.396,165.214 541.361,165.351 547.326,165.499 553.291,165.66 559.256,165.833 565.221,166.021 571.187,166.224 577.152,166.442 583.117,166.676 589.082,166.928 595.047,167.198 601.012,167.488 606.977,167.798 612.942,168.129 618.908,168.481 624.873,168.857 630.838,169.256 636.803,169.68 642.768,170.129 648.733,170.603 654.698,171.104 660.663,171.631 666.629,172.185 672.594,172.766 678.559,173.374 684.524,174.008 690.489,174.668 696.454,175.352 702.419,176.061 708.385,176.791 714.35,177.542 720.315,178.311 726.28,179.095 732.245,179.892 738.21,180.697 744.175,181.508 750.14,182.32 756.106,183.128 762.071,183.927 768.036,184.713 774.001,185.479 779.966,186.22 785.931,186.93 791.896,187.604 797.861,188.234 803.827,188.816 809.792,189.345 815.757,189.815 821.722,190.22 827.687,190.558 833.652,190.825 839.617,191.018 845.582,191.134 851.548,191.173 857.513,191.185 863.478,191.219 869.443,191.277 875.408,191.358 881.373,191.463 887.338,191.592 893.304,191.745 899.269,191.923 905.234,192.127 911.199,192.358 917.164,192.615 923.129,192.902 929.094,193.217 935.059,193.563 941.025,193.942 946.99,194.353 952.955,194.8 958.92,195.284 964.885,195.807 970.85,196.372 976.815,196.98 982.78,197.634 988.746,198.338 994.711,199.095 1000.68,199.907 1006.64,200.78 1012.61,201.717 1018.57,202.723 1024.54,203.804 1030.5,204.965 1036.47,206.212 1042.43,207.552 1048.4,208.993 1054.36,210.544 1060.33,212.214 1066.29,214.013 1072.26,215.952 1078.22,218.046 1084.19,220.306 1090.15,222.75 1096.12,225.396 1102.08,228.261 1108.05,231.369 1114.01,234.743 1119.98,238.411 1125.94,242.404 1131.91,246.755 1137.87,251.502 1143.84,256.689 1149.8,262.363 1155.77,268.578 1161.73,275.396 1167.7,282.884 1173.66,291.119 1179.63,300.187 1185.59,310.183 1191.56,321.215 1197.53,333.403 1203.49,346.88 1209.46,361.795 1215.42,378.309 1221.39,396.6 1227.35,416.861 1233.32,439.297 1239.28,464.125 1245.25,491.566 1251.21,521.843 1257.18,555.167 1263.14,591.726 1269.11,631.667 1275.07,675.072 1281.04,721.938 1287,772.137 1292.97,825.394 1298.93,881.253 1304.9,939.051 1310.86,997.912 1316.83,1056.75 1322.79,1114.31 1328.76,1169.22 1334.72,1220.07 1340.69,1265.56 1346.65,1304.55 1352.62,1336.21 1358.58,1360.09 1364.55,1376.14 1370.51,1384.71 1376.48,1386.5 1382.44,1382.5 1388.41,1373.85 1394.37,1361.78 1400.34,1347.53 1406.3,1332.24 1412.27,1316.97 1418.23,1302.6 1424.2,1289.88 1430.17,1279.4 1436.13,1271.61 1442.1,1266.81 1448.06,1265.2 1456.5,1268.42 1464.93,1277.78 1473.37,1292.38 1481.8,1310.62 1490.24,1330.2 1498.68,1348.09 1507.11,1360.64 1515.55,1363.85 1523.98,1353.93 1532.42,1327.89 1540.86,1284.26 1549.29,1223.51 1557.73,1148.11 1566.16,1062.08 1574.6,970.233 1583.04,877.32 1591.47,787.377 1599.91,703.361 1608.34,627.086 1616.78,559.37 1625.22,500.274 1633.65,449.359 1642.09,405.9 1650.52,369.043 1658.96,337.917 1667.4,311.695 1675.83,289.628 1684.27,271.058 1692.7,255.419 1701.14,242.23 1709.58,231.088 1718.01,221.656 1726.45,213.653 1734.88,206.846 1743.32,201.043 1751.76,196.084 1760.19,191.835 1768.63,188.186 1777.06,185.045 1785.5,182.335 1793.94,179.992 1802.37,177.962 1810.81,176.201 1819.24,174.668 1827.68,173.334 1836.12,172.169 1844.55,171.152 1852.99,170.262 1861.42,169.482 1869.86,168.798 1878.29,168.197 1886.73,167.67 1895.17,167.206 1903.6,166.798 1912.04,166.438 1920.47,166.122 1928.91,165.843 1937.35,165.598 1945.78,165.382 1954.22,165.191 1962.65,165.024 1971.09,164.876 1979.53,164.746 1987.96,164.633 1996.4,164.533 2004.83,164.445 2013.27,164.369 2021.71,164.302 2030.14,164.243 2038.58,164.193 2047.01,164.149 2055.45,164.111 2063.89,164.078 2072.32,164.05 2080.76,164.026 2089.19,164.006 2097.63,163.989 2106.07,163.974 2114.5,163.962 2122.94,163.953 2131.37,163.945 2139.81,163.938 2148.25,163.933 2156.68,163.929 2165.12,163.926 2173.55,163.924 2181.99,163.923 2190.43,163.922 2198.86,163.922 2207.3,163.922 2215.73,163.922 2224.17,163.922 2232.61,163.923 2241.04,163.923 2249.48,163.924 2257.91,163.924 2266.35,163.924 2274.79,163.925 2283.22,163.925 2291.66,163.925 "/>
<path clip-path="url(#clip520)" d="M193.936 80 L2352.76 80 L2352.76 0 L193.936 0  Z" fill="#ffffff" fill-rule="evenodd" fill-opacity="1"/>
<defs>
  <clipPath id="clip523">
    <rect x="193" y="0" width="2160" height="81"/>
  </clipPath>
</defs>
<path clip-path="url(#clip520)" d="M557.117 46.9789 L557.117 64.1663 L551.764 64.1663 L551.764 19.4328 L557.117 19.4328 L557.117 24.3517 Q558.795 21.4582 561.342 20.0693 Q563.917 18.6515 567.476 18.6515 Q573.379 18.6515 577.053 23.339 Q580.757 28.0265 580.757 35.6653 Q580.757 43.3042 577.053 47.9916 Q573.379 52.6791 567.476 52.6791 Q563.917 52.6791 561.342 51.2902 Q558.795 49.8724 557.117 46.9789 M575.23 35.6653 Q575.23 29.7915 572.8 26.464 Q570.398 23.1075 566.174 23.1075 Q561.949 23.1075 559.519 26.464 Q557.117 29.7915 557.117 35.6653 Q557.117 41.5391 559.519 44.8956 Q561.949 48.2231 566.174 48.2231 Q570.398 48.2231 572.8 44.8956 Q575.23 41.5391 575.23 35.6653 Z" fill="#000000" fill-rule="nonzero" fill-opacity="1" /><path clip-path="url(#clip520)" d="M611.255 14.6874 L611.255 30.8042 L627.371 30.8042 L627.371 35.7232 L611.255 35.7232 L611.255 51.84 L606.394 51.84 L606.394 35.7232 L590.277 35.7232 L590.277 30.8042 L606.394 30.8042 L606.394 14.6874 L611.255 14.6874 Z" fill="#000000" fill-rule="nonzero" fill-opacity="1" /><path clip-path="url(#clip520)" d="M639.235 19.4328 L644.559 19.4328 L644.559 51.84 L639.235 51.84 L639.235 19.4328 M639.235 6.81709 L644.559 6.81709 L644.559 13.559 L639.235 13.559 L639.235 6.81709 Z" fill="#000000" fill-rule="nonzero" fill-opacity="1" /><path clip-path="url(#clip520)" d="M660.849 46.9789 L660.849 64.1663 L655.496 64.1663 L655.496 19.4328 L660.849 19.4328 L660.849 24.3517 Q662.527 21.4582 665.074 20.0693 Q667.649 18.6515 671.208 18.6515 Q677.111 18.6515 680.785 23.339 Q684.489 28.0265 684.489 35.6653 Q684.489 43.3042 680.785 47.9916 Q677.111 52.6791 671.208 52.6791 Q667.649 52.6791 665.074 51.2902 Q662.527 49.8724 660.849 46.9789 M678.963 35.6653 Q678.963 29.7915 676.532 26.464 Q674.13 23.1075 669.906 23.1075 Q665.681 23.1075 663.251 26.464 Q660.849 29.7915 660.849 35.6653 Q660.849 41.5391 663.251 44.8956 Q665.681 48.2231 669.906 48.2231 Q674.13 48.2231 676.532 44.8956 Q678.963 41.5391 678.963 35.6653 Z" fill="#000000" fill-rule="nonzero" fill-opacity="1" /><path clip-path="url(#clip520)" d="M706.104 6.87496 Q702.226 13.53 700.346 20.0404 Q698.465 26.5508 698.465 33.2348 Q698.465 39.9188 700.346 46.487 Q702.255 53.0263 706.104 59.6525 L701.474 59.6525 Q697.134 52.8527 694.964 46.2845 Q692.822 39.7162 692.822 33.2348 Q692.822 26.7823 694.964 20.2429 Q697.105 13.7036 701.474 6.87496 L706.104 6.87496 Z" fill="#000000" fill-rule="nonzero" fill-opacity="1" /><path clip-path="url(#clip520)" d="M710.675 8.64 L747.22 8.64 L747.22 13.559 L731.885 13.559 L731.885 51.84 L726.011 51.84 L726.011 13.559 L710.675 13.559 L710.675 8.64 Z" fill="#000000" fill-rule="nonzero" fill-opacity="1" /><path clip-path="url(#clip520)" d="M758.708 31.2093 L758.708 47.0368 L768.082 47.0368 Q772.799 47.0368 775.056 45.0981 Q777.342 43.1306 777.342 39.1086 Q777.342 35.0577 775.056 33.148 Q772.799 31.2093 768.082 31.2093 L758.708 31.2093 M758.708 13.4432 L758.708 26.464 L767.359 26.464 Q771.641 26.464 773.725 24.8726 Q775.837 23.2522 775.837 19.9536 Q775.837 16.6839 773.725 15.0636 Q771.641 13.4432 767.359 13.4432 L758.708 13.4432 M752.863 8.64 L767.793 8.64 Q774.477 8.64 778.094 11.4178 Q781.711 14.1955 781.711 19.317 Q781.711 23.2811 779.859 25.6249 Q778.007 27.9686 774.419 28.5473 Q778.731 29.4732 781.103 32.4246 Q783.505 35.347 783.505 39.7452 Q783.505 45.5322 779.57 48.6861 Q775.634 51.84 768.372 51.84 L752.863 51.84 L752.863 8.64 Z" fill="#000000" fill-rule="nonzero" fill-opacity="1" /><path clip-path="url(#clip520)" d="M807.955 14.3981 L800.027 35.8968 L815.912 35.8968 L807.955 14.3981 M804.656 8.64 L811.282 8.64 L827.746 51.84 L821.67 51.84 L817.735 40.7579 L798.262 40.7579 L794.327 51.84 L788.163 51.84 L804.656 8.64 Z" fill="#000000" fill-rule="nonzero" fill-opacity="1" /><path clip-path="url(#clip520)" d="M832.984 6.87496 L837.613 6.87496 Q841.954 13.7036 844.095 20.2429 Q846.265 26.7823 846.265 33.2348 Q846.265 39.7162 844.095 46.2845 Q841.954 52.8527 837.613 59.6525 L832.984 59.6525 Q836.832 53.0263 838.713 46.487 Q840.623 39.9188 840.623 33.2348 Q840.623 26.5508 838.713 20.0404 Q836.832 13.53 832.984 6.87496 Z" fill="#000000" fill-rule="nonzero" fill-opacity="1" /><path clip-path="url(#clip520)" d="M854.251 33.2348 L869.847 33.2348 L869.847 37.9801 L854.251 37.9801 L854.251 33.2348 Z" fill="#000000" fill-rule="nonzero" fill-opacity="1" /><path clip-path="url(#clip520)" d="M883.591 10.2314 L883.591 19.4328 L894.557 19.4328 L894.557 23.5705 L883.591 23.5705 L883.591 41.163 Q883.591 45.1271 884.662 46.2555 Q885.761 47.384 889.089 47.384 L894.557 47.384 L894.557 51.84 L889.089 51.84 Q882.926 51.84 880.582 49.5541 Q878.238 47.2393 878.238 41.163 L878.238 23.5705 L874.332 23.5705 L874.332 19.4328 L878.238 19.4328 L878.238 10.2314 L883.591 10.2314 Z" fill="#000000" fill-rule="nonzero" fill-opacity="1" /><path clip-path="url(#clip520)" d="M914.349 6.87496 Q910.472 13.53 908.591 20.0404 Q906.71 26.5508 906.71 33.2348 Q906.71 39.9188 908.591 46.487 Q910.501 53.0263 914.349 59.6525 L909.719 59.6525 Q905.379 52.8527 903.209 46.2845 Q901.068 39.7162 901.068 33.2348 Q901.068 26.7823 903.209 20.2429 Q905.35 13.7036 909.719 6.87496 L914.349 6.87496 Z" fill="#000000" fill-rule="nonzero" fill-opacity="1" /><path clip-path="url(#clip520)" d="M926.444 46.921 L935.992 46.921 L935.992 13.964 L925.605 16.0474 L925.605 10.7233 L935.935 8.64 L941.779 8.64 L941.779 46.921 L951.328 46.921 L951.328 51.84 L926.444 51.84 L926.444 46.921 Z" fill="#000000" fill-rule="nonzero" fill-opacity="1" /><path clip-path="url(#clip520)" d="M963.133 44.4905 L969.239 44.4905 L969.239 51.84 L963.133 51.84 L963.133 44.4905 Z" fill="#000000" fill-rule="nonzero" fill-opacity="1" /><path clip-path="url(#clip520)" d="M994.47 12.4884 Q989.956 12.4884 987.67 16.9444 Q985.413 21.3714 985.413 30.2834 Q985.413 39.1665 987.67 43.6225 Q989.956 48.0495 994.47 48.0495 Q999.013 48.0495 1001.27 43.6225 Q1003.56 39.1665 1003.56 30.2834 Q1003.56 21.3714 1001.27 16.9444 Q999.013 12.4884 994.47 12.4884 M994.47 7.85875 Q1001.73 7.85875 1005.55 13.6168 Q1009.4 19.346 1009.4 30.2834 Q1009.4 41.1919 1005.55 46.95 Q1001.73 52.6791 994.47 52.6791 Q987.207 52.6791 983.359 46.95 Q979.54 41.1919 979.54 30.2834 Q979.54 19.346 983.359 13.6168 Q987.207 7.85875 994.47 7.85875 Z" fill="#000000" fill-rule="nonzero" fill-opacity="1" /><path clip-path="url(#clip520)" d="M1018.08 6.87496 L1022.71 6.87496 Q1027.05 13.7036 1029.19 20.2429 Q1031.36 26.7823 1031.36 33.2348 Q1031.36 39.7162 1029.19 46.2845 Q1027.05 52.8527 1022.71 59.6525 L1018.08 59.6525 Q1021.93 53.0263 1023.81 46.487 Q1025.72 39.9188 1025.72 33.2348 Q1025.72 26.5508 1023.81 20.0404 Q1021.93 13.53 1018.08 6.87496 Z" fill="#000000" fill-rule="nonzero" fill-opacity="1" /><path clip-path="url(#clip520)" d="M1041.49 64.1663 L1041.49 19.4328 L1046.81 19.4328 L1046.81 39.5715 Q1046.81 43.7671 1048.81 45.9083 Q1050.81 48.0495 1054.71 48.0495 Q1059 48.0495 1061.14 45.619 Q1063.31 43.1884 1063.31 38.3273 L1063.31 19.4328 L1068.63 19.4328 L1068.63 44.3748 Q1068.63 46.1109 1069.12 46.95 Q1069.64 47.7602 1070.71 47.7602 Q1070.97 47.7602 1071.44 47.6155 Q1071.9 47.4419 1072.71 47.0947 L1072.71 51.377 Q1071.52 52.0425 1070.45 52.3608 Q1069.41 52.6791 1068.4 52.6791 Q1066.4 52.6791 1065.22 51.5506 Q1064.03 50.4222 1063.6 48.1074 Q1062.15 50.3932 1060.04 51.5506 Q1057.95 52.6791 1055.12 52.6791 Q1052.17 52.6791 1050.08 51.5506 Q1048.03 50.4222 1046.81 48.1653 L1046.81 64.1663 L1041.49 64.1663 Z" fill="#000000" fill-rule="nonzero" fill-opacity="1" /><path clip-path="url(#clip520)" d="M1092.53 6.87496 Q1088.65 13.53 1086.77 20.0404 Q1084.89 26.5508 1084.89 33.2348 Q1084.89 39.9188 1086.77 46.487 Q1088.68 53.0263 1092.53 59.6525 L1087.9 59.6525 Q1083.56 52.8527 1081.39 46.2845 Q1079.25 39.7162 1079.25 33.2348 Q1079.25 26.7823 1081.39 20.2429 Q1083.53 13.7036 1087.9 6.87496 L1092.53 6.87496 Z" fill="#000000" fill-rule="nonzero" fill-opacity="1" /><path clip-path="url(#clip520)" d="M1121.32 28.5473 Q1125.52 29.4443 1127.86 32.2799 Q1130.23 35.1156 1130.23 39.2822 Q1130.23 45.6768 1125.84 49.178 Q1121.44 52.6791 1113.34 52.6791 Q1110.62 52.6791 1107.72 52.1294 Q1104.86 51.6085 1101.79 50.5379 L1101.79 44.8956 Q1104.22 46.3134 1107.11 47.0368 Q1110.01 47.7602 1113.16 47.7602 Q1118.66 47.7602 1121.52 45.59 Q1124.42 43.4199 1124.42 39.2822 Q1124.42 35.4628 1121.73 33.3216 Q1119.06 31.1515 1114.29 31.1515 L1109.26 31.1515 L1109.26 26.3482 L1114.52 26.3482 Q1118.83 26.3482 1121.12 24.6411 Q1123.4 22.905 1123.4 19.6642 Q1123.4 16.3367 1121.03 14.5717 Q1118.69 12.7777 1114.29 12.7777 Q1111.89 12.7777 1109.14 13.2985 Q1106.39 13.8194 1103.09 14.9189 L1103.09 9.7106 Q1106.42 8.78468 1109.31 8.32171 Q1112.24 7.85875 1114.81 7.85875 Q1121.47 7.85875 1125.34 10.8969 Q1129.22 13.9062 1129.22 19.0566 Q1129.22 22.6446 1127.17 25.133 Q1125.11 27.5924 1121.32 28.5473 Z" fill="#000000" fill-rule="nonzero" fill-opacity="1" /><path clip-path="url(#clip520)" d="M1141.32 44.4905 L1147.42 44.4905 L1147.42 51.84 L1141.32 51.84 L1141.32 44.4905 Z" fill="#000000" fill-rule="nonzero" fill-opacity="1" /><path clip-path="url(#clip520)" d="M1160.21 8.64 L1183.16 8.64 L1183.16 13.559 L1165.56 13.559 L1165.56 24.1492 Q1166.84 23.7152 1168.11 23.5126 Q1169.38 23.2811 1170.66 23.2811 Q1177.89 23.2811 1182.11 27.2452 Q1186.34 31.2093 1186.34 37.9801 Q1186.34 44.9535 1182 48.8308 Q1177.66 52.6791 1169.76 52.6791 Q1167.04 52.6791 1164.2 52.2162 Q1161.4 51.7532 1158.39 50.8273 L1158.39 44.9535 Q1160.99 46.3713 1163.77 47.0657 Q1166.55 47.7602 1169.64 47.7602 Q1174.65 47.7602 1177.57 45.1271 Q1180.49 42.494 1180.49 37.9801 Q1180.49 33.4663 1177.57 30.8332 Q1174.65 28.2001 1169.64 28.2001 Q1167.3 28.2001 1164.96 28.7209 Q1162.64 29.2417 1160.21 30.3413 L1160.21 8.64 Z" fill="#000000" fill-rule="nonzero" fill-opacity="1" /><path clip-path="url(#clip520)" d="M1196.26 6.87496 L1200.89 6.87496 Q1205.23 13.7036 1207.37 20.2429 Q1209.54 26.7823 1209.54 33.2348 Q1209.54 39.7162 1207.37 46.2845 Q1205.23 52.8527 1200.89 59.6525 L1196.26 59.6525 Q1200.11 53.0263 1201.99 46.487 Q1203.9 39.9188 1203.9 33.2348 Q1203.9 26.5508 1201.99 20.0404 Q1200.11 13.53 1196.26 6.87496 Z" fill="#000000" fill-rule="nonzero" fill-opacity="1" /><path clip-path="url(#clip520)" d="M1234.89 14.3981 L1223.03 46.9789 L1246.78 46.9789 L1234.89 14.3981 M1215.1 51.84 L1231.59 8.64 L1238.22 8.64 L1254.68 51.84 L1215.1 51.84 Z" fill="#000000" fill-rule="nonzero" fill-opacity="1" /><path clip-path="url(#clip520)" d="M1273.55 6.87496 Q1269.67 13.53 1267.79 20.0404 Q1265.91 26.5508 1265.91 33.2348 Q1265.91 39.9188 1267.79 46.487 Q1269.7 53.0263 1273.55 59.6525 L1268.92 59.6525 Q1264.58 52.8527 1262.41 46.2845 Q1260.27 39.7162 1260.27 33.2348 Q1260.27 26.7823 1262.41 20.2429 Q1264.55 13.7036 1268.92 6.87496 L1273.55 6.87496 Z" fill="#000000" fill-rule="nonzero" fill-opacity="1" /><path clip-path="url(#clip520)" d="M1297.13 12.4884 Q1292.62 12.4884 1290.33 16.9444 Q1288.07 21.3714 1288.07 30.2834 Q1288.07 39.1665 1290.33 43.6225 Q1292.62 48.0495 1297.13 48.0495 Q1301.67 48.0495 1303.93 43.6225 Q1306.22 39.1665 1306.22 30.2834 Q1306.22 21.3714 1303.93 16.9444 Q1301.67 12.4884 1297.13 12.4884 M1297.13 7.85875 Q1304.39 7.85875 1308.21 13.6168 Q1312.06 19.346 1312.06 30.2834 Q1312.06 41.1919 1308.21 46.95 Q1304.39 52.6791 1297.13 52.6791 Q1289.87 52.6791 1286.02 46.95 Q1282.2 41.1919 1282.2 30.2834 Q1282.2 19.346 1286.02 13.6168 Q1289.87 7.85875 1297.13 7.85875 Z" fill="#000000" fill-rule="nonzero" fill-opacity="1" /><path clip-path="url(#clip520)" d="M1322.33 44.4905 L1328.44 44.4905 L1328.44 51.84 L1322.33 51.84 L1322.33 44.4905 Z" fill="#000000" fill-rule="nonzero" fill-opacity="1" /><path clip-path="url(#clip520)" d="M1341.23 8.64 L1364.17 8.64 L1364.17 13.559 L1346.58 13.559 L1346.58 24.1492 Q1347.85 23.7152 1349.13 23.5126 Q1350.4 23.2811 1351.67 23.2811 Q1358.91 23.2811 1363.13 27.2452 Q1367.36 31.2093 1367.36 37.9801 Q1367.36 44.9535 1363.02 48.8308 Q1358.68 52.6791 1350.78 52.6791 Q1348.06 52.6791 1345.22 52.2162 Q1342.41 51.7532 1339.4 50.8273 L1339.4 44.9535 Q1342.01 46.3713 1344.79 47.0657 Q1347.56 47.7602 1350.66 47.7602 Q1355.67 47.7602 1358.59 45.1271 Q1361.51 42.494 1361.51 37.9801 Q1361.51 33.4663 1358.59 30.8332 Q1355.67 28.2001 1350.66 28.2001 Q1348.32 28.2001 1345.97 28.7209 Q1343.66 29.2417 1341.23 30.3413 L1341.23 8.64 Z" fill="#000000" fill-rule="nonzero" fill-opacity="1" /><path clip-path="url(#clip520)" d="M1377.28 6.87496 L1381.91 6.87496 Q1386.25 13.7036 1388.39 20.2429 Q1390.56 26.7823 1390.56 33.2348 Q1390.56 39.7162 1388.39 46.2845 Q1386.25 52.8527 1381.91 59.6525 L1377.28 59.6525 Q1381.13 53.0263 1383.01 46.487 Q1384.92 39.9188 1384.92 33.2348 Q1384.92 26.5508 1383.01 20.0404 Q1381.13 13.53 1377.28 6.87496 Z" fill="#000000" fill-rule="nonzero" fill-opacity="1" /><path clip-path="url(#clip520)" d="M1398.55 33.2348 L1414.14 33.2348 L1414.14 37.9801 L1398.55 37.9801 L1398.55 33.2348 Z" fill="#000000" fill-rule="nonzero" fill-opacity="1" /><path clip-path="url(#clip520)" d="M1426.59 31.2093 L1426.59 47.0368 L1435.96 47.0368 Q1440.68 47.0368 1442.93 45.0981 Q1445.22 43.1306 1445.22 39.1086 Q1445.22 35.0577 1442.93 33.148 Q1440.68 31.2093 1435.96 31.2093 L1426.59 31.2093 M1426.59 13.4432 L1426.59 26.464 L1435.24 26.464 Q1439.52 26.464 1441.6 24.8726 Q1443.72 23.2522 1443.72 19.9536 Q1443.72 16.6839 1441.6 15.0636 Q1439.52 13.4432 1435.24 13.4432 L1426.59 13.4432 M1420.74 8.64 L1435.67 8.64 Q1442.36 8.64 1445.97 11.4178 Q1449.59 14.1955 1449.59 19.317 Q1449.59 23.2811 1447.74 25.6249 Q1445.89 27.9686 1442.3 28.5473 Q1446.61 29.4732 1448.98 32.4246 Q1451.38 35.347 1451.38 39.7452 Q1451.38 45.5322 1447.45 48.6861 Q1443.51 51.84 1436.25 51.84 L1420.74 51.84 L1420.74 8.64 Z" fill="#000000" fill-rule="nonzero" fill-opacity="1" /><path clip-path="url(#clip520)" d="M1488.88 34.3054 L1488.88 36.9095 L1464.4 36.9095 Q1464.75 42.4072 1467.7 45.3007 Q1470.68 48.1653 1475.98 48.1653 Q1479.05 48.1653 1481.91 47.4129 Q1484.8 46.6606 1487.64 45.156 L1487.64 50.1907 Q1484.77 51.406 1481.76 52.0425 Q1478.76 52.6791 1475.66 52.6791 Q1467.91 52.6791 1463.36 48.1653 Q1458.85 43.6514 1458.85 35.9547 Q1458.85 27.9975 1463.13 23.339 Q1467.44 18.6515 1474.73 18.6515 Q1481.27 18.6515 1485.06 22.876 Q1488.88 27.0716 1488.88 34.3054 M1483.56 32.7429 Q1483.5 28.3737 1481.1 25.7695 Q1478.73 23.1654 1474.79 23.1654 Q1470.34 23.1654 1467.64 25.6827 Q1464.98 28.2001 1464.58 32.7718 L1483.56 32.7429 Z" fill="#000000" fill-rule="nonzero" fill-opacity="1" /><path clip-path="url(#clip520)" d="M1516.4 24.4096 Q1515.5 23.8888 1514.43 23.6573 Q1513.39 23.3969 1512.12 23.3969 Q1507.6 23.3969 1505.17 26.3482 Q1502.77 29.2707 1502.77 34.7683 L1502.77 51.84 L1497.42 51.84 L1497.42 19.4328 L1502.77 19.4328 L1502.77 24.4675 Q1504.45 21.5161 1507.14 20.0983 Q1509.83 18.6515 1513.68 18.6515 Q1514.23 18.6515 1514.9 18.7383 Q1515.56 18.7962 1516.37 18.9409 L1516.4 24.4096 Z" fill="#000000" fill-rule="nonzero" fill-opacity="1" /><path clip-path="url(#clip520)" d="M1539.72 24.4096 Q1538.82 23.8888 1537.75 23.6573 Q1536.71 23.3969 1535.44 23.3969 Q1530.93 23.3969 1528.5 26.3482 Q1526.09 29.2707 1526.09 34.7683 L1526.09 51.84 L1520.74 51.84 L1520.74 19.4328 L1526.09 19.4328 L1526.09 24.4675 Q1527.77 21.5161 1530.46 20.0983 Q1533.15 18.6515 1537 18.6515 Q1537.55 18.6515 1538.22 18.7383 Q1538.88 18.7962 1539.69 18.9409 L1539.72 24.4096 Z" fill="#000000" fill-rule="nonzero" fill-opacity="1" /><path clip-path="url(#clip520)" d="M1558.79 54.8492 Q1556.53 60.6362 1554.39 62.4013 Q1552.25 64.1663 1548.66 64.1663 L1544.41 64.1663 L1544.41 59.7103 L1547.53 59.7103 Q1549.73 59.7103 1550.95 58.6687 Q1552.16 57.627 1553.64 53.7497 L1554.59 51.3192 L1541.49 19.4328 L1547.13 19.4328 L1557.26 44.7799 L1567.38 19.4328 L1573.03 19.4328 L1558.79 54.8492 Z" fill="#000000" fill-rule="nonzero" fill-opacity="1" /><path clip-path="url(#clip520)" d="M1612.96 11.9675 L1612.96 18.1307 Q1610.01 15.3819 1606.65 14.0219 Q1603.32 12.662 1599.56 12.662 Q1592.15 12.662 1588.22 17.2048 Q1584.28 21.7186 1584.28 30.2834 Q1584.28 38.8192 1588.22 43.362 Q1592.15 47.8759 1599.56 47.8759 Q1603.32 47.8759 1606.65 46.516 Q1610.01 45.156 1612.96 42.4072 L1612.96 48.5125 Q1609.89 50.5958 1606.45 51.6375 Q1603.03 52.6791 1599.21 52.6791 Q1589.4 52.6791 1583.76 46.6896 Q1578.12 40.6711 1578.12 30.2834 Q1578.12 19.8668 1583.76 13.8772 Q1589.4 7.85875 1599.21 7.85875 Q1603.09 7.85875 1606.5 8.90042 Q1609.95 9.91314 1612.96 11.9675 Z" fill="#000000" fill-rule="nonzero" fill-opacity="1" /><path clip-path="url(#clip520)" d="M1621.2 39.0507 L1621.2 19.4328 L1626.53 19.4328 L1626.53 38.8482 Q1626.53 43.4488 1628.32 45.7636 Q1630.11 48.0495 1633.7 48.0495 Q1638.01 48.0495 1640.5 45.3007 Q1643.02 42.5519 1643.02 37.8065 L1643.02 19.4328 L1648.34 19.4328 L1648.34 51.84 L1643.02 51.84 L1643.02 46.8632 Q1641.08 49.8145 1638.51 51.2613 Q1635.96 52.6791 1632.57 52.6791 Q1626.99 52.6791 1624.1 49.2069 Q1621.2 45.7347 1621.2 39.0507 M1634.6 18.6515 L1634.6 18.6515 Z" fill="#000000" fill-rule="nonzero" fill-opacity="1" /><path clip-path="url(#clip520)" d="M1678.09 24.4096 Q1677.19 23.8888 1676.12 23.6573 Q1675.08 23.3969 1673.81 23.3969 Q1669.29 23.3969 1666.86 26.3482 Q1664.46 29.2707 1664.46 34.7683 L1664.46 51.84 L1659.11 51.84 L1659.11 19.4328 L1664.46 19.4328 L1664.46 24.4675 Q1666.14 21.5161 1668.83 20.0983 Q1671.52 18.6515 1675.37 18.6515 Q1675.92 18.6515 1676.58 18.7383 Q1677.25 18.7962 1678.06 18.9409 L1678.09 24.4096 Z" fill="#000000" fill-rule="nonzero" fill-opacity="1" /><path clip-path="url(#clip520)" d="M1679.85 19.4328 L1685.5 19.4328 L1695.62 46.6317 L1705.75 19.4328 L1711.39 19.4328 L1699.24 51.84 L1692.01 51.84 L1679.85 19.4328 Z" fill="#000000" fill-rule="nonzero" fill-opacity="1" /><path clip-path="url(#clip520)" d="M1733.47 35.5496 Q1727.02 35.5496 1724.53 37.0253 Q1722.04 38.501 1722.04 42.06 Q1722.04 44.8956 1723.89 46.5738 Q1725.77 48.2231 1728.99 48.2231 Q1733.41 48.2231 1736.07 45.0981 Q1738.77 41.9442 1738.77 36.7359 L1738.77 35.5496 L1733.47 35.5496 M1744.09 33.3505 L1744.09 51.84 L1738.77 51.84 L1738.77 46.921 Q1736.94 49.8724 1734.22 51.2902 Q1731.5 52.6791 1727.57 52.6791 Q1722.59 52.6791 1719.64 49.9014 Q1716.72 47.0947 1716.72 42.4072 Q1716.72 36.9385 1720.36 34.1607 Q1724.04 31.3829 1731.3 31.3829 L1738.77 31.3829 L1738.77 30.8621 Q1738.77 27.1874 1736.34 25.1908 Q1733.93 23.1654 1729.56 23.1654 Q1726.79 23.1654 1724.15 23.8309 Q1721.52 24.4964 1719.09 25.8274 L1719.09 20.9085 Q1722.01 19.78 1724.76 19.2302 Q1727.51 18.6515 1730.11 18.6515 Q1737.15 18.6515 1740.62 22.2973 Q1744.09 25.9431 1744.09 33.3505 Z" fill="#000000" fill-rule="nonzero" fill-opacity="1" /><path clip-path="url(#clip520)" d="M1760.32 10.2314 L1760.32 19.4328 L1771.29 19.4328 L1771.29 23.5705 L1760.32 23.5705 L1760.32 41.163 Q1760.32 45.1271 1761.39 46.2555 Q1762.49 47.384 1765.82 47.384 L1771.29 47.384 L1771.29 51.84 L1765.82 51.84 Q1759.66 51.84 1757.31 49.5541 Q1754.97 47.2393 1754.97 41.163 L1754.97 23.5705 L1751.06 23.5705 L1751.06 19.4328 L1754.97 19.4328 L1754.97 10.2314 L1760.32 10.2314 Z" fill="#000000" fill-rule="nonzero" fill-opacity="1" /><path clip-path="url(#clip520)" d="M1777.74 39.0507 L1777.74 19.4328 L1783.07 19.4328 L1783.07 38.8482 Q1783.07 43.4488 1784.86 45.7636 Q1786.65 48.0495 1790.24 48.0495 Q1794.55 48.0495 1797.04 45.3007 Q1799.56 42.5519 1799.56 37.8065 L1799.56 19.4328 L1804.88 19.4328 L1804.88 51.84 L1799.56 51.84 L1799.56 46.8632 Q1797.62 49.8145 1795.04 51.2613 Q1792.5 52.6791 1789.11 52.6791 Q1783.53 52.6791 1780.63 49.2069 Q1777.74 45.7347 1777.74 39.0507 M1791.14 18.6515 L1791.14 18.6515 Z" fill="#000000" fill-rule="nonzero" fill-opacity="1" /><path clip-path="url(#clip520)" d="M1834.63 24.4096 Q1833.73 23.8888 1832.66 23.6573 Q1831.62 23.3969 1830.35 23.3969 Q1825.83 23.3969 1823.4 26.3482 Q1821 29.2707 1821 34.7683 L1821 51.84 L1815.65 51.84 L1815.65 19.4328 L1821 19.4328 L1821 24.4675 Q1822.68 21.5161 1825.37 20.0983 Q1828.06 18.6515 1831.91 18.6515 Q1832.46 18.6515 1833.12 18.7383 Q1833.79 18.7962 1834.6 18.9409 L1834.63 24.4096 Z" fill="#000000" fill-rule="nonzero" fill-opacity="1" /><path clip-path="url(#clip520)" d="M1866.63 34.3054 L1866.63 36.9095 L1842.15 36.9095 Q1842.5 42.4072 1845.45 45.3007 Q1848.43 48.1653 1853.72 48.1653 Q1856.79 48.1653 1859.66 47.4129 Q1862.55 46.6606 1865.39 45.156 L1865.39 50.1907 Q1862.52 51.406 1859.51 52.0425 Q1856.5 52.6791 1853.41 52.6791 Q1845.65 52.6791 1841.11 48.1653 Q1836.6 43.6514 1836.6 35.9547 Q1836.6 27.9975 1840.88 23.339 Q1845.19 18.6515 1852.48 18.6515 Q1859.02 18.6515 1862.81 22.876 Q1866.63 27.0716 1866.63 34.3054 M1861.31 32.7429 Q1861.25 28.3737 1858.85 25.7695 Q1856.47 23.1654 1852.54 23.1654 Q1848.08 23.1654 1845.39 25.6827 Q1842.73 28.2001 1842.32 32.7718 L1861.31 32.7429 Z" fill="#000000" fill-rule="nonzero" fill-opacity="1" /><path clip-path="url(#clip520)" d="M1881.44 13.4432 L1881.44 29.6758 L1888.79 29.6758 Q1892.87 29.6758 1895.1 27.5635 Q1897.33 25.4513 1897.33 21.545 Q1897.33 17.6677 1895.1 15.5555 Q1892.87 13.4432 1888.79 13.4432 L1881.44 13.4432 M1875.6 8.64 L1888.79 8.64 Q1896.06 8.64 1899.76 11.9386 Q1903.49 15.2083 1903.49 21.545 Q1903.49 27.9397 1899.76 31.2093 Q1896.06 34.479 1888.79 34.479 L1881.44 34.479 L1881.44 51.84 L1875.6 51.84 L1875.6 8.64 Z" fill="#000000" fill-rule="nonzero" fill-opacity="1" /><path clip-path="url(#clip520)" d="M1923.17 35.5496 Q1916.72 35.5496 1914.23 37.0253 Q1911.74 38.501 1911.74 42.06 Q1911.74 44.8956 1913.59 46.5738 Q1915.47 48.2231 1918.68 48.2231 Q1923.11 48.2231 1925.77 45.0981 Q1928.46 41.9442 1928.46 36.7359 L1928.46 35.5496 L1923.17 35.5496 M1933.79 33.3505 L1933.79 51.84 L1928.46 51.84 L1928.46 46.921 Q1926.64 49.8724 1923.92 51.2902 Q1921.2 52.6791 1917.27 52.6791 Q1912.29 52.6791 1909.34 49.9014 Q1906.42 47.0947 1906.42 42.4072 Q1906.42 36.9385 1910.06 34.1607 Q1913.74 31.3829 1921 31.3829 L1928.46 31.3829 L1928.46 30.8621 Q1928.46 27.1874 1926.03 25.1908 Q1923.63 23.1654 1919.26 23.1654 Q1916.48 23.1654 1913.85 23.8309 Q1911.22 24.4964 1908.79 25.8274 L1908.79 20.9085 Q1911.71 19.78 1914.46 19.2302 Q1917.21 18.6515 1919.81 18.6515 Q1926.84 18.6515 1930.32 22.2973 Q1933.79 25.9431 1933.79 33.3505 Z" fill="#000000" fill-rule="nonzero" fill-opacity="1" /><path clip-path="url(#clip520)" d="M1950.02 10.2314 L1950.02 19.4328 L1960.99 19.4328 L1960.99 23.5705 L1950.02 23.5705 L1950.02 41.163 Q1950.02 45.1271 1951.09 46.2555 Q1952.19 47.384 1955.52 47.384 L1960.99 47.384 L1960.99 51.84 L1955.52 51.84 Q1949.36 51.84 1947.01 49.5541 Q1944.67 47.2393 1944.67 41.163 L1944.67 23.5705 L1940.76 23.5705 L1940.76 19.4328 L1944.67 19.4328 L1944.67 10.2314 L1950.02 10.2314 Z" fill="#000000" fill-rule="nonzero" fill-opacity="1" /><path clip-path="url(#clip520)" d="M1994.93 32.2799 L1994.93 51.84 L1989.6 51.84 L1989.6 32.4535 Q1989.6 27.8529 1987.81 25.567 Q1986.02 23.2811 1982.43 23.2811 Q1978.12 23.2811 1975.63 26.03 Q1973.14 28.7788 1973.14 33.5241 L1973.14 51.84 L1967.79 51.84 L1967.79 6.81709 L1973.14 6.81709 L1973.14 24.4675 Q1975.05 21.545 1977.62 20.0983 Q1980.23 18.6515 1983.61 18.6515 Q1989.2 18.6515 1992.06 22.1237 Q1994.93 25.567 1994.93 32.2799 Z" fill="#000000" fill-rule="nonzero" fill-opacity="1" /></svg>
