<?xml version="1.0" encoding="utf-8"?>
<svg xmlns="http://www.w3.org/2000/svg" xmlns:xlink="http://www.w3.org/1999/xlink" width="600" height="400" viewBox="0 0 2400 1600">
<defs>
  <clipPath id="clip340">
    <rect x="0" y="0" width="2400" height="1600"/>
  </clipPath>
</defs>
<path clip-path="url(#clip340)" d="M0 1600 L2400 1600 L2400 0 L0 0  Z" fill="#ffffff" fill-rule="evenodd" fill-opacity="1"/>
<defs>
  <clipPath id="clip341">
    <rect x="480" y="0" width="1681" height="1600"/>
  </clipPath>
</defs>
<path clip-path="url(#clip340)" d="M149.191 1423.18 L2352.76 1423.18 L2352.76 106.192 L149.191 106.192  Z" fill="#ffffff" fill-rule="evenodd" fill-opacity="1"/>
<defs>
  <clipPath id="clip342">
    <rect x="149" y="106" width="2205" height="1318"/>
  </clipPath>
</defs>
<polyline clip-path="url(#clip342)" style="stroke:#000000; stroke-linecap:round; stroke-linejoin:round; stroke-width:2; stroke-opacity:0.1; fill:none" points="211.556,1423.18 211.556,106.192 "/>
<polyline clip-path="url(#clip342)" style="stroke:#000000; stroke-linecap:round; stroke-linejoin:round; stroke-width:2; stroke-opacity:0.1; fill:none" points="820.433,1423.18 820.433,106.192 "/>
<polyline clip-path="url(#clip342)" style="stroke:#000000; stroke-linecap:round; stroke-linejoin:round; stroke-width:2; stroke-opacity:0.1; fill:none" points="1429.31,1423.18 1429.31,106.192 "/>
<polyline clip-path="url(#clip342)" style="stroke:#000000; stroke-linecap:round; stroke-linejoin:round; stroke-width:2; stroke-opacity:0.1; fill:none" points="2290.39,1423.18 2290.39,106.192 "/>
<polyline clip-path="url(#clip342)" style="stroke:#000000; stroke-linecap:round; stroke-linejoin:round; stroke-width:2; stroke-opacity:0.05; fill:none" points="150.668,1423.18 150.668,106.192 "/>
<polyline clip-path="url(#clip342)" style="stroke:#000000; stroke-linecap:round; stroke-linejoin:round; stroke-width:2; stroke-opacity:0.05; fill:none" points="272.444,1423.18 272.444,106.192 "/>
<polyline clip-path="url(#clip342)" style="stroke:#000000; stroke-linecap:round; stroke-linejoin:round; stroke-width:2; stroke-opacity:0.05; fill:none" points="333.331,1423.18 333.331,106.192 "/>
<polyline clip-path="url(#clip342)" style="stroke:#000000; stroke-linecap:round; stroke-linejoin:round; stroke-width:2; stroke-opacity:0.05; fill:none" points="394.219,1423.18 394.219,106.192 "/>
<polyline clip-path="url(#clip342)" style="stroke:#000000; stroke-linecap:round; stroke-linejoin:round; stroke-width:2; stroke-opacity:0.05; fill:none" points="455.107,1423.18 455.107,106.192 "/>
<polyline clip-path="url(#clip342)" style="stroke:#000000; stroke-linecap:round; stroke-linejoin:round; stroke-width:2; stroke-opacity:0.05; fill:none" points="515.994,1423.18 515.994,106.192 "/>
<polyline clip-path="url(#clip342)" style="stroke:#000000; stroke-linecap:round; stroke-linejoin:round; stroke-width:2; stroke-opacity:0.05; fill:none" points="576.882,1423.18 576.882,106.192 "/>
<polyline clip-path="url(#clip342)" style="stroke:#000000; stroke-linecap:round; stroke-linejoin:round; stroke-width:2; stroke-opacity:0.05; fill:none" points="637.77,1423.18 637.77,106.192 "/>
<polyline clip-path="url(#clip342)" style="stroke:#000000; stroke-linecap:round; stroke-linejoin:round; stroke-width:2; stroke-opacity:0.05; fill:none" points="698.657,1423.18 698.657,106.192 "/>
<polyline clip-path="url(#clip342)" style="stroke:#000000; stroke-linecap:round; stroke-linejoin:round; stroke-width:2; stroke-opacity:0.05; fill:none" points="759.545,1423.18 759.545,106.192 "/>
<polyline clip-path="url(#clip342)" style="stroke:#000000; stroke-linecap:round; stroke-linejoin:round; stroke-width:2; stroke-opacity:0.05; fill:none" points="881.32,1423.18 881.32,106.192 "/>
<polyline clip-path="url(#clip342)" style="stroke:#000000; stroke-linecap:round; stroke-linejoin:round; stroke-width:2; stroke-opacity:0.05; fill:none" points="942.208,1423.18 942.208,106.192 "/>
<polyline clip-path="url(#clip342)" style="stroke:#000000; stroke-linecap:round; stroke-linejoin:round; stroke-width:2; stroke-opacity:0.05; fill:none" points="1003.1,1423.18 1003.1,106.192 "/>
<polyline clip-path="url(#clip342)" style="stroke:#000000; stroke-linecap:round; stroke-linejoin:round; stroke-width:2; stroke-opacity:0.05; fill:none" points="1063.98,1423.18 1063.98,106.192 "/>
<polyline clip-path="url(#clip342)" style="stroke:#000000; stroke-linecap:round; stroke-linejoin:round; stroke-width:2; stroke-opacity:0.05; fill:none" points="1124.87,1423.18 1124.87,106.192 "/>
<polyline clip-path="url(#clip342)" style="stroke:#000000; stroke-linecap:round; stroke-linejoin:round; stroke-width:2; stroke-opacity:0.05; fill:none" points="1185.76,1423.18 1185.76,106.192 "/>
<polyline clip-path="url(#clip342)" style="stroke:#000000; stroke-linecap:round; stroke-linejoin:round; stroke-width:2; stroke-opacity:0.05; fill:none" points="1246.65,1423.18 1246.65,106.192 "/>
<polyline clip-path="url(#clip342)" style="stroke:#000000; stroke-linecap:round; stroke-linejoin:round; stroke-width:2; stroke-opacity:0.05; fill:none" points="1307.53,1423.18 1307.53,106.192 "/>
<polyline clip-path="url(#clip342)" style="stroke:#000000; stroke-linecap:round; stroke-linejoin:round; stroke-width:2; stroke-opacity:0.05; fill:none" points="1368.42,1423.18 1368.42,106.192 "/>
<polyline clip-path="url(#clip342)" style="stroke:#000000; stroke-linecap:round; stroke-linejoin:round; stroke-width:2; stroke-opacity:0.05; fill:none" points="1515.42,1423.18 1515.42,106.192 "/>
<polyline clip-path="url(#clip342)" style="stroke:#000000; stroke-linecap:round; stroke-linejoin:round; stroke-width:2; stroke-opacity:0.05; fill:none" points="1601.53,1423.18 1601.53,106.192 "/>
<polyline clip-path="url(#clip342)" style="stroke:#000000; stroke-linecap:round; stroke-linejoin:round; stroke-width:2; stroke-opacity:0.05; fill:none" points="1687.63,1423.18 1687.63,106.192 "/>
<polyline clip-path="url(#clip342)" style="stroke:#000000; stroke-linecap:round; stroke-linejoin:round; stroke-width:2; stroke-opacity:0.05; fill:none" points="1773.74,1423.18 1773.74,106.192 "/>
<polyline clip-path="url(#clip342)" style="stroke:#000000; stroke-linecap:round; stroke-linejoin:round; stroke-width:2; stroke-opacity:0.05; fill:none" points="1859.85,1423.18 1859.85,106.192 "/>
<polyline clip-path="url(#clip342)" style="stroke:#000000; stroke-linecap:round; stroke-linejoin:round; stroke-width:2; stroke-opacity:0.05; fill:none" points="1945.96,1423.18 1945.96,106.192 "/>
<polyline clip-path="url(#clip342)" style="stroke:#000000; stroke-linecap:round; stroke-linejoin:round; stroke-width:2; stroke-opacity:0.05; fill:none" points="2032.07,1423.18 2032.07,106.192 "/>
<polyline clip-path="url(#clip342)" style="stroke:#000000; stroke-linecap:round; stroke-linejoin:round; stroke-width:2; stroke-opacity:0.05; fill:none" points="2118.17,1423.18 2118.17,106.192 "/>
<polyline clip-path="url(#clip342)" style="stroke:#000000; stroke-linecap:round; stroke-linejoin:round; stroke-width:2; stroke-opacity:0.05; fill:none" points="2204.28,1423.18 2204.28,106.192 "/>
<polyline clip-path="url(#clip340)" style="stroke:#000000; stroke-linecap:round; stroke-linejoin:round; stroke-width:4; stroke-opacity:1; fill:none" points="149.191,1423.18 2352.76,1423.18 "/>
<polyline clip-path="url(#clip340)" style="stroke:#000000; stroke-linecap:round; stroke-linejoin:round; stroke-width:4; stroke-opacity:1; fill:none" points="211.556,1423.18 211.556,1404.28 "/>
<polyline clip-path="url(#clip340)" style="stroke:#000000; stroke-linecap:round; stroke-linejoin:round; stroke-width:4; stroke-opacity:1; fill:none" points="820.433,1423.18 820.433,1404.28 "/>
<polyline clip-path="url(#clip340)" style="stroke:#000000; stroke-linecap:round; stroke-linejoin:round; stroke-width:4; stroke-opacity:1; fill:none" points="1429.31,1423.18 1429.31,1404.28 "/>
<polyline clip-path="url(#clip340)" style="stroke:#000000; stroke-linecap:round; stroke-linejoin:round; stroke-width:4; stroke-opacity:1; fill:none" points="2290.39,1423.18 2290.39,1404.28 "/>
<polyline clip-path="url(#clip340)" style="stroke:#000000; stroke-linecap:round; stroke-linejoin:round; stroke-width:4; stroke-opacity:1; fill:none" points="150.668,1423.18 150.668,1413.73 "/>
<polyline clip-path="url(#clip340)" style="stroke:#000000; stroke-linecap:round; stroke-linejoin:round; stroke-width:4; stroke-opacity:1; fill:none" points="272.444,1423.18 272.444,1413.73 "/>
<polyline clip-path="url(#clip340)" style="stroke:#000000; stroke-linecap:round; stroke-linejoin:round; stroke-width:4; stroke-opacity:1; fill:none" points="333.331,1423.18 333.331,1413.73 "/>
<polyline clip-path="url(#clip340)" style="stroke:#000000; stroke-linecap:round; stroke-linejoin:round; stroke-width:4; stroke-opacity:1; fill:none" points="394.219,1423.18 394.219,1413.73 "/>
<polyline clip-path="url(#clip340)" style="stroke:#000000; stroke-linecap:round; stroke-linejoin:round; stroke-width:4; stroke-opacity:1; fill:none" points="455.107,1423.18 455.107,1413.73 "/>
<polyline clip-path="url(#clip340)" style="stroke:#000000; stroke-linecap:round; stroke-linejoin:round; stroke-width:4; stroke-opacity:1; fill:none" points="515.994,1423.18 515.994,1413.73 "/>
<polyline clip-path="url(#clip340)" style="stroke:#000000; stroke-linecap:round; stroke-linejoin:round; stroke-width:4; stroke-opacity:1; fill:none" points="576.882,1423.18 576.882,1413.73 "/>
<polyline clip-path="url(#clip340)" style="stroke:#000000; stroke-linecap:round; stroke-linejoin:round; stroke-width:4; stroke-opacity:1; fill:none" points="637.77,1423.18 637.77,1413.73 "/>
<polyline clip-path="url(#clip340)" style="stroke:#000000; stroke-linecap:round; stroke-linejoin:round; stroke-width:4; stroke-opacity:1; fill:none" points="698.657,1423.18 698.657,1413.73 "/>
<polyline clip-path="url(#clip340)" style="stroke:#000000; stroke-linecap:round; stroke-linejoin:round; stroke-width:4; stroke-opacity:1; fill:none" points="759.545,1423.18 759.545,1413.73 "/>
<polyline clip-path="url(#clip340)" style="stroke:#000000; stroke-linecap:round; stroke-linejoin:round; stroke-width:4; stroke-opacity:1; fill:none" points="881.32,1423.18 881.32,1413.73 "/>
<polyline clip-path="url(#clip340)" style="stroke:#000000; stroke-linecap:round; stroke-linejoin:round; stroke-width:4; stroke-opacity:1; fill:none" points="942.208,1423.18 942.208,1413.73 "/>
<polyline clip-path="url(#clip340)" style="stroke:#000000; stroke-linecap:round; stroke-linejoin:round; stroke-width:4; stroke-opacity:1; fill:none" points="1003.1,1423.18 1003.1,1413.73 "/>
<polyline clip-path="url(#clip340)" style="stroke:#000000; stroke-linecap:round; stroke-linejoin:round; stroke-width:4; stroke-opacity:1; fill:none" points="1063.98,1423.18 1063.98,1413.73 "/>
<polyline clip-path="url(#clip340)" style="stroke:#000000; stroke-linecap:round; stroke-linejoin:round; stroke-width:4; stroke-opacity:1; fill:none" points="1124.87,1423.18 1124.87,1413.73 "/>
<polyline clip-path="url(#clip340)" style="stroke:#000000; stroke-linecap:round; stroke-linejoin:round; stroke-width:4; stroke-opacity:1; fill:none" points="1185.76,1423.18 1185.76,1413.73 "/>
<polyline clip-path="url(#clip340)" style="stroke:#000000; stroke-linecap:round; stroke-linejoin:round; stroke-width:4; stroke-opacity:1; fill:none" points="1246.65,1423.18 1246.65,1413.73 "/>
<polyline clip-path="url(#clip340)" style="stroke:#000000; stroke-linecap:round; stroke-linejoin:round; stroke-width:4; stroke-opacity:1; fill:none" points="1307.53,1423.18 1307.53,1413.73 "/>
<polyline clip-path="url(#clip340)" style="stroke:#000000; stroke-linecap:round; stroke-linejoin:round; stroke-width:4; stroke-opacity:1; fill:none" points="1368.42,1423.18 1368.42,1413.73 "/>
<polyline clip-path="url(#clip340)" style="stroke:#000000; stroke-linecap:round; stroke-linejoin:round; stroke-width:4; stroke-opacity:1; fill:none" points="1515.42,1423.18 1515.42,1413.73 "/>
<polyline clip-path="url(#clip340)" style="stroke:#000000; stroke-linecap:round; stroke-linejoin:round; stroke-width:4; stroke-opacity:1; fill:none" points="1601.53,1423.18 1601.53,1413.73 "/>
<polyline clip-path="url(#clip340)" style="stroke:#000000; stroke-linecap:round; stroke-linejoin:round; stroke-width:4; stroke-opacity:1; fill:none" points="1687.63,1423.18 1687.63,1413.73 "/>
<polyline clip-path="url(#clip340)" style="stroke:#000000; stroke-linecap:round; stroke-linejoin:round; stroke-width:4; stroke-opacity:1; fill:none" points="1773.74,1423.18 1773.74,1413.73 "/>
<polyline clip-path="url(#clip340)" style="stroke:#000000; stroke-linecap:round; stroke-linejoin:round; stroke-width:4; stroke-opacity:1; fill:none" points="1859.85,1423.18 1859.85,1413.73 "/>
<polyline clip-path="url(#clip340)" style="stroke:#000000; stroke-linecap:round; stroke-linejoin:round; stroke-width:4; stroke-opacity:1; fill:none" points="1945.96,1423.18 1945.96,1413.73 "/>
<polyline clip-path="url(#clip340)" style="stroke:#000000; stroke-linecap:round; stroke-linejoin:round; stroke-width:4; stroke-opacity:1; fill:none" points="2032.07,1423.18 2032.07,1413.73 "/>
<polyline clip-path="url(#clip340)" style="stroke:#000000; stroke-linecap:round; stroke-linejoin:round; stroke-width:4; stroke-opacity:1; fill:none" points="2118.17,1423.18 2118.17,1413.73 "/>
<polyline clip-path="url(#clip340)" style="stroke:#000000; stroke-linecap:round; stroke-linejoin:round; stroke-width:4; stroke-opacity:1; fill:none" points="2204.28,1423.18 2204.28,1413.73 "/>
<path clip-path="url(#clip340)" d="M200.804 1485.58 L200.804 1451.02 L222.308 1451.02 L222.308 1454.96 L205.48 1454.96 L205.48 1485.58 L200.804 1485.58 Z" fill="#000000" fill-rule="nonzero" fill-opacity="1" /><path clip-path="url(#clip340)" d="M807.215 1451.02 L812.238 1451.02 L820.826 1463.87 L829.46 1451.02 L834.483 1451.02 L823.372 1467.62 L835.224 1485.58 L830.201 1485.58 L820.479 1470.88 L810.687 1485.58 L805.641 1485.58 L817.979 1467.13 L807.215 1451.02 Z" fill="#000000" fill-rule="nonzero" fill-opacity="1" /><path clip-path="url(#clip340)" d="M1413.5 1451.02 L1420.47 1451.02 L1429.29 1474.54 L1438.15 1451.02 L1445.12 1451.02 L1445.12 1485.58 L1440.56 1485.58 L1440.56 1455.23 L1431.65 1478.94 L1426.95 1478.94 L1418.04 1455.23 L1418.04 1485.58 L1413.5 1485.58 L1413.5 1451.02 Z" fill="#000000" fill-rule="nonzero" fill-opacity="1" /><path clip-path="url(#clip340)" d="M2279.64 1485.58 L2279.64 1451.02 L2301.14 1451.02 L2301.14 1454.96 L2284.31 1454.96 L2284.31 1485.58 L2279.64 1485.58 Z" fill="#000000" fill-rule="nonzero" fill-opacity="1" /><path clip-path="url(#clip340)" d="M1235.15 1518.52 L1241.04 1518.52 L1241.04 1547.77 L1258.52 1532.4 L1266 1532.4 L1247.09 1549.07 L1266.79 1568.04 L1259.15 1568.04 L1241.04 1550.63 L1241.04 1568.04 L1235.15 1568.04 L1235.15 1518.52 Z" fill="#000000" fill-rule="nonzero" fill-opacity="1" /><polyline clip-path="url(#clip342)" style="stroke:#000000; stroke-linecap:round; stroke-linejoin:round; stroke-width:2; stroke-opacity:0.1; fill:none" points="149.191,1261.66 2352.76,1261.66 "/>
<polyline clip-path="url(#clip342)" style="stroke:#000000; stroke-linecap:round; stroke-linejoin:round; stroke-width:2; stroke-opacity:0.1; fill:none" points="149.191,1096 2352.76,1096 "/>
<polyline clip-path="url(#clip342)" style="stroke:#000000; stroke-linecap:round; stroke-linejoin:round; stroke-width:2; stroke-opacity:0.1; fill:none" points="149.191,930.345 2352.76,930.345 "/>
<polyline clip-path="url(#clip342)" style="stroke:#000000; stroke-linecap:round; stroke-linejoin:round; stroke-width:2; stroke-opacity:0.1; fill:none" points="149.191,764.686 2352.76,764.686 "/>
<polyline clip-path="url(#clip342)" style="stroke:#000000; stroke-linecap:round; stroke-linejoin:round; stroke-width:2; stroke-opacity:0.1; fill:none" points="149.191,599.027 2352.76,599.027 "/>
<polyline clip-path="url(#clip342)" style="stroke:#000000; stroke-linecap:round; stroke-linejoin:round; stroke-width:2; stroke-opacity:0.1; fill:none" points="149.191,433.368 2352.76,433.368 "/>
<polyline clip-path="url(#clip342)" style="stroke:#000000; stroke-linecap:round; stroke-linejoin:round; stroke-width:2; stroke-opacity:0.1; fill:none" points="149.191,267.709 2352.76,267.709 "/>
<polyline clip-path="url(#clip342)" style="stroke:#000000; stroke-linecap:round; stroke-linejoin:round; stroke-width:2; stroke-opacity:0.05; fill:none" points="149.191,1410.76 2352.76,1410.76 "/>
<polyline clip-path="url(#clip342)" style="stroke:#000000; stroke-linecap:round; stroke-linejoin:round; stroke-width:2; stroke-opacity:0.05; fill:none" points="149.191,1394.19 2352.76,1394.19 "/>
<polyline clip-path="url(#clip342)" style="stroke:#000000; stroke-linecap:round; stroke-linejoin:round; stroke-width:2; stroke-opacity:0.05; fill:none" points="149.191,1377.62 2352.76,1377.62 "/>
<polyline clip-path="url(#clip342)" style="stroke:#000000; stroke-linecap:round; stroke-linejoin:round; stroke-width:2; stroke-opacity:0.05; fill:none" points="149.191,1361.06 2352.76,1361.06 "/>
<polyline clip-path="url(#clip342)" style="stroke:#000000; stroke-linecap:round; stroke-linejoin:round; stroke-width:2; stroke-opacity:0.05; fill:none" points="149.191,1344.49 2352.76,1344.49 "/>
<polyline clip-path="url(#clip342)" style="stroke:#000000; stroke-linecap:round; stroke-linejoin:round; stroke-width:2; stroke-opacity:0.05; fill:none" points="149.191,1327.93 2352.76,1327.93 "/>
<polyline clip-path="url(#clip342)" style="stroke:#000000; stroke-linecap:round; stroke-linejoin:round; stroke-width:2; stroke-opacity:0.05; fill:none" points="149.191,1311.36 2352.76,1311.36 "/>
<polyline clip-path="url(#clip342)" style="stroke:#000000; stroke-linecap:round; stroke-linejoin:round; stroke-width:2; stroke-opacity:0.05; fill:none" points="149.191,1294.79 2352.76,1294.79 "/>
<polyline clip-path="url(#clip342)" style="stroke:#000000; stroke-linecap:round; stroke-linejoin:round; stroke-width:2; stroke-opacity:0.05; fill:none" points="149.191,1278.23 2352.76,1278.23 "/>
<polyline clip-path="url(#clip342)" style="stroke:#000000; stroke-linecap:round; stroke-linejoin:round; stroke-width:2; stroke-opacity:0.05; fill:none" points="149.191,1245.1 2352.76,1245.1 "/>
<polyline clip-path="url(#clip342)" style="stroke:#000000; stroke-linecap:round; stroke-linejoin:round; stroke-width:2; stroke-opacity:0.05; fill:none" points="149.191,1228.53 2352.76,1228.53 "/>
<polyline clip-path="url(#clip342)" style="stroke:#000000; stroke-linecap:round; stroke-linejoin:round; stroke-width:2; stroke-opacity:0.05; fill:none" points="149.191,1211.96 2352.76,1211.96 "/>
<polyline clip-path="url(#clip342)" style="stroke:#000000; stroke-linecap:round; stroke-linejoin:round; stroke-width:2; stroke-opacity:0.05; fill:none" points="149.191,1195.4 2352.76,1195.4 "/>
<polyline clip-path="url(#clip342)" style="stroke:#000000; stroke-linecap:round; stroke-linejoin:round; stroke-width:2; stroke-opacity:0.05; fill:none" points="149.191,1178.83 2352.76,1178.83 "/>
<polyline clip-path="url(#clip342)" style="stroke:#000000; stroke-linecap:round; stroke-linejoin:round; stroke-width:2; stroke-opacity:0.05; fill:none" points="149.191,1162.27 2352.76,1162.27 "/>
<polyline clip-path="url(#clip342)" style="stroke:#000000; stroke-linecap:round; stroke-linejoin:round; stroke-width:2; stroke-opacity:0.05; fill:none" points="149.191,1145.7 2352.76,1145.7 "/>
<polyline clip-path="url(#clip342)" style="stroke:#000000; stroke-linecap:round; stroke-linejoin:round; stroke-width:2; stroke-opacity:0.05; fill:none" points="149.191,1129.14 2352.76,1129.14 "/>
<polyline clip-path="url(#clip342)" style="stroke:#000000; stroke-linecap:round; stroke-linejoin:round; stroke-width:2; stroke-opacity:0.05; fill:none" points="149.191,1112.57 2352.76,1112.57 "/>
<polyline clip-path="url(#clip342)" style="stroke:#000000; stroke-linecap:round; stroke-linejoin:round; stroke-width:2; stroke-opacity:0.05; fill:none" points="149.191,1079.44 2352.76,1079.44 "/>
<polyline clip-path="url(#clip342)" style="stroke:#000000; stroke-linecap:round; stroke-linejoin:round; stroke-width:2; stroke-opacity:0.05; fill:none" points="149.191,1062.87 2352.76,1062.87 "/>
<polyline clip-path="url(#clip342)" style="stroke:#000000; stroke-linecap:round; stroke-linejoin:round; stroke-width:2; stroke-opacity:0.05; fill:none" points="149.191,1046.31 2352.76,1046.31 "/>
<polyline clip-path="url(#clip342)" style="stroke:#000000; stroke-linecap:round; stroke-linejoin:round; stroke-width:2; stroke-opacity:0.05; fill:none" points="149.191,1029.74 2352.76,1029.74 "/>
<polyline clip-path="url(#clip342)" style="stroke:#000000; stroke-linecap:round; stroke-linejoin:round; stroke-width:2; stroke-opacity:0.05; fill:none" points="149.191,1013.17 2352.76,1013.17 "/>
<polyline clip-path="url(#clip342)" style="stroke:#000000; stroke-linecap:round; stroke-linejoin:round; stroke-width:2; stroke-opacity:0.05; fill:none" points="149.191,996.608 2352.76,996.608 "/>
<polyline clip-path="url(#clip342)" style="stroke:#000000; stroke-linecap:round; stroke-linejoin:round; stroke-width:2; stroke-opacity:0.05; fill:none" points="149.191,980.042 2352.76,980.042 "/>
<polyline clip-path="url(#clip342)" style="stroke:#000000; stroke-linecap:round; stroke-linejoin:round; stroke-width:2; stroke-opacity:0.05; fill:none" points="149.191,963.477 2352.76,963.477 "/>
<polyline clip-path="url(#clip342)" style="stroke:#000000; stroke-linecap:round; stroke-linejoin:round; stroke-width:2; stroke-opacity:0.05; fill:none" points="149.191,946.911 2352.76,946.911 "/>
<polyline clip-path="url(#clip342)" style="stroke:#000000; stroke-linecap:round; stroke-linejoin:round; stroke-width:2; stroke-opacity:0.05; fill:none" points="149.191,913.779 2352.76,913.779 "/>
<polyline clip-path="url(#clip342)" style="stroke:#000000; stroke-linecap:round; stroke-linejoin:round; stroke-width:2; stroke-opacity:0.05; fill:none" points="149.191,897.213 2352.76,897.213 "/>
<polyline clip-path="url(#clip342)" style="stroke:#000000; stroke-linecap:round; stroke-linejoin:round; stroke-width:2; stroke-opacity:0.05; fill:none" points="149.191,880.647 2352.76,880.647 "/>
<polyline clip-path="url(#clip342)" style="stroke:#000000; stroke-linecap:round; stroke-linejoin:round; stroke-width:2; stroke-opacity:0.05; fill:none" points="149.191,864.081 2352.76,864.081 "/>
<polyline clip-path="url(#clip342)" style="stroke:#000000; stroke-linecap:round; stroke-linejoin:round; stroke-width:2; stroke-opacity:0.05; fill:none" points="149.191,847.515 2352.76,847.515 "/>
<polyline clip-path="url(#clip342)" style="stroke:#000000; stroke-linecap:round; stroke-linejoin:round; stroke-width:2; stroke-opacity:0.05; fill:none" points="149.191,830.95 2352.76,830.95 "/>
<polyline clip-path="url(#clip342)" style="stroke:#000000; stroke-linecap:round; stroke-linejoin:round; stroke-width:2; stroke-opacity:0.05; fill:none" points="149.191,814.384 2352.76,814.384 "/>
<polyline clip-path="url(#clip342)" style="stroke:#000000; stroke-linecap:round; stroke-linejoin:round; stroke-width:2; stroke-opacity:0.05; fill:none" points="149.191,797.818 2352.76,797.818 "/>
<polyline clip-path="url(#clip342)" style="stroke:#000000; stroke-linecap:round; stroke-linejoin:round; stroke-width:2; stroke-opacity:0.05; fill:none" points="149.191,781.252 2352.76,781.252 "/>
<polyline clip-path="url(#clip342)" style="stroke:#000000; stroke-linecap:round; stroke-linejoin:round; stroke-width:2; stroke-opacity:0.05; fill:none" points="149.191,748.12 2352.76,748.12 "/>
<polyline clip-path="url(#clip342)" style="stroke:#000000; stroke-linecap:round; stroke-linejoin:round; stroke-width:2; stroke-opacity:0.05; fill:none" points="149.191,731.554 2352.76,731.554 "/>
<polyline clip-path="url(#clip342)" style="stroke:#000000; stroke-linecap:round; stroke-linejoin:round; stroke-width:2; stroke-opacity:0.05; fill:none" points="149.191,714.988 2352.76,714.988 "/>
<polyline clip-path="url(#clip342)" style="stroke:#000000; stroke-linecap:round; stroke-linejoin:round; stroke-width:2; stroke-opacity:0.05; fill:none" points="149.191,698.422 2352.76,698.422 "/>
<polyline clip-path="url(#clip342)" style="stroke:#000000; stroke-linecap:round; stroke-linejoin:round; stroke-width:2; stroke-opacity:0.05; fill:none" points="149.191,681.857 2352.76,681.857 "/>
<polyline clip-path="url(#clip342)" style="stroke:#000000; stroke-linecap:round; stroke-linejoin:round; stroke-width:2; stroke-opacity:0.05; fill:none" points="149.191,665.291 2352.76,665.291 "/>
<polyline clip-path="url(#clip342)" style="stroke:#000000; stroke-linecap:round; stroke-linejoin:round; stroke-width:2; stroke-opacity:0.05; fill:none" points="149.191,648.725 2352.76,648.725 "/>
<polyline clip-path="url(#clip342)" style="stroke:#000000; stroke-linecap:round; stroke-linejoin:round; stroke-width:2; stroke-opacity:0.05; fill:none" points="149.191,632.159 2352.76,632.159 "/>
<polyline clip-path="url(#clip342)" style="stroke:#000000; stroke-linecap:round; stroke-linejoin:round; stroke-width:2; stroke-opacity:0.05; fill:none" points="149.191,615.593 2352.76,615.593 "/>
<polyline clip-path="url(#clip342)" style="stroke:#000000; stroke-linecap:round; stroke-linejoin:round; stroke-width:2; stroke-opacity:0.05; fill:none" points="149.191,582.461 2352.76,582.461 "/>
<polyline clip-path="url(#clip342)" style="stroke:#000000; stroke-linecap:round; stroke-linejoin:round; stroke-width:2; stroke-opacity:0.05; fill:none" points="149.191,565.895 2352.76,565.895 "/>
<polyline clip-path="url(#clip342)" style="stroke:#000000; stroke-linecap:round; stroke-linejoin:round; stroke-width:2; stroke-opacity:0.05; fill:none" points="149.191,549.33 2352.76,549.33 "/>
<polyline clip-path="url(#clip342)" style="stroke:#000000; stroke-linecap:round; stroke-linejoin:round; stroke-width:2; stroke-opacity:0.05; fill:none" points="149.191,532.764 2352.76,532.764 "/>
<polyline clip-path="url(#clip342)" style="stroke:#000000; stroke-linecap:round; stroke-linejoin:round; stroke-width:2; stroke-opacity:0.05; fill:none" points="149.191,516.198 2352.76,516.198 "/>
<polyline clip-path="url(#clip342)" style="stroke:#000000; stroke-linecap:round; stroke-linejoin:round; stroke-width:2; stroke-opacity:0.05; fill:none" points="149.191,499.632 2352.76,499.632 "/>
<polyline clip-path="url(#clip342)" style="stroke:#000000; stroke-linecap:round; stroke-linejoin:round; stroke-width:2; stroke-opacity:0.05; fill:none" points="149.191,483.066 2352.76,483.066 "/>
<polyline clip-path="url(#clip342)" style="stroke:#000000; stroke-linecap:round; stroke-linejoin:round; stroke-width:2; stroke-opacity:0.05; fill:none" points="149.191,466.5 2352.76,466.5 "/>
<polyline clip-path="url(#clip342)" style="stroke:#000000; stroke-linecap:round; stroke-linejoin:round; stroke-width:2; stroke-opacity:0.05; fill:none" points="149.191,449.934 2352.76,449.934 "/>
<polyline clip-path="url(#clip342)" style="stroke:#000000; stroke-linecap:round; stroke-linejoin:round; stroke-width:2; stroke-opacity:0.05; fill:none" points="149.191,416.802 2352.76,416.802 "/>
<polyline clip-path="url(#clip342)" style="stroke:#000000; stroke-linecap:round; stroke-linejoin:round; stroke-width:2; stroke-opacity:0.05; fill:none" points="149.191,400.237 2352.76,400.237 "/>
<polyline clip-path="url(#clip342)" style="stroke:#000000; stroke-linecap:round; stroke-linejoin:round; stroke-width:2; stroke-opacity:0.05; fill:none" points="149.191,383.671 2352.76,383.671 "/>
<polyline clip-path="url(#clip342)" style="stroke:#000000; stroke-linecap:round; stroke-linejoin:round; stroke-width:2; stroke-opacity:0.05; fill:none" points="149.191,367.105 2352.76,367.105 "/>
<polyline clip-path="url(#clip342)" style="stroke:#000000; stroke-linecap:round; stroke-linejoin:round; stroke-width:2; stroke-opacity:0.05; fill:none" points="149.191,350.539 2352.76,350.539 "/>
<polyline clip-path="url(#clip342)" style="stroke:#000000; stroke-linecap:round; stroke-linejoin:round; stroke-width:2; stroke-opacity:0.05; fill:none" points="149.191,333.973 2352.76,333.973 "/>
<polyline clip-path="url(#clip342)" style="stroke:#000000; stroke-linecap:round; stroke-linejoin:round; stroke-width:2; stroke-opacity:0.05; fill:none" points="149.191,317.407 2352.76,317.407 "/>
<polyline clip-path="url(#clip342)" style="stroke:#000000; stroke-linecap:round; stroke-linejoin:round; stroke-width:2; stroke-opacity:0.05; fill:none" points="149.191,300.841 2352.76,300.841 "/>
<polyline clip-path="url(#clip342)" style="stroke:#000000; stroke-linecap:round; stroke-linejoin:round; stroke-width:2; stroke-opacity:0.05; fill:none" points="149.191,284.275 2352.76,284.275 "/>
<polyline clip-path="url(#clip342)" style="stroke:#000000; stroke-linecap:round; stroke-linejoin:round; stroke-width:2; stroke-opacity:0.05; fill:none" points="149.191,251.144 2352.76,251.144 "/>
<polyline clip-path="url(#clip342)" style="stroke:#000000; stroke-linecap:round; stroke-linejoin:round; stroke-width:2; stroke-opacity:0.05; fill:none" points="149.191,234.578 2352.76,234.578 "/>
<polyline clip-path="url(#clip342)" style="stroke:#000000; stroke-linecap:round; stroke-linejoin:round; stroke-width:2; stroke-opacity:0.05; fill:none" points="149.191,218.012 2352.76,218.012 "/>
<polyline clip-path="url(#clip342)" style="stroke:#000000; stroke-linecap:round; stroke-linejoin:round; stroke-width:2; stroke-opacity:0.05; fill:none" points="149.191,201.446 2352.76,201.446 "/>
<polyline clip-path="url(#clip342)" style="stroke:#000000; stroke-linecap:round; stroke-linejoin:round; stroke-width:2; stroke-opacity:0.05; fill:none" points="149.191,184.88 2352.76,184.88 "/>
<polyline clip-path="url(#clip342)" style="stroke:#000000; stroke-linecap:round; stroke-linejoin:round; stroke-width:2; stroke-opacity:0.05; fill:none" points="149.191,168.314 2352.76,168.314 "/>
<polyline clip-path="url(#clip342)" style="stroke:#000000; stroke-linecap:round; stroke-linejoin:round; stroke-width:2; stroke-opacity:0.05; fill:none" points="149.191,151.748 2352.76,151.748 "/>
<polyline clip-path="url(#clip342)" style="stroke:#000000; stroke-linecap:round; stroke-linejoin:round; stroke-width:2; stroke-opacity:0.05; fill:none" points="149.191,135.182 2352.76,135.182 "/>
<polyline clip-path="url(#clip342)" style="stroke:#000000; stroke-linecap:round; stroke-linejoin:round; stroke-width:2; stroke-opacity:0.05; fill:none" points="149.191,118.617 2352.76,118.617 "/>
<polyline clip-path="url(#clip340)" style="stroke:#000000; stroke-linecap:round; stroke-linejoin:round; stroke-width:4; stroke-opacity:1; fill:none" points="149.191,1423.18 149.191,106.192 "/>
<polyline clip-path="url(#clip340)" style="stroke:#000000; stroke-linecap:round; stroke-linejoin:round; stroke-width:4; stroke-opacity:1; fill:none" points="149.191,1261.66 168.089,1261.66 "/>
<polyline clip-path="url(#clip340)" style="stroke:#000000; stroke-linecap:round; stroke-linejoin:round; stroke-width:4; stroke-opacity:1; fill:none" points="149.191,1096 168.089,1096 "/>
<polyline clip-path="url(#clip340)" style="stroke:#000000; stroke-linecap:round; stroke-linejoin:round; stroke-width:4; stroke-opacity:1; fill:none" points="149.191,930.345 168.089,930.345 "/>
<polyline clip-path="url(#clip340)" style="stroke:#000000; stroke-linecap:round; stroke-linejoin:round; stroke-width:4; stroke-opacity:1; fill:none" points="149.191,764.686 168.089,764.686 "/>
<polyline clip-path="url(#clip340)" style="stroke:#000000; stroke-linecap:round; stroke-linejoin:round; stroke-width:4; stroke-opacity:1; fill:none" points="149.191,599.027 168.089,599.027 "/>
<polyline clip-path="url(#clip340)" style="stroke:#000000; stroke-linecap:round; stroke-linejoin:round; stroke-width:4; stroke-opacity:1; fill:none" points="149.191,433.368 168.089,433.368 "/>
<polyline clip-path="url(#clip340)" style="stroke:#000000; stroke-linecap:round; stroke-linejoin:round; stroke-width:4; stroke-opacity:1; fill:none" points="149.191,267.709 168.089,267.709 "/>
<polyline clip-path="url(#clip340)" style="stroke:#000000; stroke-linecap:round; stroke-linejoin:round; stroke-width:4; stroke-opacity:1; fill:none" points="149.191,1410.76 158.64,1410.76 "/>
<polyline clip-path="url(#clip340)" style="stroke:#000000; stroke-linecap:round; stroke-linejoin:round; stroke-width:4; stroke-opacity:1; fill:none" points="149.191,1394.19 158.64,1394.19 "/>
<polyline clip-path="url(#clip340)" style="stroke:#000000; stroke-linecap:round; stroke-linejoin:round; stroke-width:4; stroke-opacity:1; fill:none" points="149.191,1377.62 158.64,1377.62 "/>
<polyline clip-path="url(#clip340)" style="stroke:#000000; stroke-linecap:round; stroke-linejoin:round; stroke-width:4; stroke-opacity:1; fill:none" points="149.191,1361.06 158.64,1361.06 "/>
<polyline clip-path="url(#clip340)" style="stroke:#000000; stroke-linecap:round; stroke-linejoin:round; stroke-width:4; stroke-opacity:1; fill:none" points="149.191,1344.49 158.64,1344.49 "/>
<polyline clip-path="url(#clip340)" style="stroke:#000000; stroke-linecap:round; stroke-linejoin:round; stroke-width:4; stroke-opacity:1; fill:none" points="149.191,1327.93 158.64,1327.93 "/>
<polyline clip-path="url(#clip340)" style="stroke:#000000; stroke-linecap:round; stroke-linejoin:round; stroke-width:4; stroke-opacity:1; fill:none" points="149.191,1311.36 158.64,1311.36 "/>
<polyline clip-path="url(#clip340)" style="stroke:#000000; stroke-linecap:round; stroke-linejoin:round; stroke-width:4; stroke-opacity:1; fill:none" points="149.191,1294.79 158.64,1294.79 "/>
<polyline clip-path="url(#clip340)" style="stroke:#000000; stroke-linecap:round; stroke-linejoin:round; stroke-width:4; stroke-opacity:1; fill:none" points="149.191,1278.23 158.64,1278.23 "/>
<polyline clip-path="url(#clip340)" style="stroke:#000000; stroke-linecap:round; stroke-linejoin:round; stroke-width:4; stroke-opacity:1; fill:none" points="149.191,1245.1 158.64,1245.1 "/>
<polyline clip-path="url(#clip340)" style="stroke:#000000; stroke-linecap:round; stroke-linejoin:round; stroke-width:4; stroke-opacity:1; fill:none" points="149.191,1228.53 158.64,1228.53 "/>
<polyline clip-path="url(#clip340)" style="stroke:#000000; stroke-linecap:round; stroke-linejoin:round; stroke-width:4; stroke-opacity:1; fill:none" points="149.191,1211.96 158.64,1211.96 "/>
<polyline clip-path="url(#clip340)" style="stroke:#000000; stroke-linecap:round; stroke-linejoin:round; stroke-width:4; stroke-opacity:1; fill:none" points="149.191,1195.4 158.64,1195.4 "/>
<polyline clip-path="url(#clip340)" style="stroke:#000000; stroke-linecap:round; stroke-linejoin:round; stroke-width:4; stroke-opacity:1; fill:none" points="149.191,1178.83 158.64,1178.83 "/>
<polyline clip-path="url(#clip340)" style="stroke:#000000; stroke-linecap:round; stroke-linejoin:round; stroke-width:4; stroke-opacity:1; fill:none" points="149.191,1162.27 158.64,1162.27 "/>
<polyline clip-path="url(#clip340)" style="stroke:#000000; stroke-linecap:round; stroke-linejoin:round; stroke-width:4; stroke-opacity:1; fill:none" points="149.191,1145.7 158.64,1145.7 "/>
<polyline clip-path="url(#clip340)" style="stroke:#000000; stroke-linecap:round; stroke-linejoin:round; stroke-width:4; stroke-opacity:1; fill:none" points="149.191,1129.14 158.64,1129.14 "/>
<polyline clip-path="url(#clip340)" style="stroke:#000000; stroke-linecap:round; stroke-linejoin:round; stroke-width:4; stroke-opacity:1; fill:none" points="149.191,1112.57 158.64,1112.57 "/>
<polyline clip-path="url(#clip340)" style="stroke:#000000; stroke-linecap:round; stroke-linejoin:round; stroke-width:4; stroke-opacity:1; fill:none" points="149.191,1079.44 158.64,1079.44 "/>
<polyline clip-path="url(#clip340)" style="stroke:#000000; stroke-linecap:round; stroke-linejoin:round; stroke-width:4; stroke-opacity:1; fill:none" points="149.191,1062.87 158.64,1062.87 "/>
<polyline clip-path="url(#clip340)" style="stroke:#000000; stroke-linecap:round; stroke-linejoin:round; stroke-width:4; stroke-opacity:1; fill:none" points="149.191,1046.31 158.64,1046.31 "/>
<polyline clip-path="url(#clip340)" style="stroke:#000000; stroke-linecap:round; stroke-linejoin:round; stroke-width:4; stroke-opacity:1; fill:none" points="149.191,1029.74 158.64,1029.74 "/>
<polyline clip-path="url(#clip340)" style="stroke:#000000; stroke-linecap:round; stroke-linejoin:round; stroke-width:4; stroke-opacity:1; fill:none" points="149.191,1013.17 158.64,1013.17 "/>
<polyline clip-path="url(#clip340)" style="stroke:#000000; stroke-linecap:round; stroke-linejoin:round; stroke-width:4; stroke-opacity:1; fill:none" points="149.191,996.608 158.64,996.608 "/>
<polyline clip-path="url(#clip340)" style="stroke:#000000; stroke-linecap:round; stroke-linejoin:round; stroke-width:4; stroke-opacity:1; fill:none" points="149.191,980.042 158.64,980.042 "/>
<polyline clip-path="url(#clip340)" style="stroke:#000000; stroke-linecap:round; stroke-linejoin:round; stroke-width:4; stroke-opacity:1; fill:none" points="149.191,963.477 158.64,963.477 "/>
<polyline clip-path="url(#clip340)" style="stroke:#000000; stroke-linecap:round; stroke-linejoin:round; stroke-width:4; stroke-opacity:1; fill:none" points="149.191,946.911 158.64,946.911 "/>
<polyline clip-path="url(#clip340)" style="stroke:#000000; stroke-linecap:round; stroke-linejoin:round; stroke-width:4; stroke-opacity:1; fill:none" points="149.191,913.779 158.64,913.779 "/>
<polyline clip-path="url(#clip340)" style="stroke:#000000; stroke-linecap:round; stroke-linejoin:round; stroke-width:4; stroke-opacity:1; fill:none" points="149.191,897.213 158.64,897.213 "/>
<polyline clip-path="url(#clip340)" style="stroke:#000000; stroke-linecap:round; stroke-linejoin:round; stroke-width:4; stroke-opacity:1; fill:none" points="149.191,880.647 158.64,880.647 "/>
<polyline clip-path="url(#clip340)" style="stroke:#000000; stroke-linecap:round; stroke-linejoin:round; stroke-width:4; stroke-opacity:1; fill:none" points="149.191,864.081 158.64,864.081 "/>
<polyline clip-path="url(#clip340)" style="stroke:#000000; stroke-linecap:round; stroke-linejoin:round; stroke-width:4; stroke-opacity:1; fill:none" points="149.191,847.515 158.64,847.515 "/>
<polyline clip-path="url(#clip340)" style="stroke:#000000; stroke-linecap:round; stroke-linejoin:round; stroke-width:4; stroke-opacity:1; fill:none" points="149.191,830.95 158.64,830.95 "/>
<polyline clip-path="url(#clip340)" style="stroke:#000000; stroke-linecap:round; stroke-linejoin:round; stroke-width:4; stroke-opacity:1; fill:none" points="149.191,814.384 158.64,814.384 "/>
<polyline clip-path="url(#clip340)" style="stroke:#000000; stroke-linecap:round; stroke-linejoin:round; stroke-width:4; stroke-opacity:1; fill:none" points="149.191,797.818 158.64,797.818 "/>
<polyline clip-path="url(#clip340)" style="stroke:#000000; stroke-linecap:round; stroke-linejoin:round; stroke-width:4; stroke-opacity:1; fill:none" points="149.191,781.252 158.64,781.252 "/>
<polyline clip-path="url(#clip340)" style="stroke:#000000; stroke-linecap:round; stroke-linejoin:round; stroke-width:4; stroke-opacity:1; fill:none" points="149.191,748.12 158.64,748.12 "/>
<polyline clip-path="url(#clip340)" style="stroke:#000000; stroke-linecap:round; stroke-linejoin:round; stroke-width:4; stroke-opacity:1; fill:none" points="149.191,731.554 158.64,731.554 "/>
<polyline clip-path="url(#clip340)" style="stroke:#000000; stroke-linecap:round; stroke-linejoin:round; stroke-width:4; stroke-opacity:1; fill:none" points="149.191,714.988 158.64,714.988 "/>
<polyline clip-path="url(#clip340)" style="stroke:#000000; stroke-linecap:round; stroke-linejoin:round; stroke-width:4; stroke-opacity:1; fill:none" points="149.191,698.422 158.64,698.422 "/>
<polyline clip-path="url(#clip340)" style="stroke:#000000; stroke-linecap:round; stroke-linejoin:round; stroke-width:4; stroke-opacity:1; fill:none" points="149.191,681.857 158.64,681.857 "/>
<polyline clip-path="url(#clip340)" style="stroke:#000000; stroke-linecap:round; stroke-linejoin:round; stroke-width:4; stroke-opacity:1; fill:none" points="149.191,665.291 158.64,665.291 "/>
<polyline clip-path="url(#clip340)" style="stroke:#000000; stroke-linecap:round; stroke-linejoin:round; stroke-width:4; stroke-opacity:1; fill:none" points="149.191,648.725 158.64,648.725 "/>
<polyline clip-path="url(#clip340)" style="stroke:#000000; stroke-linecap:round; stroke-linejoin:round; stroke-width:4; stroke-opacity:1; fill:none" points="149.191,632.159 158.64,632.159 "/>
<polyline clip-path="url(#clip340)" style="stroke:#000000; stroke-linecap:round; stroke-linejoin:round; stroke-width:4; stroke-opacity:1; fill:none" points="149.191,615.593 158.64,615.593 "/>
<polyline clip-path="url(#clip340)" style="stroke:#000000; stroke-linecap:round; stroke-linejoin:round; stroke-width:4; stroke-opacity:1; fill:none" points="149.191,582.461 158.64,582.461 "/>
<polyline clip-path="url(#clip340)" style="stroke:#000000; stroke-linecap:round; stroke-linejoin:round; stroke-width:4; stroke-opacity:1; fill:none" points="149.191,565.895 158.64,565.895 "/>
<polyline clip-path="url(#clip340)" style="stroke:#000000; stroke-linecap:round; stroke-linejoin:round; stroke-width:4; stroke-opacity:1; fill:none" points="149.191,549.33 158.64,549.33 "/>
<polyline clip-path="url(#clip340)" style="stroke:#000000; stroke-linecap:round; stroke-linejoin:round; stroke-width:4; stroke-opacity:1; fill:none" points="149.191,532.764 158.64,532.764 "/>
<polyline clip-path="url(#clip340)" style="stroke:#000000; stroke-linecap:round; stroke-linejoin:round; stroke-width:4; stroke-opacity:1; fill:none" points="149.191,516.198 158.64,516.198 "/>
<polyline clip-path="url(#clip340)" style="stroke:#000000; stroke-linecap:round; stroke-linejoin:round; stroke-width:4; stroke-opacity:1; fill:none" points="149.191,499.632 158.64,499.632 "/>
<polyline clip-path="url(#clip340)" style="stroke:#000000; stroke-linecap:round; stroke-linejoin:round; stroke-width:4; stroke-opacity:1; fill:none" points="149.191,483.066 158.64,483.066 "/>
<polyline clip-path="url(#clip340)" style="stroke:#000000; stroke-linecap:round; stroke-linejoin:round; stroke-width:4; stroke-opacity:1; fill:none" points="149.191,466.5 158.64,466.5 "/>
<polyline clip-path="url(#clip340)" style="stroke:#000000; stroke-linecap:round; stroke-linejoin:round; stroke-width:4; stroke-opacity:1; fill:none" points="149.191,449.934 158.64,449.934 "/>
<polyline clip-path="url(#clip340)" style="stroke:#000000; stroke-linecap:round; stroke-linejoin:round; stroke-width:4; stroke-opacity:1; fill:none" points="149.191,416.802 158.64,416.802 "/>
<polyline clip-path="url(#clip340)" style="stroke:#000000; stroke-linecap:round; stroke-linejoin:round; stroke-width:4; stroke-opacity:1; fill:none" points="149.191,400.237 158.64,400.237 "/>
<polyline clip-path="url(#clip340)" style="stroke:#000000; stroke-linecap:round; stroke-linejoin:round; stroke-width:4; stroke-opacity:1; fill:none" points="149.191,383.671 158.64,383.671 "/>
<polyline clip-path="url(#clip340)" style="stroke:#000000; stroke-linecap:round; stroke-linejoin:round; stroke-width:4; stroke-opacity:1; fill:none" points="149.191,367.105 158.64,367.105 "/>
<polyline clip-path="url(#clip340)" style="stroke:#000000; stroke-linecap:round; stroke-linejoin:round; stroke-width:4; stroke-opacity:1; fill:none" points="149.191,350.539 158.64,350.539 "/>
<polyline clip-path="url(#clip340)" style="stroke:#000000; stroke-linecap:round; stroke-linejoin:round; stroke-width:4; stroke-opacity:1; fill:none" points="149.191,333.973 158.64,333.973 "/>
<polyline clip-path="url(#clip340)" style="stroke:#000000; stroke-linecap:round; stroke-linejoin:round; stroke-width:4; stroke-opacity:1; fill:none" points="149.191,317.407 158.64,317.407 "/>
<polyline clip-path="url(#clip340)" style="stroke:#000000; stroke-linecap:round; stroke-linejoin:round; stroke-width:4; stroke-opacity:1; fill:none" points="149.191,300.841 158.64,300.841 "/>
<polyline clip-path="url(#clip340)" style="stroke:#000000; stroke-linecap:round; stroke-linejoin:round; stroke-width:4; stroke-opacity:1; fill:none" points="149.191,284.275 158.64,284.275 "/>
<polyline clip-path="url(#clip340)" style="stroke:#000000; stroke-linecap:round; stroke-linejoin:round; stroke-width:4; stroke-opacity:1; fill:none" points="149.191,251.144 158.64,251.144 "/>
<polyline clip-path="url(#clip340)" style="stroke:#000000; stroke-linecap:round; stroke-linejoin:round; stroke-width:4; stroke-opacity:1; fill:none" points="149.191,234.578 158.64,234.578 "/>
<polyline clip-path="url(#clip340)" style="stroke:#000000; stroke-linecap:round; stroke-linejoin:round; stroke-width:4; stroke-opacity:1; fill:none" points="149.191,218.012 158.64,218.012 "/>
<polyline clip-path="url(#clip340)" style="stroke:#000000; stroke-linecap:round; stroke-linejoin:round; stroke-width:4; stroke-opacity:1; fill:none" points="149.191,201.446 158.64,201.446 "/>
<polyline clip-path="url(#clip340)" style="stroke:#000000; stroke-linecap:round; stroke-linejoin:round; stroke-width:4; stroke-opacity:1; fill:none" points="149.191,184.88 158.64,184.88 "/>
<polyline clip-path="url(#clip340)" style="stroke:#000000; stroke-linecap:round; stroke-linejoin:round; stroke-width:4; stroke-opacity:1; fill:none" points="149.191,168.314 158.64,168.314 "/>
<polyline clip-path="url(#clip340)" style="stroke:#000000; stroke-linecap:round; stroke-linejoin:round; stroke-width:4; stroke-opacity:1; fill:none" points="149.191,151.748 158.64,151.748 "/>
<polyline clip-path="url(#clip340)" style="stroke:#000000; stroke-linecap:round; stroke-linejoin:round; stroke-width:4; stroke-opacity:1; fill:none" points="149.191,135.182 158.64,135.182 "/>
<polyline clip-path="url(#clip340)" style="stroke:#000000; stroke-linecap:round; stroke-linejoin:round; stroke-width:4; stroke-opacity:1; fill:none" points="149.191,118.617 158.64,118.617 "/>
<path clip-path="url(#clip340)" d="M51.3162 1262.11 L80.992 1262.11 L80.992 1266.05 L51.3162 1266.05 L51.3162 1262.11 Z" fill="#000000" fill-rule="nonzero" fill-opacity="1" /><path clip-path="url(#clip340)" d="M101.663 1259.8 Q98.515 1259.8 96.6632 1261.95 Q94.8345 1264.1 94.8345 1267.85 Q94.8345 1271.58 96.6632 1273.76 Q98.515 1275.91 101.663 1275.91 Q104.811 1275.91 106.64 1273.76 Q108.492 1271.58 108.492 1267.85 Q108.492 1264.1 106.64 1261.95 Q104.811 1259.8 101.663 1259.8 M110.946 1245.15 L110.946 1249.41 Q109.186 1248.57 107.381 1248.13 Q105.598 1247.69 103.839 1247.69 Q99.2095 1247.69 96.7558 1250.82 Q94.3252 1253.94 93.978 1260.26 Q95.3437 1258.25 97.4039 1257.18 Q99.4641 1256.1 101.941 1256.1 Q107.149 1256.1 110.158 1259.27 Q113.191 1262.41 113.191 1267.85 Q113.191 1273.18 110.043 1276.4 Q106.895 1279.61 101.663 1279.61 Q95.6678 1279.61 92.4965 1275.03 Q89.3253 1270.42 89.3253 1261.7 Q89.3253 1253.5 93.2141 1248.64 Q97.103 1243.76 103.654 1243.76 Q105.413 1243.76 107.196 1244.1 Q109.001 1244.45 110.946 1245.15 Z" fill="#000000" fill-rule="nonzero" fill-opacity="1" /><path clip-path="url(#clip340)" d="M50.9921 1096.46 L80.6679 1096.46 L80.6679 1100.39 L50.9921 1100.39 L50.9921 1096.46 Z" fill="#000000" fill-rule="nonzero" fill-opacity="1" /><path clip-path="url(#clip340)" d="M103.608 1082.8 L91.8021 1101.25 L103.608 1101.25 L103.608 1082.8 M102.381 1078.72 L108.26 1078.72 L108.26 1101.25 L113.191 1101.25 L113.191 1105.14 L108.26 1105.14 L108.26 1113.28 L103.608 1113.28 L103.608 1105.14 L88.0058 1105.14 L88.0058 1100.62 L102.381 1078.72 Z" fill="#000000" fill-rule="nonzero" fill-opacity="1" /><path clip-path="url(#clip340)" d="M53.0754 930.796 L82.7512 930.796 L82.7512 934.731 L53.0754 934.731 L53.0754 930.796 Z" fill="#000000" fill-rule="nonzero" fill-opacity="1" /><path clip-path="url(#clip340)" d="M96.8715 943.69 L113.191 943.69 L113.191 947.625 L91.2465 947.625 L91.2465 943.69 Q93.9086 940.935 98.4919 936.305 Q103.098 931.653 104.279 930.31 Q106.524 927.787 107.404 926.051 Q108.307 924.292 108.307 922.602 Q108.307 919.847 106.362 918.111 Q104.441 916.375 101.339 916.375 Q99.14 916.375 96.6863 917.139 Q94.2558 917.903 91.478 919.454 L91.478 914.731 Q94.3021 913.597 96.7558 913.019 Q99.2095 912.44 101.246 912.44 Q106.617 912.44 109.811 915.125 Q113.006 917.81 113.006 922.301 Q113.006 924.43 112.196 926.352 Q111.408 928.25 109.302 930.842 Q108.723 931.514 105.621 934.731 Q102.52 937.926 96.8715 943.69 Z" fill="#000000" fill-rule="nonzero" fill-opacity="1" /><path clip-path="url(#clip340)" d="M101.246 750.485 Q97.6354 750.485 95.8067 754.049 Q94.0012 757.591 94.0012 764.721 Q94.0012 771.827 95.8067 775.392 Q97.6354 778.934 101.246 778.934 Q104.881 778.934 106.686 775.392 Q108.515 771.827 108.515 764.721 Q108.515 757.591 106.686 754.049 Q104.881 750.485 101.246 750.485 M101.246 746.781 Q107.057 746.781 110.112 751.387 Q113.191 755.971 113.191 764.721 Q113.191 773.448 110.112 778.054 Q107.057 782.637 101.246 782.637 Q95.4363 782.637 92.3576 778.054 Q89.3021 773.448 89.3021 764.721 Q89.3021 755.971 92.3576 751.387 Q95.4363 746.781 101.246 746.781 Z" fill="#000000" fill-rule="nonzero" fill-opacity="1" /><path clip-path="url(#clip340)" d="M96.8715 612.372 L113.191 612.372 L113.191 616.307 L91.2465 616.307 L91.2465 612.372 Q93.9086 609.617 98.4919 604.988 Q103.098 600.335 104.279 598.992 Q106.524 596.469 107.404 594.733 Q108.307 592.974 108.307 591.284 Q108.307 588.53 106.362 586.793 Q104.441 585.057 101.339 585.057 Q99.14 585.057 96.6863 585.821 Q94.2558 586.585 91.478 588.136 L91.478 583.414 Q94.3021 582.28 96.7558 581.701 Q99.2095 581.122 101.246 581.122 Q106.617 581.122 109.811 583.807 Q113.006 586.492 113.006 590.983 Q113.006 593.113 112.196 595.034 Q111.408 596.932 109.302 599.525 Q108.723 600.196 105.621 603.414 Q102.52 606.608 96.8715 612.372 Z" fill="#000000" fill-rule="nonzero" fill-opacity="1" /><path clip-path="url(#clip340)" d="M103.608 420.162 L91.8021 438.611 L103.608 438.611 L103.608 420.162 M102.381 416.088 L108.26 416.088 L108.26 438.611 L113.191 438.611 L113.191 442.5 L108.26 442.5 L108.26 450.648 L103.608 450.648 L103.608 442.5 L88.0058 442.5 L88.0058 437.986 L102.381 416.088 Z" fill="#000000" fill-rule="nonzero" fill-opacity="1" /><path clip-path="url(#clip340)" d="M101.663 265.846 Q98.515 265.846 96.6632 267.999 Q94.8345 270.152 94.8345 273.902 Q94.8345 277.628 96.6632 279.804 Q98.515 281.957 101.663 281.957 Q104.811 281.957 106.64 279.804 Q108.492 277.628 108.492 273.902 Q108.492 270.152 106.64 267.999 Q104.811 265.846 101.663 265.846 M110.946 251.193 L110.946 255.453 Q109.186 254.619 107.381 254.179 Q105.598 253.74 103.839 253.74 Q99.2095 253.74 96.7558 256.865 Q94.3252 259.99 93.978 266.309 Q95.3437 264.295 97.4039 263.23 Q99.4641 262.142 101.941 262.142 Q107.149 262.142 110.158 265.314 Q113.191 268.462 113.191 273.902 Q113.191 279.226 110.043 282.443 Q106.895 285.661 101.663 285.661 Q95.6678 285.661 92.4965 281.077 Q89.3253 276.471 89.3253 267.744 Q89.3253 259.55 93.2141 254.689 Q97.103 249.804 103.654 249.804 Q105.413 249.804 107.196 250.152 Q109.001 250.499 110.946 251.193 Z" fill="#000000" fill-rule="nonzero" fill-opacity="1" /><path clip-path="url(#clip340)" d="M782.617 46.9789 L782.617 64.1663 L777.264 64.1663 L777.264 19.4328 L782.617 19.4328 L782.617 24.3517 Q784.295 21.4582 786.841 20.0693 Q789.416 18.6515 792.975 18.6515 Q798.878 18.6515 802.553 23.339 Q806.256 28.0265 806.256 35.6653 Q806.256 43.3042 802.553 47.9916 Q798.878 52.6791 792.975 52.6791 Q789.416 52.6791 786.841 51.2902 Q784.295 49.8724 782.617 46.9789 M800.73 35.6653 Q800.73 29.7915 798.299 26.464 Q795.898 23.1075 791.673 23.1075 Q787.449 23.1075 785.018 26.464 Q782.617 29.7915 782.617 35.6653 Q782.617 41.5391 785.018 44.8956 Q787.449 48.2231 791.673 48.2231 Q795.898 48.2231 798.299 44.8956 Q800.73 41.5391 800.73 35.6653 Z" fill="#000000" fill-rule="nonzero" fill-opacity="1" /><path clip-path="url(#clip340)" d="M836.754 14.6874 L836.754 30.8042 L852.871 30.8042 L852.871 35.7232 L836.754 35.7232 L836.754 51.84 L831.893 51.84 L831.893 35.7232 L815.776 35.7232 L815.776 30.8042 L831.893 30.8042 L831.893 14.6874 L836.754 14.6874 Z" fill="#000000" fill-rule="nonzero" fill-opacity="1" /><path clip-path="url(#clip340)" d="M864.734 19.4328 L870.058 19.4328 L870.058 51.84 L864.734 51.84 L864.734 19.4328 M864.734 6.81709 L870.058 6.81709 L870.058 13.559 L864.734 13.559 L864.734 6.81709 Z" fill="#000000" fill-rule="nonzero" fill-opacity="1" /><path clip-path="url(#clip340)" d="M886.349 46.9789 L886.349 64.1663 L880.996 64.1663 L880.996 19.4328 L886.349 19.4328 L886.349 24.3517 Q888.027 21.4582 890.573 20.0693 Q893.148 18.6515 896.707 18.6515 Q902.61 18.6515 906.285 23.339 Q909.989 28.0265 909.989 35.6653 Q909.989 43.3042 906.285 47.9916 Q902.61 52.6791 896.707 52.6791 Q893.148 52.6791 890.573 51.2902 Q888.027 49.8724 886.349 46.9789 M904.462 35.6653 Q904.462 29.7915 902.031 26.464 Q899.63 23.1075 895.405 23.1075 Q891.181 23.1075 888.75 26.464 Q886.349 29.7915 886.349 35.6653 Q886.349 41.5391 888.75 44.8956 Q891.181 48.2231 895.405 48.2231 Q899.63 48.2231 902.031 44.8956 Q904.462 41.5391 904.462 35.6653 Z" fill="#000000" fill-rule="nonzero" fill-opacity="1" /><path clip-path="url(#clip340)" d="M931.603 6.87496 Q927.726 13.53 925.845 20.0404 Q923.964 26.5508 923.964 33.2348 Q923.964 39.9188 925.845 46.487 Q927.755 53.0263 931.603 59.6525 L926.973 59.6525 Q922.633 52.8527 920.463 46.2845 Q918.322 39.7162 918.322 33.2348 Q918.322 26.7823 920.463 20.2429 Q922.604 13.7036 926.973 6.87496 L931.603 6.87496 Z" fill="#000000" fill-rule="nonzero" fill-opacity="1" /><path clip-path="url(#clip340)" d="M936.175 8.64 L972.72 8.64 L972.72 13.559 L957.384 13.559 L957.384 51.84 L951.51 51.84 L951.51 13.559 L936.175 13.559 L936.175 8.64 Z" fill="#000000" fill-rule="nonzero" fill-opacity="1" /><path clip-path="url(#clip340)" d="M984.207 31.2093 L984.207 47.0368 L993.582 47.0368 Q998.298 47.0368 1000.56 45.0981 Q1002.84 43.1306 1002.84 39.1086 Q1002.84 35.0577 1000.56 33.148 Q998.298 31.2093 993.582 31.2093 L984.207 31.2093 M984.207 13.4432 L984.207 26.464 L992.858 26.464 Q997.141 26.464 999.224 24.8726 Q1001.34 23.2522 1001.34 19.9536 Q1001.34 16.6839 999.224 15.0636 Q997.141 13.4432 992.858 13.4432 L984.207 13.4432 M978.362 8.64 L993.292 8.64 Q999.976 8.64 1003.59 11.4178 Q1007.21 14.1955 1007.21 19.317 Q1007.21 23.2811 1005.36 25.6249 Q1003.51 27.9686 999.919 28.5473 Q1004.23 29.4732 1006.6 32.4246 Q1009 35.347 1009 39.7452 Q1009 45.5322 1005.07 48.6861 Q1001.13 51.84 993.871 51.84 L978.362 51.84 L978.362 8.64 Z" fill="#000000" fill-rule="nonzero" fill-opacity="1" /><path clip-path="url(#clip340)" d="M1033.45 14.3981 L1025.53 35.8968 L1041.41 35.8968 L1033.45 14.3981 M1030.16 8.64 L1036.78 8.64 L1053.25 51.84 L1047.17 51.84 L1043.23 40.7579 L1023.76 40.7579 L1019.83 51.84 L1013.66 51.84 L1030.16 8.64 Z" fill="#000000" fill-rule="nonzero" fill-opacity="1" /><path clip-path="url(#clip340)" d="M1058.48 6.87496 L1063.11 6.87496 Q1067.45 13.7036 1069.59 20.2429 Q1071.76 26.7823 1071.76 33.2348 Q1071.76 39.7162 1069.59 46.2845 Q1067.45 52.8527 1063.11 59.6525 L1058.48 59.6525 Q1062.33 53.0263 1064.21 46.487 Q1066.12 39.9188 1066.12 33.2348 Q1066.12 26.5508 1064.21 20.0404 Q1062.33 13.53 1058.48 6.87496 Z" fill="#000000" fill-rule="nonzero" fill-opacity="1" /><path clip-path="url(#clip340)" d="M1079.75 33.2348 L1095.35 33.2348 L1095.35 37.9801 L1079.75 37.9801 L1079.75 33.2348 Z" fill="#000000" fill-rule="nonzero" fill-opacity="1" /><path clip-path="url(#clip340)" d="M1109.09 10.2314 L1109.09 19.4328 L1120.06 19.4328 L1120.06 23.5705 L1109.09 23.5705 L1109.09 41.163 Q1109.09 45.1271 1110.16 46.2555 Q1111.26 47.384 1114.59 47.384 L1120.06 47.384 L1120.06 51.84 L1114.59 51.84 Q1108.42 51.84 1106.08 49.5541 Q1103.74 47.2393 1103.74 41.163 L1103.74 23.5705 L1099.83 23.5705 L1099.83 19.4328 L1103.74 19.4328 L1103.74 10.2314 L1109.09 10.2314 Z" fill="#000000" fill-rule="nonzero" fill-opacity="1" /><path clip-path="url(#clip340)" d="M1139.85 6.87496 Q1135.97 13.53 1134.09 20.0404 Q1132.21 26.5508 1132.21 33.2348 Q1132.21 39.9188 1134.09 46.487 Q1136 53.0263 1139.85 59.6525 L1135.22 59.6525 Q1130.88 52.8527 1128.71 46.2845 Q1126.57 39.7162 1126.57 33.2348 Q1126.57 26.7823 1128.71 20.2429 Q1130.85 13.7036 1135.22 6.87496 L1139.85 6.87496 Z" fill="#000000" fill-rule="nonzero" fill-opacity="1" /><path clip-path="url(#clip340)" d="M1151.94 46.921 L1161.49 46.921 L1161.49 13.964 L1151.1 16.0474 L1151.1 10.7233 L1161.43 8.64 L1167.28 8.64 L1167.28 46.921 L1176.83 46.921 L1176.83 51.84 L1151.94 51.84 L1151.94 46.921 Z" fill="#000000" fill-rule="nonzero" fill-opacity="1" /><path clip-path="url(#clip340)" d="M1188.63 44.4905 L1194.74 44.4905 L1194.74 51.84 L1188.63 51.84 L1188.63 44.4905 Z" fill="#000000" fill-rule="nonzero" fill-opacity="1" /><path clip-path="url(#clip340)" d="M1219.97 12.4884 Q1215.46 12.4884 1213.17 16.9444 Q1210.91 21.3714 1210.91 30.2834 Q1210.91 39.1665 1213.17 43.6225 Q1215.46 48.0495 1219.97 48.0495 Q1224.51 48.0495 1226.77 43.6225 Q1229.06 39.1665 1229.06 30.2834 Q1229.06 21.3714 1226.77 16.9444 Q1224.51 12.4884 1219.97 12.4884 M1219.97 7.85875 Q1227.23 7.85875 1231.05 13.6168 Q1234.9 19.346 1234.9 30.2834 Q1234.9 41.1919 1231.05 46.95 Q1227.23 52.6791 1219.97 52.6791 Q1212.71 52.6791 1208.86 46.95 Q1205.04 41.1919 1205.04 30.2834 Q1205.04 19.346 1208.86 13.6168 Q1212.71 7.85875 1219.97 7.85875 Z" fill="#000000" fill-rule="nonzero" fill-opacity="1" /><path clip-path="url(#clip340)" d="M1243.58 6.87496 L1248.21 6.87496 Q1252.55 13.7036 1254.69 20.2429 Q1256.86 26.7823 1256.86 33.2348 Q1256.86 39.7162 1254.69 46.2845 Q1252.55 52.8527 1248.21 59.6525 L1243.58 59.6525 Q1247.43 53.0263 1249.31 46.487 Q1251.22 39.9188 1251.22 33.2348 Q1251.22 26.5508 1249.31 20.0404 Q1247.43 13.53 1243.58 6.87496 Z" fill="#000000" fill-rule="nonzero" fill-opacity="1" /><path clip-path="url(#clip340)" d="M1266.99 64.1663 L1266.99 19.4328 L1272.31 19.4328 L1272.31 39.5715 Q1272.31 43.7671 1274.31 45.9083 Q1276.31 48.0495 1280.21 48.0495 Q1284.49 48.0495 1286.64 45.619 Q1288.81 43.1884 1288.81 38.3273 L1288.81 19.4328 L1294.13 19.4328 L1294.13 44.3748 Q1294.13 46.1109 1294.62 46.95 Q1295.14 47.7602 1296.21 47.7602 Q1296.47 47.7602 1296.94 47.6155 Q1297.4 47.4419 1298.21 47.0947 L1298.21 51.377 Q1297.02 52.0425 1295.95 52.3608 Q1294.91 52.6791 1293.9 52.6791 Q1291.9 52.6791 1290.72 51.5506 Q1289.53 50.4222 1289.1 48.1074 Q1287.65 50.3932 1285.54 51.5506 Q1283.45 52.6791 1280.62 52.6791 Q1277.67 52.6791 1275.58 51.5506 Q1273.53 50.4222 1272.31 48.1653 L1272.31 64.1663 L1266.99 64.1663 Z" fill="#000000" fill-rule="nonzero" fill-opacity="1" /><path clip-path="url(#clip340)" d="M1318.03 6.87496 Q1314.15 13.53 1312.27 20.0404 Q1310.39 26.5508 1310.39 33.2348 Q1310.39 39.9188 1312.27 46.487 Q1314.18 53.0263 1318.03 59.6525 L1313.4 59.6525 Q1309.06 52.8527 1306.89 46.2845 Q1304.75 39.7162 1304.75 33.2348 Q1304.75 26.7823 1306.89 20.2429 Q1309.03 13.7036 1313.4 6.87496 L1318.03 6.87496 Z" fill="#000000" fill-rule="nonzero" fill-opacity="1" /><path clip-path="url(#clip340)" d="M1346.82 28.5473 Q1351.02 29.4443 1353.36 32.2799 Q1355.73 35.1156 1355.73 39.2822 Q1355.73 45.6768 1351.33 49.178 Q1346.94 52.6791 1338.83 52.6791 Q1336.11 52.6791 1333.22 52.1294 Q1330.36 51.6085 1327.29 50.5379 L1327.29 44.8956 Q1329.72 46.3134 1332.61 47.0368 Q1335.51 47.7602 1338.66 47.7602 Q1344.16 47.7602 1347.02 45.59 Q1349.92 43.4199 1349.92 39.2822 Q1349.92 35.4628 1347.23 33.3216 Q1344.56 31.1515 1339.79 31.1515 L1334.75 31.1515 L1334.75 26.3482 L1340.02 26.3482 Q1344.33 26.3482 1346.62 24.6411 Q1348.9 22.905 1348.9 19.6642 Q1348.9 16.3367 1346.53 14.5717 Q1344.19 12.7777 1339.79 12.7777 Q1337.39 12.7777 1334.64 13.2985 Q1331.89 13.8194 1328.59 14.9189 L1328.59 9.7106 Q1331.92 8.78468 1334.81 8.32171 Q1337.74 7.85875 1340.31 7.85875 Q1346.97 7.85875 1350.84 10.8969 Q1354.72 13.9062 1354.72 19.0566 Q1354.72 22.6446 1352.67 25.133 Q1350.61 27.5924 1346.82 28.5473 Z" fill="#000000" fill-rule="nonzero" fill-opacity="1" /><path clip-path="url(#clip340)" d="M1366.81 44.4905 L1372.92 44.4905 L1372.92 51.84 L1366.81 51.84 L1366.81 44.4905 Z" fill="#000000" fill-rule="nonzero" fill-opacity="1" /><path clip-path="url(#clip340)" d="M1385.71 8.64 L1408.65 8.64 L1408.65 13.559 L1391.06 13.559 L1391.06 24.1492 Q1392.34 23.7152 1393.61 23.5126 Q1394.88 23.2811 1396.15 23.2811 Q1403.39 23.2811 1407.61 27.2452 Q1411.84 31.2093 1411.84 37.9801 Q1411.84 44.9535 1407.5 48.8308 Q1403.16 52.6791 1395.26 52.6791 Q1392.54 52.6791 1389.7 52.2162 Q1386.9 51.7532 1383.89 50.8273 L1383.89 44.9535 Q1386.49 46.3713 1389.27 47.0657 Q1392.05 47.7602 1395.14 47.7602 Q1400.15 47.7602 1403.07 45.1271 Q1405.99 42.494 1405.99 37.9801 Q1405.99 33.4663 1403.07 30.8332 Q1400.15 28.2001 1395.14 28.2001 Q1392.8 28.2001 1390.45 28.7209 Q1388.14 29.2417 1385.71 30.3413 L1385.71 8.64 Z" fill="#000000" fill-rule="nonzero" fill-opacity="1" /><path clip-path="url(#clip340)" d="M1421.76 6.87496 L1426.39 6.87496 Q1430.73 13.7036 1432.87 20.2429 Q1435.04 26.7823 1435.04 33.2348 Q1435.04 39.7162 1432.87 46.2845 Q1430.73 52.8527 1426.39 59.6525 L1421.76 59.6525 Q1425.61 53.0263 1427.49 46.487 Q1429.4 39.9188 1429.4 33.2348 Q1429.4 26.5508 1427.49 20.0404 Q1425.61 13.53 1421.76 6.87496 Z" fill="#000000" fill-rule="nonzero" fill-opacity="1" /><path clip-path="url(#clip340)" d="M1460.39 14.3981 L1448.53 46.9789 L1472.28 46.9789 L1460.39 14.3981 M1440.6 51.84 L1457.09 8.64 L1463.72 8.64 L1480.18 51.84 L1440.6 51.84 Z" fill="#000000" fill-rule="nonzero" fill-opacity="1" /><path clip-path="url(#clip340)" d="M1499.05 6.87496 Q1495.17 13.53 1493.29 20.0404 Q1491.41 26.5508 1491.41 33.2348 Q1491.41 39.9188 1493.29 46.487 Q1495.2 53.0263 1499.05 59.6525 L1494.42 59.6525 Q1490.08 52.8527 1487.91 46.2845 Q1485.77 39.7162 1485.77 33.2348 Q1485.77 26.7823 1487.91 20.2429 Q1490.05 13.7036 1494.42 6.87496 L1499.05 6.87496 Z" fill="#000000" fill-rule="nonzero" fill-opacity="1" /><path clip-path="url(#clip340)" d="M1522.63 12.4884 Q1518.12 12.4884 1515.83 16.9444 Q1513.57 21.3714 1513.57 30.2834 Q1513.57 39.1665 1515.83 43.6225 Q1518.12 48.0495 1522.63 48.0495 Q1527.17 48.0495 1529.43 43.6225 Q1531.72 39.1665 1531.72 30.2834 Q1531.72 21.3714 1529.43 16.9444 Q1527.17 12.4884 1522.63 12.4884 M1522.63 7.85875 Q1529.89 7.85875 1533.71 13.6168 Q1537.56 19.346 1537.56 30.2834 Q1537.56 41.1919 1533.71 46.95 Q1529.89 52.6791 1522.63 52.6791 Q1515.37 52.6791 1511.52 46.95 Q1507.7 41.1919 1507.7 30.2834 Q1507.7 19.346 1511.52 13.6168 Q1515.37 7.85875 1522.63 7.85875 Z" fill="#000000" fill-rule="nonzero" fill-opacity="1" /><path clip-path="url(#clip340)" d="M1547.83 44.4905 L1553.94 44.4905 L1553.94 51.84 L1547.83 51.84 L1547.83 44.4905 Z" fill="#000000" fill-rule="nonzero" fill-opacity="1" /><path clip-path="url(#clip340)" d="M1566.73 8.64 L1589.67 8.64 L1589.67 13.559 L1572.08 13.559 L1572.08 24.1492 Q1573.35 23.7152 1574.63 23.5126 Q1575.9 23.2811 1577.17 23.2811 Q1584.41 23.2811 1588.63 27.2452 Q1592.86 31.2093 1592.86 37.9801 Q1592.86 44.9535 1588.51 48.8308 Q1584.17 52.6791 1576.28 52.6791 Q1573.56 52.6791 1570.72 52.2162 Q1567.91 51.7532 1564.9 50.8273 L1564.9 44.9535 Q1567.51 46.3713 1570.29 47.0657 Q1573.06 47.7602 1576.16 47.7602 Q1581.17 47.7602 1584.09 45.1271 Q1587.01 42.494 1587.01 37.9801 Q1587.01 33.4663 1584.09 30.8332 Q1581.17 28.2001 1576.16 28.2001 Q1573.82 28.2001 1571.47 28.7209 Q1569.16 29.2417 1566.73 30.3413 L1566.73 8.64 Z" fill="#000000" fill-rule="nonzero" fill-opacity="1" /><path clip-path="url(#clip340)" d="M1602.78 6.87496 L1607.41 6.87496 Q1611.75 13.7036 1613.89 20.2429 Q1616.06 26.7823 1616.06 33.2348 Q1616.06 39.7162 1613.89 46.2845 Q1611.75 52.8527 1607.41 59.6525 L1602.78 59.6525 Q1606.63 53.0263 1608.51 46.487 Q1610.42 39.9188 1610.42 33.2348 Q1610.42 26.5508 1608.51 20.0404 Q1606.63 13.53 1602.78 6.87496 Z" fill="#000000" fill-rule="nonzero" fill-opacity="1" /><path clip-path="url(#clip340)" d="M1651.36 61.6779 L1651.36 65.8156 L1620.57 65.8156 L1620.57 61.6779 L1651.36 61.6779 Z" fill="#000000" fill-rule="nonzero" fill-opacity="1" /><path clip-path="url(#clip340)" d="M1656.6 8.64 L1683.91 8.64 L1683.91 13.559 L1662.44 13.559 L1662.44 26.3482 L1683.02 26.3482 L1683.02 31.2672 L1662.44 31.2672 L1662.44 46.921 L1684.43 46.921 L1684.43 51.84 L1656.6 51.84 L1656.6 8.64 Z" fill="#000000" fill-rule="nonzero" fill-opacity="1" /><path clip-path="url(#clip340)" d="M1699.89 31.2093 L1699.89 47.0368 L1709.26 47.0368 Q1713.98 47.0368 1716.23 45.0981 Q1718.52 43.1306 1718.52 39.1086 Q1718.52 35.0577 1716.23 33.148 Q1713.98 31.2093 1709.26 31.2093 L1699.89 31.2093 M1699.89 13.4432 L1699.89 26.464 L1708.54 26.464 Q1712.82 26.464 1714.9 24.8726 Q1717.02 23.2522 1717.02 19.9536 Q1717.02 16.6839 1714.9 15.0636 Q1712.82 13.4432 1708.54 13.4432 L1699.89 13.4432 M1694.04 8.64 L1708.97 8.64 Q1715.66 8.64 1719.27 11.4178 Q1722.89 14.1955 1722.89 19.317 Q1722.89 23.2811 1721.04 25.6249 Q1719.19 27.9686 1715.6 28.5473 Q1719.91 29.4732 1722.28 32.4246 Q1724.68 35.347 1724.68 39.7452 Q1724.68 45.5322 1720.75 48.6861 Q1716.81 51.84 1709.55 51.84 L1694.04 51.84 L1694.04 8.64 Z" fill="#000000" fill-rule="nonzero" fill-opacity="1" /><polyline clip-path="url(#clip342)" style="stroke:#009af9; stroke-linecap:round; stroke-linejoin:round; stroke-width:4; stroke-opacity:1; fill:none" points="211.556,1385.91 217.645,1385.83 223.733,1385.6 229.822,1385.22 235.911,1384.69 242,1384 248.089,1383.17 254.177,1382.18 260.266,1381.05 266.355,1379.76 272.444,1378.33 278.532,1376.76 284.621,1375.04 290.71,1373.17 296.799,1371.17 302.887,1369.02 308.976,1366.74 315.065,1364.32 321.154,1361.77 327.242,1359.09 333.331,1356.28 339.42,1353.34 345.509,1350.28 351.598,1347.09 357.686,1343.79 363.775,1340.37 369.864,1336.84 375.953,1333.21 382.041,1329.46 388.13,1325.61 394.219,1321.67 400.308,1317.62 406.396,1313.49 412.485,1309.26 418.574,1304.95 424.663,1300.56 430.752,1296.09 436.84,1291.55 442.929,1286.94 449.018,1282.26 455.107,1277.53 461.195,1272.73 467.284,1267.88 473.373,1262.99 479.462,1258.04 485.55,1253.06 491.639,1248.05 497.728,1243 503.817,1237.93 509.905,1232.83 515.994,1227.72 522.083,1222.59 528.172,1217.46 534.261,1212.32 540.349,1207.18 546.438,1202.05 552.527,1196.93 558.616,1191.83 564.704,1186.75 570.793,1181.69 576.882,1176.66 582.971,1171.66 589.059,1166.71 595.148,1161.8 601.237,1156.94 607.326,1152.13 613.415,1147.39 619.503,1142.7 625.592,1138.09 631.681,1133.55 637.77,1129.09 643.858,1124.71 649.947,1120.42 656.036,1116.23 662.125,1112.13 668.213,1108.14 674.302,1104.26 680.391,1100.48 686.48,1096.83 692.568,1093.3 698.657,1089.89 704.746,1086.62 710.835,1083.48 716.924,1080.49 723.012,1077.63 729.101,1074.93 735.19,1072.38 741.279,1069.99 747.367,1067.76 753.456,1065.69 759.545,1063.79 765.634,1062.07 771.722,1060.51 777.811,1059.13 783.9,1057.93 789.989,1056.92 796.078,1056.08 802.166,1055.43 808.255,1054.96 814.344,1054.68 820.433,1054.59 826.521,1054.52 832.61,1054.31 838.699,1053.96 844.788,1053.47 850.876,1052.84 856.965,1052.07 863.054,1051.17 869.143,1050.13 875.231,1048.95 881.32,1047.64 887.409,1046.2 893.498,1044.62 899.587,1042.92 905.675,1041.08 911.764,1039.12 917.853,1037.04 923.942,1034.83 930.03,1032.5 936.119,1030.06 942.208,1027.5 948.297,1024.83 954.385,1022.05 960.474,1019.16 966.563,1016.17 972.652,1013.07 978.741,1009.88 984.829,1006.6 990.918,1003.22 997.007,999.758 1003.1,996.211 1009.18,992.585 1015.27,988.881 1021.36,985.106 1027.45,981.262 1033.54,977.354 1039.63,973.386 1045.72,969.361 1051.81,965.285 1057.89,961.162 1063.98,956.996 1070.07,952.792 1076.16,948.554 1082.25,944.287 1088.34,939.995 1094.43,935.685 1100.52,931.359 1106.6,927.024 1112.69,922.683 1118.78,918.343 1124.87,914.009 1130.96,909.685 1137.05,905.376 1143.14,901.089 1149.23,896.827 1155.31,892.598 1161.4,888.406 1167.49,884.256 1173.58,880.155 1179.67,876.108 1185.76,872.121 1191.85,868.2 1197.94,864.35 1204.02,860.578 1210.11,856.891 1216.2,853.293 1222.29,849.792 1228.38,846.395 1234.47,843.106 1240.56,839.934 1246.65,836.884 1252.73,833.962 1258.82,831.176 1264.91,828.531 1271,826.032 1277.09,823.685 1283.18,821.494 1289.27,819.462 1295.36,817.593 1301.45,815.887 1307.53,814.344 1313.62,812.962 1319.71,811.739 1325.8,810.668 1331.89,809.742 1337.98,808.954 1344.07,808.293 1350.16,807.749 1356.24,807.308 1362.33,806.96 1368.42,806.692 1374.51,806.491 1380.6,806.345 1386.69,806.245 1392.78,806.179 1398.87,806.138 1404.95,806.116 1411.04,806.106 1417.13,806.102 1423.22,806.101 1429.31,806.101 1437.92,806.101 1446.53,806.105 1455.14,806.124 1463.75,806.173 1472.36,806.276 1480.97,806.463 1489.58,806.768 1498.2,807.23 1506.81,807.89 1515.42,808.791 1524.03,809.973 1532.64,811.471 1541.25,813.316 1549.86,815.531 1558.47,818.13 1567.08,821.12 1575.69,824.501 1584.3,828.269 1592.91,832.415 1601.53,836.926 1610.14,841.788 1618.75,846.988 1627.36,852.509 1635.97,858.339 1644.58,864.461 1653.19,870.861 1661.8,877.527 1670.41,884.444 1679.02,891.601 1687.63,898.984 1696.24,906.583 1704.86,914.385 1713.47,922.379 1722.08,930.554 1730.69,938.899 1739.3,947.403 1747.91,956.057 1756.52,964.848 1765.13,973.767 1773.74,982.803 1782.35,991.946 1790.96,1001.19 1799.57,1010.51 1808.19,1019.91 1816.8,1029.38 1825.41,1038.91 1834.02,1048.48 1842.63,1058.08 1851.24,1067.71 1859.85,1077.36 1868.46,1087.01 1877.07,1096.66 1885.68,1106.29 1894.29,1115.9 1902.9,1125.47 1911.51,1135 1920.13,1144.48 1928.74,1153.89 1937.35,1163.23 1945.96,1172.48 1954.57,1181.65 1963.18,1190.71 1971.79,1199.67 1980.4,1208.5 1989.01,1217.2 1997.62,1225.77 2006.23,1234.2 2014.84,1242.47 2023.46,1250.57 2032.07,1258.51 2040.68,1266.27 2049.29,1273.84 2057.9,1281.22 2066.51,1288.4 2075.12,1295.37 2083.73,1302.12 2092.34,1308.66 2100.95,1314.96 2109.56,1321.03 2118.17,1326.86 2126.79,1332.45 2135.4,1337.78 2144.01,1342.85 2152.62,1347.66 2161.23,1352.21 2169.84,1356.48 2178.45,1360.48 2187.06,1364.19 2195.67,1367.63 2204.28,1370.77 2212.89,1373.63 2221.5,1376.19 2230.12,1378.46 2238.73,1380.43 2247.34,1382.1 2255.95,1383.47 2264.56,1384.53 2273.17,1385.3 2281.78,1385.75 2290.39,1385.91 "/>
<polyline clip-path="url(#clip342)" style="stroke:#e26f46; stroke-linecap:round; stroke-linejoin:round; stroke-width:4; stroke-opacity:1; fill:none" points="211.556,143.465 217.645,143.542 223.733,143.77 229.822,144.152 235.911,144.685 242,145.369 248.089,146.205 254.177,147.191 260.266,148.326 266.355,149.609 272.444,151.039 278.532,152.616 284.621,154.336 290.71,156.2 296.799,158.205 302.887,160.35 308.976,162.632 315.065,165.05 321.154,167.602 327.242,170.285 333.331,173.097 339.42,176.035 345.509,179.097 351.598,182.28 357.686,185.582 363.775,188.999 369.864,192.528 375.953,196.167 382.041,199.912 388.13,203.759 394.219,207.707 400.308,211.75 406.396,215.885 412.485,220.11 418.574,224.419 424.663,228.81 430.752,233.279 436.84,237.82 442.929,242.432 449.018,247.108 455.107,251.846 461.195,256.642 467.284,261.49 473.373,266.387 479.462,271.328 485.55,276.309 491.639,281.325 497.728,286.372 503.817,291.446 509.905,296.542 515.994,301.655 522.083,306.781 528.172,311.916 534.261,317.053 540.349,322.189 546.438,327.32 552.527,332.439 558.616,337.543 564.704,342.627 570.793,347.685 576.882,352.714 582.971,357.708 589.059,362.662 595.148,367.572 601.237,372.432 607.326,377.238 613.415,381.985 619.503,386.667 625.592,391.281 631.681,395.821 637.77,400.282 643.858,404.659 649.947,408.947 656.036,413.142 662.125,417.239 668.213,421.232 674.302,425.117 680.391,428.889 686.48,432.543 692.568,436.075 698.657,439.48 704.746,442.753 710.835,445.89 716.924,448.886 723.012,451.738 729.101,454.44 735.19,456.989 741.279,459.381 747.367,461.612 753.456,463.679 759.545,465.578 765.634,467.306 771.722,468.861 777.811,470.239 783.9,471.438 789.989,472.456 796.078,473.292 802.166,473.943 808.255,474.41 814.344,474.69 820.433,474.783 826.521,474.853 832.61,475.063 838.699,475.413 844.788,475.903 850.876,476.531 856.965,477.298 863.054,478.202 869.143,479.243 875.231,480.42 881.32,481.731 887.409,483.175 893.498,484.751 899.587,486.456 905.675,488.29 911.764,490.25 917.853,492.335 923.942,494.542 930.03,496.868 936.119,499.313 942.208,501.872 948.297,504.544 954.385,507.326 960.474,510.214 966.563,513.206 972.652,516.299 978.741,519.49 984.829,522.775 990.918,526.151 997.007,529.614 1003.1,533.161 1009.18,536.787 1015.27,540.491 1021.36,544.266 1027.45,548.11 1033.54,552.018 1039.63,555.986 1045.72,560.011 1051.81,564.087 1057.89,568.21 1063.98,572.376 1070.07,576.58 1076.16,580.818 1082.25,585.085 1088.34,589.377 1094.43,593.687 1100.52,598.013 1106.6,602.348 1112.69,606.689 1118.78,611.028 1124.87,615.363 1130.96,619.687 1137.05,623.996 1143.14,628.283 1149.23,632.544 1155.31,636.774 1161.4,640.966 1167.49,645.116 1173.58,649.217 1179.67,653.264 1185.76,657.251 1191.85,661.172 1197.94,665.022 1204.02,668.794 1210.11,672.481 1216.2,676.079 1222.29,679.58 1228.38,682.977 1234.47,686.266 1240.56,689.438 1246.65,692.488 1252.73,695.41 1258.82,698.196 1264.91,700.841 1271,703.34 1277.09,705.687 1283.18,707.878 1289.27,709.91 1295.36,711.779 1301.45,713.485 1307.53,715.028 1313.62,716.41 1319.71,717.633 1325.8,718.704 1331.89,719.63 1337.98,720.418 1344.07,721.079 1350.16,721.623 1356.24,722.064 1362.33,722.412 1368.42,722.68 1374.51,722.881 1380.6,723.027 1386.69,723.127 1392.78,723.193 1398.87,723.234 1404.95,723.256 1411.04,723.266 1417.13,723.27 1423.22,723.271 1429.31,723.271 1437.92,723.271 1446.53,723.267 1455.14,723.248 1463.75,723.199 1472.36,723.096 1480.97,722.909 1489.58,722.604 1498.2,722.142 1506.81,721.482 1515.42,720.581 1524.03,719.399 1532.64,717.901 1541.25,716.056 1549.86,713.841 1558.47,711.242 1567.08,708.252 1575.69,704.871 1584.3,701.103 1592.91,696.957 1601.53,692.446 1610.14,687.584 1618.75,682.384 1627.36,676.862 1635.97,671.033 1644.58,664.911 1653.19,658.511 1661.8,651.845 1670.41,644.928 1679.02,637.771 1687.63,630.387 1696.24,622.789 1704.86,614.987 1713.47,606.993 1722.08,598.818 1730.69,590.473 1739.3,581.968 1747.91,573.315 1756.52,564.524 1765.13,555.605 1773.74,546.569 1782.35,537.426 1790.96,528.186 1799.57,518.86 1808.19,509.457 1816.8,499.989 1825.41,490.464 1834.02,480.895 1842.63,471.289 1851.24,461.658 1859.85,452.012 1868.46,442.36 1877.07,432.713 1885.68,423.081 1894.29,413.473 1902.9,403.9 1911.51,394.37 1920.13,384.895 1928.74,375.483 1937.35,366.144 1945.96,356.888 1954.57,347.723 1963.18,338.66 1971.79,329.707 1980.4,320.873 1989.01,312.167 1997.62,303.598 2006.23,295.175 2014.84,286.905 2023.46,278.798 2032.07,270.861 2040.68,263.102 2049.29,255.53 2057.9,248.15 2066.51,240.972 2075.12,234.002 2083.73,227.247 2092.34,220.714 2100.95,214.409 2109.56,208.339 2118.17,202.509 2126.79,196.926 2135.4,191.595 2144.01,186.521 2152.62,181.709 2161.23,177.165 2169.84,172.892 2178.45,168.896 2187.06,165.179 2195.67,161.746 2204.28,158.599 2212.89,155.743 2221.5,153.18 2230.12,150.912 2238.73,148.943 2247.34,147.272 2255.95,145.904 2264.56,144.838 2273.17,144.076 2281.78,143.618 2290.39,143.465 "/>
</svg>
