<?xml version="1.0" encoding="utf-8"?>
<svg xmlns="http://www.w3.org/2000/svg" xmlns:xlink="http://www.w3.org/1999/xlink" width="600" height="400" viewBox="0 0 2400 1600">
<defs>
  <clipPath id="clip950">
    <rect x="0" y="0" width="2400" height="1600"/>
  </clipPath>
</defs>
<path clip-path="url(#clip950)" d="M0 1600 L2400 1600 L2400 0 L0 0  Z" fill="#ffffff" fill-rule="evenodd" fill-opacity="1"/>
<defs>
  <clipPath id="clip951">
    <rect x="480" y="0" width="1681" height="1600"/>
  </clipPath>
</defs>
<path clip-path="url(#clip950)" d="M149.191 1423.18 L2352.76 1423.18 L2352.76 106.192 L149.191 106.192  Z" fill="#ffffff" fill-rule="evenodd" fill-opacity="1"/>
<defs>
  <clipPath id="clip952">
    <rect x="149" y="106" width="2205" height="1318"/>
  </clipPath>
</defs>
<polyline clip-path="url(#clip952)" style="stroke:#000000; stroke-linecap:round; stroke-linejoin:round; stroke-width:2; stroke-opacity:0.05; fill:none" points="299.418,1423.18 299.418,106.192 "/>
<polyline clip-path="url(#clip952)" style="stroke:#000000; stroke-linecap:round; stroke-linejoin:round; stroke-width:2; stroke-opacity:0.05; fill:none" points="387.28,1423.18 387.28,106.192 "/>
<polyline clip-path="url(#clip952)" style="stroke:#000000; stroke-linecap:round; stroke-linejoin:round; stroke-width:2; stroke-opacity:0.05; fill:none" points="475.142,1423.18 475.142,106.192 "/>
<polyline clip-path="url(#clip952)" style="stroke:#000000; stroke-linecap:round; stroke-linejoin:round; stroke-width:2; stroke-opacity:0.05; fill:none" points="563.004,1423.18 563.004,106.192 "/>
<polyline clip-path="url(#clip952)" style="stroke:#000000; stroke-linecap:round; stroke-linejoin:round; stroke-width:2; stroke-opacity:0.05; fill:none" points="650.865,1423.18 650.865,106.192 "/>
<polyline clip-path="url(#clip952)" style="stroke:#000000; stroke-linecap:round; stroke-linejoin:round; stroke-width:2; stroke-opacity:0.05; fill:none" points="738.727,1423.18 738.727,106.192 "/>
<polyline clip-path="url(#clip952)" style="stroke:#000000; stroke-linecap:round; stroke-linejoin:round; stroke-width:2; stroke-opacity:0.05; fill:none" points="826.589,1423.18 826.589,106.192 "/>
<polyline clip-path="url(#clip952)" style="stroke:#000000; stroke-linecap:round; stroke-linejoin:round; stroke-width:2; stroke-opacity:0.05; fill:none" points="914.451,1423.18 914.451,106.192 "/>
<polyline clip-path="url(#clip952)" style="stroke:#000000; stroke-linecap:round; stroke-linejoin:round; stroke-width:2; stroke-opacity:0.05; fill:none" points="1002.31,1423.18 1002.31,106.192 "/>
<polyline clip-path="url(#clip952)" style="stroke:#000000; stroke-linecap:round; stroke-linejoin:round; stroke-width:2; stroke-opacity:0.05; fill:none" points="1134.11,1423.18 1134.11,106.192 "/>
<polyline clip-path="url(#clip952)" style="stroke:#000000; stroke-linecap:round; stroke-linejoin:round; stroke-width:2; stroke-opacity:0.05; fill:none" points="1178.04,1423.18 1178.04,106.192 "/>
<polyline clip-path="url(#clip952)" style="stroke:#000000; stroke-linecap:round; stroke-linejoin:round; stroke-width:2; stroke-opacity:0.05; fill:none" points="1221.97,1423.18 1221.97,106.192 "/>
<polyline clip-path="url(#clip952)" style="stroke:#000000; stroke-linecap:round; stroke-linejoin:round; stroke-width:2; stroke-opacity:0.05; fill:none" points="1265.9,1423.18 1265.9,106.192 "/>
<polyline clip-path="url(#clip952)" style="stroke:#000000; stroke-linecap:round; stroke-linejoin:round; stroke-width:2; stroke-opacity:0.05; fill:none" points="1309.83,1423.18 1309.83,106.192 "/>
<polyline clip-path="url(#clip952)" style="stroke:#000000; stroke-linecap:round; stroke-linejoin:round; stroke-width:2; stroke-opacity:0.05; fill:none" points="1353.76,1423.18 1353.76,106.192 "/>
<polyline clip-path="url(#clip952)" style="stroke:#000000; stroke-linecap:round; stroke-linejoin:round; stroke-width:2; stroke-opacity:0.05; fill:none" points="1397.69,1423.18 1397.69,106.192 "/>
<polyline clip-path="url(#clip952)" style="stroke:#000000; stroke-linecap:round; stroke-linejoin:round; stroke-width:2; stroke-opacity:0.05; fill:none" points="1441.62,1423.18 1441.62,106.192 "/>
<polyline clip-path="url(#clip952)" style="stroke:#000000; stroke-linecap:round; stroke-linejoin:round; stroke-width:2; stroke-opacity:0.05; fill:none" points="1485.55,1423.18 1485.55,106.192 "/>
<polyline clip-path="url(#clip952)" style="stroke:#000000; stroke-linecap:round; stroke-linejoin:round; stroke-width:2; stroke-opacity:0.05; fill:none" points="1605.58,1423.18 1605.58,106.192 "/>
<polyline clip-path="url(#clip952)" style="stroke:#000000; stroke-linecap:round; stroke-linejoin:round; stroke-width:2; stroke-opacity:0.05; fill:none" points="1681.67,1423.18 1681.67,106.192 "/>
<polyline clip-path="url(#clip952)" style="stroke:#000000; stroke-linecap:round; stroke-linejoin:round; stroke-width:2; stroke-opacity:0.05; fill:none" points="1757.76,1423.18 1757.76,106.192 "/>
<polyline clip-path="url(#clip952)" style="stroke:#000000; stroke-linecap:round; stroke-linejoin:round; stroke-width:2; stroke-opacity:0.05; fill:none" points="1833.85,1423.18 1833.85,106.192 "/>
<polyline clip-path="url(#clip952)" style="stroke:#000000; stroke-linecap:round; stroke-linejoin:round; stroke-width:2; stroke-opacity:0.05; fill:none" points="1909.94,1423.18 1909.94,106.192 "/>
<polyline clip-path="url(#clip952)" style="stroke:#000000; stroke-linecap:round; stroke-linejoin:round; stroke-width:2; stroke-opacity:0.05; fill:none" points="1986.03,1423.18 1986.03,106.192 "/>
<polyline clip-path="url(#clip952)" style="stroke:#000000; stroke-linecap:round; stroke-linejoin:round; stroke-width:2; stroke-opacity:0.05; fill:none" points="2062.12,1423.18 2062.12,106.192 "/>
<polyline clip-path="url(#clip952)" style="stroke:#000000; stroke-linecap:round; stroke-linejoin:round; stroke-width:2; stroke-opacity:0.05; fill:none" points="2138.21,1423.18 2138.21,106.192 "/>
<polyline clip-path="url(#clip952)" style="stroke:#000000; stroke-linecap:round; stroke-linejoin:round; stroke-width:2; stroke-opacity:0.05; fill:none" points="2214.3,1423.18 2214.3,106.192 "/>
<polyline clip-path="url(#clip952)" style="stroke:#000000; stroke-linecap:round; stroke-linejoin:round; stroke-width:2; stroke-opacity:0.05; fill:none" points="2328.44,1423.18 2328.44,106.192 "/>
<polyline clip-path="url(#clip952)" style="stroke:#000000; stroke-linecap:round; stroke-linejoin:round; stroke-width:2; stroke-opacity:0.05; fill:none" points="149.191,1406.61 2352.76,1406.61 "/>
<polyline clip-path="url(#clip952)" style="stroke:#000000; stroke-linecap:round; stroke-linejoin:round; stroke-width:2; stroke-opacity:0.05; fill:none" points="149.191,1365.2 2352.76,1365.2 "/>
<polyline clip-path="url(#clip952)" style="stroke:#000000; stroke-linecap:round; stroke-linejoin:round; stroke-width:2; stroke-opacity:0.05; fill:none" points="149.191,1344.49 2352.76,1344.49 "/>
<polyline clip-path="url(#clip952)" style="stroke:#000000; stroke-linecap:round; stroke-linejoin:round; stroke-width:2; stroke-opacity:0.05; fill:none" points="149.191,1323.78 2352.76,1323.78 "/>
<polyline clip-path="url(#clip952)" style="stroke:#000000; stroke-linecap:round; stroke-linejoin:round; stroke-width:2; stroke-opacity:0.05; fill:none" points="149.191,1303.08 2352.76,1303.08 "/>
<polyline clip-path="url(#clip952)" style="stroke:#000000; stroke-linecap:round; stroke-linejoin:round; stroke-width:2; stroke-opacity:0.05; fill:none" points="149.191,1282.37 2352.76,1282.37 "/>
<polyline clip-path="url(#clip952)" style="stroke:#000000; stroke-linecap:round; stroke-linejoin:round; stroke-width:2; stroke-opacity:0.05; fill:none" points="149.191,1261.66 2352.76,1261.66 "/>
<polyline clip-path="url(#clip952)" style="stroke:#000000; stroke-linecap:round; stroke-linejoin:round; stroke-width:2; stroke-opacity:0.05; fill:none" points="149.191,1240.96 2352.76,1240.96 "/>
<polyline clip-path="url(#clip952)" style="stroke:#000000; stroke-linecap:round; stroke-linejoin:round; stroke-width:2; stroke-opacity:0.05; fill:none" points="149.191,1220.25 2352.76,1220.25 "/>
<polyline clip-path="url(#clip952)" style="stroke:#000000; stroke-linecap:round; stroke-linejoin:round; stroke-width:2; stroke-opacity:0.05; fill:none" points="149.191,1199.54 2352.76,1199.54 "/>
<polyline clip-path="url(#clip952)" style="stroke:#000000; stroke-linecap:round; stroke-linejoin:round; stroke-width:2; stroke-opacity:0.05; fill:none" points="149.191,1158.13 2352.76,1158.13 "/>
<polyline clip-path="url(#clip952)" style="stroke:#000000; stroke-linecap:round; stroke-linejoin:round; stroke-width:2; stroke-opacity:0.05; fill:none" points="149.191,1137.42 2352.76,1137.42 "/>
<polyline clip-path="url(#clip952)" style="stroke:#000000; stroke-linecap:round; stroke-linejoin:round; stroke-width:2; stroke-opacity:0.05; fill:none" points="149.191,1116.71 2352.76,1116.71 "/>
<polyline clip-path="url(#clip952)" style="stroke:#000000; stroke-linecap:round; stroke-linejoin:round; stroke-width:2; stroke-opacity:0.05; fill:none" points="149.191,1096 2352.76,1096 "/>
<polyline clip-path="url(#clip952)" style="stroke:#000000; stroke-linecap:round; stroke-linejoin:round; stroke-width:2; stroke-opacity:0.05; fill:none" points="149.191,1075.3 2352.76,1075.3 "/>
<polyline clip-path="url(#clip952)" style="stroke:#000000; stroke-linecap:round; stroke-linejoin:round; stroke-width:2; stroke-opacity:0.05; fill:none" points="149.191,1054.59 2352.76,1054.59 "/>
<polyline clip-path="url(#clip952)" style="stroke:#000000; stroke-linecap:round; stroke-linejoin:round; stroke-width:2; stroke-opacity:0.05; fill:none" points="149.191,1033.88 2352.76,1033.88 "/>
<polyline clip-path="url(#clip952)" style="stroke:#000000; stroke-linecap:round; stroke-linejoin:round; stroke-width:2; stroke-opacity:0.05; fill:none" points="149.191,1013.17 2352.76,1013.17 "/>
<polyline clip-path="url(#clip952)" style="stroke:#000000; stroke-linecap:round; stroke-linejoin:round; stroke-width:2; stroke-opacity:0.05; fill:none" points="149.191,992.467 2352.76,992.467 "/>
<polyline clip-path="url(#clip952)" style="stroke:#000000; stroke-linecap:round; stroke-linejoin:round; stroke-width:2; stroke-opacity:0.05; fill:none" points="149.191,951.052 2352.76,951.052 "/>
<polyline clip-path="url(#clip952)" style="stroke:#000000; stroke-linecap:round; stroke-linejoin:round; stroke-width:2; stroke-opacity:0.05; fill:none" points="149.191,930.345 2352.76,930.345 "/>
<polyline clip-path="url(#clip952)" style="stroke:#000000; stroke-linecap:round; stroke-linejoin:round; stroke-width:2; stroke-opacity:0.05; fill:none" points="149.191,909.637 2352.76,909.637 "/>
<polyline clip-path="url(#clip952)" style="stroke:#000000; stroke-linecap:round; stroke-linejoin:round; stroke-width:2; stroke-opacity:0.05; fill:none" points="149.191,888.93 2352.76,888.93 "/>
<polyline clip-path="url(#clip952)" style="stroke:#000000; stroke-linecap:round; stroke-linejoin:round; stroke-width:2; stroke-opacity:0.05; fill:none" points="149.191,868.223 2352.76,868.223 "/>
<polyline clip-path="url(#clip952)" style="stroke:#000000; stroke-linecap:round; stroke-linejoin:round; stroke-width:2; stroke-opacity:0.05; fill:none" points="149.191,847.515 2352.76,847.515 "/>
<polyline clip-path="url(#clip952)" style="stroke:#000000; stroke-linecap:round; stroke-linejoin:round; stroke-width:2; stroke-opacity:0.05; fill:none" points="149.191,826.808 2352.76,826.808 "/>
<polyline clip-path="url(#clip952)" style="stroke:#000000; stroke-linecap:round; stroke-linejoin:round; stroke-width:2; stroke-opacity:0.05; fill:none" points="149.191,806.101 2352.76,806.101 "/>
<polyline clip-path="url(#clip952)" style="stroke:#000000; stroke-linecap:round; stroke-linejoin:round; stroke-width:2; stroke-opacity:0.05; fill:none" points="149.191,785.393 2352.76,785.393 "/>
<polyline clip-path="url(#clip952)" style="stroke:#000000; stroke-linecap:round; stroke-linejoin:round; stroke-width:2; stroke-opacity:0.05; fill:none" points="149.191,743.979 2352.76,743.979 "/>
<polyline clip-path="url(#clip952)" style="stroke:#000000; stroke-linecap:round; stroke-linejoin:round; stroke-width:2; stroke-opacity:0.05; fill:none" points="149.191,723.271 2352.76,723.271 "/>
<polyline clip-path="url(#clip952)" style="stroke:#000000; stroke-linecap:round; stroke-linejoin:round; stroke-width:2; stroke-opacity:0.05; fill:none" points="149.191,702.564 2352.76,702.564 "/>
<polyline clip-path="url(#clip952)" style="stroke:#000000; stroke-linecap:round; stroke-linejoin:round; stroke-width:2; stroke-opacity:0.05; fill:none" points="149.191,681.857 2352.76,681.857 "/>
<polyline clip-path="url(#clip952)" style="stroke:#000000; stroke-linecap:round; stroke-linejoin:round; stroke-width:2; stroke-opacity:0.05; fill:none" points="149.191,661.149 2352.76,661.149 "/>
<polyline clip-path="url(#clip952)" style="stroke:#000000; stroke-linecap:round; stroke-linejoin:round; stroke-width:2; stroke-opacity:0.05; fill:none" points="149.191,640.442 2352.76,640.442 "/>
<polyline clip-path="url(#clip952)" style="stroke:#000000; stroke-linecap:round; stroke-linejoin:round; stroke-width:2; stroke-opacity:0.05; fill:none" points="149.191,619.735 2352.76,619.735 "/>
<polyline clip-path="url(#clip952)" style="stroke:#000000; stroke-linecap:round; stroke-linejoin:round; stroke-width:2; stroke-opacity:0.05; fill:none" points="149.191,599.027 2352.76,599.027 "/>
<polyline clip-path="url(#clip952)" style="stroke:#000000; stroke-linecap:round; stroke-linejoin:round; stroke-width:2; stroke-opacity:0.05; fill:none" points="149.191,578.32 2352.76,578.32 "/>
<polyline clip-path="url(#clip952)" style="stroke:#000000; stroke-linecap:round; stroke-linejoin:round; stroke-width:2; stroke-opacity:0.05; fill:none" points="149.191,536.905 2352.76,536.905 "/>
<polyline clip-path="url(#clip952)" style="stroke:#000000; stroke-linecap:round; stroke-linejoin:round; stroke-width:2; stroke-opacity:0.05; fill:none" points="149.191,516.198 2352.76,516.198 "/>
<polyline clip-path="url(#clip952)" style="stroke:#000000; stroke-linecap:round; stroke-linejoin:round; stroke-width:2; stroke-opacity:0.05; fill:none" points="149.191,495.49 2352.76,495.49 "/>
<polyline clip-path="url(#clip952)" style="stroke:#000000; stroke-linecap:round; stroke-linejoin:round; stroke-width:2; stroke-opacity:0.05; fill:none" points="149.191,474.783 2352.76,474.783 "/>
<polyline clip-path="url(#clip952)" style="stroke:#000000; stroke-linecap:round; stroke-linejoin:round; stroke-width:2; stroke-opacity:0.05; fill:none" points="149.191,454.076 2352.76,454.076 "/>
<polyline clip-path="url(#clip952)" style="stroke:#000000; stroke-linecap:round; stroke-linejoin:round; stroke-width:2; stroke-opacity:0.05; fill:none" points="149.191,433.368 2352.76,433.368 "/>
<polyline clip-path="url(#clip952)" style="stroke:#000000; stroke-linecap:round; stroke-linejoin:round; stroke-width:2; stroke-opacity:0.05; fill:none" points="149.191,412.661 2352.76,412.661 "/>
<polyline clip-path="url(#clip952)" style="stroke:#000000; stroke-linecap:round; stroke-linejoin:round; stroke-width:2; stroke-opacity:0.05; fill:none" points="149.191,391.954 2352.76,391.954 "/>
<polyline clip-path="url(#clip952)" style="stroke:#000000; stroke-linecap:round; stroke-linejoin:round; stroke-width:2; stroke-opacity:0.05; fill:none" points="149.191,371.246 2352.76,371.246 "/>
<polyline clip-path="url(#clip952)" style="stroke:#000000; stroke-linecap:round; stroke-linejoin:round; stroke-width:2; stroke-opacity:0.05; fill:none" points="149.191,329.832 2352.76,329.832 "/>
<polyline clip-path="url(#clip952)" style="stroke:#000000; stroke-linecap:round; stroke-linejoin:round; stroke-width:2; stroke-opacity:0.05; fill:none" points="149.191,309.124 2352.76,309.124 "/>
<polyline clip-path="url(#clip952)" style="stroke:#000000; stroke-linecap:round; stroke-linejoin:round; stroke-width:2; stroke-opacity:0.05; fill:none" points="149.191,288.417 2352.76,288.417 "/>
<polyline clip-path="url(#clip952)" style="stroke:#000000; stroke-linecap:round; stroke-linejoin:round; stroke-width:2; stroke-opacity:0.05; fill:none" points="149.191,267.709 2352.76,267.709 "/>
<polyline clip-path="url(#clip952)" style="stroke:#000000; stroke-linecap:round; stroke-linejoin:round; stroke-width:2; stroke-opacity:0.05; fill:none" points="149.191,247.002 2352.76,247.002 "/>
<polyline clip-path="url(#clip952)" style="stroke:#000000; stroke-linecap:round; stroke-linejoin:round; stroke-width:2; stroke-opacity:0.05; fill:none" points="149.191,226.295 2352.76,226.295 "/>
<polyline clip-path="url(#clip952)" style="stroke:#000000; stroke-linecap:round; stroke-linejoin:round; stroke-width:2; stroke-opacity:0.05; fill:none" points="149.191,205.587 2352.76,205.587 "/>
<polyline clip-path="url(#clip952)" style="stroke:#000000; stroke-linecap:round; stroke-linejoin:round; stroke-width:2; stroke-opacity:0.05; fill:none" points="149.191,184.88 2352.76,184.88 "/>
<polyline clip-path="url(#clip952)" style="stroke:#000000; stroke-linecap:round; stroke-linejoin:round; stroke-width:2; stroke-opacity:0.05; fill:none" points="149.191,164.173 2352.76,164.173 "/>
<polyline clip-path="url(#clip952)" style="stroke:#000000; stroke-linecap:round; stroke-linejoin:round; stroke-width:2; stroke-opacity:0.05; fill:none" points="149.191,122.758 2352.76,122.758 "/>
<polyline clip-path="url(#clip952)" style="stroke:#000000; stroke-linecap:round; stroke-linejoin:round; stroke-width:2; stroke-opacity:0.1; fill:none" points="211.556,1423.18 211.556,106.192 "/>
<polyline clip-path="url(#clip952)" style="stroke:#000000; stroke-linecap:round; stroke-linejoin:round; stroke-width:2; stroke-opacity:0.1; fill:none" points="1090.17,1423.18 1090.17,106.192 "/>
<polyline clip-path="url(#clip952)" style="stroke:#000000; stroke-linecap:round; stroke-linejoin:round; stroke-width:2; stroke-opacity:0.1; fill:none" points="1529.48,1423.18 1529.48,106.192 "/>
<polyline clip-path="url(#clip952)" style="stroke:#000000; stroke-linecap:round; stroke-linejoin:round; stroke-width:2; stroke-opacity:0.1; fill:none" points="2290.39,1423.18 2290.39,106.192 "/>
<polyline clip-path="url(#clip952)" style="stroke:#000000; stroke-linecap:round; stroke-linejoin:round; stroke-width:2; stroke-opacity:0.1; fill:none" points="149.191,1385.91 2352.76,1385.91 "/>
<polyline clip-path="url(#clip952)" style="stroke:#000000; stroke-linecap:round; stroke-linejoin:round; stroke-width:2; stroke-opacity:0.1; fill:none" points="149.191,1178.83 2352.76,1178.83 "/>
<polyline clip-path="url(#clip952)" style="stroke:#000000; stroke-linecap:round; stroke-linejoin:round; stroke-width:2; stroke-opacity:0.1; fill:none" points="149.191,971.76 2352.76,971.76 "/>
<polyline clip-path="url(#clip952)" style="stroke:#000000; stroke-linecap:round; stroke-linejoin:round; stroke-width:2; stroke-opacity:0.1; fill:none" points="149.191,764.686 2352.76,764.686 "/>
<polyline clip-path="url(#clip952)" style="stroke:#000000; stroke-linecap:round; stroke-linejoin:round; stroke-width:2; stroke-opacity:0.1; fill:none" points="149.191,557.612 2352.76,557.612 "/>
<polyline clip-path="url(#clip952)" style="stroke:#000000; stroke-linecap:round; stroke-linejoin:round; stroke-width:2; stroke-opacity:0.1; fill:none" points="149.191,350.539 2352.76,350.539 "/>
<polyline clip-path="url(#clip952)" style="stroke:#000000; stroke-linecap:round; stroke-linejoin:round; stroke-width:2; stroke-opacity:0.1; fill:none" points="149.191,143.465 2352.76,143.465 "/>
<polyline clip-path="url(#clip950)" style="stroke:#000000; stroke-linecap:round; stroke-linejoin:round; stroke-width:4; stroke-opacity:1; fill:none" points="149.191,1423.18 2352.76,1423.18 "/>
<polyline clip-path="url(#clip950)" style="stroke:#000000; stroke-linecap:round; stroke-linejoin:round; stroke-width:4; stroke-opacity:1; fill:none" points="211.556,1423.18 211.556,1404.28 "/>
<polyline clip-path="url(#clip950)" style="stroke:#000000; stroke-linecap:round; stroke-linejoin:round; stroke-width:4; stroke-opacity:1; fill:none" points="1090.17,1423.18 1090.17,1404.28 "/>
<polyline clip-path="url(#clip950)" style="stroke:#000000; stroke-linecap:round; stroke-linejoin:round; stroke-width:4; stroke-opacity:1; fill:none" points="1529.48,1423.18 1529.48,1404.28 "/>
<polyline clip-path="url(#clip950)" style="stroke:#000000; stroke-linecap:round; stroke-linejoin:round; stroke-width:4; stroke-opacity:1; fill:none" points="2290.39,1423.18 2290.39,1404.28 "/>
<polyline clip-path="url(#clip950)" style="stroke:#000000; stroke-linecap:round; stroke-linejoin:round; stroke-width:4; stroke-opacity:1; fill:none" points="299.418,1423.18 299.418,1413.73 "/>
<polyline clip-path="url(#clip950)" style="stroke:#000000; stroke-linecap:round; stroke-linejoin:round; stroke-width:4; stroke-opacity:1; fill:none" points="387.28,1423.18 387.28,1413.73 "/>
<polyline clip-path="url(#clip950)" style="stroke:#000000; stroke-linecap:round; stroke-linejoin:round; stroke-width:4; stroke-opacity:1; fill:none" points="475.142,1423.18 475.142,1413.73 "/>
<polyline clip-path="url(#clip950)" style="stroke:#000000; stroke-linecap:round; stroke-linejoin:round; stroke-width:4; stroke-opacity:1; fill:none" points="563.004,1423.18 563.004,1413.73 "/>
<polyline clip-path="url(#clip950)" style="stroke:#000000; stroke-linecap:round; stroke-linejoin:round; stroke-width:4; stroke-opacity:1; fill:none" points="650.865,1423.18 650.865,1413.73 "/>
<polyline clip-path="url(#clip950)" style="stroke:#000000; stroke-linecap:round; stroke-linejoin:round; stroke-width:4; stroke-opacity:1; fill:none" points="738.727,1423.18 738.727,1413.73 "/>
<polyline clip-path="url(#clip950)" style="stroke:#000000; stroke-linecap:round; stroke-linejoin:round; stroke-width:4; stroke-opacity:1; fill:none" points="826.589,1423.18 826.589,1413.73 "/>
<polyline clip-path="url(#clip950)" style="stroke:#000000; stroke-linecap:round; stroke-linejoin:round; stroke-width:4; stroke-opacity:1; fill:none" points="914.451,1423.18 914.451,1413.73 "/>
<polyline clip-path="url(#clip950)" style="stroke:#000000; stroke-linecap:round; stroke-linejoin:round; stroke-width:4; stroke-opacity:1; fill:none" points="1002.31,1423.18 1002.31,1413.73 "/>
<polyline clip-path="url(#clip950)" style="stroke:#000000; stroke-linecap:round; stroke-linejoin:round; stroke-width:4; stroke-opacity:1; fill:none" points="1134.11,1423.18 1134.11,1413.73 "/>
<polyline clip-path="url(#clip950)" style="stroke:#000000; stroke-linecap:round; stroke-linejoin:round; stroke-width:4; stroke-opacity:1; fill:none" points="1178.04,1423.18 1178.04,1413.73 "/>
<polyline clip-path="url(#clip950)" style="stroke:#000000; stroke-linecap:round; stroke-linejoin:round; stroke-width:4; stroke-opacity:1; fill:none" points="1221.97,1423.18 1221.97,1413.73 "/>
<polyline clip-path="url(#clip950)" style="stroke:#000000; stroke-linecap:round; stroke-linejoin:round; stroke-width:4; stroke-opacity:1; fill:none" points="1265.9,1423.18 1265.9,1413.73 "/>
<polyline clip-path="url(#clip950)" style="stroke:#000000; stroke-linecap:round; stroke-linejoin:round; stroke-width:4; stroke-opacity:1; fill:none" points="1309.83,1423.18 1309.83,1413.73 "/>
<polyline clip-path="url(#clip950)" style="stroke:#000000; stroke-linecap:round; stroke-linejoin:round; stroke-width:4; stroke-opacity:1; fill:none" points="1353.76,1423.18 1353.76,1413.73 "/>
<polyline clip-path="url(#clip950)" style="stroke:#000000; stroke-linecap:round; stroke-linejoin:round; stroke-width:4; stroke-opacity:1; fill:none" points="1397.69,1423.18 1397.69,1413.73 "/>
<polyline clip-path="url(#clip950)" style="stroke:#000000; stroke-linecap:round; stroke-linejoin:round; stroke-width:4; stroke-opacity:1; fill:none" points="1441.62,1423.18 1441.62,1413.73 "/>
<polyline clip-path="url(#clip950)" style="stroke:#000000; stroke-linecap:round; stroke-linejoin:round; stroke-width:4; stroke-opacity:1; fill:none" points="1485.55,1423.18 1485.55,1413.73 "/>
<polyline clip-path="url(#clip950)" style="stroke:#000000; stroke-linecap:round; stroke-linejoin:round; stroke-width:4; stroke-opacity:1; fill:none" points="1605.58,1423.18 1605.58,1413.73 "/>
<polyline clip-path="url(#clip950)" style="stroke:#000000; stroke-linecap:round; stroke-linejoin:round; stroke-width:4; stroke-opacity:1; fill:none" points="1681.67,1423.18 1681.67,1413.73 "/>
<polyline clip-path="url(#clip950)" style="stroke:#000000; stroke-linecap:round; stroke-linejoin:round; stroke-width:4; stroke-opacity:1; fill:none" points="1757.76,1423.18 1757.76,1413.73 "/>
<polyline clip-path="url(#clip950)" style="stroke:#000000; stroke-linecap:round; stroke-linejoin:round; stroke-width:4; stroke-opacity:1; fill:none" points="1833.85,1423.18 1833.85,1413.73 "/>
<polyline clip-path="url(#clip950)" style="stroke:#000000; stroke-linecap:round; stroke-linejoin:round; stroke-width:4; stroke-opacity:1; fill:none" points="1909.94,1423.18 1909.94,1413.73 "/>
<polyline clip-path="url(#clip950)" style="stroke:#000000; stroke-linecap:round; stroke-linejoin:round; stroke-width:4; stroke-opacity:1; fill:none" points="1986.03,1423.18 1986.03,1413.73 "/>
<polyline clip-path="url(#clip950)" style="stroke:#000000; stroke-linecap:round; stroke-linejoin:round; stroke-width:4; stroke-opacity:1; fill:none" points="2062.12,1423.18 2062.12,1413.73 "/>
<polyline clip-path="url(#clip950)" style="stroke:#000000; stroke-linecap:round; stroke-linejoin:round; stroke-width:4; stroke-opacity:1; fill:none" points="2138.21,1423.18 2138.21,1413.73 "/>
<polyline clip-path="url(#clip950)" style="stroke:#000000; stroke-linecap:round; stroke-linejoin:round; stroke-width:4; stroke-opacity:1; fill:none" points="2214.3,1423.18 2214.3,1413.73 "/>
<polyline clip-path="url(#clip950)" style="stroke:#000000; stroke-linecap:round; stroke-linejoin:round; stroke-width:4; stroke-opacity:1; fill:none" points="2328.44,1423.18 2328.44,1413.73 "/>
<path clip-path="url(#clip950)" d="M200.804 1485.58 L200.804 1451.02 L222.308 1451.02 L222.308 1454.96 L205.48 1454.96 L205.48 1485.58 L200.804 1485.58 Z" fill="#000000" fill-rule="nonzero" fill-opacity="1" /><path clip-path="url(#clip950)" d="M1076.46 1451.02 L1081.14 1451.02 L1081.14 1465.63 L1096.64 1451.02 L1102.66 1451.02 L1085.51 1467.13 L1103.89 1485.58 L1097.73 1485.58 L1081.14 1468.94 L1081.14 1485.58 L1076.46 1485.58 L1076.46 1451.02 Z" fill="#000000" fill-rule="nonzero" fill-opacity="1" /><path clip-path="url(#clip950)" d="M1513.67 1451.02 L1520.64 1451.02 L1529.46 1474.54 L1538.33 1451.02 L1545.29 1451.02 L1545.29 1485.58 L1540.73 1485.58 L1540.73 1455.23 L1531.82 1478.94 L1527.12 1478.94 L1518.21 1455.23 L1518.21 1485.58 L1513.67 1485.58 L1513.67 1451.02 Z" fill="#000000" fill-rule="nonzero" fill-opacity="1" /><path clip-path="url(#clip950)" d="M2279.64 1485.58 L2279.64 1451.02 L2301.14 1451.02 L2301.14 1454.96 L2284.31 1454.96 L2284.31 1485.58 L2279.64 1485.58 Z" fill="#000000" fill-rule="nonzero" fill-opacity="1" /><path clip-path="url(#clip950)" d="M1235.15 1518.52 L1241.04 1518.52 L1241.04 1547.77 L1258.52 1532.4 L1266 1532.4 L1247.09 1549.07 L1266.79 1568.04 L1259.15 1568.04 L1241.04 1550.63 L1241.04 1568.04 L1235.15 1568.04 L1235.15 1518.52 Z" fill="#000000" fill-rule="nonzero" fill-opacity="1" /><polyline clip-path="url(#clip950)" style="stroke:#000000; stroke-linecap:round; stroke-linejoin:round; stroke-width:4; stroke-opacity:1; fill:none" points="149.191,1423.18 149.191,106.192 "/>
<polyline clip-path="url(#clip950)" style="stroke:#000000; stroke-linecap:round; stroke-linejoin:round; stroke-width:4; stroke-opacity:1; fill:none" points="149.191,1385.91 168.089,1385.91 "/>
<polyline clip-path="url(#clip950)" style="stroke:#000000; stroke-linecap:round; stroke-linejoin:round; stroke-width:4; stroke-opacity:1; fill:none" points="149.191,1178.83 168.089,1178.83 "/>
<polyline clip-path="url(#clip950)" style="stroke:#000000; stroke-linecap:round; stroke-linejoin:round; stroke-width:4; stroke-opacity:1; fill:none" points="149.191,971.76 168.089,971.76 "/>
<polyline clip-path="url(#clip950)" style="stroke:#000000; stroke-linecap:round; stroke-linejoin:round; stroke-width:4; stroke-opacity:1; fill:none" points="149.191,764.686 168.089,764.686 "/>
<polyline clip-path="url(#clip950)" style="stroke:#000000; stroke-linecap:round; stroke-linejoin:round; stroke-width:4; stroke-opacity:1; fill:none" points="149.191,557.612 168.089,557.612 "/>
<polyline clip-path="url(#clip950)" style="stroke:#000000; stroke-linecap:round; stroke-linejoin:round; stroke-width:4; stroke-opacity:1; fill:none" points="149.191,350.539 168.089,350.539 "/>
<polyline clip-path="url(#clip950)" style="stroke:#000000; stroke-linecap:round; stroke-linejoin:round; stroke-width:4; stroke-opacity:1; fill:none" points="149.191,143.465 168.089,143.465 "/>
<polyline clip-path="url(#clip950)" style="stroke:#000000; stroke-linecap:round; stroke-linejoin:round; stroke-width:4; stroke-opacity:1; fill:none" points="149.191,1406.61 158.64,1406.61 "/>
<polyline clip-path="url(#clip950)" style="stroke:#000000; stroke-linecap:round; stroke-linejoin:round; stroke-width:4; stroke-opacity:1; fill:none" points="149.191,1365.2 158.64,1365.2 "/>
<polyline clip-path="url(#clip950)" style="stroke:#000000; stroke-linecap:round; stroke-linejoin:round; stroke-width:4; stroke-opacity:1; fill:none" points="149.191,1344.49 158.64,1344.49 "/>
<polyline clip-path="url(#clip950)" style="stroke:#000000; stroke-linecap:round; stroke-linejoin:round; stroke-width:4; stroke-opacity:1; fill:none" points="149.191,1323.78 158.64,1323.78 "/>
<polyline clip-path="url(#clip950)" style="stroke:#000000; stroke-linecap:round; stroke-linejoin:round; stroke-width:4; stroke-opacity:1; fill:none" points="149.191,1303.08 158.64,1303.08 "/>
<polyline clip-path="url(#clip950)" style="stroke:#000000; stroke-linecap:round; stroke-linejoin:round; stroke-width:4; stroke-opacity:1; fill:none" points="149.191,1282.37 158.64,1282.37 "/>
<polyline clip-path="url(#clip950)" style="stroke:#000000; stroke-linecap:round; stroke-linejoin:round; stroke-width:4; stroke-opacity:1; fill:none" points="149.191,1261.66 158.64,1261.66 "/>
<polyline clip-path="url(#clip950)" style="stroke:#000000; stroke-linecap:round; stroke-linejoin:round; stroke-width:4; stroke-opacity:1; fill:none" points="149.191,1240.96 158.64,1240.96 "/>
<polyline clip-path="url(#clip950)" style="stroke:#000000; stroke-linecap:round; stroke-linejoin:round; stroke-width:4; stroke-opacity:1; fill:none" points="149.191,1220.25 158.64,1220.25 "/>
<polyline clip-path="url(#clip950)" style="stroke:#000000; stroke-linecap:round; stroke-linejoin:round; stroke-width:4; stroke-opacity:1; fill:none" points="149.191,1199.54 158.64,1199.54 "/>
<polyline clip-path="url(#clip950)" style="stroke:#000000; stroke-linecap:round; stroke-linejoin:round; stroke-width:4; stroke-opacity:1; fill:none" points="149.191,1158.13 158.64,1158.13 "/>
<polyline clip-path="url(#clip950)" style="stroke:#000000; stroke-linecap:round; stroke-linejoin:round; stroke-width:4; stroke-opacity:1; fill:none" points="149.191,1137.42 158.64,1137.42 "/>
<polyline clip-path="url(#clip950)" style="stroke:#000000; stroke-linecap:round; stroke-linejoin:round; stroke-width:4; stroke-opacity:1; fill:none" points="149.191,1116.71 158.64,1116.71 "/>
<polyline clip-path="url(#clip950)" style="stroke:#000000; stroke-linecap:round; stroke-linejoin:round; stroke-width:4; stroke-opacity:1; fill:none" points="149.191,1096 158.64,1096 "/>
<polyline clip-path="url(#clip950)" style="stroke:#000000; stroke-linecap:round; stroke-linejoin:round; stroke-width:4; stroke-opacity:1; fill:none" points="149.191,1075.3 158.64,1075.3 "/>
<polyline clip-path="url(#clip950)" style="stroke:#000000; stroke-linecap:round; stroke-linejoin:round; stroke-width:4; stroke-opacity:1; fill:none" points="149.191,1054.59 158.64,1054.59 "/>
<polyline clip-path="url(#clip950)" style="stroke:#000000; stroke-linecap:round; stroke-linejoin:round; stroke-width:4; stroke-opacity:1; fill:none" points="149.191,1033.88 158.64,1033.88 "/>
<polyline clip-path="url(#clip950)" style="stroke:#000000; stroke-linecap:round; stroke-linejoin:round; stroke-width:4; stroke-opacity:1; fill:none" points="149.191,1013.17 158.64,1013.17 "/>
<polyline clip-path="url(#clip950)" style="stroke:#000000; stroke-linecap:round; stroke-linejoin:round; stroke-width:4; stroke-opacity:1; fill:none" points="149.191,992.467 158.64,992.467 "/>
<polyline clip-path="url(#clip950)" style="stroke:#000000; stroke-linecap:round; stroke-linejoin:round; stroke-width:4; stroke-opacity:1; fill:none" points="149.191,951.052 158.64,951.052 "/>
<polyline clip-path="url(#clip950)" style="stroke:#000000; stroke-linecap:round; stroke-linejoin:round; stroke-width:4; stroke-opacity:1; fill:none" points="149.191,930.345 158.64,930.345 "/>
<polyline clip-path="url(#clip950)" style="stroke:#000000; stroke-linecap:round; stroke-linejoin:round; stroke-width:4; stroke-opacity:1; fill:none" points="149.191,909.637 158.64,909.637 "/>
<polyline clip-path="url(#clip950)" style="stroke:#000000; stroke-linecap:round; stroke-linejoin:round; stroke-width:4; stroke-opacity:1; fill:none" points="149.191,888.93 158.64,888.93 "/>
<polyline clip-path="url(#clip950)" style="stroke:#000000; stroke-linecap:round; stroke-linejoin:round; stroke-width:4; stroke-opacity:1; fill:none" points="149.191,868.223 158.64,868.223 "/>
<polyline clip-path="url(#clip950)" style="stroke:#000000; stroke-linecap:round; stroke-linejoin:round; stroke-width:4; stroke-opacity:1; fill:none" points="149.191,847.515 158.64,847.515 "/>
<polyline clip-path="url(#clip950)" style="stroke:#000000; stroke-linecap:round; stroke-linejoin:round; stroke-width:4; stroke-opacity:1; fill:none" points="149.191,826.808 158.64,826.808 "/>
<polyline clip-path="url(#clip950)" style="stroke:#000000; stroke-linecap:round; stroke-linejoin:round; stroke-width:4; stroke-opacity:1; fill:none" points="149.191,806.101 158.64,806.101 "/>
<polyline clip-path="url(#clip950)" style="stroke:#000000; stroke-linecap:round; stroke-linejoin:round; stroke-width:4; stroke-opacity:1; fill:none" points="149.191,785.393 158.64,785.393 "/>
<polyline clip-path="url(#clip950)" style="stroke:#000000; stroke-linecap:round; stroke-linejoin:round; stroke-width:4; stroke-opacity:1; fill:none" points="149.191,743.979 158.64,743.979 "/>
<polyline clip-path="url(#clip950)" style="stroke:#000000; stroke-linecap:round; stroke-linejoin:round; stroke-width:4; stroke-opacity:1; fill:none" points="149.191,723.271 158.64,723.271 "/>
<polyline clip-path="url(#clip950)" style="stroke:#000000; stroke-linecap:round; stroke-linejoin:round; stroke-width:4; stroke-opacity:1; fill:none" points="149.191,702.564 158.64,702.564 "/>
<polyline clip-path="url(#clip950)" style="stroke:#000000; stroke-linecap:round; stroke-linejoin:round; stroke-width:4; stroke-opacity:1; fill:none" points="149.191,681.857 158.64,681.857 "/>
<polyline clip-path="url(#clip950)" style="stroke:#000000; stroke-linecap:round; stroke-linejoin:round; stroke-width:4; stroke-opacity:1; fill:none" points="149.191,661.149 158.64,661.149 "/>
<polyline clip-path="url(#clip950)" style="stroke:#000000; stroke-linecap:round; stroke-linejoin:round; stroke-width:4; stroke-opacity:1; fill:none" points="149.191,640.442 158.64,640.442 "/>
<polyline clip-path="url(#clip950)" style="stroke:#000000; stroke-linecap:round; stroke-linejoin:round; stroke-width:4; stroke-opacity:1; fill:none" points="149.191,619.735 158.64,619.735 "/>
<polyline clip-path="url(#clip950)" style="stroke:#000000; stroke-linecap:round; stroke-linejoin:round; stroke-width:4; stroke-opacity:1; fill:none" points="149.191,599.027 158.64,599.027 "/>
<polyline clip-path="url(#clip950)" style="stroke:#000000; stroke-linecap:round; stroke-linejoin:round; stroke-width:4; stroke-opacity:1; fill:none" points="149.191,578.32 158.64,578.32 "/>
<polyline clip-path="url(#clip950)" style="stroke:#000000; stroke-linecap:round; stroke-linejoin:round; stroke-width:4; stroke-opacity:1; fill:none" points="149.191,536.905 158.64,536.905 "/>
<polyline clip-path="url(#clip950)" style="stroke:#000000; stroke-linecap:round; stroke-linejoin:round; stroke-width:4; stroke-opacity:1; fill:none" points="149.191,516.198 158.64,516.198 "/>
<polyline clip-path="url(#clip950)" style="stroke:#000000; stroke-linecap:round; stroke-linejoin:round; stroke-width:4; stroke-opacity:1; fill:none" points="149.191,495.49 158.64,495.49 "/>
<polyline clip-path="url(#clip950)" style="stroke:#000000; stroke-linecap:round; stroke-linejoin:round; stroke-width:4; stroke-opacity:1; fill:none" points="149.191,474.783 158.64,474.783 "/>
<polyline clip-path="url(#clip950)" style="stroke:#000000; stroke-linecap:round; stroke-linejoin:round; stroke-width:4; stroke-opacity:1; fill:none" points="149.191,454.076 158.64,454.076 "/>
<polyline clip-path="url(#clip950)" style="stroke:#000000; stroke-linecap:round; stroke-linejoin:round; stroke-width:4; stroke-opacity:1; fill:none" points="149.191,433.368 158.64,433.368 "/>
<polyline clip-path="url(#clip950)" style="stroke:#000000; stroke-linecap:round; stroke-linejoin:round; stroke-width:4; stroke-opacity:1; fill:none" points="149.191,412.661 158.64,412.661 "/>
<polyline clip-path="url(#clip950)" style="stroke:#000000; stroke-linecap:round; stroke-linejoin:round; stroke-width:4; stroke-opacity:1; fill:none" points="149.191,391.954 158.64,391.954 "/>
<polyline clip-path="url(#clip950)" style="stroke:#000000; stroke-linecap:round; stroke-linejoin:round; stroke-width:4; stroke-opacity:1; fill:none" points="149.191,371.246 158.64,371.246 "/>
<polyline clip-path="url(#clip950)" style="stroke:#000000; stroke-linecap:round; stroke-linejoin:round; stroke-width:4; stroke-opacity:1; fill:none" points="149.191,329.832 158.64,329.832 "/>
<polyline clip-path="url(#clip950)" style="stroke:#000000; stroke-linecap:round; stroke-linejoin:round; stroke-width:4; stroke-opacity:1; fill:none" points="149.191,309.124 158.64,309.124 "/>
<polyline clip-path="url(#clip950)" style="stroke:#000000; stroke-linecap:round; stroke-linejoin:round; stroke-width:4; stroke-opacity:1; fill:none" points="149.191,288.417 158.64,288.417 "/>
<polyline clip-path="url(#clip950)" style="stroke:#000000; stroke-linecap:round; stroke-linejoin:round; stroke-width:4; stroke-opacity:1; fill:none" points="149.191,267.709 158.64,267.709 "/>
<polyline clip-path="url(#clip950)" style="stroke:#000000; stroke-linecap:round; stroke-linejoin:round; stroke-width:4; stroke-opacity:1; fill:none" points="149.191,247.002 158.64,247.002 "/>
<polyline clip-path="url(#clip950)" style="stroke:#000000; stroke-linecap:round; stroke-linejoin:round; stroke-width:4; stroke-opacity:1; fill:none" points="149.191,226.295 158.64,226.295 "/>
<polyline clip-path="url(#clip950)" style="stroke:#000000; stroke-linecap:round; stroke-linejoin:round; stroke-width:4; stroke-opacity:1; fill:none" points="149.191,205.587 158.64,205.587 "/>
<polyline clip-path="url(#clip950)" style="stroke:#000000; stroke-linecap:round; stroke-linejoin:round; stroke-width:4; stroke-opacity:1; fill:none" points="149.191,184.88 158.64,184.88 "/>
<polyline clip-path="url(#clip950)" style="stroke:#000000; stroke-linecap:round; stroke-linejoin:round; stroke-width:4; stroke-opacity:1; fill:none" points="149.191,164.173 158.64,164.173 "/>
<polyline clip-path="url(#clip950)" style="stroke:#000000; stroke-linecap:round; stroke-linejoin:round; stroke-width:4; stroke-opacity:1; fill:none" points="149.191,122.758 158.64,122.758 "/>
<path clip-path="url(#clip950)" d="M50.9921 1386.36 L80.6679 1386.36 L80.6679 1390.29 L50.9921 1390.29 L50.9921 1386.36 Z" fill="#000000" fill-rule="nonzero" fill-opacity="1" /><path clip-path="url(#clip950)" d="M103.608 1372.7 L91.8021 1391.15 L103.608 1391.15 L103.608 1372.7 M102.381 1368.63 L108.26 1368.63 L108.26 1391.15 L113.191 1391.15 L113.191 1395.04 L108.26 1395.04 L108.26 1403.19 L103.608 1403.19 L103.608 1395.04 L88.0058 1395.04 L88.0058 1390.52 L102.381 1368.63 Z" fill="#000000" fill-rule="nonzero" fill-opacity="1" /><path clip-path="url(#clip950)" d="M52.1264 1179.28 L81.8021 1179.28 L81.8021 1183.22 L52.1264 1183.22 L52.1264 1179.28 Z" fill="#000000" fill-rule="nonzero" fill-opacity="1" /><path clip-path="url(#clip950)" d="M106.061 1177.48 Q109.418 1178.2 111.293 1180.47 Q113.191 1182.73 113.191 1186.07 Q113.191 1191.18 109.672 1193.98 Q106.154 1196.78 99.6724 1196.78 Q97.4965 1196.78 95.1817 1196.34 Q92.89 1195.93 90.4364 1195.07 L90.4364 1190.56 Q92.3808 1191.69 94.6956 1192.27 Q97.0104 1192.85 99.5335 1192.85 Q103.932 1192.85 106.223 1191.11 Q108.538 1189.38 108.538 1186.07 Q108.538 1183.01 106.385 1181.3 Q104.256 1179.56 100.436 1179.56 L96.4085 1179.56 L96.4085 1175.72 L100.621 1175.72 Q104.071 1175.72 105.899 1174.35 Q107.728 1172.97 107.728 1170.37 Q107.728 1167.71 105.83 1166.3 Q103.955 1164.86 100.436 1164.86 Q98.515 1164.86 96.316 1165.28 Q94.1169 1165.7 91.478 1166.58 L91.478 1162.41 Q94.14 1161.67 96.4548 1161.3 Q98.7928 1160.93 100.853 1160.93 Q106.177 1160.93 109.279 1163.36 Q112.381 1165.77 112.381 1169.89 Q112.381 1172.76 110.737 1174.75 Q109.094 1176.72 106.061 1177.48 Z" fill="#000000" fill-rule="nonzero" fill-opacity="1" /><path clip-path="url(#clip950)" d="M53.0754 972.211 L82.7512 972.211 L82.7512 976.146 L53.0754 976.146 L53.0754 972.211 Z" fill="#000000" fill-rule="nonzero" fill-opacity="1" /><path clip-path="url(#clip950)" d="M96.8715 985.104 L113.191 985.104 L113.191 989.04 L91.2465 989.04 L91.2465 985.104 Q93.9086 982.35 98.4919 977.72 Q103.098 973.067 104.279 971.725 Q106.524 969.202 107.404 967.466 Q108.307 965.706 108.307 964.017 Q108.307 961.262 106.362 959.526 Q104.441 957.79 101.339 957.79 Q99.14 957.79 96.6863 958.554 Q94.2558 959.317 91.478 960.868 L91.478 956.146 Q94.3021 955.012 96.7558 954.433 Q99.2095 953.855 101.246 953.855 Q106.617 953.855 109.811 956.54 Q113.006 959.225 113.006 963.716 Q113.006 965.845 112.196 967.766 Q111.408 969.665 109.302 972.257 Q108.723 972.928 105.621 976.146 Q102.52 979.341 96.8715 985.104 Z" fill="#000000" fill-rule="nonzero" fill-opacity="1" /><path clip-path="url(#clip950)" d="M52.7051 765.137 L82.3808 765.137 L82.3808 769.073 L52.7051 769.073 L52.7051 765.137 Z" fill="#000000" fill-rule="nonzero" fill-opacity="1" /><path clip-path="url(#clip950)" d="M93.2836 778.031 L100.922 778.031 L100.922 751.665 L92.6123 753.332 L92.6123 749.073 L100.876 747.406 L105.552 747.406 L105.552 778.031 L113.191 778.031 L113.191 781.966 L93.2836 781.966 L93.2836 778.031 Z" fill="#000000" fill-rule="nonzero" fill-opacity="1" /><path clip-path="url(#clip950)" d="M101.246 543.411 Q97.6354 543.411 95.8067 546.976 Q94.0012 550.518 94.0012 557.647 Q94.0012 564.754 95.8067 568.318 Q97.6354 571.86 101.246 571.86 Q104.881 571.86 106.686 568.318 Q108.515 564.754 108.515 557.647 Q108.515 550.518 106.686 546.976 Q104.881 543.411 101.246 543.411 M101.246 539.707 Q107.057 539.707 110.112 544.314 Q113.191 548.897 113.191 557.647 Q113.191 566.374 110.112 570.98 Q107.057 575.564 101.246 575.564 Q95.4363 575.564 92.3576 570.98 Q89.3021 566.374 89.3021 557.647 Q89.3021 548.897 92.3576 544.314 Q95.4363 539.707 101.246 539.707 Z" fill="#000000" fill-rule="nonzero" fill-opacity="1" /><path clip-path="url(#clip950)" d="M93.2836 363.884 L100.922 363.884 L100.922 337.518 L92.6123 339.185 L92.6123 334.926 L100.876 333.259 L105.552 333.259 L105.552 363.884 L113.191 363.884 L113.191 367.819 L93.2836 367.819 L93.2836 363.884 Z" fill="#000000" fill-rule="nonzero" fill-opacity="1" /><path clip-path="url(#clip950)" d="M96.8715 156.81 L113.191 156.81 L113.191 160.745 L91.2465 160.745 L91.2465 156.81 Q93.9086 154.056 98.4919 149.426 Q103.098 144.773 104.279 143.431 Q106.524 140.908 107.404 139.171 Q108.307 137.412 108.307 135.722 Q108.307 132.968 106.362 131.232 Q104.441 129.496 101.339 129.496 Q99.14 129.496 96.6863 130.259 Q94.2558 131.023 91.478 132.574 L91.478 127.852 Q94.3021 126.718 96.7558 126.139 Q99.2095 125.56 101.246 125.56 Q106.617 125.56 109.811 128.246 Q113.006 130.931 113.006 135.421 Q113.006 137.551 112.196 139.472 Q111.408 141.37 109.302 143.963 Q108.723 144.634 105.621 147.852 Q102.52 151.046 96.8715 156.81 Z" fill="#000000" fill-rule="nonzero" fill-opacity="1" /><path clip-path="url(#clip950)" d="M741.963 8.64 L747.808 8.64 L747.808 26.898 L767.194 8.64 L774.717 8.64 L753.276 28.7788 L776.251 51.84 L768.554 51.84 L747.808 31.0357 L747.808 51.84 L741.963 51.84 L741.963 8.64 Z" fill="#000000" fill-rule="nonzero" fill-opacity="1" /><path clip-path="url(#clip950)" d="M794.277 35.5496 Q787.825 35.5496 785.336 37.0253 Q782.848 38.501 782.848 42.06 Q782.848 44.8956 784.7 46.5738 Q786.581 48.2231 789.792 48.2231 Q794.219 48.2231 796.881 45.0981 Q799.572 41.9442 799.572 36.7359 L799.572 35.5496 L794.277 35.5496 M804.896 33.3505 L804.896 51.84 L799.572 51.84 L799.572 46.921 Q797.75 49.8724 795.03 51.2902 Q792.31 52.6791 788.375 52.6791 Q783.398 52.6791 780.446 49.9014 Q777.524 47.0947 777.524 42.4072 Q777.524 36.9385 781.17 34.1607 Q784.845 31.3829 792.107 31.3829 L799.572 31.3829 L799.572 30.8621 Q799.572 27.1874 797.142 25.1908 Q794.74 23.1654 790.371 23.1654 Q787.593 23.1654 784.96 23.8309 Q782.327 24.4964 779.897 25.8274 L779.897 20.9085 Q782.819 19.78 785.568 19.2302 Q788.317 18.6515 790.921 18.6515 Q797.952 18.6515 801.424 22.2973 Q804.896 25.9431 804.896 33.3505 Z" fill="#000000" fill-rule="nonzero" fill-opacity="1" /><path clip-path="url(#clip950)" d="M837.188 35.2602 Q837.188 29.4732 834.786 26.2904 Q832.414 23.1075 828.102 23.1075 Q823.82 23.1075 821.418 26.2904 Q819.046 29.4732 819.046 35.2602 Q819.046 41.0183 821.418 44.2012 Q823.82 47.384 828.102 47.384 Q832.414 47.384 834.786 44.2012 Q837.188 41.0183 837.188 35.2602 M842.512 47.818 Q842.512 56.0934 838.837 60.1154 Q835.163 64.1663 827.582 64.1663 Q824.775 64.1663 822.286 63.7323 Q819.798 63.3272 817.454 62.4592 L817.454 57.2798 Q819.798 58.5529 822.084 59.1606 Q824.37 59.7682 826.742 59.7682 Q831.98 59.7682 834.584 57.0194 Q837.188 54.2995 837.188 48.7729 L837.188 46.1398 Q835.539 49.0044 832.963 50.4222 Q830.388 51.84 826.8 51.84 Q820.84 51.84 817.194 47.2972 Q813.548 42.7544 813.548 35.2602 Q813.548 27.7371 817.194 23.1943 Q820.84 18.6515 826.8 18.6515 Q830.388 18.6515 832.963 20.0693 Q835.539 21.4872 837.188 24.3517 L837.188 19.4328 L842.512 19.4328 L842.512 47.818 Z" fill="#000000" fill-rule="nonzero" fill-opacity="1" /><path clip-path="url(#clip950)" d="M866.036 23.1654 Q861.754 23.1654 859.265 26.5218 Q856.777 29.8494 856.777 35.6653 Q856.777 41.4813 859.236 44.8377 Q861.725 48.1653 866.036 48.1653 Q870.29 48.1653 872.778 44.8088 Q875.266 41.4523 875.266 35.6653 Q875.266 29.9072 872.778 26.5508 Q870.29 23.1654 866.036 23.1654 M866.036 18.6515 Q872.981 18.6515 876.945 23.1654 Q880.909 27.6792 880.909 35.6653 Q880.909 43.6225 876.945 48.1653 Q872.981 52.6791 866.036 52.6791 Q859.063 52.6791 855.099 48.1653 Q851.164 43.6225 851.164 35.6653 Q851.164 27.6792 855.099 23.1654 Q859.063 18.6515 866.036 18.6515 Z" fill="#000000" fill-rule="nonzero" fill-opacity="1" /><path clip-path="url(#clip950)" d="M914.965 25.6538 Q916.962 22.0659 919.74 20.3587 Q922.517 18.6515 926.279 18.6515 Q931.343 18.6515 934.091 22.2105 Q936.84 25.7406 936.84 32.2799 L936.84 51.84 L931.487 51.84 L931.487 32.4535 Q931.487 27.795 929.838 25.5381 Q928.189 23.2811 924.803 23.2811 Q920.666 23.2811 918.264 26.03 Q915.862 28.7788 915.862 33.5241 L915.862 51.84 L910.509 51.84 L910.509 32.4535 Q910.509 27.7661 908.86 25.5381 Q907.211 23.2811 903.767 23.2811 Q899.688 23.2811 897.286 26.0589 Q894.884 28.8077 894.884 33.5241 L894.884 51.84 L889.531 51.84 L889.531 19.4328 L894.884 19.4328 L894.884 24.4675 Q896.707 21.4872 899.254 20.0693 Q901.8 18.6515 905.301 18.6515 Q908.831 18.6515 911.291 20.4455 Q913.779 22.2395 914.965 25.6538 Z" fill="#000000" fill-rule="nonzero" fill-opacity="1" /><path clip-path="url(#clip950)" d="M975.179 34.3054 L975.179 36.9095 L950.7 36.9095 Q951.047 42.4072 953.999 45.3007 Q956.979 48.1653 962.274 48.1653 Q965.341 48.1653 968.206 47.4129 Q971.099 46.6606 973.935 45.156 L973.935 50.1907 Q971.07 51.406 968.061 52.0425 Q965.052 52.6791 961.956 52.6791 Q954.201 52.6791 949.658 48.1653 Q945.145 43.6514 945.145 35.9547 Q945.145 27.9975 949.427 23.339 Q953.738 18.6515 961.03 18.6515 Q967.569 18.6515 971.36 22.876 Q975.179 27.0716 975.179 34.3054 M969.855 32.7429 Q969.797 28.3737 967.396 25.7695 Q965.023 23.1654 961.088 23.1654 Q956.632 23.1654 953.941 25.6827 Q951.279 28.2001 950.874 32.7718 L969.855 32.7429 Z" fill="#000000" fill-rule="nonzero" fill-opacity="1" /><path clip-path="url(#clip950)" d="M996.707 6.87496 Q992.83 13.53 990.949 20.0404 Q989.068 26.5508 989.068 33.2348 Q989.068 39.9188 990.949 46.487 Q992.858 53.0263 996.707 59.6525 L992.077 59.6525 Q987.737 52.8527 985.567 46.2845 Q983.426 39.7162 983.426 33.2348 Q983.426 26.7823 985.567 20.2429 Q987.708 13.7036 992.077 6.87496 L996.707 6.87496 Z" fill="#000000" fill-rule="nonzero" fill-opacity="1" /><path clip-path="url(#clip950)" d="M1039.62 11.9675 L1039.62 18.1307 Q1036.67 15.3819 1033.31 14.0219 Q1029.98 12.662 1026.22 12.662 Q1018.81 12.662 1014.88 17.2048 Q1010.94 21.7186 1010.94 30.2834 Q1010.94 38.8192 1014.88 43.362 Q1018.81 47.8759 1026.22 47.8759 Q1029.98 47.8759 1033.31 46.516 Q1036.67 45.156 1039.62 42.4072 L1039.62 48.5125 Q1036.55 50.5958 1033.11 51.6375 Q1029.69 52.6791 1025.87 52.6791 Q1016.06 52.6791 1010.42 46.6896 Q1004.78 40.6711 1004.78 30.2834 Q1004.78 19.8668 1010.42 13.8772 Q1016.06 7.85875 1025.87 7.85875 Q1029.75 7.85875 1033.16 8.90042 Q1036.61 9.91314 1039.62 11.9675 Z" fill="#000000" fill-rule="nonzero" fill-opacity="1" /><path clip-path="url(#clip950)" d="M1060.97 23.1654 Q1056.69 23.1654 1054.2 26.5218 Q1051.71 29.8494 1051.71 35.6653 Q1051.71 41.4813 1054.17 44.8377 Q1056.66 48.1653 1060.97 48.1653 Q1065.22 48.1653 1067.71 44.8088 Q1070.2 41.4523 1070.2 35.6653 Q1070.2 29.9072 1067.71 26.5508 Q1065.22 23.1654 1060.97 23.1654 M1060.97 18.6515 Q1067.92 18.6515 1071.88 23.1654 Q1075.84 27.6792 1075.84 35.6653 Q1075.84 43.6225 1071.88 48.1653 Q1067.92 52.6791 1060.97 52.6791 Q1054 52.6791 1050.03 48.1653 Q1046.1 43.6225 1046.1 35.6653 Q1046.1 27.6792 1050.03 23.1654 Q1054 18.6515 1060.97 18.6515 Z" fill="#000000" fill-rule="nonzero" fill-opacity="1" /><path clip-path="url(#clip950)" d="M1109.9 25.6538 Q1111.9 22.0659 1114.67 20.3587 Q1117.45 18.6515 1121.21 18.6515 Q1126.28 18.6515 1129.03 22.2105 Q1131.78 25.7406 1131.78 32.2799 L1131.78 51.84 L1126.42 51.84 L1126.42 32.4535 Q1126.42 27.795 1124.77 25.5381 Q1123.12 23.2811 1119.74 23.2811 Q1115.6 23.2811 1113.2 26.03 Q1110.8 28.7788 1110.8 33.5241 L1110.8 51.84 L1105.44 51.84 L1105.44 32.4535 Q1105.44 27.7661 1103.8 25.5381 Q1102.15 23.2811 1098.7 23.2811 Q1094.62 23.2811 1092.22 26.0589 Q1089.82 28.8077 1089.82 33.5241 L1089.82 51.84 L1084.47 51.84 L1084.47 19.4328 L1089.82 19.4328 L1089.82 24.4675 Q1091.64 21.4872 1094.19 20.0693 Q1096.74 18.6515 1100.24 18.6515 Q1103.77 18.6515 1106.23 20.4455 Q1108.71 22.2395 1109.9 25.6538 Z" fill="#000000" fill-rule="nonzero" fill-opacity="1" /><path clip-path="url(#clip950)" d="M1147.55 46.9789 L1147.55 64.1663 L1142.19 64.1663 L1142.19 19.4328 L1147.55 19.4328 L1147.55 24.3517 Q1149.22 21.4582 1151.77 20.0693 Q1154.34 18.6515 1157.9 18.6515 Q1163.81 18.6515 1167.48 23.339 Q1171.19 28.0265 1171.19 35.6653 Q1171.19 43.3042 1167.48 47.9916 Q1163.81 52.6791 1157.9 52.6791 Q1154.34 52.6791 1151.77 51.2902 Q1149.22 49.8724 1147.55 46.9789 M1165.66 35.6653 Q1165.66 29.7915 1163.23 26.464 Q1160.83 23.1075 1156.6 23.1075 Q1152.38 23.1075 1149.95 26.464 Q1147.55 29.7915 1147.55 35.6653 Q1147.55 41.5391 1149.95 44.8956 Q1152.38 48.2231 1156.6 48.2231 Q1160.83 48.2231 1163.23 44.8956 Q1165.66 41.5391 1165.66 35.6653 Z" fill="#000000" fill-rule="nonzero" fill-opacity="1" /><path clip-path="url(#clip950)" d="M1192.57 23.1654 Q1188.29 23.1654 1185.8 26.5218 Q1183.31 29.8494 1183.31 35.6653 Q1183.31 41.4813 1185.77 44.8377 Q1188.26 48.1653 1192.57 48.1653 Q1196.82 48.1653 1199.31 44.8088 Q1201.8 41.4523 1201.8 35.6653 Q1201.8 29.9072 1199.31 26.5508 Q1196.82 23.1654 1192.57 23.1654 M1192.57 18.6515 Q1199.51 18.6515 1203.48 23.1654 Q1207.44 27.6792 1207.44 35.6653 Q1207.44 43.6225 1203.48 48.1653 Q1199.51 52.6791 1192.57 52.6791 Q1185.59 52.6791 1181.63 48.1653 Q1177.7 43.6225 1177.7 35.6653 Q1177.7 27.6792 1181.63 23.1654 Q1185.59 18.6515 1192.57 18.6515 Z" fill="#000000" fill-rule="nonzero" fill-opacity="1" /><path clip-path="url(#clip950)" d="M1236.93 20.3876 L1236.93 25.4223 Q1234.67 24.2649 1232.24 23.6862 Q1229.81 23.1075 1227.2 23.1075 Q1223.24 23.1075 1221.24 24.3228 Q1219.28 25.5381 1219.28 27.9686 Q1219.28 29.8204 1220.69 30.891 Q1222.11 31.9327 1226.39 32.8876 L1228.22 33.2926 Q1233.89 34.5079 1236.26 36.7359 Q1238.66 38.935 1238.66 42.8991 Q1238.66 47.4129 1235.07 50.046 Q1231.51 52.6791 1225.26 52.6791 Q1222.66 52.6791 1219.82 52.1583 Q1217.02 51.6664 1213.89 50.6537 L1213.89 45.156 Q1216.84 46.6896 1219.71 47.4708 Q1222.57 48.2231 1225.38 48.2231 Q1229.14 48.2231 1231.17 46.95 Q1233.19 45.6479 1233.19 43.3042 Q1233.19 41.134 1231.72 39.9766 Q1230.27 38.8192 1225.32 37.7486 L1223.47 37.3146 Q1218.52 36.273 1216.32 34.1318 Q1214.12 31.9616 1214.12 28.2001 Q1214.12 23.6283 1217.37 21.1399 Q1220.61 18.6515 1226.57 18.6515 Q1229.52 18.6515 1232.12 19.0855 Q1234.73 19.5196 1236.93 20.3876 Z" fill="#000000" fill-rule="nonzero" fill-opacity="1" /><path clip-path="url(#clip950)" d="M1247.14 19.4328 L1252.46 19.4328 L1252.46 51.84 L1247.14 51.84 L1247.14 19.4328 M1247.14 6.81709 L1252.46 6.81709 L1252.46 13.559 L1247.14 13.559 L1247.14 6.81709 Z" fill="#000000" fill-rule="nonzero" fill-opacity="1" /><path clip-path="url(#clip950)" d="M1268.87 10.2314 L1268.87 19.4328 L1279.84 19.4328 L1279.84 23.5705 L1268.87 23.5705 L1268.87 41.163 Q1268.87 45.1271 1269.94 46.2555 Q1271.04 47.384 1274.37 47.384 L1279.84 47.384 L1279.84 51.84 L1274.37 51.84 Q1268.2 51.84 1265.86 49.5541 Q1263.52 47.2393 1263.52 41.163 L1263.52 23.5705 L1259.61 23.5705 L1259.61 19.4328 L1263.52 19.4328 L1263.52 10.2314 L1268.87 10.2314 Z" fill="#000000" fill-rule="nonzero" fill-opacity="1" /><path clip-path="url(#clip950)" d="M1314.56 34.3054 L1314.56 36.9095 L1290.08 36.9095 Q1290.43 42.4072 1293.38 45.3007 Q1296.36 48.1653 1301.65 48.1653 Q1304.72 48.1653 1307.58 47.4129 Q1310.48 46.6606 1313.31 45.156 L1313.31 50.1907 Q1310.45 51.406 1307.44 52.0425 Q1304.43 52.6791 1301.33 52.6791 Q1293.58 52.6791 1289.04 48.1653 Q1284.52 43.6514 1284.52 35.9547 Q1284.52 27.9975 1288.81 23.339 Q1293.12 18.6515 1300.41 18.6515 Q1306.95 18.6515 1310.74 22.876 Q1314.56 27.0716 1314.56 34.3054 M1309.23 32.7429 Q1309.18 28.3737 1306.77 25.7695 Q1304.4 23.1654 1300.47 23.1654 Q1296.01 23.1654 1293.32 25.6827 Q1290.66 28.2001 1290.25 32.7718 L1309.23 32.7429 Z" fill="#000000" fill-rule="nonzero" fill-opacity="1" /><path clip-path="url(#clip950)" d="M1317.54 8.64 L1354.08 8.64 L1354.08 13.559 L1338.75 13.559 L1338.75 51.84 L1332.87 51.84 L1332.87 13.559 L1317.54 13.559 L1317.54 8.64 Z" fill="#000000" fill-rule="nonzero" fill-opacity="1" /><path clip-path="url(#clip950)" d="M1365.57 31.2093 L1365.57 47.0368 L1374.95 47.0368 Q1379.66 47.0368 1381.92 45.0981 Q1384.2 43.1306 1384.2 39.1086 Q1384.2 35.0577 1381.92 33.148 Q1379.66 31.2093 1374.95 31.2093 L1365.57 31.2093 M1365.57 13.4432 L1365.57 26.464 L1374.22 26.464 Q1378.5 26.464 1380.59 24.8726 Q1382.7 23.2522 1382.7 19.9536 Q1382.7 16.6839 1380.59 15.0636 Q1378.5 13.4432 1374.22 13.4432 L1365.57 13.4432 M1359.73 8.64 L1374.66 8.64 Q1381.34 8.64 1384.96 11.4178 Q1388.57 14.1955 1388.57 19.317 Q1388.57 23.2811 1386.72 25.6249 Q1384.87 27.9686 1381.28 28.5473 Q1385.59 29.4732 1387.97 32.4246 Q1390.37 35.347 1390.37 39.7452 Q1390.37 45.5322 1386.43 48.6861 Q1382.5 51.84 1375.23 51.84 L1359.73 51.84 L1359.73 8.64 Z" fill="#000000" fill-rule="nonzero" fill-opacity="1" /><path clip-path="url(#clip950)" d="M1414.82 14.3981 L1406.89 35.8968 L1422.78 35.8968 L1414.82 14.3981 M1411.52 8.64 L1418.15 8.64 L1434.61 51.84 L1428.53 51.84 L1424.6 40.7579 L1405.12 40.7579 L1401.19 51.84 L1395.03 51.84 L1411.52 8.64 Z" fill="#000000" fill-rule="nonzero" fill-opacity="1" /><path clip-path="url(#clip950)" d="M1439.85 6.87496 L1444.48 6.87496 Q1448.82 13.7036 1450.96 20.2429 Q1453.13 26.7823 1453.13 33.2348 Q1453.13 39.7162 1450.96 46.2845 Q1448.82 52.8527 1444.48 59.6525 L1439.85 59.6525 Q1443.7 53.0263 1445.58 46.487 Q1447.49 39.9188 1447.49 33.2348 Q1447.49 26.5508 1445.58 20.0404 Q1443.7 13.53 1439.85 6.87496 Z" fill="#000000" fill-rule="nonzero" fill-opacity="1" /><path clip-path="url(#clip950)" d="M1461.11 33.2348 L1476.71 33.2348 L1476.71 37.9801 L1461.11 37.9801 L1461.11 33.2348 Z" fill="#000000" fill-rule="nonzero" fill-opacity="1" /><path clip-path="url(#clip950)" d="M1490.45 10.2314 L1490.45 19.4328 L1501.42 19.4328 L1501.42 23.5705 L1490.45 23.5705 L1490.45 41.163 Q1490.45 45.1271 1491.52 46.2555 Q1492.62 47.384 1495.95 47.384 L1501.42 47.384 L1501.42 51.84 L1495.95 51.84 Q1489.79 51.84 1487.44 49.5541 Q1485.1 47.2393 1485.1 41.163 L1485.1 23.5705 L1481.19 23.5705 L1481.19 19.4328 L1485.1 19.4328 L1485.1 10.2314 L1490.45 10.2314 Z" fill="#000000" fill-rule="nonzero" fill-opacity="1" /><path clip-path="url(#clip950)" d="M1521.21 6.87496 Q1517.33 13.53 1515.45 20.0404 Q1513.57 26.5508 1513.57 33.2348 Q1513.57 39.9188 1515.45 46.487 Q1517.36 53.0263 1521.21 59.6525 L1516.58 59.6525 Q1512.24 52.8527 1510.07 46.2845 Q1507.93 39.7162 1507.93 33.2348 Q1507.93 26.7823 1510.07 20.2429 Q1512.21 13.7036 1516.58 6.87496 L1521.21 6.87496 Z" fill="#000000" fill-rule="nonzero" fill-opacity="1" /><path clip-path="url(#clip950)" d="M1528.85 33.2348 L1544.45 33.2348 L1544.45 37.9801 L1528.85 37.9801 L1528.85 33.2348 Z" fill="#000000" fill-rule="nonzero" fill-opacity="1" /><path clip-path="url(#clip950)" d="M1554.69 46.921 L1564.24 46.921 L1564.24 13.964 L1553.85 16.0474 L1553.85 10.7233 L1564.18 8.64 L1570.03 8.64 L1570.03 46.921 L1579.57 46.921 L1579.57 51.84 L1554.69 51.84 L1554.69 46.921 Z" fill="#000000" fill-rule="nonzero" fill-opacity="1" /><path clip-path="url(#clip950)" d="M1591.38 44.4905 L1597.48 44.4905 L1597.48 51.84 L1591.38 51.84 L1591.38 44.4905 Z" fill="#000000" fill-rule="nonzero" fill-opacity="1" /><path clip-path="url(#clip950)" d="M1622.72 12.4884 Q1618.2 12.4884 1615.92 16.9444 Q1613.66 21.3714 1613.66 30.2834 Q1613.66 39.1665 1615.92 43.6225 Q1618.2 48.0495 1622.72 48.0495 Q1627.26 48.0495 1629.52 43.6225 Q1631.8 39.1665 1631.8 30.2834 Q1631.8 21.3714 1629.52 16.9444 Q1627.26 12.4884 1622.72 12.4884 M1622.72 7.85875 Q1629.98 7.85875 1633.8 13.6168 Q1637.65 19.346 1637.65 30.2834 Q1637.65 41.1919 1633.8 46.95 Q1629.98 52.6791 1622.72 52.6791 Q1615.45 52.6791 1611.61 46.95 Q1607.79 41.1919 1607.79 30.2834 Q1607.79 19.346 1611.61 13.6168 Q1615.45 7.85875 1622.72 7.85875 Z" fill="#000000" fill-rule="nonzero" fill-opacity="1" /><path clip-path="url(#clip950)" d="M1646.33 6.87496 L1650.96 6.87496 Q1655.3 13.7036 1657.44 20.2429 Q1659.61 26.7823 1659.61 33.2348 Q1659.61 39.7162 1657.44 46.2845 Q1655.3 52.8527 1650.96 59.6525 L1646.33 59.6525 Q1650.18 53.0263 1652.06 46.487 Q1653.97 39.9188 1653.97 33.2348 Q1653.97 26.5508 1652.06 20.0404 Q1650.18 13.53 1646.33 6.87496 Z" fill="#000000" fill-rule="nonzero" fill-opacity="1" /><path clip-path="url(#clip950)" d="M1667.59 33.2348 L1683.19 33.2348 L1683.19 37.9801 L1667.59 37.9801 L1667.59 33.2348 Z" fill="#000000" fill-rule="nonzero" fill-opacity="1" /><path clip-path="url(#clip950)" d="M1691.9 8.64 L1719.21 8.64 L1719.21 13.559 L1697.74 13.559 L1697.74 26.3482 L1718.32 26.3482 L1718.32 31.2672 L1697.74 31.2672 L1697.74 46.921 L1719.74 46.921 L1719.74 51.84 L1691.9 51.84 L1691.9 8.64 Z" fill="#000000" fill-rule="nonzero" fill-opacity="1" /><path clip-path="url(#clip950)" d="M1735.19 31.2093 L1735.19 47.0368 L1744.56 47.0368 Q1749.28 47.0368 1751.53 45.0981 Q1753.82 43.1306 1753.82 39.1086 Q1753.82 35.0577 1751.53 33.148 Q1749.28 31.2093 1744.56 31.2093 L1735.19 31.2093 M1735.19 13.4432 L1735.19 26.464 L1743.84 26.464 Q1748.12 26.464 1750.2 24.8726 Q1752.32 23.2522 1752.32 19.9536 Q1752.32 16.6839 1750.2 15.0636 Q1748.12 13.4432 1743.84 13.4432 L1735.19 13.4432 M1729.34 8.64 L1744.27 8.64 Q1750.96 8.64 1754.57 11.4178 Q1758.19 14.1955 1758.19 19.317 Q1758.19 23.2811 1756.34 25.6249 Q1754.49 27.9686 1750.9 28.5473 Q1755.21 29.4732 1757.58 32.4246 Q1759.98 35.347 1759.98 39.7452 Q1759.98 45.5322 1756.05 48.6861 Q1752.11 51.84 1744.85 51.84 L1729.34 51.84 L1729.34 8.64 Z" fill="#000000" fill-rule="nonzero" fill-opacity="1" /><polyline clip-path="url(#clip952)" style="stroke:#009af9; stroke-linecap:round; stroke-linejoin:round; stroke-width:4; stroke-opacity:1; fill:none" points="211.556,1385.91 220.342,1385.82 229.128,1385.54 237.914,1385.09 246.701,1384.45 255.487,1383.64 264.273,1382.64 273.059,1381.46 281.845,1380.11 290.632,1378.57 299.418,1376.86 308.204,1374.96 316.99,1372.9 325.776,1370.65 334.563,1368.23 343.349,1365.64 352.135,1362.87 360.921,1359.93 369.707,1356.82 378.494,1353.55 387.28,1350.1 396.066,1346.49 404.852,1342.72 413.638,1338.78 422.424,1334.68 431.211,1330.42 439.997,1326.01 448.783,1321.44 457.569,1316.71 466.355,1311.84 475.142,1306.81 483.928,1301.64 492.714,1296.32 501.5,1290.87 510.286,1285.27 519.073,1279.53 527.859,1273.66 536.645,1267.66 545.431,1261.52 554.217,1255.26 563.004,1248.88 571.79,1242.37 580.576,1235.75 589.362,1229.01 598.148,1222.15 606.934,1215.19 615.721,1208.12 624.507,1200.95 633.293,1193.67 642.079,1186.3 650.865,1178.83 659.652,1171.28 668.438,1163.63 677.224,1155.9 686.01,1148.09 694.796,1140.21 703.583,1132.25 712.369,1124.22 721.155,1116.12 729.941,1107.96 738.727,1099.74 747.514,1091.46 756.3,1083.13 765.086,1074.75 773.872,1066.33 782.658,1057.87 791.444,1049.36 800.231,1040.83 809.017,1032.26 817.803,1023.67 826.589,1015.05 835.375,1006.41 844.162,997.764 852.948,989.102 861.734,980.433 870.52,971.76 879.306,963.086 888.093,954.417 896.879,945.755 905.665,937.105 914.451,928.469 923.237,919.853 932.024,911.26 940.81,902.693 949.596,894.156 958.382,885.654 967.168,877.189 975.954,868.765 984.741,860.387 993.527,852.058 1002.31,843.781 1011.1,835.56 1019.89,827.399 1028.67,819.302 1037.46,811.271 1046.24,803.311 1055.03,795.424 1063.82,787.615 1072.6,779.887 1081.39,772.243 1090.17,764.686 1094.57,768.43 1098.96,772.152 1103.35,775.85 1107.75,779.524 1112.14,783.173 1116.53,786.798 1120.93,790.398 1125.32,793.972 1129.71,797.52 1134.11,801.042 1138.5,804.537 1142.89,808.005 1147.29,811.446 1151.68,814.859 1156.07,818.244 1160.46,821.6 1164.86,824.927 1169.25,828.225 1173.64,831.493 1178.04,834.731 1182.43,837.939 1186.82,841.116 1191.22,844.262 1195.61,847.376 1200,850.459 1204.4,853.509 1208.79,856.527 1213.18,859.513 1217.57,862.465 1221.97,865.384 1226.36,868.269 1230.75,871.12 1235.15,873.936 1239.54,876.718 1243.93,879.465 1248.33,882.177 1252.72,884.853 1257.11,887.493 1261.51,890.097 1265.9,892.664 1270.29,895.195 1274.68,897.689 1279.08,900.145 1283.47,902.564 1287.86,904.945 1292.26,907.288 1296.65,909.593 1301.04,911.859 1305.44,914.086 1309.83,916.274 1314.22,918.423 1318.62,920.532 1323.01,922.602 1327.4,924.631 1331.8,926.62 1336.19,928.569 1340.58,930.477 1344.97,932.344 1349.37,934.17 1353.76,935.955 1358.15,937.698 1362.55,939.399 1366.94,941.059 1371.33,942.677 1375.73,944.252 1380.12,945.785 1384.51,947.275 1388.91,948.723 1393.3,950.128 1397.69,951.49 1402.08,952.808 1406.48,954.084 1410.87,955.315 1415.26,956.503 1419.66,957.648 1424.05,958.748 1428.44,959.805 1432.84,960.817 1437.23,961.786 1441.62,962.709 1446.02,963.589 1450.41,964.424 1454.8,965.214 1459.19,965.96 1463.59,966.661 1467.98,967.317 1472.37,967.928 1476.77,968.494 1481.16,969.015 1485.55,969.491 1489.95,969.922 1494.34,970.307 1498.73,970.647 1503.13,970.942 1507.52,971.192 1511.91,971.396 1516.31,971.555 1520.7,971.669 1525.09,971.737 1529.48,971.76 1537.09,971.964 1544.7,972.575 1552.31,973.589 1559.92,975 1567.53,976.797 1575.14,978.97 1582.75,981.504 1590.36,984.386 1597.97,987.598 1605.58,991.124 1613.18,994.946 1620.79,999.045 1628.4,1003.4 1636.01,1008 1643.62,1012.83 1651.23,1017.86 1658.84,1023.07 1666.45,1028.47 1674.06,1034.02 1681.67,1039.71 1689.27,1045.53 1696.88,1051.46 1704.49,1057.5 1712.1,1063.63 1719.71,1069.83 1727.32,1076.11 1734.93,1082.44 1742.54,1088.83 1750.15,1095.25 1757.76,1101.7 1765.37,1108.18 1772.97,1114.68 1780.58,1121.18 1788.19,1127.68 1795.8,1134.19 1803.41,1140.68 1811.02,1147.15 1818.63,1153.6 1826.24,1160.03 1833.85,1166.43 1841.46,1172.79 1849.07,1179.1 1856.67,1185.38 1864.28,1191.6 1871.89,1197.77 1879.5,1203.89 1887.11,1209.95 1894.72,1215.94 1902.33,1221.86 1909.94,1227.72 1917.55,1233.5 1925.16,1239.2 1932.76,1244.83 1940.37,1250.38 1947.98,1255.84 1955.59,1261.21 1963.2,1266.5 1970.81,1271.69 1978.42,1276.79 1986.03,1281.79 1993.64,1286.7 2001.25,1291.5 2008.86,1296.21 2016.46,1300.81 2024.07,1305.3 2031.68,1309.69 2039.29,1313.96 2046.9,1318.13 2054.51,1322.18 2062.12,1326.12 2069.73,1329.95 2077.34,1333.66 2084.95,1337.25 2092.56,1340.71 2100.16,1344.06 2107.77,1347.29 2115.38,1350.39 2122.99,1353.37 2130.6,1356.23 2138.21,1358.96 2145.82,1361.56 2153.43,1364.03 2161.04,1366.38 2168.65,1368.59 2176.25,1370.67 2183.86,1372.63 2191.47,1374.45 2199.08,1376.14 2206.69,1377.69 2214.3,1379.11 2221.91,1380.4 2229.52,1381.55 2237.13,1382.57 2244.74,1383.46 2252.35,1384.2 2259.95,1384.82 2267.56,1385.29 2275.17,1385.63 2282.78,1385.84 2290.39,1385.91 "/>
<polyline clip-path="url(#clip952)" style="stroke:#e26f46; stroke-linecap:round; stroke-linejoin:round; stroke-width:4; stroke-opacity:1; fill:none" points="211.556,143.465 220.342,143.556 229.128,143.829 237.914,144.283 246.701,144.918 255.487,145.734 264.273,146.731 273.059,147.908 281.845,149.265 290.632,150.801 299.418,152.515 308.204,154.408 316.99,156.477 325.776,158.721 334.563,161.141 343.349,163.735 352.135,166.502 360.921,169.44 369.707,172.548 378.494,175.826 387.28,179.27 396.066,182.881 404.852,186.656 413.638,190.594 422.424,194.693 431.211,198.951 439.997,203.366 448.783,207.936 457.569,212.661 466.355,217.536 475.142,222.56 483.928,227.732 492.714,233.048 501.5,238.507 510.286,244.105 519.073,249.841 527.859,255.712 536.645,261.716 545.431,267.849 554.217,274.109 563.004,280.494 571.79,287 580.576,293.625 589.362,300.366 598.148,307.219 606.934,314.183 615.721,321.253 624.507,328.427 633.293,335.701 642.079,343.073 650.865,350.539 659.652,358.096 668.438,365.74 677.224,373.468 686.01,381.277 694.796,389.164 703.583,397.124 712.369,405.155 721.155,413.252 729.941,421.413 738.727,429.634 747.514,437.911 756.3,446.24 765.086,454.618 773.872,463.042 782.658,471.506 791.444,480.009 800.231,488.546 809.017,497.113 817.803,505.706 826.589,514.322 835.375,522.958 844.162,531.608 852.948,540.27 861.734,548.939 870.52,557.612 879.306,566.286 888.093,574.955 896.879,583.617 905.665,592.267 914.451,600.903 923.237,609.519 932.024,618.112 940.81,626.679 949.596,635.216 958.382,643.718 967.168,652.183 975.954,660.607 984.741,668.985 993.527,677.314 1002.31,685.591 1011.1,693.812 1019.89,701.973 1028.67,710.07 1037.46,718.101 1046.24,726.061 1055.03,733.948 1063.82,741.757 1072.6,749.485 1081.39,757.129 1090.17,764.686 1094.57,760.942 1098.96,757.22 1103.35,753.522 1107.75,749.848 1112.14,746.199 1116.53,742.574 1120.93,738.974 1125.32,735.4 1129.71,731.852 1134.11,728.33 1138.5,724.835 1142.89,721.367 1147.29,717.926 1151.68,714.513 1156.07,711.128 1160.46,707.772 1164.86,704.445 1169.25,701.147 1173.64,697.879 1178.04,694.641 1182.43,691.433 1186.82,688.256 1191.22,685.11 1195.61,681.996 1200,678.913 1204.4,675.863 1208.79,672.845 1213.18,669.859 1217.57,666.907 1221.97,663.988 1226.36,661.103 1230.75,658.252 1235.15,655.436 1239.54,652.654 1243.93,649.907 1248.33,647.195 1252.72,644.519 1257.11,641.879 1261.51,639.275 1265.9,636.707 1270.29,634.177 1274.68,631.683 1279.08,629.227 1283.47,626.808 1287.86,624.427 1292.26,622.084 1296.65,619.779 1301.04,617.513 1305.44,615.286 1309.83,613.098 1314.22,610.949 1318.62,608.84 1323.01,606.77 1327.4,604.741 1331.8,602.752 1336.19,600.803 1340.58,598.895 1344.97,597.028 1349.37,595.202 1353.76,593.417 1358.15,591.674 1362.55,589.973 1366.94,588.313 1371.33,586.695 1375.73,585.12 1380.12,583.587 1384.51,582.097 1388.91,580.649 1393.3,579.244 1397.69,577.882 1402.08,576.564 1406.48,575.288 1410.87,574.057 1415.26,572.869 1419.66,571.724 1424.05,570.624 1428.44,569.567 1432.84,568.555 1437.23,567.586 1441.62,566.663 1446.02,565.783 1450.41,564.948 1454.8,564.158 1459.19,563.412 1463.59,562.711 1467.98,562.055 1472.37,561.444 1476.77,560.878 1481.16,560.357 1485.55,559.881 1489.95,559.45 1494.34,559.065 1498.73,558.725 1503.13,558.43 1507.52,558.18 1511.91,557.976 1516.31,557.817 1520.7,557.703 1525.09,557.635 1529.48,557.612 1537.09,557.408 1544.7,556.797 1552.31,555.783 1559.92,554.372 1567.53,552.575 1575.14,550.402 1582.75,547.868 1590.36,544.986 1597.97,541.774 1605.58,538.248 1613.18,534.426 1620.79,530.327 1628.4,525.969 1636.01,521.369 1643.62,516.545 1651.23,511.516 1658.84,506.297 1666.45,500.906 1674.06,495.357 1681.67,489.665 1689.27,483.845 1696.88,477.91 1704.49,471.872 1712.1,465.744 1719.71,459.537 1727.32,453.261 1734.93,446.927 1742.54,440.545 1750.15,434.122 1757.76,427.667 1765.37,421.189 1772.97,414.695 1780.58,408.193 1788.19,401.687 1795.8,395.187 1803.41,388.696 1811.02,382.221 1818.63,375.768 1826.24,369.341 1833.85,362.946 1841.46,356.586 1849.07,350.268 1856.67,343.994 1864.28,337.769 1871.89,331.597 1879.5,325.482 1887.11,319.427 1894.72,313.435 1902.33,307.51 1909.94,301.655 1917.55,295.874 1925.16,290.168 1932.76,284.542 1940.37,278.997 1947.98,273.536 1955.59,268.162 1963.2,262.877 1970.81,257.683 1978.42,252.583 1986.03,247.579 1993.64,242.674 2001.25,237.868 2008.86,233.164 2016.46,228.565 2024.07,224.071 2031.68,219.685 2039.29,215.407 2046.9,211.241 2054.51,207.187 2062.12,203.248 2069.73,199.423 2077.34,195.716 2084.95,192.127 2092.56,188.657 2100.16,185.308 2107.77,182.081 2115.38,178.977 2122.99,175.998 2130.6,173.143 2138.21,170.415 2145.82,167.814 2153.43,165.341 2161.04,162.997 2168.65,160.782 2176.25,158.699 2183.86,156.746 2191.47,154.925 2199.08,153.236 2206.69,151.681 2214.3,150.259 2221.91,148.971 2229.52,147.818 2237.13,146.799 2244.74,145.915 2252.35,145.167 2259.95,144.555 2267.56,144.078 2275.17,143.738 2282.78,143.533 2290.39,143.465 "/>
<polyline clip-path="url(#clip952)" style="stroke:#3da44d; stroke-linecap:round; stroke-linejoin:round; stroke-width:4; stroke-opacity:1; fill:none" points="211.556,143.465 220.342,143.465 229.128,143.465 237.914,143.465 246.701,143.465 255.487,143.465 264.273,143.465 273.059,143.465 281.845,143.465 290.632,143.465 299.418,143.465 308.204,143.465 316.99,143.465 325.776,143.465 334.563,143.465 343.349,143.465 352.135,143.465 360.921,143.465 369.707,143.465 378.494,143.465 387.28,143.465 396.066,143.465 404.852,143.465 413.638,143.465 422.424,143.465 431.211,143.465 439.997,143.465 448.783,143.465 457.569,143.465 466.355,143.465 475.142,143.465 483.928,143.465 492.714,143.465 501.5,143.465 510.286,143.465 519.073,143.465 527.859,143.465 536.645,143.465 545.431,143.465 554.217,143.465 563.004,143.465 571.79,143.465 580.576,143.465 589.362,143.465 598.148,143.465 606.934,143.465 615.721,143.465 624.507,143.465 633.293,143.465 642.079,143.465 650.865,143.465 659.652,143.465 668.438,143.465 677.224,143.465 686.01,143.465 694.796,143.465 703.583,143.465 712.369,143.465 721.155,143.465 729.941,143.465 738.727,143.465 747.514,143.465 756.3,143.465 765.086,143.465 773.872,143.465 782.658,143.465 791.444,143.465 800.231,143.465 809.017,143.465 817.803,143.465 826.589,143.465 835.375,143.465 844.162,143.465 852.948,143.465 861.734,143.465 870.52,143.465 879.306,143.465 888.093,143.465 896.879,143.465 905.665,143.465 914.451,143.465 923.237,143.465 932.024,143.465 940.81,143.465 949.596,143.465 958.382,143.465 967.168,143.465 975.954,143.465 984.741,143.465 993.527,143.465 1002.31,143.465 1011.1,143.465 1019.89,143.465 1028.67,143.465 1037.46,143.465 1046.24,143.465 1055.03,143.465 1063.82,143.465 1072.6,143.465 1081.39,143.465 1090.17,143.465 1094.57,143.465 1098.96,143.465 1103.35,143.465 1107.75,143.465 1112.14,143.465 1116.53,143.465 1120.93,143.465 1125.32,143.465 1129.71,143.465 1134.11,143.465 1138.5,143.465 1142.89,143.465 1147.29,143.465 1151.68,143.465 1156.07,143.465 1160.46,143.465 1164.86,143.465 1169.25,143.465 1173.64,143.465 1178.04,143.465 1182.43,143.465 1186.82,143.465 1191.22,143.465 1195.61,143.465 1200,143.465 1204.4,143.465 1208.79,143.465 1213.18,143.465 1217.57,143.465 1221.97,143.465 1226.36,143.465 1230.75,143.465 1235.15,143.465 1239.54,143.465 1243.93,143.465 1248.33,143.465 1252.72,143.465 1257.11,143.465 1261.51,143.465 1265.9,143.465 1270.29,143.465 1274.68,143.465 1279.08,143.465 1283.47,143.465 1287.86,143.465 1292.26,143.465 1296.65,143.465 1301.04,143.465 1305.44,143.465 1309.83,143.465 1314.22,143.465 1318.62,143.465 1323.01,143.465 1327.4,143.465 1331.8,143.465 1336.19,143.465 1340.58,143.465 1344.97,143.465 1349.37,143.465 1353.76,143.465 1358.15,143.465 1362.55,143.465 1366.94,143.465 1371.33,143.465 1375.73,143.465 1380.12,143.465 1384.51,143.465 1388.91,143.465 1393.3,143.465 1397.69,143.465 1402.08,143.465 1406.48,143.465 1410.87,143.465 1415.26,143.465 1419.66,143.465 1424.05,143.465 1428.44,143.465 1432.84,143.465 1437.23,143.465 1441.62,143.465 1446.02,143.465 1450.41,143.465 1454.8,143.465 1459.19,143.465 1463.59,143.465 1467.98,143.465 1472.37,143.465 1476.77,143.465 1481.16,143.465 1485.55,143.465 1489.95,143.465 1494.34,143.465 1498.73,143.465 1503.13,143.465 1507.52,143.465 1511.91,143.465 1516.31,143.465 1520.7,143.465 1525.09,143.465 1529.48,143.465 1537.09,143.465 1544.7,143.465 1552.31,143.465 1559.92,143.465 1567.53,143.465 1575.14,143.465 1582.75,143.465 1590.36,143.465 1597.97,143.465 1605.58,143.465 1613.18,143.465 1620.79,143.465 1628.4,143.465 1636.01,143.465 1643.62,143.465 1651.23,143.465 1658.84,143.465 1666.45,143.465 1674.06,143.465 1681.67,143.465 1689.27,143.465 1696.88,143.465 1704.49,143.465 1712.1,143.465 1719.71,143.465 1727.32,143.465 1734.93,143.465 1742.54,143.465 1750.15,143.465 1757.76,143.465 1765.37,143.465 1772.97,143.465 1780.58,143.465 1788.19,143.465 1795.8,143.465 1803.41,143.465 1811.02,143.465 1818.63,143.465 1826.24,143.465 1833.85,143.465 1841.46,143.465 1849.07,143.465 1856.67,143.465 1864.28,143.465 1871.89,143.465 1879.5,143.465 1887.11,143.465 1894.72,143.465 1902.33,143.465 1909.94,143.465 1917.55,143.465 1925.16,143.465 1932.76,143.465 1940.37,143.465 1947.98,143.465 1955.59,143.465 1963.2,143.465 1970.81,143.465 1978.42,143.465 1986.03,143.465 1993.64,143.465 2001.25,143.465 2008.86,143.465 2016.46,143.465 2024.07,143.465 2031.68,143.465 2039.29,143.465 2046.9,143.465 2054.51,143.465 2062.12,143.465 2069.73,143.465 2077.34,143.465 2084.95,143.465 2092.56,143.465 2100.16,143.465 2107.77,143.465 2115.38,143.465 2122.99,143.465 2130.6,143.465 2138.21,143.465 2145.82,143.465 2153.43,143.465 2161.04,143.465 2168.65,143.465 2176.25,143.465 2183.86,143.465 2191.47,143.465 2199.08,143.465 2206.69,143.465 2214.3,143.465 2221.91,143.465 2229.52,143.465 2237.13,143.465 2244.74,143.465 2252.35,143.465 2259.95,143.465 2267.56,143.465 2275.17,143.465 2282.78,143.465 2290.39,143.465 "/>
</svg>
