<?xml version="1.0" encoding="utf-8"?>
<svg xmlns="http://www.w3.org/2000/svg" xmlns:xlink="http://www.w3.org/1999/xlink" width="600" height="400" viewBox="0 0 2400 1600">
<defs>
  <clipPath id="clip470">
    <rect x="0" y="0" width="2400" height="1600"/>
  </clipPath>
</defs>
<path clip-path="url(#clip470)" d="M0 1600 L2400 1600 L2400 0 L0 0  Z" fill="#ffffff" fill-rule="evenodd" fill-opacity="1"/>
<defs>
  <clipPath id="clip471">
    <rect x="480" y="0" width="1681" height="1600"/>
  </clipPath>
</defs>
<path clip-path="url(#clip470)" d="M149.191 1423.18 L2352.76 1423.18 L2352.76 106.192 L149.191 106.192  Z" fill="#ffffff" fill-rule="evenodd" fill-opacity="1"/>
<defs>
  <clipPath id="clip472">
    <rect x="149" y="106" width="2205" height="1318"/>
  </clipPath>
</defs>
<polyline clip-path="url(#clip472)" style="stroke:#000000; stroke-linecap:round; stroke-linejoin:round; stroke-width:2; stroke-opacity:0.05; fill:none" points="213.732,1423.18 213.732,106.192 "/>
<polyline clip-path="url(#clip472)" style="stroke:#000000; stroke-linecap:round; stroke-linejoin:round; stroke-width:2; stroke-opacity:0.05; fill:none" points="278.273,1423.18 278.273,106.192 "/>
<polyline clip-path="url(#clip472)" style="stroke:#000000; stroke-linecap:round; stroke-linejoin:round; stroke-width:2; stroke-opacity:0.05; fill:none" points="342.814,1423.18 342.814,106.192 "/>
<polyline clip-path="url(#clip472)" style="stroke:#000000; stroke-linecap:round; stroke-linejoin:round; stroke-width:2; stroke-opacity:0.05; fill:none" points="407.355,1423.18 407.355,106.192 "/>
<polyline clip-path="url(#clip472)" style="stroke:#000000; stroke-linecap:round; stroke-linejoin:round; stroke-width:2; stroke-opacity:0.05; fill:none" points="471.895,1423.18 471.895,106.192 "/>
<polyline clip-path="url(#clip472)" style="stroke:#000000; stroke-linecap:round; stroke-linejoin:round; stroke-width:2; stroke-opacity:0.05; fill:none" points="536.436,1423.18 536.436,106.192 "/>
<polyline clip-path="url(#clip472)" style="stroke:#000000; stroke-linecap:round; stroke-linejoin:round; stroke-width:2; stroke-opacity:0.05; fill:none" points="600.977,1423.18 600.977,106.192 "/>
<polyline clip-path="url(#clip472)" style="stroke:#000000; stroke-linecap:round; stroke-linejoin:round; stroke-width:2; stroke-opacity:0.05; fill:none" points="665.518,1423.18 665.518,106.192 "/>
<polyline clip-path="url(#clip472)" style="stroke:#000000; stroke-linecap:round; stroke-linejoin:round; stroke-width:2; stroke-opacity:0.05; fill:none" points="730.059,1423.18 730.059,106.192 "/>
<polyline clip-path="url(#clip472)" style="stroke:#000000; stroke-linecap:round; stroke-linejoin:round; stroke-width:2; stroke-opacity:0.05; fill:none" points="859.141,1423.18 859.141,106.192 "/>
<polyline clip-path="url(#clip472)" style="stroke:#000000; stroke-linecap:round; stroke-linejoin:round; stroke-width:2; stroke-opacity:0.05; fill:none" points="923.682,1423.18 923.682,106.192 "/>
<polyline clip-path="url(#clip472)" style="stroke:#000000; stroke-linecap:round; stroke-linejoin:round; stroke-width:2; stroke-opacity:0.05; fill:none" points="988.223,1423.18 988.223,106.192 "/>
<polyline clip-path="url(#clip472)" style="stroke:#000000; stroke-linecap:round; stroke-linejoin:round; stroke-width:2; stroke-opacity:0.05; fill:none" points="1052.76,1423.18 1052.76,106.192 "/>
<polyline clip-path="url(#clip472)" style="stroke:#000000; stroke-linecap:round; stroke-linejoin:round; stroke-width:2; stroke-opacity:0.05; fill:none" points="1117.3,1423.18 1117.3,106.192 "/>
<polyline clip-path="url(#clip472)" style="stroke:#000000; stroke-linecap:round; stroke-linejoin:round; stroke-width:2; stroke-opacity:0.05; fill:none" points="1181.85,1423.18 1181.85,106.192 "/>
<polyline clip-path="url(#clip472)" style="stroke:#000000; stroke-linecap:round; stroke-linejoin:round; stroke-width:2; stroke-opacity:0.05; fill:none" points="1246.39,1423.18 1246.39,106.192 "/>
<polyline clip-path="url(#clip472)" style="stroke:#000000; stroke-linecap:round; stroke-linejoin:round; stroke-width:2; stroke-opacity:0.05; fill:none" points="1310.93,1423.18 1310.93,106.192 "/>
<polyline clip-path="url(#clip472)" style="stroke:#000000; stroke-linecap:round; stroke-linejoin:round; stroke-width:2; stroke-opacity:0.05; fill:none" points="1375.47,1423.18 1375.47,106.192 "/>
<polyline clip-path="url(#clip472)" style="stroke:#000000; stroke-linecap:round; stroke-linejoin:round; stroke-width:2; stroke-opacity:0.05; fill:none" points="1531.28,1423.18 1531.28,106.192 "/>
<polyline clip-path="url(#clip472)" style="stroke:#000000; stroke-linecap:round; stroke-linejoin:round; stroke-width:2; stroke-opacity:0.05; fill:none" points="1622.56,1423.18 1622.56,106.192 "/>
<polyline clip-path="url(#clip472)" style="stroke:#000000; stroke-linecap:round; stroke-linejoin:round; stroke-width:2; stroke-opacity:0.05; fill:none" points="1713.83,1423.18 1713.83,106.192 "/>
<polyline clip-path="url(#clip472)" style="stroke:#000000; stroke-linecap:round; stroke-linejoin:round; stroke-width:2; stroke-opacity:0.05; fill:none" points="1805.11,1423.18 1805.11,106.192 "/>
<polyline clip-path="url(#clip472)" style="stroke:#000000; stroke-linecap:round; stroke-linejoin:round; stroke-width:2; stroke-opacity:0.05; fill:none" points="1896.38,1423.18 1896.38,106.192 "/>
<polyline clip-path="url(#clip472)" style="stroke:#000000; stroke-linecap:round; stroke-linejoin:round; stroke-width:2; stroke-opacity:0.05; fill:none" points="1987.66,1423.18 1987.66,106.192 "/>
<polyline clip-path="url(#clip472)" style="stroke:#000000; stroke-linecap:round; stroke-linejoin:round; stroke-width:2; stroke-opacity:0.05; fill:none" points="2078.93,1423.18 2078.93,106.192 "/>
<polyline clip-path="url(#clip472)" style="stroke:#000000; stroke-linecap:round; stroke-linejoin:round; stroke-width:2; stroke-opacity:0.05; fill:none" points="2170.21,1423.18 2170.21,106.192 "/>
<polyline clip-path="url(#clip472)" style="stroke:#000000; stroke-linecap:round; stroke-linejoin:round; stroke-width:2; stroke-opacity:0.05; fill:none" points="2261.48,1423.18 2261.48,106.192 "/>
<polyline clip-path="url(#clip472)" style="stroke:#000000; stroke-linecap:round; stroke-linejoin:round; stroke-width:2; stroke-opacity:0.05; fill:none" points="149.191,1410.76 2352.76,1410.76 "/>
<polyline clip-path="url(#clip472)" style="stroke:#000000; stroke-linecap:round; stroke-linejoin:round; stroke-width:2; stroke-opacity:0.05; fill:none" points="149.191,1394.19 2352.76,1394.19 "/>
<polyline clip-path="url(#clip472)" style="stroke:#000000; stroke-linecap:round; stroke-linejoin:round; stroke-width:2; stroke-opacity:0.05; fill:none" points="149.191,1377.62 2352.76,1377.62 "/>
<polyline clip-path="url(#clip472)" style="stroke:#000000; stroke-linecap:round; stroke-linejoin:round; stroke-width:2; stroke-opacity:0.05; fill:none" points="149.191,1361.06 2352.76,1361.06 "/>
<polyline clip-path="url(#clip472)" style="stroke:#000000; stroke-linecap:round; stroke-linejoin:round; stroke-width:2; stroke-opacity:0.05; fill:none" points="149.191,1344.49 2352.76,1344.49 "/>
<polyline clip-path="url(#clip472)" style="stroke:#000000; stroke-linecap:round; stroke-linejoin:round; stroke-width:2; stroke-opacity:0.05; fill:none" points="149.191,1327.93 2352.76,1327.93 "/>
<polyline clip-path="url(#clip472)" style="stroke:#000000; stroke-linecap:round; stroke-linejoin:round; stroke-width:2; stroke-opacity:0.05; fill:none" points="149.191,1311.36 2352.76,1311.36 "/>
<polyline clip-path="url(#clip472)" style="stroke:#000000; stroke-linecap:round; stroke-linejoin:round; stroke-width:2; stroke-opacity:0.05; fill:none" points="149.191,1294.79 2352.76,1294.79 "/>
<polyline clip-path="url(#clip472)" style="stroke:#000000; stroke-linecap:round; stroke-linejoin:round; stroke-width:2; stroke-opacity:0.05; fill:none" points="149.191,1278.23 2352.76,1278.23 "/>
<polyline clip-path="url(#clip472)" style="stroke:#000000; stroke-linecap:round; stroke-linejoin:round; stroke-width:2; stroke-opacity:0.05; fill:none" points="149.191,1245.1 2352.76,1245.1 "/>
<polyline clip-path="url(#clip472)" style="stroke:#000000; stroke-linecap:round; stroke-linejoin:round; stroke-width:2; stroke-opacity:0.05; fill:none" points="149.191,1228.53 2352.76,1228.53 "/>
<polyline clip-path="url(#clip472)" style="stroke:#000000; stroke-linecap:round; stroke-linejoin:round; stroke-width:2; stroke-opacity:0.05; fill:none" points="149.191,1211.96 2352.76,1211.96 "/>
<polyline clip-path="url(#clip472)" style="stroke:#000000; stroke-linecap:round; stroke-linejoin:round; stroke-width:2; stroke-opacity:0.05; fill:none" points="149.191,1195.4 2352.76,1195.4 "/>
<polyline clip-path="url(#clip472)" style="stroke:#000000; stroke-linecap:round; stroke-linejoin:round; stroke-width:2; stroke-opacity:0.05; fill:none" points="149.191,1178.83 2352.76,1178.83 "/>
<polyline clip-path="url(#clip472)" style="stroke:#000000; stroke-linecap:round; stroke-linejoin:round; stroke-width:2; stroke-opacity:0.05; fill:none" points="149.191,1162.27 2352.76,1162.27 "/>
<polyline clip-path="url(#clip472)" style="stroke:#000000; stroke-linecap:round; stroke-linejoin:round; stroke-width:2; stroke-opacity:0.05; fill:none" points="149.191,1145.7 2352.76,1145.7 "/>
<polyline clip-path="url(#clip472)" style="stroke:#000000; stroke-linecap:round; stroke-linejoin:round; stroke-width:2; stroke-opacity:0.05; fill:none" points="149.191,1129.14 2352.76,1129.14 "/>
<polyline clip-path="url(#clip472)" style="stroke:#000000; stroke-linecap:round; stroke-linejoin:round; stroke-width:2; stroke-opacity:0.05; fill:none" points="149.191,1112.57 2352.76,1112.57 "/>
<polyline clip-path="url(#clip472)" style="stroke:#000000; stroke-linecap:round; stroke-linejoin:round; stroke-width:2; stroke-opacity:0.05; fill:none" points="149.191,1079.44 2352.76,1079.44 "/>
<polyline clip-path="url(#clip472)" style="stroke:#000000; stroke-linecap:round; stroke-linejoin:round; stroke-width:2; stroke-opacity:0.05; fill:none" points="149.191,1062.87 2352.76,1062.87 "/>
<polyline clip-path="url(#clip472)" style="stroke:#000000; stroke-linecap:round; stroke-linejoin:round; stroke-width:2; stroke-opacity:0.05; fill:none" points="149.191,1046.31 2352.76,1046.31 "/>
<polyline clip-path="url(#clip472)" style="stroke:#000000; stroke-linecap:round; stroke-linejoin:round; stroke-width:2; stroke-opacity:0.05; fill:none" points="149.191,1029.74 2352.76,1029.74 "/>
<polyline clip-path="url(#clip472)" style="stroke:#000000; stroke-linecap:round; stroke-linejoin:round; stroke-width:2; stroke-opacity:0.05; fill:none" points="149.191,1013.17 2352.76,1013.17 "/>
<polyline clip-path="url(#clip472)" style="stroke:#000000; stroke-linecap:round; stroke-linejoin:round; stroke-width:2; stroke-opacity:0.05; fill:none" points="149.191,996.608 2352.76,996.608 "/>
<polyline clip-path="url(#clip472)" style="stroke:#000000; stroke-linecap:round; stroke-linejoin:round; stroke-width:2; stroke-opacity:0.05; fill:none" points="149.191,980.042 2352.76,980.042 "/>
<polyline clip-path="url(#clip472)" style="stroke:#000000; stroke-linecap:round; stroke-linejoin:round; stroke-width:2; stroke-opacity:0.05; fill:none" points="149.191,963.477 2352.76,963.477 "/>
<polyline clip-path="url(#clip472)" style="stroke:#000000; stroke-linecap:round; stroke-linejoin:round; stroke-width:2; stroke-opacity:0.05; fill:none" points="149.191,946.911 2352.76,946.911 "/>
<polyline clip-path="url(#clip472)" style="stroke:#000000; stroke-linecap:round; stroke-linejoin:round; stroke-width:2; stroke-opacity:0.05; fill:none" points="149.191,913.779 2352.76,913.779 "/>
<polyline clip-path="url(#clip472)" style="stroke:#000000; stroke-linecap:round; stroke-linejoin:round; stroke-width:2; stroke-opacity:0.05; fill:none" points="149.191,897.213 2352.76,897.213 "/>
<polyline clip-path="url(#clip472)" style="stroke:#000000; stroke-linecap:round; stroke-linejoin:round; stroke-width:2; stroke-opacity:0.05; fill:none" points="149.191,880.647 2352.76,880.647 "/>
<polyline clip-path="url(#clip472)" style="stroke:#000000; stroke-linecap:round; stroke-linejoin:round; stroke-width:2; stroke-opacity:0.05; fill:none" points="149.191,864.081 2352.76,864.081 "/>
<polyline clip-path="url(#clip472)" style="stroke:#000000; stroke-linecap:round; stroke-linejoin:round; stroke-width:2; stroke-opacity:0.05; fill:none" points="149.191,847.515 2352.76,847.515 "/>
<polyline clip-path="url(#clip472)" style="stroke:#000000; stroke-linecap:round; stroke-linejoin:round; stroke-width:2; stroke-opacity:0.05; fill:none" points="149.191,830.95 2352.76,830.95 "/>
<polyline clip-path="url(#clip472)" style="stroke:#000000; stroke-linecap:round; stroke-linejoin:round; stroke-width:2; stroke-opacity:0.05; fill:none" points="149.191,814.384 2352.76,814.384 "/>
<polyline clip-path="url(#clip472)" style="stroke:#000000; stroke-linecap:round; stroke-linejoin:round; stroke-width:2; stroke-opacity:0.05; fill:none" points="149.191,797.818 2352.76,797.818 "/>
<polyline clip-path="url(#clip472)" style="stroke:#000000; stroke-linecap:round; stroke-linejoin:round; stroke-width:2; stroke-opacity:0.05; fill:none" points="149.191,781.252 2352.76,781.252 "/>
<polyline clip-path="url(#clip472)" style="stroke:#000000; stroke-linecap:round; stroke-linejoin:round; stroke-width:2; stroke-opacity:0.05; fill:none" points="149.191,748.12 2352.76,748.12 "/>
<polyline clip-path="url(#clip472)" style="stroke:#000000; stroke-linecap:round; stroke-linejoin:round; stroke-width:2; stroke-opacity:0.05; fill:none" points="149.191,731.554 2352.76,731.554 "/>
<polyline clip-path="url(#clip472)" style="stroke:#000000; stroke-linecap:round; stroke-linejoin:round; stroke-width:2; stroke-opacity:0.05; fill:none" points="149.191,714.988 2352.76,714.988 "/>
<polyline clip-path="url(#clip472)" style="stroke:#000000; stroke-linecap:round; stroke-linejoin:round; stroke-width:2; stroke-opacity:0.05; fill:none" points="149.191,698.422 2352.76,698.422 "/>
<polyline clip-path="url(#clip472)" style="stroke:#000000; stroke-linecap:round; stroke-linejoin:round; stroke-width:2; stroke-opacity:0.05; fill:none" points="149.191,681.857 2352.76,681.857 "/>
<polyline clip-path="url(#clip472)" style="stroke:#000000; stroke-linecap:round; stroke-linejoin:round; stroke-width:2; stroke-opacity:0.05; fill:none" points="149.191,665.291 2352.76,665.291 "/>
<polyline clip-path="url(#clip472)" style="stroke:#000000; stroke-linecap:round; stroke-linejoin:round; stroke-width:2; stroke-opacity:0.05; fill:none" points="149.191,648.725 2352.76,648.725 "/>
<polyline clip-path="url(#clip472)" style="stroke:#000000; stroke-linecap:round; stroke-linejoin:round; stroke-width:2; stroke-opacity:0.05; fill:none" points="149.191,632.159 2352.76,632.159 "/>
<polyline clip-path="url(#clip472)" style="stroke:#000000; stroke-linecap:round; stroke-linejoin:round; stroke-width:2; stroke-opacity:0.05; fill:none" points="149.191,615.593 2352.76,615.593 "/>
<polyline clip-path="url(#clip472)" style="stroke:#000000; stroke-linecap:round; stroke-linejoin:round; stroke-width:2; stroke-opacity:0.05; fill:none" points="149.191,582.461 2352.76,582.461 "/>
<polyline clip-path="url(#clip472)" style="stroke:#000000; stroke-linecap:round; stroke-linejoin:round; stroke-width:2; stroke-opacity:0.05; fill:none" points="149.191,565.895 2352.76,565.895 "/>
<polyline clip-path="url(#clip472)" style="stroke:#000000; stroke-linecap:round; stroke-linejoin:round; stroke-width:2; stroke-opacity:0.05; fill:none" points="149.191,549.33 2352.76,549.33 "/>
<polyline clip-path="url(#clip472)" style="stroke:#000000; stroke-linecap:round; stroke-linejoin:round; stroke-width:2; stroke-opacity:0.05; fill:none" points="149.191,532.764 2352.76,532.764 "/>
<polyline clip-path="url(#clip472)" style="stroke:#000000; stroke-linecap:round; stroke-linejoin:round; stroke-width:2; stroke-opacity:0.05; fill:none" points="149.191,516.198 2352.76,516.198 "/>
<polyline clip-path="url(#clip472)" style="stroke:#000000; stroke-linecap:round; stroke-linejoin:round; stroke-width:2; stroke-opacity:0.05; fill:none" points="149.191,499.632 2352.76,499.632 "/>
<polyline clip-path="url(#clip472)" style="stroke:#000000; stroke-linecap:round; stroke-linejoin:round; stroke-width:2; stroke-opacity:0.05; fill:none" points="149.191,483.066 2352.76,483.066 "/>
<polyline clip-path="url(#clip472)" style="stroke:#000000; stroke-linecap:round; stroke-linejoin:round; stroke-width:2; stroke-opacity:0.05; fill:none" points="149.191,466.5 2352.76,466.5 "/>
<polyline clip-path="url(#clip472)" style="stroke:#000000; stroke-linecap:round; stroke-linejoin:round; stroke-width:2; stroke-opacity:0.05; fill:none" points="149.191,449.934 2352.76,449.934 "/>
<polyline clip-path="url(#clip472)" style="stroke:#000000; stroke-linecap:round; stroke-linejoin:round; stroke-width:2; stroke-opacity:0.05; fill:none" points="149.191,416.802 2352.76,416.802 "/>
<polyline clip-path="url(#clip472)" style="stroke:#000000; stroke-linecap:round; stroke-linejoin:round; stroke-width:2; stroke-opacity:0.05; fill:none" points="149.191,400.237 2352.76,400.237 "/>
<polyline clip-path="url(#clip472)" style="stroke:#000000; stroke-linecap:round; stroke-linejoin:round; stroke-width:2; stroke-opacity:0.05; fill:none" points="149.191,383.671 2352.76,383.671 "/>
<polyline clip-path="url(#clip472)" style="stroke:#000000; stroke-linecap:round; stroke-linejoin:round; stroke-width:2; stroke-opacity:0.05; fill:none" points="149.191,367.105 2352.76,367.105 "/>
<polyline clip-path="url(#clip472)" style="stroke:#000000; stroke-linecap:round; stroke-linejoin:round; stroke-width:2; stroke-opacity:0.05; fill:none" points="149.191,350.539 2352.76,350.539 "/>
<polyline clip-path="url(#clip472)" style="stroke:#000000; stroke-linecap:round; stroke-linejoin:round; stroke-width:2; stroke-opacity:0.05; fill:none" points="149.191,333.973 2352.76,333.973 "/>
<polyline clip-path="url(#clip472)" style="stroke:#000000; stroke-linecap:round; stroke-linejoin:round; stroke-width:2; stroke-opacity:0.05; fill:none" points="149.191,317.407 2352.76,317.407 "/>
<polyline clip-path="url(#clip472)" style="stroke:#000000; stroke-linecap:round; stroke-linejoin:round; stroke-width:2; stroke-opacity:0.05; fill:none" points="149.191,300.841 2352.76,300.841 "/>
<polyline clip-path="url(#clip472)" style="stroke:#000000; stroke-linecap:round; stroke-linejoin:round; stroke-width:2; stroke-opacity:0.05; fill:none" points="149.191,284.275 2352.76,284.275 "/>
<polyline clip-path="url(#clip472)" style="stroke:#000000; stroke-linecap:round; stroke-linejoin:round; stroke-width:2; stroke-opacity:0.05; fill:none" points="149.191,251.144 2352.76,251.144 "/>
<polyline clip-path="url(#clip472)" style="stroke:#000000; stroke-linecap:round; stroke-linejoin:round; stroke-width:2; stroke-opacity:0.05; fill:none" points="149.191,234.578 2352.76,234.578 "/>
<polyline clip-path="url(#clip472)" style="stroke:#000000; stroke-linecap:round; stroke-linejoin:round; stroke-width:2; stroke-opacity:0.05; fill:none" points="149.191,218.012 2352.76,218.012 "/>
<polyline clip-path="url(#clip472)" style="stroke:#000000; stroke-linecap:round; stroke-linejoin:round; stroke-width:2; stroke-opacity:0.05; fill:none" points="149.191,201.446 2352.76,201.446 "/>
<polyline clip-path="url(#clip472)" style="stroke:#000000; stroke-linecap:round; stroke-linejoin:round; stroke-width:2; stroke-opacity:0.05; fill:none" points="149.191,184.88 2352.76,184.88 "/>
<polyline clip-path="url(#clip472)" style="stroke:#000000; stroke-linecap:round; stroke-linejoin:round; stroke-width:2; stroke-opacity:0.05; fill:none" points="149.191,168.314 2352.76,168.314 "/>
<polyline clip-path="url(#clip472)" style="stroke:#000000; stroke-linecap:round; stroke-linejoin:round; stroke-width:2; stroke-opacity:0.05; fill:none" points="149.191,151.748 2352.76,151.748 "/>
<polyline clip-path="url(#clip472)" style="stroke:#000000; stroke-linecap:round; stroke-linejoin:round; stroke-width:2; stroke-opacity:0.05; fill:none" points="149.191,135.182 2352.76,135.182 "/>
<polyline clip-path="url(#clip472)" style="stroke:#000000; stroke-linecap:round; stroke-linejoin:round; stroke-width:2; stroke-opacity:0.05; fill:none" points="149.191,118.617 2352.76,118.617 "/>
<polyline clip-path="url(#clip472)" style="stroke:#000000; stroke-linecap:round; stroke-linejoin:round; stroke-width:2; stroke-opacity:0.1; fill:none" points="149.191,1423.18 149.191,106.192 "/>
<polyline clip-path="url(#clip472)" style="stroke:#000000; stroke-linecap:round; stroke-linejoin:round; stroke-width:2; stroke-opacity:0.1; fill:none" points="794.6,1423.18 794.6,106.192 "/>
<polyline clip-path="url(#clip472)" style="stroke:#000000; stroke-linecap:round; stroke-linejoin:round; stroke-width:2; stroke-opacity:0.1; fill:none" points="1440.01,1423.18 1440.01,106.192 "/>
<polyline clip-path="url(#clip472)" style="stroke:#000000; stroke-linecap:round; stroke-linejoin:round; stroke-width:2; stroke-opacity:0.1; fill:none" points="2352.76,1423.18 2352.76,106.192 "/>
<polyline clip-path="url(#clip472)" style="stroke:#000000; stroke-linecap:round; stroke-linejoin:round; stroke-width:2; stroke-opacity:0.1; fill:none" points="149.191,1261.66 2352.76,1261.66 "/>
<polyline clip-path="url(#clip472)" style="stroke:#000000; stroke-linecap:round; stroke-linejoin:round; stroke-width:2; stroke-opacity:0.1; fill:none" points="149.191,1096 2352.76,1096 "/>
<polyline clip-path="url(#clip472)" style="stroke:#000000; stroke-linecap:round; stroke-linejoin:round; stroke-width:2; stroke-opacity:0.1; fill:none" points="149.191,930.345 2352.76,930.345 "/>
<polyline clip-path="url(#clip472)" style="stroke:#000000; stroke-linecap:round; stroke-linejoin:round; stroke-width:2; stroke-opacity:0.1; fill:none" points="149.191,764.686 2352.76,764.686 "/>
<polyline clip-path="url(#clip472)" style="stroke:#000000; stroke-linecap:round; stroke-linejoin:round; stroke-width:2; stroke-opacity:0.1; fill:none" points="149.191,599.027 2352.76,599.027 "/>
<polyline clip-path="url(#clip472)" style="stroke:#000000; stroke-linecap:round; stroke-linejoin:round; stroke-width:2; stroke-opacity:0.1; fill:none" points="149.191,433.368 2352.76,433.368 "/>
<polyline clip-path="url(#clip472)" style="stroke:#000000; stroke-linecap:round; stroke-linejoin:round; stroke-width:2; stroke-opacity:0.1; fill:none" points="149.191,267.709 2352.76,267.709 "/>
<polyline clip-path="url(#clip470)" style="stroke:#000000; stroke-linecap:round; stroke-linejoin:round; stroke-width:4; stroke-opacity:1; fill:none" points="149.191,1423.18 2352.76,1423.18 "/>
<polyline clip-path="url(#clip470)" style="stroke:#000000; stroke-linecap:round; stroke-linejoin:round; stroke-width:4; stroke-opacity:1; fill:none" points="149.191,1423.18 149.191,1404.28 "/>
<polyline clip-path="url(#clip470)" style="stroke:#000000; stroke-linecap:round; stroke-linejoin:round; stroke-width:4; stroke-opacity:1; fill:none" points="794.6,1423.18 794.6,1404.28 "/>
<polyline clip-path="url(#clip470)" style="stroke:#000000; stroke-linecap:round; stroke-linejoin:round; stroke-width:4; stroke-opacity:1; fill:none" points="1440.01,1423.18 1440.01,1404.28 "/>
<polyline clip-path="url(#clip470)" style="stroke:#000000; stroke-linecap:round; stroke-linejoin:round; stroke-width:4; stroke-opacity:1; fill:none" points="2352.76,1423.18 2352.76,1404.28 "/>
<polyline clip-path="url(#clip470)" style="stroke:#000000; stroke-linecap:round; stroke-linejoin:round; stroke-width:4; stroke-opacity:1; fill:none" points="213.732,1423.18 213.732,1413.73 "/>
<polyline clip-path="url(#clip470)" style="stroke:#000000; stroke-linecap:round; stroke-linejoin:round; stroke-width:4; stroke-opacity:1; fill:none" points="278.273,1423.18 278.273,1413.73 "/>
<polyline clip-path="url(#clip470)" style="stroke:#000000; stroke-linecap:round; stroke-linejoin:round; stroke-width:4; stroke-opacity:1; fill:none" points="342.814,1423.18 342.814,1413.73 "/>
<polyline clip-path="url(#clip470)" style="stroke:#000000; stroke-linecap:round; stroke-linejoin:round; stroke-width:4; stroke-opacity:1; fill:none" points="407.355,1423.18 407.355,1413.73 "/>
<polyline clip-path="url(#clip470)" style="stroke:#000000; stroke-linecap:round; stroke-linejoin:round; stroke-width:4; stroke-opacity:1; fill:none" points="471.895,1423.18 471.895,1413.73 "/>
<polyline clip-path="url(#clip470)" style="stroke:#000000; stroke-linecap:round; stroke-linejoin:round; stroke-width:4; stroke-opacity:1; fill:none" points="536.436,1423.18 536.436,1413.73 "/>
<polyline clip-path="url(#clip470)" style="stroke:#000000; stroke-linecap:round; stroke-linejoin:round; stroke-width:4; stroke-opacity:1; fill:none" points="600.977,1423.18 600.977,1413.73 "/>
<polyline clip-path="url(#clip470)" style="stroke:#000000; stroke-linecap:round; stroke-linejoin:round; stroke-width:4; stroke-opacity:1; fill:none" points="665.518,1423.18 665.518,1413.73 "/>
<polyline clip-path="url(#clip470)" style="stroke:#000000; stroke-linecap:round; stroke-linejoin:round; stroke-width:4; stroke-opacity:1; fill:none" points="730.059,1423.18 730.059,1413.73 "/>
<polyline clip-path="url(#clip470)" style="stroke:#000000; stroke-linecap:round; stroke-linejoin:round; stroke-width:4; stroke-opacity:1; fill:none" points="859.141,1423.18 859.141,1413.73 "/>
<polyline clip-path="url(#clip470)" style="stroke:#000000; stroke-linecap:round; stroke-linejoin:round; stroke-width:4; stroke-opacity:1; fill:none" points="923.682,1423.18 923.682,1413.73 "/>
<polyline clip-path="url(#clip470)" style="stroke:#000000; stroke-linecap:round; stroke-linejoin:round; stroke-width:4; stroke-opacity:1; fill:none" points="988.223,1423.18 988.223,1413.73 "/>
<polyline clip-path="url(#clip470)" style="stroke:#000000; stroke-linecap:round; stroke-linejoin:round; stroke-width:4; stroke-opacity:1; fill:none" points="1052.76,1423.18 1052.76,1413.73 "/>
<polyline clip-path="url(#clip470)" style="stroke:#000000; stroke-linecap:round; stroke-linejoin:round; stroke-width:4; stroke-opacity:1; fill:none" points="1117.3,1423.18 1117.3,1413.73 "/>
<polyline clip-path="url(#clip470)" style="stroke:#000000; stroke-linecap:round; stroke-linejoin:round; stroke-width:4; stroke-opacity:1; fill:none" points="1181.85,1423.18 1181.85,1413.73 "/>
<polyline clip-path="url(#clip470)" style="stroke:#000000; stroke-linecap:round; stroke-linejoin:round; stroke-width:4; stroke-opacity:1; fill:none" points="1246.39,1423.18 1246.39,1413.73 "/>
<polyline clip-path="url(#clip470)" style="stroke:#000000; stroke-linecap:round; stroke-linejoin:round; stroke-width:4; stroke-opacity:1; fill:none" points="1310.93,1423.18 1310.93,1413.73 "/>
<polyline clip-path="url(#clip470)" style="stroke:#000000; stroke-linecap:round; stroke-linejoin:round; stroke-width:4; stroke-opacity:1; fill:none" points="1375.47,1423.18 1375.47,1413.73 "/>
<polyline clip-path="url(#clip470)" style="stroke:#000000; stroke-linecap:round; stroke-linejoin:round; stroke-width:4; stroke-opacity:1; fill:none" points="1531.28,1423.18 1531.28,1413.73 "/>
<polyline clip-path="url(#clip470)" style="stroke:#000000; stroke-linecap:round; stroke-linejoin:round; stroke-width:4; stroke-opacity:1; fill:none" points="1622.56,1423.18 1622.56,1413.73 "/>
<polyline clip-path="url(#clip470)" style="stroke:#000000; stroke-linecap:round; stroke-linejoin:round; stroke-width:4; stroke-opacity:1; fill:none" points="1713.83,1423.18 1713.83,1413.73 "/>
<polyline clip-path="url(#clip470)" style="stroke:#000000; stroke-linecap:round; stroke-linejoin:round; stroke-width:4; stroke-opacity:1; fill:none" points="1805.11,1423.18 1805.11,1413.73 "/>
<polyline clip-path="url(#clip470)" style="stroke:#000000; stroke-linecap:round; stroke-linejoin:round; stroke-width:4; stroke-opacity:1; fill:none" points="1896.38,1423.18 1896.38,1413.73 "/>
<polyline clip-path="url(#clip470)" style="stroke:#000000; stroke-linecap:round; stroke-linejoin:round; stroke-width:4; stroke-opacity:1; fill:none" points="1987.66,1423.18 1987.66,1413.73 "/>
<polyline clip-path="url(#clip470)" style="stroke:#000000; stroke-linecap:round; stroke-linejoin:round; stroke-width:4; stroke-opacity:1; fill:none" points="2078.93,1423.18 2078.93,1413.73 "/>
<polyline clip-path="url(#clip470)" style="stroke:#000000; stroke-linecap:round; stroke-linejoin:round; stroke-width:4; stroke-opacity:1; fill:none" points="2170.21,1423.18 2170.21,1413.73 "/>
<polyline clip-path="url(#clip470)" style="stroke:#000000; stroke-linecap:round; stroke-linejoin:round; stroke-width:4; stroke-opacity:1; fill:none" points="2261.48,1423.18 2261.48,1413.73 "/>
<path clip-path="url(#clip470)" d="M138.439 1485.58 L138.439 1451.02 L159.943 1451.02 L159.943 1454.96 L143.115 1454.96 L143.115 1485.58 L138.439 1485.58 Z" fill="#000000" fill-rule="nonzero" fill-opacity="1" /><path clip-path="url(#clip470)" d="M781.383 1451.02 L786.406 1451.02 L794.994 1463.87 L803.628 1451.02 L808.651 1451.02 L797.54 1467.62 L809.392 1485.58 L804.369 1485.58 L794.646 1470.88 L784.855 1485.58 L779.809 1485.58 L792.146 1467.13 L781.383 1451.02 Z" fill="#000000" fill-rule="nonzero" fill-opacity="1" /><path clip-path="url(#clip470)" d="M1424.2 1451.02 L1431.17 1451.02 L1439.99 1474.54 L1448.85 1451.02 L1455.82 1451.02 L1455.82 1485.58 L1451.26 1485.58 L1451.26 1455.23 L1442.35 1478.94 L1437.65 1478.94 L1428.74 1455.23 L1428.74 1485.58 L1424.2 1485.58 L1424.2 1451.02 Z" fill="#000000" fill-rule="nonzero" fill-opacity="1" /><path clip-path="url(#clip470)" d="M2342 1485.58 L2342 1451.02 L2363.51 1451.02 L2363.51 1454.96 L2346.68 1454.96 L2346.68 1485.58 L2342 1485.58 Z" fill="#000000" fill-rule="nonzero" fill-opacity="1" /><path clip-path="url(#clip470)" d="M1235.15 1518.52 L1241.04 1518.52 L1241.04 1547.77 L1258.52 1532.4 L1266 1532.4 L1247.09 1549.07 L1266.79 1568.04 L1259.15 1568.04 L1241.04 1550.63 L1241.04 1568.04 L1235.15 1568.04 L1235.15 1518.52 Z" fill="#000000" fill-rule="nonzero" fill-opacity="1" /><polyline clip-path="url(#clip470)" style="stroke:#000000; stroke-linecap:round; stroke-linejoin:round; stroke-width:4; stroke-opacity:1; fill:none" points="149.191,1423.18 149.191,106.192 "/>
<polyline clip-path="url(#clip470)" style="stroke:#000000; stroke-linecap:round; stroke-linejoin:round; stroke-width:4; stroke-opacity:1; fill:none" points="149.191,1261.66 168.089,1261.66 "/>
<polyline clip-path="url(#clip470)" style="stroke:#000000; stroke-linecap:round; stroke-linejoin:round; stroke-width:4; stroke-opacity:1; fill:none" points="149.191,1096 168.089,1096 "/>
<polyline clip-path="url(#clip470)" style="stroke:#000000; stroke-linecap:round; stroke-linejoin:round; stroke-width:4; stroke-opacity:1; fill:none" points="149.191,930.345 168.089,930.345 "/>
<polyline clip-path="url(#clip470)" style="stroke:#000000; stroke-linecap:round; stroke-linejoin:round; stroke-width:4; stroke-opacity:1; fill:none" points="149.191,764.686 168.089,764.686 "/>
<polyline clip-path="url(#clip470)" style="stroke:#000000; stroke-linecap:round; stroke-linejoin:round; stroke-width:4; stroke-opacity:1; fill:none" points="149.191,599.027 168.089,599.027 "/>
<polyline clip-path="url(#clip470)" style="stroke:#000000; stroke-linecap:round; stroke-linejoin:round; stroke-width:4; stroke-opacity:1; fill:none" points="149.191,433.368 168.089,433.368 "/>
<polyline clip-path="url(#clip470)" style="stroke:#000000; stroke-linecap:round; stroke-linejoin:round; stroke-width:4; stroke-opacity:1; fill:none" points="149.191,267.709 168.089,267.709 "/>
<polyline clip-path="url(#clip470)" style="stroke:#000000; stroke-linecap:round; stroke-linejoin:round; stroke-width:4; stroke-opacity:1; fill:none" points="149.191,1410.76 158.64,1410.76 "/>
<polyline clip-path="url(#clip470)" style="stroke:#000000; stroke-linecap:round; stroke-linejoin:round; stroke-width:4; stroke-opacity:1; fill:none" points="149.191,1394.19 158.64,1394.19 "/>
<polyline clip-path="url(#clip470)" style="stroke:#000000; stroke-linecap:round; stroke-linejoin:round; stroke-width:4; stroke-opacity:1; fill:none" points="149.191,1377.62 158.64,1377.62 "/>
<polyline clip-path="url(#clip470)" style="stroke:#000000; stroke-linecap:round; stroke-linejoin:round; stroke-width:4; stroke-opacity:1; fill:none" points="149.191,1361.06 158.64,1361.06 "/>
<polyline clip-path="url(#clip470)" style="stroke:#000000; stroke-linecap:round; stroke-linejoin:round; stroke-width:4; stroke-opacity:1; fill:none" points="149.191,1344.49 158.64,1344.49 "/>
<polyline clip-path="url(#clip470)" style="stroke:#000000; stroke-linecap:round; stroke-linejoin:round; stroke-width:4; stroke-opacity:1; fill:none" points="149.191,1327.93 158.64,1327.93 "/>
<polyline clip-path="url(#clip470)" style="stroke:#000000; stroke-linecap:round; stroke-linejoin:round; stroke-width:4; stroke-opacity:1; fill:none" points="149.191,1311.36 158.64,1311.36 "/>
<polyline clip-path="url(#clip470)" style="stroke:#000000; stroke-linecap:round; stroke-linejoin:round; stroke-width:4; stroke-opacity:1; fill:none" points="149.191,1294.79 158.64,1294.79 "/>
<polyline clip-path="url(#clip470)" style="stroke:#000000; stroke-linecap:round; stroke-linejoin:round; stroke-width:4; stroke-opacity:1; fill:none" points="149.191,1278.23 158.64,1278.23 "/>
<polyline clip-path="url(#clip470)" style="stroke:#000000; stroke-linecap:round; stroke-linejoin:round; stroke-width:4; stroke-opacity:1; fill:none" points="149.191,1245.1 158.64,1245.1 "/>
<polyline clip-path="url(#clip470)" style="stroke:#000000; stroke-linecap:round; stroke-linejoin:round; stroke-width:4; stroke-opacity:1; fill:none" points="149.191,1228.53 158.64,1228.53 "/>
<polyline clip-path="url(#clip470)" style="stroke:#000000; stroke-linecap:round; stroke-linejoin:round; stroke-width:4; stroke-opacity:1; fill:none" points="149.191,1211.96 158.64,1211.96 "/>
<polyline clip-path="url(#clip470)" style="stroke:#000000; stroke-linecap:round; stroke-linejoin:round; stroke-width:4; stroke-opacity:1; fill:none" points="149.191,1195.4 158.64,1195.4 "/>
<polyline clip-path="url(#clip470)" style="stroke:#000000; stroke-linecap:round; stroke-linejoin:round; stroke-width:4; stroke-opacity:1; fill:none" points="149.191,1178.83 158.64,1178.83 "/>
<polyline clip-path="url(#clip470)" style="stroke:#000000; stroke-linecap:round; stroke-linejoin:round; stroke-width:4; stroke-opacity:1; fill:none" points="149.191,1162.27 158.64,1162.27 "/>
<polyline clip-path="url(#clip470)" style="stroke:#000000; stroke-linecap:round; stroke-linejoin:round; stroke-width:4; stroke-opacity:1; fill:none" points="149.191,1145.7 158.64,1145.7 "/>
<polyline clip-path="url(#clip470)" style="stroke:#000000; stroke-linecap:round; stroke-linejoin:round; stroke-width:4; stroke-opacity:1; fill:none" points="149.191,1129.14 158.64,1129.14 "/>
<polyline clip-path="url(#clip470)" style="stroke:#000000; stroke-linecap:round; stroke-linejoin:round; stroke-width:4; stroke-opacity:1; fill:none" points="149.191,1112.57 158.64,1112.57 "/>
<polyline clip-path="url(#clip470)" style="stroke:#000000; stroke-linecap:round; stroke-linejoin:round; stroke-width:4; stroke-opacity:1; fill:none" points="149.191,1079.44 158.64,1079.44 "/>
<polyline clip-path="url(#clip470)" style="stroke:#000000; stroke-linecap:round; stroke-linejoin:round; stroke-width:4; stroke-opacity:1; fill:none" points="149.191,1062.87 158.64,1062.87 "/>
<polyline clip-path="url(#clip470)" style="stroke:#000000; stroke-linecap:round; stroke-linejoin:round; stroke-width:4; stroke-opacity:1; fill:none" points="149.191,1046.31 158.64,1046.31 "/>
<polyline clip-path="url(#clip470)" style="stroke:#000000; stroke-linecap:round; stroke-linejoin:round; stroke-width:4; stroke-opacity:1; fill:none" points="149.191,1029.74 158.64,1029.74 "/>
<polyline clip-path="url(#clip470)" style="stroke:#000000; stroke-linecap:round; stroke-linejoin:round; stroke-width:4; stroke-opacity:1; fill:none" points="149.191,1013.17 158.64,1013.17 "/>
<polyline clip-path="url(#clip470)" style="stroke:#000000; stroke-linecap:round; stroke-linejoin:round; stroke-width:4; stroke-opacity:1; fill:none" points="149.191,996.608 158.64,996.608 "/>
<polyline clip-path="url(#clip470)" style="stroke:#000000; stroke-linecap:round; stroke-linejoin:round; stroke-width:4; stroke-opacity:1; fill:none" points="149.191,980.042 158.64,980.042 "/>
<polyline clip-path="url(#clip470)" style="stroke:#000000; stroke-linecap:round; stroke-linejoin:round; stroke-width:4; stroke-opacity:1; fill:none" points="149.191,963.477 158.64,963.477 "/>
<polyline clip-path="url(#clip470)" style="stroke:#000000; stroke-linecap:round; stroke-linejoin:round; stroke-width:4; stroke-opacity:1; fill:none" points="149.191,946.911 158.64,946.911 "/>
<polyline clip-path="url(#clip470)" style="stroke:#000000; stroke-linecap:round; stroke-linejoin:round; stroke-width:4; stroke-opacity:1; fill:none" points="149.191,913.779 158.64,913.779 "/>
<polyline clip-path="url(#clip470)" style="stroke:#000000; stroke-linecap:round; stroke-linejoin:round; stroke-width:4; stroke-opacity:1; fill:none" points="149.191,897.213 158.64,897.213 "/>
<polyline clip-path="url(#clip470)" style="stroke:#000000; stroke-linecap:round; stroke-linejoin:round; stroke-width:4; stroke-opacity:1; fill:none" points="149.191,880.647 158.64,880.647 "/>
<polyline clip-path="url(#clip470)" style="stroke:#000000; stroke-linecap:round; stroke-linejoin:round; stroke-width:4; stroke-opacity:1; fill:none" points="149.191,864.081 158.64,864.081 "/>
<polyline clip-path="url(#clip470)" style="stroke:#000000; stroke-linecap:round; stroke-linejoin:round; stroke-width:4; stroke-opacity:1; fill:none" points="149.191,847.515 158.64,847.515 "/>
<polyline clip-path="url(#clip470)" style="stroke:#000000; stroke-linecap:round; stroke-linejoin:round; stroke-width:4; stroke-opacity:1; fill:none" points="149.191,830.95 158.64,830.95 "/>
<polyline clip-path="url(#clip470)" style="stroke:#000000; stroke-linecap:round; stroke-linejoin:round; stroke-width:4; stroke-opacity:1; fill:none" points="149.191,814.384 158.64,814.384 "/>
<polyline clip-path="url(#clip470)" style="stroke:#000000; stroke-linecap:round; stroke-linejoin:round; stroke-width:4; stroke-opacity:1; fill:none" points="149.191,797.818 158.64,797.818 "/>
<polyline clip-path="url(#clip470)" style="stroke:#000000; stroke-linecap:round; stroke-linejoin:round; stroke-width:4; stroke-opacity:1; fill:none" points="149.191,781.252 158.64,781.252 "/>
<polyline clip-path="url(#clip470)" style="stroke:#000000; stroke-linecap:round; stroke-linejoin:round; stroke-width:4; stroke-opacity:1; fill:none" points="149.191,748.12 158.64,748.12 "/>
<polyline clip-path="url(#clip470)" style="stroke:#000000; stroke-linecap:round; stroke-linejoin:round; stroke-width:4; stroke-opacity:1; fill:none" points="149.191,731.554 158.64,731.554 "/>
<polyline clip-path="url(#clip470)" style="stroke:#000000; stroke-linecap:round; stroke-linejoin:round; stroke-width:4; stroke-opacity:1; fill:none" points="149.191,714.988 158.64,714.988 "/>
<polyline clip-path="url(#clip470)" style="stroke:#000000; stroke-linecap:round; stroke-linejoin:round; stroke-width:4; stroke-opacity:1; fill:none" points="149.191,698.422 158.64,698.422 "/>
<polyline clip-path="url(#clip470)" style="stroke:#000000; stroke-linecap:round; stroke-linejoin:round; stroke-width:4; stroke-opacity:1; fill:none" points="149.191,681.857 158.64,681.857 "/>
<polyline clip-path="url(#clip470)" style="stroke:#000000; stroke-linecap:round; stroke-linejoin:round; stroke-width:4; stroke-opacity:1; fill:none" points="149.191,665.291 158.64,665.291 "/>
<polyline clip-path="url(#clip470)" style="stroke:#000000; stroke-linecap:round; stroke-linejoin:round; stroke-width:4; stroke-opacity:1; fill:none" points="149.191,648.725 158.64,648.725 "/>
<polyline clip-path="url(#clip470)" style="stroke:#000000; stroke-linecap:round; stroke-linejoin:round; stroke-width:4; stroke-opacity:1; fill:none" points="149.191,632.159 158.64,632.159 "/>
<polyline clip-path="url(#clip470)" style="stroke:#000000; stroke-linecap:round; stroke-linejoin:round; stroke-width:4; stroke-opacity:1; fill:none" points="149.191,615.593 158.64,615.593 "/>
<polyline clip-path="url(#clip470)" style="stroke:#000000; stroke-linecap:round; stroke-linejoin:round; stroke-width:4; stroke-opacity:1; fill:none" points="149.191,582.461 158.64,582.461 "/>
<polyline clip-path="url(#clip470)" style="stroke:#000000; stroke-linecap:round; stroke-linejoin:round; stroke-width:4; stroke-opacity:1; fill:none" points="149.191,565.895 158.64,565.895 "/>
<polyline clip-path="url(#clip470)" style="stroke:#000000; stroke-linecap:round; stroke-linejoin:round; stroke-width:4; stroke-opacity:1; fill:none" points="149.191,549.33 158.64,549.33 "/>
<polyline clip-path="url(#clip470)" style="stroke:#000000; stroke-linecap:round; stroke-linejoin:round; stroke-width:4; stroke-opacity:1; fill:none" points="149.191,532.764 158.64,532.764 "/>
<polyline clip-path="url(#clip470)" style="stroke:#000000; stroke-linecap:round; stroke-linejoin:round; stroke-width:4; stroke-opacity:1; fill:none" points="149.191,516.198 158.64,516.198 "/>
<polyline clip-path="url(#clip470)" style="stroke:#000000; stroke-linecap:round; stroke-linejoin:round; stroke-width:4; stroke-opacity:1; fill:none" points="149.191,499.632 158.64,499.632 "/>
<polyline clip-path="url(#clip470)" style="stroke:#000000; stroke-linecap:round; stroke-linejoin:round; stroke-width:4; stroke-opacity:1; fill:none" points="149.191,483.066 158.64,483.066 "/>
<polyline clip-path="url(#clip470)" style="stroke:#000000; stroke-linecap:round; stroke-linejoin:round; stroke-width:4; stroke-opacity:1; fill:none" points="149.191,466.5 158.64,466.5 "/>
<polyline clip-path="url(#clip470)" style="stroke:#000000; stroke-linecap:round; stroke-linejoin:round; stroke-width:4; stroke-opacity:1; fill:none" points="149.191,449.934 158.64,449.934 "/>
<polyline clip-path="url(#clip470)" style="stroke:#000000; stroke-linecap:round; stroke-linejoin:round; stroke-width:4; stroke-opacity:1; fill:none" points="149.191,416.802 158.64,416.802 "/>
<polyline clip-path="url(#clip470)" style="stroke:#000000; stroke-linecap:round; stroke-linejoin:round; stroke-width:4; stroke-opacity:1; fill:none" points="149.191,400.237 158.64,400.237 "/>
<polyline clip-path="url(#clip470)" style="stroke:#000000; stroke-linecap:round; stroke-linejoin:round; stroke-width:4; stroke-opacity:1; fill:none" points="149.191,383.671 158.64,383.671 "/>
<polyline clip-path="url(#clip470)" style="stroke:#000000; stroke-linecap:round; stroke-linejoin:round; stroke-width:4; stroke-opacity:1; fill:none" points="149.191,367.105 158.64,367.105 "/>
<polyline clip-path="url(#clip470)" style="stroke:#000000; stroke-linecap:round; stroke-linejoin:round; stroke-width:4; stroke-opacity:1; fill:none" points="149.191,350.539 158.64,350.539 "/>
<polyline clip-path="url(#clip470)" style="stroke:#000000; stroke-linecap:round; stroke-linejoin:round; stroke-width:4; stroke-opacity:1; fill:none" points="149.191,333.973 158.64,333.973 "/>
<polyline clip-path="url(#clip470)" style="stroke:#000000; stroke-linecap:round; stroke-linejoin:round; stroke-width:4; stroke-opacity:1; fill:none" points="149.191,317.407 158.64,317.407 "/>
<polyline clip-path="url(#clip470)" style="stroke:#000000; stroke-linecap:round; stroke-linejoin:round; stroke-width:4; stroke-opacity:1; fill:none" points="149.191,300.841 158.64,300.841 "/>
<polyline clip-path="url(#clip470)" style="stroke:#000000; stroke-linecap:round; stroke-linejoin:round; stroke-width:4; stroke-opacity:1; fill:none" points="149.191,284.275 158.64,284.275 "/>
<polyline clip-path="url(#clip470)" style="stroke:#000000; stroke-linecap:round; stroke-linejoin:round; stroke-width:4; stroke-opacity:1; fill:none" points="149.191,251.144 158.64,251.144 "/>
<polyline clip-path="url(#clip470)" style="stroke:#000000; stroke-linecap:round; stroke-linejoin:round; stroke-width:4; stroke-opacity:1; fill:none" points="149.191,234.578 158.64,234.578 "/>
<polyline clip-path="url(#clip470)" style="stroke:#000000; stroke-linecap:round; stroke-linejoin:round; stroke-width:4; stroke-opacity:1; fill:none" points="149.191,218.012 158.64,218.012 "/>
<polyline clip-path="url(#clip470)" style="stroke:#000000; stroke-linecap:round; stroke-linejoin:round; stroke-width:4; stroke-opacity:1; fill:none" points="149.191,201.446 158.64,201.446 "/>
<polyline clip-path="url(#clip470)" style="stroke:#000000; stroke-linecap:round; stroke-linejoin:round; stroke-width:4; stroke-opacity:1; fill:none" points="149.191,184.88 158.64,184.88 "/>
<polyline clip-path="url(#clip470)" style="stroke:#000000; stroke-linecap:round; stroke-linejoin:round; stroke-width:4; stroke-opacity:1; fill:none" points="149.191,168.314 158.64,168.314 "/>
<polyline clip-path="url(#clip470)" style="stroke:#000000; stroke-linecap:round; stroke-linejoin:round; stroke-width:4; stroke-opacity:1; fill:none" points="149.191,151.748 158.64,151.748 "/>
<polyline clip-path="url(#clip470)" style="stroke:#000000; stroke-linecap:round; stroke-linejoin:round; stroke-width:4; stroke-opacity:1; fill:none" points="149.191,135.182 158.64,135.182 "/>
<polyline clip-path="url(#clip470)" style="stroke:#000000; stroke-linecap:round; stroke-linejoin:round; stroke-width:4; stroke-opacity:1; fill:none" points="149.191,118.617 158.64,118.617 "/>
<path clip-path="url(#clip470)" d="M51.3162 1262.11 L80.992 1262.11 L80.992 1266.05 L51.3162 1266.05 L51.3162 1262.11 Z" fill="#000000" fill-rule="nonzero" fill-opacity="1" /><path clip-path="url(#clip470)" d="M101.663 1259.8 Q98.515 1259.8 96.6632 1261.95 Q94.8345 1264.1 94.8345 1267.85 Q94.8345 1271.58 96.6632 1273.76 Q98.515 1275.91 101.663 1275.91 Q104.811 1275.91 106.64 1273.76 Q108.492 1271.58 108.492 1267.85 Q108.492 1264.1 106.64 1261.95 Q104.811 1259.8 101.663 1259.8 M110.946 1245.15 L110.946 1249.41 Q109.186 1248.57 107.381 1248.13 Q105.598 1247.69 103.839 1247.69 Q99.2095 1247.69 96.7558 1250.82 Q94.3252 1253.94 93.978 1260.26 Q95.3437 1258.25 97.4039 1257.18 Q99.4641 1256.1 101.941 1256.1 Q107.149 1256.1 110.158 1259.27 Q113.191 1262.41 113.191 1267.85 Q113.191 1273.18 110.043 1276.4 Q106.895 1279.61 101.663 1279.61 Q95.6678 1279.61 92.4965 1275.03 Q89.3253 1270.42 89.3253 1261.7 Q89.3253 1253.5 93.2141 1248.64 Q97.103 1243.76 103.654 1243.76 Q105.413 1243.76 107.196 1244.1 Q109.001 1244.45 110.946 1245.15 Z" fill="#000000" fill-rule="nonzero" fill-opacity="1" /><path clip-path="url(#clip470)" d="M50.9921 1096.46 L80.6679 1096.46 L80.6679 1100.39 L50.9921 1100.39 L50.9921 1096.46 Z" fill="#000000" fill-rule="nonzero" fill-opacity="1" /><path clip-path="url(#clip470)" d="M103.608 1082.8 L91.8021 1101.25 L103.608 1101.25 L103.608 1082.8 M102.381 1078.72 L108.26 1078.72 L108.26 1101.25 L113.191 1101.25 L113.191 1105.14 L108.26 1105.14 L108.26 1113.28 L103.608 1113.28 L103.608 1105.14 L88.0058 1105.14 L88.0058 1100.62 L102.381 1078.72 Z" fill="#000000" fill-rule="nonzero" fill-opacity="1" /><path clip-path="url(#clip470)" d="M53.0754 930.796 L82.7512 930.796 L82.7512 934.731 L53.0754 934.731 L53.0754 930.796 Z" fill="#000000" fill-rule="nonzero" fill-opacity="1" /><path clip-path="url(#clip470)" d="M96.8715 943.69 L113.191 943.69 L113.191 947.625 L91.2465 947.625 L91.2465 943.69 Q93.9086 940.935 98.4919 936.305 Q103.098 931.653 104.279 930.31 Q106.524 927.787 107.404 926.051 Q108.307 924.292 108.307 922.602 Q108.307 919.847 106.362 918.111 Q104.441 916.375 101.339 916.375 Q99.14 916.375 96.6863 917.139 Q94.2558 917.903 91.478 919.454 L91.478 914.731 Q94.3021 913.597 96.7558 913.019 Q99.2095 912.44 101.246 912.44 Q106.617 912.44 109.811 915.125 Q113.006 917.81 113.006 922.301 Q113.006 924.43 112.196 926.352 Q111.408 928.25 109.302 930.842 Q108.723 931.514 105.621 934.731 Q102.52 937.926 96.8715 943.69 Z" fill="#000000" fill-rule="nonzero" fill-opacity="1" /><path clip-path="url(#clip470)" d="M101.246 750.485 Q97.6354 750.485 95.8067 754.049 Q94.0012 757.591 94.0012 764.721 Q94.0012 771.827 95.8067 775.392 Q97.6354 778.934 101.246 778.934 Q104.881 778.934 106.686 775.392 Q108.515 771.827 108.515 764.721 Q108.515 757.591 106.686 754.049 Q104.881 750.485 101.246 750.485 M101.246 746.781 Q107.057 746.781 110.112 751.387 Q113.191 755.971 113.191 764.721 Q113.191 773.448 110.112 778.054 Q107.057 782.637 101.246 782.637 Q95.4363 782.637 92.3576 778.054 Q89.3021 773.448 89.3021 764.721 Q89.3021 755.971 92.3576 751.387 Q95.4363 746.781 101.246 746.781 Z" fill="#000000" fill-rule="nonzero" fill-opacity="1" /><path clip-path="url(#clip470)" d="M96.8715 612.372 L113.191 612.372 L113.191 616.307 L91.2465 616.307 L91.2465 612.372 Q93.9086 609.617 98.4919 604.988 Q103.098 600.335 104.279 598.992 Q106.524 596.469 107.404 594.733 Q108.307 592.974 108.307 591.284 Q108.307 588.53 106.362 586.793 Q104.441 585.057 101.339 585.057 Q99.14 585.057 96.6863 585.821 Q94.2558 586.585 91.478 588.136 L91.478 583.414 Q94.3021 582.28 96.7558 581.701 Q99.2095 581.122 101.246 581.122 Q106.617 581.122 109.811 583.807 Q113.006 586.492 113.006 590.983 Q113.006 593.113 112.196 595.034 Q111.408 596.932 109.302 599.525 Q108.723 600.196 105.621 603.414 Q102.52 606.608 96.8715 612.372 Z" fill="#000000" fill-rule="nonzero" fill-opacity="1" /><path clip-path="url(#clip470)" d="M103.608 420.162 L91.8021 438.611 L103.608 438.611 L103.608 420.162 M102.381 416.088 L108.26 416.088 L108.26 438.611 L113.191 438.611 L113.191 442.5 L108.26 442.5 L108.26 450.648 L103.608 450.648 L103.608 442.5 L88.0058 442.5 L88.0058 437.986 L102.381 416.088 Z" fill="#000000" fill-rule="nonzero" fill-opacity="1" /><path clip-path="url(#clip470)" d="M101.663 265.846 Q98.515 265.846 96.6632 267.999 Q94.8345 270.152 94.8345 273.902 Q94.8345 277.628 96.6632 279.804 Q98.515 281.957 101.663 281.957 Q104.811 281.957 106.64 279.804 Q108.492 277.628 108.492 273.902 Q108.492 270.152 106.64 267.999 Q104.811 265.846 101.663 265.846 M110.946 251.193 L110.946 255.453 Q109.186 254.619 107.381 254.179 Q105.598 253.74 103.839 253.74 Q99.2095 253.74 96.7558 256.865 Q94.3252 259.99 93.978 266.309 Q95.3437 264.295 97.4039 263.23 Q99.4641 262.142 101.941 262.142 Q107.149 262.142 110.158 265.314 Q113.191 268.462 113.191 273.902 Q113.191 279.226 110.043 282.443 Q106.895 285.661 101.663 285.661 Q95.6678 285.661 92.4965 281.077 Q89.3253 276.471 89.3253 267.744 Q89.3253 259.55 93.2141 254.689 Q97.103 249.804 103.654 249.804 Q105.413 249.804 107.196 250.152 Q109.001 250.499 110.946 251.193 Z" fill="#000000" fill-rule="nonzero" fill-opacity="1" /><path clip-path="url(#clip470)" d="M936.522 8.64 L963.837 8.64 L963.837 13.559 L942.367 13.559 L942.367 26.3482 L962.94 26.3482 L962.94 31.2672 L942.367 31.2672 L942.367 46.921 L964.357 46.921 L964.357 51.84 L936.522 51.84 L936.522 8.64 Z" fill="#000000" fill-rule="nonzero" fill-opacity="1" /><path clip-path="url(#clip470)" d="M979.809 31.2093 L979.809 47.0368 L989.184 47.0368 Q993.9 47.0368 996.157 45.0981 Q998.443 43.1306 998.443 39.1086 Q998.443 35.0577 996.157 33.148 Q993.9 31.2093 989.184 31.2093 L979.809 31.2093 M979.809 13.4432 L979.809 26.464 L988.46 26.464 Q992.743 26.464 994.826 24.8726 Q996.938 23.2522 996.938 19.9536 Q996.938 16.6839 994.826 15.0636 Q992.743 13.4432 988.46 13.4432 L979.809 13.4432 M973.964 8.64 L988.894 8.64 Q995.578 8.64 999.195 11.4178 Q1002.81 14.1955 1002.81 19.317 Q1002.81 23.2811 1000.96 25.6249 Q999.108 27.9686 995.52 28.5473 Q999.832 29.4732 1002.2 32.4246 Q1004.61 35.347 1004.61 39.7452 Q1004.61 45.5322 1000.67 48.6861 Q996.736 51.84 989.473 51.84 L973.964 51.84 L973.964 8.64 Z" fill="#000000" fill-rule="nonzero" fill-opacity="1" /><path clip-path="url(#clip470)" d="M1015.75 44.4905 L1021.85 44.4905 L1021.85 51.84 L1015.75 51.84 L1015.75 44.4905 M1015.75 21.1978 L1021.85 21.1978 L1021.85 28.5473 L1015.75 28.5473 L1015.75 21.1978 Z" fill="#000000" fill-rule="nonzero" fill-opacity="1" /><path clip-path="url(#clip470)" d="M1058.45 10.2314 L1058.45 19.4328 L1069.42 19.4328 L1069.42 23.5705 L1058.45 23.5705 L1058.45 41.163 Q1058.45 45.1271 1059.52 46.2555 Q1060.62 47.384 1063.95 47.384 L1069.42 47.384 L1069.42 51.84 L1063.95 51.84 Q1057.79 51.84 1055.44 49.5541 Q1053.1 47.2393 1053.1 41.163 L1053.1 23.5705 L1049.19 23.5705 L1049.19 19.4328 L1053.1 19.4328 L1053.1 10.2314 L1058.45 10.2314 Z" fill="#000000" fill-rule="nonzero" fill-opacity="1" /><path clip-path="url(#clip470)" d="M1089.21 6.87496 Q1085.33 13.53 1083.45 20.0404 Q1081.57 26.5508 1081.57 33.2348 Q1081.57 39.9188 1083.45 46.487 Q1085.36 53.0263 1089.21 59.6525 L1084.58 59.6525 Q1080.24 52.8527 1078.07 46.2845 Q1075.93 39.7162 1075.93 33.2348 Q1075.93 26.7823 1078.07 20.2429 Q1080.21 13.7036 1084.58 6.87496 L1089.21 6.87496 Z" fill="#000000" fill-rule="nonzero" fill-opacity="1" /><path clip-path="url(#clip470)" d="M1101.31 46.921 L1110.86 46.921 L1110.86 13.964 L1100.47 16.0474 L1100.47 10.7233 L1110.8 8.64 L1116.64 8.64 L1116.64 46.921 L1126.19 46.921 L1126.19 51.84 L1101.31 51.84 L1101.31 46.921 Z" fill="#000000" fill-rule="nonzero" fill-opacity="1" /><path clip-path="url(#clip470)" d="M1138 44.4905 L1144.1 44.4905 L1144.1 51.84 L1138 51.84 L1138 44.4905 Z" fill="#000000" fill-rule="nonzero" fill-opacity="1" /><path clip-path="url(#clip470)" d="M1169.33 12.4884 Q1164.82 12.4884 1162.53 16.9444 Q1160.28 21.3714 1160.28 30.2834 Q1160.28 39.1665 1162.53 43.6225 Q1164.82 48.0495 1169.33 48.0495 Q1173.88 48.0495 1176.13 43.6225 Q1178.42 39.1665 1178.42 30.2834 Q1178.42 21.3714 1176.13 16.9444 Q1173.88 12.4884 1169.33 12.4884 M1169.33 7.85875 Q1176.6 7.85875 1180.42 13.6168 Q1184.26 19.346 1184.26 30.2834 Q1184.26 41.1919 1180.42 46.95 Q1176.6 52.6791 1169.33 52.6791 Q1162.07 52.6791 1158.22 46.95 Q1154.4 41.1919 1154.4 30.2834 Q1154.4 19.346 1158.22 13.6168 Q1162.07 7.85875 1169.33 7.85875 Z" fill="#000000" fill-rule="nonzero" fill-opacity="1" /><path clip-path="url(#clip470)" d="M1192.94 6.87496 L1197.57 6.87496 Q1201.91 13.7036 1204.06 20.2429 Q1206.23 26.7823 1206.23 33.2348 Q1206.23 39.7162 1204.06 46.2845 Q1201.91 52.8527 1197.57 59.6525 L1192.94 59.6525 Q1196.79 53.0263 1198.67 46.487 Q1200.58 39.9188 1200.58 33.2348 Q1200.58 26.5508 1198.67 20.0404 Q1196.79 13.53 1192.94 6.87496 Z" fill="#000000" fill-rule="nonzero" fill-opacity="1" /><path clip-path="url(#clip470)" d="M1216.35 64.1663 L1216.35 19.4328 L1221.68 19.4328 L1221.68 39.5715 Q1221.68 43.7671 1223.67 45.9083 Q1225.67 48.0495 1229.58 48.0495 Q1233.86 48.0495 1236 45.619 Q1238.17 43.1884 1238.17 38.3273 L1238.17 19.4328 L1243.49 19.4328 L1243.49 44.3748 Q1243.49 46.1109 1243.99 46.95 Q1244.51 47.7602 1245.58 47.7602 Q1245.84 47.7602 1246.3 47.6155 Q1246.76 47.4419 1247.57 47.0947 L1247.57 51.377 Q1246.39 52.0425 1245.32 52.3608 Q1244.27 52.6791 1243.26 52.6791 Q1241.27 52.6791 1240.08 51.5506 Q1238.89 50.4222 1238.46 48.1074 Q1237.01 50.3932 1234.9 51.5506 Q1232.82 52.6791 1229.98 52.6791 Q1227.03 52.6791 1224.95 51.5506 Q1222.89 50.4222 1221.68 48.1653 L1221.68 64.1663 L1216.35 64.1663 Z" fill="#000000" fill-rule="nonzero" fill-opacity="1" /><path clip-path="url(#clip470)" d="M1267.39 6.87496 Q1263.52 13.53 1261.64 20.0404 Q1259.76 26.5508 1259.76 33.2348 Q1259.76 39.9188 1261.64 46.487 Q1263.55 53.0263 1267.39 59.6525 L1262.76 59.6525 Q1258.42 52.8527 1256.25 46.2845 Q1254.11 39.7162 1254.11 33.2348 Q1254.11 26.7823 1256.25 20.2429 Q1258.4 13.7036 1262.76 6.87496 L1267.39 6.87496 Z" fill="#000000" fill-rule="nonzero" fill-opacity="1" /><path clip-path="url(#clip470)" d="M1296.18 28.5473 Q1300.38 29.4443 1302.72 32.2799 Q1305.1 35.1156 1305.1 39.2822 Q1305.1 45.6768 1300.7 49.178 Q1296.3 52.6791 1288.2 52.6791 Q1285.48 52.6791 1282.58 52.1294 Q1279.72 51.6085 1276.65 50.5379 L1276.65 44.8956 Q1279.08 46.3134 1281.98 47.0368 Q1284.87 47.7602 1288.02 47.7602 Q1293.52 47.7602 1296.39 45.59 Q1299.28 43.4199 1299.28 39.2822 Q1299.28 35.4628 1296.59 33.3216 Q1293.93 31.1515 1289.15 31.1515 L1284.12 31.1515 L1284.12 26.3482 L1289.38 26.3482 Q1293.7 26.3482 1295.98 24.6411 Q1298.27 22.905 1298.27 19.6642 Q1298.27 16.3367 1295.9 14.5717 Q1293.55 12.7777 1289.15 12.7777 Q1286.75 12.7777 1284 13.2985 Q1281.25 13.8194 1277.96 14.9189 L1277.96 9.7106 Q1281.28 8.78468 1284.18 8.32171 Q1287.1 7.85875 1289.67 7.85875 Q1296.33 7.85875 1300.21 10.8969 Q1304.08 13.9062 1304.08 19.0566 Q1304.08 22.6446 1302.03 25.133 Q1299.97 27.5924 1296.18 28.5473 Z" fill="#000000" fill-rule="nonzero" fill-opacity="1" /><path clip-path="url(#clip470)" d="M1316.18 44.4905 L1322.28 44.4905 L1322.28 51.84 L1316.18 51.84 L1316.18 44.4905 Z" fill="#000000" fill-rule="nonzero" fill-opacity="1" /><path clip-path="url(#clip470)" d="M1335.07 8.64 L1358.02 8.64 L1358.02 13.559 L1340.43 13.559 L1340.43 24.1492 Q1341.7 23.7152 1342.97 23.5126 Q1344.25 23.2811 1345.52 23.2811 Q1352.75 23.2811 1356.98 27.2452 Q1361.2 31.2093 1361.2 37.9801 Q1361.2 44.9535 1356.86 48.8308 Q1352.52 52.6791 1344.62 52.6791 Q1341.9 52.6791 1339.07 52.2162 Q1336.26 51.7532 1333.25 50.8273 L1333.25 44.9535 Q1335.85 46.3713 1338.63 47.0657 Q1341.41 47.7602 1344.51 47.7602 Q1349.51 47.7602 1352.43 45.1271 Q1355.36 42.494 1355.36 37.9801 Q1355.36 33.4663 1352.43 30.8332 Q1349.51 28.2001 1344.51 28.2001 Q1342.16 28.2001 1339.82 28.7209 Q1337.5 29.2417 1335.07 30.3413 L1335.07 8.64 Z" fill="#000000" fill-rule="nonzero" fill-opacity="1" /><path clip-path="url(#clip470)" d="M1371.13 6.87496 L1375.76 6.87496 Q1380.1 13.7036 1382.24 20.2429 Q1384.41 26.7823 1384.41 33.2348 Q1384.41 39.7162 1382.24 46.2845 Q1380.1 52.8527 1375.76 59.6525 L1371.13 59.6525 Q1374.97 53.0263 1376.86 46.487 Q1378.76 39.9188 1378.76 33.2348 Q1378.76 26.5508 1376.86 20.0404 Q1374.97 13.53 1371.13 6.87496 Z" fill="#000000" fill-rule="nonzero" fill-opacity="1" /><path clip-path="url(#clip470)" d="M1409.75 14.3981 L1397.89 46.9789 L1421.65 46.9789 L1409.75 14.3981 M1389.96 51.84 L1406.46 8.64 L1413.08 8.64 L1429.55 51.84 L1389.96 51.84 Z" fill="#000000" fill-rule="nonzero" fill-opacity="1" /><path clip-path="url(#clip470)" d="M1448.41 6.87496 Q1444.53 13.53 1442.65 20.0404 Q1440.77 26.5508 1440.77 33.2348 Q1440.77 39.9188 1442.65 46.487 Q1444.56 53.0263 1448.41 59.6525 L1443.78 59.6525 Q1439.44 52.8527 1437.27 46.2845 Q1435.13 39.7162 1435.13 33.2348 Q1435.13 26.7823 1437.27 20.2429 Q1439.41 13.7036 1443.78 6.87496 L1448.41 6.87496 Z" fill="#000000" fill-rule="nonzero" fill-opacity="1" /><path clip-path="url(#clip470)" d="M1471.99 12.4884 Q1467.48 12.4884 1465.19 16.9444 Q1462.94 21.3714 1462.94 30.2834 Q1462.94 39.1665 1465.19 43.6225 Q1467.48 48.0495 1471.99 48.0495 Q1476.54 48.0495 1478.79 43.6225 Q1481.08 39.1665 1481.08 30.2834 Q1481.08 21.3714 1478.79 16.9444 Q1476.54 12.4884 1471.99 12.4884 M1471.99 7.85875 Q1479.26 7.85875 1483.08 13.6168 Q1486.92 19.346 1486.92 30.2834 Q1486.92 41.1919 1483.08 46.95 Q1479.26 52.6791 1471.99 52.6791 Q1464.73 52.6791 1460.88 46.95 Q1457.06 41.1919 1457.06 30.2834 Q1457.06 19.346 1460.88 13.6168 Q1464.73 7.85875 1471.99 7.85875 Z" fill="#000000" fill-rule="nonzero" fill-opacity="1" /><path clip-path="url(#clip470)" d="M1497.2 44.4905 L1503.3 44.4905 L1503.3 51.84 L1497.2 51.84 L1497.2 44.4905 Z" fill="#000000" fill-rule="nonzero" fill-opacity="1" /><path clip-path="url(#clip470)" d="M1516.09 8.64 L1539.04 8.64 L1539.04 13.559 L1521.44 13.559 L1521.44 24.1492 Q1522.72 23.7152 1523.99 23.5126 Q1525.26 23.2811 1526.54 23.2811 Q1533.77 23.2811 1537.99 27.2452 Q1542.22 31.2093 1542.22 37.9801 Q1542.22 44.9535 1537.88 48.8308 Q1533.54 52.6791 1525.64 52.6791 Q1522.92 52.6791 1520.08 52.2162 Q1517.28 51.7532 1514.27 50.8273 L1514.27 44.9535 Q1516.87 46.3713 1519.65 47.0657 Q1522.43 47.7602 1525.52 47.7602 Q1530.53 47.7602 1533.45 45.1271 Q1536.37 42.494 1536.37 37.9801 Q1536.37 33.4663 1533.45 30.8332 Q1530.53 28.2001 1525.52 28.2001 Q1523.18 28.2001 1520.84 28.7209 Q1518.52 29.2417 1516.09 30.3413 L1516.09 8.64 Z" fill="#000000" fill-rule="nonzero" fill-opacity="1" /><path clip-path="url(#clip470)" d="M1552.14 6.87496 L1556.77 6.87496 Q1561.11 13.7036 1563.25 20.2429 Q1565.42 26.7823 1565.42 33.2348 Q1565.42 39.7162 1563.25 46.2845 Q1561.11 52.8527 1556.77 59.6525 L1552.14 59.6525 Q1555.99 53.0263 1557.87 46.487 Q1559.78 39.9188 1559.78 33.2348 Q1559.78 26.5508 1557.87 20.0404 Q1555.99 13.53 1552.14 6.87496 Z" fill="#000000" fill-rule="nonzero" fill-opacity="1" /><polyline clip-path="url(#clip472)" style="stroke:#009af9; stroke-linecap:round; stroke-linejoin:round; stroke-width:4; stroke-opacity:1; fill:none" points="149.191,1385.91 155.645,1385.83 162.099,1385.6 168.553,1385.22 175.007,1384.69 181.461,1384 187.915,1383.17 194.37,1382.18 200.824,1381.05 207.278,1379.76 213.732,1378.33 220.186,1376.76 226.64,1375.04 233.094,1373.17 239.548,1371.17 246.002,1369.02 252.456,1366.74 258.91,1364.32 265.365,1361.77 271.819,1359.09 278.273,1356.28 284.727,1353.34 291.181,1350.28 297.635,1347.09 304.089,1343.79 310.543,1340.37 316.997,1336.84 323.451,1333.21 329.905,1329.46 336.36,1325.61 342.814,1321.67 349.268,1317.62 355.722,1313.49 362.176,1309.26 368.63,1304.95 375.084,1300.56 381.538,1296.09 387.992,1291.55 394.446,1286.94 400.9,1282.26 407.355,1277.53 413.809,1272.73 420.263,1267.88 426.717,1262.99 433.171,1258.04 439.625,1253.06 446.079,1248.05 452.533,1243 458.987,1237.93 465.441,1232.83 471.895,1227.72 478.35,1222.59 484.804,1217.46 491.258,1212.32 497.712,1207.18 504.166,1202.05 510.62,1196.93 517.074,1191.83 523.528,1186.75 529.982,1181.69 536.436,1176.66 542.891,1171.66 549.345,1166.71 555.799,1161.8 562.253,1156.94 568.707,1152.13 575.161,1147.39 581.615,1142.7 588.069,1138.09 594.523,1133.55 600.977,1129.09 607.431,1124.71 613.886,1120.42 620.34,1116.23 626.794,1112.13 633.248,1108.14 639.702,1104.26 646.156,1100.48 652.61,1096.83 659.064,1093.3 665.518,1089.89 671.972,1086.62 678.426,1083.48 684.881,1080.49 691.335,1077.63 697.789,1074.93 704.243,1072.38 710.697,1069.99 717.151,1067.76 723.605,1065.69 730.059,1063.79 736.513,1062.07 742.967,1060.51 749.421,1059.13 755.876,1057.93 762.33,1056.92 768.784,1056.08 775.238,1055.43 781.692,1054.96 788.146,1054.68 794.6,1054.59 801.054,1054.52 807.508,1054.31 813.962,1053.96 820.416,1053.47 826.871,1052.84 833.325,1052.07 839.779,1051.17 846.233,1050.13 852.687,1048.95 859.141,1047.64 865.595,1046.2 872.049,1044.62 878.503,1042.92 884.957,1041.08 891.412,1039.12 897.866,1037.04 904.32,1034.83 910.774,1032.5 917.228,1030.06 923.682,1027.5 930.136,1024.83 936.59,1022.05 943.044,1019.16 949.498,1016.17 955.952,1013.07 962.407,1009.88 968.861,1006.6 975.315,1003.22 981.769,999.758 988.223,996.211 994.677,992.585 1001.13,988.881 1007.59,985.106 1014.04,981.262 1020.49,977.354 1026.95,973.386 1033.4,969.361 1039.86,965.285 1046.31,961.162 1052.76,956.996 1059.22,952.792 1065.67,948.554 1072.13,944.287 1078.58,939.995 1085.03,935.685 1091.49,931.359 1097.94,927.024 1104.4,922.683 1110.85,918.343 1117.3,914.009 1123.76,909.685 1130.21,905.376 1136.67,901.089 1143.12,896.827 1149.58,892.598 1156.03,888.406 1162.48,884.256 1168.94,880.155 1175.39,876.108 1181.85,872.121 1188.3,868.2 1194.75,864.35 1201.21,860.578 1207.66,856.891 1214.12,853.293 1220.57,849.792 1227.02,846.395 1233.48,843.106 1239.93,839.934 1246.39,836.884 1252.84,833.962 1259.29,831.176 1265.75,828.531 1272.2,826.032 1278.66,823.685 1285.11,821.494 1291.57,819.462 1298.02,817.593 1304.47,815.887 1310.93,814.344 1317.38,812.962 1323.84,811.739 1330.29,810.668 1336.74,809.742 1343.2,808.954 1349.65,808.293 1356.11,807.749 1362.56,807.308 1369.01,806.96 1375.47,806.692 1381.92,806.491 1388.38,806.345 1394.83,806.245 1401.28,806.179 1407.74,806.138 1414.19,806.116 1420.65,806.106 1427.1,806.102 1433.56,806.101 1440.01,806.101 1449.14,806.101 1458.26,806.105 1467.39,806.124 1476.52,806.173 1485.65,806.276 1494.77,806.463 1503.9,806.768 1513.03,807.23 1522.16,807.89 1531.28,808.791 1540.41,809.973 1549.54,811.471 1558.67,813.316 1567.79,815.531 1576.92,818.13 1586.05,821.12 1595.18,824.501 1604.3,828.269 1613.43,832.415 1622.56,836.926 1631.69,841.788 1640.81,846.988 1649.94,852.509 1659.07,858.339 1668.2,864.461 1677.32,870.861 1686.45,877.527 1695.58,884.444 1704.71,891.601 1713.83,898.984 1722.96,906.583 1732.09,914.385 1741.22,922.379 1750.34,930.554 1759.47,938.899 1768.6,947.403 1777.73,956.057 1786.85,964.848 1795.98,973.767 1805.11,982.803 1814.24,991.946 1823.36,1001.19 1832.49,1010.51 1841.62,1019.91 1850.75,1029.38 1859.87,1038.91 1869,1048.48 1878.13,1058.08 1887.26,1067.71 1896.38,1077.36 1905.51,1087.01 1914.64,1096.66 1923.77,1106.29 1932.89,1115.9 1942.02,1125.47 1951.15,1135 1960.27,1144.48 1969.4,1153.89 1978.53,1163.23 1987.66,1172.48 1996.78,1181.65 2005.91,1190.71 2015.04,1199.67 2024.17,1208.5 2033.29,1217.2 2042.42,1225.77 2051.55,1234.2 2060.68,1242.47 2069.8,1250.57 2078.93,1258.51 2088.06,1266.27 2097.19,1273.84 2106.31,1281.22 2115.44,1288.4 2124.57,1295.37 2133.7,1302.12 2142.82,1308.66 2151.95,1314.96 2161.08,1321.03 2170.21,1326.86 2179.33,1332.45 2188.46,1337.78 2197.59,1342.85 2206.72,1347.66 2215.84,1352.21 2224.97,1356.48 2234.1,1360.48 2243.23,1364.19 2252.35,1367.63 2261.48,1370.77 2270.61,1373.63 2279.74,1376.19 2288.86,1378.46 2297.99,1380.43 2307.12,1382.1 2316.25,1383.47 2325.37,1384.53 2334.5,1385.3 2343.63,1385.75 2352.76,1385.91 "/>
<polyline clip-path="url(#clip472)" style="stroke:#e26f46; stroke-linecap:round; stroke-linejoin:round; stroke-width:4; stroke-opacity:1; fill:none" points="149.191,143.465 155.645,143.542 162.099,143.77 168.553,144.152 175.007,144.685 181.461,145.369 187.915,146.205 194.37,147.191 200.824,148.326 207.278,149.609 213.732,151.039 220.186,152.616 226.64,154.336 233.094,156.2 239.548,158.205 246.002,160.35 252.456,162.632 258.91,165.05 265.365,167.602 271.819,170.285 278.273,173.097 284.727,176.035 291.181,179.097 297.635,182.28 304.089,185.582 310.543,188.999 316.997,192.528 323.451,196.167 329.905,199.912 336.36,203.759 342.814,207.707 349.268,211.75 355.722,215.885 362.176,220.11 368.63,224.419 375.084,228.81 381.538,233.279 387.992,237.82 394.446,242.432 400.9,247.108 407.355,251.846 413.809,256.642 420.263,261.49 426.717,266.387 433.171,271.328 439.625,276.309 446.079,281.325 452.533,286.372 458.987,291.446 465.441,296.542 471.895,301.655 478.35,306.781 484.804,311.916 491.258,317.053 497.712,322.189 504.166,327.32 510.62,332.439 517.074,337.543 523.528,342.627 529.982,347.685 536.436,352.714 542.891,357.708 549.345,362.662 555.799,367.572 562.253,372.432 568.707,377.238 575.161,381.985 581.615,386.667 588.069,391.281 594.523,395.821 600.977,400.282 607.431,404.659 613.886,408.947 620.34,413.142 626.794,417.239 633.248,421.232 639.702,425.117 646.156,428.889 652.61,432.543 659.064,436.075 665.518,439.48 671.972,442.753 678.426,445.89 684.881,448.886 691.335,451.738 697.789,454.44 704.243,456.989 710.697,459.381 717.151,461.612 723.605,463.679 730.059,465.578 736.513,467.306 742.967,468.861 749.421,470.239 755.876,471.438 762.33,472.456 768.784,473.292 775.238,473.943 781.692,474.41 788.146,474.69 794.6,474.783 801.054,474.853 807.508,475.063 813.962,475.413 820.416,475.903 826.871,476.531 833.325,477.298 839.779,478.202 846.233,479.243 852.687,480.42 859.141,481.731 865.595,483.175 872.049,484.751 878.503,486.456 884.957,488.29 891.412,490.25 897.866,492.335 904.32,494.542 910.774,496.868 917.228,499.313 923.682,501.872 930.136,504.544 936.59,507.326 943.044,510.214 949.498,513.206 955.952,516.299 962.407,519.49 968.861,522.775 975.315,526.151 981.769,529.614 988.223,533.161 994.677,536.787 1001.13,540.491 1007.59,544.266 1014.04,548.11 1020.49,552.018 1026.95,555.986 1033.4,560.011 1039.86,564.087 1046.31,568.21 1052.76,572.376 1059.22,576.58 1065.67,580.818 1072.13,585.085 1078.58,589.377 1085.03,593.687 1091.49,598.013 1097.94,602.348 1104.4,606.689 1110.85,611.028 1117.3,615.363 1123.76,619.687 1130.21,623.996 1136.67,628.283 1143.12,632.544 1149.58,636.774 1156.03,640.966 1162.48,645.116 1168.94,649.217 1175.39,653.264 1181.85,657.251 1188.3,661.172 1194.75,665.022 1201.21,668.794 1207.66,672.481 1214.12,676.079 1220.57,679.58 1227.02,682.977 1233.48,686.266 1239.93,689.438 1246.39,692.488 1252.84,695.41 1259.29,698.196 1265.75,700.841 1272.2,703.34 1278.66,705.687 1285.11,707.878 1291.57,709.91 1298.02,711.779 1304.47,713.485 1310.93,715.028 1317.38,716.41 1323.84,717.633 1330.29,718.704 1336.74,719.63 1343.2,720.418 1349.65,721.079 1356.11,721.623 1362.56,722.064 1369.01,722.412 1375.47,722.68 1381.92,722.881 1388.38,723.027 1394.83,723.127 1401.28,723.193 1407.74,723.234 1414.19,723.256 1420.65,723.266 1427.1,723.27 1433.56,723.271 1440.01,723.271 1449.14,723.271 1458.26,723.267 1467.39,723.248 1476.52,723.199 1485.65,723.096 1494.77,722.909 1503.9,722.604 1513.03,722.142 1522.16,721.482 1531.28,720.581 1540.41,719.399 1549.54,717.901 1558.67,716.056 1567.79,713.841 1576.92,711.242 1586.05,708.252 1595.18,704.871 1604.3,701.103 1613.43,696.957 1622.56,692.446 1631.69,687.584 1640.81,682.384 1649.94,676.862 1659.07,671.033 1668.2,664.911 1677.32,658.511 1686.45,651.845 1695.58,644.928 1704.71,637.771 1713.83,630.387 1722.96,622.789 1732.09,614.987 1741.22,606.993 1750.34,598.818 1759.47,590.473 1768.6,581.968 1777.73,573.315 1786.85,564.524 1795.98,555.605 1805.11,546.569 1814.24,537.426 1823.36,528.186 1832.49,518.86 1841.62,509.457 1850.75,499.989 1859.87,490.464 1869,480.895 1878.13,471.289 1887.26,461.658 1896.38,452.012 1905.51,442.36 1914.64,432.713 1923.77,423.081 1932.89,413.473 1942.02,403.9 1951.15,394.37 1960.27,384.895 1969.4,375.483 1978.53,366.144 1987.66,356.888 1996.78,347.723 2005.91,338.66 2015.04,329.707 2024.17,320.873 2033.29,312.167 2042.42,303.598 2051.55,295.175 2060.68,286.905 2069.8,278.798 2078.93,270.861 2088.06,263.102 2097.19,255.53 2106.31,248.15 2115.44,240.972 2124.57,234.002 2133.7,227.247 2142.82,220.714 2151.95,214.409 2161.08,208.339 2170.21,202.509 2179.33,196.926 2188.46,191.595 2197.59,186.521 2206.72,181.709 2215.84,177.165 2224.97,172.892 2234.1,168.896 2243.23,165.179 2252.35,161.746 2261.48,158.599 2270.61,155.743 2279.74,153.18 2288.86,150.912 2297.99,148.943 2307.12,147.272 2316.25,145.904 2325.37,144.838 2334.5,144.076 2343.63,143.618 2352.76,143.465 "/>
</svg>
