<?xml version="1.0" encoding="utf-8"?>
<svg xmlns="http://www.w3.org/2000/svg" xmlns:xlink="http://www.w3.org/1999/xlink" width="600" height="400" viewBox="0 0 2400 1600">
<defs>
  <clipPath id="clip720">
    <rect x="0" y="0" width="2400" height="1600"/>
  </clipPath>
</defs>
<path clip-path="url(#clip720)" d="M0 1600 L2400 1600 L2400 0 L0 0  Z" fill="#ffffff" fill-rule="evenodd" fill-opacity="1"/>
<defs>
  <clipPath id="clip721">
    <rect x="480" y="0" width="1681" height="1600"/>
  </clipPath>
</defs>
<path clip-path="url(#clip720)" d="M186.76 1486.45 L2352.76 1486.45 L2352.76 106.192 L186.76 106.192  Z" fill="#ffffff" fill-rule="evenodd" fill-opacity="1"/>
<defs>
  <clipPath id="clip722">
    <rect x="186" y="106" width="2167" height="1381"/>
  </clipPath>
</defs>
<polyline clip-path="url(#clip722)" style="stroke:#000000; stroke-linecap:round; stroke-linejoin:round; stroke-width:2; stroke-opacity:0.1; fill:none" points="452.401,1486.45 452.401,106.192 "/>
<polyline clip-path="url(#clip722)" style="stroke:#000000; stroke-linecap:round; stroke-linejoin:round; stroke-width:2; stroke-opacity:0.1; fill:none" points="861.08,1486.45 861.08,106.192 "/>
<polyline clip-path="url(#clip722)" style="stroke:#000000; stroke-linecap:round; stroke-linejoin:round; stroke-width:2; stroke-opacity:0.1; fill:none" points="1269.76,1486.45 1269.76,106.192 "/>
<polyline clip-path="url(#clip722)" style="stroke:#000000; stroke-linecap:round; stroke-linejoin:round; stroke-width:2; stroke-opacity:0.1; fill:none" points="1678.44,1486.45 1678.44,106.192 "/>
<polyline clip-path="url(#clip722)" style="stroke:#000000; stroke-linecap:round; stroke-linejoin:round; stroke-width:2; stroke-opacity:0.1; fill:none" points="2087.11,1486.45 2087.11,106.192 "/>
<polyline clip-path="url(#clip722)" style="stroke:#000000; stroke-linecap:round; stroke-linejoin:round; stroke-width:2; stroke-opacity:0.05; fill:none" points="207.194,1486.45 207.194,106.192 "/>
<polyline clip-path="url(#clip722)" style="stroke:#000000; stroke-linecap:round; stroke-linejoin:round; stroke-width:2; stroke-opacity:0.05; fill:none" points="248.062,1486.45 248.062,106.192 "/>
<polyline clip-path="url(#clip722)" style="stroke:#000000; stroke-linecap:round; stroke-linejoin:round; stroke-width:2; stroke-opacity:0.05; fill:none" points="288.93,1486.45 288.93,106.192 "/>
<polyline clip-path="url(#clip722)" style="stroke:#000000; stroke-linecap:round; stroke-linejoin:round; stroke-width:2; stroke-opacity:0.05; fill:none" points="329.798,1486.45 329.798,106.192 "/>
<polyline clip-path="url(#clip722)" style="stroke:#000000; stroke-linecap:round; stroke-linejoin:round; stroke-width:2; stroke-opacity:0.05; fill:none" points="370.665,1486.45 370.665,106.192 "/>
<polyline clip-path="url(#clip722)" style="stroke:#000000; stroke-linecap:round; stroke-linejoin:round; stroke-width:2; stroke-opacity:0.05; fill:none" points="411.533,1486.45 411.533,106.192 "/>
<polyline clip-path="url(#clip722)" style="stroke:#000000; stroke-linecap:round; stroke-linejoin:round; stroke-width:2; stroke-opacity:0.05; fill:none" points="493.269,1486.45 493.269,106.192 "/>
<polyline clip-path="url(#clip722)" style="stroke:#000000; stroke-linecap:round; stroke-linejoin:round; stroke-width:2; stroke-opacity:0.05; fill:none" points="534.137,1486.45 534.137,106.192 "/>
<polyline clip-path="url(#clip722)" style="stroke:#000000; stroke-linecap:round; stroke-linejoin:round; stroke-width:2; stroke-opacity:0.05; fill:none" points="575.005,1486.45 575.005,106.192 "/>
<polyline clip-path="url(#clip722)" style="stroke:#000000; stroke-linecap:round; stroke-linejoin:round; stroke-width:2; stroke-opacity:0.05; fill:none" points="615.872,1486.45 615.872,106.192 "/>
<polyline clip-path="url(#clip722)" style="stroke:#000000; stroke-linecap:round; stroke-linejoin:round; stroke-width:2; stroke-opacity:0.05; fill:none" points="656.74,1486.45 656.74,106.192 "/>
<polyline clip-path="url(#clip722)" style="stroke:#000000; stroke-linecap:round; stroke-linejoin:round; stroke-width:2; stroke-opacity:0.05; fill:none" points="697.608,1486.45 697.608,106.192 "/>
<polyline clip-path="url(#clip722)" style="stroke:#000000; stroke-linecap:round; stroke-linejoin:round; stroke-width:2; stroke-opacity:0.05; fill:none" points="738.476,1486.45 738.476,106.192 "/>
<polyline clip-path="url(#clip722)" style="stroke:#000000; stroke-linecap:round; stroke-linejoin:round; stroke-width:2; stroke-opacity:0.05; fill:none" points="779.344,1486.45 779.344,106.192 "/>
<polyline clip-path="url(#clip722)" style="stroke:#000000; stroke-linecap:round; stroke-linejoin:round; stroke-width:2; stroke-opacity:0.05; fill:none" points="820.212,1486.45 820.212,106.192 "/>
<polyline clip-path="url(#clip722)" style="stroke:#000000; stroke-linecap:round; stroke-linejoin:round; stroke-width:2; stroke-opacity:0.05; fill:none" points="901.947,1486.45 901.947,106.192 "/>
<polyline clip-path="url(#clip722)" style="stroke:#000000; stroke-linecap:round; stroke-linejoin:round; stroke-width:2; stroke-opacity:0.05; fill:none" points="942.815,1486.45 942.815,106.192 "/>
<polyline clip-path="url(#clip722)" style="stroke:#000000; stroke-linecap:round; stroke-linejoin:round; stroke-width:2; stroke-opacity:0.05; fill:none" points="983.683,1486.45 983.683,106.192 "/>
<polyline clip-path="url(#clip722)" style="stroke:#000000; stroke-linecap:round; stroke-linejoin:round; stroke-width:2; stroke-opacity:0.05; fill:none" points="1024.55,1486.45 1024.55,106.192 "/>
<polyline clip-path="url(#clip722)" style="stroke:#000000; stroke-linecap:round; stroke-linejoin:round; stroke-width:2; stroke-opacity:0.05; fill:none" points="1065.42,1486.45 1065.42,106.192 "/>
<polyline clip-path="url(#clip722)" style="stroke:#000000; stroke-linecap:round; stroke-linejoin:round; stroke-width:2; stroke-opacity:0.05; fill:none" points="1106.29,1486.45 1106.29,106.192 "/>
<polyline clip-path="url(#clip722)" style="stroke:#000000; stroke-linecap:round; stroke-linejoin:round; stroke-width:2; stroke-opacity:0.05; fill:none" points="1147.15,1486.45 1147.15,106.192 "/>
<polyline clip-path="url(#clip722)" style="stroke:#000000; stroke-linecap:round; stroke-linejoin:round; stroke-width:2; stroke-opacity:0.05; fill:none" points="1188.02,1486.45 1188.02,106.192 "/>
<polyline clip-path="url(#clip722)" style="stroke:#000000; stroke-linecap:round; stroke-linejoin:round; stroke-width:2; stroke-opacity:0.05; fill:none" points="1228.89,1486.45 1228.89,106.192 "/>
<polyline clip-path="url(#clip722)" style="stroke:#000000; stroke-linecap:round; stroke-linejoin:round; stroke-width:2; stroke-opacity:0.05; fill:none" points="1310.63,1486.45 1310.63,106.192 "/>
<polyline clip-path="url(#clip722)" style="stroke:#000000; stroke-linecap:round; stroke-linejoin:round; stroke-width:2; stroke-opacity:0.05; fill:none" points="1351.49,1486.45 1351.49,106.192 "/>
<polyline clip-path="url(#clip722)" style="stroke:#000000; stroke-linecap:round; stroke-linejoin:round; stroke-width:2; stroke-opacity:0.05; fill:none" points="1392.36,1486.45 1392.36,106.192 "/>
<polyline clip-path="url(#clip722)" style="stroke:#000000; stroke-linecap:round; stroke-linejoin:round; stroke-width:2; stroke-opacity:0.05; fill:none" points="1433.23,1486.45 1433.23,106.192 "/>
<polyline clip-path="url(#clip722)" style="stroke:#000000; stroke-linecap:round; stroke-linejoin:round; stroke-width:2; stroke-opacity:0.05; fill:none" points="1474.1,1486.45 1474.1,106.192 "/>
<polyline clip-path="url(#clip722)" style="stroke:#000000; stroke-linecap:round; stroke-linejoin:round; stroke-width:2; stroke-opacity:0.05; fill:none" points="1514.97,1486.45 1514.97,106.192 "/>
<polyline clip-path="url(#clip722)" style="stroke:#000000; stroke-linecap:round; stroke-linejoin:round; stroke-width:2; stroke-opacity:0.05; fill:none" points="1555.83,1486.45 1555.83,106.192 "/>
<polyline clip-path="url(#clip722)" style="stroke:#000000; stroke-linecap:round; stroke-linejoin:round; stroke-width:2; stroke-opacity:0.05; fill:none" points="1596.7,1486.45 1596.7,106.192 "/>
<polyline clip-path="url(#clip722)" style="stroke:#000000; stroke-linecap:round; stroke-linejoin:round; stroke-width:2; stroke-opacity:0.05; fill:none" points="1637.57,1486.45 1637.57,106.192 "/>
<polyline clip-path="url(#clip722)" style="stroke:#000000; stroke-linecap:round; stroke-linejoin:round; stroke-width:2; stroke-opacity:0.05; fill:none" points="1719.3,1486.45 1719.3,106.192 "/>
<polyline clip-path="url(#clip722)" style="stroke:#000000; stroke-linecap:round; stroke-linejoin:round; stroke-width:2; stroke-opacity:0.05; fill:none" points="1760.17,1486.45 1760.17,106.192 "/>
<polyline clip-path="url(#clip722)" style="stroke:#000000; stroke-linecap:round; stroke-linejoin:round; stroke-width:2; stroke-opacity:0.05; fill:none" points="1801.04,1486.45 1801.04,106.192 "/>
<polyline clip-path="url(#clip722)" style="stroke:#000000; stroke-linecap:round; stroke-linejoin:round; stroke-width:2; stroke-opacity:0.05; fill:none" points="1841.91,1486.45 1841.91,106.192 "/>
<polyline clip-path="url(#clip722)" style="stroke:#000000; stroke-linecap:round; stroke-linejoin:round; stroke-width:2; stroke-opacity:0.05; fill:none" points="1882.78,1486.45 1882.78,106.192 "/>
<polyline clip-path="url(#clip722)" style="stroke:#000000; stroke-linecap:round; stroke-linejoin:round; stroke-width:2; stroke-opacity:0.05; fill:none" points="1923.64,1486.45 1923.64,106.192 "/>
<polyline clip-path="url(#clip722)" style="stroke:#000000; stroke-linecap:round; stroke-linejoin:round; stroke-width:2; stroke-opacity:0.05; fill:none" points="1964.51,1486.45 1964.51,106.192 "/>
<polyline clip-path="url(#clip722)" style="stroke:#000000; stroke-linecap:round; stroke-linejoin:round; stroke-width:2; stroke-opacity:0.05; fill:none" points="2005.38,1486.45 2005.38,106.192 "/>
<polyline clip-path="url(#clip722)" style="stroke:#000000; stroke-linecap:round; stroke-linejoin:round; stroke-width:2; stroke-opacity:0.05; fill:none" points="2046.25,1486.45 2046.25,106.192 "/>
<polyline clip-path="url(#clip722)" style="stroke:#000000; stroke-linecap:round; stroke-linejoin:round; stroke-width:2; stroke-opacity:0.05; fill:none" points="2127.98,1486.45 2127.98,106.192 "/>
<polyline clip-path="url(#clip722)" style="stroke:#000000; stroke-linecap:round; stroke-linejoin:round; stroke-width:2; stroke-opacity:0.05; fill:none" points="2168.85,1486.45 2168.85,106.192 "/>
<polyline clip-path="url(#clip722)" style="stroke:#000000; stroke-linecap:round; stroke-linejoin:round; stroke-width:2; stroke-opacity:0.05; fill:none" points="2209.72,1486.45 2209.72,106.192 "/>
<polyline clip-path="url(#clip722)" style="stroke:#000000; stroke-linecap:round; stroke-linejoin:round; stroke-width:2; stroke-opacity:0.05; fill:none" points="2250.59,1486.45 2250.59,106.192 "/>
<polyline clip-path="url(#clip722)" style="stroke:#000000; stroke-linecap:round; stroke-linejoin:round; stroke-width:2; stroke-opacity:0.05; fill:none" points="2291.45,1486.45 2291.45,106.192 "/>
<polyline clip-path="url(#clip722)" style="stroke:#000000; stroke-linecap:round; stroke-linejoin:round; stroke-width:2; stroke-opacity:0.05; fill:none" points="2332.32,1486.45 2332.32,106.192 "/>
<polyline clip-path="url(#clip720)" style="stroke:#000000; stroke-linecap:round; stroke-linejoin:round; stroke-width:4; stroke-opacity:1; fill:none" points="186.76,1486.45 2352.76,1486.45 "/>
<polyline clip-path="url(#clip720)" style="stroke:#000000; stroke-linecap:round; stroke-linejoin:round; stroke-width:4; stroke-opacity:1; fill:none" points="452.401,1486.45 452.401,1467.55 "/>
<polyline clip-path="url(#clip720)" style="stroke:#000000; stroke-linecap:round; stroke-linejoin:round; stroke-width:4; stroke-opacity:1; fill:none" points="861.08,1486.45 861.08,1467.55 "/>
<polyline clip-path="url(#clip720)" style="stroke:#000000; stroke-linecap:round; stroke-linejoin:round; stroke-width:4; stroke-opacity:1; fill:none" points="1269.76,1486.45 1269.76,1467.55 "/>
<polyline clip-path="url(#clip720)" style="stroke:#000000; stroke-linecap:round; stroke-linejoin:round; stroke-width:4; stroke-opacity:1; fill:none" points="1678.44,1486.45 1678.44,1467.55 "/>
<polyline clip-path="url(#clip720)" style="stroke:#000000; stroke-linecap:round; stroke-linejoin:round; stroke-width:4; stroke-opacity:1; fill:none" points="2087.11,1486.45 2087.11,1467.55 "/>
<polyline clip-path="url(#clip720)" style="stroke:#000000; stroke-linecap:round; stroke-linejoin:round; stroke-width:4; stroke-opacity:1; fill:none" points="207.194,1486.45 207.194,1477 "/>
<polyline clip-path="url(#clip720)" style="stroke:#000000; stroke-linecap:round; stroke-linejoin:round; stroke-width:4; stroke-opacity:1; fill:none" points="248.062,1486.45 248.062,1477 "/>
<polyline clip-path="url(#clip720)" style="stroke:#000000; stroke-linecap:round; stroke-linejoin:round; stroke-width:4; stroke-opacity:1; fill:none" points="288.93,1486.45 288.93,1477 "/>
<polyline clip-path="url(#clip720)" style="stroke:#000000; stroke-linecap:round; stroke-linejoin:round; stroke-width:4; stroke-opacity:1; fill:none" points="329.798,1486.45 329.798,1477 "/>
<polyline clip-path="url(#clip720)" style="stroke:#000000; stroke-linecap:round; stroke-linejoin:round; stroke-width:4; stroke-opacity:1; fill:none" points="370.665,1486.45 370.665,1477 "/>
<polyline clip-path="url(#clip720)" style="stroke:#000000; stroke-linecap:round; stroke-linejoin:round; stroke-width:4; stroke-opacity:1; fill:none" points="411.533,1486.45 411.533,1477 "/>
<polyline clip-path="url(#clip720)" style="stroke:#000000; stroke-linecap:round; stroke-linejoin:round; stroke-width:4; stroke-opacity:1; fill:none" points="493.269,1486.45 493.269,1477 "/>
<polyline clip-path="url(#clip720)" style="stroke:#000000; stroke-linecap:round; stroke-linejoin:round; stroke-width:4; stroke-opacity:1; fill:none" points="534.137,1486.45 534.137,1477 "/>
<polyline clip-path="url(#clip720)" style="stroke:#000000; stroke-linecap:round; stroke-linejoin:round; stroke-width:4; stroke-opacity:1; fill:none" points="575.005,1486.45 575.005,1477 "/>
<polyline clip-path="url(#clip720)" style="stroke:#000000; stroke-linecap:round; stroke-linejoin:round; stroke-width:4; stroke-opacity:1; fill:none" points="615.872,1486.45 615.872,1477 "/>
<polyline clip-path="url(#clip720)" style="stroke:#000000; stroke-linecap:round; stroke-linejoin:round; stroke-width:4; stroke-opacity:1; fill:none" points="656.74,1486.45 656.74,1477 "/>
<polyline clip-path="url(#clip720)" style="stroke:#000000; stroke-linecap:round; stroke-linejoin:round; stroke-width:4; stroke-opacity:1; fill:none" points="697.608,1486.45 697.608,1477 "/>
<polyline clip-path="url(#clip720)" style="stroke:#000000; stroke-linecap:round; stroke-linejoin:round; stroke-width:4; stroke-opacity:1; fill:none" points="738.476,1486.45 738.476,1477 "/>
<polyline clip-path="url(#clip720)" style="stroke:#000000; stroke-linecap:round; stroke-linejoin:round; stroke-width:4; stroke-opacity:1; fill:none" points="779.344,1486.45 779.344,1477 "/>
<polyline clip-path="url(#clip720)" style="stroke:#000000; stroke-linecap:round; stroke-linejoin:round; stroke-width:4; stroke-opacity:1; fill:none" points="820.212,1486.45 820.212,1477 "/>
<polyline clip-path="url(#clip720)" style="stroke:#000000; stroke-linecap:round; stroke-linejoin:round; stroke-width:4; stroke-opacity:1; fill:none" points="901.947,1486.45 901.947,1477 "/>
<polyline clip-path="url(#clip720)" style="stroke:#000000; stroke-linecap:round; stroke-linejoin:round; stroke-width:4; stroke-opacity:1; fill:none" points="942.815,1486.45 942.815,1477 "/>
<polyline clip-path="url(#clip720)" style="stroke:#000000; stroke-linecap:round; stroke-linejoin:round; stroke-width:4; stroke-opacity:1; fill:none" points="983.683,1486.45 983.683,1477 "/>
<polyline clip-path="url(#clip720)" style="stroke:#000000; stroke-linecap:round; stroke-linejoin:round; stroke-width:4; stroke-opacity:1; fill:none" points="1024.55,1486.45 1024.55,1477 "/>
<polyline clip-path="url(#clip720)" style="stroke:#000000; stroke-linecap:round; stroke-linejoin:round; stroke-width:4; stroke-opacity:1; fill:none" points="1065.42,1486.45 1065.42,1477 "/>
<polyline clip-path="url(#clip720)" style="stroke:#000000; stroke-linecap:round; stroke-linejoin:round; stroke-width:4; stroke-opacity:1; fill:none" points="1106.29,1486.45 1106.29,1477 "/>
<polyline clip-path="url(#clip720)" style="stroke:#000000; stroke-linecap:round; stroke-linejoin:round; stroke-width:4; stroke-opacity:1; fill:none" points="1147.15,1486.45 1147.15,1477 "/>
<polyline clip-path="url(#clip720)" style="stroke:#000000; stroke-linecap:round; stroke-linejoin:round; stroke-width:4; stroke-opacity:1; fill:none" points="1188.02,1486.45 1188.02,1477 "/>
<polyline clip-path="url(#clip720)" style="stroke:#000000; stroke-linecap:round; stroke-linejoin:round; stroke-width:4; stroke-opacity:1; fill:none" points="1228.89,1486.45 1228.89,1477 "/>
<polyline clip-path="url(#clip720)" style="stroke:#000000; stroke-linecap:round; stroke-linejoin:round; stroke-width:4; stroke-opacity:1; fill:none" points="1310.63,1486.45 1310.63,1477 "/>
<polyline clip-path="url(#clip720)" style="stroke:#000000; stroke-linecap:round; stroke-linejoin:round; stroke-width:4; stroke-opacity:1; fill:none" points="1351.49,1486.45 1351.49,1477 "/>
<polyline clip-path="url(#clip720)" style="stroke:#000000; stroke-linecap:round; stroke-linejoin:round; stroke-width:4; stroke-opacity:1; fill:none" points="1392.36,1486.45 1392.36,1477 "/>
<polyline clip-path="url(#clip720)" style="stroke:#000000; stroke-linecap:round; stroke-linejoin:round; stroke-width:4; stroke-opacity:1; fill:none" points="1433.23,1486.45 1433.23,1477 "/>
<polyline clip-path="url(#clip720)" style="stroke:#000000; stroke-linecap:round; stroke-linejoin:round; stroke-width:4; stroke-opacity:1; fill:none" points="1474.1,1486.45 1474.1,1477 "/>
<polyline clip-path="url(#clip720)" style="stroke:#000000; stroke-linecap:round; stroke-linejoin:round; stroke-width:4; stroke-opacity:1; fill:none" points="1514.97,1486.45 1514.97,1477 "/>
<polyline clip-path="url(#clip720)" style="stroke:#000000; stroke-linecap:round; stroke-linejoin:round; stroke-width:4; stroke-opacity:1; fill:none" points="1555.83,1486.45 1555.83,1477 "/>
<polyline clip-path="url(#clip720)" style="stroke:#000000; stroke-linecap:round; stroke-linejoin:round; stroke-width:4; stroke-opacity:1; fill:none" points="1596.7,1486.45 1596.7,1477 "/>
<polyline clip-path="url(#clip720)" style="stroke:#000000; stroke-linecap:round; stroke-linejoin:round; stroke-width:4; stroke-opacity:1; fill:none" points="1637.57,1486.45 1637.57,1477 "/>
<polyline clip-path="url(#clip720)" style="stroke:#000000; stroke-linecap:round; stroke-linejoin:round; stroke-width:4; stroke-opacity:1; fill:none" points="1719.3,1486.45 1719.3,1477 "/>
<polyline clip-path="url(#clip720)" style="stroke:#000000; stroke-linecap:round; stroke-linejoin:round; stroke-width:4; stroke-opacity:1; fill:none" points="1760.17,1486.45 1760.17,1477 "/>
<polyline clip-path="url(#clip720)" style="stroke:#000000; stroke-linecap:round; stroke-linejoin:round; stroke-width:4; stroke-opacity:1; fill:none" points="1801.04,1486.45 1801.04,1477 "/>
<polyline clip-path="url(#clip720)" style="stroke:#000000; stroke-linecap:round; stroke-linejoin:round; stroke-width:4; stroke-opacity:1; fill:none" points="1841.91,1486.45 1841.91,1477 "/>
<polyline clip-path="url(#clip720)" style="stroke:#000000; stroke-linecap:round; stroke-linejoin:round; stroke-width:4; stroke-opacity:1; fill:none" points="1882.78,1486.45 1882.78,1477 "/>
<polyline clip-path="url(#clip720)" style="stroke:#000000; stroke-linecap:round; stroke-linejoin:round; stroke-width:4; stroke-opacity:1; fill:none" points="1923.64,1486.45 1923.64,1477 "/>
<polyline clip-path="url(#clip720)" style="stroke:#000000; stroke-linecap:round; stroke-linejoin:round; stroke-width:4; stroke-opacity:1; fill:none" points="1964.51,1486.45 1964.51,1477 "/>
<polyline clip-path="url(#clip720)" style="stroke:#000000; stroke-linecap:round; stroke-linejoin:round; stroke-width:4; stroke-opacity:1; fill:none" points="2005.38,1486.45 2005.38,1477 "/>
<polyline clip-path="url(#clip720)" style="stroke:#000000; stroke-linecap:round; stroke-linejoin:round; stroke-width:4; stroke-opacity:1; fill:none" points="2046.25,1486.45 2046.25,1477 "/>
<polyline clip-path="url(#clip720)" style="stroke:#000000; stroke-linecap:round; stroke-linejoin:round; stroke-width:4; stroke-opacity:1; fill:none" points="2127.98,1486.45 2127.98,1477 "/>
<polyline clip-path="url(#clip720)" style="stroke:#000000; stroke-linecap:round; stroke-linejoin:round; stroke-width:4; stroke-opacity:1; fill:none" points="2168.85,1486.45 2168.85,1477 "/>
<polyline clip-path="url(#clip720)" style="stroke:#000000; stroke-linecap:round; stroke-linejoin:round; stroke-width:4; stroke-opacity:1; fill:none" points="2209.72,1486.45 2209.72,1477 "/>
<polyline clip-path="url(#clip720)" style="stroke:#000000; stroke-linecap:round; stroke-linejoin:round; stroke-width:4; stroke-opacity:1; fill:none" points="2250.59,1486.45 2250.59,1477 "/>
<polyline clip-path="url(#clip720)" style="stroke:#000000; stroke-linecap:round; stroke-linejoin:round; stroke-width:4; stroke-opacity:1; fill:none" points="2291.45,1486.45 2291.45,1477 "/>
<polyline clip-path="url(#clip720)" style="stroke:#000000; stroke-linecap:round; stroke-linejoin:round; stroke-width:4; stroke-opacity:1; fill:none" points="2332.32,1486.45 2332.32,1477 "/>
<path clip-path="url(#clip720)" d="M421.302 1532.02 L450.978 1532.02 L450.978 1535.95 L421.302 1535.95 L421.302 1532.02 Z" fill="#000000" fill-rule="nonzero" fill-opacity="1" /><path clip-path="url(#clip720)" d="M473.917 1518.36 L462.112 1536.81 L473.917 1536.81 L473.917 1518.36 M472.69 1514.29 L478.57 1514.29 L478.57 1536.81 L483.5 1536.81 L483.5 1540.7 L478.57 1540.7 L478.57 1548.85 L473.917 1548.85 L473.917 1540.7 L458.315 1540.7 L458.315 1536.19 L472.69 1514.29 Z" fill="#000000" fill-rule="nonzero" fill-opacity="1" /><path clip-path="url(#clip720)" d="M831.022 1532.02 L860.698 1532.02 L860.698 1535.95 L831.022 1535.95 L831.022 1532.02 Z" fill="#000000" fill-rule="nonzero" fill-opacity="1" /><path clip-path="url(#clip720)" d="M874.818 1544.91 L891.137 1544.91 L891.137 1548.85 L869.193 1548.85 L869.193 1544.91 Q871.855 1542.16 876.438 1537.53 Q881.045 1532.88 882.225 1531.53 Q884.471 1529.01 885.35 1527.27 Q886.253 1525.51 886.253 1523.82 Q886.253 1521.07 884.309 1519.33 Q882.387 1517.6 879.285 1517.6 Q877.086 1517.6 874.633 1518.36 Q872.202 1519.13 869.424 1520.68 L869.424 1515.95 Q872.248 1514.82 874.702 1514.24 Q877.156 1513.66 879.193 1513.66 Q884.563 1513.66 887.758 1516.35 Q890.952 1519.03 890.952 1523.52 Q890.952 1525.65 890.142 1527.57 Q889.355 1529.47 887.248 1532.07 Q886.67 1532.74 883.568 1535.95 Q880.466 1539.15 874.818 1544.91 Z" fill="#000000" fill-rule="nonzero" fill-opacity="1" /><path clip-path="url(#clip720)" d="M1269.76 1517.37 Q1266.15 1517.37 1264.32 1520.93 Q1262.51 1524.47 1262.51 1531.6 Q1262.51 1538.71 1264.32 1542.27 Q1266.15 1545.82 1269.76 1545.82 Q1273.39 1545.82 1275.2 1542.27 Q1277.03 1538.71 1277.03 1531.6 Q1277.03 1524.47 1275.2 1520.93 Q1273.39 1517.37 1269.76 1517.37 M1269.76 1513.66 Q1275.57 1513.66 1278.62 1518.27 Q1281.7 1522.85 1281.7 1531.6 Q1281.7 1540.33 1278.62 1544.94 Q1275.57 1549.52 1269.76 1549.52 Q1263.95 1549.52 1260.87 1544.94 Q1257.81 1540.33 1257.81 1531.6 Q1257.81 1522.85 1260.87 1518.27 Q1263.95 1513.66 1269.76 1513.66 Z" fill="#000000" fill-rule="nonzero" fill-opacity="1" /><path clip-path="url(#clip720)" d="M1673.09 1544.91 L1689.41 1544.91 L1689.41 1548.85 L1667.46 1548.85 L1667.46 1544.91 Q1670.13 1542.16 1674.71 1537.53 Q1679.32 1532.88 1680.5 1531.53 Q1682.74 1529.01 1683.62 1527.27 Q1684.52 1525.51 1684.52 1523.82 Q1684.52 1521.07 1682.58 1519.33 Q1680.66 1517.6 1677.56 1517.6 Q1675.36 1517.6 1672.9 1518.36 Q1670.47 1519.13 1667.7 1520.68 L1667.7 1515.95 Q1670.52 1514.82 1672.97 1514.24 Q1675.43 1513.66 1677.46 1513.66 Q1682.83 1513.66 1686.03 1516.35 Q1689.22 1519.03 1689.22 1523.52 Q1689.22 1525.65 1688.41 1527.57 Q1687.63 1529.47 1685.52 1532.07 Q1684.94 1532.74 1681.84 1535.95 Q1678.74 1539.15 1673.09 1544.91 Z" fill="#000000" fill-rule="nonzero" fill-opacity="1" /><path clip-path="url(#clip720)" d="M2090.12 1518.36 L2078.32 1536.81 L2090.12 1536.81 L2090.12 1518.36 M2088.9 1514.29 L2094.78 1514.29 L2094.78 1536.81 L2099.71 1536.81 L2099.71 1540.7 L2094.78 1540.7 L2094.78 1548.85 L2090.12 1548.85 L2090.12 1540.7 L2074.52 1540.7 L2074.52 1536.19 L2088.9 1514.29 Z" fill="#000000" fill-rule="nonzero" fill-opacity="1" /><polyline clip-path="url(#clip722)" style="stroke:#000000; stroke-linecap:round; stroke-linejoin:round; stroke-width:2; stroke-opacity:0.1; fill:none" points="186.76,1447.38 2352.76,1447.38 "/>
<polyline clip-path="url(#clip722)" style="stroke:#000000; stroke-linecap:round; stroke-linejoin:round; stroke-width:2; stroke-opacity:0.1; fill:none" points="186.76,1116.56 2352.76,1116.56 "/>
<polyline clip-path="url(#clip722)" style="stroke:#000000; stroke-linecap:round; stroke-linejoin:round; stroke-width:2; stroke-opacity:0.1; fill:none" points="186.76,785.728 2352.76,785.728 "/>
<polyline clip-path="url(#clip722)" style="stroke:#000000; stroke-linecap:round; stroke-linejoin:round; stroke-width:2; stroke-opacity:0.1; fill:none" points="186.76,454.9 2352.76,454.9 "/>
<polyline clip-path="url(#clip722)" style="stroke:#000000; stroke-linecap:round; stroke-linejoin:round; stroke-width:2; stroke-opacity:0.1; fill:none" points="186.76,124.073 2352.76,124.073 "/>
<polyline clip-path="url(#clip722)" style="stroke:#000000; stroke-linecap:round; stroke-linejoin:round; stroke-width:2; stroke-opacity:0.05; fill:none" points="186.76,1480.47 2352.76,1480.47 "/>
<polyline clip-path="url(#clip722)" style="stroke:#000000; stroke-linecap:round; stroke-linejoin:round; stroke-width:2; stroke-opacity:0.05; fill:none" points="186.76,1414.3 2352.76,1414.3 "/>
<polyline clip-path="url(#clip722)" style="stroke:#000000; stroke-linecap:round; stroke-linejoin:round; stroke-width:2; stroke-opacity:0.05; fill:none" points="186.76,1381.22 2352.76,1381.22 "/>
<polyline clip-path="url(#clip722)" style="stroke:#000000; stroke-linecap:round; stroke-linejoin:round; stroke-width:2; stroke-opacity:0.05; fill:none" points="186.76,1348.14 2352.76,1348.14 "/>
<polyline clip-path="url(#clip722)" style="stroke:#000000; stroke-linecap:round; stroke-linejoin:round; stroke-width:2; stroke-opacity:0.05; fill:none" points="186.76,1315.05 2352.76,1315.05 "/>
<polyline clip-path="url(#clip722)" style="stroke:#000000; stroke-linecap:round; stroke-linejoin:round; stroke-width:2; stroke-opacity:0.05; fill:none" points="186.76,1281.97 2352.76,1281.97 "/>
<polyline clip-path="url(#clip722)" style="stroke:#000000; stroke-linecap:round; stroke-linejoin:round; stroke-width:2; stroke-opacity:0.05; fill:none" points="186.76,1248.89 2352.76,1248.89 "/>
<polyline clip-path="url(#clip722)" style="stroke:#000000; stroke-linecap:round; stroke-linejoin:round; stroke-width:2; stroke-opacity:0.05; fill:none" points="186.76,1215.8 2352.76,1215.8 "/>
<polyline clip-path="url(#clip722)" style="stroke:#000000; stroke-linecap:round; stroke-linejoin:round; stroke-width:2; stroke-opacity:0.05; fill:none" points="186.76,1182.72 2352.76,1182.72 "/>
<polyline clip-path="url(#clip722)" style="stroke:#000000; stroke-linecap:round; stroke-linejoin:round; stroke-width:2; stroke-opacity:0.05; fill:none" points="186.76,1149.64 2352.76,1149.64 "/>
<polyline clip-path="url(#clip722)" style="stroke:#000000; stroke-linecap:round; stroke-linejoin:round; stroke-width:2; stroke-opacity:0.05; fill:none" points="186.76,1083.47 2352.76,1083.47 "/>
<polyline clip-path="url(#clip722)" style="stroke:#000000; stroke-linecap:round; stroke-linejoin:round; stroke-width:2; stroke-opacity:0.05; fill:none" points="186.76,1050.39 2352.76,1050.39 "/>
<polyline clip-path="url(#clip722)" style="stroke:#000000; stroke-linecap:round; stroke-linejoin:round; stroke-width:2; stroke-opacity:0.05; fill:none" points="186.76,1017.31 2352.76,1017.31 "/>
<polyline clip-path="url(#clip722)" style="stroke:#000000; stroke-linecap:round; stroke-linejoin:round; stroke-width:2; stroke-opacity:0.05; fill:none" points="186.76,984.225 2352.76,984.225 "/>
<polyline clip-path="url(#clip722)" style="stroke:#000000; stroke-linecap:round; stroke-linejoin:round; stroke-width:2; stroke-opacity:0.05; fill:none" points="186.76,951.142 2352.76,951.142 "/>
<polyline clip-path="url(#clip722)" style="stroke:#000000; stroke-linecap:round; stroke-linejoin:round; stroke-width:2; stroke-opacity:0.05; fill:none" points="186.76,918.059 2352.76,918.059 "/>
<polyline clip-path="url(#clip722)" style="stroke:#000000; stroke-linecap:round; stroke-linejoin:round; stroke-width:2; stroke-opacity:0.05; fill:none" points="186.76,884.977 2352.76,884.977 "/>
<polyline clip-path="url(#clip722)" style="stroke:#000000; stroke-linecap:round; stroke-linejoin:round; stroke-width:2; stroke-opacity:0.05; fill:none" points="186.76,851.894 2352.76,851.894 "/>
<polyline clip-path="url(#clip722)" style="stroke:#000000; stroke-linecap:round; stroke-linejoin:round; stroke-width:2; stroke-opacity:0.05; fill:none" points="186.76,818.811 2352.76,818.811 "/>
<polyline clip-path="url(#clip722)" style="stroke:#000000; stroke-linecap:round; stroke-linejoin:round; stroke-width:2; stroke-opacity:0.05; fill:none" points="186.76,752.646 2352.76,752.646 "/>
<polyline clip-path="url(#clip722)" style="stroke:#000000; stroke-linecap:round; stroke-linejoin:round; stroke-width:2; stroke-opacity:0.05; fill:none" points="186.76,719.563 2352.76,719.563 "/>
<polyline clip-path="url(#clip722)" style="stroke:#000000; stroke-linecap:round; stroke-linejoin:round; stroke-width:2; stroke-opacity:0.05; fill:none" points="186.76,686.48 2352.76,686.48 "/>
<polyline clip-path="url(#clip722)" style="stroke:#000000; stroke-linecap:round; stroke-linejoin:round; stroke-width:2; stroke-opacity:0.05; fill:none" points="186.76,653.397 2352.76,653.397 "/>
<polyline clip-path="url(#clip722)" style="stroke:#000000; stroke-linecap:round; stroke-linejoin:round; stroke-width:2; stroke-opacity:0.05; fill:none" points="186.76,620.314 2352.76,620.314 "/>
<polyline clip-path="url(#clip722)" style="stroke:#000000; stroke-linecap:round; stroke-linejoin:round; stroke-width:2; stroke-opacity:0.05; fill:none" points="186.76,587.232 2352.76,587.232 "/>
<polyline clip-path="url(#clip722)" style="stroke:#000000; stroke-linecap:round; stroke-linejoin:round; stroke-width:2; stroke-opacity:0.05; fill:none" points="186.76,554.149 2352.76,554.149 "/>
<polyline clip-path="url(#clip722)" style="stroke:#000000; stroke-linecap:round; stroke-linejoin:round; stroke-width:2; stroke-opacity:0.05; fill:none" points="186.76,521.066 2352.76,521.066 "/>
<polyline clip-path="url(#clip722)" style="stroke:#000000; stroke-linecap:round; stroke-linejoin:round; stroke-width:2; stroke-opacity:0.05; fill:none" points="186.76,487.983 2352.76,487.983 "/>
<polyline clip-path="url(#clip722)" style="stroke:#000000; stroke-linecap:round; stroke-linejoin:round; stroke-width:2; stroke-opacity:0.05; fill:none" points="186.76,421.818 2352.76,421.818 "/>
<polyline clip-path="url(#clip722)" style="stroke:#000000; stroke-linecap:round; stroke-linejoin:round; stroke-width:2; stroke-opacity:0.05; fill:none" points="186.76,388.735 2352.76,388.735 "/>
<polyline clip-path="url(#clip722)" style="stroke:#000000; stroke-linecap:round; stroke-linejoin:round; stroke-width:2; stroke-opacity:0.05; fill:none" points="186.76,355.652 2352.76,355.652 "/>
<polyline clip-path="url(#clip722)" style="stroke:#000000; stroke-linecap:round; stroke-linejoin:round; stroke-width:2; stroke-opacity:0.05; fill:none" points="186.76,322.569 2352.76,322.569 "/>
<polyline clip-path="url(#clip722)" style="stroke:#000000; stroke-linecap:round; stroke-linejoin:round; stroke-width:2; stroke-opacity:0.05; fill:none" points="186.76,289.487 2352.76,289.487 "/>
<polyline clip-path="url(#clip722)" style="stroke:#000000; stroke-linecap:round; stroke-linejoin:round; stroke-width:2; stroke-opacity:0.05; fill:none" points="186.76,256.404 2352.76,256.404 "/>
<polyline clip-path="url(#clip722)" style="stroke:#000000; stroke-linecap:round; stroke-linejoin:round; stroke-width:2; stroke-opacity:0.05; fill:none" points="186.76,223.321 2352.76,223.321 "/>
<polyline clip-path="url(#clip722)" style="stroke:#000000; stroke-linecap:round; stroke-linejoin:round; stroke-width:2; stroke-opacity:0.05; fill:none" points="186.76,190.238 2352.76,190.238 "/>
<polyline clip-path="url(#clip722)" style="stroke:#000000; stroke-linecap:round; stroke-linejoin:round; stroke-width:2; stroke-opacity:0.05; fill:none" points="186.76,157.155 2352.76,157.155 "/>
<polyline clip-path="url(#clip720)" style="stroke:#000000; stroke-linecap:round; stroke-linejoin:round; stroke-width:4; stroke-opacity:1; fill:none" points="186.76,1486.45 186.76,106.192 "/>
<polyline clip-path="url(#clip720)" style="stroke:#000000; stroke-linecap:round; stroke-linejoin:round; stroke-width:4; stroke-opacity:1; fill:none" points="186.76,1447.38 205.658,1447.38 "/>
<polyline clip-path="url(#clip720)" style="stroke:#000000; stroke-linecap:round; stroke-linejoin:round; stroke-width:4; stroke-opacity:1; fill:none" points="186.76,1116.56 205.658,1116.56 "/>
<polyline clip-path="url(#clip720)" style="stroke:#000000; stroke-linecap:round; stroke-linejoin:round; stroke-width:4; stroke-opacity:1; fill:none" points="186.76,785.728 205.658,785.728 "/>
<polyline clip-path="url(#clip720)" style="stroke:#000000; stroke-linecap:round; stroke-linejoin:round; stroke-width:4; stroke-opacity:1; fill:none" points="186.76,454.9 205.658,454.9 "/>
<polyline clip-path="url(#clip720)" style="stroke:#000000; stroke-linecap:round; stroke-linejoin:round; stroke-width:4; stroke-opacity:1; fill:none" points="186.76,124.073 205.658,124.073 "/>
<polyline clip-path="url(#clip720)" style="stroke:#000000; stroke-linecap:round; stroke-linejoin:round; stroke-width:4; stroke-opacity:1; fill:none" points="186.76,1480.47 196.209,1480.47 "/>
<polyline clip-path="url(#clip720)" style="stroke:#000000; stroke-linecap:round; stroke-linejoin:round; stroke-width:4; stroke-opacity:1; fill:none" points="186.76,1414.3 196.209,1414.3 "/>
<polyline clip-path="url(#clip720)" style="stroke:#000000; stroke-linecap:round; stroke-linejoin:round; stroke-width:4; stroke-opacity:1; fill:none" points="186.76,1381.22 196.209,1381.22 "/>
<polyline clip-path="url(#clip720)" style="stroke:#000000; stroke-linecap:round; stroke-linejoin:round; stroke-width:4; stroke-opacity:1; fill:none" points="186.76,1348.14 196.209,1348.14 "/>
<polyline clip-path="url(#clip720)" style="stroke:#000000; stroke-linecap:round; stroke-linejoin:round; stroke-width:4; stroke-opacity:1; fill:none" points="186.76,1315.05 196.209,1315.05 "/>
<polyline clip-path="url(#clip720)" style="stroke:#000000; stroke-linecap:round; stroke-linejoin:round; stroke-width:4; stroke-opacity:1; fill:none" points="186.76,1281.97 196.209,1281.97 "/>
<polyline clip-path="url(#clip720)" style="stroke:#000000; stroke-linecap:round; stroke-linejoin:round; stroke-width:4; stroke-opacity:1; fill:none" points="186.76,1248.89 196.209,1248.89 "/>
<polyline clip-path="url(#clip720)" style="stroke:#000000; stroke-linecap:round; stroke-linejoin:round; stroke-width:4; stroke-opacity:1; fill:none" points="186.76,1215.8 196.209,1215.8 "/>
<polyline clip-path="url(#clip720)" style="stroke:#000000; stroke-linecap:round; stroke-linejoin:round; stroke-width:4; stroke-opacity:1; fill:none" points="186.76,1182.72 196.209,1182.72 "/>
<polyline clip-path="url(#clip720)" style="stroke:#000000; stroke-linecap:round; stroke-linejoin:round; stroke-width:4; stroke-opacity:1; fill:none" points="186.76,1149.64 196.209,1149.64 "/>
<polyline clip-path="url(#clip720)" style="stroke:#000000; stroke-linecap:round; stroke-linejoin:round; stroke-width:4; stroke-opacity:1; fill:none" points="186.76,1083.47 196.209,1083.47 "/>
<polyline clip-path="url(#clip720)" style="stroke:#000000; stroke-linecap:round; stroke-linejoin:round; stroke-width:4; stroke-opacity:1; fill:none" points="186.76,1050.39 196.209,1050.39 "/>
<polyline clip-path="url(#clip720)" style="stroke:#000000; stroke-linecap:round; stroke-linejoin:round; stroke-width:4; stroke-opacity:1; fill:none" points="186.76,1017.31 196.209,1017.31 "/>
<polyline clip-path="url(#clip720)" style="stroke:#000000; stroke-linecap:round; stroke-linejoin:round; stroke-width:4; stroke-opacity:1; fill:none" points="186.76,984.225 196.209,984.225 "/>
<polyline clip-path="url(#clip720)" style="stroke:#000000; stroke-linecap:round; stroke-linejoin:round; stroke-width:4; stroke-opacity:1; fill:none" points="186.76,951.142 196.209,951.142 "/>
<polyline clip-path="url(#clip720)" style="stroke:#000000; stroke-linecap:round; stroke-linejoin:round; stroke-width:4; stroke-opacity:1; fill:none" points="186.76,918.059 196.209,918.059 "/>
<polyline clip-path="url(#clip720)" style="stroke:#000000; stroke-linecap:round; stroke-linejoin:round; stroke-width:4; stroke-opacity:1; fill:none" points="186.76,884.977 196.209,884.977 "/>
<polyline clip-path="url(#clip720)" style="stroke:#000000; stroke-linecap:round; stroke-linejoin:round; stroke-width:4; stroke-opacity:1; fill:none" points="186.76,851.894 196.209,851.894 "/>
<polyline clip-path="url(#clip720)" style="stroke:#000000; stroke-linecap:round; stroke-linejoin:round; stroke-width:4; stroke-opacity:1; fill:none" points="186.76,818.811 196.209,818.811 "/>
<polyline clip-path="url(#clip720)" style="stroke:#000000; stroke-linecap:round; stroke-linejoin:round; stroke-width:4; stroke-opacity:1; fill:none" points="186.76,752.646 196.209,752.646 "/>
<polyline clip-path="url(#clip720)" style="stroke:#000000; stroke-linecap:round; stroke-linejoin:round; stroke-width:4; stroke-opacity:1; fill:none" points="186.76,719.563 196.209,719.563 "/>
<polyline clip-path="url(#clip720)" style="stroke:#000000; stroke-linecap:round; stroke-linejoin:round; stroke-width:4; stroke-opacity:1; fill:none" points="186.76,686.48 196.209,686.48 "/>
<polyline clip-path="url(#clip720)" style="stroke:#000000; stroke-linecap:round; stroke-linejoin:round; stroke-width:4; stroke-opacity:1; fill:none" points="186.76,653.397 196.209,653.397 "/>
<polyline clip-path="url(#clip720)" style="stroke:#000000; stroke-linecap:round; stroke-linejoin:round; stroke-width:4; stroke-opacity:1; fill:none" points="186.76,620.314 196.209,620.314 "/>
<polyline clip-path="url(#clip720)" style="stroke:#000000; stroke-linecap:round; stroke-linejoin:round; stroke-width:4; stroke-opacity:1; fill:none" points="186.76,587.232 196.209,587.232 "/>
<polyline clip-path="url(#clip720)" style="stroke:#000000; stroke-linecap:round; stroke-linejoin:round; stroke-width:4; stroke-opacity:1; fill:none" points="186.76,554.149 196.209,554.149 "/>
<polyline clip-path="url(#clip720)" style="stroke:#000000; stroke-linecap:round; stroke-linejoin:round; stroke-width:4; stroke-opacity:1; fill:none" points="186.76,521.066 196.209,521.066 "/>
<polyline clip-path="url(#clip720)" style="stroke:#000000; stroke-linecap:round; stroke-linejoin:round; stroke-width:4; stroke-opacity:1; fill:none" points="186.76,487.983 196.209,487.983 "/>
<polyline clip-path="url(#clip720)" style="stroke:#000000; stroke-linecap:round; stroke-linejoin:round; stroke-width:4; stroke-opacity:1; fill:none" points="186.76,421.818 196.209,421.818 "/>
<polyline clip-path="url(#clip720)" style="stroke:#000000; stroke-linecap:round; stroke-linejoin:round; stroke-width:4; stroke-opacity:1; fill:none" points="186.76,388.735 196.209,388.735 "/>
<polyline clip-path="url(#clip720)" style="stroke:#000000; stroke-linecap:round; stroke-linejoin:round; stroke-width:4; stroke-opacity:1; fill:none" points="186.76,355.652 196.209,355.652 "/>
<polyline clip-path="url(#clip720)" style="stroke:#000000; stroke-linecap:round; stroke-linejoin:round; stroke-width:4; stroke-opacity:1; fill:none" points="186.76,322.569 196.209,322.569 "/>
<polyline clip-path="url(#clip720)" style="stroke:#000000; stroke-linecap:round; stroke-linejoin:round; stroke-width:4; stroke-opacity:1; fill:none" points="186.76,289.487 196.209,289.487 "/>
<polyline clip-path="url(#clip720)" style="stroke:#000000; stroke-linecap:round; stroke-linejoin:round; stroke-width:4; stroke-opacity:1; fill:none" points="186.76,256.404 196.209,256.404 "/>
<polyline clip-path="url(#clip720)" style="stroke:#000000; stroke-linecap:round; stroke-linejoin:round; stroke-width:4; stroke-opacity:1; fill:none" points="186.76,223.321 196.209,223.321 "/>
<polyline clip-path="url(#clip720)" style="stroke:#000000; stroke-linecap:round; stroke-linejoin:round; stroke-width:4; stroke-opacity:1; fill:none" points="186.76,190.238 196.209,190.238 "/>
<polyline clip-path="url(#clip720)" style="stroke:#000000; stroke-linecap:round; stroke-linejoin:round; stroke-width:4; stroke-opacity:1; fill:none" points="186.76,157.155 196.209,157.155 "/>
<path clip-path="url(#clip720)" d="M63.4226 1433.18 Q59.8115 1433.18 57.9828 1436.75 Q56.1773 1440.29 56.1773 1447.42 Q56.1773 1454.53 57.9828 1458.09 Q59.8115 1461.63 63.4226 1461.63 Q67.0569 1461.63 68.8624 1458.09 Q70.6911 1454.53 70.6911 1447.42 Q70.6911 1440.29 68.8624 1436.75 Q67.0569 1433.18 63.4226 1433.18 M63.4226 1429.48 Q69.2328 1429.48 72.2883 1434.09 Q75.367 1438.67 75.367 1447.42 Q75.367 1456.15 72.2883 1460.75 Q69.2328 1465.34 63.4226 1465.34 Q57.6125 1465.34 54.5338 1460.75 Q51.4782 1456.15 51.4782 1447.42 Q51.4782 1438.67 54.5338 1434.09 Q57.6125 1429.48 63.4226 1429.48 Z" fill="#000000" fill-rule="nonzero" fill-opacity="1" /><path clip-path="url(#clip720)" d="M83.5845 1458.78 L88.4688 1458.78 L88.4688 1464.66 L83.5845 1464.66 L83.5845 1458.78 Z" fill="#000000" fill-rule="nonzero" fill-opacity="1" /><path clip-path="url(#clip720)" d="M108.654 1433.18 Q105.043 1433.18 103.214 1436.75 Q101.409 1440.29 101.409 1447.42 Q101.409 1454.53 103.214 1458.09 Q105.043 1461.63 108.654 1461.63 Q112.288 1461.63 114.094 1458.09 Q115.922 1454.53 115.922 1447.42 Q115.922 1440.29 114.094 1436.75 Q112.288 1433.18 108.654 1433.18 M108.654 1429.48 Q114.464 1429.48 117.52 1434.09 Q120.598 1438.67 120.598 1447.42 Q120.598 1456.15 117.52 1460.75 Q114.464 1465.34 108.654 1465.34 Q102.844 1465.34 99.765 1460.75 Q96.7095 1456.15 96.7095 1447.42 Q96.7095 1438.67 99.765 1434.09 Q102.844 1429.48 108.654 1429.48 Z" fill="#000000" fill-rule="nonzero" fill-opacity="1" /><path clip-path="url(#clip720)" d="M138.816 1433.18 Q135.205 1433.18 133.376 1436.75 Q131.57 1440.29 131.57 1447.42 Q131.57 1454.53 133.376 1458.09 Q135.205 1461.63 138.816 1461.63 Q142.45 1461.63 144.256 1458.09 Q146.084 1454.53 146.084 1447.42 Q146.084 1440.29 144.256 1436.75 Q142.45 1433.18 138.816 1433.18 M138.816 1429.48 Q144.626 1429.48 147.681 1434.09 Q150.76 1438.67 150.76 1447.42 Q150.76 1456.15 147.681 1460.75 Q144.626 1465.34 138.816 1465.34 Q133.006 1465.34 129.927 1460.75 Q126.871 1456.15 126.871 1447.42 Q126.871 1438.67 129.927 1434.09 Q133.006 1429.48 138.816 1429.48 Z" fill="#000000" fill-rule="nonzero" fill-opacity="1" /><path clip-path="url(#clip720)" d="M64.6495 1102.35 Q61.0384 1102.35 59.2097 1105.92 Q57.4041 1109.46 57.4041 1116.59 Q57.4041 1123.7 59.2097 1127.26 Q61.0384 1130.8 64.6495 1130.8 Q68.2837 1130.8 70.0892 1127.26 Q71.9179 1123.7 71.9179 1116.59 Q71.9179 1109.46 70.0892 1105.92 Q68.2837 1102.35 64.6495 1102.35 M64.6495 1098.65 Q70.4596 1098.65 73.5152 1103.26 Q76.5938 1107.84 76.5938 1116.59 Q76.5938 1125.32 73.5152 1129.92 Q70.4596 1134.51 64.6495 1134.51 Q58.8393 1134.51 55.7606 1129.92 Q52.7051 1125.32 52.7051 1116.59 Q52.7051 1107.84 55.7606 1103.26 Q58.8393 1098.65 64.6495 1098.65 Z" fill="#000000" fill-rule="nonzero" fill-opacity="1" /><path clip-path="url(#clip720)" d="M84.8114 1127.96 L89.6956 1127.96 L89.6956 1133.84 L84.8114 1133.84 L84.8114 1127.96 Z" fill="#000000" fill-rule="nonzero" fill-opacity="1" /><path clip-path="url(#clip720)" d="M109.881 1102.35 Q106.27 1102.35 104.441 1105.92 Q102.635 1109.46 102.635 1116.59 Q102.635 1123.7 104.441 1127.26 Q106.27 1130.8 109.881 1130.8 Q113.515 1130.8 115.32 1127.26 Q117.149 1123.7 117.149 1116.59 Q117.149 1109.46 115.32 1105.92 Q113.515 1102.35 109.881 1102.35 M109.881 1098.65 Q115.691 1098.65 118.746 1103.26 Q121.825 1107.84 121.825 1116.59 Q121.825 1125.32 118.746 1129.92 Q115.691 1134.51 109.881 1134.51 Q104.071 1134.51 100.992 1129.92 Q97.9363 1125.32 97.9363 1116.59 Q97.9363 1107.84 100.992 1103.26 Q104.071 1098.65 109.881 1098.65 Z" fill="#000000" fill-rule="nonzero" fill-opacity="1" /><path clip-path="url(#clip720)" d="M130.853 1129.9 L138.492 1129.9 L138.492 1103.54 L130.182 1105.2 L130.182 1100.94 L138.445 1099.28 L143.121 1099.28 L143.121 1129.9 L150.76 1129.9 L150.76 1133.84 L130.853 1133.84 L130.853 1129.9 Z" fill="#000000" fill-rule="nonzero" fill-opacity="1" /><path clip-path="url(#clip720)" d="M65.0198 771.527 Q61.4087 771.527 59.58 775.092 Q57.7745 778.633 57.7745 785.763 Q57.7745 792.869 59.58 796.434 Q61.4087 799.976 65.0198 799.976 Q68.6541 799.976 70.4596 796.434 Q72.2883 792.869 72.2883 785.763 Q72.2883 778.633 70.4596 775.092 Q68.6541 771.527 65.0198 771.527 M65.0198 767.823 Q70.83 767.823 73.8855 772.43 Q76.9642 777.013 76.9642 785.763 Q76.9642 794.49 73.8855 799.096 Q70.83 803.68 65.0198 803.68 Q59.2097 803.68 56.131 799.096 Q53.0754 794.49 53.0754 785.763 Q53.0754 777.013 56.131 772.43 Q59.2097 767.823 65.0198 767.823 Z" fill="#000000" fill-rule="nonzero" fill-opacity="1" /><path clip-path="url(#clip720)" d="M85.1818 797.129 L90.066 797.129 L90.066 803.008 L85.1818 803.008 L85.1818 797.129 Z" fill="#000000" fill-rule="nonzero" fill-opacity="1" /><path clip-path="url(#clip720)" d="M110.251 771.527 Q106.64 771.527 104.811 775.092 Q103.006 778.633 103.006 785.763 Q103.006 792.869 104.811 796.434 Q106.64 799.976 110.251 799.976 Q113.885 799.976 115.691 796.434 Q117.52 792.869 117.52 785.763 Q117.52 778.633 115.691 775.092 Q113.885 771.527 110.251 771.527 M110.251 767.823 Q116.061 767.823 119.117 772.43 Q122.195 777.013 122.195 785.763 Q122.195 794.49 119.117 799.096 Q116.061 803.68 110.251 803.68 Q104.441 803.68 101.362 799.096 Q98.3067 794.49 98.3067 785.763 Q98.3067 777.013 101.362 772.43 Q104.441 767.823 110.251 767.823 Z" fill="#000000" fill-rule="nonzero" fill-opacity="1" /><path clip-path="url(#clip720)" d="M134.441 799.073 L150.76 799.073 L150.76 803.008 L128.816 803.008 L128.816 799.073 Q131.478 796.319 136.061 791.689 Q140.668 787.036 141.848 785.694 Q144.093 783.17 144.973 781.434 Q145.876 779.675 145.876 777.985 Q145.876 775.231 143.931 773.495 Q142.01 771.758 138.908 771.758 Q136.709 771.758 134.256 772.522 Q131.825 773.286 129.047 774.837 L129.047 770.115 Q131.871 768.981 134.325 768.402 Q136.779 767.823 138.816 767.823 Q144.186 767.823 147.38 770.508 Q150.575 773.194 150.575 777.684 Q150.575 779.814 149.765 781.735 Q148.978 783.633 146.871 786.226 Q146.293 786.897 143.191 790.115 Q140.089 793.309 134.441 799.073 Z" fill="#000000" fill-rule="nonzero" fill-opacity="1" /><path clip-path="url(#clip720)" d="M64.0708 440.699 Q60.4597 440.699 58.631 444.264 Q56.8254 447.806 56.8254 454.935 Q56.8254 462.042 58.631 465.606 Q60.4597 469.148 64.0708 469.148 Q67.705 469.148 69.5105 465.606 Q71.3392 462.042 71.3392 454.935 Q71.3392 447.806 69.5105 444.264 Q67.705 440.699 64.0708 440.699 M64.0708 436.995 Q69.8809 436.995 72.9365 441.602 Q76.0151 446.185 76.0151 454.935 Q76.0151 463.662 72.9365 468.268 Q69.8809 472.852 64.0708 472.852 Q58.2606 472.852 55.1819 468.268 Q52.1264 463.662 52.1264 454.935 Q52.1264 446.185 55.1819 441.602 Q58.2606 436.995 64.0708 436.995 Z" fill="#000000" fill-rule="nonzero" fill-opacity="1" /><path clip-path="url(#clip720)" d="M84.2327 466.301 L89.1169 466.301 L89.1169 472.18 L84.2327 472.18 L84.2327 466.301 Z" fill="#000000" fill-rule="nonzero" fill-opacity="1" /><path clip-path="url(#clip720)" d="M109.302 440.699 Q105.691 440.699 103.862 444.264 Q102.057 447.806 102.057 454.935 Q102.057 462.042 103.862 465.606 Q105.691 469.148 109.302 469.148 Q112.936 469.148 114.742 465.606 Q116.57 462.042 116.57 454.935 Q116.57 447.806 114.742 444.264 Q112.936 440.699 109.302 440.699 M109.302 436.995 Q115.112 436.995 118.168 441.602 Q121.246 446.185 121.246 454.935 Q121.246 463.662 118.168 468.268 Q115.112 472.852 109.302 472.852 Q103.492 472.852 100.413 468.268 Q97.3576 463.662 97.3576 454.935 Q97.3576 446.185 100.413 441.602 Q103.492 436.995 109.302 436.995 Z" fill="#000000" fill-rule="nonzero" fill-opacity="1" /><path clip-path="url(#clip720)" d="M143.631 453.546 Q146.987 454.264 148.862 456.532 Q150.76 458.801 150.76 462.134 Q150.76 467.25 147.242 470.051 Q143.723 472.852 137.242 472.852 Q135.066 472.852 132.751 472.412 Q130.459 471.995 128.006 471.139 L128.006 466.625 Q129.95 467.759 132.265 468.338 Q134.58 468.917 137.103 468.917 Q141.501 468.917 143.793 467.18 Q146.107 465.444 146.107 462.134 Q146.107 459.079 143.955 457.366 Q141.825 455.63 138.006 455.63 L133.978 455.63 L133.978 451.787 L138.191 451.787 Q141.64 451.787 143.468 450.421 Q145.297 449.032 145.297 446.44 Q145.297 443.778 143.399 442.366 Q141.524 440.931 138.006 440.931 Q136.084 440.931 133.885 441.347 Q131.686 441.764 129.047 442.644 L129.047 438.477 Q131.709 437.736 134.024 437.366 Q136.362 436.995 138.422 436.995 Q143.746 436.995 146.848 439.426 Q149.95 441.833 149.95 445.954 Q149.95 448.824 148.306 450.815 Q146.663 452.782 143.631 453.546 Z" fill="#000000" fill-rule="nonzero" fill-opacity="1" /><path clip-path="url(#clip720)" d="M62.9365 109.871 Q59.3254 109.871 57.4967 113.436 Q55.6912 116.978 55.6912 124.107 Q55.6912 131.214 57.4967 134.779 Q59.3254 138.32 62.9365 138.32 Q66.5707 138.32 68.3763 134.779 Q70.205 131.214 70.205 124.107 Q70.205 116.978 68.3763 113.436 Q66.5707 109.871 62.9365 109.871 M62.9365 106.168 Q68.7467 106.168 71.8022 110.774 Q74.8809 115.357 74.8809 124.107 Q74.8809 132.834 71.8022 137.441 Q68.7467 142.024 62.9365 142.024 Q57.1264 142.024 54.0477 137.441 Q50.9921 132.834 50.9921 124.107 Q50.9921 115.357 54.0477 110.774 Q57.1264 106.168 62.9365 106.168 Z" fill="#000000" fill-rule="nonzero" fill-opacity="1" /><path clip-path="url(#clip720)" d="M83.0984 135.473 L87.9827 135.473 L87.9827 141.353 L83.0984 141.353 L83.0984 135.473 Z" fill="#000000" fill-rule="nonzero" fill-opacity="1" /><path clip-path="url(#clip720)" d="M108.168 109.871 Q104.557 109.871 102.728 113.436 Q100.922 116.978 100.922 124.107 Q100.922 131.214 102.728 134.779 Q104.557 138.32 108.168 138.32 Q111.802 138.32 113.608 134.779 Q115.436 131.214 115.436 124.107 Q115.436 116.978 113.608 113.436 Q111.802 109.871 108.168 109.871 M108.168 106.168 Q113.978 106.168 117.033 110.774 Q120.112 115.357 120.112 124.107 Q120.112 132.834 117.033 137.441 Q113.978 142.024 108.168 142.024 Q102.358 142.024 99.2789 137.441 Q96.2234 132.834 96.2234 124.107 Q96.2234 115.357 99.2789 110.774 Q102.358 106.168 108.168 106.168 Z" fill="#000000" fill-rule="nonzero" fill-opacity="1" /><path clip-path="url(#clip720)" d="M141.177 110.867 L129.371 129.316 L141.177 129.316 L141.177 110.867 M139.95 106.793 L145.83 106.793 L145.83 129.316 L150.76 129.316 L150.76 133.204 L145.83 133.204 L145.83 141.353 L141.177 141.353 L141.177 133.204 L125.575 133.204 L125.575 128.691 L139.95 106.793 Z" fill="#000000" fill-rule="nonzero" fill-opacity="1" /><path clip-path="url(#clip720)" d="M436.675 8.64 L442.52 8.64 L442.52 26.898 L461.906 8.64 L469.43 8.64 L447.989 28.7788 L470.963 51.84 L463.266 51.84 L442.52 31.0357 L442.52 51.84 L436.675 51.84 L436.675 8.64 Z" fill="#000000" fill-rule="nonzero" fill-opacity="1" /><path clip-path="url(#clip720)" d="M488.99 35.5496 Q482.537 35.5496 480.049 37.0253 Q477.56 38.501 477.56 42.06 Q477.56 44.8956 479.412 46.5738 Q481.293 48.2231 484.505 48.2231 Q488.932 48.2231 491.594 45.0981 Q494.285 41.9442 494.285 36.7359 L494.285 35.5496 L488.99 35.5496 M499.609 33.3505 L499.609 51.84 L494.285 51.84 L494.285 46.921 Q492.462 49.8724 489.742 51.2902 Q487.022 52.6791 483.087 52.6791 Q478.11 52.6791 475.159 49.9014 Q472.236 47.0947 472.236 42.4072 Q472.236 36.9385 475.882 34.1607 Q479.557 31.3829 486.819 31.3829 L494.285 31.3829 L494.285 30.8621 Q494.285 27.1874 491.854 25.1908 Q489.453 23.1654 485.083 23.1654 Q482.306 23.1654 479.673 23.8309 Q477.039 24.4964 474.609 25.8274 L474.609 20.9085 Q477.531 19.78 480.28 19.2302 Q483.029 18.6515 485.633 18.6515 Q492.664 18.6515 496.137 22.2973 Q499.609 25.9431 499.609 33.3505 Z" fill="#000000" fill-rule="nonzero" fill-opacity="1" /><path clip-path="url(#clip720)" d="M531.9 35.2602 Q531.9 29.4732 529.499 26.2904 Q527.126 23.1075 522.815 23.1075 Q518.532 23.1075 516.131 26.2904 Q513.758 29.4732 513.758 35.2602 Q513.758 41.0183 516.131 44.2012 Q518.532 47.384 522.815 47.384 Q527.126 47.384 529.499 44.2012 Q531.9 41.0183 531.9 35.2602 M537.224 47.818 Q537.224 56.0934 533.55 60.1154 Q529.875 64.1663 522.294 64.1663 Q519.487 64.1663 516.999 63.7323 Q514.51 63.3272 512.167 62.4592 L512.167 57.2798 Q514.51 58.5529 516.796 59.1606 Q519.082 59.7682 521.455 59.7682 Q526.692 59.7682 529.296 57.0194 Q531.9 54.2995 531.9 48.7729 L531.9 46.1398 Q530.251 49.0044 527.676 50.4222 Q525.101 51.84 521.513 51.84 Q515.552 51.84 511.906 47.2972 Q508.26 42.7544 508.26 35.2602 Q508.26 27.7371 511.906 23.1943 Q515.552 18.6515 521.513 18.6515 Q525.101 18.6515 527.676 20.0693 Q530.251 21.4872 531.9 24.3517 L531.9 19.4328 L537.224 19.4328 L537.224 47.818 Z" fill="#000000" fill-rule="nonzero" fill-opacity="1" /><path clip-path="url(#clip720)" d="M560.748 23.1654 Q556.466 23.1654 553.978 26.5218 Q551.489 29.8494 551.489 35.6653 Q551.489 41.4813 553.949 44.8377 Q556.437 48.1653 560.748 48.1653 Q565.002 48.1653 567.49 44.8088 Q569.979 41.4523 569.979 35.6653 Q569.979 29.9072 567.49 26.5508 Q565.002 23.1654 560.748 23.1654 M560.748 18.6515 Q567.693 18.6515 571.657 23.1654 Q575.621 27.6792 575.621 35.6653 Q575.621 43.6225 571.657 48.1653 Q567.693 52.6791 560.748 52.6791 Q553.775 52.6791 549.811 48.1653 Q545.876 43.6225 545.876 35.6653 Q545.876 27.6792 549.811 23.1654 Q553.775 18.6515 560.748 18.6515 Z" fill="#000000" fill-rule="nonzero" fill-opacity="1" /><path clip-path="url(#clip720)" d="M609.678 25.6538 Q611.674 22.0659 614.452 20.3587 Q617.23 18.6515 620.991 18.6515 Q626.055 18.6515 628.804 22.2105 Q631.553 25.7406 631.553 32.2799 L631.553 51.84 L626.2 51.84 L626.2 32.4535 Q626.2 27.795 624.55 25.5381 Q622.901 23.2811 619.516 23.2811 Q615.378 23.2811 612.976 26.03 Q610.575 28.7788 610.575 33.5241 L610.575 51.84 L605.222 51.84 L605.222 32.4535 Q605.222 27.7661 603.572 25.5381 Q601.923 23.2811 598.48 23.2811 Q594.4 23.2811 591.998 26.0589 Q589.597 28.8077 589.597 33.5241 L589.597 51.84 L584.244 51.84 L584.244 19.4328 L589.597 19.4328 L589.597 24.4675 Q591.42 21.4872 593.966 20.0693 Q596.512 18.6515 600.013 18.6515 Q603.543 18.6515 606.003 20.4455 Q608.491 22.2395 609.678 25.6538 Z" fill="#000000" fill-rule="nonzero" fill-opacity="1" /><path clip-path="url(#clip720)" d="M669.891 34.3054 L669.891 36.9095 L645.412 36.9095 Q645.76 42.4072 648.711 45.3007 Q651.691 48.1653 656.986 48.1653 Q660.054 48.1653 662.918 47.4129 Q665.812 46.6606 668.647 45.156 L668.647 50.1907 Q665.783 51.406 662.773 52.0425 Q659.764 52.6791 656.668 52.6791 Q648.914 52.6791 644.371 48.1653 Q639.857 43.6514 639.857 35.9547 Q639.857 27.9975 644.139 23.339 Q648.451 18.6515 655.742 18.6515 Q662.282 18.6515 666.072 22.876 Q669.891 27.0716 669.891 34.3054 M664.567 32.7429 Q664.51 28.3737 662.108 25.7695 Q659.735 23.1654 655.8 23.1654 Q651.344 23.1654 648.653 25.6827 Q645.991 28.2001 645.586 32.7718 L664.567 32.7429 Z" fill="#000000" fill-rule="nonzero" fill-opacity="1" /><path clip-path="url(#clip720)" d="M691.419 6.87496 Q687.542 13.53 685.661 20.0404 Q683.78 26.5508 683.78 33.2348 Q683.78 39.9188 685.661 46.487 Q687.571 53.0263 691.419 59.6525 L686.789 59.6525 Q682.449 52.8527 680.279 46.2845 Q678.138 39.7162 678.138 33.2348 Q678.138 26.7823 680.279 20.2429 Q682.42 13.7036 686.789 6.87496 L691.419 6.87496 Z" fill="#000000" fill-rule="nonzero" fill-opacity="1" /><path clip-path="url(#clip720)" d="M695.991 8.64 L732.536 8.64 L732.536 13.559 L717.2 13.559 L717.2 51.84 L711.326 51.84 L711.326 13.559 L695.991 13.559 L695.991 8.64 Z" fill="#000000" fill-rule="nonzero" fill-opacity="1" /><path clip-path="url(#clip720)" d="M744.023 31.2093 L744.023 47.0368 L753.398 47.0368 Q758.114 47.0368 760.371 45.0981 Q762.657 43.1306 762.657 39.1086 Q762.657 35.0577 760.371 33.148 Q758.114 31.2093 753.398 31.2093 L744.023 31.2093 M744.023 13.4432 L744.023 26.464 L752.675 26.464 Q756.957 26.464 759.04 24.8726 Q761.153 23.2522 761.153 19.9536 Q761.153 16.6839 759.04 15.0636 Q756.957 13.4432 752.675 13.4432 L744.023 13.4432 M738.178 8.64 L753.109 8.64 Q759.793 8.64 763.409 11.4178 Q767.026 14.1955 767.026 19.317 Q767.026 23.2811 765.174 25.6249 Q763.323 27.9686 759.735 28.5473 Q764.046 29.4732 766.419 32.4246 Q768.82 35.347 768.82 39.7452 Q768.82 45.5322 764.885 48.6861 Q760.95 51.84 753.687 51.84 L738.178 51.84 L738.178 8.64 Z" fill="#000000" fill-rule="nonzero" fill-opacity="1" /><path clip-path="url(#clip720)" d="M793.27 14.3981 L785.342 35.8968 L801.228 35.8968 L793.27 14.3981 M789.972 8.64 L796.598 8.64 L813.062 51.84 L806.986 51.84 L803.05 40.7579 L783.577 40.7579 L779.642 51.84 L773.479 51.84 L789.972 8.64 Z" fill="#000000" fill-rule="nonzero" fill-opacity="1" /><path clip-path="url(#clip720)" d="M818.299 6.87496 L822.929 6.87496 Q827.269 13.7036 829.41 20.2429 Q831.58 26.7823 831.58 33.2348 Q831.58 39.7162 829.41 46.2845 Q827.269 52.8527 822.929 59.6525 L818.299 59.6525 Q822.148 53.0263 824.028 46.487 Q825.938 39.9188 825.938 33.2348 Q825.938 26.5508 824.028 20.0404 Q822.148 13.53 818.299 6.87496 Z" fill="#000000" fill-rule="nonzero" fill-opacity="1" /><path clip-path="url(#clip720)" d="M839.566 33.2348 L855.162 33.2348 L855.162 37.9801 L839.566 37.9801 L839.566 33.2348 Z" fill="#000000" fill-rule="nonzero" fill-opacity="1" /><path clip-path="url(#clip720)" d="M868.907 10.2314 L868.907 19.4328 L879.873 19.4328 L879.873 23.5705 L868.907 23.5705 L868.907 41.163 Q868.907 45.1271 869.977 46.2555 Q871.077 47.384 874.404 47.384 L879.873 47.384 L879.873 51.84 L874.404 51.84 Q868.241 51.84 865.897 49.5541 Q863.554 47.2393 863.554 41.163 L863.554 23.5705 L859.647 23.5705 L859.647 19.4328 L863.554 19.4328 L863.554 10.2314 L868.907 10.2314 Z" fill="#000000" fill-rule="nonzero" fill-opacity="1" /><path clip-path="url(#clip720)" d="M899.665 6.87496 Q895.787 13.53 893.906 20.0404 Q892.026 26.5508 892.026 33.2348 Q892.026 39.9188 893.906 46.487 Q895.816 53.0263 899.665 59.6525 L895.035 59.6525 Q890.695 52.8527 888.525 46.2845 Q886.383 39.7162 886.383 33.2348 Q886.383 26.7823 888.525 20.2429 Q890.666 13.7036 895.035 6.87496 L899.665 6.87496 Z" fill="#000000" fill-rule="nonzero" fill-opacity="1" /><path clip-path="url(#clip720)" d="M907.303 33.2348 L922.899 33.2348 L922.899 37.9801 L907.303 37.9801 L907.303 33.2348 Z" fill="#000000" fill-rule="nonzero" fill-opacity="1" /><path clip-path="url(#clip720)" d="M933.142 46.921 L942.691 46.921 L942.691 13.964 L932.303 16.0474 L932.303 10.7233 L942.633 8.64 L948.478 8.64 L948.478 46.921 L958.026 46.921 L958.026 51.84 L933.142 51.84 L933.142 46.921 Z" fill="#000000" fill-rule="nonzero" fill-opacity="1" /><path clip-path="url(#clip720)" d="M969.832 44.4905 L975.937 44.4905 L975.937 51.84 L969.832 51.84 L969.832 44.4905 Z" fill="#000000" fill-rule="nonzero" fill-opacity="1" /><path clip-path="url(#clip720)" d="M1001.17 12.4884 Q996.655 12.4884 994.369 16.9444 Q992.112 21.3714 992.112 30.2834 Q992.112 39.1665 994.369 43.6225 Q996.655 48.0495 1001.17 48.0495 Q1005.71 48.0495 1007.97 43.6225 Q1010.25 39.1665 1010.25 30.2834 Q1010.25 21.3714 1007.97 16.9444 Q1005.71 12.4884 1001.17 12.4884 M1001.17 7.85875 Q1008.43 7.85875 1012.25 13.6168 Q1016.1 19.346 1016.1 30.2834 Q1016.1 41.1919 1012.25 46.95 Q1008.43 52.6791 1001.17 52.6791 Q993.906 52.6791 990.058 46.95 Q986.238 41.1919 986.238 30.2834 Q986.238 19.346 990.058 13.6168 Q993.906 7.85875 1001.17 7.85875 Z" fill="#000000" fill-rule="nonzero" fill-opacity="1" /><path clip-path="url(#clip720)" d="M1024.78 6.87496 L1029.41 6.87496 Q1033.75 13.7036 1035.89 20.2429 Q1038.06 26.7823 1038.06 33.2348 Q1038.06 39.7162 1035.89 46.2845 Q1033.75 52.8527 1029.41 59.6525 L1024.78 59.6525 Q1028.63 53.0263 1030.51 46.487 Q1032.42 39.9188 1032.42 33.2348 Q1032.42 26.5508 1030.51 20.0404 Q1028.63 13.53 1024.78 6.87496 Z" fill="#000000" fill-rule="nonzero" fill-opacity="1" /><path clip-path="url(#clip720)" d="M1046.05 33.2348 L1061.64 33.2348 L1061.64 37.9801 L1046.05 37.9801 L1046.05 33.2348 Z" fill="#000000" fill-rule="nonzero" fill-opacity="1" /><path clip-path="url(#clip720)" d="M1076.2 13.4432 L1076.2 47.0368 L1083.26 47.0368 Q1092.2 47.0368 1096.34 42.9859 Q1100.5 38.935 1100.5 30.1966 Q1100.5 21.5161 1096.34 17.4941 Q1092.2 13.4432 1083.26 13.4432 L1076.2 13.4432 M1070.35 8.64 L1082.36 8.64 Q1094.92 8.64 1100.79 13.8772 Q1106.67 19.0855 1106.67 30.1966 Q1106.67 41.3655 1100.76 46.6028 Q1094.86 51.84 1082.36 51.84 L1070.35 51.84 L1070.35 8.64 Z" fill="#000000" fill-rule="nonzero" fill-opacity="1" /><path clip-path="url(#clip720)" d="M1143.47 34.3054 L1143.47 36.9095 L1118.99 36.9095 Q1119.34 42.4072 1122.29 45.3007 Q1125.27 48.1653 1130.57 48.1653 Q1133.63 48.1653 1136.5 47.4129 Q1139.39 46.6606 1142.23 45.156 L1142.23 50.1907 Q1139.36 51.406 1136.35 52.0425 Q1133.34 52.6791 1130.25 52.6791 Q1122.49 52.6791 1117.95 48.1653 Q1113.44 43.6514 1113.44 35.9547 Q1113.44 27.9975 1117.72 23.339 Q1122.03 18.6515 1129.32 18.6515 Q1135.86 18.6515 1139.65 22.876 Q1143.47 27.0716 1143.47 34.3054 M1138.15 32.7429 Q1138.09 28.3737 1135.69 25.7695 Q1133.31 23.1654 1129.38 23.1654 Q1124.92 23.1654 1122.23 25.6827 Q1119.57 28.2001 1119.17 32.7718 L1138.15 32.7429 Z" fill="#000000" fill-rule="nonzero" fill-opacity="1" /><path clip-path="url(#clip720)" d="M1179.15 32.2799 L1179.15 51.84 L1173.82 51.84 L1173.82 32.4535 Q1173.82 27.8529 1172.03 25.567 Q1170.24 23.2811 1166.65 23.2811 Q1162.34 23.2811 1159.85 26.03 Q1157.36 28.7788 1157.36 33.5241 L1157.36 51.84 L1152.01 51.84 L1152.01 19.4328 L1157.36 19.4328 L1157.36 24.4675 Q1159.27 21.545 1161.84 20.0983 Q1164.45 18.6515 1167.83 18.6515 Q1173.42 18.6515 1176.28 22.1237 Q1179.15 25.567 1179.15 32.2799 Z" fill="#000000" fill-rule="nonzero" fill-opacity="1" /><path clip-path="url(#clip720)" d="M1210.43 20.3876 L1210.43 25.4223 Q1208.17 24.2649 1205.74 23.6862 Q1203.31 23.1075 1200.7 23.1075 Q1196.74 23.1075 1194.74 24.3228 Q1192.78 25.5381 1192.78 27.9686 Q1192.78 29.8204 1194.19 30.891 Q1195.61 31.9327 1199.89 32.8876 L1201.72 33.2926 Q1207.39 34.5079 1209.76 36.7359 Q1212.16 38.935 1212.16 42.8991 Q1212.16 47.4129 1208.57 50.046 Q1205.02 52.6791 1198.77 52.6791 Q1196.16 52.6791 1193.33 52.1583 Q1190.52 51.6664 1187.39 50.6537 L1187.39 45.156 Q1190.35 46.6896 1193.21 47.4708 Q1196.07 48.2231 1198.88 48.2231 Q1202.64 48.2231 1204.67 46.95 Q1206.69 45.6479 1206.69 43.3042 Q1206.69 41.134 1205.22 39.9766 Q1203.77 38.8192 1198.82 37.7486 L1196.97 37.3146 Q1192.02 36.273 1189.82 34.1318 Q1187.63 31.9616 1187.63 28.2001 Q1187.63 23.6283 1190.87 21.1399 Q1194.11 18.6515 1200.07 18.6515 Q1203.02 18.6515 1205.62 19.0855 Q1208.23 19.5196 1210.43 20.3876 Z" fill="#000000" fill-rule="nonzero" fill-opacity="1" /><path clip-path="url(#clip720)" d="M1220.64 19.4328 L1225.96 19.4328 L1225.96 51.84 L1220.64 51.84 L1220.64 19.4328 M1220.64 6.81709 L1225.96 6.81709 L1225.96 13.559 L1220.64 13.559 L1220.64 6.81709 Z" fill="#000000" fill-rule="nonzero" fill-opacity="1" /><path clip-path="url(#clip720)" d="M1242.37 10.2314 L1242.37 19.4328 L1253.34 19.4328 L1253.34 23.5705 L1242.37 23.5705 L1242.37 41.163 Q1242.37 45.1271 1243.44 46.2555 Q1244.54 47.384 1247.87 47.384 L1253.34 47.384 L1253.34 51.84 L1247.87 51.84 Q1241.71 51.84 1239.36 49.5541 Q1237.02 47.2393 1237.02 41.163 L1237.02 23.5705 L1233.11 23.5705 L1233.11 19.4328 L1237.02 19.4328 L1237.02 10.2314 L1242.37 10.2314 Z" fill="#000000" fill-rule="nonzero" fill-opacity="1" /><path clip-path="url(#clip720)" d="M1273.82 54.8492 Q1271.57 60.6362 1269.43 62.4013 Q1267.28 64.1663 1263.7 64.1663 L1259.44 64.1663 L1259.44 59.7103 L1262.57 59.7103 Q1264.77 59.7103 1265.98 58.6687 Q1267.2 57.627 1268.67 53.7497 L1269.63 51.3192 L1256.52 19.4328 L1262.16 19.4328 L1272.29 44.7799 L1282.42 19.4328 L1288.06 19.4328 L1273.82 54.8492 Z" fill="#000000" fill-rule="nonzero" fill-opacity="1" /><path clip-path="url(#clip720)" d="M1313.18 12.6041 Q1306.81 12.6041 1303.05 17.3494 Q1299.32 22.0948 1299.32 30.2834 Q1299.32 38.4431 1303.05 43.1884 Q1306.81 47.9338 1313.18 47.9338 Q1319.54 47.9338 1323.24 43.1884 Q1326.98 38.4431 1326.98 30.2834 Q1326.98 22.0948 1323.24 17.3494 Q1319.54 12.6041 1313.18 12.6041 M1313.18 7.85875 Q1322.26 7.85875 1327.7 13.964 Q1333.14 20.0404 1333.14 30.2834 Q1333.14 40.4975 1327.7 46.6028 Q1322.26 52.6791 1313.18 52.6791 Q1304.06 52.6791 1298.59 46.6028 Q1293.15 40.5264 1293.15 30.2834 Q1293.15 20.0404 1298.59 13.964 Q1304.06 7.85875 1313.18 7.85875 Z" fill="#000000" fill-rule="nonzero" fill-opacity="1" /><path clip-path="url(#clip720)" d="M1358.46 6.81709 L1358.46 11.2442 L1353.37 11.2442 Q1350.5 11.2442 1349.37 12.4016 Q1348.27 13.559 1348.27 16.5682 L1348.27 19.4328 L1357.04 19.4328 L1357.04 23.5705 L1348.27 23.5705 L1348.27 51.84 L1342.92 51.84 L1342.92 23.5705 L1337.83 23.5705 L1337.83 19.4328 L1342.92 19.4328 L1342.92 17.1758 Q1342.92 11.765 1345.44 9.30551 Q1347.95 6.81709 1353.42 6.81709 L1358.46 6.81709 Z" fill="#000000" fill-rule="nonzero" fill-opacity="1" /><path clip-path="url(#clip720)" d="M1389.04 10.0578 L1389.04 15.758 Q1385.72 14.1666 1382.76 13.3853 Q1379.81 12.6041 1377.06 12.6041 Q1372.29 12.6041 1369.69 14.4559 Q1367.11 16.3078 1367.11 19.7221 Q1367.11 22.5867 1368.82 24.0624 Q1370.55 25.5091 1375.36 26.4061 L1378.89 27.1295 Q1385.43 28.3737 1388.52 31.5276 Q1391.65 34.6526 1391.65 39.9188 Q1391.65 46.1977 1387.42 49.4384 Q1383.23 52.6791 1375.1 52.6791 Q1372.03 52.6791 1368.56 51.9847 Q1365.11 51.2902 1361.41 49.9303 L1361.41 43.9118 Q1364.97 45.9083 1368.38 46.921 Q1371.8 47.9338 1375.1 47.9338 Q1380.1 47.9338 1382.82 45.9662 Q1385.54 43.9986 1385.54 40.3528 Q1385.54 37.1699 1383.57 35.376 Q1381.64 33.582 1377.18 32.685 L1373.62 31.9906 Q1367.08 30.6885 1364.16 27.9107 Q1361.24 25.133 1361.24 20.1851 Q1361.24 14.4559 1365.26 11.1573 Q1369.31 7.85875 1376.4 7.85875 Q1379.44 7.85875 1382.59 8.40852 Q1385.74 8.95829 1389.04 10.0578 Z" fill="#000000" fill-rule="nonzero" fill-opacity="1" /><path clip-path="url(#clip720)" d="M1405.8 10.2314 L1405.8 19.4328 L1416.76 19.4328 L1416.76 23.5705 L1405.8 23.5705 L1405.8 41.163 Q1405.8 45.1271 1406.87 46.2555 Q1407.97 47.384 1411.29 47.384 L1416.76 47.384 L1416.76 51.84 L1411.29 51.84 Q1405.13 51.84 1402.79 49.5541 Q1400.44 47.2393 1400.44 41.163 L1400.44 23.5705 L1396.54 23.5705 L1396.54 19.4328 L1400.44 19.4328 L1400.44 10.2314 L1405.8 10.2314 Z" fill="#000000" fill-rule="nonzero" fill-opacity="1" /><path clip-path="url(#clip720)" d="M1438.49 35.5496 Q1432.04 35.5496 1429.55 37.0253 Q1427.06 38.501 1427.06 42.06 Q1427.06 44.8956 1428.92 46.5738 Q1430.8 48.2231 1434.01 48.2231 Q1438.43 48.2231 1441.1 45.0981 Q1443.79 41.9442 1443.79 36.7359 L1443.79 35.5496 L1438.49 35.5496 M1449.11 33.3505 L1449.11 51.84 L1443.79 51.84 L1443.79 46.921 Q1441.96 49.8724 1439.24 51.2902 Q1436.53 52.6791 1432.59 52.6791 Q1427.61 52.6791 1424.66 49.9014 Q1421.74 47.0947 1421.74 42.4072 Q1421.74 36.9385 1425.39 34.1607 Q1429.06 31.3829 1436.32 31.3829 L1443.79 31.3829 L1443.79 30.8621 Q1443.79 27.1874 1441.36 25.1908 Q1438.96 23.1654 1434.59 23.1654 Q1431.81 23.1654 1429.18 23.8309 Q1426.54 24.4964 1424.11 25.8274 L1424.11 20.9085 Q1427.03 19.78 1429.78 19.2302 Q1432.53 18.6515 1435.14 18.6515 Q1442.17 18.6515 1445.64 22.2973 Q1449.11 25.9431 1449.11 33.3505 Z" fill="#000000" fill-rule="nonzero" fill-opacity="1" /><path clip-path="url(#clip720)" d="M1465.34 10.2314 L1465.34 19.4328 L1476.31 19.4328 L1476.31 23.5705 L1465.34 23.5705 L1465.34 41.163 Q1465.34 45.1271 1466.41 46.2555 Q1467.51 47.384 1470.84 47.384 L1476.31 47.384 L1476.31 51.84 L1470.84 51.84 Q1464.68 51.84 1462.34 49.5541 Q1459.99 47.2393 1459.99 41.163 L1459.99 23.5705 L1456.09 23.5705 L1456.09 19.4328 L1459.99 19.4328 L1459.99 10.2314 L1465.34 10.2314 Z" fill="#000000" fill-rule="nonzero" fill-opacity="1" /><path clip-path="url(#clip720)" d="M1511.03 34.3054 L1511.03 36.9095 L1486.55 36.9095 Q1486.9 42.4072 1489.85 45.3007 Q1492.83 48.1653 1498.13 48.1653 Q1501.19 48.1653 1504.06 47.4129 Q1506.95 46.6606 1509.79 45.156 L1509.79 50.1907 Q1506.92 51.406 1503.91 52.0425 Q1500.91 52.6791 1497.81 52.6791 Q1490.05 52.6791 1485.51 48.1653 Q1481 43.6514 1481 35.9547 Q1481 27.9975 1485.28 23.339 Q1489.59 18.6515 1496.88 18.6515 Q1503.42 18.6515 1507.21 22.876 Q1511.03 27.0716 1511.03 34.3054 M1505.71 32.7429 Q1505.65 28.3737 1503.25 25.7695 Q1500.88 23.1654 1496.94 23.1654 Q1492.49 23.1654 1489.79 25.6827 Q1487.13 28.2001 1486.73 32.7718 L1505.71 32.7429 Z" fill="#000000" fill-rule="nonzero" fill-opacity="1" /><path clip-path="url(#clip720)" d="M1540.43 20.3876 L1540.43 25.4223 Q1538.17 24.2649 1535.74 23.6862 Q1533.31 23.1075 1530.71 23.1075 Q1526.74 23.1075 1524.75 24.3228 Q1522.78 25.5381 1522.78 27.9686 Q1522.78 29.8204 1524.2 30.891 Q1525.62 31.9327 1529.9 32.8876 L1531.72 33.2926 Q1537.39 34.5079 1539.77 36.7359 Q1542.17 38.935 1542.17 42.8991 Q1542.17 47.4129 1538.58 50.046 Q1535.02 52.6791 1528.77 52.6791 Q1526.17 52.6791 1523.33 52.1583 Q1520.52 51.6664 1517.4 50.6537 L1517.4 45.156 Q1520.35 46.6896 1523.21 47.4708 Q1526.08 48.2231 1528.89 48.2231 Q1532.65 48.2231 1534.67 46.95 Q1536.7 45.6479 1536.7 43.3042 Q1536.7 41.134 1535.22 39.9766 Q1533.78 38.8192 1528.83 37.7486 L1526.98 37.3146 Q1522.03 36.273 1519.83 34.1318 Q1517.63 31.9616 1517.63 28.2001 Q1517.63 23.6283 1520.87 21.1399 Q1524.11 18.6515 1530.07 18.6515 Q1533.02 18.6515 1535.63 19.0855 Q1538.23 19.5196 1540.43 20.3876 Z" fill="#000000" fill-rule="nonzero" fill-opacity="1" /><path clip-path="url(#clip720)" d="M1547.03 8.64 L1552.93 8.64 L1562.02 45.156 L1571.07 8.64 L1577.64 8.64 L1586.73 45.156 L1595.78 8.64 L1601.72 8.64 L1590.86 51.84 L1583.52 51.84 L1574.4 14.3402 L1565.2 51.84 L1557.85 51.84 L1547.03 8.64 Z" fill="#000000" fill-rule="nonzero" fill-opacity="1" /><path clip-path="url(#clip720)" d="M1607.94 19.4328 L1613.26 19.4328 L1613.26 51.84 L1607.94 51.84 L1607.94 19.4328 M1607.94 6.81709 L1613.26 6.81709 L1613.26 13.559 L1607.94 13.559 L1607.94 6.81709 Z" fill="#000000" fill-rule="nonzero" fill-opacity="1" /><path clip-path="url(#clip720)" d="M1629.67 10.2314 L1629.67 19.4328 L1640.63 19.4328 L1640.63 23.5705 L1629.67 23.5705 L1629.67 41.163 Q1629.67 45.1271 1630.74 46.2555 Q1631.84 47.384 1635.16 47.384 L1640.63 47.384 L1640.63 51.84 L1635.16 51.84 Q1629 51.84 1626.66 49.5541 Q1624.31 47.2393 1624.31 41.163 L1624.31 23.5705 L1620.41 23.5705 L1620.41 19.4328 L1624.31 19.4328 L1624.31 10.2314 L1629.67 10.2314 Z" fill="#000000" fill-rule="nonzero" fill-opacity="1" /><path clip-path="url(#clip720)" d="M1674.57 32.2799 L1674.57 51.84 L1669.25 51.84 L1669.25 32.4535 Q1669.25 27.8529 1667.46 25.567 Q1665.66 23.2811 1662.07 23.2811 Q1657.76 23.2811 1655.27 26.03 Q1652.79 28.7788 1652.79 33.5241 L1652.79 51.84 L1647.43 51.84 L1647.43 6.81709 L1652.79 6.81709 L1652.79 24.4675 Q1654.7 21.545 1657.27 20.0983 Q1659.87 18.6515 1663.26 18.6515 Q1668.84 18.6515 1671.71 22.1237 Q1674.57 25.567 1674.57 32.2799 Z" fill="#000000" fill-rule="nonzero" fill-opacity="1" /><path clip-path="url(#clip720)" d="M1697.75 23.1654 Q1693.47 23.1654 1690.98 26.5218 Q1688.49 29.8494 1688.49 35.6653 Q1688.49 41.4813 1690.95 44.8377 Q1693.44 48.1653 1697.75 48.1653 Q1702 48.1653 1704.49 44.8088 Q1706.98 41.4523 1706.98 35.6653 Q1706.98 29.9072 1704.49 26.5508 Q1702 23.1654 1697.75 23.1654 M1697.75 18.6515 Q1704.69 18.6515 1708.66 23.1654 Q1712.62 27.6792 1712.62 35.6653 Q1712.62 43.6225 1708.66 48.1653 Q1704.69 52.6791 1697.75 52.6791 Q1690.78 52.6791 1686.81 48.1653 Q1682.88 43.6225 1682.88 35.6653 Q1682.88 27.6792 1686.81 23.1654 Q1690.78 18.6515 1697.75 18.6515 Z" fill="#000000" fill-rule="nonzero" fill-opacity="1" /><path clip-path="url(#clip720)" d="M1720.9 39.0507 L1720.9 19.4328 L1726.22 19.4328 L1726.22 38.8482 Q1726.22 43.4488 1728.02 45.7636 Q1729.81 48.0495 1733.4 48.0495 Q1737.71 48.0495 1740.2 45.3007 Q1742.72 42.5519 1742.72 37.8065 L1742.72 19.4328 L1748.04 19.4328 L1748.04 51.84 L1742.72 51.84 L1742.72 46.8632 Q1740.78 49.8145 1738.2 51.2613 Q1735.66 52.6791 1732.27 52.6791 Q1726.69 52.6791 1723.79 49.2069 Q1720.9 45.7347 1720.9 39.0507 M1734.3 18.6515 L1734.3 18.6515 Z" fill="#000000" fill-rule="nonzero" fill-opacity="1" /><path clip-path="url(#clip720)" d="M1764.27 10.2314 L1764.27 19.4328 L1775.24 19.4328 L1775.24 23.5705 L1764.27 23.5705 L1764.27 41.163 Q1764.27 45.1271 1765.34 46.2555 Q1766.44 47.384 1769.77 47.384 L1775.24 47.384 L1775.24 51.84 L1769.77 51.84 Q1763.61 51.84 1761.26 49.5541 Q1758.92 47.2393 1758.92 41.163 L1758.92 23.5705 L1755.01 23.5705 L1755.01 19.4328 L1758.92 19.4328 L1758.92 10.2314 L1764.27 10.2314 Z" fill="#000000" fill-rule="nonzero" fill-opacity="1" /><path clip-path="url(#clip720)" d="M1781.81 8.64 L1787.68 8.64 L1787.68 34.8841 Q1787.68 41.8285 1790.2 44.8956 Q1792.72 47.9338 1798.36 47.9338 Q1803.97 47.9338 1806.49 44.8956 Q1809.01 41.8285 1809.01 34.8841 L1809.01 8.64 L1814.88 8.64 L1814.88 35.6074 Q1814.88 44.0565 1810.68 48.3678 Q1806.52 52.6791 1798.36 52.6791 Q1790.17 52.6791 1785.97 48.3678 Q1781.81 44.0565 1781.81 35.6074 L1781.81 8.64 Z" fill="#000000" fill-rule="nonzero" fill-opacity="1" /><path clip-path="url(#clip720)" d="M1830.76 46.9789 L1830.76 64.1663 L1825.41 64.1663 L1825.41 19.4328 L1830.76 19.4328 L1830.76 24.3517 Q1832.44 21.4582 1834.99 20.0693 Q1837.56 18.6515 1841.12 18.6515 Q1847.03 18.6515 1850.7 23.339 Q1854.4 28.0265 1854.4 35.6653 Q1854.4 43.3042 1850.7 47.9916 Q1847.03 52.6791 1841.12 52.6791 Q1837.56 52.6791 1834.99 51.2902 Q1832.44 49.8724 1830.76 46.9789 M1848.88 35.6653 Q1848.88 29.7915 1846.45 26.464 Q1844.05 23.1075 1839.82 23.1075 Q1835.6 23.1075 1833.17 26.464 Q1830.76 29.7915 1830.76 35.6653 Q1830.76 41.5391 1833.17 44.8956 Q1835.6 48.2231 1839.82 48.2231 Q1844.05 48.2231 1846.45 44.8956 Q1848.88 41.5391 1848.88 35.6653 Z" fill="#000000" fill-rule="nonzero" fill-opacity="1" /><path clip-path="url(#clip720)" d="M1868.38 46.9789 L1868.38 64.1663 L1863.03 64.1663 L1863.03 19.4328 L1868.38 19.4328 L1868.38 24.3517 Q1870.06 21.4582 1872.6 20.0693 Q1875.18 18.6515 1878.74 18.6515 Q1884.64 18.6515 1888.32 23.339 Q1892.02 28.0265 1892.02 35.6653 Q1892.02 43.3042 1888.32 47.9916 Q1884.64 52.6791 1878.74 52.6791 Q1875.18 52.6791 1872.6 51.2902 Q1870.06 49.8724 1868.38 46.9789 M1886.49 35.6653 Q1886.49 29.7915 1884.06 26.464 Q1881.66 23.1075 1877.44 23.1075 Q1873.21 23.1075 1870.78 26.464 Q1868.38 29.7915 1868.38 35.6653 Q1868.38 41.5391 1870.78 44.8956 Q1873.21 48.2231 1877.44 48.2231 Q1881.66 48.2231 1884.06 44.8956 Q1886.49 41.5391 1886.49 35.6653 Z" fill="#000000" fill-rule="nonzero" fill-opacity="1" /><path clip-path="url(#clip720)" d="M1928.57 34.3054 L1928.57 36.9095 L1904.09 36.9095 Q1904.43 42.4072 1907.38 45.3007 Q1910.37 48.1653 1915.66 48.1653 Q1918.73 48.1653 1921.59 47.4129 Q1924.49 46.6606 1927.32 45.156 L1927.32 50.1907 Q1924.46 51.406 1921.45 52.0425 Q1918.44 52.6791 1915.34 52.6791 Q1907.59 52.6791 1903.04 48.1653 Q1898.53 43.6514 1898.53 35.9547 Q1898.53 27.9975 1902.81 23.339 Q1907.12 18.6515 1914.42 18.6515 Q1920.96 18.6515 1924.75 22.876 Q1928.57 27.0716 1928.57 34.3054 M1923.24 32.7429 Q1923.18 28.3737 1920.78 25.7695 Q1918.41 23.1654 1914.47 23.1654 Q1910.02 23.1654 1907.33 25.6827 Q1904.66 28.2001 1904.26 32.7718 L1923.24 32.7429 Z" fill="#000000" fill-rule="nonzero" fill-opacity="1" /><path clip-path="url(#clip720)" d="M1956.08 24.4096 Q1955.19 23.8888 1954.11 23.6573 Q1953.07 23.3969 1951.8 23.3969 Q1947.29 23.3969 1944.86 26.3482 Q1942.45 29.2707 1942.45 34.7683 L1942.45 51.84 L1937.1 51.84 L1937.1 19.4328 L1942.45 19.4328 L1942.45 24.4675 Q1944.13 21.5161 1946.82 20.0983 Q1949.51 18.6515 1953.36 18.6515 Q1953.91 18.6515 1954.58 18.7383 Q1955.24 18.7962 1956.05 18.9409 L1956.08 24.4096 Z" fill="#000000" fill-rule="nonzero" fill-opacity="1" /><path clip-path="url(#clip720)" d="M1967.74 31.2093 L1967.74 47.0368 L1977.12 47.0368 Q1981.83 47.0368 1984.09 45.0981 Q1986.38 43.1306 1986.38 39.1086 Q1986.38 35.0577 1984.09 33.148 Q1981.83 31.2093 1977.12 31.2093 L1967.74 31.2093 M1967.74 13.4432 L1967.74 26.464 L1976.39 26.464 Q1980.68 26.464 1982.76 24.8726 Q1984.87 23.2522 1984.87 19.9536 Q1984.87 16.6839 1982.76 15.0636 Q1980.68 13.4432 1976.39 13.4432 L1967.74 13.4432 M1961.9 8.64 L1976.83 8.64 Q1983.51 8.64 1987.13 11.4178 Q1990.75 14.1955 1990.75 19.317 Q1990.75 23.2811 1988.89 25.6249 Q1987.04 27.9686 1983.45 28.5473 Q1987.77 29.4732 1990.14 32.4246 Q1992.54 35.347 1992.54 39.7452 Q1992.54 45.5322 1988.61 48.6861 Q1984.67 51.84 1977.41 51.84 L1961.9 51.84 L1961.9 8.64 Z" fill="#000000" fill-rule="nonzero" fill-opacity="1" /><path clip-path="url(#clip720)" d="M2017.05 35.5496 Q2010.6 35.5496 2008.11 37.0253 Q2005.62 38.501 2005.62 42.06 Q2005.62 44.8956 2007.47 46.5738 Q2009.35 48.2231 2012.56 48.2231 Q2016.99 48.2231 2019.65 45.0981 Q2022.34 41.9442 2022.34 36.7359 L2022.34 35.5496 L2017.05 35.5496 M2027.67 33.3505 L2027.67 51.84 L2022.34 51.84 L2022.34 46.921 Q2020.52 49.8724 2017.8 51.2902 Q2015.08 52.6791 2011.15 52.6791 Q2006.17 52.6791 2003.22 49.9014 Q2000.3 47.0947 2000.3 42.4072 Q2000.3 36.9385 2003.94 34.1607 Q2007.62 31.3829 2014.88 31.3829 L2022.34 31.3829 L2022.34 30.8621 Q2022.34 27.1874 2019.91 25.1908 Q2017.51 23.1654 2013.14 23.1654 Q2010.36 23.1654 2007.73 23.8309 Q2005.1 24.4964 2002.67 25.8274 L2002.67 20.9085 Q2005.59 19.78 2008.34 19.2302 Q2011.09 18.6515 2013.69 18.6515 Q2020.72 18.6515 2024.2 22.2973 Q2027.67 25.9431 2027.67 33.3505 Z" fill="#000000" fill-rule="nonzero" fill-opacity="1" /><path clip-path="url(#clip720)" d="M2065.57 32.2799 L2065.57 51.84 L2060.25 51.84 L2060.25 32.4535 Q2060.25 27.8529 2058.45 25.567 Q2056.66 23.2811 2053.07 23.2811 Q2048.76 23.2811 2046.27 26.03 Q2043.78 28.7788 2043.78 33.5241 L2043.78 51.84 L2038.43 51.84 L2038.43 19.4328 L2043.78 19.4328 L2043.78 24.4675 Q2045.69 21.545 2048.27 20.0983 Q2050.87 18.6515 2054.26 18.6515 Q2059.84 18.6515 2062.71 22.1237 Q2065.57 25.567 2065.57 32.2799 Z" fill="#000000" fill-rule="nonzero" fill-opacity="1" /><path clip-path="url(#clip720)" d="M2097.52 24.3517 L2097.52 6.81709 L2102.84 6.81709 L2102.84 51.84 L2097.52 51.84 L2097.52 46.9789 Q2095.84 49.8724 2093.26 51.2902 Q2090.72 52.6791 2087.13 52.6791 Q2081.26 52.6791 2077.55 47.9916 Q2073.88 43.3042 2073.88 35.6653 Q2073.88 28.0265 2077.55 23.339 Q2081.26 18.6515 2087.13 18.6515 Q2090.72 18.6515 2093.26 20.0693 Q2095.84 21.4582 2097.52 24.3517 M2079.37 35.6653 Q2079.37 41.5391 2081.78 44.8956 Q2084.21 48.2231 2088.43 48.2231 Q2092.66 48.2231 2095.09 44.8956 Q2097.52 41.5391 2097.52 35.6653 Q2097.52 29.7915 2095.09 26.464 Q2092.66 23.1075 2088.43 23.1075 Q2084.21 23.1075 2081.78 26.464 Q2079.37 29.7915 2079.37 35.6653 Z" fill="#000000" fill-rule="nonzero" fill-opacity="1" /><polyline clip-path="url(#clip722)" style="stroke:#009af9; stroke-linecap:round; stroke-linejoin:round; stroke-width:4; stroke-opacity:1; fill:none" points="248.062,1447.38 258.279,1447.38 268.496,1447.38 278.713,1447.38 288.93,1447.38 299.147,1447.38 309.364,1447.38 319.581,1447.38 329.798,1447.38 340.015,1447.38 350.231,1447.38 360.448,1447.38 370.665,1447.38 380.882,1447.38 391.099,1447.38 401.316,1447.38 411.533,1447.38 421.75,1447.29 431.967,1443.15 442.184,1392.69 452.401,1218.09 462.618,1041.82 472.835,987.777 483.052,979.6 493.269,975.34 503.486,971.055 513.703,966.645 523.92,962.103 534.137,957.421 544.354,952.588 554.571,947.594 564.788,942.429 575.005,937.079 585.222,931.53 595.439,925.766 605.656,919.769 615.872,913.519 626.089,906.991 636.306,900.158 646.523,892.99 656.74,885.451 666.957,877.497 677.174,869.08 687.391,860.138 697.608,850.601 707.825,840.381 718.042,829.371 728.259,817.438 738.476,804.412 748.693,790.075 758.91,774.141 769.127,756.22 779.344,735.773 789.561,712.016 799.778,683.756 809.995,649.041 820.212,604.33 830.429,541.765 840.646,437.991 850.863,257.828 861.08,145.256 871.297,314.196 881.513,541.018 891.73,683.59 901.947,780.417 912.164,856.388 922.381,920.15 932.598,975.753 942.815,1025.5 953.032,1070.87 963.249,1112.84 973.466,1152.14 983.683,1189.31 993.9,1224.76 1004.12,1258.83 1014.33,1291.8 1024.55,1323.89 1034.77,1355.32 1044.98,1386.11 1055.2,1413.87 1065.42,1426.76 1075.64,1413.87 1085.85,1386.11 1096.07,1355.32 1106.29,1323.89 1116.5,1291.8 1126.72,1258.83 1136.94,1224.76 1147.15,1189.31 1157.37,1152.14 1167.59,1112.84 1177.81,1070.87 1188.02,1025.5 1198.24,975.753 1208.46,920.15 1218.67,856.388 1228.89,780.417 1239.11,683.59 1249.32,541.018 1259.54,314.196 1269.76,145.256 1279.97,257.828 1290.19,437.991 1300.41,541.765 1310.63,604.33 1320.84,649.041 1331.06,683.756 1341.28,712.016 1351.49,735.773 1361.71,756.22 1371.93,774.141 1382.14,790.075 1392.36,804.412 1402.58,817.438 1412.8,829.371 1423.01,840.381 1433.23,850.601 1443.45,860.138 1453.66,869.08 1463.88,877.497 1474.1,885.451 1484.31,892.99 1494.53,900.158 1504.75,906.991 1514.97,913.519 1525.18,919.769 1535.4,925.766 1545.62,931.53 1555.83,937.079 1566.05,942.429 1576.27,947.594 1586.48,952.588 1596.7,957.421 1606.92,962.103 1617.13,966.645 1627.35,971.055 1637.57,975.34 1647.79,979.6 1658,987.777 1668.22,1041.82 1678.44,1218.09 1688.65,1392.69 1698.87,1443.15 1709.09,1447.29 1719.3,1447.38 1729.52,1447.38 1739.74,1447.38 1749.96,1447.38 1760.17,1447.38 1770.39,1447.38 1780.61,1447.38 1790.82,1447.38 1801.04,1447.38 1811.26,1447.38 1821.47,1447.38 1831.69,1447.38 1841.91,1447.38 1852.12,1447.38 1862.34,1447.38 1872.56,1447.38 1882.78,1447.38 1892.99,1447.38 1903.21,1447.38 1913.43,1447.38 1923.64,1447.38 1933.86,1447.38 1944.08,1447.38 1954.29,1447.38 1964.51,1447.38 1974.73,1447.38 1984.95,1447.38 1995.16,1447.38 2005.38,1447.38 2015.6,1447.38 2025.81,1447.38 2036.03,1447.38 2046.25,1447.38 2056.46,1447.38 2066.68,1447.38 2076.9,1447.38 2087.11,1447.38 2097.33,1447.38 2107.55,1447.38 2117.77,1447.38 2127.98,1447.38 2138.2,1447.38 2148.42,1447.38 2158.63,1447.38 2168.85,1447.38 2179.07,1447.38 2189.28,1447.38 2199.5,1447.38 2209.72,1447.38 2219.94,1447.38 2230.15,1447.38 2240.37,1447.38 2250.59,1447.38 2260.8,1447.38 2271.02,1447.38 2281.24,1447.38 2291.45,1447.38 "/>
</svg>
