<?xml version="1.0" encoding="utf-8"?>
<svg xmlns="http://www.w3.org/2000/svg" xmlns:xlink="http://www.w3.org/1999/xlink" width="600" height="400" viewBox="0 0 2400 1600">
<defs>
  <clipPath id="clip700">
    <rect x="0" y="0" width="2400" height="1600"/>
  </clipPath>
</defs>
<path clip-path="url(#clip700)" d="M0 1600 L2400 1600 L2400 0 L0 0  Z" fill="#ffffff" fill-rule="evenodd" fill-opacity="1"/>
<defs>
  <clipPath id="clip701">
    <rect x="480" y="0" width="1681" height="1600"/>
  </clipPath>
</defs>
<path clip-path="url(#clip700)" d="M149.191 1423.18 L2352.76 1423.18 L2352.76 106.192 L149.191 106.192  Z" fill="#ffffff" fill-rule="evenodd" fill-opacity="1"/>
<defs>
  <clipPath id="clip702">
    <rect x="149" y="106" width="2205" height="1318"/>
  </clipPath>
</defs>
<polyline clip-path="url(#clip702)" style="stroke:#000000; stroke-linecap:round; stroke-linejoin:round; stroke-width:2; stroke-opacity:0.05; fill:none" points="242.324,1423.18 242.324,106.192 "/>
<polyline clip-path="url(#clip702)" style="stroke:#000000; stroke-linecap:round; stroke-linejoin:round; stroke-width:2; stroke-opacity:0.05; fill:none" points="335.458,1423.18 335.458,106.192 "/>
<polyline clip-path="url(#clip702)" style="stroke:#000000; stroke-linecap:round; stroke-linejoin:round; stroke-width:2; stroke-opacity:0.05; fill:none" points="428.592,1423.18 428.592,106.192 "/>
<polyline clip-path="url(#clip702)" style="stroke:#000000; stroke-linecap:round; stroke-linejoin:round; stroke-width:2; stroke-opacity:0.05; fill:none" points="521.725,1423.18 521.725,106.192 "/>
<polyline clip-path="url(#clip702)" style="stroke:#000000; stroke-linecap:round; stroke-linejoin:round; stroke-width:2; stroke-opacity:0.05; fill:none" points="614.859,1423.18 614.859,106.192 "/>
<polyline clip-path="url(#clip702)" style="stroke:#000000; stroke-linecap:round; stroke-linejoin:round; stroke-width:2; stroke-opacity:0.05; fill:none" points="707.993,1423.18 707.993,106.192 "/>
<polyline clip-path="url(#clip702)" style="stroke:#000000; stroke-linecap:round; stroke-linejoin:round; stroke-width:2; stroke-opacity:0.05; fill:none" points="801.126,1423.18 801.126,106.192 "/>
<polyline clip-path="url(#clip702)" style="stroke:#000000; stroke-linecap:round; stroke-linejoin:round; stroke-width:2; stroke-opacity:0.05; fill:none" points="894.26,1423.18 894.26,106.192 "/>
<polyline clip-path="url(#clip702)" style="stroke:#000000; stroke-linecap:round; stroke-linejoin:round; stroke-width:2; stroke-opacity:0.05; fill:none" points="987.393,1423.18 987.393,106.192 "/>
<polyline clip-path="url(#clip702)" style="stroke:#000000; stroke-linecap:round; stroke-linejoin:round; stroke-width:2; stroke-opacity:0.05; fill:none" points="1127.09,1423.18 1127.09,106.192 "/>
<polyline clip-path="url(#clip702)" style="stroke:#000000; stroke-linecap:round; stroke-linejoin:round; stroke-width:2; stroke-opacity:0.05; fill:none" points="1173.66,1423.18 1173.66,106.192 "/>
<polyline clip-path="url(#clip702)" style="stroke:#000000; stroke-linecap:round; stroke-linejoin:round; stroke-width:2; stroke-opacity:0.05; fill:none" points="1220.23,1423.18 1220.23,106.192 "/>
<polyline clip-path="url(#clip702)" style="stroke:#000000; stroke-linecap:round; stroke-linejoin:round; stroke-width:2; stroke-opacity:0.05; fill:none" points="1266.79,1423.18 1266.79,106.192 "/>
<polyline clip-path="url(#clip702)" style="stroke:#000000; stroke-linecap:round; stroke-linejoin:round; stroke-width:2; stroke-opacity:0.05; fill:none" points="1313.36,1423.18 1313.36,106.192 "/>
<polyline clip-path="url(#clip702)" style="stroke:#000000; stroke-linecap:round; stroke-linejoin:round; stroke-width:2; stroke-opacity:0.05; fill:none" points="1359.93,1423.18 1359.93,106.192 "/>
<polyline clip-path="url(#clip702)" style="stroke:#000000; stroke-linecap:round; stroke-linejoin:round; stroke-width:2; stroke-opacity:0.05; fill:none" points="1406.49,1423.18 1406.49,106.192 "/>
<polyline clip-path="url(#clip702)" style="stroke:#000000; stroke-linecap:round; stroke-linejoin:round; stroke-width:2; stroke-opacity:0.05; fill:none" points="1453.06,1423.18 1453.06,106.192 "/>
<polyline clip-path="url(#clip702)" style="stroke:#000000; stroke-linecap:round; stroke-linejoin:round; stroke-width:2; stroke-opacity:0.05; fill:none" points="1499.63,1423.18 1499.63,106.192 "/>
<polyline clip-path="url(#clip702)" style="stroke:#000000; stroke-linecap:round; stroke-linejoin:round; stroke-width:2; stroke-opacity:0.05; fill:none" points="1626.85,1423.18 1626.85,106.192 "/>
<polyline clip-path="url(#clip702)" style="stroke:#000000; stroke-linecap:round; stroke-linejoin:round; stroke-width:2; stroke-opacity:0.05; fill:none" points="1707.51,1423.18 1707.51,106.192 "/>
<polyline clip-path="url(#clip702)" style="stroke:#000000; stroke-linecap:round; stroke-linejoin:round; stroke-width:2; stroke-opacity:0.05; fill:none" points="1788.16,1423.18 1788.16,106.192 "/>
<polyline clip-path="url(#clip702)" style="stroke:#000000; stroke-linecap:round; stroke-linejoin:round; stroke-width:2; stroke-opacity:0.05; fill:none" points="1868.82,1423.18 1868.82,106.192 "/>
<polyline clip-path="url(#clip702)" style="stroke:#000000; stroke-linecap:round; stroke-linejoin:round; stroke-width:2; stroke-opacity:0.05; fill:none" points="1949.48,1423.18 1949.48,106.192 "/>
<polyline clip-path="url(#clip702)" style="stroke:#000000; stroke-linecap:round; stroke-linejoin:round; stroke-width:2; stroke-opacity:0.05; fill:none" points="2030.13,1423.18 2030.13,106.192 "/>
<polyline clip-path="url(#clip702)" style="stroke:#000000; stroke-linecap:round; stroke-linejoin:round; stroke-width:2; stroke-opacity:0.05; fill:none" points="2110.79,1423.18 2110.79,106.192 "/>
<polyline clip-path="url(#clip702)" style="stroke:#000000; stroke-linecap:round; stroke-linejoin:round; stroke-width:2; stroke-opacity:0.05; fill:none" points="2191.44,1423.18 2191.44,106.192 "/>
<polyline clip-path="url(#clip702)" style="stroke:#000000; stroke-linecap:round; stroke-linejoin:round; stroke-width:2; stroke-opacity:0.05; fill:none" points="2272.1,1423.18 2272.1,106.192 "/>
<polyline clip-path="url(#clip702)" style="stroke:#000000; stroke-linecap:round; stroke-linejoin:round; stroke-width:2; stroke-opacity:0.05; fill:none" points="149.191,1406.61 2352.76,1406.61 "/>
<polyline clip-path="url(#clip702)" style="stroke:#000000; stroke-linecap:round; stroke-linejoin:round; stroke-width:2; stroke-opacity:0.05; fill:none" points="149.191,1365.2 2352.76,1365.2 "/>
<polyline clip-path="url(#clip702)" style="stroke:#000000; stroke-linecap:round; stroke-linejoin:round; stroke-width:2; stroke-opacity:0.05; fill:none" points="149.191,1344.49 2352.76,1344.49 "/>
<polyline clip-path="url(#clip702)" style="stroke:#000000; stroke-linecap:round; stroke-linejoin:round; stroke-width:2; stroke-opacity:0.05; fill:none" points="149.191,1323.78 2352.76,1323.78 "/>
<polyline clip-path="url(#clip702)" style="stroke:#000000; stroke-linecap:round; stroke-linejoin:round; stroke-width:2; stroke-opacity:0.05; fill:none" points="149.191,1303.08 2352.76,1303.08 "/>
<polyline clip-path="url(#clip702)" style="stroke:#000000; stroke-linecap:round; stroke-linejoin:round; stroke-width:2; stroke-opacity:0.05; fill:none" points="149.191,1282.37 2352.76,1282.37 "/>
<polyline clip-path="url(#clip702)" style="stroke:#000000; stroke-linecap:round; stroke-linejoin:round; stroke-width:2; stroke-opacity:0.05; fill:none" points="149.191,1261.66 2352.76,1261.66 "/>
<polyline clip-path="url(#clip702)" style="stroke:#000000; stroke-linecap:round; stroke-linejoin:round; stroke-width:2; stroke-opacity:0.05; fill:none" points="149.191,1240.96 2352.76,1240.96 "/>
<polyline clip-path="url(#clip702)" style="stroke:#000000; stroke-linecap:round; stroke-linejoin:round; stroke-width:2; stroke-opacity:0.05; fill:none" points="149.191,1220.25 2352.76,1220.25 "/>
<polyline clip-path="url(#clip702)" style="stroke:#000000; stroke-linecap:round; stroke-linejoin:round; stroke-width:2; stroke-opacity:0.05; fill:none" points="149.191,1199.54 2352.76,1199.54 "/>
<polyline clip-path="url(#clip702)" style="stroke:#000000; stroke-linecap:round; stroke-linejoin:round; stroke-width:2; stroke-opacity:0.05; fill:none" points="149.191,1158.13 2352.76,1158.13 "/>
<polyline clip-path="url(#clip702)" style="stroke:#000000; stroke-linecap:round; stroke-linejoin:round; stroke-width:2; stroke-opacity:0.05; fill:none" points="149.191,1137.42 2352.76,1137.42 "/>
<polyline clip-path="url(#clip702)" style="stroke:#000000; stroke-linecap:round; stroke-linejoin:round; stroke-width:2; stroke-opacity:0.05; fill:none" points="149.191,1116.71 2352.76,1116.71 "/>
<polyline clip-path="url(#clip702)" style="stroke:#000000; stroke-linecap:round; stroke-linejoin:round; stroke-width:2; stroke-opacity:0.05; fill:none" points="149.191,1096 2352.76,1096 "/>
<polyline clip-path="url(#clip702)" style="stroke:#000000; stroke-linecap:round; stroke-linejoin:round; stroke-width:2; stroke-opacity:0.05; fill:none" points="149.191,1075.3 2352.76,1075.3 "/>
<polyline clip-path="url(#clip702)" style="stroke:#000000; stroke-linecap:round; stroke-linejoin:round; stroke-width:2; stroke-opacity:0.05; fill:none" points="149.191,1054.59 2352.76,1054.59 "/>
<polyline clip-path="url(#clip702)" style="stroke:#000000; stroke-linecap:round; stroke-linejoin:round; stroke-width:2; stroke-opacity:0.05; fill:none" points="149.191,1033.88 2352.76,1033.88 "/>
<polyline clip-path="url(#clip702)" style="stroke:#000000; stroke-linecap:round; stroke-linejoin:round; stroke-width:2; stroke-opacity:0.05; fill:none" points="149.191,1013.17 2352.76,1013.17 "/>
<polyline clip-path="url(#clip702)" style="stroke:#000000; stroke-linecap:round; stroke-linejoin:round; stroke-width:2; stroke-opacity:0.05; fill:none" points="149.191,992.467 2352.76,992.467 "/>
<polyline clip-path="url(#clip702)" style="stroke:#000000; stroke-linecap:round; stroke-linejoin:round; stroke-width:2; stroke-opacity:0.05; fill:none" points="149.191,951.052 2352.76,951.052 "/>
<polyline clip-path="url(#clip702)" style="stroke:#000000; stroke-linecap:round; stroke-linejoin:round; stroke-width:2; stroke-opacity:0.05; fill:none" points="149.191,930.345 2352.76,930.345 "/>
<polyline clip-path="url(#clip702)" style="stroke:#000000; stroke-linecap:round; stroke-linejoin:round; stroke-width:2; stroke-opacity:0.05; fill:none" points="149.191,909.637 2352.76,909.637 "/>
<polyline clip-path="url(#clip702)" style="stroke:#000000; stroke-linecap:round; stroke-linejoin:round; stroke-width:2; stroke-opacity:0.05; fill:none" points="149.191,888.93 2352.76,888.93 "/>
<polyline clip-path="url(#clip702)" style="stroke:#000000; stroke-linecap:round; stroke-linejoin:round; stroke-width:2; stroke-opacity:0.05; fill:none" points="149.191,868.223 2352.76,868.223 "/>
<polyline clip-path="url(#clip702)" style="stroke:#000000; stroke-linecap:round; stroke-linejoin:round; stroke-width:2; stroke-opacity:0.05; fill:none" points="149.191,847.515 2352.76,847.515 "/>
<polyline clip-path="url(#clip702)" style="stroke:#000000; stroke-linecap:round; stroke-linejoin:round; stroke-width:2; stroke-opacity:0.05; fill:none" points="149.191,826.808 2352.76,826.808 "/>
<polyline clip-path="url(#clip702)" style="stroke:#000000; stroke-linecap:round; stroke-linejoin:round; stroke-width:2; stroke-opacity:0.05; fill:none" points="149.191,806.101 2352.76,806.101 "/>
<polyline clip-path="url(#clip702)" style="stroke:#000000; stroke-linecap:round; stroke-linejoin:round; stroke-width:2; stroke-opacity:0.05; fill:none" points="149.191,785.393 2352.76,785.393 "/>
<polyline clip-path="url(#clip702)" style="stroke:#000000; stroke-linecap:round; stroke-linejoin:round; stroke-width:2; stroke-opacity:0.05; fill:none" points="149.191,743.979 2352.76,743.979 "/>
<polyline clip-path="url(#clip702)" style="stroke:#000000; stroke-linecap:round; stroke-linejoin:round; stroke-width:2; stroke-opacity:0.05; fill:none" points="149.191,723.271 2352.76,723.271 "/>
<polyline clip-path="url(#clip702)" style="stroke:#000000; stroke-linecap:round; stroke-linejoin:round; stroke-width:2; stroke-opacity:0.05; fill:none" points="149.191,702.564 2352.76,702.564 "/>
<polyline clip-path="url(#clip702)" style="stroke:#000000; stroke-linecap:round; stroke-linejoin:round; stroke-width:2; stroke-opacity:0.05; fill:none" points="149.191,681.857 2352.76,681.857 "/>
<polyline clip-path="url(#clip702)" style="stroke:#000000; stroke-linecap:round; stroke-linejoin:round; stroke-width:2; stroke-opacity:0.05; fill:none" points="149.191,661.149 2352.76,661.149 "/>
<polyline clip-path="url(#clip702)" style="stroke:#000000; stroke-linecap:round; stroke-linejoin:round; stroke-width:2; stroke-opacity:0.05; fill:none" points="149.191,640.442 2352.76,640.442 "/>
<polyline clip-path="url(#clip702)" style="stroke:#000000; stroke-linecap:round; stroke-linejoin:round; stroke-width:2; stroke-opacity:0.05; fill:none" points="149.191,619.735 2352.76,619.735 "/>
<polyline clip-path="url(#clip702)" style="stroke:#000000; stroke-linecap:round; stroke-linejoin:round; stroke-width:2; stroke-opacity:0.05; fill:none" points="149.191,599.027 2352.76,599.027 "/>
<polyline clip-path="url(#clip702)" style="stroke:#000000; stroke-linecap:round; stroke-linejoin:round; stroke-width:2; stroke-opacity:0.05; fill:none" points="149.191,578.32 2352.76,578.32 "/>
<polyline clip-path="url(#clip702)" style="stroke:#000000; stroke-linecap:round; stroke-linejoin:round; stroke-width:2; stroke-opacity:0.05; fill:none" points="149.191,536.905 2352.76,536.905 "/>
<polyline clip-path="url(#clip702)" style="stroke:#000000; stroke-linecap:round; stroke-linejoin:round; stroke-width:2; stroke-opacity:0.05; fill:none" points="149.191,516.198 2352.76,516.198 "/>
<polyline clip-path="url(#clip702)" style="stroke:#000000; stroke-linecap:round; stroke-linejoin:round; stroke-width:2; stroke-opacity:0.05; fill:none" points="149.191,495.49 2352.76,495.49 "/>
<polyline clip-path="url(#clip702)" style="stroke:#000000; stroke-linecap:round; stroke-linejoin:round; stroke-width:2; stroke-opacity:0.05; fill:none" points="149.191,474.783 2352.76,474.783 "/>
<polyline clip-path="url(#clip702)" style="stroke:#000000; stroke-linecap:round; stroke-linejoin:round; stroke-width:2; stroke-opacity:0.05; fill:none" points="149.191,454.076 2352.76,454.076 "/>
<polyline clip-path="url(#clip702)" style="stroke:#000000; stroke-linecap:round; stroke-linejoin:round; stroke-width:2; stroke-opacity:0.05; fill:none" points="149.191,433.368 2352.76,433.368 "/>
<polyline clip-path="url(#clip702)" style="stroke:#000000; stroke-linecap:round; stroke-linejoin:round; stroke-width:2; stroke-opacity:0.05; fill:none" points="149.191,412.661 2352.76,412.661 "/>
<polyline clip-path="url(#clip702)" style="stroke:#000000; stroke-linecap:round; stroke-linejoin:round; stroke-width:2; stroke-opacity:0.05; fill:none" points="149.191,391.954 2352.76,391.954 "/>
<polyline clip-path="url(#clip702)" style="stroke:#000000; stroke-linecap:round; stroke-linejoin:round; stroke-width:2; stroke-opacity:0.05; fill:none" points="149.191,371.246 2352.76,371.246 "/>
<polyline clip-path="url(#clip702)" style="stroke:#000000; stroke-linecap:round; stroke-linejoin:round; stroke-width:2; stroke-opacity:0.05; fill:none" points="149.191,329.832 2352.76,329.832 "/>
<polyline clip-path="url(#clip702)" style="stroke:#000000; stroke-linecap:round; stroke-linejoin:round; stroke-width:2; stroke-opacity:0.05; fill:none" points="149.191,309.124 2352.76,309.124 "/>
<polyline clip-path="url(#clip702)" style="stroke:#000000; stroke-linecap:round; stroke-linejoin:round; stroke-width:2; stroke-opacity:0.05; fill:none" points="149.191,288.417 2352.76,288.417 "/>
<polyline clip-path="url(#clip702)" style="stroke:#000000; stroke-linecap:round; stroke-linejoin:round; stroke-width:2; stroke-opacity:0.05; fill:none" points="149.191,267.709 2352.76,267.709 "/>
<polyline clip-path="url(#clip702)" style="stroke:#000000; stroke-linecap:round; stroke-linejoin:round; stroke-width:2; stroke-opacity:0.05; fill:none" points="149.191,247.002 2352.76,247.002 "/>
<polyline clip-path="url(#clip702)" style="stroke:#000000; stroke-linecap:round; stroke-linejoin:round; stroke-width:2; stroke-opacity:0.05; fill:none" points="149.191,226.295 2352.76,226.295 "/>
<polyline clip-path="url(#clip702)" style="stroke:#000000; stroke-linecap:round; stroke-linejoin:round; stroke-width:2; stroke-opacity:0.05; fill:none" points="149.191,205.587 2352.76,205.587 "/>
<polyline clip-path="url(#clip702)" style="stroke:#000000; stroke-linecap:round; stroke-linejoin:round; stroke-width:2; stroke-opacity:0.05; fill:none" points="149.191,184.88 2352.76,184.88 "/>
<polyline clip-path="url(#clip702)" style="stroke:#000000; stroke-linecap:round; stroke-linejoin:round; stroke-width:2; stroke-opacity:0.05; fill:none" points="149.191,164.173 2352.76,164.173 "/>
<polyline clip-path="url(#clip702)" style="stroke:#000000; stroke-linecap:round; stroke-linejoin:round; stroke-width:2; stroke-opacity:0.05; fill:none" points="149.191,122.758 2352.76,122.758 "/>
<polyline clip-path="url(#clip702)" style="stroke:#000000; stroke-linecap:round; stroke-linejoin:round; stroke-width:2; stroke-opacity:0.1; fill:none" points="149.191,1423.18 149.191,106.192 "/>
<polyline clip-path="url(#clip702)" style="stroke:#000000; stroke-linecap:round; stroke-linejoin:round; stroke-width:2; stroke-opacity:0.1; fill:none" points="1080.53,1423.18 1080.53,106.192 "/>
<polyline clip-path="url(#clip702)" style="stroke:#000000; stroke-linecap:round; stroke-linejoin:round; stroke-width:2; stroke-opacity:0.1; fill:none" points="1546.2,1423.18 1546.2,106.192 "/>
<polyline clip-path="url(#clip702)" style="stroke:#000000; stroke-linecap:round; stroke-linejoin:round; stroke-width:2; stroke-opacity:0.1; fill:none" points="2352.76,1423.18 2352.76,106.192 "/>
<polyline clip-path="url(#clip702)" style="stroke:#000000; stroke-linecap:round; stroke-linejoin:round; stroke-width:2; stroke-opacity:0.1; fill:none" points="149.191,1385.91 2352.76,1385.91 "/>
<polyline clip-path="url(#clip702)" style="stroke:#000000; stroke-linecap:round; stroke-linejoin:round; stroke-width:2; stroke-opacity:0.1; fill:none" points="149.191,1178.83 2352.76,1178.83 "/>
<polyline clip-path="url(#clip702)" style="stroke:#000000; stroke-linecap:round; stroke-linejoin:round; stroke-width:2; stroke-opacity:0.1; fill:none" points="149.191,971.76 2352.76,971.76 "/>
<polyline clip-path="url(#clip702)" style="stroke:#000000; stroke-linecap:round; stroke-linejoin:round; stroke-width:2; stroke-opacity:0.1; fill:none" points="149.191,764.686 2352.76,764.686 "/>
<polyline clip-path="url(#clip702)" style="stroke:#000000; stroke-linecap:round; stroke-linejoin:round; stroke-width:2; stroke-opacity:0.1; fill:none" points="149.191,557.612 2352.76,557.612 "/>
<polyline clip-path="url(#clip702)" style="stroke:#000000; stroke-linecap:round; stroke-linejoin:round; stroke-width:2; stroke-opacity:0.1; fill:none" points="149.191,350.539 2352.76,350.539 "/>
<polyline clip-path="url(#clip702)" style="stroke:#000000; stroke-linecap:round; stroke-linejoin:round; stroke-width:2; stroke-opacity:0.1; fill:none" points="149.191,143.465 2352.76,143.465 "/>
<polyline clip-path="url(#clip700)" style="stroke:#000000; stroke-linecap:round; stroke-linejoin:round; stroke-width:4; stroke-opacity:1; fill:none" points="149.191,1423.18 2352.76,1423.18 "/>
<polyline clip-path="url(#clip700)" style="stroke:#000000; stroke-linecap:round; stroke-linejoin:round; stroke-width:4; stroke-opacity:1; fill:none" points="149.191,1423.18 149.191,1404.28 "/>
<polyline clip-path="url(#clip700)" style="stroke:#000000; stroke-linecap:round; stroke-linejoin:round; stroke-width:4; stroke-opacity:1; fill:none" points="1080.53,1423.18 1080.53,1404.28 "/>
<polyline clip-path="url(#clip700)" style="stroke:#000000; stroke-linecap:round; stroke-linejoin:round; stroke-width:4; stroke-opacity:1; fill:none" points="1546.2,1423.18 1546.2,1404.28 "/>
<polyline clip-path="url(#clip700)" style="stroke:#000000; stroke-linecap:round; stroke-linejoin:round; stroke-width:4; stroke-opacity:1; fill:none" points="2352.76,1423.18 2352.76,1404.28 "/>
<polyline clip-path="url(#clip700)" style="stroke:#000000; stroke-linecap:round; stroke-linejoin:round; stroke-width:4; stroke-opacity:1; fill:none" points="242.324,1423.18 242.324,1413.73 "/>
<polyline clip-path="url(#clip700)" style="stroke:#000000; stroke-linecap:round; stroke-linejoin:round; stroke-width:4; stroke-opacity:1; fill:none" points="335.458,1423.18 335.458,1413.73 "/>
<polyline clip-path="url(#clip700)" style="stroke:#000000; stroke-linecap:round; stroke-linejoin:round; stroke-width:4; stroke-opacity:1; fill:none" points="428.592,1423.18 428.592,1413.73 "/>
<polyline clip-path="url(#clip700)" style="stroke:#000000; stroke-linecap:round; stroke-linejoin:round; stroke-width:4; stroke-opacity:1; fill:none" points="521.725,1423.18 521.725,1413.73 "/>
<polyline clip-path="url(#clip700)" style="stroke:#000000; stroke-linecap:round; stroke-linejoin:round; stroke-width:4; stroke-opacity:1; fill:none" points="614.859,1423.18 614.859,1413.73 "/>
<polyline clip-path="url(#clip700)" style="stroke:#000000; stroke-linecap:round; stroke-linejoin:round; stroke-width:4; stroke-opacity:1; fill:none" points="707.993,1423.18 707.993,1413.73 "/>
<polyline clip-path="url(#clip700)" style="stroke:#000000; stroke-linecap:round; stroke-linejoin:round; stroke-width:4; stroke-opacity:1; fill:none" points="801.126,1423.18 801.126,1413.73 "/>
<polyline clip-path="url(#clip700)" style="stroke:#000000; stroke-linecap:round; stroke-linejoin:round; stroke-width:4; stroke-opacity:1; fill:none" points="894.26,1423.18 894.26,1413.73 "/>
<polyline clip-path="url(#clip700)" style="stroke:#000000; stroke-linecap:round; stroke-linejoin:round; stroke-width:4; stroke-opacity:1; fill:none" points="987.393,1423.18 987.393,1413.73 "/>
<polyline clip-path="url(#clip700)" style="stroke:#000000; stroke-linecap:round; stroke-linejoin:round; stroke-width:4; stroke-opacity:1; fill:none" points="1127.09,1423.18 1127.09,1413.73 "/>
<polyline clip-path="url(#clip700)" style="stroke:#000000; stroke-linecap:round; stroke-linejoin:round; stroke-width:4; stroke-opacity:1; fill:none" points="1173.66,1423.18 1173.66,1413.73 "/>
<polyline clip-path="url(#clip700)" style="stroke:#000000; stroke-linecap:round; stroke-linejoin:round; stroke-width:4; stroke-opacity:1; fill:none" points="1220.23,1423.18 1220.23,1413.73 "/>
<polyline clip-path="url(#clip700)" style="stroke:#000000; stroke-linecap:round; stroke-linejoin:round; stroke-width:4; stroke-opacity:1; fill:none" points="1266.79,1423.18 1266.79,1413.73 "/>
<polyline clip-path="url(#clip700)" style="stroke:#000000; stroke-linecap:round; stroke-linejoin:round; stroke-width:4; stroke-opacity:1; fill:none" points="1313.36,1423.18 1313.36,1413.73 "/>
<polyline clip-path="url(#clip700)" style="stroke:#000000; stroke-linecap:round; stroke-linejoin:round; stroke-width:4; stroke-opacity:1; fill:none" points="1359.93,1423.18 1359.93,1413.73 "/>
<polyline clip-path="url(#clip700)" style="stroke:#000000; stroke-linecap:round; stroke-linejoin:round; stroke-width:4; stroke-opacity:1; fill:none" points="1406.49,1423.18 1406.49,1413.73 "/>
<polyline clip-path="url(#clip700)" style="stroke:#000000; stroke-linecap:round; stroke-linejoin:round; stroke-width:4; stroke-opacity:1; fill:none" points="1453.06,1423.18 1453.06,1413.73 "/>
<polyline clip-path="url(#clip700)" style="stroke:#000000; stroke-linecap:round; stroke-linejoin:round; stroke-width:4; stroke-opacity:1; fill:none" points="1499.63,1423.18 1499.63,1413.73 "/>
<polyline clip-path="url(#clip700)" style="stroke:#000000; stroke-linecap:round; stroke-linejoin:round; stroke-width:4; stroke-opacity:1; fill:none" points="1626.85,1423.18 1626.85,1413.73 "/>
<polyline clip-path="url(#clip700)" style="stroke:#000000; stroke-linecap:round; stroke-linejoin:round; stroke-width:4; stroke-opacity:1; fill:none" points="1707.51,1423.18 1707.51,1413.73 "/>
<polyline clip-path="url(#clip700)" style="stroke:#000000; stroke-linecap:round; stroke-linejoin:round; stroke-width:4; stroke-opacity:1; fill:none" points="1788.16,1423.18 1788.16,1413.73 "/>
<polyline clip-path="url(#clip700)" style="stroke:#000000; stroke-linecap:round; stroke-linejoin:round; stroke-width:4; stroke-opacity:1; fill:none" points="1868.82,1423.18 1868.82,1413.73 "/>
<polyline clip-path="url(#clip700)" style="stroke:#000000; stroke-linecap:round; stroke-linejoin:round; stroke-width:4; stroke-opacity:1; fill:none" points="1949.48,1423.18 1949.48,1413.73 "/>
<polyline clip-path="url(#clip700)" style="stroke:#000000; stroke-linecap:round; stroke-linejoin:round; stroke-width:4; stroke-opacity:1; fill:none" points="2030.13,1423.18 2030.13,1413.73 "/>
<polyline clip-path="url(#clip700)" style="stroke:#000000; stroke-linecap:round; stroke-linejoin:round; stroke-width:4; stroke-opacity:1; fill:none" points="2110.79,1423.18 2110.79,1413.73 "/>
<polyline clip-path="url(#clip700)" style="stroke:#000000; stroke-linecap:round; stroke-linejoin:round; stroke-width:4; stroke-opacity:1; fill:none" points="2191.44,1423.18 2191.44,1413.73 "/>
<polyline clip-path="url(#clip700)" style="stroke:#000000; stroke-linecap:round; stroke-linejoin:round; stroke-width:4; stroke-opacity:1; fill:none" points="2272.1,1423.18 2272.1,1413.73 "/>
<path clip-path="url(#clip700)" d="M138.439 1485.58 L138.439 1451.02 L159.943 1451.02 L159.943 1454.96 L143.115 1454.96 L143.115 1485.58 L138.439 1485.58 Z" fill="#000000" fill-rule="nonzero" fill-opacity="1" /><path clip-path="url(#clip700)" d="M1066.81 1451.02 L1071.49 1451.02 L1071.49 1465.63 L1087 1451.02 L1093.02 1451.02 L1075.86 1467.13 L1094.24 1485.58 L1088.08 1485.58 L1071.49 1468.94 L1071.49 1485.58 L1066.81 1485.58 L1066.81 1451.02 Z" fill="#000000" fill-rule="nonzero" fill-opacity="1" /><path clip-path="url(#clip700)" d="M1530.39 1451.02 L1537.35 1451.02 L1546.17 1474.54 L1555.04 1451.02 L1562.01 1451.02 L1562.01 1485.58 L1557.45 1485.58 L1557.45 1455.23 L1548.53 1478.94 L1543.83 1478.94 L1534.92 1455.23 L1534.92 1485.58 L1530.39 1485.58 L1530.39 1451.02 Z" fill="#000000" fill-rule="nonzero" fill-opacity="1" /><path clip-path="url(#clip700)" d="M2342 1485.58 L2342 1451.02 L2363.51 1451.02 L2363.51 1454.96 L2346.68 1454.96 L2346.68 1485.58 L2342 1485.58 Z" fill="#000000" fill-rule="nonzero" fill-opacity="1" /><path clip-path="url(#clip700)" d="M1235.15 1518.52 L1241.04 1518.52 L1241.04 1547.77 L1258.52 1532.4 L1266 1532.4 L1247.09 1549.07 L1266.79 1568.04 L1259.15 1568.04 L1241.04 1550.63 L1241.04 1568.04 L1235.15 1568.04 L1235.15 1518.52 Z" fill="#000000" fill-rule="nonzero" fill-opacity="1" /><polyline clip-path="url(#clip700)" style="stroke:#000000; stroke-linecap:round; stroke-linejoin:round; stroke-width:4; stroke-opacity:1; fill:none" points="149.191,1423.18 149.191,106.192 "/>
<polyline clip-path="url(#clip700)" style="stroke:#000000; stroke-linecap:round; stroke-linejoin:round; stroke-width:4; stroke-opacity:1; fill:none" points="149.191,1385.91 168.089,1385.91 "/>
<polyline clip-path="url(#clip700)" style="stroke:#000000; stroke-linecap:round; stroke-linejoin:round; stroke-width:4; stroke-opacity:1; fill:none" points="149.191,1178.83 168.089,1178.83 "/>
<polyline clip-path="url(#clip700)" style="stroke:#000000; stroke-linecap:round; stroke-linejoin:round; stroke-width:4; stroke-opacity:1; fill:none" points="149.191,971.76 168.089,971.76 "/>
<polyline clip-path="url(#clip700)" style="stroke:#000000; stroke-linecap:round; stroke-linejoin:round; stroke-width:4; stroke-opacity:1; fill:none" points="149.191,764.686 168.089,764.686 "/>
<polyline clip-path="url(#clip700)" style="stroke:#000000; stroke-linecap:round; stroke-linejoin:round; stroke-width:4; stroke-opacity:1; fill:none" points="149.191,557.612 168.089,557.612 "/>
<polyline clip-path="url(#clip700)" style="stroke:#000000; stroke-linecap:round; stroke-linejoin:round; stroke-width:4; stroke-opacity:1; fill:none" points="149.191,350.539 168.089,350.539 "/>
<polyline clip-path="url(#clip700)" style="stroke:#000000; stroke-linecap:round; stroke-linejoin:round; stroke-width:4; stroke-opacity:1; fill:none" points="149.191,143.465 168.089,143.465 "/>
<polyline clip-path="url(#clip700)" style="stroke:#000000; stroke-linecap:round; stroke-linejoin:round; stroke-width:4; stroke-opacity:1; fill:none" points="149.191,1406.61 158.64,1406.61 "/>
<polyline clip-path="url(#clip700)" style="stroke:#000000; stroke-linecap:round; stroke-linejoin:round; stroke-width:4; stroke-opacity:1; fill:none" points="149.191,1365.2 158.64,1365.2 "/>
<polyline clip-path="url(#clip700)" style="stroke:#000000; stroke-linecap:round; stroke-linejoin:round; stroke-width:4; stroke-opacity:1; fill:none" points="149.191,1344.49 158.64,1344.49 "/>
<polyline clip-path="url(#clip700)" style="stroke:#000000; stroke-linecap:round; stroke-linejoin:round; stroke-width:4; stroke-opacity:1; fill:none" points="149.191,1323.78 158.64,1323.78 "/>
<polyline clip-path="url(#clip700)" style="stroke:#000000; stroke-linecap:round; stroke-linejoin:round; stroke-width:4; stroke-opacity:1; fill:none" points="149.191,1303.08 158.64,1303.08 "/>
<polyline clip-path="url(#clip700)" style="stroke:#000000; stroke-linecap:round; stroke-linejoin:round; stroke-width:4; stroke-opacity:1; fill:none" points="149.191,1282.37 158.64,1282.37 "/>
<polyline clip-path="url(#clip700)" style="stroke:#000000; stroke-linecap:round; stroke-linejoin:round; stroke-width:4; stroke-opacity:1; fill:none" points="149.191,1261.66 158.64,1261.66 "/>
<polyline clip-path="url(#clip700)" style="stroke:#000000; stroke-linecap:round; stroke-linejoin:round; stroke-width:4; stroke-opacity:1; fill:none" points="149.191,1240.96 158.64,1240.96 "/>
<polyline clip-path="url(#clip700)" style="stroke:#000000; stroke-linecap:round; stroke-linejoin:round; stroke-width:4; stroke-opacity:1; fill:none" points="149.191,1220.25 158.64,1220.25 "/>
<polyline clip-path="url(#clip700)" style="stroke:#000000; stroke-linecap:round; stroke-linejoin:round; stroke-width:4; stroke-opacity:1; fill:none" points="149.191,1199.54 158.64,1199.54 "/>
<polyline clip-path="url(#clip700)" style="stroke:#000000; stroke-linecap:round; stroke-linejoin:round; stroke-width:4; stroke-opacity:1; fill:none" points="149.191,1158.13 158.64,1158.13 "/>
<polyline clip-path="url(#clip700)" style="stroke:#000000; stroke-linecap:round; stroke-linejoin:round; stroke-width:4; stroke-opacity:1; fill:none" points="149.191,1137.42 158.64,1137.42 "/>
<polyline clip-path="url(#clip700)" style="stroke:#000000; stroke-linecap:round; stroke-linejoin:round; stroke-width:4; stroke-opacity:1; fill:none" points="149.191,1116.71 158.64,1116.71 "/>
<polyline clip-path="url(#clip700)" style="stroke:#000000; stroke-linecap:round; stroke-linejoin:round; stroke-width:4; stroke-opacity:1; fill:none" points="149.191,1096 158.64,1096 "/>
<polyline clip-path="url(#clip700)" style="stroke:#000000; stroke-linecap:round; stroke-linejoin:round; stroke-width:4; stroke-opacity:1; fill:none" points="149.191,1075.3 158.64,1075.3 "/>
<polyline clip-path="url(#clip700)" style="stroke:#000000; stroke-linecap:round; stroke-linejoin:round; stroke-width:4; stroke-opacity:1; fill:none" points="149.191,1054.59 158.64,1054.59 "/>
<polyline clip-path="url(#clip700)" style="stroke:#000000; stroke-linecap:round; stroke-linejoin:round; stroke-width:4; stroke-opacity:1; fill:none" points="149.191,1033.88 158.64,1033.88 "/>
<polyline clip-path="url(#clip700)" style="stroke:#000000; stroke-linecap:round; stroke-linejoin:round; stroke-width:4; stroke-opacity:1; fill:none" points="149.191,1013.17 158.64,1013.17 "/>
<polyline clip-path="url(#clip700)" style="stroke:#000000; stroke-linecap:round; stroke-linejoin:round; stroke-width:4; stroke-opacity:1; fill:none" points="149.191,992.467 158.64,992.467 "/>
<polyline clip-path="url(#clip700)" style="stroke:#000000; stroke-linecap:round; stroke-linejoin:round; stroke-width:4; stroke-opacity:1; fill:none" points="149.191,951.052 158.64,951.052 "/>
<polyline clip-path="url(#clip700)" style="stroke:#000000; stroke-linecap:round; stroke-linejoin:round; stroke-width:4; stroke-opacity:1; fill:none" points="149.191,930.345 158.64,930.345 "/>
<polyline clip-path="url(#clip700)" style="stroke:#000000; stroke-linecap:round; stroke-linejoin:round; stroke-width:4; stroke-opacity:1; fill:none" points="149.191,909.637 158.64,909.637 "/>
<polyline clip-path="url(#clip700)" style="stroke:#000000; stroke-linecap:round; stroke-linejoin:round; stroke-width:4; stroke-opacity:1; fill:none" points="149.191,888.93 158.64,888.93 "/>
<polyline clip-path="url(#clip700)" style="stroke:#000000; stroke-linecap:round; stroke-linejoin:round; stroke-width:4; stroke-opacity:1; fill:none" points="149.191,868.223 158.64,868.223 "/>
<polyline clip-path="url(#clip700)" style="stroke:#000000; stroke-linecap:round; stroke-linejoin:round; stroke-width:4; stroke-opacity:1; fill:none" points="149.191,847.515 158.64,847.515 "/>
<polyline clip-path="url(#clip700)" style="stroke:#000000; stroke-linecap:round; stroke-linejoin:round; stroke-width:4; stroke-opacity:1; fill:none" points="149.191,826.808 158.64,826.808 "/>
<polyline clip-path="url(#clip700)" style="stroke:#000000; stroke-linecap:round; stroke-linejoin:round; stroke-width:4; stroke-opacity:1; fill:none" points="149.191,806.101 158.64,806.101 "/>
<polyline clip-path="url(#clip700)" style="stroke:#000000; stroke-linecap:round; stroke-linejoin:round; stroke-width:4; stroke-opacity:1; fill:none" points="149.191,785.393 158.64,785.393 "/>
<polyline clip-path="url(#clip700)" style="stroke:#000000; stroke-linecap:round; stroke-linejoin:round; stroke-width:4; stroke-opacity:1; fill:none" points="149.191,743.979 158.64,743.979 "/>
<polyline clip-path="url(#clip700)" style="stroke:#000000; stroke-linecap:round; stroke-linejoin:round; stroke-width:4; stroke-opacity:1; fill:none" points="149.191,723.271 158.64,723.271 "/>
<polyline clip-path="url(#clip700)" style="stroke:#000000; stroke-linecap:round; stroke-linejoin:round; stroke-width:4; stroke-opacity:1; fill:none" points="149.191,702.564 158.64,702.564 "/>
<polyline clip-path="url(#clip700)" style="stroke:#000000; stroke-linecap:round; stroke-linejoin:round; stroke-width:4; stroke-opacity:1; fill:none" points="149.191,681.857 158.64,681.857 "/>
<polyline clip-path="url(#clip700)" style="stroke:#000000; stroke-linecap:round; stroke-linejoin:round; stroke-width:4; stroke-opacity:1; fill:none" points="149.191,661.149 158.64,661.149 "/>
<polyline clip-path="url(#clip700)" style="stroke:#000000; stroke-linecap:round; stroke-linejoin:round; stroke-width:4; stroke-opacity:1; fill:none" points="149.191,640.442 158.64,640.442 "/>
<polyline clip-path="url(#clip700)" style="stroke:#000000; stroke-linecap:round; stroke-linejoin:round; stroke-width:4; stroke-opacity:1; fill:none" points="149.191,619.735 158.64,619.735 "/>
<polyline clip-path="url(#clip700)" style="stroke:#000000; stroke-linecap:round; stroke-linejoin:round; stroke-width:4; stroke-opacity:1; fill:none" points="149.191,599.027 158.64,599.027 "/>
<polyline clip-path="url(#clip700)" style="stroke:#000000; stroke-linecap:round; stroke-linejoin:round; stroke-width:4; stroke-opacity:1; fill:none" points="149.191,578.32 158.64,578.32 "/>
<polyline clip-path="url(#clip700)" style="stroke:#000000; stroke-linecap:round; stroke-linejoin:round; stroke-width:4; stroke-opacity:1; fill:none" points="149.191,536.905 158.64,536.905 "/>
<polyline clip-path="url(#clip700)" style="stroke:#000000; stroke-linecap:round; stroke-linejoin:round; stroke-width:4; stroke-opacity:1; fill:none" points="149.191,516.198 158.64,516.198 "/>
<polyline clip-path="url(#clip700)" style="stroke:#000000; stroke-linecap:round; stroke-linejoin:round; stroke-width:4; stroke-opacity:1; fill:none" points="149.191,495.49 158.64,495.49 "/>
<polyline clip-path="url(#clip700)" style="stroke:#000000; stroke-linecap:round; stroke-linejoin:round; stroke-width:4; stroke-opacity:1; fill:none" points="149.191,474.783 158.64,474.783 "/>
<polyline clip-path="url(#clip700)" style="stroke:#000000; stroke-linecap:round; stroke-linejoin:round; stroke-width:4; stroke-opacity:1; fill:none" points="149.191,454.076 158.64,454.076 "/>
<polyline clip-path="url(#clip700)" style="stroke:#000000; stroke-linecap:round; stroke-linejoin:round; stroke-width:4; stroke-opacity:1; fill:none" points="149.191,433.368 158.64,433.368 "/>
<polyline clip-path="url(#clip700)" style="stroke:#000000; stroke-linecap:round; stroke-linejoin:round; stroke-width:4; stroke-opacity:1; fill:none" points="149.191,412.661 158.64,412.661 "/>
<polyline clip-path="url(#clip700)" style="stroke:#000000; stroke-linecap:round; stroke-linejoin:round; stroke-width:4; stroke-opacity:1; fill:none" points="149.191,391.954 158.64,391.954 "/>
<polyline clip-path="url(#clip700)" style="stroke:#000000; stroke-linecap:round; stroke-linejoin:round; stroke-width:4; stroke-opacity:1; fill:none" points="149.191,371.246 158.64,371.246 "/>
<polyline clip-path="url(#clip700)" style="stroke:#000000; stroke-linecap:round; stroke-linejoin:round; stroke-width:4; stroke-opacity:1; fill:none" points="149.191,329.832 158.64,329.832 "/>
<polyline clip-path="url(#clip700)" style="stroke:#000000; stroke-linecap:round; stroke-linejoin:round; stroke-width:4; stroke-opacity:1; fill:none" points="149.191,309.124 158.64,309.124 "/>
<polyline clip-path="url(#clip700)" style="stroke:#000000; stroke-linecap:round; stroke-linejoin:round; stroke-width:4; stroke-opacity:1; fill:none" points="149.191,288.417 158.64,288.417 "/>
<polyline clip-path="url(#clip700)" style="stroke:#000000; stroke-linecap:round; stroke-linejoin:round; stroke-width:4; stroke-opacity:1; fill:none" points="149.191,267.709 158.64,267.709 "/>
<polyline clip-path="url(#clip700)" style="stroke:#000000; stroke-linecap:round; stroke-linejoin:round; stroke-width:4; stroke-opacity:1; fill:none" points="149.191,247.002 158.64,247.002 "/>
<polyline clip-path="url(#clip700)" style="stroke:#000000; stroke-linecap:round; stroke-linejoin:round; stroke-width:4; stroke-opacity:1; fill:none" points="149.191,226.295 158.64,226.295 "/>
<polyline clip-path="url(#clip700)" style="stroke:#000000; stroke-linecap:round; stroke-linejoin:round; stroke-width:4; stroke-opacity:1; fill:none" points="149.191,205.587 158.64,205.587 "/>
<polyline clip-path="url(#clip700)" style="stroke:#000000; stroke-linecap:round; stroke-linejoin:round; stroke-width:4; stroke-opacity:1; fill:none" points="149.191,184.88 158.64,184.88 "/>
<polyline clip-path="url(#clip700)" style="stroke:#000000; stroke-linecap:round; stroke-linejoin:round; stroke-width:4; stroke-opacity:1; fill:none" points="149.191,164.173 158.64,164.173 "/>
<polyline clip-path="url(#clip700)" style="stroke:#000000; stroke-linecap:round; stroke-linejoin:round; stroke-width:4; stroke-opacity:1; fill:none" points="149.191,122.758 158.64,122.758 "/>
<path clip-path="url(#clip700)" d="M50.9921 1386.36 L80.6679 1386.36 L80.6679 1390.29 L50.9921 1390.29 L50.9921 1386.36 Z" fill="#000000" fill-rule="nonzero" fill-opacity="1" /><path clip-path="url(#clip700)" d="M103.608 1372.7 L91.8021 1391.15 L103.608 1391.15 L103.608 1372.7 M102.381 1368.63 L108.26 1368.63 L108.26 1391.15 L113.191 1391.15 L113.191 1395.04 L108.26 1395.04 L108.26 1403.19 L103.608 1403.19 L103.608 1395.04 L88.0058 1395.04 L88.0058 1390.52 L102.381 1368.63 Z" fill="#000000" fill-rule="nonzero" fill-opacity="1" /><path clip-path="url(#clip700)" d="M52.1264 1179.28 L81.8021 1179.28 L81.8021 1183.22 L52.1264 1183.22 L52.1264 1179.28 Z" fill="#000000" fill-rule="nonzero" fill-opacity="1" /><path clip-path="url(#clip700)" d="M106.061 1177.48 Q109.418 1178.2 111.293 1180.47 Q113.191 1182.73 113.191 1186.07 Q113.191 1191.18 109.672 1193.98 Q106.154 1196.78 99.6724 1196.78 Q97.4965 1196.78 95.1817 1196.34 Q92.89 1195.93 90.4364 1195.07 L90.4364 1190.56 Q92.3808 1191.69 94.6956 1192.27 Q97.0104 1192.85 99.5335 1192.85 Q103.932 1192.85 106.223 1191.11 Q108.538 1189.38 108.538 1186.07 Q108.538 1183.01 106.385 1181.3 Q104.256 1179.56 100.436 1179.56 L96.4085 1179.56 L96.4085 1175.72 L100.621 1175.72 Q104.071 1175.72 105.899 1174.35 Q107.728 1172.97 107.728 1170.37 Q107.728 1167.71 105.83 1166.3 Q103.955 1164.86 100.436 1164.86 Q98.515 1164.86 96.316 1165.28 Q94.1169 1165.7 91.478 1166.58 L91.478 1162.41 Q94.14 1161.67 96.4548 1161.3 Q98.7928 1160.93 100.853 1160.93 Q106.177 1160.93 109.279 1163.36 Q112.381 1165.77 112.381 1169.89 Q112.381 1172.76 110.737 1174.75 Q109.094 1176.72 106.061 1177.48 Z" fill="#000000" fill-rule="nonzero" fill-opacity="1" /><path clip-path="url(#clip700)" d="M53.0754 972.211 L82.7512 972.211 L82.7512 976.146 L53.0754 976.146 L53.0754 972.211 Z" fill="#000000" fill-rule="nonzero" fill-opacity="1" /><path clip-path="url(#clip700)" d="M96.8715 985.104 L113.191 985.104 L113.191 989.04 L91.2465 989.04 L91.2465 985.104 Q93.9086 982.35 98.4919 977.72 Q103.098 973.067 104.279 971.725 Q106.524 969.202 107.404 967.466 Q108.307 965.706 108.307 964.017 Q108.307 961.262 106.362 959.526 Q104.441 957.79 101.339 957.79 Q99.14 957.79 96.6863 958.554 Q94.2558 959.317 91.478 960.868 L91.478 956.146 Q94.3021 955.012 96.7558 954.433 Q99.2095 953.855 101.246 953.855 Q106.617 953.855 109.811 956.54 Q113.006 959.225 113.006 963.716 Q113.006 965.845 112.196 967.766 Q111.408 969.665 109.302 972.257 Q108.723 972.928 105.621 976.146 Q102.52 979.341 96.8715 985.104 Z" fill="#000000" fill-rule="nonzero" fill-opacity="1" /><path clip-path="url(#clip700)" d="M52.7051 765.137 L82.3808 765.137 L82.3808 769.073 L52.7051 769.073 L52.7051 765.137 Z" fill="#000000" fill-rule="nonzero" fill-opacity="1" /><path clip-path="url(#clip700)" d="M93.2836 778.031 L100.922 778.031 L100.922 751.665 L92.6123 753.332 L92.6123 749.073 L100.876 747.406 L105.552 747.406 L105.552 778.031 L113.191 778.031 L113.191 781.966 L93.2836 781.966 L93.2836 778.031 Z" fill="#000000" fill-rule="nonzero" fill-opacity="1" /><path clip-path="url(#clip700)" d="M101.246 543.411 Q97.6354 543.411 95.8067 546.976 Q94.0012 550.518 94.0012 557.647 Q94.0012 564.754 95.8067 568.318 Q97.6354 571.86 101.246 571.86 Q104.881 571.86 106.686 568.318 Q108.515 564.754 108.515 557.647 Q108.515 550.518 106.686 546.976 Q104.881 543.411 101.246 543.411 M101.246 539.707 Q107.057 539.707 110.112 544.314 Q113.191 548.897 113.191 557.647 Q113.191 566.374 110.112 570.98 Q107.057 575.564 101.246 575.564 Q95.4363 575.564 92.3576 570.98 Q89.3021 566.374 89.3021 557.647 Q89.3021 548.897 92.3576 544.314 Q95.4363 539.707 101.246 539.707 Z" fill="#000000" fill-rule="nonzero" fill-opacity="1" /><path clip-path="url(#clip700)" d="M93.2836 363.884 L100.922 363.884 L100.922 337.518 L92.6123 339.185 L92.6123 334.926 L100.876 333.259 L105.552 333.259 L105.552 363.884 L113.191 363.884 L113.191 367.819 L93.2836 367.819 L93.2836 363.884 Z" fill="#000000" fill-rule="nonzero" fill-opacity="1" /><path clip-path="url(#clip700)" d="M96.8715 156.81 L113.191 156.81 L113.191 160.745 L91.2465 160.745 L91.2465 156.81 Q93.9086 154.056 98.4919 149.426 Q103.098 144.773 104.279 143.431 Q106.524 140.908 107.404 139.171 Q108.307 137.412 108.307 135.722 Q108.307 132.968 106.362 131.232 Q104.441 129.496 101.339 129.496 Q99.14 129.496 96.6863 130.259 Q94.2558 131.023 91.478 132.574 L91.478 127.852 Q94.3021 126.718 96.7558 126.139 Q99.2095 125.56 101.246 125.56 Q106.617 125.56 109.811 128.246 Q113.006 130.931 113.006 135.421 Q113.006 137.551 112.196 139.472 Q111.408 141.37 109.302 143.963 Q108.723 144.634 105.621 147.852 Q102.52 151.046 96.8715 156.81 Z" fill="#000000" fill-rule="nonzero" fill-opacity="1" /><path clip-path="url(#clip700)" d="M741.963 8.64 L747.808 8.64 L747.808 26.898 L767.194 8.64 L774.717 8.64 L753.276 28.7788 L776.251 51.84 L768.554 51.84 L747.808 31.0357 L747.808 51.84 L741.963 51.84 L741.963 8.64 Z" fill="#000000" fill-rule="nonzero" fill-opacity="1" /><path clip-path="url(#clip700)" d="M794.277 35.5496 Q787.825 35.5496 785.336 37.0253 Q782.848 38.501 782.848 42.06 Q782.848 44.8956 784.7 46.5738 Q786.581 48.2231 789.792 48.2231 Q794.219 48.2231 796.881 45.0981 Q799.572 41.9442 799.572 36.7359 L799.572 35.5496 L794.277 35.5496 M804.896 33.3505 L804.896 51.84 L799.572 51.84 L799.572 46.921 Q797.75 49.8724 795.03 51.2902 Q792.31 52.6791 788.375 52.6791 Q783.398 52.6791 780.446 49.9014 Q777.524 47.0947 777.524 42.4072 Q777.524 36.9385 781.17 34.1607 Q784.845 31.3829 792.107 31.3829 L799.572 31.3829 L799.572 30.8621 Q799.572 27.1874 797.142 25.1908 Q794.74 23.1654 790.371 23.1654 Q787.593 23.1654 784.96 23.8309 Q782.327 24.4964 779.897 25.8274 L779.897 20.9085 Q782.819 19.78 785.568 19.2302 Q788.317 18.6515 790.921 18.6515 Q797.952 18.6515 801.424 22.2973 Q804.896 25.9431 804.896 33.3505 Z" fill="#000000" fill-rule="nonzero" fill-opacity="1" /><path clip-path="url(#clip700)" d="M837.188 35.2602 Q837.188 29.4732 834.786 26.2904 Q832.414 23.1075 828.102 23.1075 Q823.82 23.1075 821.418 26.2904 Q819.046 29.4732 819.046 35.2602 Q819.046 41.0183 821.418 44.2012 Q823.82 47.384 828.102 47.384 Q832.414 47.384 834.786 44.2012 Q837.188 41.0183 837.188 35.2602 M842.512 47.818 Q842.512 56.0934 838.837 60.1154 Q835.163 64.1663 827.582 64.1663 Q824.775 64.1663 822.286 63.7323 Q819.798 63.3272 817.454 62.4592 L817.454 57.2798 Q819.798 58.5529 822.084 59.1606 Q824.37 59.7682 826.742 59.7682 Q831.98 59.7682 834.584 57.0194 Q837.188 54.2995 837.188 48.7729 L837.188 46.1398 Q835.539 49.0044 832.963 50.4222 Q830.388 51.84 826.8 51.84 Q820.84 51.84 817.194 47.2972 Q813.548 42.7544 813.548 35.2602 Q813.548 27.7371 817.194 23.1943 Q820.84 18.6515 826.8 18.6515 Q830.388 18.6515 832.963 20.0693 Q835.539 21.4872 837.188 24.3517 L837.188 19.4328 L842.512 19.4328 L842.512 47.818 Z" fill="#000000" fill-rule="nonzero" fill-opacity="1" /><path clip-path="url(#clip700)" d="M866.036 23.1654 Q861.754 23.1654 859.265 26.5218 Q856.777 29.8494 856.777 35.6653 Q856.777 41.4813 859.236 44.8377 Q861.725 48.1653 866.036 48.1653 Q870.29 48.1653 872.778 44.8088 Q875.266 41.4523 875.266 35.6653 Q875.266 29.9072 872.778 26.5508 Q870.29 23.1654 866.036 23.1654 M866.036 18.6515 Q872.981 18.6515 876.945 23.1654 Q880.909 27.6792 880.909 35.6653 Q880.909 43.6225 876.945 48.1653 Q872.981 52.6791 866.036 52.6791 Q859.063 52.6791 855.099 48.1653 Q851.164 43.6225 851.164 35.6653 Q851.164 27.6792 855.099 23.1654 Q859.063 18.6515 866.036 18.6515 Z" fill="#000000" fill-rule="nonzero" fill-opacity="1" /><path clip-path="url(#clip700)" d="M914.965 25.6538 Q916.962 22.0659 919.74 20.3587 Q922.517 18.6515 926.279 18.6515 Q931.343 18.6515 934.091 22.2105 Q936.84 25.7406 936.84 32.2799 L936.84 51.84 L931.487 51.84 L931.487 32.4535 Q931.487 27.795 929.838 25.5381 Q928.189 23.2811 924.803 23.2811 Q920.666 23.2811 918.264 26.03 Q915.862 28.7788 915.862 33.5241 L915.862 51.84 L910.509 51.84 L910.509 32.4535 Q910.509 27.7661 908.86 25.5381 Q907.211 23.2811 903.767 23.2811 Q899.688 23.2811 897.286 26.0589 Q894.884 28.8077 894.884 33.5241 L894.884 51.84 L889.531 51.84 L889.531 19.4328 L894.884 19.4328 L894.884 24.4675 Q896.707 21.4872 899.254 20.0693 Q901.8 18.6515 905.301 18.6515 Q908.831 18.6515 911.291 20.4455 Q913.779 22.2395 914.965 25.6538 Z" fill="#000000" fill-rule="nonzero" fill-opacity="1" /><path clip-path="url(#clip700)" d="M975.179 34.3054 L975.179 36.9095 L950.7 36.9095 Q951.047 42.4072 953.999 45.3007 Q956.979 48.1653 962.274 48.1653 Q965.341 48.1653 968.206 47.4129 Q971.099 46.6606 973.935 45.156 L973.935 50.1907 Q971.07 51.406 968.061 52.0425 Q965.052 52.6791 961.956 52.6791 Q954.201 52.6791 949.658 48.1653 Q945.145 43.6514 945.145 35.9547 Q945.145 27.9975 949.427 23.339 Q953.738 18.6515 961.03 18.6515 Q967.569 18.6515 971.36 22.876 Q975.179 27.0716 975.179 34.3054 M969.855 32.7429 Q969.797 28.3737 967.396 25.7695 Q965.023 23.1654 961.088 23.1654 Q956.632 23.1654 953.941 25.6827 Q951.279 28.2001 950.874 32.7718 L969.855 32.7429 Z" fill="#000000" fill-rule="nonzero" fill-opacity="1" /><path clip-path="url(#clip700)" d="M996.707 6.87496 Q992.83 13.53 990.949 20.0404 Q989.068 26.5508 989.068 33.2348 Q989.068 39.9188 990.949 46.487 Q992.858 53.0263 996.707 59.6525 L992.077 59.6525 Q987.737 52.8527 985.567 46.2845 Q983.426 39.7162 983.426 33.2348 Q983.426 26.7823 985.567 20.2429 Q987.708 13.7036 992.077 6.87496 L996.707 6.87496 Z" fill="#000000" fill-rule="nonzero" fill-opacity="1" /><path clip-path="url(#clip700)" d="M1039.62 11.9675 L1039.62 18.1307 Q1036.67 15.3819 1033.31 14.0219 Q1029.98 12.662 1026.22 12.662 Q1018.81 12.662 1014.88 17.2048 Q1010.94 21.7186 1010.94 30.2834 Q1010.94 38.8192 1014.88 43.362 Q1018.81 47.8759 1026.22 47.8759 Q1029.98 47.8759 1033.31 46.516 Q1036.67 45.156 1039.62 42.4072 L1039.62 48.5125 Q1036.55 50.5958 1033.11 51.6375 Q1029.69 52.6791 1025.87 52.6791 Q1016.06 52.6791 1010.42 46.6896 Q1004.78 40.6711 1004.78 30.2834 Q1004.78 19.8668 1010.42 13.8772 Q1016.06 7.85875 1025.87 7.85875 Q1029.75 7.85875 1033.16 8.90042 Q1036.61 9.91314 1039.62 11.9675 Z" fill="#000000" fill-rule="nonzero" fill-opacity="1" /><path clip-path="url(#clip700)" d="M1060.97 23.1654 Q1056.69 23.1654 1054.2 26.5218 Q1051.71 29.8494 1051.71 35.6653 Q1051.71 41.4813 1054.17 44.8377 Q1056.66 48.1653 1060.97 48.1653 Q1065.22 48.1653 1067.71 44.8088 Q1070.2 41.4523 1070.2 35.6653 Q1070.2 29.9072 1067.71 26.5508 Q1065.22 23.1654 1060.97 23.1654 M1060.97 18.6515 Q1067.92 18.6515 1071.88 23.1654 Q1075.84 27.6792 1075.84 35.6653 Q1075.84 43.6225 1071.88 48.1653 Q1067.92 52.6791 1060.97 52.6791 Q1054 52.6791 1050.03 48.1653 Q1046.1 43.6225 1046.1 35.6653 Q1046.1 27.6792 1050.03 23.1654 Q1054 18.6515 1060.97 18.6515 Z" fill="#000000" fill-rule="nonzero" fill-opacity="1" /><path clip-path="url(#clip700)" d="M1109.9 25.6538 Q1111.9 22.0659 1114.67 20.3587 Q1117.45 18.6515 1121.21 18.6515 Q1126.28 18.6515 1129.03 22.2105 Q1131.78 25.7406 1131.78 32.2799 L1131.78 51.84 L1126.42 51.84 L1126.42 32.4535 Q1126.42 27.795 1124.77 25.5381 Q1123.12 23.2811 1119.74 23.2811 Q1115.6 23.2811 1113.2 26.03 Q1110.8 28.7788 1110.8 33.5241 L1110.8 51.84 L1105.44 51.84 L1105.44 32.4535 Q1105.44 27.7661 1103.8 25.5381 Q1102.15 23.2811 1098.7 23.2811 Q1094.62 23.2811 1092.22 26.0589 Q1089.82 28.8077 1089.82 33.5241 L1089.82 51.84 L1084.47 51.84 L1084.47 19.4328 L1089.82 19.4328 L1089.82 24.4675 Q1091.64 21.4872 1094.19 20.0693 Q1096.74 18.6515 1100.24 18.6515 Q1103.77 18.6515 1106.23 20.4455 Q1108.71 22.2395 1109.9 25.6538 Z" fill="#000000" fill-rule="nonzero" fill-opacity="1" /><path clip-path="url(#clip700)" d="M1147.55 46.9789 L1147.55 64.1663 L1142.19 64.1663 L1142.19 19.4328 L1147.55 19.4328 L1147.55 24.3517 Q1149.22 21.4582 1151.77 20.0693 Q1154.34 18.6515 1157.9 18.6515 Q1163.81 18.6515 1167.48 23.339 Q1171.19 28.0265 1171.19 35.6653 Q1171.19 43.3042 1167.48 47.9916 Q1163.81 52.6791 1157.9 52.6791 Q1154.34 52.6791 1151.77 51.2902 Q1149.22 49.8724 1147.55 46.9789 M1165.66 35.6653 Q1165.66 29.7915 1163.23 26.464 Q1160.83 23.1075 1156.6 23.1075 Q1152.38 23.1075 1149.95 26.464 Q1147.55 29.7915 1147.55 35.6653 Q1147.55 41.5391 1149.95 44.8956 Q1152.38 48.2231 1156.6 48.2231 Q1160.83 48.2231 1163.23 44.8956 Q1165.66 41.5391 1165.66 35.6653 Z" fill="#000000" fill-rule="nonzero" fill-opacity="1" /><path clip-path="url(#clip700)" d="M1192.57 23.1654 Q1188.29 23.1654 1185.8 26.5218 Q1183.31 29.8494 1183.31 35.6653 Q1183.31 41.4813 1185.77 44.8377 Q1188.26 48.1653 1192.57 48.1653 Q1196.82 48.1653 1199.31 44.8088 Q1201.8 41.4523 1201.8 35.6653 Q1201.8 29.9072 1199.31 26.5508 Q1196.82 23.1654 1192.57 23.1654 M1192.57 18.6515 Q1199.51 18.6515 1203.48 23.1654 Q1207.44 27.6792 1207.44 35.6653 Q1207.44 43.6225 1203.48 48.1653 Q1199.51 52.6791 1192.57 52.6791 Q1185.59 52.6791 1181.63 48.1653 Q1177.7 43.6225 1177.7 35.6653 Q1177.7 27.6792 1181.63 23.1654 Q1185.59 18.6515 1192.57 18.6515 Z" fill="#000000" fill-rule="nonzero" fill-opacity="1" /><path clip-path="url(#clip700)" d="M1236.93 20.3876 L1236.93 25.4223 Q1234.67 24.2649 1232.24 23.6862 Q1229.81 23.1075 1227.2 23.1075 Q1223.24 23.1075 1221.24 24.3228 Q1219.28 25.5381 1219.28 27.9686 Q1219.28 29.8204 1220.69 30.891 Q1222.11 31.9327 1226.39 32.8876 L1228.22 33.2926 Q1233.89 34.5079 1236.26 36.7359 Q1238.66 38.935 1238.66 42.8991 Q1238.66 47.4129 1235.07 50.046 Q1231.51 52.6791 1225.26 52.6791 Q1222.66 52.6791 1219.82 52.1583 Q1217.02 51.6664 1213.89 50.6537 L1213.89 45.156 Q1216.84 46.6896 1219.71 47.4708 Q1222.57 48.2231 1225.38 48.2231 Q1229.14 48.2231 1231.17 46.95 Q1233.19 45.6479 1233.19 43.3042 Q1233.19 41.134 1231.72 39.9766 Q1230.27 38.8192 1225.32 37.7486 L1223.47 37.3146 Q1218.52 36.273 1216.32 34.1318 Q1214.12 31.9616 1214.12 28.2001 Q1214.12 23.6283 1217.37 21.1399 Q1220.61 18.6515 1226.57 18.6515 Q1229.52 18.6515 1232.12 19.0855 Q1234.73 19.5196 1236.93 20.3876 Z" fill="#000000" fill-rule="nonzero" fill-opacity="1" /><path clip-path="url(#clip700)" d="M1247.14 19.4328 L1252.46 19.4328 L1252.46 51.84 L1247.14 51.84 L1247.14 19.4328 M1247.14 6.81709 L1252.46 6.81709 L1252.46 13.559 L1247.14 13.559 L1247.14 6.81709 Z" fill="#000000" fill-rule="nonzero" fill-opacity="1" /><path clip-path="url(#clip700)" d="M1268.87 10.2314 L1268.87 19.4328 L1279.84 19.4328 L1279.84 23.5705 L1268.87 23.5705 L1268.87 41.163 Q1268.87 45.1271 1269.94 46.2555 Q1271.04 47.384 1274.37 47.384 L1279.84 47.384 L1279.84 51.84 L1274.37 51.84 Q1268.2 51.84 1265.86 49.5541 Q1263.52 47.2393 1263.52 41.163 L1263.52 23.5705 L1259.61 23.5705 L1259.61 19.4328 L1263.52 19.4328 L1263.52 10.2314 L1268.87 10.2314 Z" fill="#000000" fill-rule="nonzero" fill-opacity="1" /><path clip-path="url(#clip700)" d="M1314.56 34.3054 L1314.56 36.9095 L1290.08 36.9095 Q1290.43 42.4072 1293.38 45.3007 Q1296.36 48.1653 1301.65 48.1653 Q1304.72 48.1653 1307.58 47.4129 Q1310.48 46.6606 1313.31 45.156 L1313.31 50.1907 Q1310.45 51.406 1307.44 52.0425 Q1304.43 52.6791 1301.33 52.6791 Q1293.58 52.6791 1289.04 48.1653 Q1284.52 43.6514 1284.52 35.9547 Q1284.52 27.9975 1288.81 23.339 Q1293.12 18.6515 1300.41 18.6515 Q1306.95 18.6515 1310.74 22.876 Q1314.56 27.0716 1314.56 34.3054 M1309.23 32.7429 Q1309.18 28.3737 1306.77 25.7695 Q1304.4 23.1654 1300.47 23.1654 Q1296.01 23.1654 1293.32 25.6827 Q1290.66 28.2001 1290.25 32.7718 L1309.23 32.7429 Z" fill="#000000" fill-rule="nonzero" fill-opacity="1" /><path clip-path="url(#clip700)" d="M1317.54 8.64 L1354.08 8.64 L1354.08 13.559 L1338.75 13.559 L1338.75 51.84 L1332.87 51.84 L1332.87 13.559 L1317.54 13.559 L1317.54 8.64 Z" fill="#000000" fill-rule="nonzero" fill-opacity="1" /><path clip-path="url(#clip700)" d="M1365.57 31.2093 L1365.57 47.0368 L1374.95 47.0368 Q1379.66 47.0368 1381.92 45.0981 Q1384.2 43.1306 1384.2 39.1086 Q1384.2 35.0577 1381.92 33.148 Q1379.66 31.2093 1374.95 31.2093 L1365.57 31.2093 M1365.57 13.4432 L1365.57 26.464 L1374.22 26.464 Q1378.5 26.464 1380.59 24.8726 Q1382.7 23.2522 1382.7 19.9536 Q1382.7 16.6839 1380.59 15.0636 Q1378.5 13.4432 1374.22 13.4432 L1365.57 13.4432 M1359.73 8.64 L1374.66 8.64 Q1381.34 8.64 1384.96 11.4178 Q1388.57 14.1955 1388.57 19.317 Q1388.57 23.2811 1386.72 25.6249 Q1384.87 27.9686 1381.28 28.5473 Q1385.59 29.4732 1387.97 32.4246 Q1390.37 35.347 1390.37 39.7452 Q1390.37 45.5322 1386.43 48.6861 Q1382.5 51.84 1375.23 51.84 L1359.73 51.84 L1359.73 8.64 Z" fill="#000000" fill-rule="nonzero" fill-opacity="1" /><path clip-path="url(#clip700)" d="M1414.82 14.3981 L1406.89 35.8968 L1422.78 35.8968 L1414.82 14.3981 M1411.52 8.64 L1418.15 8.64 L1434.61 51.84 L1428.53 51.84 L1424.6 40.7579 L1405.12 40.7579 L1401.19 51.84 L1395.03 51.84 L1411.52 8.64 Z" fill="#000000" fill-rule="nonzero" fill-opacity="1" /><path clip-path="url(#clip700)" d="M1439.85 6.87496 L1444.48 6.87496 Q1448.82 13.7036 1450.96 20.2429 Q1453.13 26.7823 1453.13 33.2348 Q1453.13 39.7162 1450.96 46.2845 Q1448.82 52.8527 1444.48 59.6525 L1439.85 59.6525 Q1443.7 53.0263 1445.58 46.487 Q1447.49 39.9188 1447.49 33.2348 Q1447.49 26.5508 1445.58 20.0404 Q1443.7 13.53 1439.85 6.87496 Z" fill="#000000" fill-rule="nonzero" fill-opacity="1" /><path clip-path="url(#clip700)" d="M1461.11 33.2348 L1476.71 33.2348 L1476.71 37.9801 L1461.11 37.9801 L1461.11 33.2348 Z" fill="#000000" fill-rule="nonzero" fill-opacity="1" /><path clip-path="url(#clip700)" d="M1490.45 10.2314 L1490.45 19.4328 L1501.42 19.4328 L1501.42 23.5705 L1490.45 23.5705 L1490.45 41.163 Q1490.45 45.1271 1491.52 46.2555 Q1492.62 47.384 1495.95 47.384 L1501.42 47.384 L1501.42 51.84 L1495.95 51.84 Q1489.79 51.84 1487.44 49.5541 Q1485.1 47.2393 1485.1 41.163 L1485.1 23.5705 L1481.19 23.5705 L1481.19 19.4328 L1485.1 19.4328 L1485.1 10.2314 L1490.45 10.2314 Z" fill="#000000" fill-rule="nonzero" fill-opacity="1" /><path clip-path="url(#clip700)" d="M1521.21 6.87496 Q1517.33 13.53 1515.45 20.0404 Q1513.57 26.5508 1513.57 33.2348 Q1513.57 39.9188 1515.45 46.487 Q1517.36 53.0263 1521.21 59.6525 L1516.58 59.6525 Q1512.24 52.8527 1510.07 46.2845 Q1507.93 39.7162 1507.93 33.2348 Q1507.93 26.7823 1510.07 20.2429 Q1512.21 13.7036 1516.58 6.87496 L1521.21 6.87496 Z" fill="#000000" fill-rule="nonzero" fill-opacity="1" /><path clip-path="url(#clip700)" d="M1528.85 33.2348 L1544.45 33.2348 L1544.45 37.9801 L1528.85 37.9801 L1528.85 33.2348 Z" fill="#000000" fill-rule="nonzero" fill-opacity="1" /><path clip-path="url(#clip700)" d="M1554.69 46.921 L1564.24 46.921 L1564.24 13.964 L1553.85 16.0474 L1553.85 10.7233 L1564.18 8.64 L1570.03 8.64 L1570.03 46.921 L1579.57 46.921 L1579.57 51.84 L1554.69 51.84 L1554.69 46.921 Z" fill="#000000" fill-rule="nonzero" fill-opacity="1" /><path clip-path="url(#clip700)" d="M1591.38 44.4905 L1597.48 44.4905 L1597.48 51.84 L1591.38 51.84 L1591.38 44.4905 Z" fill="#000000" fill-rule="nonzero" fill-opacity="1" /><path clip-path="url(#clip700)" d="M1622.72 12.4884 Q1618.2 12.4884 1615.92 16.9444 Q1613.66 21.3714 1613.66 30.2834 Q1613.66 39.1665 1615.92 43.6225 Q1618.2 48.0495 1622.72 48.0495 Q1627.26 48.0495 1629.52 43.6225 Q1631.8 39.1665 1631.8 30.2834 Q1631.8 21.3714 1629.52 16.9444 Q1627.26 12.4884 1622.72 12.4884 M1622.72 7.85875 Q1629.98 7.85875 1633.8 13.6168 Q1637.65 19.346 1637.65 30.2834 Q1637.65 41.1919 1633.8 46.95 Q1629.98 52.6791 1622.72 52.6791 Q1615.45 52.6791 1611.61 46.95 Q1607.79 41.1919 1607.79 30.2834 Q1607.79 19.346 1611.61 13.6168 Q1615.45 7.85875 1622.72 7.85875 Z" fill="#000000" fill-rule="nonzero" fill-opacity="1" /><path clip-path="url(#clip700)" d="M1646.33 6.87496 L1650.96 6.87496 Q1655.3 13.7036 1657.44 20.2429 Q1659.61 26.7823 1659.61 33.2348 Q1659.61 39.7162 1657.44 46.2845 Q1655.3 52.8527 1650.96 59.6525 L1646.33 59.6525 Q1650.18 53.0263 1652.06 46.487 Q1653.97 39.9188 1653.97 33.2348 Q1653.97 26.5508 1652.06 20.0404 Q1650.18 13.53 1646.33 6.87496 Z" fill="#000000" fill-rule="nonzero" fill-opacity="1" /><path clip-path="url(#clip700)" d="M1667.59 33.2348 L1683.19 33.2348 L1683.19 37.9801 L1667.59 37.9801 L1667.59 33.2348 Z" fill="#000000" fill-rule="nonzero" fill-opacity="1" /><path clip-path="url(#clip700)" d="M1691.9 8.64 L1719.21 8.64 L1719.21 13.559 L1697.74 13.559 L1697.74 26.3482 L1718.32 26.3482 L1718.32 31.2672 L1697.74 31.2672 L1697.74 46.921 L1719.74 46.921 L1719.74 51.84 L1691.9 51.84 L1691.9 8.64 Z" fill="#000000" fill-rule="nonzero" fill-opacity="1" /><path clip-path="url(#clip700)" d="M1735.19 31.2093 L1735.19 47.0368 L1744.56 47.0368 Q1749.28 47.0368 1751.53 45.0981 Q1753.82 43.1306 1753.82 39.1086 Q1753.82 35.0577 1751.53 33.148 Q1749.28 31.2093 1744.56 31.2093 L1735.19 31.2093 M1735.19 13.4432 L1735.19 26.464 L1743.84 26.464 Q1748.12 26.464 1750.2 24.8726 Q1752.32 23.2522 1752.32 19.9536 Q1752.32 16.6839 1750.2 15.0636 Q1748.12 13.4432 1743.84 13.4432 L1735.19 13.4432 M1729.34 8.64 L1744.27 8.64 Q1750.96 8.64 1754.57 11.4178 Q1758.19 14.1955 1758.19 19.317 Q1758.19 23.2811 1756.34 25.6249 Q1754.49 27.9686 1750.9 28.5473 Q1755.21 29.4732 1757.58 32.4246 Q1759.98 35.347 1759.98 39.7452 Q1759.98 45.5322 1756.05 48.6861 Q1752.11 51.84 1744.85 51.84 L1729.34 51.84 L1729.34 8.64 Z" fill="#000000" fill-rule="nonzero" fill-opacity="1" /><polyline clip-path="url(#clip702)" style="stroke:#009af9; stroke-linecap:round; stroke-linejoin:round; stroke-width:4; stroke-opacity:1; fill:none" points="149.191,1385.91 158.504,1385.82 167.818,1385.54 177.131,1385.09 186.444,1384.45 195.758,1383.64 205.071,1382.64 214.384,1381.46 223.698,1380.11 233.011,1378.57 242.324,1376.86 251.638,1374.96 260.951,1372.9 270.265,1370.65 279.578,1368.23 288.891,1365.64 298.205,1362.87 307.518,1359.93 316.831,1356.82 326.145,1353.55 335.458,1350.1 344.771,1346.49 354.085,1342.72 363.398,1338.78 372.712,1334.68 382.025,1330.42 391.338,1326.01 400.652,1321.44 409.965,1316.71 419.278,1311.84 428.592,1306.81 437.905,1301.64 447.218,1296.32 456.532,1290.87 465.845,1285.27 475.159,1279.53 484.472,1273.66 493.785,1267.66 503.099,1261.52 512.412,1255.26 521.725,1248.88 531.039,1242.37 540.352,1235.75 549.665,1229.01 558.979,1222.15 568.292,1215.19 577.606,1208.12 586.919,1200.95 596.232,1193.67 605.546,1186.3 614.859,1178.83 624.172,1171.28 633.486,1163.63 642.799,1155.9 652.112,1148.09 661.426,1140.21 670.739,1132.25 680.052,1124.22 689.366,1116.12 698.679,1107.96 707.993,1099.74 717.306,1091.46 726.619,1083.13 735.933,1074.75 745.246,1066.33 754.559,1057.87 763.873,1049.36 773.186,1040.83 782.499,1032.26 791.813,1023.67 801.126,1015.05 810.44,1006.41 819.753,997.764 829.066,989.102 838.38,980.433 847.693,971.76 857.006,963.086 866.32,954.417 875.633,945.755 884.946,937.105 894.26,928.469 903.573,919.853 912.887,911.26 922.2,902.693 931.513,894.156 940.827,885.654 950.14,877.189 959.453,868.765 968.767,860.387 978.08,852.058 987.393,843.781 996.707,835.56 1006.02,827.399 1015.33,819.302 1024.65,811.271 1033.96,803.311 1043.27,795.424 1052.59,787.615 1061.9,779.887 1071.21,772.243 1080.53,764.686 1085.18,768.43 1089.84,772.152 1094.5,775.85 1099.15,779.524 1103.81,783.173 1108.47,786.798 1113.12,790.398 1117.78,793.972 1122.44,797.52 1127.09,801.042 1131.75,804.537 1136.41,808.005 1141.06,811.446 1145.72,814.859 1150.38,818.244 1155.03,821.6 1159.69,824.927 1164.35,828.225 1169,831.493 1173.66,834.731 1178.32,837.939 1182.97,841.116 1187.63,844.262 1192.29,847.376 1196.94,850.459 1201.6,853.509 1206.26,856.527 1210.91,859.513 1215.57,862.465 1220.23,865.384 1224.88,868.269 1229.54,871.12 1234.2,873.936 1238.85,876.718 1243.51,879.465 1248.17,882.177 1252.82,884.853 1257.48,887.493 1262.14,890.097 1266.79,892.664 1271.45,895.195 1276.11,897.689 1280.76,900.145 1285.42,902.564 1290.08,904.945 1294.73,907.288 1299.39,909.593 1304.05,911.859 1308.7,914.086 1313.36,916.274 1318.02,918.423 1322.67,920.532 1327.33,922.602 1331.99,924.631 1336.64,926.62 1341.3,928.569 1345.96,930.477 1350.61,932.344 1355.27,934.17 1359.93,935.955 1364.58,937.698 1369.24,939.399 1373.9,941.059 1378.55,942.677 1383.21,944.252 1387.87,945.785 1392.52,947.275 1397.18,948.723 1401.84,950.128 1406.49,951.49 1411.15,952.808 1415.81,954.084 1420.46,955.315 1425.12,956.503 1429.78,957.648 1434.43,958.748 1439.09,959.805 1443.75,960.817 1448.4,961.786 1453.06,962.709 1457.72,963.589 1462.37,964.424 1467.03,965.214 1471.69,965.96 1476.34,966.661 1481,967.317 1485.66,967.928 1490.31,968.494 1494.97,969.015 1499.63,969.491 1504.28,969.922 1508.94,970.307 1513.6,970.647 1518.26,970.942 1522.91,971.192 1527.57,971.396 1532.23,971.555 1536.88,971.669 1541.54,971.737 1546.2,971.76 1554.26,971.964 1562.33,972.575 1570.39,973.589 1578.46,975 1586.52,976.797 1594.59,978.97 1602.65,981.504 1610.72,984.386 1618.79,987.598 1626.85,991.124 1634.92,994.946 1642.98,999.045 1651.05,1003.4 1659.11,1008 1667.18,1012.83 1675.24,1017.86 1683.31,1023.07 1691.38,1028.47 1699.44,1034.02 1707.51,1039.71 1715.57,1045.53 1723.64,1051.46 1731.7,1057.5 1739.77,1063.63 1747.84,1069.83 1755.9,1076.11 1763.97,1082.44 1772.03,1088.83 1780.1,1095.25 1788.16,1101.7 1796.23,1108.18 1804.29,1114.68 1812.36,1121.18 1820.43,1127.68 1828.49,1134.19 1836.56,1140.68 1844.62,1147.15 1852.69,1153.6 1860.75,1160.03 1868.82,1166.43 1876.89,1172.79 1884.95,1179.1 1893.02,1185.38 1901.08,1191.6 1909.15,1197.77 1917.21,1203.89 1925.28,1209.95 1933.34,1215.94 1941.41,1221.86 1949.48,1227.72 1957.54,1233.5 1965.61,1239.2 1973.67,1244.83 1981.74,1250.38 1989.8,1255.84 1997.87,1261.21 2005.93,1266.5 2014,1271.69 2022.07,1276.79 2030.13,1281.79 2038.2,1286.7 2046.26,1291.5 2054.33,1296.21 2062.39,1300.81 2070.46,1305.3 2078.53,1309.69 2086.59,1313.96 2094.66,1318.13 2102.72,1322.18 2110.79,1326.12 2118.85,1329.95 2126.92,1333.66 2134.98,1337.25 2143.05,1340.71 2151.12,1344.06 2159.18,1347.29 2167.25,1350.39 2175.31,1353.37 2183.38,1356.23 2191.44,1358.96 2199.51,1361.56 2207.57,1364.03 2215.64,1366.38 2223.71,1368.59 2231.77,1370.67 2239.84,1372.63 2247.9,1374.45 2255.97,1376.14 2264.03,1377.69 2272.1,1379.11 2280.17,1380.4 2288.23,1381.55 2296.3,1382.57 2304.36,1383.46 2312.43,1384.2 2320.49,1384.82 2328.56,1385.29 2336.62,1385.63 2344.69,1385.84 2352.76,1385.91 "/>
<polyline clip-path="url(#clip702)" style="stroke:#e26f46; stroke-linecap:round; stroke-linejoin:round; stroke-width:4; stroke-opacity:1; fill:none" points="149.191,143.465 158.504,143.556 167.818,143.829 177.131,144.283 186.444,144.918 195.758,145.734 205.071,146.731 214.384,147.908 223.698,149.265 233.011,150.801 242.324,152.515 251.638,154.408 260.951,156.477 270.265,158.721 279.578,161.141 288.891,163.735 298.205,166.502 307.518,169.44 316.831,172.548 326.145,175.826 335.458,179.27 344.771,182.881 354.085,186.656 363.398,190.594 372.712,194.693 382.025,198.951 391.338,203.366 400.652,207.936 409.965,212.661 419.278,217.536 428.592,222.56 437.905,227.732 447.218,233.048 456.532,238.507 465.845,244.105 475.159,249.841 484.472,255.712 493.785,261.716 503.099,267.849 512.412,274.109 521.725,280.494 531.039,287 540.352,293.625 549.665,300.366 558.979,307.219 568.292,314.183 577.606,321.253 586.919,328.427 596.232,335.701 605.546,343.073 614.859,350.539 624.172,358.096 633.486,365.74 642.799,373.468 652.112,381.277 661.426,389.164 670.739,397.124 680.052,405.155 689.366,413.252 698.679,421.413 707.993,429.634 717.306,437.911 726.619,446.24 735.933,454.618 745.246,463.042 754.559,471.506 763.873,480.009 773.186,488.546 782.499,497.113 791.813,505.706 801.126,514.322 810.44,522.958 819.753,531.608 829.066,540.27 838.38,548.939 847.693,557.612 857.006,566.286 866.32,574.955 875.633,583.617 884.946,592.267 894.26,600.903 903.573,609.519 912.887,618.112 922.2,626.679 931.513,635.216 940.827,643.718 950.14,652.183 959.453,660.607 968.767,668.985 978.08,677.314 987.393,685.591 996.707,693.812 1006.02,701.973 1015.33,710.07 1024.65,718.101 1033.96,726.061 1043.27,733.948 1052.59,741.757 1061.9,749.485 1071.21,757.129 1080.53,764.686 1085.18,760.942 1089.84,757.22 1094.5,753.522 1099.15,749.848 1103.81,746.199 1108.47,742.574 1113.12,738.974 1117.78,735.4 1122.44,731.852 1127.09,728.33 1131.75,724.835 1136.41,721.367 1141.06,717.926 1145.72,714.513 1150.38,711.128 1155.03,707.772 1159.69,704.445 1164.35,701.147 1169,697.879 1173.66,694.641 1178.32,691.433 1182.97,688.256 1187.63,685.11 1192.29,681.996 1196.94,678.913 1201.6,675.863 1206.26,672.845 1210.91,669.859 1215.57,666.907 1220.23,663.988 1224.88,661.103 1229.54,658.252 1234.2,655.436 1238.85,652.654 1243.51,649.907 1248.17,647.195 1252.82,644.519 1257.48,641.879 1262.14,639.275 1266.79,636.707 1271.45,634.177 1276.11,631.683 1280.76,629.227 1285.42,626.808 1290.08,624.427 1294.73,622.084 1299.39,619.779 1304.05,617.513 1308.7,615.286 1313.36,613.098 1318.02,610.949 1322.67,608.84 1327.33,606.77 1331.99,604.741 1336.64,602.752 1341.3,600.803 1345.96,598.895 1350.61,597.028 1355.27,595.202 1359.93,593.417 1364.58,591.674 1369.24,589.973 1373.9,588.313 1378.55,586.695 1383.21,585.12 1387.87,583.587 1392.52,582.097 1397.18,580.649 1401.84,579.244 1406.49,577.882 1411.15,576.564 1415.81,575.288 1420.46,574.057 1425.12,572.869 1429.78,571.724 1434.43,570.624 1439.09,569.567 1443.75,568.555 1448.4,567.586 1453.06,566.663 1457.72,565.783 1462.37,564.948 1467.03,564.158 1471.69,563.412 1476.34,562.711 1481,562.055 1485.66,561.444 1490.31,560.878 1494.97,560.357 1499.63,559.881 1504.28,559.45 1508.94,559.065 1513.6,558.725 1518.26,558.43 1522.91,558.18 1527.57,557.976 1532.23,557.817 1536.88,557.703 1541.54,557.635 1546.2,557.612 1554.26,557.408 1562.33,556.797 1570.39,555.783 1578.46,554.372 1586.52,552.575 1594.59,550.402 1602.65,547.868 1610.72,544.986 1618.79,541.774 1626.85,538.248 1634.92,534.426 1642.98,530.327 1651.05,525.969 1659.11,521.369 1667.18,516.545 1675.24,511.516 1683.31,506.297 1691.38,500.906 1699.44,495.357 1707.51,489.665 1715.57,483.845 1723.64,477.91 1731.7,471.872 1739.77,465.744 1747.84,459.537 1755.9,453.261 1763.97,446.927 1772.03,440.545 1780.1,434.122 1788.16,427.667 1796.23,421.189 1804.29,414.695 1812.36,408.193 1820.43,401.687 1828.49,395.187 1836.56,388.696 1844.62,382.221 1852.69,375.768 1860.75,369.341 1868.82,362.946 1876.89,356.586 1884.95,350.268 1893.02,343.994 1901.08,337.769 1909.15,331.597 1917.21,325.482 1925.28,319.427 1933.34,313.435 1941.41,307.51 1949.48,301.655 1957.54,295.874 1965.61,290.168 1973.67,284.542 1981.74,278.997 1989.8,273.536 1997.87,268.162 2005.93,262.877 2014,257.683 2022.07,252.583 2030.13,247.579 2038.2,242.674 2046.26,237.868 2054.33,233.164 2062.39,228.565 2070.46,224.071 2078.53,219.685 2086.59,215.407 2094.66,211.241 2102.72,207.187 2110.79,203.248 2118.85,199.423 2126.92,195.716 2134.98,192.127 2143.05,188.657 2151.12,185.308 2159.18,182.081 2167.25,178.977 2175.31,175.998 2183.38,173.143 2191.44,170.415 2199.51,167.814 2207.57,165.341 2215.64,162.997 2223.71,160.782 2231.77,158.699 2239.84,156.746 2247.9,154.925 2255.97,153.236 2264.03,151.681 2272.1,150.259 2280.17,148.971 2288.23,147.818 2296.3,146.799 2304.36,145.915 2312.43,145.167 2320.49,144.555 2328.56,144.078 2336.62,143.738 2344.69,143.533 2352.76,143.465 "/>
<polyline clip-path="url(#clip702)" style="stroke:#3da44d; stroke-linecap:round; stroke-linejoin:round; stroke-width:4; stroke-opacity:1; fill:none" points="149.191,143.465 158.504,143.465 167.818,143.465 177.131,143.465 186.444,143.465 195.758,143.465 205.071,143.465 214.384,143.465 223.698,143.465 233.011,143.465 242.324,143.465 251.638,143.465 260.951,143.465 270.265,143.465 279.578,143.465 288.891,143.465 298.205,143.465 307.518,143.465 316.831,143.465 326.145,143.465 335.458,143.465 344.771,143.465 354.085,143.465 363.398,143.465 372.712,143.465 382.025,143.465 391.338,143.465 400.652,143.465 409.965,143.465 419.278,143.465 428.592,143.465 437.905,143.465 447.218,143.465 456.532,143.465 465.845,143.465 475.159,143.465 484.472,143.465 493.785,143.465 503.099,143.465 512.412,143.465 521.725,143.465 531.039,143.465 540.352,143.465 549.665,143.465 558.979,143.465 568.292,143.465 577.606,143.465 586.919,143.465 596.232,143.465 605.546,143.465 614.859,143.465 624.172,143.465 633.486,143.465 642.799,143.465 652.112,143.465 661.426,143.465 670.739,143.465 680.052,143.465 689.366,143.465 698.679,143.465 707.993,143.465 717.306,143.465 726.619,143.465 735.933,143.465 745.246,143.465 754.559,143.465 763.873,143.465 773.186,143.465 782.499,143.465 791.813,143.465 801.126,143.465 810.44,143.465 819.753,143.465 829.066,143.465 838.38,143.465 847.693,143.465 857.006,143.465 866.32,143.465 875.633,143.465 884.946,143.465 894.26,143.465 903.573,143.465 912.887,143.465 922.2,143.465 931.513,143.465 940.827,143.465 950.14,143.465 959.453,143.465 968.767,143.465 978.08,143.465 987.393,143.465 996.707,143.465 1006.02,143.465 1015.33,143.465 1024.65,143.465 1033.96,143.465 1043.27,143.465 1052.59,143.465 1061.9,143.465 1071.21,143.465 1080.53,143.465 1085.18,143.465 1089.84,143.465 1094.5,143.465 1099.15,143.465 1103.81,143.465 1108.47,143.465 1113.12,143.465 1117.78,143.465 1122.44,143.465 1127.09,143.465 1131.75,143.465 1136.41,143.465 1141.06,143.465 1145.72,143.465 1150.38,143.465 1155.03,143.465 1159.69,143.465 1164.35,143.465 1169,143.465 1173.66,143.465 1178.32,143.465 1182.97,143.465 1187.63,143.465 1192.29,143.465 1196.94,143.465 1201.6,143.465 1206.26,143.465 1210.91,143.465 1215.57,143.465 1220.23,143.465 1224.88,143.465 1229.54,143.465 1234.2,143.465 1238.85,143.465 1243.51,143.465 1248.17,143.465 1252.82,143.465 1257.48,143.465 1262.14,143.465 1266.79,143.465 1271.45,143.465 1276.11,143.465 1280.76,143.465 1285.42,143.465 1290.08,143.465 1294.73,143.465 1299.39,143.465 1304.05,143.465 1308.7,143.465 1313.36,143.465 1318.02,143.465 1322.67,143.465 1327.33,143.465 1331.99,143.465 1336.64,143.465 1341.3,143.465 1345.96,143.465 1350.61,143.465 1355.27,143.465 1359.93,143.465 1364.58,143.465 1369.24,143.465 1373.9,143.465 1378.55,143.465 1383.21,143.465 1387.87,143.465 1392.52,143.465 1397.18,143.465 1401.84,143.465 1406.49,143.465 1411.15,143.465 1415.81,143.465 1420.46,143.465 1425.12,143.465 1429.78,143.465 1434.43,143.465 1439.09,143.465 1443.75,143.465 1448.4,143.465 1453.06,143.465 1457.72,143.465 1462.37,143.465 1467.03,143.465 1471.69,143.465 1476.34,143.465 1481,143.465 1485.66,143.465 1490.31,143.465 1494.97,143.465 1499.63,143.465 1504.28,143.465 1508.94,143.465 1513.6,143.465 1518.26,143.465 1522.91,143.465 1527.57,143.465 1532.23,143.465 1536.88,143.465 1541.54,143.465 1546.2,143.465 1554.26,143.465 1562.33,143.465 1570.39,143.465 1578.46,143.465 1586.52,143.465 1594.59,143.465 1602.65,143.465 1610.72,143.465 1618.79,143.465 1626.85,143.465 1634.92,143.465 1642.98,143.465 1651.05,143.465 1659.11,143.465 1667.18,143.465 1675.24,143.465 1683.31,143.465 1691.38,143.465 1699.44,143.465 1707.51,143.465 1715.57,143.465 1723.64,143.465 1731.7,143.465 1739.77,143.465 1747.84,143.465 1755.9,143.465 1763.97,143.465 1772.03,143.465 1780.1,143.465 1788.16,143.465 1796.23,143.465 1804.29,143.465 1812.36,143.465 1820.43,143.465 1828.49,143.465 1836.56,143.465 1844.62,143.465 1852.69,143.465 1860.75,143.465 1868.82,143.465 1876.89,143.465 1884.95,143.465 1893.02,143.465 1901.08,143.465 1909.15,143.465 1917.21,143.465 1925.28,143.465 1933.34,143.465 1941.41,143.465 1949.48,143.465 1957.54,143.465 1965.61,143.465 1973.67,143.465 1981.74,143.465 1989.8,143.465 1997.87,143.465 2005.93,143.465 2014,143.465 2022.07,143.465 2030.13,143.465 2038.2,143.465 2046.26,143.465 2054.33,143.465 2062.39,143.465 2070.46,143.465 2078.53,143.465 2086.59,143.465 2094.66,143.465 2102.72,143.465 2110.79,143.465 2118.85,143.465 2126.92,143.465 2134.98,143.465 2143.05,143.465 2151.12,143.465 2159.18,143.465 2167.25,143.465 2175.31,143.465 2183.38,143.465 2191.44,143.465 2199.51,143.465 2207.57,143.465 2215.64,143.465 2223.71,143.465 2231.77,143.465 2239.84,143.465 2247.9,143.465 2255.97,143.465 2264.03,143.465 2272.1,143.465 2280.17,143.465 2288.23,143.465 2296.3,143.465 2304.36,143.465 2312.43,143.465 2320.49,143.465 2328.56,143.465 2336.62,143.465 2344.69,143.465 2352.76,143.465 "/>
</svg>
